<svg id="Layer_1" data-name="Layer 1" xmlns="http://www.w3.org/2000/svg" xmlns:xlink="http://www.w3.org/1999/xlink" viewBox="0 0 89.46 92.67"><defs><style>.cls-1,.cls-2,.cls-3{fill:#fff;}.cls-1{clip-rule:evenodd;}.cls-3{fill-rule:evenodd;}.cls-4{clip-path:url(#clip-path);}.cls-5{clip-path:url(#clip-path-2);}.cls-6{clip-path:url(#clip-path-3);}.cls-7{clip-path:url(#clip-path-4);}.cls-8{clip-path:url(#clip-path-5);}.cls-9{clip-path:url(#clip-path-6);}.cls-10{clip-path:url(#clip-path-7);}.cls-11{clip-path:url(#clip-path-8);}.cls-12{clip-path:url(#clip-path-9);}.cls-13{clip-path:url(#clip-path-10);}.cls-14{clip-path:url(#clip-path-11);}.cls-15{clip-path:url(#clip-path-12);}.cls-16{clip-path:url(#clip-path-13);}.cls-17{clip-path:url(#clip-path-14);}.cls-18{clip-path:url(#clip-path-15);}.cls-19{clip-path:url(#clip-path-16);}.cls-20{clip-path:url(#clip-path-17);}.cls-21{clip-path:url(#clip-path-18);}.cls-22{clip-path:url(#clip-path-19);}.cls-23{clip-path:url(#clip-path-20);}.cls-24{clip-path:url(#clip-path-21);}.cls-25{clip-path:url(#clip-path-22);}.cls-26{clip-path:url(#clip-path-23);}</style><clipPath id="clip-path"><path class="cls-1" d="M-316.6,86.39h15.91v-10H-316.6Zm17.9,4h-19.9a2,2,0,0,1-2-2V74.45a2,2,0,0,1,2-2h19.9a2,2,0,0,1,2,2V88.38A2,2,0,0,1-298.7,90.36Z"/></clipPath><clipPath id="clip-path-2"><path class="cls-1" d="M-326.55,86.39h35.8V-1.13h-35.8Zm37.79,4h-39.78a2,2,0,0,1-2-2V-3.12a2,2,0,0,1,2-2h39.78a2,2,0,0,1,2,2v91.5A2,2,0,0,1-288.76,90.36Z"/></clipPath><clipPath id="clip-path-3"><path class="cls-1" d="M-342.46,86.39h11.92V6.83h-11.92Zm13.92,4h-15.92a2,2,0,0,1-2-2V4.83a2,2,0,0,1,2-2h15.92a2,2,0,0,1,2,2V88.38A2,2,0,0,1-328.54,90.36Z"/></clipPath><clipPath id="clip-path-4"><path class="cls-1" d="M-286.77,86.39h11.93V6.83h-11.93Zm13.92,4h-15.91a2,2,0,0,1-2-2V4.83a2,2,0,0,1,2-2h15.91a2,2,0,0,1,2,2V88.38A2,2,0,0,1-272.85,90.36Z"/></clipPath><clipPath id="clip-path-5"><rect class="cls-2" x="-360.36" y="46.61" width="3.98" height="19.89" transform="translate(-188.48 -264.02) rotate(-53.11)"/></clipPath><clipPath id="clip-path-6"><rect class="cls-2" x="-368.33" y="54.56" width="19.89" height="3.98" transform="translate(-105.64 -203.75) rotate(-36.88)"/></clipPath><clipPath id="clip-path-7"><rect class="cls-2" x="-260.91" y="46.61" width="3.97" height="19.89" transform="translate(-148.76 -184.49) rotate(-53.12)"/></clipPath><clipPath id="clip-path-8"><rect class="cls-2" x="-268.87" y="54.57" width="19.89" height="3.97" transform="translate(-85.64 -143.98) rotate(-36.85)"/></clipPath><clipPath id="clip-path-9"><path class="cls-1" d="M-500.71,36.91a9.47,9.47,0,0,0-6.66-9A38,38,0,0,0-512,16.62a9.47,9.47,0,0,0-1.67-11.11,9.38,9.38,0,0,0-6.68-2.76,9.29,9.29,0,0,0-4.41,1.09A38.21,38.21,0,0,0-536-.84a9.46,9.46,0,0,0-9-6.65,9.47,9.47,0,0,0-9,6.65,38.15,38.15,0,0,0-11.23,4.68,9.46,9.46,0,0,0-7.18-.69,1.41,1.41,0,0,0,.82,2.69A6.61,6.61,0,0,1-565,7.5a6.65,6.65,0,0,1,0,9.41,6.71,6.71,0,0,1-9.38,0,6.67,6.67,0,0,1-1.46-7.23,1.4,1.4,0,0,0-2.59-1.06,9.44,9.44,0,0,0,.39,8,38.52,38.52,0,0,0-4.67,11.27,9.46,9.46,0,0,0-6.65,9,9.48,9.48,0,0,0,6.65,9,38.57,38.57,0,0,0,4.67,11.26,9.47,9.47,0,0,0,1.67,11.11A9.55,9.55,0,0,0-565.32,70,37.85,37.85,0,0,0-561,72.29L-565.3,83.9a3.31,3.31,0,0,0,3.06,4.39h34.36a3.3,3.3,0,0,0,3-4.39l-4.28-11.61A38.71,38.71,0,0,0-524.8,70a9.4,9.4,0,0,0,4.4,1.09,9.46,9.46,0,0,0,2.91-.46,1.4,1.4,0,0,0-.86-2.67,6.6,6.6,0,0,1-6.73-1.62,6.67,6.67,0,0,1,0-9.41,6.7,6.7,0,0,1,9.39,0,6.64,6.64,0,0,1,1.47,7.17,1.41,1.41,0,0,0,2.61,1,9.47,9.47,0,0,0-.43-7.93A38.19,38.19,0,0,0-507.37,46,9.48,9.48,0,0,0-500.71,36.91Zm-2.81,0a6.66,6.66,0,0,1-6.64,6.66,6.66,6.66,0,0,1-6.64-6.66,6.66,6.66,0,0,1,6.64-6.65A6.66,6.66,0,0,1-503.52,36.91Zm-16-1.4h-11.86a13.72,13.72,0,0,0-3-7.3l8.39-8.4a9.54,9.54,0,0,0,7.46,1.67,31.13,31.13,0,0,1,3.14,7.57A9.41,9.41,0,0,0-519.5,35.51ZM-531.33,70.2c-1.42.53-2.82,1.07-4.29,1.47A9.58,9.58,0,0,0-536,69.2a33.68,33.68,0,0,0,7.32-3,9.67,9.67,0,0,0,1.47,2A29.16,29.16,0,0,1-531.33,70.2Zm-31.58-2a9.67,9.67,0,0,0,1.47-2,33.4,33.4,0,0,0,7.31,3,9.58,9.58,0,0,0-.37,2.47A35.61,35.61,0,0,1-562.91,68.17Zm-13.36-13.38a35.65,35.65,0,0,1-3.49-8.42A9.44,9.44,0,0,0-577.3,46a33.56,33.56,0,0,0,3,7.33A10.15,10.15,0,0,0-576.27,54.79Zm4.69-2.44a30.58,30.58,0,0,1-3.14-7.57,9.48,9.48,0,0,0,4.1-6.46h11.85a13.72,13.72,0,0,0,3,7.27l-8.4,8.41A9.58,9.58,0,0,0-571.58,52.35Zm25.11,10.17a9.41,9.41,0,0,0-6.45,4.1,30.7,30.7,0,0,1-7.56-3.15A9.46,9.46,0,0,0-562.16,56l8.39-8.39a13.67,13.67,0,0,0,7.3,3Zm1.41,2.7a6.65,6.65,0,0,1,6.64,6.65,6.65,6.65,0,0,1-6.64,6.65,6.65,6.65,0,0,1-6.64-6.65A6.65,6.65,0,0,1-545.06,65.22Zm15.41-1.75a30.63,30.63,0,0,1-7.55,3.15,9.43,9.43,0,0,0-6.46-4.1V50.62a13.67,13.67,0,0,0,7.29-3L-528,56A9.48,9.48,0,0,0-529.65,63.47Zm-15.41-15.58a11,11,0,0,1-11-11,11,11,0,0,1,11-11,11,11,0,0,1,11,11A11,11,0,0,1-545.06,47.89Zm-9.07-43.26a33,33,0,0,0-7.31,3.05,9.17,9.17,0,0,0-1.47-2,35.36,35.36,0,0,1,8.41-3.5A10,10,0,0,0-554.13,4.63Zm-6.35,5.73a30.32,30.32,0,0,1,7.56-3.15,9.46,9.46,0,0,0,6.45,4.11V23.21a13.82,13.82,0,0,0-7.29,3l-8.39-8.39A9.47,9.47,0,0,0-560.48,10.36Zm31.8-2.68a33.23,33.23,0,0,0-7.32-3,9.5,9.5,0,0,0,.38-2.46,35.36,35.36,0,0,1,8.41,3.5A9.42,9.42,0,0,0-528.68,7.68Zm-8.52-.47a30.25,30.25,0,0,1,7.55,3.15A9.5,9.5,0,0,0-528,17.82l-8.41,8.41a13.58,13.58,0,0,0-7.27-3V11.32A9.48,9.48,0,0,0-537.2,7.21ZM-513.86,19a35.31,35.31,0,0,1,3.49,8.43,8.65,8.65,0,0,0-2.45.38,33.18,33.18,0,0,0-3-7.34A9.26,9.26,0,0,0-513.86,19ZM-515.69,7.5a6.67,6.67,0,0,1,0,9.41,6.72,6.72,0,0,1-9.39,0,6.75,6.75,0,0,1,0-9.41A6.7,6.7,0,0,1-515.69,7.5ZM-545.06-4.69A6.66,6.66,0,0,1-538.42,2a6.66,6.66,0,0,1-6.64,6.65A6.66,6.66,0,0,1-551.7,2a6.58,6.58,0,0,1,.11-1.19,1.28,1.28,0,0,0,.06-.33A6.67,6.67,0,0,1-545.06-4.69Zm-19.08,24.51,8.4,8.4a13.76,13.76,0,0,0-3,7.29h-11.85a9.48,9.48,0,0,0-4.1-6.46,30.74,30.74,0,0,1,3.14-7.57A9.56,9.56,0,0,0-564.14,19.82Zm-10.12.69a33.64,33.64,0,0,0-3,7.34,8.67,8.67,0,0,0-2.46-.38,35.34,35.34,0,0,1,3.5-8.43A9.81,9.81,0,0,0-574.26,20.51Zm-12.34,16.4A6.74,6.74,0,0,1-580,30.26a6.66,6.66,0,0,1,6.64,6.65A6.66,6.66,0,0,1-580,43.57,6.67,6.67,0,0,1-586.6,36.91Zm16.86,31.38a6.61,6.61,0,0,1-4.69-2,6.65,6.65,0,0,1,0-9.41,6.69,6.69,0,0,1,9.38,0,6.65,6.65,0,0,1,0,9.41A6.75,6.75,0,0,1-569.74,68.29Zm42.28,16.59a.44.44,0,0,1-.42.6h-34.36a.44.44,0,0,1-.43-.6l4.26-11.52a37.75,37.75,0,0,0,4.32,1.31,9.48,9.48,0,0,0,9,6.66,9.47,9.47,0,0,0,9-6.66,37.91,37.91,0,0,0,4.33-1.31ZM-526,54l-8.39-8.4a13.75,13.75,0,0,0,3-7.29h11.86a9.41,9.41,0,0,0,4.1,6.46,30.61,30.61,0,0,1-3.15,7.57,9.26,9.26,0,0,0-1.84-.18A9.42,9.42,0,0,0-526,54Zm10.12-.69a33.11,33.11,0,0,0,3-7.33,9.43,9.43,0,0,0,2.45.38,35.24,35.24,0,0,1-3.49,8.42A9.87,9.87,0,0,0-515.87,53.32Z"/></clipPath><clipPath id="clip-path-10"><path class="cls-2" d="M-821.6,90.84h-74.57a2.58,2.58,0,0,1-2.54-2.6V82.8a2.58,2.58,0,0,1,2.54-2.6h28.57a7,7,0,0,1-.68-2.08,6.79,6.79,0,0,1,1.42-5.3l.91-1.13a7.11,7.11,0,0,0,1.47-5.57l-.39-2.43h-11.24A6,6,0,0,1-882,57.54a.94.94,0,0,0-.38-.78l-2.37-1.67a2.66,2.66,0,0,1-1-2.9,2.54,2.54,0,0,1,2.44-1.86H-864V47.4h-6.46a6,6,0,0,1-5.88-6.15,1,1,0,0,0-.39-.79l-2.37-1.67a2.65,2.65,0,0,1-1-2.89A2.55,2.55,0,0,1-877.66,34H-864V32.56a10.16,10.16,0,0,0-5.7-9.28l-.72-.34V20.45h23.07v2.49l-.72.34a10.17,10.17,0,0,0-5.71,9.28V34h13.67a2.55,2.55,0,0,1,2.43,1.88,2.6,2.6,0,0,1-1,2.88L-841,40.46a.93.93,0,0,0-.39.79,6,6,0,0,1-5.89,6.15h-6.46v2.93h19.32A2.55,2.55,0,0,1-832,52.2a2.62,2.62,0,0,1-1,2.89l-2.36,1.66a1,1,0,0,0-.39.79,6,6,0,0,1-5.89,6.15h-11.24l-.38,2.43a7.08,7.08,0,0,0,1.46,5.57l.92,1.13a6.79,6.79,0,0,1,1.41,5.3,6.78,6.78,0,0,1-.68,2.08h28.58a2.57,2.57,0,0,1,2.53,2.6v5.44A2.57,2.57,0,0,1-821.6,90.84Zm-74.57-8.14a.13.13,0,0,0,0,.1v5.44c0,.07,0,.1,0,.1h74.57a.14.14,0,0,0,0-.1V82.8c0-.06,0-.09,0-.1h-35.06l3.1-2.26a4.15,4.15,0,0,0,1.6-2.7,4.33,4.33,0,0,0-.88-3.35l-.92-1.12a9.58,9.58,0,0,1-2-7.54l.72-4.54h13.37a3.53,3.53,0,0,0,3.39-3.65,3.43,3.43,0,0,1,1.45-2.83l2.36-1.67a.14.14,0,0,0,0-.15l-21.85-.06V44.9h9a3.53,3.53,0,0,0,3.39-3.65,3.46,3.46,0,0,1,1.45-2.84l2.36-1.66a.15.15,0,0,0,0-.15l-16.2-.07v-4A12.93,12.93,0,0,1-852.06,23h-13.65a12.92,12.92,0,0,1,4.21,9.61v4h-16.16c-.06.13,0,.2,0,.22l2.36,1.66a3.47,3.47,0,0,1,1.46,2.84,3.52,3.52,0,0,0,3.38,3.65h9v7.93h-21.81c-.06.13,0,.19,0,.22l2.37,1.66a3.45,3.45,0,0,1,1.44,2.83,3.53,3.53,0,0,0,3.39,3.65h13.38l.71,4.54a9.6,9.6,0,0,1-2,7.54l-.92,1.12a4.3,4.3,0,0,0-.89,3.35,4.12,4.12,0,0,0,1.61,2.7l3.07,2.26Z"/></clipPath><clipPath id="clip-path-11"><path class="cls-1" d="M-891.28,49.62a2.83,2.83,0,0,1,2.82-2.82,5.63,5.63,0,0,0,5.63-5.63v-7A2.83,2.83,0,0,1-880,31.31h8.45V28.5H-880a5.64,5.64,0,0,0-5.63,5.63v7A2.83,2.83,0,0,1-888.46,44a5.64,5.64,0,0,0-5.63,5.63V69.33h2.81Z"/></clipPath><clipPath id="clip-path-12"><path class="cls-2" d="M-858.89,18A2.14,2.14,0,0,1-860.74,17l-3.2-5.33A2.15,2.15,0,0,1-863.61,9l3.19-3.2a2.21,2.21,0,0,1,3.06,0l3.2,3.2a2.15,2.15,0,0,1,.32,2.64L-857,17A2.17,2.17,0,0,1-858.89,18Zm0-2.19h0Zm0-8.48-3.15,3.2,3.17,5.24,3.17-5.28Z"/></clipPath><clipPath id="clip-path-13"><path class="cls-1" d="M-846.22,28.5v2.82h8.45a2.81,2.81,0,0,1,2.82,2.81v7a5.64,5.64,0,0,0,5.63,5.64,2.82,2.82,0,0,1,2.82,2.81V69.34h2.81V49.62A5.63,5.63,0,0,0-829.32,44a2.81,2.81,0,0,1-2.81-2.82v-7a5.64,5.64,0,0,0-5.64-5.63Z"/></clipPath><clipPath id="clip-path-14"><path class="cls-1" d="M-840.58,18.64h2.81a8.44,8.44,0,0,0-8.44-8.44H-849V13h2.82a5.63,5.63,0,0,1,5.63,5.62"/></clipPath><clipPath id="clip-path-15"><path class="cls-1" d="M-871.56,13h2.82V10.19h-2.82A8.47,8.47,0,0,0-880,18.64h2.82A5.64,5.64,0,0,1-871.56,13"/></clipPath><clipPath id="clip-path-16"><path class="cls-1" d="M-391.72,77.53a4.36,4.36,0,0,1-3.1,1.26,4.37,4.37,0,0,1-3.11-1.26,7.5,7.5,0,0,0-5-1.9,7.43,7.43,0,0,0-5,1.9,4.4,4.4,0,0,1-3.11,1.26,4.36,4.36,0,0,1-3.1-1.26,7.47,7.47,0,0,0-5-1.9,7.48,7.48,0,0,0-5,1.9,4.34,4.34,0,0,1-3.1,1.26,3.86,3.86,0,0,1-1.81-.39V36.27h22v3.15H-404V36.27h1.57a3.15,3.15,0,0,0,3.15-3.15V30a3.16,3.16,0,0,0-3.15-3.15h-.08A29.9,29.9,0,0,0-430.76-1.44V-3.09a4.74,4.74,0,0,0-4.73-4.73,4.73,4.73,0,0,0-4.72,4.73v1.65a29.9,29.9,0,0,0-28.26,28.26h-.08A3.16,3.16,0,0,0-471.7,30v3.15a3.15,3.15,0,0,0,3.15,3.15H-467v3.15h3.15V36.27h22v42.1a3.91,3.91,0,0,1-1.86.42,4.39,4.39,0,0,1-3.11-1.26,7.42,7.42,0,0,0-5-1.9,7.48,7.48,0,0,0-5,1.9,4.34,4.34,0,0,1-3.1,1.26A4.37,4.37,0,0,1-463,77.54a7.42,7.42,0,0,0-5-1.91,7.43,7.43,0,0,0-5,1.9,4.39,4.39,0,0,1-3.11,1.26,4.34,4.34,0,0,1-3.09-1.26,7.47,7.47,0,0,0-5-1.9v3.16A4.35,4.35,0,0,1-481.2,80a7.44,7.44,0,0,0,5,1.9,7.38,7.38,0,0,0,5-1.9A4.39,4.39,0,0,1-468,78.79a4.37,4.37,0,0,1,3.1,1.24,7.37,7.37,0,0,0,5,1.9,7.4,7.4,0,0,0,5-1.9,4.37,4.37,0,0,1,3.11-1.24,4.37,4.37,0,0,1,3.1,1.24,7.4,7.4,0,0,0,5,1.9,7.42,7.42,0,0,0,5-1.9,4.35,4.35,0,0,1,3.1-1.24A4.37,4.37,0,0,1-432.41,80a7.42,7.42,0,0,0,5,1.9,7.4,7.4,0,0,0,5-1.9,4.37,4.37,0,0,1,3.11-1.24,4.35,4.35,0,0,1,3.1,1.24,7.42,7.42,0,0,0,5,1.9,7.42,7.42,0,0,0,5-1.9A4.36,4.36,0,0,1-403,78.79a4.35,4.35,0,0,1,3.1,1.24,7.46,7.46,0,0,0,5.05,1.9,7.42,7.42,0,0,0,5-1.9,4.36,4.36,0,0,1,3.11-1.24V75.63A7.5,7.5,0,0,0-391.72,77.53Zm-43.77-82.2a1.57,1.57,0,0,1,1.57,1.58v1.57h-3.14V-3.09A1.57,1.57,0,0,1-435.49-4.67Zm-4.32,6.36a37.28,37.28,0,0,0-8.34,11.91l2.89,1.26a33.81,33.81,0,0,1,9.77-12.78,33.55,33.55,0,0,1,12.55,24.74H-448a33.62,33.62,0,0,1,1.61-8.95l-3-1a36.88,36.88,0,0,0-1.77,9.93h-14.16A26.77,26.77,0,0,1-439.81,1.69ZM-468.55,30H-415V26.82h-4.77A36.65,36.65,0,0,0-431.15,1.69a26.76,26.76,0,0,1,25.5,25.13h-6.22V30h9.44v3.15h-66.12Zm33,45.66a7.12,7.12,0,0,0-3.12.66v-40h6.29v40A7,7,0,0,0-435.52,75.63Z"/></clipPath><clipPath id="clip-path-17"><path class="cls-1" d="M-394.83,86.65a4.43,4.43,0,0,1-3.11-1.24,7.42,7.42,0,0,0-5-1.91,7.43,7.43,0,0,0-5,1.91,4.37,4.37,0,0,1-3.1,1.24,4.43,4.43,0,0,1-3.11-1.24,7.38,7.38,0,0,0-5-1.91,7.45,7.45,0,0,0-5,1.91,4.39,4.39,0,0,1-3.1,1.24,4.39,4.39,0,0,1-3.1-1.24,7.45,7.45,0,0,0-5-1.91,7.4,7.4,0,0,0-5,1.91,4.39,4.39,0,0,1-3.1,1.24,4.37,4.37,0,0,1-3.1-1.24,7.42,7.42,0,0,0-5-1.91,7.43,7.43,0,0,0-5,1.91,4.37,4.37,0,0,1-3.1,1.24A4.37,4.37,0,0,1-463,85.41a7.42,7.42,0,0,0-5-1.91,7.38,7.38,0,0,0-5,1.91,4.42,4.42,0,0,1-3.11,1.24,4.37,4.37,0,0,1-3.09-1.24,7.42,7.42,0,0,0-5-1.91v3.15a4.36,4.36,0,0,1,3.1,1.25,7.42,7.42,0,0,0,5,1.9,7.38,7.38,0,0,0,5-1.9A4.38,4.38,0,0,1-468,86.65a4.37,4.37,0,0,1,3.1,1.25,7.37,7.37,0,0,0,5,1.9,7.4,7.4,0,0,0,5-1.9,4.38,4.38,0,0,1,3.11-1.25,4.37,4.37,0,0,1,3.1,1.25,7.4,7.4,0,0,0,5,1.9,7.4,7.4,0,0,0,5-1.9,4.36,4.36,0,0,1,3.1-1.25,4.38,4.38,0,0,1,3.11,1.25,7.4,7.4,0,0,0,5,1.9,7.4,7.4,0,0,0,5-1.9,4.36,4.36,0,0,1,3.1-1.25,4.38,4.38,0,0,1,3.11,1.25,7.42,7.42,0,0,0,5,1.9,7.42,7.42,0,0,0,5-1.9A4.36,4.36,0,0,1-403,86.65a4.38,4.38,0,0,1,3.11,1.25,7.42,7.42,0,0,0,5,1.9,7.43,7.43,0,0,0,5-1.9,4.38,4.38,0,0,1,3.11-1.25V83.5a7.43,7.43,0,0,0-5,1.91,4.4,4.4,0,0,1-3.11,1.24"/></clipPath><clipPath id="clip-path-18"><path class="cls-1" d="M-426,67.76a4.74,4.74,0,0,0,4.73,4.73,4.74,4.74,0,0,0,4.73-4.73V64.61h-3.16v3.15a1.57,1.57,0,0,1-1.57,1.57,1.57,1.57,0,0,1-1.57-1.57v-22H-426Z"/></clipPath><clipPath id="clip-path-19"><path class="cls-1" d="M-404,56.74V48.87h-3.15v7.87a1.57,1.57,0,0,1-1.58,1.57,1.58,1.58,0,0,1-1.57-1.57V44.14A4.73,4.73,0,0,0-415,39.42a4.73,4.73,0,0,0-4.73,4.72v4.73h3.16V44.14A1.57,1.57,0,0,1-415,42.57a1.57,1.57,0,0,1,1.57,1.57v12.6a4.73,4.73,0,0,0,4.72,4.72A4.72,4.72,0,0,0-404,56.74"/></clipPath><clipPath id="clip-path-20"><path class="cls-1" d="M-448.09,67.76a1.57,1.57,0,0,1-1.57,1.57,1.57,1.57,0,0,1-1.58-1.57V64.61h-3.14v3.15a4.72,4.72,0,0,0,4.72,4.73,4.73,4.73,0,0,0,4.72-4.73v-22h-3.15Z"/></clipPath><clipPath id="clip-path-21"><path class="cls-1" d="M-467,56.74a4.72,4.72,0,0,0,4.73,4.72,4.72,4.72,0,0,0,4.72-4.72V44.14A1.57,1.57,0,0,1-456,42.57a1.57,1.57,0,0,1,1.57,1.57v4.73h3.15V44.14A4.72,4.72,0,0,0-456,39.42a4.73,4.73,0,0,0-4.72,4.72v12.6a1.58,1.58,0,0,1-1.57,1.57,1.57,1.57,0,0,1-1.58-1.57V48.87H-467Z"/></clipPath><clipPath id="clip-path-22"><path class="cls-1" d="M-476.43,67.76a18,18,0,0,1,5.64.91l5,1.66-2.65-6.64a8.5,8.5,0,0,0-7.94-5.38A4.74,4.74,0,0,0-481.15,63a4.73,4.73,0,0,0,4.72,4.73m0-6.3a5.38,5.38,0,0,1,5,3.4l.16.4a21,21,0,0,0-5.18-.64A1.58,1.58,0,0,1-478,63a1.57,1.57,0,0,1,1.57-1.57"/></clipPath><clipPath id="clip-path-23"><path class="cls-1" d="M-402.5,63.68l-2.65,6.65,4.95-1.66a18.09,18.09,0,0,1,5.64-.91A4.73,4.73,0,0,0-389.83,63a4.74,4.74,0,0,0-4.73-4.73A8.52,8.52,0,0,0-402.5,63.68Zm2.93,1.18a5.37,5.37,0,0,1,5-3.4A1.58,1.58,0,0,1-393,63a1.58,1.58,0,0,1-1.58,1.57,20.93,20.93,0,0,0-5.17.65Z"/></clipPath></defs><path class="cls-3" d="M-316.6,86.39h15.91v-10H-316.6Zm17.9,4h-19.9a2,2,0,0,1-2-2V74.45a2,2,0,0,1,2-2h19.9a2,2,0,0,1,2,2V88.38A2,2,0,0,1-298.7,90.36Z"/><g class="cls-4"><rect class="cls-2" x="-1585.14" y="-3706.26" width="5804.01" height="4970.61"/></g><path class="cls-3" d="M-326.55,86.39h35.8V-1.13h-35.8Zm37.79,4h-39.78a2,2,0,0,1-2-2V-3.12a2,2,0,0,1,2-2h39.78a2,2,0,0,1,2,2v91.5A2,2,0,0,1-288.76,90.36Z"/><g class="cls-5"><rect class="cls-2" x="-1585.14" y="-3706.26" width="5804.01" height="4964.66"/></g><path class="cls-3" d="M-342.46,86.39h11.92V6.83h-11.92Zm13.92,4h-15.92a2,2,0,0,1-2-2V4.83a2,2,0,0,1,2-2h15.92a2,2,0,0,1,2,2V88.38A2,2,0,0,1-328.54,90.36Z"/><g class="cls-6"><rect class="cls-2" x="-1585.14" y="-3706.26" width="5804.01" height="4964.66"/></g><path class="cls-3" d="M-286.77,86.39h11.93V6.83h-11.93Zm13.92,4h-15.91a2,2,0,0,1-2-2V4.83a2,2,0,0,1,2-2h15.91a2,2,0,0,1,2,2V88.38A2,2,0,0,1-272.85,90.36Z"/><g class="cls-7"><rect class="cls-2" x="-1585.14" y="-3706.26" width="5804.01" height="4964.66"/></g><rect class="cls-2" x="-360.36" y="46.61" width="3.98" height="19.89" transform="translate(-188.48 -264.02) rotate(-53.11)"/><g class="cls-8"><rect class="cls-2" x="-1585.14" y="-3706.26" width="5804.01" height="4964.66"/></g><rect class="cls-2" x="-368.33" y="54.56" width="19.89" height="3.98" transform="translate(-105.64 -203.75) rotate(-36.88)"/><g class="cls-9"><rect class="cls-2" x="-1585.14" y="-3706.26" width="5804.01" height="4964.66"/></g><rect class="cls-2" x="-260.91" y="46.61" width="3.97" height="19.89" transform="translate(-148.76 -184.49) rotate(-53.12)"/><g class="cls-10"><rect class="cls-2" x="-1585.14" y="-3706.26" width="5804.01" height="4964.66"/></g><rect class="cls-2" x="-268.87" y="54.57" width="19.89" height="3.97" transform="translate(-85.64 -143.98) rotate(-36.85)"/><g class="cls-11"><rect class="cls-2" x="-1585.14" y="-3706.26" width="5804.01" height="4964.66"/></g><path class="cls-3" d="M-500.71,36.91a9.47,9.47,0,0,0-6.66-9A38,38,0,0,0-512,16.62a9.47,9.47,0,0,0-1.67-11.11,9.38,9.38,0,0,0-6.68-2.76,9.29,9.29,0,0,0-4.41,1.09A38.21,38.21,0,0,0-536-.84a9.46,9.46,0,0,0-9-6.65,9.47,9.47,0,0,0-9,6.65,38.15,38.15,0,0,0-11.23,4.68,9.46,9.46,0,0,0-7.18-.69,1.41,1.41,0,0,0,.82,2.69A6.61,6.61,0,0,1-565,7.5a6.65,6.65,0,0,1,0,9.41,6.71,6.71,0,0,1-9.38,0,6.67,6.67,0,0,1-1.46-7.23,1.4,1.4,0,0,0-2.59-1.06,9.44,9.44,0,0,0,.39,8,38.52,38.52,0,0,0-4.67,11.27,9.46,9.46,0,0,0-6.65,9,9.48,9.48,0,0,0,6.65,9,38.57,38.57,0,0,0,4.67,11.26,9.47,9.47,0,0,0,1.67,11.11A9.55,9.55,0,0,0-565.32,70,37.85,37.85,0,0,0-561,72.29L-565.3,83.9a3.31,3.31,0,0,0,3.06,4.39h34.36a3.3,3.3,0,0,0,3-4.39l-4.28-11.61A38.71,38.71,0,0,0-524.8,70a9.4,9.4,0,0,0,4.4,1.09,9.46,9.46,0,0,0,2.91-.46,1.4,1.4,0,0,0-.86-2.67,6.6,6.6,0,0,1-6.73-1.62,6.67,6.67,0,0,1,0-9.41,6.7,6.7,0,0,1,9.39,0,6.64,6.64,0,0,1,1.47,7.17,1.41,1.41,0,0,0,2.61,1,9.47,9.47,0,0,0-.43-7.93A38.19,38.19,0,0,0-507.37,46,9.48,9.48,0,0,0-500.71,36.91Zm-2.81,0a6.66,6.66,0,0,1-6.64,6.66,6.66,6.66,0,0,1-6.64-6.66,6.66,6.66,0,0,1,6.64-6.65A6.66,6.66,0,0,1-503.52,36.91Zm-16-1.4h-11.86a13.72,13.72,0,0,0-3-7.3l8.39-8.4a9.54,9.54,0,0,0,7.46,1.67,31.13,31.13,0,0,1,3.14,7.57A9.41,9.41,0,0,0-519.5,35.51ZM-531.33,70.2c-1.42.53-2.82,1.07-4.29,1.47A9.58,9.58,0,0,0-536,69.2a33.68,33.68,0,0,0,7.32-3,9.67,9.67,0,0,0,1.47,2A29.16,29.16,0,0,1-531.33,70.2Zm-31.58-2a9.67,9.67,0,0,0,1.47-2,33.4,33.4,0,0,0,7.31,3,9.58,9.58,0,0,0-.37,2.47A35.61,35.61,0,0,1-562.91,68.17Zm-13.36-13.38a35.65,35.65,0,0,1-3.49-8.42A9.44,9.44,0,0,0-577.3,46a33.56,33.56,0,0,0,3,7.33A10.15,10.15,0,0,0-576.27,54.79Zm4.69-2.44a30.58,30.58,0,0,1-3.14-7.57,9.48,9.48,0,0,0,4.1-6.46h11.85a13.72,13.72,0,0,0,3,7.27l-8.4,8.41A9.58,9.58,0,0,0-571.58,52.35Zm25.11,10.17a9.41,9.41,0,0,0-6.45,4.1,30.7,30.7,0,0,1-7.56-3.15A9.46,9.46,0,0,0-562.16,56l8.39-8.39a13.67,13.67,0,0,0,7.3,3Zm1.41,2.7a6.65,6.65,0,0,1,6.64,6.65,6.65,6.65,0,0,1-6.64,6.65,6.65,6.65,0,0,1-6.64-6.65A6.65,6.65,0,0,1-545.06,65.22Zm15.41-1.75a30.63,30.63,0,0,1-7.55,3.15,9.43,9.43,0,0,0-6.46-4.1V50.62a13.67,13.67,0,0,0,7.29-3L-528,56A9.48,9.48,0,0,0-529.65,63.47Zm-15.41-15.58a11,11,0,0,1-11-11,11,11,0,0,1,11-11,11,11,0,0,1,11,11A11,11,0,0,1-545.06,47.89Zm-9.07-43.26a33,33,0,0,0-7.31,3.05,9.17,9.17,0,0,0-1.47-2,35.36,35.36,0,0,1,8.41-3.5A10,10,0,0,0-554.13,4.63Zm-6.35,5.73a30.32,30.32,0,0,1,7.56-3.15,9.46,9.46,0,0,0,6.45,4.11V23.21a13.82,13.82,0,0,0-7.29,3l-8.39-8.39A9.47,9.47,0,0,0-560.48,10.36Zm31.8-2.68a33.23,33.23,0,0,0-7.32-3,9.5,9.5,0,0,0,.38-2.46,35.36,35.36,0,0,1,8.41,3.5A9.42,9.42,0,0,0-528.68,7.68Zm-8.52-.47a30.25,30.25,0,0,1,7.55,3.15A9.5,9.5,0,0,0-528,17.82l-8.41,8.41a13.58,13.58,0,0,0-7.27-3V11.32A9.48,9.48,0,0,0-537.2,7.21ZM-513.86,19a35.31,35.31,0,0,1,3.49,8.43,8.65,8.65,0,0,0-2.45.38,33.18,33.18,0,0,0-3-7.34A9.26,9.26,0,0,0-513.86,19ZM-515.69,7.5a6.67,6.67,0,0,1,0,9.41,6.72,6.72,0,0,1-9.39,0,6.75,6.75,0,0,1,0-9.41A6.7,6.7,0,0,1-515.69,7.5ZM-545.06-4.69A6.66,6.66,0,0,1-538.42,2a6.66,6.66,0,0,1-6.64,6.65A6.66,6.66,0,0,1-551.7,2a6.58,6.58,0,0,1,.11-1.19,1.28,1.28,0,0,0,.06-.33A6.67,6.67,0,0,1-545.06-4.69Zm-19.08,24.51,8.4,8.4a13.76,13.76,0,0,0-3,7.29h-11.85a9.48,9.48,0,0,0-4.1-6.46,30.74,30.74,0,0,1,3.14-7.57A9.56,9.56,0,0,0-564.14,19.82Zm-10.12.69a33.64,33.64,0,0,0-3,7.34,8.67,8.67,0,0,0-2.46-.38,35.34,35.34,0,0,1,3.5-8.43A9.81,9.81,0,0,0-574.26,20.51Zm-12.34,16.4A6.74,6.74,0,0,1-580,30.26a6.66,6.66,0,0,1,6.64,6.65A6.66,6.66,0,0,1-580,43.57,6.67,6.67,0,0,1-586.6,36.91Zm16.86,31.38a6.61,6.61,0,0,1-4.69-2,6.65,6.65,0,0,1,0-9.41,6.69,6.69,0,0,1,9.38,0,6.65,6.65,0,0,1,0,9.41A6.75,6.75,0,0,1-569.74,68.29Zm42.28,16.59a.44.44,0,0,1-.42.6h-34.36a.44.44,0,0,1-.43-.6l4.26-11.52a37.75,37.75,0,0,0,4.32,1.31,9.48,9.48,0,0,0,9,6.66,9.47,9.47,0,0,0,9-6.66,37.91,37.91,0,0,0,4.33-1.31ZM-526,54l-8.39-8.4a13.75,13.75,0,0,0,3-7.29h11.86a9.41,9.41,0,0,0,4.1,6.46,30.61,30.61,0,0,1-3.15,7.57,9.26,9.26,0,0,0-1.84-.18A9.42,9.42,0,0,0-526,54Zm10.12-.69a33.11,33.11,0,0,0,3-7.33,9.43,9.43,0,0,0,2.45.38,35.24,35.24,0,0,1-3.49,8.42A9.87,9.87,0,0,0-515.87,53.32Z"/><g class="cls-12"><rect class="cls-2" x="-5109.39" y="-2222.86" width="5391.41" height="4611.73"/></g><path class="cls-2" d="M-821.6,90.84h-74.57a2.58,2.58,0,0,1-2.54-2.6V82.8a2.58,2.58,0,0,1,2.54-2.6h28.57a7,7,0,0,1-.68-2.08,6.79,6.79,0,0,1,1.42-5.3l.91-1.13a7.11,7.11,0,0,0,1.47-5.57l-.39-2.43h-11.24A6,6,0,0,1-882,57.54a.94.94,0,0,0-.38-.78l-2.37-1.67a2.66,2.66,0,0,1-1-2.9,2.54,2.54,0,0,1,2.44-1.86H-864V47.4h-6.46a6,6,0,0,1-5.88-6.15,1,1,0,0,0-.39-.79l-2.37-1.67a2.65,2.65,0,0,1-1-2.89A2.55,2.55,0,0,1-877.66,34H-864V32.56a10.16,10.16,0,0,0-5.7-9.28l-.72-.34V20.45h23.07v2.49l-.72.34a10.17,10.17,0,0,0-5.71,9.28V34h13.67a2.55,2.55,0,0,1,2.43,1.88,2.6,2.6,0,0,1-1,2.88L-841,40.46a.93.93,0,0,0-.39.79,6,6,0,0,1-5.89,6.15h-6.46v2.93h19.32A2.55,2.55,0,0,1-832,52.2a2.62,2.62,0,0,1-1,2.89l-2.36,1.66a1,1,0,0,0-.39.79,6,6,0,0,1-5.89,6.15h-11.24l-.38,2.43a7.08,7.08,0,0,0,1.46,5.57l.92,1.13a6.79,6.79,0,0,1,1.41,5.3,6.78,6.78,0,0,1-.68,2.08h28.58a2.57,2.57,0,0,1,2.53,2.6v5.44A2.57,2.57,0,0,1-821.6,90.84Zm-74.57-8.14a.13.13,0,0,0,0,.1v5.44c0,.07,0,.1,0,.1h74.57a.14.14,0,0,0,0-.1V82.8c0-.06,0-.09,0-.1h-35.06l3.1-2.26a4.15,4.15,0,0,0,1.6-2.7,4.33,4.33,0,0,0-.88-3.35l-.92-1.12a9.58,9.58,0,0,1-2-7.54l.72-4.54h13.37a3.53,3.53,0,0,0,3.39-3.65,3.43,3.43,0,0,1,1.45-2.83l2.36-1.67a.14.14,0,0,0,0-.15l-21.85-.06V44.9h9a3.53,3.53,0,0,0,3.39-3.65,3.46,3.46,0,0,1,1.45-2.84l2.36-1.66a.15.15,0,0,0,0-.15l-16.2-.07v-4A12.93,12.93,0,0,1-852.06,23h-13.65a12.92,12.92,0,0,1,4.21,9.61v4h-16.16c-.06.13,0,.2,0,.22l2.36,1.66a3.47,3.47,0,0,1,1.46,2.84,3.52,3.52,0,0,0,3.38,3.65h9v7.93h-21.81c-.06.13,0,.19,0,.22l2.37,1.66a3.45,3.45,0,0,1,1.44,2.83,3.53,3.53,0,0,0,3.39,3.65h13.38l.71,4.54a9.6,9.6,0,0,1-2,7.54l-.92,1.12a4.3,4.3,0,0,0-.89,3.35,4.12,4.12,0,0,0,1.61,2.7l3.07,2.26Z"/><g class="cls-13"><path class="cls-2" d="M1564,1874.72H-3313.3V-2531.53H1564Zm-4874.34-3H1561V-2528.53H-3310.3Z"/></g><path class="cls-3" d="M-891.28,49.62a2.83,2.83,0,0,1,2.82-2.82,5.63,5.63,0,0,0,5.63-5.63v-7A2.83,2.83,0,0,1-880,31.31h8.45V28.5H-880a5.64,5.64,0,0,0-5.63,5.63v7A2.83,2.83,0,0,1-888.46,44a5.64,5.64,0,0,0-5.63,5.63V69.33h2.81Z"/><g class="cls-14"><rect class="cls-2" x="-3545.13" y="-2627.43" width="5338.01" height="4566.05"/></g><path class="cls-2" d="M-858.89,18A2.14,2.14,0,0,1-860.74,17l-3.2-5.33A2.15,2.15,0,0,1-863.61,9l3.19-3.2a2.21,2.21,0,0,1,3.06,0l3.2,3.2a2.15,2.15,0,0,1,.32,2.64L-857,17A2.17,2.17,0,0,1-858.89,18Zm0-2.19h0Zm0-8.48-3.15,3.2,3.17,5.24,3.17-5.28Z"/><g class="cls-15"><path class="cls-2" d="M1148.23,1470.46H-2892.09V-1985.88H1148.23Zm-4038.12-2.2H1146V-1983.68H-2889.89Z"/></g><path class="cls-3" d="M-846.22,28.5v2.82h8.45a2.81,2.81,0,0,1,2.82,2.81v7a5.64,5.64,0,0,0,5.63,5.64,2.82,2.82,0,0,1,2.82,2.81V69.34h2.81V49.62A5.63,5.63,0,0,0-829.32,44a2.81,2.81,0,0,1-2.81-2.82v-7a5.64,5.64,0,0,0-5.64-5.63Z"/><g class="cls-16"><rect class="cls-2" x="-3545.13" y="-2627.43" width="5338.01" height="4566.05"/></g><path class="cls-3" d="M-840.58,18.64h2.81a8.44,8.44,0,0,0-8.44-8.44H-849V13h2.82a5.63,5.63,0,0,1,5.63,5.62"/><g class="cls-17"><rect class="cls-2" x="-3545.13" y="-2627.43" width="5338.01" height="4566.05"/></g><path class="cls-3" d="M-871.56,13h2.82V10.19h-2.82A8.47,8.47,0,0,0-880,18.64h2.82A5.64,5.64,0,0,1-871.56,13"/><g class="cls-18"><rect class="cls-2" x="-3545.13" y="-2627.43" width="5338.01" height="4566.05"/></g><path class="cls-3" d="M-391.72,77.53a4.36,4.36,0,0,1-3.1,1.26,4.37,4.37,0,0,1-3.11-1.26,7.5,7.5,0,0,0-5-1.9,7.43,7.43,0,0,0-5,1.9,4.4,4.4,0,0,1-3.11,1.26,4.36,4.36,0,0,1-3.1-1.26,7.47,7.47,0,0,0-5-1.9,7.48,7.48,0,0,0-5,1.9,4.34,4.34,0,0,1-3.1,1.26,3.86,3.86,0,0,1-1.81-.39V36.27h22v3.15H-404V36.27h1.57a3.15,3.15,0,0,0,3.15-3.15V30a3.16,3.16,0,0,0-3.15-3.15h-.08A29.9,29.9,0,0,0-430.76-1.44V-3.09a4.74,4.74,0,0,0-4.73-4.73,4.73,4.73,0,0,0-4.72,4.73v1.65a29.9,29.9,0,0,0-28.26,28.26h-.08A3.16,3.16,0,0,0-471.7,30v3.15a3.15,3.15,0,0,0,3.15,3.15H-467v3.15h3.15V36.27h22v42.1a3.91,3.91,0,0,1-1.86.42,4.39,4.39,0,0,1-3.11-1.26,7.42,7.42,0,0,0-5-1.9,7.48,7.48,0,0,0-5,1.9,4.34,4.34,0,0,1-3.1,1.26A4.37,4.37,0,0,1-463,77.54a7.42,7.42,0,0,0-5-1.91,7.43,7.43,0,0,0-5,1.9,4.39,4.39,0,0,1-3.11,1.26,4.34,4.34,0,0,1-3.09-1.26,7.47,7.47,0,0,0-5-1.9v3.16A4.35,4.35,0,0,1-481.2,80a7.44,7.44,0,0,0,5,1.9,7.38,7.38,0,0,0,5-1.9A4.39,4.39,0,0,1-468,78.79a4.37,4.37,0,0,1,3.1,1.24,7.37,7.37,0,0,0,5,1.9,7.4,7.4,0,0,0,5-1.9,4.37,4.37,0,0,1,3.11-1.24,4.37,4.37,0,0,1,3.1,1.24,7.4,7.4,0,0,0,5,1.9,7.42,7.42,0,0,0,5-1.9,4.35,4.35,0,0,1,3.1-1.24A4.37,4.37,0,0,1-432.41,80a7.42,7.42,0,0,0,5,1.9,7.4,7.4,0,0,0,5-1.9,4.37,4.37,0,0,1,3.11-1.24,4.35,4.35,0,0,1,3.1,1.24,7.42,7.42,0,0,0,5,1.9,7.42,7.42,0,0,0,5-1.9A4.36,4.36,0,0,1-403,78.79a4.35,4.35,0,0,1,3.1,1.24,7.46,7.46,0,0,0,5.05,1.9,7.42,7.42,0,0,0,5-1.9,4.36,4.36,0,0,1,3.11-1.24V75.63A7.5,7.5,0,0,0-391.72,77.53Zm-43.77-82.2a1.57,1.57,0,0,1,1.57,1.58v1.57h-3.14V-3.09A1.57,1.57,0,0,1-435.49-4.67Zm-4.32,6.36a37.28,37.28,0,0,0-8.34,11.91l2.89,1.26a33.81,33.81,0,0,1,9.77-12.78,33.55,33.55,0,0,1,12.55,24.74H-448a33.62,33.62,0,0,1,1.61-8.95l-3-1a36.88,36.88,0,0,0-1.77,9.93h-14.16A26.77,26.77,0,0,1-439.81,1.69ZM-468.55,30H-415V26.82h-4.77A36.65,36.65,0,0,0-431.15,1.69a26.76,26.76,0,0,1,25.5,25.13h-6.22V30h9.44v3.15h-66.12Zm33,45.66a7.12,7.12,0,0,0-3.12.66v-40h6.29v40A7,7,0,0,0-435.52,75.63Z"/><g class="cls-19"><rect class="cls-2" x="-3232.32" y="-2409.8" width="5224.37" height="4468.85"/></g><path class="cls-3" d="M-394.83,86.65a4.43,4.43,0,0,1-3.11-1.24,7.42,7.42,0,0,0-5-1.91,7.43,7.43,0,0,0-5,1.91,4.37,4.37,0,0,1-3.1,1.24,4.43,4.43,0,0,1-3.11-1.24,7.38,7.38,0,0,0-5-1.91,7.45,7.45,0,0,0-5,1.91,4.39,4.39,0,0,1-3.1,1.24,4.39,4.39,0,0,1-3.1-1.24,7.45,7.45,0,0,0-5-1.91,7.4,7.4,0,0,0-5,1.91,4.39,4.39,0,0,1-3.1,1.24,4.37,4.37,0,0,1-3.1-1.24,7.42,7.42,0,0,0-5-1.91,7.43,7.43,0,0,0-5,1.91,4.37,4.37,0,0,1-3.1,1.24A4.37,4.37,0,0,1-463,85.41a7.42,7.42,0,0,0-5-1.91,7.38,7.38,0,0,0-5,1.91,4.42,4.42,0,0,1-3.11,1.24,4.37,4.37,0,0,1-3.09-1.24,7.42,7.42,0,0,0-5-1.91v3.15a4.36,4.36,0,0,1,3.1,1.25,7.42,7.42,0,0,0,5,1.9,7.38,7.38,0,0,0,5-1.9A4.38,4.38,0,0,1-468,86.65a4.37,4.37,0,0,1,3.1,1.25,7.37,7.37,0,0,0,5,1.9,7.4,7.4,0,0,0,5-1.9,4.38,4.38,0,0,1,3.11-1.25,4.37,4.37,0,0,1,3.1,1.25,7.4,7.4,0,0,0,5,1.9,7.4,7.4,0,0,0,5-1.9,4.36,4.36,0,0,1,3.1-1.25,4.38,4.38,0,0,1,3.11,1.25,7.4,7.4,0,0,0,5,1.9,7.4,7.4,0,0,0,5-1.9,4.36,4.36,0,0,1,3.1-1.25,4.38,4.38,0,0,1,3.11,1.25,7.42,7.42,0,0,0,5,1.9,7.42,7.42,0,0,0,5-1.9A4.36,4.36,0,0,1-403,86.65a4.38,4.38,0,0,1,3.11,1.25,7.42,7.42,0,0,0,5,1.9,7.43,7.43,0,0,0,5-1.9,4.38,4.38,0,0,1,3.11-1.25V83.5a7.43,7.43,0,0,0-5,1.91,4.4,4.4,0,0,1-3.11,1.24"/><g class="cls-20"><rect class="cls-2" x="-3232.32" y="-2409.8" width="5224.37" height="4468.85"/></g><path class="cls-3" d="M-426,67.76a4.74,4.74,0,0,0,4.73,4.73,4.74,4.74,0,0,0,4.73-4.73V64.61h-3.16v3.15a1.57,1.57,0,0,1-1.57,1.57,1.57,1.57,0,0,1-1.57-1.57v-22H-426Z"/><g class="cls-21"><rect class="cls-2" x="-3232.32" y="-2409.8" width="5224.37" height="4468.85"/></g><path class="cls-3" d="M-404,56.74V48.87h-3.15v7.87a1.57,1.57,0,0,1-1.58,1.57,1.58,1.58,0,0,1-1.57-1.57V44.14A4.73,4.73,0,0,0-415,39.42a4.73,4.73,0,0,0-4.73,4.72v4.73h3.16V44.14A1.57,1.57,0,0,1-415,42.57a1.57,1.57,0,0,1,1.57,1.57v12.6a4.73,4.73,0,0,0,4.72,4.72A4.72,4.72,0,0,0-404,56.74"/><g class="cls-22"><rect class="cls-2" x="-3232.32" y="-2409.8" width="5224.37" height="4468.85"/></g><path class="cls-3" d="M-448.09,67.76a1.57,1.57,0,0,1-1.57,1.57,1.57,1.57,0,0,1-1.58-1.57V64.61h-3.14v3.15a4.72,4.72,0,0,0,4.72,4.73,4.73,4.73,0,0,0,4.72-4.73v-22h-3.15Z"/><g class="cls-23"><rect class="cls-2" x="-3232.32" y="-2409.8" width="5224.37" height="4468.85"/></g><path class="cls-3" d="M-467,56.74a4.72,4.72,0,0,0,4.73,4.72,4.72,4.72,0,0,0,4.72-4.72V44.14A1.57,1.57,0,0,1-456,42.57a1.57,1.57,0,0,1,1.57,1.57v4.73h3.15V44.14A4.72,4.72,0,0,0-456,39.42a4.73,4.73,0,0,0-4.72,4.72v12.6a1.58,1.58,0,0,1-1.57,1.57,1.57,1.57,0,0,1-1.58-1.57V48.87H-467Z"/><g class="cls-24"><rect class="cls-2" x="-3232.32" y="-2409.8" width="5224.37" height="4468.85"/></g><path class="cls-3" d="M-476.43,67.76a18,18,0,0,1,5.64.91l5,1.66-2.65-6.64a8.5,8.5,0,0,0-7.94-5.38A4.74,4.74,0,0,0-481.15,63a4.73,4.73,0,0,0,4.72,4.73m0-6.3a5.38,5.38,0,0,1,5,3.4l.16.4a21,21,0,0,0-5.18-.64A1.58,1.58,0,0,1-478,63a1.57,1.57,0,0,1,1.57-1.57"/><g class="cls-25"><rect class="cls-2" x="-3232.32" y="-2409.8" width="5224.37" height="4468.85"/></g><path class="cls-3" d="M-402.5,63.68l-2.65,6.65,4.95-1.66a18.09,18.09,0,0,1,5.64-.91A4.73,4.73,0,0,0-389.83,63a4.74,4.74,0,0,0-4.73-4.73A8.52,8.52,0,0,0-402.5,63.68Zm2.93,1.18a5.37,5.37,0,0,1,5-3.4A1.58,1.58,0,0,1-393,63a1.58,1.58,0,0,1-1.58,1.57,20.93,20.93,0,0,0-5.17.65Z"/><g class="cls-26"><rect class="cls-2" x="-3232.32" y="-2409.8" width="5224.37" height="4468.85"/></g><path class="cls-2" d="M82,17.32A1.36,1.36,0,1,0,79.87,19,32.84,32.84,0,0,1,86.72,37.7L68.49,32.82a76.91,76.91,0,0,0,.89-14.61,77.57,77.57,0,0,0-.77-8.45,32.39,32.39,0,0,1,7.1,4.78,1.36,1.36,0,1,0,1.8-2,35.32,35.32,0,0,0-12.17-7l1.31-3.68A1.35,1.35,0,0,0,64.1.9L62.73,4.73A35.31,35.31,0,0,0,23.48,21.79a1.39,1.39,0,0,0-.18.78l.48,7.08a3.16,3.16,0,0,0,2.34,2.84l13.4,3.59A3.17,3.17,0,0,0,43,34.79l1.75-2.6.21,3.12a3.17,3.17,0,0,0,2.34,2.85l5.39,1.44L45.07,67.93l-12.7,0h0a1.36,1.36,0,0,0,0,2.71L59,70.69h0a5,5,0,0,0,3.56-1.49l9.56-9.77a7.5,7.5,0,0,1,7.66-1.85l2.91,1L64.51,76.82A4.1,4.1,0,0,1,61.62,78H9.07A7,7,0,0,1,11,72.47a6.49,6.49,0,0,1,4.6-1.9h0l10.42,0h0a1.36,1.36,0,0,0,0-2.72l-10.42,0a9.13,9.13,0,0,0-6.55,2.69c-2.21,2.2-2.72,5.22-2.72,8.29a1.9,1.9,0,0,0,1.9,1.9h3.27L8.71,86.91a4,4,0,0,0-.13,3H1.36a1.36,1.36,0,1,0,0,2.71H84.89a1.36,1.36,0,1,0,0-2.71H72.15a4.09,4.09,0,0,0-.13-3l-4.31-9.46L85.5,59.54a1.93,1.93,0,0,0-.75-3.15L80.6,55a10.21,10.21,0,0,0-10.46,2.52l-9.56,9.76A2.27,2.27,0,0,1,59,68h0l-11.07,0,7.4-27.64,5.39,1.45a3.17,3.17,0,0,0,3.45-1.29l1.75-2.6L66.08,41a3.16,3.16,0,0,0,2.34,2.84l13.4,3.6a3.19,3.19,0,0,0,3.45-1.3l4-5.88a1.46,1.46,0,0,0,.23-.77A35.57,35.57,0,0,0,82,17.32ZM12.42,90a1.25,1.25,0,0,1-.57-.13A1.35,1.35,0,0,1,11.18,88l3.32-7.3h3l-3.83,8.42a1.35,1.35,0,0,1-1.23.8Zm26.75,0H16.27l4.2-9.22H41.64ZM42,90l2.47-9.22H60.26L64.46,90ZM69.55,88a1.36,1.36,0,0,1-.68,1.8,1.3,1.3,0,0,1-.55.12,1.37,1.37,0,0,1-1.24-.8l-3.92-8.6a6.87,6.87,0,0,0,2.47-1.14ZM40.72,33.27a.44.44,0,0,1-.49.19L26.82,29.87a.45.45,0,0,1-.33-.41l-.36-5.18L43.62,29ZM45,26.51,26.73,21.63A32.64,32.64,0,0,1,57.16,6.54a60,60,0,0,0-5.77,7.35A61,61,0,0,0,45,26.51ZM61.87,38.94a.46.46,0,0,1-.49.19L48,35.53a.43.43,0,0,1-.33-.4L47.28,30l17.49,4.68Zm4-6.83L47.58,27.22A58.63,58.63,0,0,1,53.64,15.4,59.63,59.63,0,0,1,60.46,7a32.33,32.33,0,0,1,5.19,1.48,73.78,73.78,0,0,1,1,9.83,74.21,74.21,0,0,1-.82,13.8ZM83,44.61a.45.45,0,0,1-.49.18L69.12,41.2a.44.44,0,0,1-.33-.4l-.36-5.19L85.91,40.3Z"/></svg>