<svg id="Layer_1" data-name="Layer 1" xmlns="http://www.w3.org/2000/svg" xmlns:xlink="http://www.w3.org/1999/xlink" viewBox="0 0 90.13 91.98"><defs><style>.cls-1,.cls-2,.cls-3{fill:#fff;}.cls-1{clip-rule:evenodd;}.cls-3{fill-rule:evenodd;}.cls-4{clip-path:url(#clip-path);}.cls-5{clip-path:url(#clip-path-2);}.cls-6{clip-path:url(#clip-path-3);}.cls-7{clip-path:url(#clip-path-4);}.cls-8{clip-path:url(#clip-path-5);}.cls-9{clip-path:url(#clip-path-6);}.cls-10{clip-path:url(#clip-path-7);}.cls-11{clip-path:url(#clip-path-8);}.cls-12{clip-path:url(#clip-path-9);}.cls-13{clip-path:url(#clip-path-10);}.cls-14{clip-path:url(#clip-path-11);}.cls-15{clip-path:url(#clip-path-12);}.cls-16{clip-path:url(#clip-path-13);}.cls-17{clip-path:url(#clip-path-14);}.cls-18{clip-path:url(#clip-path-15);}.cls-19{clip-path:url(#clip-path-16);}.cls-20{clip-path:url(#clip-path-17);}.cls-21{clip-path:url(#clip-path-18);}.cls-22{clip-path:url(#clip-path-19);}.cls-23{clip-path:url(#clip-path-20);}.cls-24{clip-path:url(#clip-path-21);}.cls-25{clip-path:url(#clip-path-22);}.cls-26{clip-path:url(#clip-path-23);}</style><clipPath id="clip-path"><path class="cls-1" d="M-215.32,85.09h15.91v-10h-15.91Zm17.9,4h-19.89a2,2,0,0,1-2-2V73.15a2,2,0,0,1,2-2h19.89a2,2,0,0,1,2,2V87.07A2,2,0,0,1-197.42,89.06Z"/></clipPath><clipPath id="clip-path-2"><path class="cls-1" d="M-225.26,85.09h35.79V-2.44h-35.79Zm37.79,4h-39.79a2,2,0,0,1-2-2V-4.43a2,2,0,0,1,2-2h39.79a2,2,0,0,1,2,2v91.5A2,2,0,0,1-187.47,89.06Z"/></clipPath><clipPath id="clip-path-3"><path class="cls-1" d="M-241.18,85.09h11.93V5.52h-11.93Zm13.93,4h-15.92a2,2,0,0,1-2-2V3.53a2,2,0,0,1,2-2h15.92a2,2,0,0,1,2,2V87.07A2,2,0,0,1-227.25,89.06Z"/></clipPath><clipPath id="clip-path-4"><path class="cls-1" d="M-185.49,85.09h11.94V5.52h-11.94Zm13.93,4h-15.91a2,2,0,0,1-2-2V3.53a2,2,0,0,1,2-2h15.91a2,2,0,0,1,2,2V87.07A2,2,0,0,1-171.56,89.06Z"/></clipPath><clipPath id="clip-path-5"><rect class="cls-2" x="-259.08" y="45.3" width="3.98" height="19.89" transform="translate(-146.95 -183.54) rotate(-53.11)"/></clipPath><clipPath id="clip-path-6"><rect class="cls-2" x="-267.04" y="53.26" width="19.89" height="3.98" transform="translate(-84.6 -143.23) rotate(-36.88)"/></clipPath><clipPath id="clip-path-7"><rect class="cls-2" x="-159.62" y="45.3" width="3.97" height="19.89" transform="translate(-107.22 -104) rotate(-53.12)"/></clipPath><clipPath id="clip-path-8"><rect class="cls-2" x="-167.59" y="53.27" width="19.89" height="3.97" transform="translate(-64.63 -83.5) rotate(-36.85)"/></clipPath><clipPath id="clip-path-9"><path class="cls-1" d="M-399.43,35.61a9.47,9.47,0,0,0-6.65-9,38.57,38.57,0,0,0-4.67-11.26,9.49,9.49,0,0,0-1.67-11.11,9.36,9.36,0,0,0-6.68-2.77,9.45,9.45,0,0,0-4.42,1.09,38.51,38.51,0,0,0-11.23-4.67,9.48,9.48,0,0,0-9-6.66,9.47,9.47,0,0,0-9,6.66A38.57,38.57,0,0,0-464,2.53a9.47,9.47,0,0,0-7.17-.68,1.41,1.41,0,0,0,.82,2.69,6.6,6.6,0,0,1,6.63,1.66,6.66,6.66,0,0,1,0,9.4,6.7,6.7,0,0,1-9.39,0,6.64,6.64,0,0,1-1.45-7.23,1.41,1.41,0,0,0-2.6-1.06,9.46,9.46,0,0,0,.39,8,38.57,38.57,0,0,0-4.67,11.26,9.46,9.46,0,0,0-6.64,9,9.48,9.48,0,0,0,6.64,9,38.57,38.57,0,0,0,4.67,11.26A9.5,9.5,0,0,0-475.14,67,9.55,9.55,0,0,0-464,68.69a37.92,37.92,0,0,0,4.31,2.3L-464,82.6A3.31,3.31,0,0,0-461,87h34.36a3.31,3.31,0,0,0,3.06-4.39L-427.83,71a37.92,37.92,0,0,0,4.31-2.3,9.29,9.29,0,0,0,4.4,1.1,9.46,9.46,0,0,0,2.91-.46,1.4,1.4,0,0,0-.86-2.67A6.58,6.58,0,0,1-423.79,65a6.65,6.65,0,0,1,0-9.41,6.69,6.69,0,0,1,9.38,0,6.66,6.66,0,0,1,1.48,7.17,1.4,1.4,0,0,0,2.6,1,9.43,9.43,0,0,0-.42-7.93,38.57,38.57,0,0,0,4.67-11.26A9.48,9.48,0,0,0-399.43,35.61Zm-2.81,0a6.66,6.66,0,0,1-6.64,6.66,6.66,6.66,0,0,1-6.64-6.66A6.66,6.66,0,0,1-408.88,29,6.66,6.66,0,0,1-402.24,35.61Zm-16-1.4h-11.86a13.67,13.67,0,0,0-3-7.31l8.39-8.39a9.54,9.54,0,0,0,7.46,1.67,30.21,30.21,0,0,1,3.14,7.57A9.44,9.44,0,0,0-418.22,34.21ZM-430,68.89a42.69,42.69,0,0,1-4.3,1.47,9.5,9.5,0,0,0-.38-2.46,33,33,0,0,0,7.32-3.05,9.51,9.51,0,0,0,1.47,2A27,27,0,0,1-430,68.89Zm-31.59-2a9.17,9.17,0,0,0,1.47-2,33.23,33.23,0,0,0,7.32,3.05,9.57,9.57,0,0,0-.38,2.46A35.36,35.36,0,0,1-461.63,66.86ZM-475,53.49a36.36,36.36,0,0,1-3.5-8.43,8.67,8.67,0,0,0,2.46-.38A33.43,33.43,0,0,0-473,52,9.45,9.45,0,0,0-475,53.49Zm4.68-2.44a30.74,30.74,0,0,1-3.14-7.57,9.44,9.44,0,0,0,4.1-6.46h11.86a13.71,13.71,0,0,0,3,7.27l-8.4,8.41A9.49,9.49,0,0,0-470.3,51.05Zm25.12,10.16a9.46,9.46,0,0,0-6.45,4.11,30.77,30.77,0,0,1-7.57-3.15,9.44,9.44,0,0,0-1.68-7.49l8.4-8.4a13.62,13.62,0,0,0,7.3,3Zm1.4,2.7a6.65,6.65,0,0,1,6.64,6.65,6.66,6.66,0,0,1-6.64,6.66,6.66,6.66,0,0,1-6.64-6.66A6.65,6.65,0,0,1-443.78,63.91Zm15.42-1.74a30.7,30.7,0,0,1-7.56,3.15,9.46,9.46,0,0,0-6.46-4.11V49.32a13.65,13.65,0,0,0,7.29-3l8.4,8.4A9.5,9.5,0,0,0-428.36,62.17Zm-15.42-15.59a11,11,0,0,1-11-11,11,11,0,0,1,11-11,11,11,0,0,1,11,11A11,11,0,0,1-443.78,46.58Zm-9.06-43.25a33.68,33.68,0,0,0-7.32,3,9.67,9.67,0,0,0-1.47-2,35.36,35.36,0,0,1,8.41-3.5A9.58,9.58,0,0,0-452.84,3.33Zm-6.36,5.73a30.39,30.39,0,0,1,7.57-3.15A9.49,9.49,0,0,0-445.18,10V21.91a13.63,13.63,0,0,0-7.29,3l-8.4-8.4A9.45,9.45,0,0,0-459.2,9.06Zm31.8-2.68a33,33,0,0,0-7.32-3,9.58,9.58,0,0,0,.38-2.47,35.78,35.78,0,0,1,8.41,3.5A9.83,9.83,0,0,0-427.4,6.38Zm-8.52-.47a30.32,30.32,0,0,1,7.56,3.15,9.51,9.51,0,0,0,1.66,7.46l-8.4,8.4a13.63,13.63,0,0,0-7.28-3V10A9.49,9.49,0,0,0-435.92,5.91Zm23.34,11.83a35,35,0,0,1,3.49,8.42,9.49,9.49,0,0,0-2.45.38,33.27,33.27,0,0,0-3-7.33A9.81,9.81,0,0,0-412.58,17.74ZM-414.41,6.2a6.66,6.66,0,0,1,0,9.4,6.69,6.69,0,0,1-9.38,0,6.72,6.72,0,0,1,0-9.4A6.69,6.69,0,0,1-414.41,6.2ZM-443.78-6A6.65,6.65,0,0,1-437.14.66a6.65,6.65,0,0,1-6.64,6.65A6.65,6.65,0,0,1-450.42.66a6.75,6.75,0,0,1,.11-1.19,1.14,1.14,0,0,0,.07-.32A6.65,6.65,0,0,1-443.78-6Zm-19.08,24.5,8.41,8.41a13.69,13.69,0,0,0-3,7.29h-11.86a9.44,9.44,0,0,0-4.1-6.46,30.58,30.58,0,0,1,3.14-7.57A9.53,9.53,0,0,0-462.86,18.51Zm-10.12.7a33.76,33.76,0,0,0-3,7.33,9.43,9.43,0,0,0-2.45-.38A35.82,35.82,0,0,1-475,17.74,9.81,9.81,0,0,0-473,19.21Zm-12.34,16.4A6.74,6.74,0,0,1-478.68,29,6.65,6.65,0,0,1-472,35.61a6.65,6.65,0,0,1-6.64,6.66A6.67,6.67,0,0,1-485.32,35.61ZM-468.46,67A6.6,6.6,0,0,1-473.15,65a6.67,6.67,0,0,1,0-9.41,6.7,6.7,0,0,1,9.39,0,6.67,6.67,0,0,1,0,9.41A6.75,6.75,0,0,1-468.46,67Zm42.28,16.6a.44.44,0,0,1-.42.6H-461a.45.45,0,0,1-.42-.6l4.25-11.52a40,40,0,0,0,4.33,1.31,9.47,9.47,0,0,0,9,6.66,9.48,9.48,0,0,0,9-6.66,40.73,40.73,0,0,0,4.33-1.31Zm1.48-30.87-8.4-8.41a13.57,13.57,0,0,0,3-7.28h11.86a9.44,9.44,0,0,0,4.1,6.46,30.36,30.36,0,0,1-3.14,7.57,9.41,9.41,0,0,0-1.84-.18A9.33,9.33,0,0,0-424.7,52.71Zm10.12-.69a33,33,0,0,0,3-7.34,8.71,8.71,0,0,0,2.45.38,35.07,35.07,0,0,1-3.49,8.43A9.45,9.45,0,0,0-414.58,52Z"/></clipPath><clipPath id="clip-path-10"><path class="cls-2" d="M-720.32,89.54h-74.57a2.57,2.57,0,0,1-2.53-2.6V81.5a2.56,2.56,0,0,1,2.53-2.6h28.57a6.67,6.67,0,0,1-.67-2.08,6.81,6.81,0,0,1,1.41-5.31l.92-1.12a7.1,7.1,0,0,0,1.46-5.57l-.38-2.44h-11.24a6,6,0,0,1-5.89-6.14,1,1,0,0,0-.39-.79l-2.37-1.67a2.63,2.63,0,0,1-1-2.89A2.53,2.53,0,0,1-782,49h19.32V46.09h-6.47A6,6,0,0,1-775.06,40a1,1,0,0,0-.39-.8l-2.37-1.66a2.64,2.64,0,0,1-1-2.9,2.54,2.54,0,0,1,2.43-1.86h13.67V31.26a10.17,10.17,0,0,0-5.7-9.28l-.73-.34V19.15h23.07v2.49l-.72.34a10.17,10.17,0,0,0-5.7,9.28v1.47h13.67a2.55,2.55,0,0,1,2.43,1.88,2.64,2.64,0,0,1-1,2.88l-2.37,1.66a1,1,0,0,0-.39.8A6,6,0,0,1-746,46.09h-6.46V49h19.32a2.55,2.55,0,0,1,2.43,1.88,2.63,2.63,0,0,1-1,2.88l-2.37,1.67a1,1,0,0,0-.38.79,6,6,0,0,1-5.89,6.14h-11.24l-.39,2.44a7.09,7.09,0,0,0,1.47,5.57l.91,1.13a6.74,6.74,0,0,1,1.41,5.3,6.85,6.85,0,0,1-.67,2.08h28.57a2.57,2.57,0,0,1,2.54,2.6v5.44A2.58,2.58,0,0,1-720.32,89.54Zm-74.57-8.14a.14.14,0,0,0,0,.1v5.44a.11.11,0,0,0,0,.1h74.56s0,0,0-.1V81.5a.13.13,0,0,0,0-.1h-35.07l3.1-2.26a4.13,4.13,0,0,0,1.6-2.71,4.24,4.24,0,0,0-.88-3.34l-.91-1.13a9.56,9.56,0,0,1-2-7.53l.72-4.55h13.38A3.52,3.52,0,0,0-737,56.24a3.46,3.46,0,0,1,1.45-2.84l2.36-1.66a.19.19,0,0,0,0-.16L-755,51.52V43.59h9A3.52,3.52,0,0,0-742.65,40a3.47,3.47,0,0,1,1.46-2.84l2.36-1.67s.05-.08,0-.15L-755,35.23v-4a12.91,12.91,0,0,1,4.21-9.61h-13.65a12.91,12.91,0,0,1,4.22,9.61v4h-16.17c0,.13,0,.2,0,.22l2.36,1.66A3.46,3.46,0,0,1-772.56,40a3.52,3.52,0,0,0,3.38,3.64h9v7.93H-782c-.05.13,0,.2,0,.22l2.36,1.67a3.45,3.45,0,0,1,1.45,2.83,3.52,3.52,0,0,0,3.39,3.64h13.37l.72,4.55a9.57,9.57,0,0,1-2,7.53l-.92,1.13a4.25,4.25,0,0,0-.88,3.35,4.1,4.1,0,0,0,1.6,2.7l3.07,2.26Z"/></clipPath><clipPath id="clip-path-11"><path class="cls-1" d="M-790,48.32a2.82,2.82,0,0,1,2.82-2.82,5.64,5.64,0,0,0,5.63-5.63v-7A2.82,2.82,0,0,1-778.72,30h8.44V27.2h-8.44a5.64,5.64,0,0,0-5.64,5.63v7a2.82,2.82,0,0,1-2.81,2.82,5.64,5.64,0,0,0-5.64,5.63V68H-790Z"/></clipPath><clipPath id="clip-path-12"><path class="cls-2" d="M-757.6,16.72a2.16,2.16,0,0,1-1.86-1l-3.2-5.33a2.16,2.16,0,0,1,.33-2.65l3.2-3.19a2.21,2.21,0,0,1,3.06,0l3.19,3.2a2.15,2.15,0,0,1,.33,2.64l-3.2,5.32A2.14,2.14,0,0,1-757.6,16.72Zm0-2.18Zm-.06-8.48-3.14,3.2,3.17,5.23,3.16-5.27Z"/></clipPath><clipPath id="clip-path-13"><path class="cls-1" d="M-744.93,27.2V30h8.45a2.82,2.82,0,0,1,2.81,2.82v7A5.64,5.64,0,0,0-728,45.5a2.82,2.82,0,0,1,2.82,2.82V68h2.82V48.32A5.64,5.64,0,0,0-728,42.69a2.82,2.82,0,0,1-2.81-2.82v-7a5.64,5.64,0,0,0-5.63-5.63Z"/></clipPath><clipPath id="clip-path-14"><path class="cls-1" d="M-739.3,17.34h2.82a8.46,8.46,0,0,0-8.45-8.45h-2.82v2.82h2.82a5.63,5.63,0,0,1,5.63,5.63"/></clipPath><clipPath id="clip-path-15"><path class="cls-1" d="M-770.28,11.71h2.82V8.89h-2.82a8.45,8.45,0,0,0-8.44,8.45h2.82a5.63,5.63,0,0,1,5.62-5.63"/></clipPath><clipPath id="clip-path-16"><path class="cls-1" d="M-290.43,76.23a4.44,4.44,0,0,1-3.11,1.25,4.42,4.42,0,0,1-3.11-1.25,7.48,7.48,0,0,0-5-1.9,7.45,7.45,0,0,0-5,1.9,4.42,4.42,0,0,1-3.11,1.25,4.4,4.4,0,0,1-3.1-1.25,7.47,7.47,0,0,0-5-1.9,7.45,7.45,0,0,0-5,1.9,4.42,4.42,0,0,1-3.11,1.25,4,4,0,0,1-1.81-.38V35h22v3.15h3.15V35h1.58A3.16,3.16,0,0,0-298,31.82V28.67a3.16,3.16,0,0,0-3.15-3.15h-.08A29.92,29.92,0,0,0-329.48-2.74V-4.4a4.73,4.73,0,0,0-4.73-4.72,4.73,4.73,0,0,0-4.72,4.72v1.66a29.91,29.91,0,0,0-28.26,28.26h-.08a3.16,3.16,0,0,0-3.15,3.15v3.15A3.16,3.16,0,0,0-367.27,35h1.57v3.15h3.15V35h22.05v42.1a4,4,0,0,1-1.87.41,4.4,4.4,0,0,1-3.1-1.25,7.47,7.47,0,0,0-5-1.9,7.43,7.43,0,0,0-5,1.9,4.42,4.42,0,0,1-3.1,1.25,4.38,4.38,0,0,1-3.1-1.25,7.47,7.47,0,0,0-5-1.9,7.45,7.45,0,0,0-5,1.9,4.4,4.4,0,0,1-3.1,1.25,4.4,4.4,0,0,1-3.1-1.25,7.45,7.45,0,0,0-5-1.9v3.15a4.34,4.34,0,0,1,3.1,1.25,7.47,7.47,0,0,0,5,1.9,7.47,7.47,0,0,0,5-1.9,4.36,4.36,0,0,1,3.1-1.25,4.36,4.36,0,0,1,3.1,1.25,7.43,7.43,0,0,0,5,1.9,7.42,7.42,0,0,0,5-1.9,4.4,4.4,0,0,1,3.11-1.25,4.36,4.36,0,0,1,3.1,1.25,7.47,7.47,0,0,0,5,1.9,7.43,7.43,0,0,0,5-1.9,4.38,4.38,0,0,1,3.11-1.25,4.36,4.36,0,0,1,3.1,1.25,7.47,7.47,0,0,0,5,1.9,7.48,7.48,0,0,0,5-1.9,4.34,4.34,0,0,1,3.1-1.25,4.4,4.4,0,0,1,3.11,1.25,7.42,7.42,0,0,0,5,1.9,7.48,7.48,0,0,0,5-1.9,4.34,4.34,0,0,1,3.1-1.25,4.36,4.36,0,0,1,3.11,1.25,7.48,7.48,0,0,0,5,1.9,7.45,7.45,0,0,0,5-1.9,4.38,4.38,0,0,1,3.11-1.25V74.33A7.45,7.45,0,0,0-290.43,76.23ZM-334.21-6a1.58,1.58,0,0,1,1.58,1.57v1.58h-3.15V-4.4A1.58,1.58,0,0,1-334.21-6ZM-338.53.39a37.14,37.14,0,0,0-8.33,11.91l2.88,1.26A33.91,33.91,0,0,1-334.21.78a33.54,33.54,0,0,1,12.56,24.74h-25.09a33.56,33.56,0,0,1,1.62-8.95l-3-1a36.64,36.64,0,0,0-1.78,9.94H-364A26.74,26.74,0,0,1-338.53.39Zm-28.74,28.28h53.53V25.52h-4.77A36.61,36.61,0,0,0-329.87.39a26.76,26.76,0,0,1,25.5,25.13h-6.22v3.15h9.45v3.15h-66.13Zm33,45.66a7.2,7.2,0,0,0-3.13.66V35h6.3V75A7,7,0,0,0-334.23,74.33Z"/></clipPath><clipPath id="clip-path-17"><path class="cls-1" d="M-293.54,85.35a4.4,4.4,0,0,1-3.11-1.24,7.43,7.43,0,0,0-5-1.91,7.38,7.38,0,0,0-5,1.91,4.42,4.42,0,0,1-3.11,1.24,4.39,4.39,0,0,1-3.1-1.24,7.4,7.4,0,0,0-5-1.91,7.4,7.4,0,0,0-5,1.91,4.42,4.42,0,0,1-3.11,1.24,4.39,4.39,0,0,1-3.1-1.24,7.42,7.42,0,0,0-5-1.91,7.4,7.4,0,0,0-5,1.91,4.39,4.39,0,0,1-3.1,1.24,4.42,4.42,0,0,1-3.11-1.24,7.42,7.42,0,0,0-5-1.91,7.4,7.4,0,0,0-5,1.91,4.41,4.41,0,0,1-3.1,1.24,4.37,4.37,0,0,1-3.1-1.24,7.4,7.4,0,0,0-5-1.91,7.42,7.42,0,0,0-5,1.91,4.39,4.39,0,0,1-3.1,1.24,4.37,4.37,0,0,1-3.1-1.24,7.38,7.38,0,0,0-5-1.91v3.15a4.37,4.37,0,0,1,3.1,1.24,7.42,7.42,0,0,0,5,1.91,7.4,7.4,0,0,0,5-1.91,4.39,4.39,0,0,1,3.1-1.24,4.39,4.39,0,0,1,3.1,1.24,7.4,7.4,0,0,0,5,1.91,7.42,7.42,0,0,0,5-1.91,4.39,4.39,0,0,1,3.1-1.24,4.39,4.39,0,0,1,3.1,1.24,7.41,7.41,0,0,0,5,1.91,7.39,7.39,0,0,0,5-1.91,4.43,4.43,0,0,1,3.11-1.24,4.39,4.39,0,0,1,3.1,1.24,7.42,7.42,0,0,0,5,1.91,7.45,7.45,0,0,0,5-1.91,4.37,4.37,0,0,1,3.1-1.24,4.39,4.39,0,0,1,3.1,1.24,7.42,7.42,0,0,0,5,1.91,7.43,7.43,0,0,0,5-1.91,4.37,4.37,0,0,1,3.1-1.24,4.4,4.4,0,0,1,3.11,1.24,7.43,7.43,0,0,0,5,1.91,7.38,7.38,0,0,0,5-1.91,4.42,4.42,0,0,1,3.12-1.24V82.2a7.41,7.41,0,0,0-5,1.91,4.42,4.42,0,0,1-3.11,1.24"/></clipPath><clipPath id="clip-path-18"><path class="cls-1" d="M-324.76,66.46A4.72,4.72,0,0,0-320,71.18a4.72,4.72,0,0,0,4.73-4.72V63.31h-3.15v3.15A1.58,1.58,0,0,1-320,68a1.58,1.58,0,0,1-1.57-1.57v-22h-3.15Z"/></clipPath><clipPath id="clip-path-19"><path class="cls-1" d="M-302.72,55.43V47.56h-3.15v7.87A1.57,1.57,0,0,1-307.44,57,1.57,1.57,0,0,1-309,55.43V42.84a4.73,4.73,0,0,0-4.73-4.72,4.73,4.73,0,0,0-4.72,4.72v4.72h3.15V42.84a1.57,1.57,0,0,1,1.57-1.57,1.57,1.57,0,0,1,1.57,1.57V55.43a4.74,4.74,0,0,0,4.73,4.73,4.72,4.72,0,0,0,4.72-4.73"/></clipPath><clipPath id="clip-path-20"><path class="cls-1" d="M-346.8,66.46A1.58,1.58,0,0,1-348.37,68,1.58,1.58,0,0,1-350,66.46V63.31h-3.14v3.15a4.72,4.72,0,0,0,4.73,4.72,4.73,4.73,0,0,0,4.72-4.72v-22h-3.15Z"/></clipPath><clipPath id="clip-path-21"><path class="cls-1" d="M-365.7,55.43A4.73,4.73,0,0,0-361,60.16a4.73,4.73,0,0,0,4.72-4.73V42.84a1.57,1.57,0,0,1,1.58-1.57,1.57,1.57,0,0,1,1.57,1.57v4.72h3.15V42.84a4.73,4.73,0,0,0-4.72-4.72,4.73,4.73,0,0,0-4.73,4.72V55.43A1.58,1.58,0,0,1-361,57a1.57,1.57,0,0,1-1.57-1.58V47.56h-3.16Z"/></clipPath><clipPath id="clip-path-22"><path class="cls-1" d="M-375.14,66.46a17.76,17.76,0,0,1,5.64.91l4.95,1.66-2.65-6.64A8.51,8.51,0,0,0-375.14,57a4.73,4.73,0,0,0-4.73,4.72,4.73,4.73,0,0,0,4.73,4.73m0-6.3a5.36,5.36,0,0,1,5,3.4l.16.4a20.46,20.46,0,0,0-5.17-.65,1.58,1.58,0,0,1-1.58-1.58,1.58,1.58,0,0,1,1.58-1.57"/></clipPath><clipPath id="clip-path-23"><path class="cls-1" d="M-301.21,62.38-303.87,69l5-1.66a18,18,0,0,1,5.64-.91,4.72,4.72,0,0,0,4.72-4.73A4.72,4.72,0,0,0-293.27,57,8.52,8.52,0,0,0-301.21,62.38Zm2.92,1.18a5.37,5.37,0,0,1,5-3.4,1.57,1.57,0,0,1,1.57,1.57,1.57,1.57,0,0,1-1.57,1.58,21.07,21.07,0,0,0-5.18.65Z"/></clipPath></defs><path class="cls-3" d="M-215.32,85.09h15.91v-10h-15.91Zm17.9,4h-19.89a2,2,0,0,1-2-2V73.15a2,2,0,0,1,2-2h19.89a2,2,0,0,1,2,2V87.07A2,2,0,0,1-197.42,89.06Z"/><g class="cls-4"><rect class="cls-2" x="-1483.86" y="-3707.57" width="5804.01" height="4970.61"/></g><path class="cls-3" d="M-225.26,85.09h35.79V-2.44h-35.79Zm37.79,4h-39.79a2,2,0,0,1-2-2V-4.43a2,2,0,0,1,2-2h39.79a2,2,0,0,1,2,2v91.5A2,2,0,0,1-187.47,89.06Z"/><g class="cls-5"><rect class="cls-2" x="-1483.86" y="-3707.57" width="5804.01" height="4964.66"/></g><path class="cls-3" d="M-241.18,85.09h11.93V5.52h-11.93Zm13.93,4h-15.92a2,2,0,0,1-2-2V3.53a2,2,0,0,1,2-2h15.92a2,2,0,0,1,2,2V87.07A2,2,0,0,1-227.25,89.06Z"/><g class="cls-6"><rect class="cls-2" x="-1483.86" y="-3707.57" width="5804.01" height="4964.66"/></g><path class="cls-3" d="M-185.49,85.09h11.94V5.52h-11.94Zm13.93,4h-15.91a2,2,0,0,1-2-2V3.53a2,2,0,0,1,2-2h15.91a2,2,0,0,1,2,2V87.07A2,2,0,0,1-171.56,89.06Z"/><g class="cls-7"><rect class="cls-2" x="-1483.86" y="-3707.57" width="5804.01" height="4964.66"/></g><rect class="cls-2" x="-259.08" y="45.3" width="3.98" height="19.89" transform="translate(-146.95 -183.54) rotate(-53.11)"/><g class="cls-8"><rect class="cls-2" x="-1483.86" y="-3707.57" width="5804.01" height="4964.66"/></g><rect class="cls-2" x="-267.04" y="53.26" width="19.89" height="3.98" transform="translate(-84.6 -143.23) rotate(-36.88)"/><g class="cls-9"><rect class="cls-2" x="-1483.86" y="-3707.57" width="5804.01" height="4964.66"/></g><rect class="cls-2" x="-159.62" y="45.3" width="3.97" height="19.89" transform="translate(-107.22 -104) rotate(-53.12)"/><g class="cls-10"><rect class="cls-2" x="-1483.86" y="-3707.57" width="5804.01" height="4964.66"/></g><rect class="cls-2" x="-167.59" y="53.27" width="19.89" height="3.97" transform="translate(-64.63 -83.5) rotate(-36.85)"/><g class="cls-11"><rect class="cls-2" x="-1483.86" y="-3707.57" width="5804.01" height="4964.66"/></g><path class="cls-3" d="M-399.43,35.61a9.47,9.47,0,0,0-6.65-9,38.57,38.57,0,0,0-4.67-11.26,9.49,9.49,0,0,0-1.67-11.11,9.36,9.36,0,0,0-6.68-2.77,9.45,9.45,0,0,0-4.42,1.09,38.51,38.51,0,0,0-11.23-4.67,9.48,9.48,0,0,0-9-6.66,9.47,9.47,0,0,0-9,6.66A38.57,38.57,0,0,0-464,2.53a9.47,9.47,0,0,0-7.17-.68,1.41,1.41,0,0,0,.82,2.69,6.6,6.6,0,0,1,6.63,1.66,6.66,6.66,0,0,1,0,9.4,6.7,6.7,0,0,1-9.39,0,6.64,6.64,0,0,1-1.45-7.23,1.41,1.41,0,0,0-2.6-1.06,9.46,9.46,0,0,0,.39,8,38.57,38.57,0,0,0-4.67,11.26,9.46,9.46,0,0,0-6.64,9,9.48,9.48,0,0,0,6.64,9,38.57,38.57,0,0,0,4.67,11.26A9.5,9.5,0,0,0-475.14,67,9.55,9.55,0,0,0-464,68.69a37.92,37.92,0,0,0,4.31,2.3L-464,82.6A3.31,3.31,0,0,0-461,87h34.36a3.31,3.31,0,0,0,3.06-4.39L-427.83,71a37.92,37.92,0,0,0,4.31-2.3,9.29,9.29,0,0,0,4.4,1.1,9.46,9.46,0,0,0,2.91-.46,1.4,1.4,0,0,0-.86-2.67A6.58,6.58,0,0,1-423.79,65a6.65,6.65,0,0,1,0-9.41,6.69,6.69,0,0,1,9.38,0,6.66,6.66,0,0,1,1.48,7.17,1.4,1.4,0,0,0,2.6,1,9.43,9.43,0,0,0-.42-7.93,38.57,38.57,0,0,0,4.67-11.26A9.48,9.48,0,0,0-399.43,35.61Zm-2.81,0a6.66,6.66,0,0,1-6.64,6.66,6.66,6.66,0,0,1-6.64-6.66A6.66,6.66,0,0,1-408.88,29,6.66,6.66,0,0,1-402.24,35.61Zm-16-1.4h-11.86a13.67,13.67,0,0,0-3-7.31l8.39-8.39a9.54,9.54,0,0,0,7.46,1.67,30.21,30.21,0,0,1,3.14,7.57A9.44,9.44,0,0,0-418.22,34.21ZM-430,68.89a42.69,42.69,0,0,1-4.3,1.47,9.5,9.5,0,0,0-.38-2.46,33,33,0,0,0,7.32-3.05,9.51,9.51,0,0,0,1.47,2A27,27,0,0,1-430,68.89Zm-31.59-2a9.17,9.17,0,0,0,1.47-2,33.23,33.23,0,0,0,7.32,3.05,9.57,9.57,0,0,0-.38,2.46A35.36,35.36,0,0,1-461.63,66.86ZM-475,53.49a36.36,36.36,0,0,1-3.5-8.43,8.67,8.67,0,0,0,2.46-.38A33.43,33.43,0,0,0-473,52,9.45,9.45,0,0,0-475,53.49Zm4.68-2.44a30.74,30.74,0,0,1-3.14-7.57,9.44,9.44,0,0,0,4.1-6.46h11.86a13.71,13.71,0,0,0,3,7.27l-8.4,8.41A9.49,9.49,0,0,0-470.3,51.05Zm25.12,10.16a9.46,9.46,0,0,0-6.45,4.11,30.77,30.77,0,0,1-7.57-3.15,9.44,9.44,0,0,0-1.68-7.49l8.4-8.4a13.62,13.62,0,0,0,7.3,3Zm1.4,2.7a6.65,6.65,0,0,1,6.64,6.65,6.66,6.66,0,0,1-6.64,6.66,6.66,6.66,0,0,1-6.64-6.66A6.65,6.65,0,0,1-443.78,63.91Zm15.42-1.74a30.7,30.7,0,0,1-7.56,3.15,9.46,9.46,0,0,0-6.46-4.11V49.32a13.65,13.65,0,0,0,7.29-3l8.4,8.4A9.5,9.5,0,0,0-428.36,62.17Zm-15.42-15.59a11,11,0,0,1-11-11,11,11,0,0,1,11-11,11,11,0,0,1,11,11A11,11,0,0,1-443.78,46.58Zm-9.06-43.25a33.68,33.68,0,0,0-7.32,3,9.67,9.67,0,0,0-1.47-2,35.36,35.36,0,0,1,8.41-3.5A9.58,9.58,0,0,0-452.84,3.33Zm-6.36,5.73a30.39,30.39,0,0,1,7.57-3.15A9.49,9.49,0,0,0-445.18,10V21.91a13.63,13.63,0,0,0-7.29,3l-8.4-8.4A9.45,9.45,0,0,0-459.2,9.06Zm31.8-2.68a33,33,0,0,0-7.32-3,9.58,9.58,0,0,0,.38-2.47,35.78,35.78,0,0,1,8.41,3.5A9.83,9.83,0,0,0-427.4,6.38Zm-8.52-.47a30.32,30.32,0,0,1,7.56,3.15,9.51,9.51,0,0,0,1.66,7.46l-8.4,8.4a13.63,13.63,0,0,0-7.28-3V10A9.49,9.49,0,0,0-435.92,5.91Zm23.34,11.83a35,35,0,0,1,3.49,8.42,9.49,9.49,0,0,0-2.45.38,33.27,33.27,0,0,0-3-7.33A9.81,9.81,0,0,0-412.58,17.74ZM-414.41,6.2a6.66,6.66,0,0,1,0,9.4,6.69,6.69,0,0,1-9.38,0,6.72,6.72,0,0,1,0-9.4A6.69,6.69,0,0,1-414.41,6.2ZM-443.78-6A6.65,6.65,0,0,1-437.14.66a6.65,6.65,0,0,1-6.64,6.65A6.65,6.65,0,0,1-450.42.66a6.75,6.75,0,0,1,.11-1.19,1.14,1.14,0,0,0,.07-.32A6.65,6.65,0,0,1-443.78-6Zm-19.08,24.5,8.41,8.41a13.69,13.69,0,0,0-3,7.29h-11.86a9.44,9.44,0,0,0-4.1-6.46,30.58,30.58,0,0,1,3.14-7.57A9.53,9.53,0,0,0-462.86,18.51Zm-10.12.7a33.76,33.76,0,0,0-3,7.33,9.43,9.43,0,0,0-2.45-.38A35.82,35.82,0,0,1-475,17.74,9.81,9.81,0,0,0-473,19.21Zm-12.34,16.4A6.74,6.74,0,0,1-478.68,29,6.65,6.65,0,0,1-472,35.61a6.65,6.65,0,0,1-6.64,6.66A6.67,6.67,0,0,1-485.32,35.61ZM-468.46,67A6.6,6.6,0,0,1-473.15,65a6.67,6.67,0,0,1,0-9.41,6.7,6.7,0,0,1,9.39,0,6.67,6.67,0,0,1,0,9.41A6.75,6.75,0,0,1-468.46,67Zm42.28,16.6a.44.44,0,0,1-.42.6H-461a.45.45,0,0,1-.42-.6l4.25-11.52a40,40,0,0,0,4.33,1.31,9.47,9.47,0,0,0,9,6.66,9.48,9.48,0,0,0,9-6.66,40.73,40.73,0,0,0,4.33-1.31Zm1.48-30.87-8.4-8.41a13.57,13.57,0,0,0,3-7.28h11.86a9.44,9.44,0,0,0,4.1,6.46,30.36,30.36,0,0,1-3.14,7.57,9.41,9.41,0,0,0-1.84-.18A9.33,9.33,0,0,0-424.7,52.71Zm10.12-.69a33,33,0,0,0,3-7.34,8.71,8.71,0,0,0,2.45.38,35.07,35.07,0,0,1-3.49,8.43A9.45,9.45,0,0,0-414.58,52Z"/><g class="cls-12"><rect class="cls-2" x="-5008.1" y="-2224.16" width="5391.41" height="4611.73"/></g><path class="cls-2" d="M-720.32,89.54h-74.57a2.57,2.57,0,0,1-2.53-2.6V81.5a2.56,2.56,0,0,1,2.53-2.6h28.57a6.67,6.67,0,0,1-.67-2.08,6.81,6.81,0,0,1,1.41-5.31l.92-1.12a7.1,7.1,0,0,0,1.46-5.57l-.38-2.44h-11.24a6,6,0,0,1-5.89-6.14,1,1,0,0,0-.39-.79l-2.37-1.67a2.63,2.63,0,0,1-1-2.89A2.53,2.53,0,0,1-782,49h19.32V46.09h-6.47A6,6,0,0,1-775.06,40a1,1,0,0,0-.39-.8l-2.37-1.66a2.64,2.64,0,0,1-1-2.9,2.54,2.54,0,0,1,2.43-1.86h13.67V31.26a10.17,10.17,0,0,0-5.7-9.28l-.73-.34V19.15h23.07v2.49l-.72.34a10.17,10.17,0,0,0-5.7,9.28v1.47h13.67a2.55,2.55,0,0,1,2.43,1.88,2.64,2.64,0,0,1-1,2.88l-2.37,1.66a1,1,0,0,0-.39.8A6,6,0,0,1-746,46.09h-6.46V49h19.32a2.55,2.55,0,0,1,2.43,1.88,2.63,2.63,0,0,1-1,2.88l-2.37,1.67a1,1,0,0,0-.38.79,6,6,0,0,1-5.89,6.14h-11.24l-.39,2.44a7.09,7.09,0,0,0,1.47,5.57l.91,1.13a6.74,6.74,0,0,1,1.41,5.3,6.85,6.85,0,0,1-.67,2.08h28.57a2.57,2.57,0,0,1,2.54,2.6v5.44A2.58,2.58,0,0,1-720.32,89.54Zm-74.57-8.14a.14.14,0,0,0,0,.1v5.44a.11.11,0,0,0,0,.1h74.56s0,0,0-.1V81.5a.13.13,0,0,0,0-.1h-35.07l3.1-2.26a4.13,4.13,0,0,0,1.6-2.71,4.24,4.24,0,0,0-.88-3.34l-.91-1.13a9.56,9.56,0,0,1-2-7.53l.72-4.55h13.38A3.52,3.52,0,0,0-737,56.24a3.46,3.46,0,0,1,1.45-2.84l2.36-1.66a.19.19,0,0,0,0-.16L-755,51.52V43.59h9A3.52,3.52,0,0,0-742.65,40a3.47,3.47,0,0,1,1.46-2.84l2.36-1.67s.05-.08,0-.15L-755,35.23v-4a12.91,12.91,0,0,1,4.21-9.61h-13.65a12.91,12.91,0,0,1,4.22,9.61v4h-16.17c0,.13,0,.2,0,.22l2.36,1.66A3.46,3.46,0,0,1-772.56,40a3.52,3.52,0,0,0,3.38,3.64h9v7.93H-782c-.05.13,0,.2,0,.22l2.36,1.67a3.45,3.45,0,0,1,1.45,2.83,3.52,3.52,0,0,0,3.39,3.64h13.37l.72,4.55a9.57,9.57,0,0,1-2,7.53l-.92,1.13a4.25,4.25,0,0,0-.88,3.35,4.1,4.1,0,0,0,1.6,2.7l3.07,2.26Z"/><g class="cls-13"><path class="cls-2" d="M1665.33,1873.42H-3212V-2532.83H1665.33Zm-4874.35-3H1662.33V-2529.83H-3209Z"/></g><path class="cls-3" d="M-790,48.32a2.82,2.82,0,0,1,2.82-2.82,5.64,5.64,0,0,0,5.63-5.63v-7A2.82,2.82,0,0,1-778.72,30h8.44V27.2h-8.44a5.64,5.64,0,0,0-5.64,5.63v7a2.82,2.82,0,0,1-2.81,2.82,5.64,5.64,0,0,0-5.64,5.63V68H-790Z"/><g class="cls-14"><rect class="cls-2" x="-3443.85" y="-2628.73" width="5338.01" height="4566.05"/></g><path class="cls-2" d="M-757.6,16.72a2.16,2.16,0,0,1-1.86-1l-3.2-5.33a2.16,2.16,0,0,1,.33-2.65l3.2-3.19a2.21,2.21,0,0,1,3.06,0l3.19,3.2a2.15,2.15,0,0,1,.33,2.64l-3.2,5.32A2.14,2.14,0,0,1-757.6,16.72Zm0-2.18Zm-.06-8.48-3.14,3.2,3.17,5.23,3.16-5.27Z"/><g class="cls-15"><path class="cls-2" d="M1249.51,1469.16H-2790.81V-1987.19H1249.51Zm-4038.12-2.2H1247.31V-1985H-2788.61Z"/></g><path class="cls-3" d="M-744.93,27.2V30h8.45a2.82,2.82,0,0,1,2.81,2.82v7A5.64,5.64,0,0,0-728,45.5a2.82,2.82,0,0,1,2.82,2.82V68h2.82V48.32A5.64,5.64,0,0,0-728,42.69a2.82,2.82,0,0,1-2.81-2.82v-7a5.64,5.64,0,0,0-5.63-5.63Z"/><g class="cls-16"><rect class="cls-2" x="-3443.85" y="-2628.73" width="5338.01" height="4566.05"/></g><path class="cls-3" d="M-739.3,17.34h2.82a8.46,8.46,0,0,0-8.45-8.45h-2.82v2.82h2.82a5.63,5.63,0,0,1,5.63,5.63"/><g class="cls-17"><rect class="cls-2" x="-3443.85" y="-2628.73" width="5338.01" height="4566.05"/></g><path class="cls-3" d="M-770.28,11.71h2.82V8.89h-2.82a8.45,8.45,0,0,0-8.44,8.45h2.82a5.63,5.63,0,0,1,5.62-5.63"/><g class="cls-18"><rect class="cls-2" x="-3443.85" y="-2628.73" width="5338.01" height="4566.05"/></g><path class="cls-3" d="M-290.43,76.23a4.44,4.44,0,0,1-3.11,1.25,4.42,4.42,0,0,1-3.11-1.25,7.48,7.48,0,0,0-5-1.9,7.45,7.45,0,0,0-5,1.9,4.42,4.42,0,0,1-3.11,1.25,4.4,4.4,0,0,1-3.1-1.25,7.47,7.47,0,0,0-5-1.9,7.45,7.45,0,0,0-5,1.9,4.42,4.42,0,0,1-3.11,1.25,4,4,0,0,1-1.81-.38V35h22v3.15h3.15V35h1.58A3.16,3.16,0,0,0-298,31.82V28.67a3.16,3.16,0,0,0-3.15-3.15h-.08A29.92,29.92,0,0,0-329.48-2.74V-4.4a4.73,4.73,0,0,0-4.73-4.72,4.73,4.73,0,0,0-4.72,4.72v1.66a29.91,29.91,0,0,0-28.26,28.26h-.08a3.16,3.16,0,0,0-3.15,3.15v3.15A3.16,3.16,0,0,0-367.27,35h1.57v3.15h3.15V35h22.05v42.1a4,4,0,0,1-1.87.41,4.4,4.4,0,0,1-3.1-1.25,7.47,7.47,0,0,0-5-1.9,7.43,7.43,0,0,0-5,1.9,4.42,4.42,0,0,1-3.1,1.25,4.38,4.38,0,0,1-3.1-1.25,7.47,7.47,0,0,0-5-1.9,7.45,7.45,0,0,0-5,1.9,4.4,4.4,0,0,1-3.1,1.25,4.4,4.4,0,0,1-3.1-1.25,7.45,7.45,0,0,0-5-1.9v3.15a4.34,4.34,0,0,1,3.1,1.25,7.47,7.47,0,0,0,5,1.9,7.47,7.47,0,0,0,5-1.9,4.36,4.36,0,0,1,3.1-1.25,4.36,4.36,0,0,1,3.1,1.25,7.43,7.43,0,0,0,5,1.9,7.42,7.42,0,0,0,5-1.9,4.4,4.4,0,0,1,3.11-1.25,4.36,4.36,0,0,1,3.1,1.25,7.47,7.47,0,0,0,5,1.9,7.43,7.43,0,0,0,5-1.9,4.38,4.38,0,0,1,3.11-1.25,4.36,4.36,0,0,1,3.1,1.25,7.47,7.47,0,0,0,5,1.9,7.48,7.48,0,0,0,5-1.9,4.34,4.34,0,0,1,3.1-1.25,4.4,4.4,0,0,1,3.11,1.25,7.42,7.42,0,0,0,5,1.9,7.48,7.48,0,0,0,5-1.9,4.34,4.34,0,0,1,3.1-1.25,4.36,4.36,0,0,1,3.11,1.25,7.48,7.48,0,0,0,5,1.9,7.45,7.45,0,0,0,5-1.9,4.38,4.38,0,0,1,3.11-1.25V74.33A7.45,7.45,0,0,0-290.43,76.23ZM-334.21-6a1.58,1.58,0,0,1,1.58,1.57v1.58h-3.15V-4.4A1.58,1.58,0,0,1-334.21-6ZM-338.53.39a37.14,37.14,0,0,0-8.33,11.91l2.88,1.26A33.91,33.91,0,0,1-334.21.78a33.54,33.54,0,0,1,12.56,24.74h-25.09a33.56,33.56,0,0,1,1.62-8.95l-3-1a36.64,36.64,0,0,0-1.78,9.94H-364A26.74,26.74,0,0,1-338.53.39Zm-28.74,28.28h53.53V25.52h-4.77A36.61,36.61,0,0,0-329.87.39a26.76,26.76,0,0,1,25.5,25.13h-6.22v3.15h9.45v3.15h-66.13Zm33,45.66a7.2,7.2,0,0,0-3.13.66V35h6.3V75A7,7,0,0,0-334.23,74.33Z"/><g class="cls-19"><rect class="cls-2" x="-3131.03" y="-2411.1" width="5224.37" height="4468.85"/></g><path class="cls-3" d="M-293.54,85.35a4.4,4.4,0,0,1-3.11-1.24,7.43,7.43,0,0,0-5-1.91,7.38,7.38,0,0,0-5,1.91,4.42,4.42,0,0,1-3.11,1.24,4.39,4.39,0,0,1-3.1-1.24,7.4,7.4,0,0,0-5-1.91,7.4,7.4,0,0,0-5,1.91,4.42,4.42,0,0,1-3.11,1.24,4.39,4.39,0,0,1-3.1-1.24,7.42,7.42,0,0,0-5-1.91,7.4,7.4,0,0,0-5,1.91,4.39,4.39,0,0,1-3.1,1.24,4.42,4.42,0,0,1-3.11-1.24,7.42,7.42,0,0,0-5-1.91,7.4,7.4,0,0,0-5,1.91,4.41,4.41,0,0,1-3.1,1.24,4.37,4.37,0,0,1-3.1-1.24,7.4,7.4,0,0,0-5-1.91,7.42,7.42,0,0,0-5,1.91,4.39,4.39,0,0,1-3.1,1.24,4.37,4.37,0,0,1-3.1-1.24,7.38,7.38,0,0,0-5-1.91v3.15a4.37,4.37,0,0,1,3.1,1.24,7.42,7.42,0,0,0,5,1.91,7.4,7.4,0,0,0,5-1.91,4.39,4.39,0,0,1,3.1-1.24,4.39,4.39,0,0,1,3.1,1.24,7.4,7.4,0,0,0,5,1.91,7.42,7.42,0,0,0,5-1.91,4.39,4.39,0,0,1,3.1-1.24,4.39,4.39,0,0,1,3.1,1.24,7.41,7.41,0,0,0,5,1.91,7.39,7.39,0,0,0,5-1.91,4.43,4.43,0,0,1,3.11-1.24,4.39,4.39,0,0,1,3.1,1.24,7.42,7.42,0,0,0,5,1.91,7.45,7.45,0,0,0,5-1.91,4.37,4.37,0,0,1,3.1-1.24,4.39,4.39,0,0,1,3.1,1.24,7.42,7.42,0,0,0,5,1.91,7.43,7.43,0,0,0,5-1.91,4.37,4.37,0,0,1,3.1-1.24,4.4,4.4,0,0,1,3.11,1.24,7.43,7.43,0,0,0,5,1.91,7.38,7.38,0,0,0,5-1.91,4.42,4.42,0,0,1,3.12-1.24V82.2a7.41,7.41,0,0,0-5,1.91,4.42,4.42,0,0,1-3.11,1.24"/><g class="cls-20"><rect class="cls-2" x="-3131.03" y="-2411.1" width="5224.37" height="4468.85"/></g><path class="cls-3" d="M-324.76,66.46A4.72,4.72,0,0,0-320,71.18a4.72,4.72,0,0,0,4.73-4.72V63.31h-3.15v3.15A1.58,1.58,0,0,1-320,68a1.58,1.58,0,0,1-1.57-1.57v-22h-3.15Z"/><g class="cls-21"><rect class="cls-2" x="-3131.03" y="-2411.1" width="5224.37" height="4468.85"/></g><path class="cls-3" d="M-302.72,55.43V47.56h-3.15v7.87A1.57,1.57,0,0,1-307.44,57,1.57,1.57,0,0,1-309,55.43V42.84a4.73,4.73,0,0,0-4.73-4.72,4.73,4.73,0,0,0-4.72,4.72v4.72h3.15V42.84a1.57,1.57,0,0,1,1.57-1.57,1.57,1.57,0,0,1,1.57,1.57V55.43a4.74,4.74,0,0,0,4.73,4.73,4.72,4.72,0,0,0,4.72-4.73"/><g class="cls-22"><rect class="cls-2" x="-3131.03" y="-2411.1" width="5224.37" height="4468.85"/></g><path class="cls-3" d="M-346.8,66.46A1.58,1.58,0,0,1-348.37,68,1.58,1.58,0,0,1-350,66.46V63.31h-3.14v3.15a4.72,4.72,0,0,0,4.73,4.72,4.73,4.73,0,0,0,4.72-4.72v-22h-3.15Z"/><g class="cls-23"><rect class="cls-2" x="-3131.03" y="-2411.1" width="5224.37" height="4468.85"/></g><path class="cls-3" d="M-365.7,55.43A4.73,4.73,0,0,0-361,60.16a4.73,4.73,0,0,0,4.72-4.73V42.84a1.57,1.57,0,0,1,1.58-1.57,1.57,1.57,0,0,1,1.57,1.57v4.72h3.15V42.84a4.73,4.73,0,0,0-4.72-4.72,4.73,4.73,0,0,0-4.73,4.72V55.43A1.58,1.58,0,0,1-361,57a1.57,1.57,0,0,1-1.57-1.58V47.56h-3.16Z"/><g class="cls-24"><rect class="cls-2" x="-3131.03" y="-2411.1" width="5224.37" height="4468.85"/></g><path class="cls-3" d="M-375.14,66.46a17.76,17.76,0,0,1,5.64.91l4.95,1.66-2.65-6.64A8.51,8.51,0,0,0-375.14,57a4.73,4.73,0,0,0-4.73,4.72,4.73,4.73,0,0,0,4.73,4.73m0-6.3a5.36,5.36,0,0,1,5,3.4l.16.4a20.46,20.46,0,0,0-5.17-.65,1.58,1.58,0,0,1-1.58-1.58,1.58,1.58,0,0,1,1.58-1.57"/><g class="cls-25"><rect class="cls-2" x="-3131.03" y="-2411.1" width="5224.37" height="4468.85"/></g><path class="cls-3" d="M-301.21,62.38-303.87,69l5-1.66a18,18,0,0,1,5.64-.91,4.72,4.72,0,0,0,4.72-4.73A4.72,4.72,0,0,0-293.27,57,8.52,8.52,0,0,0-301.21,62.38Zm2.92,1.18a5.37,5.37,0,0,1,5-3.4,1.57,1.57,0,0,1,1.57,1.57,1.57,1.57,0,0,1-1.57,1.58,21.07,21.07,0,0,0-5.18.65Z"/><g class="cls-26"><rect class="cls-2" x="-3131.03" y="-2411.1" width="5224.37" height="4468.85"/></g><g id="Layer_69" data-name="Layer 69"><g id="surface1"><path class="cls-2" d="M1.72,25.31v4.52a3.86,3.86,0,0,0,2.46,3.53v5.53A3.47,3.47,0,0,0,7.5,42.36V74.52A3.47,3.47,0,0,0,4.18,78v5.53a3.82,3.82,0,0,0-2.46,3.53v3.67A1.26,1.26,0,0,0,3,92H87.1a1.26,1.26,0,0,0,1.26-1.26V87a3.84,3.84,0,0,0-2.46-3.53V77.94a3.48,3.48,0,0,0-3.33-3.47V42.36a3.48,3.48,0,0,0,3.33-3.47V33.36a3.84,3.84,0,0,0,2.46-3.53V26.11a1.69,1.69,0,0,0,0-.55A1.26,1.26,0,0,0,90,24.91h0a1.2,1.2,0,0,0-.59-1.6h0L45.54.15a1.2,1.2,0,0,0-1.16,0L.66,23.24A1.27,1.27,0,0,0,.15,25h0A1.2,1.2,0,0,0,1.72,25.31Zm5,10.06V33.61H21v1.76Zm31.9,7V74.52A3.56,3.56,0,0,0,35.28,78v5.33H23.45V78a3.47,3.47,0,0,0-3.32-3.47V42.36a3.47,3.47,0,0,0,3.32-3.47v-5H35.23v5a3.46,3.46,0,0,0,3.32,3.47Zm-.86-7V33.61H52.18v1.76Zm32.05,7V74.52A3.48,3.48,0,0,0,66.52,78v5.33H54.7V78a3.57,3.57,0,0,0-3.37-3.47V42.36a3.53,3.53,0,0,0,3.37-3.47v-5H66.52v5a3.48,3.48,0,0,0,3.32,3.47Zm-.8-7V33.61H83.43v1.76ZM83.43,81.26v1.91H69V81.26Zm-31.25,0v1.91H37.79V81.26ZM39.86,39.9H38.8a1,1,0,0,1-1-1V38H52.18v.95a1,1,0,0,1-1,1Zm9,2.51V74.52H41.11V42.41ZM39.86,77H51.18a1,1,0,0,1,1,1v.9H37.79V78a1,1,0,0,1,1-1ZM20.94,81.41v1.91H6.55V81.41ZM6.55,38.94V38H20.94v.95a1,1,0,0,1-.81,1H7.5a1,1,0,0,1-1-1Zm11.07,3.47V74.52H10.07V42.41ZM6.55,78a1,1,0,0,1,1-1H20.13a1,1,0,0,1,1,1v.9H6.55Zm79.3,9.06v2.46H4.13V87.1a1.26,1.26,0,0,1,1.1-1.4H84.54a1.31,1.31,0,0,1,1.31,1.25ZM83.43,78v.9H69V78a1,1,0,0,1,.9-1H82.42a1,1,0,0,1,1,1ZM72.36,74.52V42.41h7.75V74.52ZM83.43,38.94a1,1,0,0,1-1,1H70.05a1,1,0,0,1-1-1V38H83.43ZM45,2.81,82.17,22.34H7.8ZM4.13,26.11a1.26,1.26,0,0,1,1.26-1.26h79.2a1.27,1.27,0,0,1,1.26,1.26v3.78a1.26,1.26,0,0,1-1.26,1.25H5.39a1.25,1.25,0,0,1-1.26-1.25Z"/></g></g></svg>