<svg id="Layer_1" data-name="Layer 1" xmlns="http://www.w3.org/2000/svg" xmlns:xlink="http://www.w3.org/1999/xlink" viewBox="0 0 86.08 86.07"><defs><style>.cls-1,.cls-2,.cls-3{fill:#fff;}.cls-1{clip-rule:evenodd;}.cls-3{fill-rule:evenodd;}.cls-4{clip-path:url(#clip-path);}.cls-5{clip-path:url(#clip-path-2);}.cls-6{clip-path:url(#clip-path-3);}.cls-7{clip-path:url(#clip-path-4);}.cls-8{clip-path:url(#clip-path-5);}.cls-9{clip-path:url(#clip-path-6);}.cls-10{clip-path:url(#clip-path-7);}.cls-11{clip-path:url(#clip-path-8);}.cls-12{clip-path:url(#clip-path-9);}.cls-13{clip-path:url(#clip-path-10);}.cls-14{clip-path:url(#clip-path-11);}.cls-15{clip-path:url(#clip-path-12);}.cls-16{clip-path:url(#clip-path-13);}.cls-17{clip-path:url(#clip-path-14);}.cls-18{clip-path:url(#clip-path-15);}.cls-19{clip-path:url(#clip-path-16);}.cls-20{clip-path:url(#clip-path-17);}.cls-21{clip-path:url(#clip-path-18);}.cls-22{clip-path:url(#clip-path-19);}.cls-23{clip-path:url(#clip-path-20);}.cls-24{clip-path:url(#clip-path-21);}.cls-25{clip-path:url(#clip-path-22);}.cls-26{clip-path:url(#clip-path-23);}</style><clipPath id="clip-path"><path class="cls-1" d="M-432,80.62h15.91V70.68H-432Zm17.9,4H-434a2,2,0,0,1-2-2V68.68a2,2,0,0,1,2-2h19.89a2,2,0,0,1,2,2V82.61A2,2,0,0,1-414.15,84.6Z"/></clipPath><clipPath id="clip-path-2"><path class="cls-1" d="M-442,80.62h35.8V-6.9H-442Zm37.79,4H-444a2,2,0,0,1-2-2V-8.89a2,2,0,0,1,2-2h39.78a2,2,0,0,1,2,2v91.5A2,2,0,0,1-404.21,84.6Z"/></clipPath><clipPath id="clip-path-3"><path class="cls-1" d="M-457.91,80.62H-446V1.06h-11.93Zm13.92,4H-459.9a2,2,0,0,1-2-2V-.93a2,2,0,0,1,2-2H-444a2,2,0,0,1,2,2V82.61A2,2,0,0,1-444,84.6Z"/></clipPath><clipPath id="clip-path-4"><path class="cls-1" d="M-402.22,80.62h11.93V1.06h-11.93Zm13.93,4h-15.92a2,2,0,0,1-2-2V-.93a2,2,0,0,1,2-2h15.92a2,2,0,0,1,2,2V82.61A2,2,0,0,1-388.29,84.6Z"/></clipPath><clipPath id="clip-path-5"><rect class="cls-2" x="-475.81" y="40.84" width="3.98" height="19.89" transform="translate(-230.02 -358.66) rotate(-53.11)"/></clipPath><clipPath id="clip-path-6"><rect class="cls-2" x="-483.78" y="48.79" width="19.89" height="3.98" transform="translate(-125.28 -274.19) rotate(-36.88)"/></clipPath><clipPath id="clip-path-7"><rect class="cls-2" x="-376.36" y="40.84" width="3.97" height="19.89" transform="translate(-190.3 -279.14) rotate(-53.12)"/></clipPath><clipPath id="clip-path-8"><rect class="cls-2" x="-384.32" y="48.81" width="19.89" height="3.97" transform="translate(-105.25 -214.36) rotate(-36.85)"/></clipPath><clipPath id="clip-path-9"><path class="cls-1" d="M-616.16,31.15a9.47,9.47,0,0,0-6.65-9,38.52,38.52,0,0,0-4.67-11.27,9.48,9.48,0,0,0-1.68-11.1A9.32,9.32,0,0,0-635.83-3a9.33,9.33,0,0,0-4.42,1.09,38.48,38.48,0,0,0-11.24-4.68,9.45,9.45,0,0,0-9-6.65,9.48,9.48,0,0,0-9,6.65,38.53,38.53,0,0,0-11.23,4.68,9.4,9.4,0,0,0-7.18-.68,1.4,1.4,0,0,0,.83,2.68,6.6,6.6,0,0,1,6.62,1.66,6.65,6.65,0,0,1,0,9.41,6.7,6.7,0,0,1-9.38,0,6.65,6.65,0,0,1-1.45-7.23,1.4,1.4,0,0,0-2.6-1.06,9.44,9.44,0,0,0,.39,8,38.52,38.52,0,0,0-4.67,11.27,9.46,9.46,0,0,0-6.65,9,9.47,9.47,0,0,0,6.65,9,38.57,38.57,0,0,0,4.67,11.26,9.49,9.49,0,0,0,1.67,11.11,9.53,9.53,0,0,0,11.1,1.68,37.85,37.85,0,0,0,4.31,2.29l-4.29,11.62a3.3,3.3,0,0,0,3.06,4.38h34.36a3.29,3.29,0,0,0,3.05-4.38l-4.28-11.62a37.85,37.85,0,0,0,4.31-2.29,9.41,9.41,0,0,0,4.4,1.1,9.77,9.77,0,0,0,2.91-.46,1.41,1.41,0,0,0-.86-2.68,6.6,6.6,0,0,1-6.73-1.62,6.67,6.67,0,0,1,0-9.41,6.7,6.7,0,0,1,9.39,0,6.64,6.64,0,0,1,1.47,7.17,1.41,1.41,0,0,0,2.61,1,9.47,9.47,0,0,0-.42-7.93,38.73,38.73,0,0,0,4.67-11.26A9.47,9.47,0,0,0-616.16,31.15Zm-2.81,0a6.65,6.65,0,0,1-6.64,6.65,6.65,6.65,0,0,1-6.64-6.65,6.66,6.66,0,0,1,6.64-6.66A6.66,6.66,0,0,1-619,31.15Zm-16-1.4h-11.86a13.64,13.64,0,0,0-3-7.31l8.39-8.4A9.54,9.54,0,0,0-634,15.71a31.13,31.13,0,0,1,3.14,7.57A9.45,9.45,0,0,0-634.95,29.75Zm-11.83,34.68c-1.42.53-2.82,1.07-4.29,1.47a9.58,9.58,0,0,0-.38-2.47,33.2,33.2,0,0,0,7.32-3,9.67,9.67,0,0,0,1.47,2A29.16,29.16,0,0,1-646.78,64.43Zm-31.58-2a9.67,9.67,0,0,0,1.47-2,33.64,33.64,0,0,0,7.31,3,9.88,9.88,0,0,0-.37,2.46A35.61,35.61,0,0,1-678.36,62.4ZM-691.71,49a36.1,36.1,0,0,1-3.5-8.42,9.44,9.44,0,0,0,2.46-.38,33.56,33.56,0,0,0,3,7.33A9.81,9.81,0,0,0-691.71,49Zm4.68-2.44A30.42,30.42,0,0,1-690.17,39a9.44,9.44,0,0,0,4.1-6.46h11.85a13.83,13.83,0,0,0,3,7.28l-8.4,8.4A9.58,9.58,0,0,0-687,46.58Zm25.12,10.17a9.38,9.38,0,0,0-6.45,4.11,30.64,30.64,0,0,1-7.57-3.16,9.46,9.46,0,0,0-1.68-7.49l8.4-8.39a13.61,13.61,0,0,0,7.3,3Zm1.4,2.7a6.65,6.65,0,0,1,6.64,6.65,6.65,6.65,0,0,1-6.64,6.65,6.65,6.65,0,0,1-6.64-6.65A6.65,6.65,0,0,1-660.51,59.45Zm15.41-1.75a30.25,30.25,0,0,1-7.55,3.15,9.46,9.46,0,0,0-6.46-4.1V44.85a13.6,13.6,0,0,0,7.29-3l8.4,8.4A9.48,9.48,0,0,0-645.1,57.7Zm-15.41-15.58a11,11,0,0,1-11-11,11,11,0,0,1,11-11,11,11,0,0,1,11,11A11,11,0,0,1-660.51,42.12Zm-9.07-43.26a33.15,33.15,0,0,0-7.31,3.05,9.17,9.17,0,0,0-1.47-2,35.36,35.36,0,0,1,8.41-3.5A10,10,0,0,0-669.58-1.14Zm-6.35,5.74a30.26,30.26,0,0,1,7.57-3.16,9.41,9.41,0,0,0,6.45,4.11V17.44a13.75,13.75,0,0,0-7.29,3l-8.4-8.39A9.46,9.46,0,0,0-675.93,4.6Zm31.8-2.69a33.23,33.23,0,0,0-7.32-3,9.5,9.5,0,0,0,.38-2.46,35.36,35.36,0,0,1,8.41,3.5A9.42,9.42,0,0,0-644.13,1.91Zm-8.52-.47A30.28,30.28,0,0,1-645.1,4.6a9.51,9.51,0,0,0,1.67,7.46l-8.41,8.4a13.58,13.58,0,0,0-7.27-3V5.55A9.48,9.48,0,0,0-652.65,1.44Zm23.34,11.83a35.07,35.07,0,0,1,3.49,8.43,8.65,8.65,0,0,0-2.45.38,33.84,33.84,0,0,0-3-7.34A9.45,9.45,0,0,0-629.31,13.27Zm-1.83-11.54a6.67,6.67,0,0,1,0,9.41,6.71,6.71,0,0,1-9.39,0,6.75,6.75,0,0,1,0-9.41A6.7,6.7,0,0,1-631.14,1.73Zm-29.37-12.19a6.66,6.66,0,0,1,6.64,6.66,6.66,6.66,0,0,1-6.64,6.65,6.66,6.66,0,0,1-6.64-6.65A6.58,6.58,0,0,1-667-5a2.06,2.06,0,0,0,.07-.32A6.64,6.64,0,0,1-660.51-10.46Zm-19.08,24.51,8.41,8.4a13.81,13.81,0,0,0-3,7.3h-11.85a9.48,9.48,0,0,0-4.1-6.47A30.74,30.74,0,0,1-687,15.71,9.52,9.52,0,0,0-679.59,14.05Zm-10.12.69a33.84,33.84,0,0,0-3,7.34,8.65,8.65,0,0,0-2.45-.38,35.9,35.9,0,0,1,3.49-8.43A9.81,9.81,0,0,0-689.71,14.74ZM-702,31.15a6.74,6.74,0,0,1,6.64-6.66,6.66,6.66,0,0,1,6.64,6.66,6.65,6.65,0,0,1-6.64,6.65A6.65,6.65,0,0,1-702,31.15Zm16.86,31.37a6.61,6.61,0,0,1-4.69-2,6.67,6.67,0,0,1,0-9.41,6.69,6.69,0,0,1,9.38,0,6.65,6.65,0,0,1,0,9.41A6.73,6.73,0,0,1-685.19,62.52Zm42.28,16.59a.44.44,0,0,1-.42.6h-34.36a.45.45,0,0,1-.43-.6l4.26-11.52a37.75,37.75,0,0,0,4.32,1.31,9.49,9.49,0,0,0,9,6.66,9.46,9.46,0,0,0,9-6.66,37.91,37.91,0,0,0,4.33-1.31Zm1.48-30.87-8.4-8.4a13.6,13.6,0,0,0,3-7.29h11.86a9.41,9.41,0,0,0,4.1,6.46A30.45,30.45,0,0,1-634,46.58a9.23,9.23,0,0,0-1.83-.17A9.36,9.36,0,0,0-641.43,48.24Zm10.12-.69a33.56,33.56,0,0,0,3-7.33,9.43,9.43,0,0,0,2.45.38A34.83,34.83,0,0,1-629.31,49,10.09,10.09,0,0,0-631.31,47.55Z"/></clipPath><clipPath id="clip-path-10"><path class="cls-2" d="M-937,85.07h-74.57a2.57,2.57,0,0,1-2.54-2.6V77a2.58,2.58,0,0,1,2.54-2.6H-983a6.67,6.67,0,0,1-.67-2.08,6.76,6.76,0,0,1,1.41-5.3l.92-1.13a7.13,7.13,0,0,0,1.46-5.57l-.39-2.43h-11.24a6,6,0,0,1-5.89-6.15.94.94,0,0,0-.38-.78l-2.37-1.67a2.66,2.66,0,0,1-1-2.9,2.55,2.55,0,0,1,2.44-1.86h19.32V41.63h-6.47a6,6,0,0,1-5.88-6.15,1,1,0,0,0-.39-.79L-994.55,33a2.65,2.65,0,0,1-1-2.89,2.55,2.55,0,0,1,2.44-1.87h13.67V26.79a10.17,10.17,0,0,0-5.71-9.28l-.72-.34V14.68h23.07v2.49l-.72.34a10.17,10.17,0,0,0-5.71,9.28v1.47h13.67a2.55,2.55,0,0,1,2.44,1.88,2.63,2.63,0,0,1-1,2.88l-2.37,1.67a1,1,0,0,0-.39.79,6,6,0,0,1-5.88,6.15h-6.47v2.93h19.32a2.57,2.57,0,0,1,2.44,1.87,2.64,2.64,0,0,1-1,2.89L-950.84,51a1,1,0,0,0-.39.78,6,6,0,0,1-5.89,6.15h-11.24l-.38,2.43a7.08,7.08,0,0,0,1.46,5.57l.92,1.13a6.8,6.8,0,0,1,1.41,5.3,6.52,6.52,0,0,1-.68,2.08H-937a2.57,2.57,0,0,1,2.53,2.6v5.44A2.56,2.56,0,0,1-937,85.07Zm-74.57-8.14a.15.15,0,0,0,0,.1v5.44a.2.2,0,0,0,0,.11H-937a.14.14,0,0,0,0-.1V77a.14.14,0,0,0,0-.1h-35.07l3.1-2.26a4.11,4.11,0,0,0,1.6-2.7,4.29,4.29,0,0,0-.88-3.35l-.92-1.12a9.58,9.58,0,0,1-2-7.54l.72-4.54h13.37a3.53,3.53,0,0,0,3.39-3.65,3.44,3.44,0,0,1,1.46-2.83l2.35-1.67a.14.14,0,0,0,0-.15l-21.85-.06V39.13h9a3.53,3.53,0,0,0,3.38-3.65,3.46,3.46,0,0,1,1.45-2.84l2.37-1.66a.17.17,0,0,0,0-.15l-16.2-.07v-4a13,13,0,0,1,4.22-9.61h-13.65a13,13,0,0,1,4.22,9.61v4h-16.17c0,.13,0,.2,0,.22l2.36,1.66a3.49,3.49,0,0,1,1.45,2.84,3.53,3.53,0,0,0,3.38,3.65h9v7.93h-21.82c0,.13,0,.2,0,.22l2.36,1.66a3.45,3.45,0,0,1,1.44,2.83,3.53,3.53,0,0,0,3.39,3.65h13.38l.72,4.54a9.64,9.64,0,0,1-2,7.54l-.92,1.13a4.22,4.22,0,0,0-.88,3.34,4.07,4.07,0,0,0,1.6,2.7l3.07,2.26Z"/></clipPath><clipPath id="clip-path-11"><path class="cls-1" d="M-1006.72,43.85A2.82,2.82,0,0,1-1003.9,41a5.62,5.62,0,0,0,5.62-5.62v-7a2.82,2.82,0,0,1,2.82-2.82H-987V22.74h-8.45a5.64,5.64,0,0,0-5.63,5.63v7a2.83,2.83,0,0,1-2.81,2.81,5.64,5.64,0,0,0-5.64,5.63V63.57h2.82Z"/></clipPath><clipPath id="clip-path-12"><path class="cls-2" d="M-974.33,12.26a2.15,2.15,0,0,1-1.86-1l-3.2-5.33a2.15,2.15,0,0,1,.33-2.64l3.19-3.2a2.21,2.21,0,0,1,3.06,0l3.2,3.2a2.15,2.15,0,0,1,.33,2.64l-3.2,5.33A2.17,2.17,0,0,1-974.33,12.26Zm0-2.18Zm-.05-8.48-3.15,3.2,3.17,5.23,3.17-5.28Z"/></clipPath><clipPath id="clip-path-13"><path class="cls-1" d="M-961.66,22.73v2.82h8.44a2.81,2.81,0,0,1,2.82,2.81v7A5.64,5.64,0,0,0-944.77,41a2.82,2.82,0,0,1,2.82,2.81V63.57h2.81V43.85a5.64,5.64,0,0,0-5.63-5.63,2.81,2.81,0,0,1-2.81-2.82v-7a5.64,5.64,0,0,0-5.64-5.63Z"/></clipPath><clipPath id="clip-path-14"><path class="cls-1" d="M-956,12.88h2.81a8.45,8.45,0,0,0-8.44-8.45h-2.82V7.25h2.82A5.64,5.64,0,0,1-956,12.88"/></clipPath><clipPath id="clip-path-15"><path class="cls-1" d="M-987,7.24h2.82V4.43H-987a8.46,8.46,0,0,0-8.45,8.44h2.82A5.64,5.64,0,0,1-987,7.24"/></clipPath><clipPath id="clip-path-16"><path class="cls-1" d="M-507.17,71.76a4.36,4.36,0,0,1-3.1,1.26,4.37,4.37,0,0,1-3.11-1.26,7.5,7.5,0,0,0-5-1.9,7.43,7.43,0,0,0-5,1.9A4.39,4.39,0,0,1-526.56,73a4.36,4.36,0,0,1-3.1-1.26,7.47,7.47,0,0,0-5-1.9,7.45,7.45,0,0,0-5,1.9A4.39,4.39,0,0,1-542.83,73a4,4,0,0,1-1.81-.38V30.5h22v3.15h3.15V30.5h1.58a3.15,3.15,0,0,0,3.15-3.14V24.2a3.16,3.16,0,0,0-3.15-3.15H-518A29.9,29.9,0,0,0-546.21-7.21V-8.86a4.74,4.74,0,0,0-4.73-4.73,4.73,4.73,0,0,0-4.72,4.73v1.65a29.91,29.91,0,0,0-28.26,28.26H-584a3.16,3.16,0,0,0-3.15,3.15v3.16A3.15,3.15,0,0,0-584,30.5h1.57v3.15h3.15V30.5h22V72.6a3.88,3.88,0,0,1-1.86.42,4.34,4.34,0,0,1-3.1-1.26,7.47,7.47,0,0,0-5-1.9,7.48,7.48,0,0,0-5,1.9,4.34,4.34,0,0,1-3.1,1.26,4.37,4.37,0,0,1-3.09-1.25,7.42,7.42,0,0,0-5-1.91,7.45,7.45,0,0,0-5,1.9A4.39,4.39,0,0,1-591.63,73a4.34,4.34,0,0,1-3.09-1.26,7.45,7.45,0,0,0-5-1.9V73a4.39,4.39,0,0,1,3.1,1.24,7.46,7.46,0,0,0,5,1.9,7.38,7.38,0,0,0,5-1.9A4.43,4.43,0,0,1-583.49,73a4.41,4.41,0,0,1,3.1,1.24,7.37,7.37,0,0,0,5,1.9,7.38,7.38,0,0,0,5-1.9A4.42,4.42,0,0,1-567.23,73a4.41,4.41,0,0,1,3.1,1.24,7.4,7.4,0,0,0,5,1.9,7.42,7.42,0,0,0,5-1.9A4.42,4.42,0,0,1-551,73a4.39,4.39,0,0,1,3.1,1.24,7.42,7.42,0,0,0,5,1.9,7.4,7.4,0,0,0,5-1.9A4.42,4.42,0,0,1-534.69,73a4.39,4.39,0,0,1,3.1,1.24,7.42,7.42,0,0,0,5,1.9,7.45,7.45,0,0,0,5-1.9,4.37,4.37,0,0,1,3.1-1.24,4.4,4.4,0,0,1,3.11,1.24,7.43,7.43,0,0,0,5,1.9,7.42,7.42,0,0,0,5-1.9A4.42,4.42,0,0,1-502.13,73V69.86A7.5,7.5,0,0,0-507.17,71.76Zm-43.77-82.19a1.57,1.57,0,0,1,1.57,1.57v1.57h-3.14V-8.86A1.57,1.57,0,0,1-550.94-10.43Zm-4.32,6.35a37.09,37.09,0,0,0-8.33,11.91l2.88,1.26a33.91,33.91,0,0,1,9.77-12.78,33.55,33.55,0,0,1,12.55,24.74h-25.08a33.69,33.69,0,0,1,1.61-9l-3-1a37,37,0,0,0-1.77,9.93h-14.16A26.77,26.77,0,0,1-555.26-4.08ZM-584,24.2h53.53V21.05h-4.77A36.67,36.67,0,0,0-546.6-4.08a26.77,26.77,0,0,1,25.5,25.13h-6.22V24.2h9.45v3.16H-584Zm33,45.66a7,7,0,0,0-3.13.67v-40h6.3V70.55A7,7,0,0,0-551,69.86Z"/></clipPath><clipPath id="clip-path-17"><path class="cls-1" d="M-510.27,80.89a4.4,4.4,0,0,1-3.11-1.25,7.43,7.43,0,0,0-5-1.91,7.38,7.38,0,0,0-5,1.91,4.42,4.42,0,0,1-3.11,1.25,4.44,4.44,0,0,1-3.11-1.25,7.37,7.37,0,0,0-5-1.91,7.45,7.45,0,0,0-5,1.91,4.38,4.38,0,0,1-3.1,1.25,4.4,4.4,0,0,1-3.1-1.25,7.43,7.43,0,0,0-5-1.91,7.45,7.45,0,0,0-5,1.91,4.4,4.4,0,0,1-3.1,1.25,4.4,4.4,0,0,1-3.1-1.25,7.42,7.42,0,0,0-5-1.91,7.43,7.43,0,0,0-5,1.91,4.37,4.37,0,0,1-3.09,1.25,4.38,4.38,0,0,1-3.1-1.25,7.42,7.42,0,0,0-5-1.91,7.38,7.38,0,0,0-5,1.91,4.4,4.4,0,0,1-3.1,1.25,4.38,4.38,0,0,1-3.1-1.25,7.42,7.42,0,0,0-5-1.91v3.16a4.37,4.37,0,0,1,3.1,1.24,7.42,7.42,0,0,0,5,1.91,7.42,7.42,0,0,0,5-1.91,4.39,4.39,0,0,1,3.1-1.24,4.39,4.39,0,0,1,3.1,1.24,7.38,7.38,0,0,0,5,1.91,7.39,7.39,0,0,0,5-1.91,4.43,4.43,0,0,1,3.11-1.24,4.39,4.39,0,0,1,3.1,1.24,7.4,7.4,0,0,0,5,1.91,7.4,7.4,0,0,0,5-1.91,4.39,4.39,0,0,1,3.1-1.24,4.42,4.42,0,0,1,3.11,1.24,7.42,7.42,0,0,0,5,1.91,7.45,7.45,0,0,0,5-1.91,4.37,4.37,0,0,1,3.1-1.24,4.39,4.39,0,0,1,3.1,1.24,7.42,7.42,0,0,0,5,1.91,7.42,7.42,0,0,0,5-1.91,4.4,4.4,0,0,1,3.11-1.24,4.42,4.42,0,0,1,3.11,1.24,7.43,7.43,0,0,0,5,1.91,7.42,7.42,0,0,0,5-1.91,4.42,4.42,0,0,1,3.11-1.24V77.73a7.4,7.4,0,0,0-5,1.91,4.44,4.44,0,0,1-3.11,1.25"/></clipPath><clipPath id="clip-path-18"><path class="cls-1" d="M-541.49,62a4.73,4.73,0,0,0,4.72,4.73A4.74,4.74,0,0,0-532,62V58.84h-3.16V62a1.57,1.57,0,0,1-1.57,1.57A1.57,1.57,0,0,1-538.34,62V40h-3.15Z"/></clipPath><clipPath id="clip-path-19"><path class="cls-1" d="M-519.45,51V43.1h-3.15V51a1.58,1.58,0,0,1-1.57,1.58A1.59,1.59,0,0,1-525.75,51V38.37a4.72,4.72,0,0,0-4.72-4.72,4.74,4.74,0,0,0-4.73,4.72V43.1H-532V38.37a1.57,1.57,0,0,1,1.57-1.57,1.57,1.57,0,0,1,1.57,1.57V51a4.73,4.73,0,0,0,4.73,4.72A4.72,4.72,0,0,0-519.45,51"/></clipPath><clipPath id="clip-path-20"><path class="cls-1" d="M-563.53,62a1.57,1.57,0,0,1-1.58,1.57A1.57,1.57,0,0,1-566.69,62V58.84h-3.14V62a4.73,4.73,0,0,0,4.72,4.73A4.73,4.73,0,0,0-560.39,62V40h-3.14Z"/></clipPath><clipPath id="clip-path-21"><path class="cls-1" d="M-582.43,51a4.72,4.72,0,0,0,4.73,4.72A4.72,4.72,0,0,0-573,51V38.37a1.57,1.57,0,0,1,1.57-1.57,1.58,1.58,0,0,1,1.58,1.57V43.1h3.15V38.37a4.73,4.73,0,0,0-4.73-4.72,4.73,4.73,0,0,0-4.72,4.72V51a1.59,1.59,0,0,1-1.57,1.58A1.59,1.59,0,0,1-579.28,51V43.1h-3.15Z"/></clipPath><clipPath id="clip-path-22"><path class="cls-1" d="M-591.87,62a17.82,17.82,0,0,1,5.64.92l5,1.65-2.65-6.64a8.52,8.52,0,0,0-7.94-5.38,4.74,4.74,0,0,0-4.73,4.73A4.73,4.73,0,0,0-591.87,62m0-6.3a5.37,5.37,0,0,1,5,3.4l.16.4a20.92,20.92,0,0,0-5.17-.64,1.59,1.59,0,0,1-1.58-1.58,1.58,1.58,0,0,1,1.58-1.58"/></clipPath><clipPath id="clip-path-23"><path class="cls-1" d="M-517.94,57.92l-2.66,6.64,5-1.65A17.73,17.73,0,0,1-510,62a4.73,4.73,0,0,0,4.72-4.72A4.73,4.73,0,0,0-510,52.55,8.5,8.5,0,0,0-517.94,57.92Zm2.92,1.17a5.37,5.37,0,0,1,5-3.4,1.57,1.57,0,0,1,1.57,1.58A1.57,1.57,0,0,1-510,58.84a21,21,0,0,0-5.18.65Z"/></clipPath></defs><path class="cls-3" d="M-432,80.62h15.91V70.68H-432Zm17.9,4H-434a2,2,0,0,1-2-2V68.68a2,2,0,0,1,2-2h19.89a2,2,0,0,1,2,2V82.61A2,2,0,0,1-414.15,84.6Z"/><g class="cls-4"><rect class="cls-2" x="-1700.59" y="-3712.03" width="5804.01" height="4970.61"/></g><path class="cls-3" d="M-442,80.62h35.8V-6.9H-442Zm37.79,4H-444a2,2,0,0,1-2-2V-8.89a2,2,0,0,1,2-2h39.78a2,2,0,0,1,2,2v91.5A2,2,0,0,1-404.21,84.6Z"/><g class="cls-5"><rect class="cls-2" x="-1700.59" y="-3712.03" width="5804.01" height="4964.66"/></g><path class="cls-3" d="M-457.91,80.62H-446V1.06h-11.93Zm13.92,4H-459.9a2,2,0,0,1-2-2V-.93a2,2,0,0,1,2-2H-444a2,2,0,0,1,2,2V82.61A2,2,0,0,1-444,84.6Z"/><g class="cls-6"><rect class="cls-2" x="-1700.59" y="-3712.03" width="5804.01" height="4964.66"/></g><path class="cls-3" d="M-402.22,80.62h11.93V1.06h-11.93Zm13.93,4h-15.92a2,2,0,0,1-2-2V-.93a2,2,0,0,1,2-2h15.92a2,2,0,0,1,2,2V82.61A2,2,0,0,1-388.29,84.6Z"/><g class="cls-7"><rect class="cls-2" x="-1700.59" y="-3712.03" width="5804.01" height="4964.66"/></g><rect class="cls-2" x="-475.81" y="40.84" width="3.98" height="19.89" transform="translate(-230.02 -358.66) rotate(-53.11)"/><g class="cls-8"><rect class="cls-2" x="-1700.59" y="-3712.03" width="5804.01" height="4964.66"/></g><rect class="cls-2" x="-483.78" y="48.79" width="19.89" height="3.98" transform="translate(-125.28 -274.19) rotate(-36.88)"/><g class="cls-9"><rect class="cls-2" x="-1700.59" y="-3712.03" width="5804.01" height="4964.66"/></g><rect class="cls-2" x="-376.36" y="40.84" width="3.97" height="19.89" transform="translate(-190.3 -279.14) rotate(-53.12)"/><g class="cls-10"><rect class="cls-2" x="-1700.59" y="-3712.03" width="5804.01" height="4964.66"/></g><rect class="cls-2" x="-384.32" y="48.81" width="19.89" height="3.97" transform="translate(-105.25 -214.36) rotate(-36.85)"/><g class="cls-11"><rect class="cls-2" x="-1700.59" y="-3712.03" width="5804.01" height="4964.66"/></g><path class="cls-3" d="M-616.16,31.15a9.47,9.47,0,0,0-6.65-9,38.52,38.52,0,0,0-4.67-11.27,9.48,9.48,0,0,0-1.68-11.1A9.32,9.32,0,0,0-635.83-3a9.33,9.33,0,0,0-4.42,1.09,38.48,38.48,0,0,0-11.24-4.68,9.45,9.45,0,0,0-9-6.65,9.48,9.48,0,0,0-9,6.65,38.53,38.53,0,0,0-11.23,4.68,9.4,9.4,0,0,0-7.18-.68,1.4,1.4,0,0,0,.83,2.68,6.6,6.6,0,0,1,6.62,1.66,6.65,6.65,0,0,1,0,9.41,6.7,6.7,0,0,1-9.38,0,6.65,6.65,0,0,1-1.45-7.23,1.4,1.4,0,0,0-2.6-1.06,9.44,9.44,0,0,0,.39,8,38.52,38.52,0,0,0-4.67,11.27,9.46,9.46,0,0,0-6.65,9,9.47,9.47,0,0,0,6.65,9,38.57,38.57,0,0,0,4.67,11.26,9.49,9.49,0,0,0,1.67,11.11,9.53,9.53,0,0,0,11.1,1.68,37.85,37.85,0,0,0,4.31,2.29l-4.29,11.62a3.3,3.3,0,0,0,3.06,4.38h34.36a3.29,3.29,0,0,0,3.05-4.38l-4.28-11.62a37.85,37.85,0,0,0,4.31-2.29,9.41,9.41,0,0,0,4.4,1.1,9.77,9.77,0,0,0,2.91-.46,1.41,1.41,0,0,0-.86-2.68,6.6,6.6,0,0,1-6.73-1.62,6.67,6.67,0,0,1,0-9.41,6.7,6.7,0,0,1,9.39,0,6.64,6.64,0,0,1,1.47,7.17,1.41,1.41,0,0,0,2.61,1,9.47,9.47,0,0,0-.42-7.93,38.73,38.73,0,0,0,4.67-11.26A9.47,9.47,0,0,0-616.16,31.15Zm-2.81,0a6.65,6.65,0,0,1-6.64,6.65,6.65,6.65,0,0,1-6.64-6.65,6.66,6.66,0,0,1,6.64-6.66A6.66,6.66,0,0,1-619,31.15Zm-16-1.4h-11.86a13.64,13.64,0,0,0-3-7.31l8.39-8.4A9.54,9.54,0,0,0-634,15.71a31.13,31.13,0,0,1,3.14,7.57A9.45,9.45,0,0,0-634.95,29.75Zm-11.83,34.68c-1.42.53-2.82,1.07-4.29,1.47a9.58,9.58,0,0,0-.38-2.47,33.2,33.2,0,0,0,7.32-3,9.67,9.67,0,0,0,1.47,2A29.16,29.16,0,0,1-646.78,64.43Zm-31.58-2a9.67,9.67,0,0,0,1.47-2,33.64,33.64,0,0,0,7.31,3,9.88,9.88,0,0,0-.37,2.46A35.61,35.61,0,0,1-678.36,62.4ZM-691.71,49a36.1,36.1,0,0,1-3.5-8.42,9.44,9.44,0,0,0,2.46-.38,33.56,33.56,0,0,0,3,7.33A9.81,9.81,0,0,0-691.71,49Zm4.68-2.44A30.42,30.42,0,0,1-690.17,39a9.44,9.44,0,0,0,4.1-6.46h11.85a13.83,13.83,0,0,0,3,7.28l-8.4,8.4A9.58,9.58,0,0,0-687,46.58Zm25.12,10.17a9.38,9.38,0,0,0-6.45,4.11,30.64,30.64,0,0,1-7.57-3.16,9.46,9.46,0,0,0-1.68-7.49l8.4-8.39a13.61,13.61,0,0,0,7.3,3Zm1.4,2.7a6.65,6.65,0,0,1,6.64,6.65,6.65,6.65,0,0,1-6.64,6.65,6.65,6.65,0,0,1-6.64-6.65A6.65,6.65,0,0,1-660.51,59.45Zm15.41-1.75a30.25,30.25,0,0,1-7.55,3.15,9.46,9.46,0,0,0-6.46-4.1V44.85a13.6,13.6,0,0,0,7.29-3l8.4,8.4A9.48,9.48,0,0,0-645.1,57.7Zm-15.41-15.58a11,11,0,0,1-11-11,11,11,0,0,1,11-11,11,11,0,0,1,11,11A11,11,0,0,1-660.51,42.12Zm-9.07-43.26a33.15,33.15,0,0,0-7.31,3.05,9.17,9.17,0,0,0-1.47-2,35.36,35.36,0,0,1,8.41-3.5A10,10,0,0,0-669.58-1.14Zm-6.35,5.74a30.26,30.26,0,0,1,7.57-3.16,9.41,9.41,0,0,0,6.45,4.11V17.44a13.75,13.75,0,0,0-7.29,3l-8.4-8.39A9.46,9.46,0,0,0-675.93,4.6Zm31.8-2.69a33.23,33.23,0,0,0-7.32-3,9.5,9.5,0,0,0,.38-2.46,35.36,35.36,0,0,1,8.41,3.5A9.42,9.42,0,0,0-644.13,1.91Zm-8.52-.47A30.28,30.28,0,0,1-645.1,4.6a9.51,9.51,0,0,0,1.67,7.46l-8.41,8.4a13.58,13.58,0,0,0-7.27-3V5.55A9.48,9.48,0,0,0-652.65,1.44Zm23.34,11.83a35.07,35.07,0,0,1,3.49,8.43,8.65,8.65,0,0,0-2.45.38,33.84,33.84,0,0,0-3-7.34A9.45,9.45,0,0,0-629.31,13.27Zm-1.83-11.54a6.67,6.67,0,0,1,0,9.41,6.71,6.71,0,0,1-9.39,0,6.75,6.75,0,0,1,0-9.41A6.7,6.7,0,0,1-631.14,1.73Zm-29.37-12.19a6.66,6.66,0,0,1,6.64,6.66,6.66,6.66,0,0,1-6.64,6.65,6.66,6.66,0,0,1-6.64-6.65A6.58,6.58,0,0,1-667-5a2.06,2.06,0,0,0,.07-.32A6.64,6.64,0,0,1-660.51-10.46Zm-19.08,24.51,8.41,8.4a13.81,13.81,0,0,0-3,7.3h-11.85a9.48,9.48,0,0,0-4.1-6.47A30.74,30.74,0,0,1-687,15.71,9.52,9.52,0,0,0-679.59,14.05Zm-10.12.69a33.84,33.84,0,0,0-3,7.34,8.65,8.65,0,0,0-2.45-.38,35.9,35.9,0,0,1,3.49-8.43A9.81,9.81,0,0,0-689.71,14.74ZM-702,31.15a6.74,6.74,0,0,1,6.64-6.66,6.66,6.66,0,0,1,6.64,6.66,6.65,6.65,0,0,1-6.64,6.65A6.65,6.65,0,0,1-702,31.15Zm16.86,31.37a6.61,6.61,0,0,1-4.69-2,6.67,6.67,0,0,1,0-9.41,6.69,6.69,0,0,1,9.38,0,6.65,6.65,0,0,1,0,9.41A6.73,6.73,0,0,1-685.19,62.52Zm42.28,16.59a.44.44,0,0,1-.42.6h-34.36a.45.45,0,0,1-.43-.6l4.26-11.52a37.75,37.75,0,0,0,4.32,1.31,9.49,9.49,0,0,0,9,6.66,9.46,9.46,0,0,0,9-6.66,37.91,37.91,0,0,0,4.33-1.31Zm1.48-30.87-8.4-8.4a13.6,13.6,0,0,0,3-7.29h11.86a9.41,9.41,0,0,0,4.1,6.46A30.45,30.45,0,0,1-634,46.58a9.23,9.23,0,0,0-1.83-.17A9.36,9.36,0,0,0-641.43,48.24Zm10.12-.69a33.56,33.56,0,0,0,3-7.33,9.43,9.43,0,0,0,2.45.38A34.83,34.83,0,0,1-629.31,49,10.09,10.09,0,0,0-631.31,47.55Z"/><g class="cls-12"><rect class="cls-2" x="-5224.83" y="-2228.62" width="5391.41" height="4611.73"/></g><path class="cls-2" d="M-937,85.07h-74.57a2.57,2.57,0,0,1-2.54-2.6V77a2.58,2.58,0,0,1,2.54-2.6H-983a6.67,6.67,0,0,1-.67-2.08,6.76,6.76,0,0,1,1.41-5.3l.92-1.13a7.13,7.13,0,0,0,1.46-5.57l-.39-2.43h-11.24a6,6,0,0,1-5.89-6.15.94.94,0,0,0-.38-.78l-2.37-1.67a2.66,2.66,0,0,1-1-2.9,2.55,2.55,0,0,1,2.44-1.86h19.32V41.63h-6.47a6,6,0,0,1-5.88-6.15,1,1,0,0,0-.39-.79L-994.55,33a2.65,2.65,0,0,1-1-2.89,2.55,2.55,0,0,1,2.44-1.87h13.67V26.79a10.17,10.17,0,0,0-5.71-9.28l-.72-.34V14.68h23.07v2.49l-.72.34a10.17,10.17,0,0,0-5.71,9.28v1.47h13.67a2.55,2.55,0,0,1,2.44,1.88,2.63,2.63,0,0,1-1,2.88l-2.37,1.67a1,1,0,0,0-.39.79,6,6,0,0,1-5.88,6.15h-6.47v2.93h19.32a2.57,2.57,0,0,1,2.44,1.87,2.64,2.64,0,0,1-1,2.89L-950.84,51a1,1,0,0,0-.39.78,6,6,0,0,1-5.89,6.15h-11.24l-.38,2.43a7.08,7.08,0,0,0,1.46,5.57l.92,1.13a6.8,6.8,0,0,1,1.41,5.3,6.52,6.52,0,0,1-.68,2.08H-937a2.57,2.57,0,0,1,2.53,2.6v5.44A2.56,2.56,0,0,1-937,85.07Zm-74.57-8.14a.15.15,0,0,0,0,.1v5.44a.2.2,0,0,0,0,.11H-937a.14.14,0,0,0,0-.1V77a.14.14,0,0,0,0-.1h-35.07l3.1-2.26a4.11,4.11,0,0,0,1.6-2.7,4.29,4.29,0,0,0-.88-3.35l-.92-1.12a9.58,9.58,0,0,1-2-7.54l.72-4.54h13.37a3.53,3.53,0,0,0,3.39-3.65,3.44,3.44,0,0,1,1.46-2.83l2.35-1.67a.14.14,0,0,0,0-.15l-21.85-.06V39.13h9a3.53,3.53,0,0,0,3.38-3.65,3.46,3.46,0,0,1,1.45-2.84l2.37-1.66a.17.17,0,0,0,0-.15l-16.2-.07v-4a13,13,0,0,1,4.22-9.61h-13.65a13,13,0,0,1,4.22,9.61v4h-16.17c0,.13,0,.2,0,.22l2.36,1.66a3.49,3.49,0,0,1,1.45,2.84,3.53,3.53,0,0,0,3.38,3.65h9v7.93h-21.82c0,.13,0,.2,0,.22l2.36,1.66a3.45,3.45,0,0,1,1.44,2.83,3.53,3.53,0,0,0,3.39,3.65h13.38l.72,4.54a9.64,9.64,0,0,1-2,7.54l-.92,1.13a4.22,4.22,0,0,0-.88,3.34,4.07,4.07,0,0,0,1.6,2.7l3.07,2.26Z"/><g class="cls-13"><path class="cls-2" d="M1448.59,1869H-3428.75V-2537.3H1448.59Zm-4874.34-3H1445.59V-2534.3H-3425.75Z"/></g><path class="cls-3" d="M-1006.72,43.85A2.82,2.82,0,0,1-1003.9,41a5.62,5.62,0,0,0,5.62-5.62v-7a2.82,2.82,0,0,1,2.82-2.82H-987V22.74h-8.45a5.64,5.64,0,0,0-5.63,5.63v7a2.83,2.83,0,0,1-2.81,2.81,5.64,5.64,0,0,0-5.64,5.63V63.57h2.82Z"/><g class="cls-14"><rect class="cls-2" x="-3660.58" y="-2633.2" width="5338.01" height="4566.05"/></g><path class="cls-2" d="M-974.33,12.26a2.15,2.15,0,0,1-1.86-1l-3.2-5.33a2.15,2.15,0,0,1,.33-2.64l3.19-3.2a2.21,2.21,0,0,1,3.06,0l3.2,3.2a2.15,2.15,0,0,1,.33,2.64l-3.2,5.33A2.17,2.17,0,0,1-974.33,12.26Zm0-2.18Zm-.05-8.48-3.15,3.2,3.17,5.23,3.17-5.28Z"/><g class="cls-15"><path class="cls-2" d="M1032.78,1464.69H-3007.54V-1991.65H1032.78Zm-4038.12-2.2H1030.58V-1989.45H-3005.34Z"/></g><path class="cls-3" d="M-961.66,22.73v2.82h8.44a2.81,2.81,0,0,1,2.82,2.81v7A5.64,5.64,0,0,0-944.77,41a2.82,2.82,0,0,1,2.82,2.81V63.57h2.81V43.85a5.64,5.64,0,0,0-5.63-5.63,2.81,2.81,0,0,1-2.81-2.82v-7a5.64,5.64,0,0,0-5.64-5.63Z"/><g class="cls-16"><rect class="cls-2" x="-3660.58" y="-2633.2" width="5338.01" height="4566.05"/></g><path class="cls-3" d="M-956,12.88h2.81a8.45,8.45,0,0,0-8.44-8.45h-2.82V7.25h2.82A5.64,5.64,0,0,1-956,12.88"/><g class="cls-17"><rect class="cls-2" x="-3660.58" y="-2633.2" width="5338.01" height="4566.05"/></g><path class="cls-3" d="M-987,7.24h2.82V4.43H-987a8.46,8.46,0,0,0-8.45,8.44h2.82A5.64,5.64,0,0,1-987,7.24"/><g class="cls-18"><rect class="cls-2" x="-3660.58" y="-2633.2" width="5338.01" height="4566.05"/></g><path class="cls-3" d="M-507.17,71.76a4.36,4.36,0,0,1-3.1,1.26,4.37,4.37,0,0,1-3.11-1.26,7.5,7.5,0,0,0-5-1.9,7.43,7.43,0,0,0-5,1.9A4.39,4.39,0,0,1-526.56,73a4.36,4.36,0,0,1-3.1-1.26,7.47,7.47,0,0,0-5-1.9,7.45,7.45,0,0,0-5,1.9A4.39,4.39,0,0,1-542.83,73a4,4,0,0,1-1.81-.38V30.5h22v3.15h3.15V30.5h1.58a3.15,3.15,0,0,0,3.15-3.14V24.2a3.16,3.16,0,0,0-3.15-3.15H-518A29.9,29.9,0,0,0-546.21-7.21V-8.86a4.74,4.74,0,0,0-4.73-4.73,4.73,4.73,0,0,0-4.72,4.73v1.65a29.91,29.91,0,0,0-28.26,28.26H-584a3.16,3.16,0,0,0-3.15,3.15v3.16A3.15,3.15,0,0,0-584,30.5h1.57v3.15h3.15V30.5h22V72.6a3.88,3.88,0,0,1-1.86.42,4.34,4.34,0,0,1-3.1-1.26,7.47,7.47,0,0,0-5-1.9,7.48,7.48,0,0,0-5,1.9,4.34,4.34,0,0,1-3.1,1.26,4.37,4.37,0,0,1-3.09-1.25,7.42,7.42,0,0,0-5-1.91,7.45,7.45,0,0,0-5,1.9A4.39,4.39,0,0,1-591.63,73a4.34,4.34,0,0,1-3.09-1.26,7.45,7.45,0,0,0-5-1.9V73a4.39,4.39,0,0,1,3.1,1.24,7.46,7.46,0,0,0,5,1.9,7.38,7.38,0,0,0,5-1.9A4.43,4.43,0,0,1-583.49,73a4.41,4.41,0,0,1,3.1,1.24,7.37,7.37,0,0,0,5,1.9,7.38,7.38,0,0,0,5-1.9A4.42,4.42,0,0,1-567.23,73a4.41,4.41,0,0,1,3.1,1.24,7.4,7.4,0,0,0,5,1.9,7.42,7.42,0,0,0,5-1.9A4.42,4.42,0,0,1-551,73a4.39,4.39,0,0,1,3.1,1.24,7.42,7.42,0,0,0,5,1.9,7.4,7.4,0,0,0,5-1.9A4.42,4.42,0,0,1-534.69,73a4.39,4.39,0,0,1,3.1,1.24,7.42,7.42,0,0,0,5,1.9,7.45,7.45,0,0,0,5-1.9,4.37,4.37,0,0,1,3.1-1.24,4.4,4.4,0,0,1,3.11,1.24,7.43,7.43,0,0,0,5,1.9,7.42,7.42,0,0,0,5-1.9A4.42,4.42,0,0,1-502.13,73V69.86A7.5,7.5,0,0,0-507.17,71.76Zm-43.77-82.19a1.57,1.57,0,0,1,1.57,1.57v1.57h-3.14V-8.86A1.57,1.57,0,0,1-550.94-10.43Zm-4.32,6.35a37.09,37.09,0,0,0-8.33,11.91l2.88,1.26a33.91,33.91,0,0,1,9.77-12.78,33.55,33.55,0,0,1,12.55,24.74h-25.08a33.69,33.69,0,0,1,1.61-9l-3-1a37,37,0,0,0-1.77,9.93h-14.16A26.77,26.77,0,0,1-555.26-4.08ZM-584,24.2h53.53V21.05h-4.77A36.67,36.67,0,0,0-546.6-4.08a26.77,26.77,0,0,1,25.5,25.13h-6.22V24.2h9.45v3.16H-584Zm33,45.66a7,7,0,0,0-3.13.67v-40h6.3V70.55A7,7,0,0,0-551,69.86Z"/><g class="cls-19"><rect class="cls-2" x="-3347.77" y="-2415.57" width="5224.37" height="4468.85"/></g><path class="cls-3" d="M-510.27,80.89a4.4,4.4,0,0,1-3.11-1.25,7.43,7.43,0,0,0-5-1.91,7.38,7.38,0,0,0-5,1.91,4.42,4.42,0,0,1-3.11,1.25,4.44,4.44,0,0,1-3.11-1.25,7.37,7.37,0,0,0-5-1.91,7.45,7.45,0,0,0-5,1.91,4.38,4.38,0,0,1-3.1,1.25,4.4,4.4,0,0,1-3.1-1.25,7.43,7.43,0,0,0-5-1.91,7.45,7.45,0,0,0-5,1.91,4.4,4.4,0,0,1-3.1,1.25,4.4,4.4,0,0,1-3.1-1.25,7.42,7.42,0,0,0-5-1.91,7.43,7.43,0,0,0-5,1.91,4.37,4.37,0,0,1-3.09,1.25,4.38,4.38,0,0,1-3.1-1.25,7.42,7.42,0,0,0-5-1.91,7.38,7.38,0,0,0-5,1.91,4.4,4.4,0,0,1-3.1,1.25,4.38,4.38,0,0,1-3.1-1.25,7.42,7.42,0,0,0-5-1.91v3.16a4.37,4.37,0,0,1,3.1,1.24,7.42,7.42,0,0,0,5,1.91,7.42,7.42,0,0,0,5-1.91,4.39,4.39,0,0,1,3.1-1.24,4.39,4.39,0,0,1,3.1,1.24,7.38,7.38,0,0,0,5,1.91,7.39,7.39,0,0,0,5-1.91,4.43,4.43,0,0,1,3.11-1.24,4.39,4.39,0,0,1,3.1,1.24,7.4,7.4,0,0,0,5,1.91,7.4,7.4,0,0,0,5-1.91,4.39,4.39,0,0,1,3.1-1.24,4.42,4.42,0,0,1,3.11,1.24,7.42,7.42,0,0,0,5,1.91,7.45,7.45,0,0,0,5-1.91,4.37,4.37,0,0,1,3.1-1.24,4.39,4.39,0,0,1,3.1,1.24,7.42,7.42,0,0,0,5,1.91,7.42,7.42,0,0,0,5-1.91,4.4,4.4,0,0,1,3.11-1.24,4.42,4.42,0,0,1,3.11,1.24,7.43,7.43,0,0,0,5,1.91,7.42,7.42,0,0,0,5-1.91,4.42,4.42,0,0,1,3.11-1.24V77.73a7.4,7.4,0,0,0-5,1.91,4.44,4.44,0,0,1-3.11,1.25"/><g class="cls-20"><rect class="cls-2" x="-3347.77" y="-2415.57" width="5224.37" height="4468.85"/></g><path class="cls-3" d="M-541.49,62a4.73,4.73,0,0,0,4.72,4.73A4.74,4.74,0,0,0-532,62V58.84h-3.16V62a1.57,1.57,0,0,1-1.57,1.57A1.57,1.57,0,0,1-538.34,62V40h-3.15Z"/><g class="cls-21"><rect class="cls-2" x="-3347.77" y="-2415.57" width="5224.37" height="4468.85"/></g><path class="cls-3" d="M-519.45,51V43.1h-3.15V51a1.58,1.58,0,0,1-1.57,1.58A1.59,1.59,0,0,1-525.75,51V38.37a4.72,4.72,0,0,0-4.72-4.72,4.74,4.74,0,0,0-4.73,4.72V43.1H-532V38.37a1.57,1.57,0,0,1,1.57-1.57,1.57,1.57,0,0,1,1.57,1.57V51a4.73,4.73,0,0,0,4.73,4.72A4.72,4.72,0,0,0-519.45,51"/><g class="cls-22"><rect class="cls-2" x="-3347.77" y="-2415.57" width="5224.37" height="4468.85"/></g><path class="cls-3" d="M-563.53,62a1.57,1.57,0,0,1-1.58,1.57A1.57,1.57,0,0,1-566.69,62V58.84h-3.14V62a4.73,4.73,0,0,0,4.72,4.73A4.73,4.73,0,0,0-560.39,62V40h-3.14Z"/><g class="cls-23"><rect class="cls-2" x="-3347.77" y="-2415.57" width="5224.37" height="4468.85"/></g><path class="cls-3" d="M-582.43,51a4.72,4.72,0,0,0,4.73,4.72A4.72,4.72,0,0,0-573,51V38.37a1.57,1.57,0,0,1,1.57-1.57,1.58,1.58,0,0,1,1.58,1.57V43.1h3.15V38.37a4.73,4.73,0,0,0-4.73-4.72,4.73,4.73,0,0,0-4.72,4.72V51a1.59,1.59,0,0,1-1.57,1.58A1.59,1.59,0,0,1-579.28,51V43.1h-3.15Z"/><g class="cls-24"><rect class="cls-2" x="-3347.77" y="-2415.57" width="5224.37" height="4468.85"/></g><path class="cls-3" d="M-591.87,62a17.82,17.82,0,0,1,5.64.92l5,1.65-2.65-6.64a8.52,8.52,0,0,0-7.94-5.38,4.74,4.74,0,0,0-4.73,4.73A4.73,4.73,0,0,0-591.87,62m0-6.3a5.37,5.37,0,0,1,5,3.4l.16.4a20.92,20.92,0,0,0-5.17-.64,1.59,1.59,0,0,1-1.58-1.58,1.58,1.58,0,0,1,1.58-1.58"/><g class="cls-25"><rect class="cls-2" x="-3347.77" y="-2415.57" width="5224.37" height="4468.85"/></g><path class="cls-3" d="M-517.94,57.92l-2.66,6.64,5-1.65A17.73,17.73,0,0,1-510,62a4.73,4.73,0,0,0,4.72-4.72A4.73,4.73,0,0,0-510,52.55,8.5,8.5,0,0,0-517.94,57.92Zm2.92,1.17a5.37,5.37,0,0,1,5-3.4,1.57,1.57,0,0,1,1.57,1.58A1.57,1.57,0,0,1-510,58.84a21,21,0,0,0-5.18.65Z"/><g class="cls-26"><rect class="cls-2" x="-3347.77" y="-2415.57" width="5224.37" height="4468.85"/></g><path class="cls-2" d="M79.55,0H33.78a6.87,6.87,0,0,0-6.52,7.17V66s0,0,0,.06a1.51,1.51,0,0,0,.09.47v0h0l3.39,7.8A2.72,2.72,0,0,0,33.23,76h1.2v5.74a4.11,4.11,0,0,0,.26,1.43H17.21V57.38a4.29,4.29,0,0,0-4.3-4.3V28.59a11.48,11.48,0,1,0-2.87,0V53.08a4.3,4.3,0,0,0-4.3,4.3V83.2H1.43a1.44,1.44,0,0,0,0,2.87H84.64a1.44,1.44,0,0,0,0-2.87h-6a4.37,4.37,0,0,0,.27-1.43V76h1.19a2.73,2.73,0,0,0,2.47-1.67L86,66.56h0a0,0,0,0,0,0,0,1.52,1.52,0,0,0,.1-.47s0,0,0-.06V7.17A6.88,6.88,0,0,0,79.55,0ZM2.87,17.21a8.61,8.61,0,1,1,8.61,8.61A8.6,8.6,0,0,1,2.87,17.21Zm11.48,66H8.61V57.38A1.43,1.43,0,0,1,10,56h2.87a1.44,1.44,0,0,1,1.44,1.43ZM43,81.77A1.44,1.44,0,0,1,41.6,83.2H38.73a1.43,1.43,0,0,1-1.43-1.43V76H43Zm2.6,1.43a4.11,4.11,0,0,0,.26-1.43V76H67.42v5.74a4.37,4.37,0,0,0,.27,1.43ZM76,81.77a1.43,1.43,0,0,1-1.44,1.43H71.73a1.43,1.43,0,0,1-1.44-1.43V76H76v5.74ZM80,73.16H33.38l-2.5-5.74H82.45ZM50.21,64.55V61.68a1.43,1.43,0,0,1,1.43-1.43h10a1.43,1.43,0,0,1,1.44,1.43v2.87Zm33-57.38V64.55H66V61.68a4.31,4.31,0,0,0-4.31-4.3h-10a4.31,4.31,0,0,0-4.3,4.3v2.87H30.12V7.17a4,4,0,0,1,3.66-4.3H79.55A4,4,0,0,1,83.2,7.17Z"/><path class="cls-2" d="M76,5.74H37.3A4.31,4.31,0,0,0,33,10v1.44a4.31,4.31,0,0,0,4.31,4.3H76a4.31,4.31,0,0,0,4.3-4.3V10A4.31,4.31,0,0,0,76,5.74Zm1.43,5.74A1.43,1.43,0,0,1,76,12.91H37.3a1.44,1.44,0,0,1-1.44-1.43V10A1.44,1.44,0,0,1,37.3,8.61H76A1.43,1.43,0,0,1,77.46,10Z"/><path class="cls-2" d="M38.73,50.21A5.74,5.74,0,1,0,44.47,56,5.74,5.74,0,0,0,38.73,50.21Zm0,8.6A2.87,2.87,0,1,1,41.6,56,2.87,2.87,0,0,1,38.73,58.81Z"/><path class="cls-2" d="M74.59,50.21A5.74,5.74,0,1,0,80.33,56,5.74,5.74,0,0,0,74.59,50.21Zm0,8.6A2.87,2.87,0,1,1,77.46,56,2.86,2.86,0,0,1,74.59,58.81Z"/><path class="cls-2" d="M76,18.65H37.3A4.31,4.31,0,0,0,33,23V43a4.31,4.31,0,0,0,4.31,4.3H76a4.31,4.31,0,0,0,4.3-4.3V23A4.31,4.31,0,0,0,76,18.65ZM77.46,43A1.43,1.43,0,0,1,76,44.47H37.3A1.44,1.44,0,0,1,35.86,43V23a1.44,1.44,0,0,1,1.44-1.43H76A1.43,1.43,0,0,1,77.46,23Z"/></svg>