<svg id="Layer_1" data-name="Layer 1" xmlns="http://www.w3.org/2000/svg" xmlns:xlink="http://www.w3.org/1999/xlink" viewBox="0 0 92.92 92.92"><defs><style>.cls-1,.cls-2,.cls-4{fill:#fff;}.cls-1,.cls-3{clip-rule:evenodd;}.cls-3{fill:none;}.cls-4{fill-rule:evenodd;}.cls-5{clip-path:url(#clip-path);}.cls-6{clip-path:url(#clip-path-2);}.cls-7{clip-path:url(#clip-path-3);}.cls-8{clip-path:url(#clip-path-4);}.cls-9{clip-path:url(#clip-path-5);}.cls-10{clip-path:url(#clip-path-6);}.cls-11{clip-path:url(#clip-path-7);}.cls-12{clip-path:url(#clip-path-8);}.cls-13{clip-path:url(#clip-path-9);}.cls-14{clip-path:url(#clip-path-10);}.cls-15{clip-path:url(#clip-path-11);}.cls-16{clip-path:url(#clip-path-12);}.cls-17{clip-path:url(#clip-path-13);}.cls-18{clip-path:url(#clip-path-14);}.cls-19{clip-path:url(#clip-path-15);}.cls-20{clip-path:url(#clip-path-16);}.cls-21{clip-path:url(#clip-path-17);}.cls-22{clip-path:url(#clip-path-18);}.cls-23{clip-path:url(#clip-path-19);}.cls-24{clip-path:url(#clip-path-20);}.cls-25{clip-path:url(#clip-path-21);}.cls-26{clip-path:url(#clip-path-22);}.cls-27{clip-path:url(#clip-path-23);}.cls-28{clip-path:url(#clip-path-24);}.cls-29{clip-path:url(#clip-path-25);}.cls-30{clip-path:url(#clip-path-26);}.cls-31{clip-path:url(#clip-path-27);}.cls-32{clip-path:url(#clip-path-28);}.cls-33{clip-path:url(#clip-path-29);}.cls-34{clip-path:url(#clip-path-30);}.cls-35{clip-path:url(#clip-path-31);}.cls-36{clip-path:url(#clip-path-32);}.cls-37{clip-path:url(#clip-path-33);}.cls-38{clip-path:url(#clip-path-34);}.cls-39{clip-path:url(#clip-path-35);}.cls-40{clip-path:url(#clip-path-36);}.cls-41{clip-path:url(#clip-path-37);}.cls-42{clip-path:url(#clip-path-38);}.cls-43{clip-path:url(#clip-path-39);}.cls-44{clip-path:url(#clip-path-40);}.cls-45{clip-path:url(#clip-path-41);}.cls-46{clip-path:url(#clip-path-42);}.cls-47{clip-path:url(#clip-path-43);}.cls-48{clip-path:url(#clip-path-44);}</style><clipPath id="clip-path"><path class="cls-1" d="M376.27,90.11h15.92v-10H376.27Zm17.9,4H374.28a2,2,0,0,1-2-2V78.17a2,2,0,0,1,2-2h19.89a2,2,0,0,1,2,2V92.1A2,2,0,0,1,394.17,94.09Z"/></clipPath><clipPath id="clip-path-2"><path class="cls-1" d="M366.33,90.11h35.8V2.59h-35.8Zm37.79,4H364.34a2,2,0,0,1-2-2V.6a2,2,0,0,1,2-2h39.78a2,2,0,0,1,2,2V92.1A2,2,0,0,1,404.12,94.09Z"/></clipPath><clipPath id="clip-path-3"><path class="cls-1" d="M350.41,90.11h11.93V10.55H350.41Zm13.93,4H348.42a2,2,0,0,1-2-2V8.56a2,2,0,0,1,2-2h15.92a2,2,0,0,1,2,2V92.1A2,2,0,0,1,364.34,94.09Z"/></clipPath><clipPath id="clip-path-4"><path class="cls-1" d="M406.11,90.11H418V10.55H406.11Zm13.92,4H404.12a2,2,0,0,1-2-2V8.56a2,2,0,0,1,2-2H420a2,2,0,0,1,2,2V92.1A2,2,0,0,1,420,94.09Z"/></clipPath><clipPath id="clip-path-5"><rect class="cls-2" x="332.51" y="50.33" width="3.98" height="19.89" transform="translate(85.5 291.62) rotate(-53.11)"/></clipPath><clipPath id="clip-path-6"><rect class="cls-2" x="324.55" y="58.28" width="19.89" height="3.98" transform="translate(30.76 212.79) rotate(-36.88)"/></clipPath><clipPath id="clip-path-7"><rect class="cls-2" x="431.97" y="50.33" width="3.97" height="19.89" transform="translate(125.3 371.21) rotate(-53.12)"/></clipPath><clipPath id="clip-path-8"><rect class="cls-2" x="424.01" y="58.29" width="19.89" height="3.97" transform="translate(50.54 272.28) rotate(-36.85)"/></clipPath><clipPath id="clip-path-9"><path class="cls-3" d="M-190.33,251.41V251h.41a.9.9,0,0,0,.91-.9.91.91,0,0,0-.91-.91h-.41v-.41a.9.9,0,0,0-.9-.91.91.91,0,0,0-.91.91v.41h-.41a.91.91,0,0,0-.91.91.9.9,0,0,0,.91.9h.41v.42a.9.9,0,0,0,.91.9.9.9,0,0,0,.9-.9"/></clipPath><clipPath id="clip-path-10"><path class="cls-3" d="M-207.45,271a.91.91,0,0,0,.91-.91v-1.3a.91.91,0,0,0-.91-.91.9.9,0,0,0-.9.91v1.3a.9.9,0,0,0,.9.91"/></clipPath><clipPath id="clip-path-11"><path class="cls-3" d="M-203.85,271a.9.9,0,0,0,.9-.91v-1.3a.9.9,0,0,0-.9-.91.91.91,0,0,0-.91.91v1.3a.91.91,0,0,0,.91.91"/></clipPath><clipPath id="clip-path-12"><path class="cls-3" d="M-207.45,275.5a.91.91,0,0,0,.91-.91v-1.3a.9.9,0,0,0-.91-.9.9.9,0,0,0-.9.9v1.3a.9.9,0,0,0,.9.91"/></clipPath><clipPath id="clip-path-13"><path class="cls-3" d="M-203.85,275.5a.9.9,0,0,0,.9-.91v-1.3a.9.9,0,0,0-.9-.9.9.9,0,0,0-.91.9v1.3a.91.91,0,0,0,.91.91"/></clipPath><clipPath id="clip-path-14"><path class="cls-3" d="M-207.45,280a.9.9,0,0,0,.91-.9v-1.3a.91.91,0,0,0-.91-.91.9.9,0,0,0-.9.91v1.3a.9.9,0,0,0,.9.9"/></clipPath><clipPath id="clip-path-15"><path class="cls-3" d="M-203.85,280a.9.9,0,0,0,.9-.9v-1.3a.9.9,0,0,0-.9-.91.91.91,0,0,0-.91.91v1.3a.9.9,0,0,0,.91.9"/></clipPath><clipPath id="clip-path-16"><path class="cls-3" d="M-178.61,271a.91.91,0,0,0,.9-.91v-1.3a.91.91,0,0,0-.9-.91.91.91,0,0,0-.91.91v1.3a.91.91,0,0,0,.91.91"/></clipPath><clipPath id="clip-path-17"><path class="cls-3" d="M-175,271a.91.91,0,0,0,.91-.91v-1.3a.91.91,0,0,0-.91-.91.9.9,0,0,0-.9.91v1.3a.9.9,0,0,0,.9.91"/></clipPath><clipPath id="clip-path-18"><path class="cls-3" d="M-178.61,275.5a.91.91,0,0,0,.9-.91v-1.3a.9.9,0,0,0-.9-.9.9.9,0,0,0-.91.9v1.3a.91.91,0,0,0,.91.91"/></clipPath><clipPath id="clip-path-19"><path class="cls-3" d="M-175,275.5a.91.91,0,0,0,.91-.91v-1.3a.9.9,0,0,0-.91-.9.9.9,0,0,0-.9.9v1.3a.9.9,0,0,0,.9.91"/></clipPath><clipPath id="clip-path-20"><path class="cls-3" d="M-178.61,280a.9.9,0,0,0,.9-.9v-1.3a.91.91,0,0,0-.9-.91.91.91,0,0,0-.91.91v1.3a.9.9,0,0,0,.91.9"/></clipPath><clipPath id="clip-path-21"><path class="cls-3" d="M-175,280a.9.9,0,0,0,.91-.9v-1.3a.91.91,0,0,0-.91-.91.9.9,0,0,0-.9.91v1.3a.9.9,0,0,0,.9.9"/></clipPath><clipPath id="clip-path-22"><path class="cls-3" d="M-193.94,264.34v1.3a.91.91,0,0,0,.91.91.9.9,0,0,0,.9-.91v-1.3a.9.9,0,0,0-.9-.9.9.9,0,0,0-.91.9"/></clipPath><clipPath id="clip-path-23"><path class="cls-3" d="M-190.34,264.34v1.3a.9.9,0,0,0,.9.91.91.91,0,0,0,.91-.91v-1.3a.9.9,0,0,0-.91-.9.9.9,0,0,0-.9.9"/></clipPath><clipPath id="clip-path-24"><path class="cls-3" d="M-193,267.91a.91.91,0,0,0-.91.91v1.3a.91.91,0,0,0,.91.91.9.9,0,0,0,.9-.91v-1.3a.9.9,0,0,0-.9-.91"/></clipPath><clipPath id="clip-path-25"><path class="cls-3" d="M-189.44,267.91a.9.9,0,0,0-.9.91v1.3a.9.9,0,0,0,.9.91.91.91,0,0,0,.91-.91v-1.3a.91.91,0,0,0-.91-.91"/></clipPath><clipPath id="clip-path-26"><path class="cls-3" d="M-193,272.39a.9.9,0,0,0-.91.9v1.3a.91.91,0,0,0,.91.91.9.9,0,0,0,.9-.91v-1.3a.9.9,0,0,0-.9-.9"/></clipPath><clipPath id="clip-path-27"><path class="cls-3" d="M-189.44,272.39a.9.9,0,0,0-.9.9v1.3a.9.9,0,0,0,.9.91.91.91,0,0,0,.91-.91v-1.3a.9.9,0,0,0-.91-.9"/></clipPath><clipPath id="clip-path-28"><path class="cls-3" d="M-167.63,283.8h-1.91V264.58a.9.9,0,0,0-.9-.91h-11.78v-6.48a.9.9,0,0,0-.9-.91h-7.21V255h3.06a.9.9,0,0,0,.91-.9v-7.94a.9.9,0,0,0-.91-.9h-7.93a.9.9,0,0,0-.91.9v7.94a.9.9,0,0,0,.91.9h3.06v1.32h-7.21a.91.91,0,0,0-.9.91v6.48H-212a.9.9,0,0,0-.9.91V283.8h-1.9a.91.91,0,0,0-.91.91.91.91,0,0,0,.91.91h47.2a.9.9,0,0,0,.9-.91A.9.9,0,0,0-167.63,283.8ZM-184,258.09V283.8h-1.52v-4a.9.9,0,0,0-.9-.9H-196a.9.9,0,0,0-.91.9v4h-1.52V258.09Zm-11.08,25.71h7.75v-3.07h-7.75Zm12.89,0h10.87V265.48h-10.87Zm-28.9,0h10.87V265.48h-10.87Zm16.83-30.65h6.12V247h-6.12Z"/></clipPath><clipPath id="clip-path-29"><path class="cls-1" d="M192.16,40.64a9.46,9.46,0,0,0-6.65-9,38.25,38.25,0,0,0-4.67-11.27,9.49,9.49,0,0,0-1.67-11.11,9.46,9.46,0,0,0-11.09-1.67,38.59,38.59,0,0,0-11.24-4.68,9.45,9.45,0,0,0-18.05,0,38.59,38.59,0,0,0-11.24,4.68,9.43,9.43,0,0,0-7.17-.69,1.41,1.41,0,0,0,.82,2.69,6.65,6.65,0,0,1,6.63,11.07A6.64,6.64,0,0,1,117,13.4a1.4,1.4,0,0,0-2.6-1.06,9.48,9.48,0,0,0,.39,8,38.52,38.52,0,0,0-4.67,11.27,9.46,9.46,0,0,0,0,18.06,38.59,38.59,0,0,0,4.68,11.26,9.46,9.46,0,0,0,12.77,12.79,37.71,37.71,0,0,0,4.3,2.29l-4.28,11.62a3.3,3.3,0,0,0,3,4.38H165a3.3,3.3,0,0,0,3.05-4.38L163.77,76a38.71,38.71,0,0,0,4.31-2.29,9.43,9.43,0,0,0,7.31.63,1.4,1.4,0,0,0-.86-2.67,6.59,6.59,0,0,1-6.73-1.62,6.65,6.65,0,1,1,10.86-2.24,1.41,1.41,0,0,0,2.61,1,9.47,9.47,0,0,0-.43-7.93,38.19,38.19,0,0,0,4.67-11.26A9.47,9.47,0,0,0,192.16,40.64Zm-2.8,0A6.64,6.64,0,1,1,182.71,34,6.66,6.66,0,0,1,189.36,40.64Zm-16-1.4H161.52a13.65,13.65,0,0,0-3-7.31l8.39-8.4a9.54,9.54,0,0,0,7.46,1.67,30.77,30.77,0,0,1,3.15,7.57A9.43,9.43,0,0,0,173.38,39.24ZM161.55,73.92c-1.42.53-2.82,1.07-4.29,1.47a9.58,9.58,0,0,0-.38-2.47,33.68,33.68,0,0,0,7.32-3,9.67,9.67,0,0,0,1.47,2A29.16,29.16,0,0,1,161.55,73.92Zm-31.58-2a9.62,9.62,0,0,0,1.46-2,33.68,33.68,0,0,0,7.32,3,9.16,9.16,0,0,0-.37,2.47A35.43,35.43,0,0,1,130,71.89ZM116.61,58.51a35.65,35.65,0,0,1-3.49-8.42,9.43,9.43,0,0,0,2.45-.38A33.59,33.59,0,0,0,118.62,57,9.6,9.6,0,0,0,116.61,58.51Zm4.69-2.44a30.05,30.05,0,0,1-3.14-7.57,9.51,9.51,0,0,0,4.1-6.46h11.85a13.61,13.61,0,0,0,3,7.27l-8.41,8.41A9.55,9.55,0,0,0,121.3,56.07Zm25.11,10.17A9.42,9.42,0,0,0,140,70.35a31.12,31.12,0,0,1-7.56-3.16,9.51,9.51,0,0,0-1.69-7.49l8.4-8.39a13.67,13.67,0,0,0,7.3,3Zm1.4,2.7a6.65,6.65,0,1,1-6.64,6.65A6.65,6.65,0,0,1,147.81,68.94Zm15.42-1.75a30.54,30.54,0,0,1-7.56,3.15,9.44,9.44,0,0,0-6.45-4.1V54.34a13.6,13.6,0,0,0,7.29-3l8.4,8.4A9.48,9.48,0,0,0,163.23,67.19ZM147.81,51.61a11,11,0,1,1,11-11A11,11,0,0,1,147.81,51.61ZM138.75,8.35a33.23,33.23,0,0,0-7.32,3.05,8.86,8.86,0,0,0-1.47-2,35.26,35.26,0,0,1,8.42-3.5A9.5,9.5,0,0,0,138.75,8.35Zm-6.35,5.73A30.32,30.32,0,0,1,140,10.93,9.46,9.46,0,0,0,146.41,15V26.93a13.82,13.82,0,0,0-7.29,3l-8.39-8.39A9.55,9.55,0,0,0,132.4,14.08Zm31.8-2.68a33.23,33.23,0,0,0-7.32-3.05,9.5,9.5,0,0,0,.38-2.46,35.36,35.36,0,0,1,8.41,3.5A9.42,9.42,0,0,0,164.2,11.4Zm-8.53-.47a30.17,30.17,0,0,1,7.56,3.15,9.49,9.49,0,0,0,1.66,7.46L156.49,30a13.61,13.61,0,0,0-7.27-3V15A9.46,9.46,0,0,0,155.67,10.93ZM179,22.76a35.51,35.51,0,0,1,3.5,8.43,8.72,8.72,0,0,0-2.46.38,32.68,32.68,0,0,0-3-7.34A9,9,0,0,0,179,22.76Zm-1.82-11.54a6.65,6.65,0,1,1-9.39,9.41,6.65,6.65,0,0,1,9.39-9.41ZM147.81-1a6.66,6.66,0,1,1-6.64,6.66,6.58,6.58,0,0,1,.11-1.19,1.3,1.3,0,0,0,.07-.33A6.66,6.66,0,0,1,147.81-1ZM128.74,23.54l8.4,8.4a13.69,13.69,0,0,0-3,7.3H122.26a9.53,9.53,0,0,0-4.1-6.47,30.36,30.36,0,0,1,3.14-7.57A9.52,9.52,0,0,0,128.74,23.54Zm-10.12.69a33.67,33.67,0,0,0-3.05,7.34,8.65,8.65,0,0,0-2.45-.38,35.51,35.51,0,0,1,3.5-8.43A9.29,9.29,0,0,0,118.62,24.23ZM106.28,40.64A6.73,6.73,0,0,1,112.92,34a6.66,6.66,0,1,1-6.64,6.66ZM123.14,72a6.66,6.66,0,0,1-4.7-11.36A6.65,6.65,0,1,1,123.14,72ZM165.42,88.6a.44.44,0,0,1-.42.6H130.63a.44.44,0,0,1-.42-.6l4.25-11.52a38.53,38.53,0,0,0,4.33,1.31,9.44,9.44,0,0,0,18.05,0,37.91,37.91,0,0,0,4.33-1.31Zm1.47-30.87-8.4-8.4a13.69,13.69,0,0,0,3-7.29h11.86a9.41,9.41,0,0,0,4.1,6.46,30.45,30.45,0,0,1-3.15,7.57,9.26,9.26,0,0,0-1.84-.18A9.42,9.42,0,0,0,166.89,57.73ZM177,57a32.61,32.61,0,0,0,3-7.33,9.5,9.5,0,0,0,2.46.38,35.26,35.26,0,0,1-3.5,8.42A9.54,9.54,0,0,0,177,57Z"/></clipPath><clipPath id="clip-path-30"><rect class="cls-2" x="-4416.51" y="-2219.14" width="5391.41" height="4611.73"/></clipPath><clipPath id="clip-path-31"><path class="cls-2" d="M-128.72,94.56H-203.3a2.57,2.57,0,0,1-2.53-2.6V86.52a2.57,2.57,0,0,1,2.53-2.6h28.57a7,7,0,0,1-.67-2.08,6.8,6.8,0,0,1,1.41-5.3l.92-1.13a7.05,7.05,0,0,0,1.46-5.57l-.38-2.43h-11.24a6,6,0,0,1-5.89-6.15.94.94,0,0,0-.38-.78l-2.37-1.67a2.66,2.66,0,0,1-1-2.9,2.53,2.53,0,0,1,2.43-1.86h19.32V51.12h-6.46A6,6,0,0,1-183.47,45a.93.93,0,0,0-.39-.79l-2.36-1.67a2.65,2.65,0,0,1-1-2.89,2.55,2.55,0,0,1,2.43-1.87h13.67V36.28a10.18,10.18,0,0,0-5.7-9.28l-.72-.34V24.17h23.07v2.49l-.73.34a10.18,10.18,0,0,0-5.7,9.28v1.47h13.67a2.55,2.55,0,0,1,2.43,1.88,2.62,2.62,0,0,1-1,2.88l-2.36,1.67a.93.93,0,0,0-.39.79,6,6,0,0,1-5.89,6.15h-6.46v2.93h19.32a2.55,2.55,0,0,1,2.43,1.87,2.65,2.65,0,0,1-1,2.89l-2.36,1.66a1,1,0,0,0-.39.79,6,6,0,0,1-5.89,6.15H-160l-.38,2.43a7,7,0,0,0,1.46,5.57l.92,1.13a6.8,6.8,0,0,1,1.41,5.3,7.06,7.06,0,0,1-.68,2.08h28.58a2.57,2.57,0,0,1,2.53,2.6V92A2.57,2.57,0,0,1-128.72,94.56Zm-74.58-8.14a.14.14,0,0,0,0,.1V92c0,.07,0,.1,0,.1h74.57a.14.14,0,0,0,0-.1V86.52a.13.13,0,0,0,0-.1h-35.06l3.09-2.26a4.12,4.12,0,0,0,1.61-2.7,4.3,4.3,0,0,0-.89-3.35l-.91-1.12a9.58,9.58,0,0,1-2-7.54l.71-4.54h13.38a3.53,3.53,0,0,0,3.39-3.65,3.43,3.43,0,0,1,1.45-2.83l2.36-1.67a.14.14,0,0,0,0-.15l-21.85-.06V48.62h9A3.53,3.53,0,0,0-151,45a3.46,3.46,0,0,1,1.45-2.84l2.36-1.66a.15.15,0,0,0,0-.15l-16.2-.07v-4a12.93,12.93,0,0,1,4.22-9.61h-13.65a12.92,12.92,0,0,1,4.21,9.61v4h-16.17c-.05.13,0,.2,0,.22l2.36,1.66A3.46,3.46,0,0,1-181,45a3.53,3.53,0,0,0,3.39,3.65h9v7.93h-21.82c-.05.13,0,.19,0,.22l2.36,1.66a3.43,3.43,0,0,1,1.45,2.83,3.53,3.53,0,0,0,3.39,3.65h13.38l.71,4.54a9.6,9.6,0,0,1-2,7.54l-.92,1.13a4.3,4.3,0,0,0-.88,3.34,4,4,0,0,0,1.61,2.7l3.06,2.26Z"/></clipPath><clipPath id="clip-path-32"><path class="cls-1" d="M-198.4,53.34a2.83,2.83,0,0,1,2.82-2.82,5.63,5.63,0,0,0,5.63-5.63v-7A2.82,2.82,0,0,1-187.13,35h8.45V32.23h-8.45a5.63,5.63,0,0,0-5.63,5.62v7a2.83,2.83,0,0,1-2.82,2.82,5.64,5.64,0,0,0-5.63,5.63V73.05h2.81Z"/></clipPath><clipPath id="clip-path-33"><path class="cls-2" d="M-166,21.75a2.14,2.14,0,0,1-1.85-1.05l-3.2-5.33a2.14,2.14,0,0,1,.33-2.64l3.19-3.2a2.21,2.21,0,0,1,3.06,0l3.2,3.2a2.15,2.15,0,0,1,.32,2.64l-3.19,5.33A2.17,2.17,0,0,1-166,21.75Zm0-2.19h0Zm-.06-8.47-3.14,3.2,3.17,5.23,3.17-5.28Z"/></clipPath><clipPath id="clip-path-34"><path class="cls-1" d="M-153.34,32.22V35h8.45a2.81,2.81,0,0,1,2.82,2.81v7a5.64,5.64,0,0,0,5.63,5.64,2.82,2.82,0,0,1,2.82,2.81V73.06h2.81V53.34a5.63,5.63,0,0,0-5.63-5.63,2.81,2.81,0,0,1-2.81-2.82v-7a5.64,5.64,0,0,0-5.64-5.63Z"/></clipPath><clipPath id="clip-path-35"><path class="cls-1" d="M-147.7,22.36h2.81a8.46,8.46,0,0,0-8.45-8.44h-2.81v2.82h2.81a5.64,5.64,0,0,1,5.64,5.62"/></clipPath><clipPath id="clip-path-36"><path class="cls-1" d="M-178.68,16.73h2.81V13.91h-2.81a8.47,8.47,0,0,0-8.45,8.45h2.82a5.64,5.64,0,0,1,5.63-5.63"/></clipPath><clipPath id="clip-path-37"><path class="cls-1" d="M301.16,81.25a4.47,4.47,0,0,1-6.22,0,7.62,7.62,0,0,0-10.07,0,4.46,4.46,0,0,1-6.21,0,7.61,7.61,0,0,0-10.06,0,4.36,4.36,0,0,1-3.1,1.26,3.86,3.86,0,0,1-1.81-.39V40h22v3.15h3.15V40h1.57a3.15,3.15,0,0,0,3.15-3.14V33.69a3.16,3.16,0,0,0-3.15-3.15h-.08A29.91,29.91,0,0,0,262.11,2.28V.63a4.73,4.73,0,1,0-9.45,0V2.28a29.9,29.9,0,0,0-28.25,28.26h-.09a3.16,3.16,0,0,0-3.15,3.15v3.16A3.15,3.15,0,0,0,224.32,40h1.58v3.15h3.15V40h22v42.1a3.94,3.94,0,0,1-1.86.42,4.39,4.39,0,0,1-3.11-1.26,7.61,7.61,0,0,0-10.06,0,4.34,4.34,0,0,1-3.1,1.26,4.4,4.4,0,0,1-3.1-1.25,7.58,7.58,0,0,0-10.05,0,4.46,4.46,0,0,1-6.21,0,7.43,7.43,0,0,0-5-1.9v3.16a4.4,4.4,0,0,1,3.11,1.24,7.59,7.59,0,0,0,10,0,4.51,4.51,0,0,1,6.21,0,7.59,7.59,0,0,0,10.05,0,4.5,4.5,0,0,1,6.2,0,7.62,7.62,0,0,0,10.07,0,4.51,4.51,0,0,1,6.21,0,7.61,7.61,0,0,0,10.06,0,4.51,4.51,0,0,1,6.21,0,7.61,7.61,0,0,0,10.06,0,4.51,4.51,0,0,1,6.21,0,7.63,7.63,0,0,0,10.08,0,4.4,4.4,0,0,1,3.11-1.24V79.35A7.48,7.48,0,0,0,301.16,81.25ZM257.39-.95A1.58,1.58,0,0,1,259,.63V2.2h-3.14V.63A1.57,1.57,0,0,1,257.39-.95Zm-4.33,6.36a37.25,37.25,0,0,0-8.33,11.91l2.89,1.26A33.71,33.71,0,0,1,257.39,5.8a33.55,33.55,0,0,1,12.55,24.74H244.85a34,34,0,0,1,1.62-8.95l-3-1a37.28,37.28,0,0,0-1.78,9.93H227.55A26.76,26.76,0,0,1,253.06,5.41ZM224.32,33.69h53.53V30.54h-4.76A36.67,36.67,0,0,0,261.73,5.41a26.78,26.78,0,0,1,25.5,25.13H281v3.15h9.44v3.16H224.32Zm33,45.66a7.06,7.06,0,0,0-3.13.67V40h6.3V80A7,7,0,0,0,257.36,79.35Z"/></clipPath><clipPath id="clip-path-38"><path class="cls-1" d="M298.05,90.38a4.42,4.42,0,0,1-3.11-1.25,7.59,7.59,0,0,0-10.07,0,4.48,4.48,0,0,1-6.21,0,7.58,7.58,0,0,0-10.06,0,4.48,4.48,0,0,1-6.21,0,7.58,7.58,0,0,0-10.06,0,4.48,4.48,0,0,1-6.21,0,7.58,7.58,0,0,0-10.06,0,4.46,4.46,0,0,1-6.19,0,7.58,7.58,0,0,0-10.06,0,4.42,4.42,0,0,1-3.11,1.25,4.37,4.37,0,0,1-3.09-1.25,7.42,7.42,0,0,0-5-1.91v3.16a4.39,4.39,0,0,1,3.1,1.24,7.59,7.59,0,0,0,10,0,4.51,4.51,0,0,1,6.21,0,7.59,7.59,0,0,0,10.05,0,4.42,4.42,0,0,1,3.11-1.24,4.37,4.37,0,0,1,3.09,1.24,7.62,7.62,0,0,0,10.07,0,4.51,4.51,0,0,1,6.21,0,7.61,7.61,0,0,0,10.06,0,4.51,4.51,0,0,1,6.21,0,7.61,7.61,0,0,0,10.06,0,4.51,4.51,0,0,1,6.21,0,7.62,7.62,0,0,0,10.07,0,4.44,4.44,0,0,1,3.12-1.24V87.22a7.43,7.43,0,0,0-5,1.91,4.4,4.4,0,0,1-3.11,1.25"/></clipPath><clipPath id="clip-path-39"><path class="cls-1" d="M266.83,71.48a4.73,4.73,0,1,0,9.45,0V68.33h-3.15v3.15a1.57,1.57,0,0,1-3.14,0v-22h-3.16Z"/></clipPath><clipPath id="clip-path-40"><path class="cls-1" d="M288.88,60.46V52.59h-3.16v7.87a1.57,1.57,0,0,1-3.14,0V47.86a4.73,4.73,0,0,0-9.45,0v4.73h3.15V47.86a1.58,1.58,0,0,1,3.15,0v12.6a4.73,4.73,0,0,0,9.45,0"/></clipPath><clipPath id="clip-path-41"><path class="cls-1" d="M244.79,71.48a1.58,1.58,0,0,1-3.15,0V68.33h-3.15v3.15a4.73,4.73,0,1,0,9.45,0v-22h-3.15Z"/></clipPath><clipPath id="clip-path-42"><path class="cls-1" d="M225.9,60.46a4.73,4.73,0,0,0,9.45,0V47.86a1.57,1.57,0,0,1,3.14,0v4.73h3.15V47.86a4.73,4.73,0,0,0-9.45,0v12.6a1.57,1.57,0,1,1-3.14,0V52.59H225.9Z"/></clipPath><clipPath id="clip-path-43"><path class="cls-1" d="M216.45,71.48a18,18,0,0,1,5.64.91L227,74.05l-2.65-6.64A8.51,8.51,0,0,0,216.45,62a4.73,4.73,0,0,0,0,9.45m0-6.3a5.4,5.4,0,0,1,5,3.4l.16.4a21,21,0,0,0-5.18-.64,1.58,1.58,0,0,1,0-3.16"/></clipPath><clipPath id="clip-path-44"><path class="cls-1" d="M290.38,67.41l-2.65,6.64,4.95-1.65a17.77,17.77,0,0,1,5.64-.92,4.73,4.73,0,1,0,0-9.45A8.52,8.52,0,0,0,290.38,67.41Zm2.93,1.17a5.36,5.36,0,0,1,5-3.4,1.58,1.58,0,1,1,0,3.15,20.93,20.93,0,0,0-5.17.65Z"/></clipPath></defs><path class="cls-4" d="M376.27,90.11h15.92v-10H376.27Zm17.9,4H374.28a2,2,0,0,1-2-2V78.17a2,2,0,0,1,2-2h19.89a2,2,0,0,1,2,2V92.1A2,2,0,0,1,394.17,94.09Z"/><g class="cls-5"><rect class="cls-2" x="-892.27" y="-3702.54" width="5804.01" height="4970.61"/></g><path class="cls-4" d="M366.33,90.11h35.8V2.59h-35.8Zm37.79,4H364.34a2,2,0,0,1-2-2V.6a2,2,0,0,1,2-2h39.78a2,2,0,0,1,2,2V92.1A2,2,0,0,1,404.12,94.09Z"/><g class="cls-6"><rect class="cls-2" x="-892.27" y="-3702.54" width="5804.01" height="4964.66"/></g><path class="cls-4" d="M350.41,90.11h11.93V10.55H350.41Zm13.93,4H348.42a2,2,0,0,1-2-2V8.56a2,2,0,0,1,2-2h15.92a2,2,0,0,1,2,2V92.1A2,2,0,0,1,364.34,94.09Z"/><g class="cls-7"><rect class="cls-2" x="-892.27" y="-3702.54" width="5804.01" height="4964.66"/></g><path class="cls-4" d="M406.11,90.11H418V10.55H406.11Zm13.92,4H404.12a2,2,0,0,1-2-2V8.56a2,2,0,0,1,2-2H420a2,2,0,0,1,2,2V92.1A2,2,0,0,1,420,94.09Z"/><g class="cls-8"><rect class="cls-2" x="-892.27" y="-3702.54" width="5804.01" height="4964.66"/></g><rect class="cls-2" x="332.51" y="50.33" width="3.98" height="19.89" transform="translate(85.5 291.62) rotate(-53.11)"/><g class="cls-9"><rect class="cls-2" x="-892.27" y="-3702.54" width="5804.01" height="4964.66"/></g><rect class="cls-2" x="324.55" y="58.28" width="19.89" height="3.98" transform="translate(30.76 212.79) rotate(-36.88)"/><g class="cls-10"><rect class="cls-2" x="-892.27" y="-3702.54" width="5804.01" height="4964.66"/></g><rect class="cls-2" x="431.97" y="50.33" width="3.97" height="19.89" transform="translate(125.3 371.21) rotate(-53.12)"/><g class="cls-11"><rect class="cls-2" x="-892.27" y="-3702.54" width="5804.01" height="4964.66"/></g><rect class="cls-2" x="424.01" y="58.29" width="19.89" height="3.97" transform="translate(50.54 272.28) rotate(-36.85)"/><g class="cls-12"><rect class="cls-2" x="-892.27" y="-3702.54" width="5804.01" height="4964.66"/></g><path class="cls-4" d="M192.16,40.64a9.46,9.46,0,0,0-6.65-9,38.25,38.25,0,0,0-4.67-11.27,9.49,9.49,0,0,0-1.67-11.11,9.46,9.46,0,0,0-11.09-1.67,38.59,38.59,0,0,0-11.24-4.68,9.45,9.45,0,0,0-18.05,0,38.59,38.59,0,0,0-11.24,4.68,9.43,9.43,0,0,0-7.17-.69,1.41,1.41,0,0,0,.82,2.69,6.65,6.65,0,0,1,6.63,11.07A6.64,6.64,0,0,1,117,13.4a1.4,1.4,0,0,0-2.6-1.06,9.48,9.48,0,0,0,.39,8,38.52,38.52,0,0,0-4.67,11.27,9.46,9.46,0,0,0,0,18.06,38.59,38.59,0,0,0,4.68,11.26,9.46,9.46,0,0,0,12.77,12.79,37.71,37.71,0,0,0,4.3,2.29l-4.28,11.62a3.3,3.3,0,0,0,3,4.38H165a3.3,3.3,0,0,0,3.05-4.38L163.77,76a38.71,38.71,0,0,0,4.31-2.29,9.43,9.43,0,0,0,7.31.63,1.4,1.4,0,0,0-.86-2.67,6.59,6.59,0,0,1-6.73-1.62,6.65,6.65,0,1,1,10.86-2.24,1.41,1.41,0,0,0,2.61,1,9.47,9.47,0,0,0-.43-7.93,38.19,38.19,0,0,0,4.67-11.26A9.47,9.47,0,0,0,192.16,40.64Zm-2.8,0A6.64,6.64,0,1,1,182.71,34,6.66,6.66,0,0,1,189.36,40.64Zm-16-1.4H161.52a13.65,13.65,0,0,0-3-7.31l8.39-8.4a9.54,9.54,0,0,0,7.46,1.67,30.77,30.77,0,0,1,3.15,7.57A9.43,9.43,0,0,0,173.38,39.24ZM161.55,73.92c-1.42.53-2.82,1.07-4.29,1.47a9.58,9.58,0,0,0-.38-2.47,33.68,33.68,0,0,0,7.32-3,9.67,9.67,0,0,0,1.47,2A29.16,29.16,0,0,1,161.55,73.92Zm-31.58-2a9.62,9.62,0,0,0,1.46-2,33.68,33.68,0,0,0,7.32,3,9.16,9.16,0,0,0-.37,2.47A35.43,35.43,0,0,1,130,71.89ZM116.61,58.51a35.65,35.65,0,0,1-3.49-8.42,9.43,9.43,0,0,0,2.45-.38A33.59,33.59,0,0,0,118.62,57,9.6,9.6,0,0,0,116.61,58.51Zm4.69-2.44a30.05,30.05,0,0,1-3.14-7.57,9.51,9.51,0,0,0,4.1-6.46h11.85a13.61,13.61,0,0,0,3,7.27l-8.41,8.41A9.55,9.55,0,0,0,121.3,56.07Zm25.11,10.17A9.42,9.42,0,0,0,140,70.35a31.12,31.12,0,0,1-7.56-3.16,9.51,9.51,0,0,0-1.69-7.49l8.4-8.39a13.67,13.67,0,0,0,7.3,3Zm1.4,2.7a6.65,6.65,0,1,1-6.64,6.65A6.65,6.65,0,0,1,147.81,68.94Zm15.42-1.75a30.54,30.54,0,0,1-7.56,3.15,9.44,9.44,0,0,0-6.45-4.1V54.34a13.6,13.6,0,0,0,7.29-3l8.4,8.4A9.48,9.48,0,0,0,163.23,67.19ZM147.81,51.61a11,11,0,1,1,11-11A11,11,0,0,1,147.81,51.61ZM138.75,8.35a33.23,33.23,0,0,0-7.32,3.05,8.86,8.86,0,0,0-1.47-2,35.26,35.26,0,0,1,8.42-3.5A9.5,9.5,0,0,0,138.75,8.35Zm-6.35,5.73A30.32,30.32,0,0,1,140,10.93,9.46,9.46,0,0,0,146.41,15V26.93a13.82,13.82,0,0,0-7.29,3l-8.39-8.39A9.55,9.55,0,0,0,132.4,14.08Zm31.8-2.68a33.23,33.23,0,0,0-7.32-3.05,9.5,9.5,0,0,0,.38-2.46,35.36,35.36,0,0,1,8.41,3.5A9.42,9.42,0,0,0,164.2,11.4Zm-8.53-.47a30.17,30.17,0,0,1,7.56,3.15,9.49,9.49,0,0,0,1.66,7.46L156.49,30a13.61,13.61,0,0,0-7.27-3V15A9.46,9.46,0,0,0,155.67,10.93ZM179,22.76a35.51,35.51,0,0,1,3.5,8.43,8.72,8.72,0,0,0-2.46.38,32.68,32.68,0,0,0-3-7.34A9,9,0,0,0,179,22.76Zm-1.82-11.54a6.65,6.65,0,1,1-9.39,9.41,6.65,6.65,0,0,1,9.39-9.41ZM147.81-1a6.66,6.66,0,1,1-6.64,6.66,6.58,6.58,0,0,1,.11-1.19,1.3,1.3,0,0,0,.07-.33A6.66,6.66,0,0,1,147.81-1ZM128.74,23.54l8.4,8.4a13.69,13.69,0,0,0-3,7.3H122.26a9.53,9.53,0,0,0-4.1-6.47,30.36,30.36,0,0,1,3.14-7.57A9.52,9.52,0,0,0,128.74,23.54Zm-10.12.69a33.67,33.67,0,0,0-3.05,7.34,8.65,8.65,0,0,0-2.45-.38,35.51,35.51,0,0,1,3.5-8.43A9.29,9.29,0,0,0,118.62,24.23ZM106.28,40.64A6.73,6.73,0,0,1,112.92,34a6.66,6.66,0,1,1-6.64,6.66ZM123.14,72a6.66,6.66,0,0,1-4.7-11.36A6.65,6.65,0,1,1,123.14,72ZM165.42,88.6a.44.44,0,0,1-.42.6H130.63a.44.44,0,0,1-.42-.6l4.25-11.52a38.53,38.53,0,0,0,4.33,1.31,9.44,9.44,0,0,0,18.05,0,37.91,37.91,0,0,0,4.33-1.31Zm1.47-30.87-8.4-8.4a13.69,13.69,0,0,0,3-7.29h11.86a9.41,9.41,0,0,0,4.1,6.46,30.45,30.45,0,0,1-3.15,7.57,9.26,9.26,0,0,0-1.84-.18A9.42,9.42,0,0,0,166.89,57.73ZM177,57a32.61,32.61,0,0,0,3-7.33,9.5,9.5,0,0,0,2.46.38,35.26,35.26,0,0,1-3.5,8.42A9.54,9.54,0,0,0,177,57Z"/><g class="cls-33"><rect class="cls-2" x="-4416.51" y="-2219.14" width="5391.41" height="4611.73"/><g class="cls-34"><rect class="cls-2" x="75.82" y="-31.42" width="143.99" height="151.08"/></g></g><path class="cls-2" d="M-128.72,94.56H-203.3a2.57,2.57,0,0,1-2.53-2.6V86.52a2.57,2.57,0,0,1,2.53-2.6h28.57a7,7,0,0,1-.67-2.08,6.8,6.8,0,0,1,1.41-5.3l.92-1.13a7.05,7.05,0,0,0,1.46-5.57l-.38-2.43h-11.24a6,6,0,0,1-5.89-6.15.94.94,0,0,0-.38-.78l-2.37-1.67a2.66,2.66,0,0,1-1-2.9,2.53,2.53,0,0,1,2.43-1.86h19.32V51.12h-6.46A6,6,0,0,1-183.47,45a.93.93,0,0,0-.39-.79l-2.36-1.67a2.65,2.65,0,0,1-1-2.89,2.55,2.55,0,0,1,2.43-1.87h13.67V36.28a10.18,10.18,0,0,0-5.7-9.28l-.72-.34V24.17h23.07v2.49l-.73.34a10.18,10.18,0,0,0-5.7,9.28v1.47h13.67a2.55,2.55,0,0,1,2.43,1.88,2.62,2.62,0,0,1-1,2.88l-2.36,1.67a.93.93,0,0,0-.39.79,6,6,0,0,1-5.89,6.15h-6.46v2.93h19.32a2.55,2.55,0,0,1,2.43,1.87,2.65,2.65,0,0,1-1,2.89l-2.36,1.66a1,1,0,0,0-.39.79,6,6,0,0,1-5.89,6.15H-160l-.38,2.43a7,7,0,0,0,1.46,5.57l.92,1.13a6.8,6.8,0,0,1,1.41,5.3,7.06,7.06,0,0,1-.68,2.08h28.58a2.57,2.57,0,0,1,2.53,2.6V92A2.57,2.57,0,0,1-128.72,94.56Zm-74.58-8.14a.14.14,0,0,0,0,.1V92c0,.07,0,.1,0,.1h74.57a.14.14,0,0,0,0-.1V86.52a.13.13,0,0,0,0-.1h-35.06l3.09-2.26a4.12,4.12,0,0,0,1.61-2.7,4.3,4.3,0,0,0-.89-3.35l-.91-1.12a9.58,9.58,0,0,1-2-7.54l.71-4.54h13.38a3.53,3.53,0,0,0,3.39-3.65,3.43,3.43,0,0,1,1.45-2.83l2.36-1.67a.14.14,0,0,0,0-.15l-21.85-.06V48.62h9A3.53,3.53,0,0,0-151,45a3.46,3.46,0,0,1,1.45-2.84l2.36-1.66a.15.15,0,0,0,0-.15l-16.2-.07v-4a12.93,12.93,0,0,1,4.22-9.61h-13.65a12.92,12.92,0,0,1,4.21,9.61v4h-16.17c-.05.13,0,.2,0,.22l2.36,1.66A3.46,3.46,0,0,1-181,45a3.53,3.53,0,0,0,3.39,3.65h9v7.93h-21.82c-.05.13,0,.19,0,.22l2.36,1.66a3.43,3.43,0,0,1,1.45,2.83,3.53,3.53,0,0,0,3.39,3.65h13.38l.71,4.54a9.6,9.6,0,0,1-2,7.54l-.92,1.13a4.3,4.3,0,0,0-.88,3.34,4,4,0,0,0,1.61,2.7l3.06,2.26Z"/><g class="cls-35"><path class="cls-2" d="M2256.92,1878.44H-2620.43V-2527.81H2256.92Zm-4874.35-3H2253.92V-2524.81H-2617.43Z"/></g><path class="cls-4" d="M-198.4,53.34a2.83,2.83,0,0,1,2.82-2.82,5.63,5.63,0,0,0,5.63-5.63v-7A2.82,2.82,0,0,1-187.13,35h8.45V32.23h-8.45a5.63,5.63,0,0,0-5.63,5.62v7a2.83,2.83,0,0,1-2.82,2.82,5.64,5.64,0,0,0-5.63,5.63V73.05h2.81Z"/><g class="cls-36"><rect class="cls-2" x="-2852.25" y="-2623.71" width="5338.01" height="4566.05"/></g><path class="cls-2" d="M-166,21.75a2.14,2.14,0,0,1-1.85-1.05l-3.2-5.33a2.14,2.14,0,0,1,.33-2.64l3.19-3.2a2.21,2.21,0,0,1,3.06,0l3.2,3.2a2.15,2.15,0,0,1,.32,2.64l-3.19,5.33A2.17,2.17,0,0,1-166,21.75Zm0-2.19h0Zm-.06-8.47-3.14,3.2,3.17,5.23,3.17-5.28Z"/><g class="cls-37"><path class="cls-2" d="M1841.11,1474.18H-2199.21V-1982.16H1841.11ZM-2197,1472H1838.91V-1980H-2197Z"/></g><path class="cls-4" d="M-153.34,32.22V35h8.45a2.81,2.81,0,0,1,2.82,2.81v7a5.64,5.64,0,0,0,5.63,5.64,2.82,2.82,0,0,1,2.82,2.81V73.06h2.81V53.34a5.63,5.63,0,0,0-5.63-5.63,2.81,2.81,0,0,1-2.81-2.82v-7a5.64,5.64,0,0,0-5.64-5.63Z"/><g class="cls-38"><rect class="cls-2" x="-2852.25" y="-2623.71" width="5338.01" height="4566.05"/></g><path class="cls-4" d="M-147.7,22.36h2.81a8.46,8.46,0,0,0-8.45-8.44h-2.81v2.82h2.81a5.64,5.64,0,0,1,5.64,5.62"/><g class="cls-39"><rect class="cls-2" x="-2852.25" y="-2623.71" width="5338.01" height="4566.05"/></g><path class="cls-4" d="M-178.68,16.73h2.81V13.91h-2.81a8.47,8.47,0,0,0-8.45,8.45h2.82a5.64,5.64,0,0,1,5.63-5.63"/><g class="cls-40"><rect class="cls-2" x="-2852.25" y="-2623.71" width="5338.01" height="4566.05"/></g><path class="cls-4" d="M301.16,81.25a4.47,4.47,0,0,1-6.22,0,7.62,7.62,0,0,0-10.07,0,4.46,4.46,0,0,1-6.21,0,7.61,7.61,0,0,0-10.06,0,4.36,4.36,0,0,1-3.1,1.26,3.86,3.86,0,0,1-1.81-.39V40h22v3.15h3.15V40h1.57a3.15,3.15,0,0,0,3.15-3.14V33.69a3.16,3.16,0,0,0-3.15-3.15h-.08A29.91,29.91,0,0,0,262.11,2.28V.63a4.73,4.73,0,1,0-9.45,0V2.28a29.9,29.9,0,0,0-28.25,28.26h-.09a3.16,3.16,0,0,0-3.15,3.15v3.16A3.15,3.15,0,0,0,224.32,40h1.58v3.15h3.15V40h22v42.1a3.94,3.94,0,0,1-1.86.42,4.39,4.39,0,0,1-3.11-1.26,7.61,7.61,0,0,0-10.06,0,4.34,4.34,0,0,1-3.1,1.26,4.4,4.4,0,0,1-3.1-1.25,7.58,7.58,0,0,0-10.05,0,4.46,4.46,0,0,1-6.21,0,7.43,7.43,0,0,0-5-1.9v3.16a4.4,4.4,0,0,1,3.11,1.24,7.59,7.59,0,0,0,10,0,4.51,4.51,0,0,1,6.21,0,7.59,7.59,0,0,0,10.05,0,4.5,4.5,0,0,1,6.2,0,7.62,7.62,0,0,0,10.07,0,4.51,4.51,0,0,1,6.21,0,7.61,7.61,0,0,0,10.06,0,4.51,4.51,0,0,1,6.21,0,7.61,7.61,0,0,0,10.06,0,4.51,4.51,0,0,1,6.21,0,7.63,7.63,0,0,0,10.08,0,4.4,4.4,0,0,1,3.11-1.24V79.35A7.48,7.48,0,0,0,301.16,81.25ZM257.39-.95A1.58,1.58,0,0,1,259,.63V2.2h-3.14V.63A1.57,1.57,0,0,1,257.39-.95Zm-4.33,6.36a37.25,37.25,0,0,0-8.33,11.91l2.89,1.26A33.71,33.71,0,0,1,257.39,5.8a33.55,33.55,0,0,1,12.55,24.74H244.85a34,34,0,0,1,1.62-8.95l-3-1a37.28,37.28,0,0,0-1.78,9.93H227.55A26.76,26.76,0,0,1,253.06,5.41ZM224.32,33.69h53.53V30.54h-4.76A36.67,36.67,0,0,0,261.73,5.41a26.78,26.78,0,0,1,25.5,25.13H281v3.15h9.44v3.16H224.32Zm33,45.66a7.06,7.06,0,0,0-3.13.67V40h6.3V80A7,7,0,0,0,257.36,79.35Z"/><g class="cls-41"><rect class="cls-2" x="-2539.44" y="-2406.08" width="5224.37" height="4468.85"/></g><path class="cls-4" d="M298.05,90.38a4.42,4.42,0,0,1-3.11-1.25,7.59,7.59,0,0,0-10.07,0,4.48,4.48,0,0,1-6.21,0,7.58,7.58,0,0,0-10.06,0,4.48,4.48,0,0,1-6.21,0,7.58,7.58,0,0,0-10.06,0,4.48,4.48,0,0,1-6.21,0,7.58,7.58,0,0,0-10.06,0,4.46,4.46,0,0,1-6.19,0,7.58,7.58,0,0,0-10.06,0,4.42,4.42,0,0,1-3.11,1.25,4.37,4.37,0,0,1-3.09-1.25,7.42,7.42,0,0,0-5-1.91v3.16a4.39,4.39,0,0,1,3.1,1.24,7.59,7.59,0,0,0,10,0,4.51,4.51,0,0,1,6.21,0,7.59,7.59,0,0,0,10.05,0,4.42,4.42,0,0,1,3.11-1.24,4.37,4.37,0,0,1,3.09,1.24,7.62,7.62,0,0,0,10.07,0,4.51,4.51,0,0,1,6.21,0,7.61,7.61,0,0,0,10.06,0,4.51,4.51,0,0,1,6.21,0,7.61,7.61,0,0,0,10.06,0,4.51,4.51,0,0,1,6.21,0,7.62,7.62,0,0,0,10.07,0,4.44,4.44,0,0,1,3.12-1.24V87.22a7.43,7.43,0,0,0-5,1.91,4.4,4.4,0,0,1-3.11,1.25"/><g class="cls-42"><rect class="cls-2" x="-2539.44" y="-2406.08" width="5224.37" height="4468.85"/></g><path class="cls-4" d="M266.83,71.48a4.73,4.73,0,1,0,9.45,0V68.33h-3.15v3.15a1.57,1.57,0,0,1-3.14,0v-22h-3.16Z"/><g class="cls-43"><rect class="cls-2" x="-2539.44" y="-2406.08" width="5224.37" height="4468.85"/></g><path class="cls-4" d="M288.88,60.46V52.59h-3.16v7.87a1.57,1.57,0,0,1-3.14,0V47.86a4.73,4.73,0,0,0-9.45,0v4.73h3.15V47.86a1.58,1.58,0,0,1,3.15,0v12.6a4.73,4.73,0,0,0,9.45,0"/><g class="cls-44"><rect class="cls-2" x="-2539.44" y="-2406.08" width="5224.37" height="4468.85"/></g><path class="cls-4" d="M244.79,71.48a1.58,1.58,0,0,1-3.15,0V68.33h-3.15v3.15a4.73,4.73,0,1,0,9.45,0v-22h-3.15Z"/><g class="cls-45"><rect class="cls-2" x="-2539.44" y="-2406.08" width="5224.37" height="4468.85"/></g><path class="cls-4" d="M225.9,60.46a4.73,4.73,0,0,0,9.45,0V47.86a1.57,1.57,0,0,1,3.14,0v4.73h3.15V47.86a4.73,4.73,0,0,0-9.45,0v12.6a1.57,1.57,0,1,1-3.14,0V52.59H225.9Z"/><g class="cls-46"><rect class="cls-2" x="-2539.44" y="-2406.08" width="5224.37" height="4468.85"/></g><path class="cls-4" d="M216.45,71.48a18,18,0,0,1,5.64.91L227,74.05l-2.65-6.64A8.51,8.51,0,0,0,216.45,62a4.73,4.73,0,0,0,0,9.45m0-6.3a5.4,5.4,0,0,1,5,3.4l.16.4a21,21,0,0,0-5.18-.64,1.58,1.58,0,0,1,0-3.16"/><g class="cls-47"><rect class="cls-2" x="-2539.44" y="-2406.08" width="5224.37" height="4468.85"/></g><path class="cls-4" d="M290.38,67.41l-2.65,6.64,4.95-1.65a17.77,17.77,0,0,1,5.64-.92,4.73,4.73,0,1,0,0-9.45A8.52,8.52,0,0,0,290.38,67.41Zm2.93,1.17a5.36,5.36,0,0,1,5-3.4,1.58,1.58,0,1,1,0,3.15,20.93,20.93,0,0,0-5.17.65Z"/><g class="cls-48"><rect class="cls-2" x="-2539.44" y="-2406.08" width="5224.37" height="4468.85"/></g><path class="cls-2" d="M41.6,17.71h3.49V21.2a1.37,1.37,0,0,0,2.73,0V17.71h3.5a1.36,1.36,0,0,0,0-2.72h-3.5v-3.5a1.37,1.37,0,0,0-2.73,0V15H41.6a1.36,1.36,0,1,0,0,2.72Zm0,0"/><path class="cls-2" d="M33.9,37H27.32a2.1,2.1,0,0,0-2.09,2.1v6.58a2.1,2.1,0,0,0,2.09,2.09H33.9A2.1,2.1,0,0,0,36,45.72V39.14A2.1,2.1,0,0,0,33.9,37Zm-.63,8H28V39.77h5.32Zm0,0"/><path class="cls-2" d="M49.75,37H43.17a2.09,2.09,0,0,0-2.09,2.1v6.58a2.09,2.09,0,0,0,2.09,2.09h6.58a2.1,2.1,0,0,0,2.09-2.09V39.14A2.1,2.1,0,0,0,49.75,37Zm-.63,8H43.8V39.77h5.32Zm0,0"/><path class="cls-2" d="M65.59,37H59a2.1,2.1,0,0,0-2.09,2.1v6.58A2.1,2.1,0,0,0,59,47.81h6.58a2.09,2.09,0,0,0,2.09-2.09V39.14A2.09,2.09,0,0,0,65.59,37Zm-.63,8H59.64V39.77H65Zm0,0"/><path class="cls-2" d="M33.9,51.48H27.32a2.1,2.1,0,0,0-2.09,2.09v6.58a2.1,2.1,0,0,0,2.09,2.09H33.9A2.1,2.1,0,0,0,36,60.15V53.57a2.1,2.1,0,0,0-2.09-2.09Zm-.63,8H28V54.2h5.32Zm0,0"/><path class="cls-2" d="M49.75,51.48H43.17a2.09,2.09,0,0,0-2.09,2.09v6.58a2.09,2.09,0,0,0,2.09,2.09h6.58a2.1,2.1,0,0,0,2.09-2.09V53.57a2.1,2.1,0,0,0-2.09-2.09Zm-.63,8H43.8V54.2h5.32Zm0,0"/><path class="cls-2" d="M65.59,51.48H59a2.1,2.1,0,0,0-2.09,2.09v6.58A2.1,2.1,0,0,0,59,62.24h6.58a2.09,2.09,0,0,0,2.09-2.09V53.57a2.09,2.09,0,0,0-2.09-2.09Zm-.63,8H59.64V54.2H65Zm0,0"/><path class="cls-2" d="M90.83,36.06H77.48V28.43H78.6a2.21,2.21,0,0,0,2.21-2.21V18.77a2.21,2.21,0,0,0-2.21-2.21H62.8v-.21a16.35,16.35,0,1,0-32.69,0v.21H14.31a2.21,2.21,0,0,0-2.21,2.21v7.45a2.21,2.21,0,0,0,2.21,2.21h1.13v7.63H2.08A2.08,2.08,0,0,0,0,38.14v5.63a2.08,2.08,0,0,0,2.08,2.08h.38V90.92a2,2,0,0,0,2,2h84a2,2,0,0,0,2-2V45.85h.38a2.09,2.09,0,0,0,2.09-2.08V38.14a2.09,2.09,0,0,0-2.09-2.08ZM15.44,90.19H5.18V83.45H15.44Zm0-9.46H5.18V69.12H15.44Zm0-14.33H5.18V45.85H15.44Zm0-23.28H2.72V38.78H15.44ZM78.08,19.29v6.42H59.85a16.36,16.36,0,0,0,2.69-6.42ZM46.46,2.72A13.63,13.63,0,1,1,32.83,16.35,13.64,13.64,0,0,1,46.46,2.72Zm-31.63,23V19.29H30.37a16.36,16.36,0,0,0,2.69,6.42ZM45.09,90.19H36.35V75.54h8.74Zm11.47,0H47.82V75.54h8.74Zm31.17,0H77.48V83.45H87.73Zm0-9.46H77.48V69.12H87.73Zm0-14.33H77.48V61.2a1.36,1.36,0,0,0-2.72,0v29H59.28V75.54h.34a4.25,4.25,0,1,0,0-8.5H49.48a1.37,1.37,0,0,0,0,2.73H59.62a1.53,1.53,0,1,1,0,3H33.29a1.53,1.53,0,0,1,0-3H43.2a1.37,1.37,0,0,0,0-2.73H33.29a4.25,4.25,0,1,0,0,8.5h.34V90.19H18.16V28.43h17.3a16.32,16.32,0,0,0,22,0H74.76V60.9c0,.75.6,3.75,1.36,3.75a1.36,1.36,0,0,0,1.36-1.36V45.85H87.73Zm2.46-23.28H77.48V38.78H90.19Zm0,0"/></svg>