<svg id="Layer_1" data-name="Layer 1" xmlns="http://www.w3.org/2000/svg" xmlns:xlink="http://www.w3.org/1999/xlink" viewBox="0 0 64.51 90.66"><defs><style>.cls-1,.cls-2,.cls-3{fill:#fff;}.cls-1{clip-rule:evenodd;}.cls-3{fill-rule:evenodd;}.cls-4{clip-path:url(#clip-path);}.cls-5{clip-path:url(#clip-path-2);}.cls-6{clip-path:url(#clip-path-3);}.cls-7{clip-path:url(#clip-path-4);}.cls-8{clip-path:url(#clip-path-5);}.cls-9{clip-path:url(#clip-path-6);}.cls-10{clip-path:url(#clip-path-7);}.cls-11{clip-path:url(#clip-path-8);}.cls-12{clip-path:url(#clip-path-9);}.cls-13{clip-path:url(#clip-path-10);}.cls-14{clip-path:url(#clip-path-11);}.cls-15{clip-path:url(#clip-path-12);}.cls-16{clip-path:url(#clip-path-13);}.cls-17{clip-path:url(#clip-path-14);}.cls-18{clip-path:url(#clip-path-15);}.cls-19{clip-path:url(#clip-path-16);}.cls-20{clip-path:url(#clip-path-17);}.cls-21{clip-path:url(#clip-path-18);}.cls-22{clip-path:url(#clip-path-19);}.cls-23{clip-path:url(#clip-path-20);}.cls-24{clip-path:url(#clip-path-21);}.cls-25{clip-path:url(#clip-path-22);}</style><clipPath id="clip-path"><path class="cls-1" d="M-648,85.93h15.91V76H-648Zm17.9,4H-650a2,2,0,0,1-2-2V74a2,2,0,0,1,2-2h19.89a2,2,0,0,1,2,2V87.92A2,2,0,0,1-630.1,89.91Z"/></clipPath><clipPath id="clip-path-2"><path class="cls-1" d="M-657.95,85.93h35.8V-1.59h-35.8Zm37.8,4h-39.79a2,2,0,0,1-2-2V-3.58a2,2,0,0,1,2-2h39.79a2,2,0,0,1,2,2v91.5A2,2,0,0,1-620.15,89.91Z"/></clipPath><clipPath id="clip-path-3"><path class="cls-1" d="M-673.86,85.93h11.93V6.37h-11.93Zm13.92,4h-15.91a2,2,0,0,1-2-2V4.38a2,2,0,0,1,2-2h15.91a2,2,0,0,1,2,2V87.92A2,2,0,0,1-659.94,89.91Z"/></clipPath><clipPath id="clip-path-4"><path class="cls-1" d="M-618.17,85.93h11.93V6.37h-11.93Zm13.93,4h-15.92a2,2,0,0,1-2-2V4.38a2,2,0,0,1,2-2h15.92a2,2,0,0,1,2,2V87.92A2,2,0,0,1-604.24,89.91Z"/></clipPath><clipPath id="clip-path-5"><rect class="cls-2" x="-691.76" y="46.15" width="3.98" height="19.89" transform="translate(-320.58 -529.25) rotate(-53.11)"/></clipPath><clipPath id="clip-path-6"><rect class="cls-2" x="-699.72" y="54.11" width="19.89" height="3.98" transform="translate(-171.68 -402.72) rotate(-36.88)"/></clipPath><clipPath id="clip-path-7"><rect class="cls-2" x="-592.31" y="46.15" width="3.97" height="19.89" transform="translate(-280.89 -449.75) rotate(-53.12)"/></clipPath><clipPath id="clip-path-8"><rect class="cls-2" x="-600.27" y="54.12" width="19.89" height="3.97" transform="translate(-151.57 -342.8) rotate(-36.85)"/></clipPath><clipPath id="clip-path-9"><path class="cls-2" d="M-1153,90.38h-74.57a2.56,2.56,0,0,1-2.53-2.6V82.34a2.57,2.57,0,0,1,2.53-2.6H-1199a6.67,6.67,0,0,1-.67-2.08,6.76,6.76,0,0,1,1.41-5.3l.92-1.13a7.12,7.12,0,0,0,1.46-5.57l-.39-2.43h-11.24a6,6,0,0,1-5.89-6.15.94.94,0,0,0-.38-.78l-2.37-1.67a2.64,2.64,0,0,1-1-2.9,2.53,2.53,0,0,1,2.43-1.86h19.32V46.94h-6.47a6,6,0,0,1-5.88-6.15,1,1,0,0,0-.39-.79l-2.37-1.67a2.63,2.63,0,0,1-1-2.89,2.54,2.54,0,0,1,2.43-1.87h13.67V32.11a10.18,10.18,0,0,0-5.7-9.29l-.73-.34V20h23.07v2.49l-.72.34a10.17,10.17,0,0,0-5.7,9.29v1.46h13.67a2.56,2.56,0,0,1,2.43,1.88,2.63,2.63,0,0,1-1,2.88l-2.37,1.67a1,1,0,0,0-.39.79,6,6,0,0,1-5.88,6.15h-6.46v2.93h19.31a2.57,2.57,0,0,1,2.44,1.87,2.65,2.65,0,0,1-1,2.89l-2.37,1.67a1,1,0,0,0-.39.78,6,6,0,0,1-5.88,6.15h-11.24l-.39,2.43a7.05,7.05,0,0,0,1.47,5.57l.91,1.13a6.8,6.8,0,0,1,1.41,5.3,6.52,6.52,0,0,1-.68,2.08H-1153a2.57,2.57,0,0,1,2.53,2.6v5.44A2.56,2.56,0,0,1-1153,90.38Zm-74.57-8.14a.18.18,0,0,0,0,.1v5.44a.14.14,0,0,0,0,.11H-1153a.14.14,0,0,0,0-.1V82.34a.14.14,0,0,0,0-.1h-35.07L-1185,80a4.11,4.11,0,0,0,1.6-2.7,4.23,4.23,0,0,0-.88-3.34l-.91-1.13a9.55,9.55,0,0,1-2-7.54l.72-4.54h13.38a3.53,3.53,0,0,0,3.38-3.65,3.44,3.44,0,0,1,1.46-2.83l2.36-1.67a.15.15,0,0,0,0-.15l-21.84-.06V44.44h9a3.53,3.53,0,0,0,3.38-3.65,3.44,3.44,0,0,1,1.46-2.84l2.36-1.66a.16.16,0,0,0,0-.15l-16.19-.07v-4a12.94,12.94,0,0,1,4.21-9.62h-13.65a13,13,0,0,1,4.22,9.62v4h-16.17c0,.13,0,.2,0,.22l2.36,1.66a3.49,3.49,0,0,1,1.45,2.84,3.53,3.53,0,0,0,3.38,3.65h9v7.93h-21.82c0,.13,0,.2,0,.22l2.36,1.66a3.46,3.46,0,0,1,1.44,2.83,3.54,3.54,0,0,0,3.39,3.65h13.38l.72,4.54a9.63,9.63,0,0,1-2,7.54l-.92,1.13a4.23,4.23,0,0,0-.88,3.34,4.07,4.07,0,0,0,1.6,2.7l3.07,2.26Z"/></clipPath><clipPath id="clip-path-10"><path class="cls-1" d="M-1222.67,49.16a2.81,2.81,0,0,1,2.82-2.81,5.64,5.64,0,0,0,5.63-5.63v-7a2.81,2.81,0,0,1,2.81-2.82h8.45V28.05h-8.45a5.64,5.64,0,0,0-5.63,5.63v7a2.82,2.82,0,0,1-2.81,2.82,5.64,5.64,0,0,0-5.64,5.62V68.88h2.82Z"/></clipPath><clipPath id="clip-path-11"><path class="cls-2" d="M-1190.28,17.57a2.15,2.15,0,0,1-1.86-1.05l-3.2-5.33a2.15,2.15,0,0,1,.33-2.64l3.2-3.2a2.2,2.2,0,0,1,3,0l3.2,3.2a2.15,2.15,0,0,1,.33,2.64l-3.2,5.33A2.17,2.17,0,0,1-1190.28,17.57Zm0-2.18Zm-.06-8.48-3.15,3.2,3.18,5.23,3.16-5.28Z"/></clipPath><clipPath id="clip-path-12"><path class="cls-1" d="M-1177.61,28.05v2.81h8.44a2.81,2.81,0,0,1,2.82,2.81v7a5.64,5.64,0,0,0,5.63,5.63,2.81,2.81,0,0,1,2.82,2.81V68.88h2.82V49.16a5.64,5.64,0,0,0-5.64-5.63,2.81,2.81,0,0,1-2.81-2.81v-7a5.64,5.64,0,0,0-5.64-5.62Z"/></clipPath><clipPath id="clip-path-13"><path class="cls-1" d="M-1172,18.19h2.82a8.46,8.46,0,0,0-8.45-8.45h-2.82v2.82h2.82a5.64,5.64,0,0,1,5.63,5.63"/></clipPath><clipPath id="clip-path-14"><path class="cls-1" d="M-1203,12.56h2.82V9.74H-1203a8.45,8.45,0,0,0-8.44,8.44h2.81a5.63,5.63,0,0,1,5.63-5.62"/></clipPath><clipPath id="clip-path-15"><path class="cls-1" d="M-723.12,77.08a4.4,4.4,0,0,1-3.1,1.25,4.4,4.4,0,0,1-3.11-1.25,7.45,7.45,0,0,0-5-1.91,7.4,7.4,0,0,0-5,1.91,4.42,4.42,0,0,1-3.11,1.25,4.4,4.4,0,0,1-3.1-1.25,7.42,7.42,0,0,0-5-1.91,7.4,7.4,0,0,0-5,1.91,4.42,4.42,0,0,1-3.11,1.25,4,4,0,0,1-1.81-.38V35.81h22V39h3.15V35.81h1.58a3.15,3.15,0,0,0,3.15-3.14V29.51a3.16,3.16,0,0,0-3.15-3.15h-.08A29.92,29.92,0,0,0-762.16-1.9V-3.55a4.74,4.74,0,0,0-4.73-4.73,4.74,4.74,0,0,0-4.72,4.73V-1.9a29.91,29.91,0,0,0-28.26,28.26h-.08a3.16,3.16,0,0,0-3.15,3.15v3.16a3.15,3.15,0,0,0,3.15,3.14h1.57V39h3.15V35.81h22.05V77.92a4.08,4.08,0,0,1-1.87.41,4.38,4.38,0,0,1-3.1-1.25,7.42,7.42,0,0,0-5-1.91,7.38,7.38,0,0,0-5,1.91,4.42,4.42,0,0,1-3.11,1.25,4.37,4.37,0,0,1-3.09-1.25,7.42,7.42,0,0,0-5-1.91,7.4,7.4,0,0,0-5,1.91,4.4,4.4,0,0,1-3.1,1.25,4.4,4.4,0,0,1-3.1-1.25,7.4,7.4,0,0,0-5-1.91v3.16a4.39,4.39,0,0,1,3.1,1.24,7.47,7.47,0,0,0,5,1.9,7.37,7.37,0,0,0,5-1.9,4.43,4.43,0,0,1,3.11-1.24,4.39,4.39,0,0,1,3.1,1.24,7.37,7.37,0,0,0,5,1.9,7.38,7.38,0,0,0,5-1.9,4.42,4.42,0,0,1,3.11-1.24,4.41,4.41,0,0,1,3.1,1.24,7.42,7.42,0,0,0,5,1.9,7.38,7.38,0,0,0,5-1.9,4.42,4.42,0,0,1,3.11-1.24,4.39,4.39,0,0,1,3.1,1.24,7.42,7.42,0,0,0,5,1.9,7.4,7.4,0,0,0,5-1.9,4.42,4.42,0,0,1,3.11-1.24,4.43,4.43,0,0,1,3.11,1.24,7.37,7.37,0,0,0,5,1.9,7.43,7.43,0,0,0,5-1.9,4.37,4.37,0,0,1,3.1-1.24,4.4,4.4,0,0,1,3.11,1.24,7.43,7.43,0,0,0,5,1.9,7.4,7.4,0,0,0,5-1.9,4.42,4.42,0,0,1,3.11-1.24V75.17A7.45,7.45,0,0,0-723.12,77.08Zm-43.77-82.2a1.57,1.57,0,0,1,1.58,1.57V-2h-3.15V-3.55A1.57,1.57,0,0,1-766.89-5.12Zm-4.32,6.35a37.25,37.25,0,0,0-8.33,11.91l2.88,1.26a34,34,0,0,1,9.77-12.78,33.59,33.59,0,0,1,12.56,24.74h-25.09a34.09,34.09,0,0,1,1.61-8.95l-3-1a36.57,36.57,0,0,0-1.78,9.93h-14.16A26.77,26.77,0,0,1-771.21,1.23Zm-28.74,28.28h53.53V26.36h-4.77A36.65,36.65,0,0,0-762.55,1.23,26.77,26.77,0,0,1-737,26.36h-6.22v3.15h9.45v3.16h-66.13Zm33,45.66a7,7,0,0,0-3.13.67v-40h6.3V75.86A7,7,0,0,0-766.91,75.17Z"/></clipPath><clipPath id="clip-path-16"><path class="cls-1" d="M-726.22,86.2A4.4,4.4,0,0,1-729.33,85a7.48,7.48,0,0,0-5-1.91,7.43,7.43,0,0,0-5,1.91,4.42,4.42,0,0,1-3.11,1.25,4.4,4.4,0,0,1-3.1-1.25,7.47,7.47,0,0,0-5-1.91,7.5,7.5,0,0,0-5,1.91,4.38,4.38,0,0,1-3.1,1.25,4.4,4.4,0,0,1-3.1-1.25,7.48,7.48,0,0,0-5-1.91,7.44,7.44,0,0,0-5,1.91A4.43,4.43,0,0,1-775,86.2,4.42,4.42,0,0,1-778.15,85a7.47,7.47,0,0,0-5-1.91,7.48,7.48,0,0,0-5,1.91,4.37,4.37,0,0,1-3.09,1.25,4.38,4.38,0,0,1-3.1-1.25,7.47,7.47,0,0,0-5-1.91,7.43,7.43,0,0,0-5,1.91,4.4,4.4,0,0,1-3.1,1.25,4.38,4.38,0,0,1-3.1-1.25,7.45,7.45,0,0,0-5-1.91V86.2a4.37,4.37,0,0,1,3.1,1.24,7.42,7.42,0,0,0,5,1.91,7.42,7.42,0,0,0,5-1.91,4.39,4.39,0,0,1,3.1-1.24,4.39,4.39,0,0,1,3.1,1.24,7.38,7.38,0,0,0,5,1.91,7.42,7.42,0,0,0,5-1.91,4.39,4.39,0,0,1,3.1-1.24,4.39,4.39,0,0,1,3.1,1.24,7.41,7.41,0,0,0,5,1.91,7.39,7.39,0,0,0,5-1.91,4.39,4.39,0,0,1,3.1-1.24,4.4,4.4,0,0,1,3.11,1.24,7.42,7.42,0,0,0,5,1.91,7.45,7.45,0,0,0,5-1.91,4.37,4.37,0,0,1,3.1-1.24,4.39,4.39,0,0,1,3.1,1.24,7.42,7.42,0,0,0,5,1.91,7.42,7.42,0,0,0,5-1.91,4.42,4.42,0,0,1,3.11-1.24,4.42,4.42,0,0,1,3.11,1.24,7.43,7.43,0,0,0,5,1.91,7.42,7.42,0,0,0,5-1.91,4.42,4.42,0,0,1,3.11-1.24V83a7.45,7.45,0,0,0-5,1.91,4.42,4.42,0,0,1-3.11,1.25"/></clipPath><clipPath id="clip-path-17"><path class="cls-1" d="M-757.44,67.3A4.73,4.73,0,0,0-752.72,72,4.73,4.73,0,0,0-748,67.3V64.15h-3.15V67.3a1.58,1.58,0,0,1-1.58,1.58,1.58,1.58,0,0,1-1.57-1.58v-22h-3.15Z"/></clipPath><clipPath id="clip-path-18"><path class="cls-1" d="M-735.4,56.28V48.41h-3.15v7.87a1.57,1.57,0,0,1-1.57,1.58,1.57,1.57,0,0,1-1.57-1.58V43.68A4.73,4.73,0,0,0-746.42,39a4.74,4.74,0,0,0-4.73,4.72v4.73H-748V43.68a1.57,1.57,0,0,1,1.57-1.57,1.57,1.57,0,0,1,1.57,1.57v12.6A4.74,4.74,0,0,0-740.12,61a4.72,4.72,0,0,0,4.72-4.73"/></clipPath><clipPath id="clip-path-19"><path class="cls-1" d="M-779.48,67.3a1.58,1.58,0,0,1-1.58,1.58,1.58,1.58,0,0,1-1.58-1.58V64.15h-3.14V67.3A4.73,4.73,0,0,0-781.06,72a4.74,4.74,0,0,0,4.73-4.73v-22h-3.15Z"/></clipPath><clipPath id="clip-path-20"><path class="cls-1" d="M-798.38,56.28A4.73,4.73,0,0,0-793.65,61a4.73,4.73,0,0,0,4.72-4.73V43.68a1.57,1.57,0,0,1,1.58-1.57,1.58,1.58,0,0,1,1.57,1.57v4.73h3.15V43.68A4.73,4.73,0,0,0-787.35,39a4.73,4.73,0,0,0-4.73,4.72v12.6a1.58,1.58,0,0,1-1.57,1.58,1.57,1.57,0,0,1-1.57-1.58V48.41h-3.16Z"/></clipPath><clipPath id="clip-path-21"><path class="cls-1" d="M-807.82,67.3a17.77,17.77,0,0,1,5.64.92l4.95,1.65-2.65-6.63a8.52,8.52,0,0,0-7.94-5.38,4.73,4.73,0,0,0-4.73,4.72,4.73,4.73,0,0,0,4.73,4.72m0-6.3a5.37,5.37,0,0,1,5,3.4l.16.4a20.92,20.92,0,0,0-5.17-.64,1.59,1.59,0,0,1-1.58-1.58A1.58,1.58,0,0,1-807.82,61"/></clipPath><clipPath id="clip-path-22"><path class="cls-1" d="M-733.89,63.23l-2.66,6.64,5-1.65a17.73,17.73,0,0,1,5.64-.92,4.73,4.73,0,0,0,4.72-4.72,4.73,4.73,0,0,0-4.72-4.72A8.51,8.51,0,0,0-733.89,63.23ZM-731,64.4a5.36,5.36,0,0,1,5-3.39,1.57,1.57,0,0,1,1.57,1.57,1.57,1.57,0,0,1-1.57,1.57,21,21,0,0,0-5.18.65Z"/></clipPath></defs><path class="cls-3" d="M-648,85.93h15.91V76H-648Zm17.9,4H-650a2,2,0,0,1-2-2V74a2,2,0,0,1,2-2h19.89a2,2,0,0,1,2,2V87.92A2,2,0,0,1-630.1,89.91Z"/><g class="cls-4"><rect class="cls-2" x="-1916.54" y="-3706.72" width="5804.01" height="4970.61"/></g><path class="cls-3" d="M-657.95,85.93h35.8V-1.59h-35.8Zm37.8,4h-39.79a2,2,0,0,1-2-2V-3.58a2,2,0,0,1,2-2h39.79a2,2,0,0,1,2,2v91.5A2,2,0,0,1-620.15,89.91Z"/><g class="cls-5"><rect class="cls-2" x="-1916.54" y="-3706.72" width="5804.01" height="4964.66"/></g><path class="cls-3" d="M-673.86,85.93h11.93V6.37h-11.93Zm13.92,4h-15.91a2,2,0,0,1-2-2V4.38a2,2,0,0,1,2-2h15.91a2,2,0,0,1,2,2V87.92A2,2,0,0,1-659.94,89.91Z"/><g class="cls-6"><rect class="cls-2" x="-1916.54" y="-3706.72" width="5804.01" height="4964.66"/></g><path class="cls-3" d="M-618.17,85.93h11.93V6.37h-11.93Zm13.93,4h-15.92a2,2,0,0,1-2-2V4.38a2,2,0,0,1,2-2h15.92a2,2,0,0,1,2,2V87.92A2,2,0,0,1-604.24,89.91Z"/><g class="cls-7"><rect class="cls-2" x="-1916.54" y="-3706.72" width="5804.01" height="4964.66"/></g><rect class="cls-2" x="-691.76" y="46.15" width="3.98" height="19.89" transform="translate(-320.58 -529.25) rotate(-53.11)"/><g class="cls-8"><rect class="cls-2" x="-1916.54" y="-3706.72" width="5804.01" height="4964.66"/></g><rect class="cls-2" x="-699.72" y="54.11" width="19.89" height="3.98" transform="translate(-171.68 -402.72) rotate(-36.88)"/><g class="cls-9"><rect class="cls-2" x="-1916.54" y="-3706.72" width="5804.01" height="4964.66"/></g><rect class="cls-2" x="-592.31" y="46.15" width="3.97" height="19.89" transform="translate(-280.89 -449.75) rotate(-53.12)"/><g class="cls-10"><rect class="cls-2" x="-1916.54" y="-3706.72" width="5804.01" height="4964.66"/></g><rect class="cls-2" x="-600.27" y="54.12" width="19.89" height="3.97" transform="translate(-151.57 -342.8) rotate(-36.85)"/><g class="cls-11"><rect class="cls-2" x="-1916.54" y="-3706.72" width="5804.01" height="4964.66"/></g><path class="cls-2" d="M-1153,90.38h-74.57a2.56,2.56,0,0,1-2.53-2.6V82.34a2.57,2.57,0,0,1,2.53-2.6H-1199a6.67,6.67,0,0,1-.67-2.08,6.76,6.76,0,0,1,1.41-5.3l.92-1.13a7.12,7.12,0,0,0,1.46-5.57l-.39-2.43h-11.24a6,6,0,0,1-5.89-6.15.94.94,0,0,0-.38-.78l-2.37-1.67a2.64,2.64,0,0,1-1-2.9,2.53,2.53,0,0,1,2.43-1.86h19.32V46.94h-6.47a6,6,0,0,1-5.88-6.15,1,1,0,0,0-.39-.79l-2.37-1.67a2.63,2.63,0,0,1-1-2.89,2.54,2.54,0,0,1,2.43-1.87h13.67V32.11a10.18,10.18,0,0,0-5.7-9.29l-.73-.34V20h23.07v2.49l-.72.34a10.17,10.17,0,0,0-5.7,9.29v1.46h13.67a2.56,2.56,0,0,1,2.43,1.88,2.63,2.63,0,0,1-1,2.88l-2.37,1.67a1,1,0,0,0-.39.79,6,6,0,0,1-5.88,6.15h-6.46v2.93h19.31a2.57,2.57,0,0,1,2.44,1.87,2.65,2.65,0,0,1-1,2.89l-2.37,1.67a1,1,0,0,0-.39.78,6,6,0,0,1-5.88,6.15h-11.24l-.39,2.43a7.05,7.05,0,0,0,1.47,5.57l.91,1.13a6.8,6.8,0,0,1,1.41,5.3,6.52,6.52,0,0,1-.68,2.08H-1153a2.57,2.57,0,0,1,2.53,2.6v5.44A2.56,2.56,0,0,1-1153,90.38Zm-74.57-8.14a.18.18,0,0,0,0,.1v5.44a.14.14,0,0,0,0,.11H-1153a.14.14,0,0,0,0-.1V82.34a.14.14,0,0,0,0-.1h-35.07L-1185,80a4.11,4.11,0,0,0,1.6-2.7,4.23,4.23,0,0,0-.88-3.34l-.91-1.13a9.55,9.55,0,0,1-2-7.54l.72-4.54h13.38a3.53,3.53,0,0,0,3.38-3.65,3.44,3.44,0,0,1,1.46-2.83l2.36-1.67a.15.15,0,0,0,0-.15l-21.84-.06V44.44h9a3.53,3.53,0,0,0,3.38-3.65,3.44,3.44,0,0,1,1.46-2.84l2.36-1.66a.16.16,0,0,0,0-.15l-16.19-.07v-4a12.94,12.94,0,0,1,4.21-9.62h-13.65a13,13,0,0,1,4.22,9.62v4h-16.17c0,.13,0,.2,0,.22l2.36,1.66a3.49,3.49,0,0,1,1.45,2.84,3.53,3.53,0,0,0,3.38,3.65h9v7.93h-21.82c0,.13,0,.2,0,.22l2.36,1.66a3.46,3.46,0,0,1,1.44,2.83,3.54,3.54,0,0,0,3.39,3.65h13.38l.72,4.54a9.63,9.63,0,0,1-2,7.54l-.92,1.13a4.23,4.23,0,0,0-.88,3.34,4.07,4.07,0,0,0,1.6,2.7l3.07,2.26Z"/><g class="cls-12"><path class="cls-2" d="M1232.65,1874.27H-3644.7V-2532H1232.65Zm-4874.35-3H1229.65V-2529H-3641.7Z"/></g><path class="cls-3" d="M-1222.67,49.16a2.81,2.81,0,0,1,2.82-2.81,5.64,5.64,0,0,0,5.63-5.63v-7a2.81,2.81,0,0,1,2.81-2.82h8.45V28.05h-8.45a5.64,5.64,0,0,0-5.63,5.63v7a2.82,2.82,0,0,1-2.81,2.82,5.64,5.64,0,0,0-5.64,5.62V68.88h2.82Z"/><g class="cls-13"><rect class="cls-2" x="-3876.53" y="-2627.89" width="5338.01" height="4566.05"/></g><path class="cls-2" d="M-1190.28,17.57a2.15,2.15,0,0,1-1.86-1.05l-3.2-5.33a2.15,2.15,0,0,1,.33-2.64l3.2-3.2a2.2,2.2,0,0,1,3,0l3.2,3.2a2.15,2.15,0,0,1,.33,2.64l-3.2,5.33A2.17,2.17,0,0,1-1190.28,17.57Zm0-2.18Zm-.06-8.48-3.15,3.2,3.18,5.23,3.16-5.28Z"/><g class="cls-14"><path class="cls-2" d="M816.83,1470H-3223.49V-1986.34H816.83Zm-4038.12-2.2H814.63V-1984.14H-3221.29Z"/></g><path class="cls-3" d="M-1177.61,28.05v2.81h8.44a2.81,2.81,0,0,1,2.82,2.81v7a5.64,5.64,0,0,0,5.63,5.63,2.81,2.81,0,0,1,2.82,2.81V68.88h2.82V49.16a5.64,5.64,0,0,0-5.64-5.63,2.81,2.81,0,0,1-2.81-2.81v-7a5.64,5.64,0,0,0-5.64-5.62Z"/><g class="cls-15"><rect class="cls-2" x="-3876.53" y="-2627.89" width="5338.01" height="4566.05"/></g><path class="cls-3" d="M-1172,18.19h2.82a8.46,8.46,0,0,0-8.45-8.45h-2.82v2.82h2.82a5.64,5.64,0,0,1,5.63,5.63"/><g class="cls-16"><rect class="cls-2" x="-3876.53" y="-2627.89" width="5338.01" height="4566.05"/></g><path class="cls-3" d="M-1203,12.56h2.82V9.74H-1203a8.45,8.45,0,0,0-8.44,8.44h2.81a5.63,5.63,0,0,1,5.63-5.62"/><g class="cls-17"><rect class="cls-2" x="-3876.53" y="-2627.89" width="5338.01" height="4566.05"/></g><path class="cls-3" d="M-723.12,77.08a4.4,4.4,0,0,1-3.1,1.25,4.4,4.4,0,0,1-3.11-1.25,7.45,7.45,0,0,0-5-1.91,7.4,7.4,0,0,0-5,1.91,4.42,4.42,0,0,1-3.11,1.25,4.4,4.4,0,0,1-3.1-1.25,7.42,7.42,0,0,0-5-1.91,7.4,7.4,0,0,0-5,1.91,4.42,4.42,0,0,1-3.11,1.25,4,4,0,0,1-1.81-.38V35.81h22V39h3.15V35.81h1.58a3.15,3.15,0,0,0,3.15-3.14V29.51a3.16,3.16,0,0,0-3.15-3.15h-.08A29.92,29.92,0,0,0-762.16-1.9V-3.55a4.74,4.74,0,0,0-4.73-4.73,4.74,4.74,0,0,0-4.72,4.73V-1.9a29.91,29.91,0,0,0-28.26,28.26h-.08a3.16,3.16,0,0,0-3.15,3.15v3.16a3.15,3.15,0,0,0,3.15,3.14h1.57V39h3.15V35.81h22.05V77.92a4.08,4.08,0,0,1-1.87.41,4.38,4.38,0,0,1-3.1-1.25,7.42,7.42,0,0,0-5-1.91,7.38,7.38,0,0,0-5,1.91,4.42,4.42,0,0,1-3.11,1.25,4.37,4.37,0,0,1-3.09-1.25,7.42,7.42,0,0,0-5-1.91,7.4,7.4,0,0,0-5,1.91,4.4,4.4,0,0,1-3.1,1.25,4.4,4.4,0,0,1-3.1-1.25,7.4,7.4,0,0,0-5-1.91v3.16a4.39,4.39,0,0,1,3.1,1.24,7.47,7.47,0,0,0,5,1.9,7.37,7.37,0,0,0,5-1.9,4.43,4.43,0,0,1,3.11-1.24,4.39,4.39,0,0,1,3.1,1.24,7.37,7.37,0,0,0,5,1.9,7.38,7.38,0,0,0,5-1.9,4.42,4.42,0,0,1,3.11-1.24,4.41,4.41,0,0,1,3.1,1.24,7.42,7.42,0,0,0,5,1.9,7.38,7.38,0,0,0,5-1.9,4.42,4.42,0,0,1,3.11-1.24,4.39,4.39,0,0,1,3.1,1.24,7.42,7.42,0,0,0,5,1.9,7.4,7.4,0,0,0,5-1.9,4.42,4.42,0,0,1,3.11-1.24,4.43,4.43,0,0,1,3.11,1.24,7.37,7.37,0,0,0,5,1.9,7.43,7.43,0,0,0,5-1.9,4.37,4.37,0,0,1,3.1-1.24,4.4,4.4,0,0,1,3.11,1.24,7.43,7.43,0,0,0,5,1.9,7.4,7.4,0,0,0,5-1.9,4.42,4.42,0,0,1,3.11-1.24V75.17A7.45,7.45,0,0,0-723.12,77.08Zm-43.77-82.2a1.57,1.57,0,0,1,1.58,1.57V-2h-3.15V-3.55A1.57,1.57,0,0,1-766.89-5.12Zm-4.32,6.35a37.25,37.25,0,0,0-8.33,11.91l2.88,1.26a34,34,0,0,1,9.77-12.78,33.59,33.59,0,0,1,12.56,24.74h-25.09a34.09,34.09,0,0,1,1.61-8.95l-3-1a36.57,36.57,0,0,0-1.78,9.93h-14.16A26.77,26.77,0,0,1-771.21,1.23Zm-28.74,28.28h53.53V26.36h-4.77A36.65,36.65,0,0,0-762.55,1.23,26.77,26.77,0,0,1-737,26.36h-6.22v3.15h9.45v3.16h-66.13Zm33,45.66a7,7,0,0,0-3.13.67v-40h6.3V75.86A7,7,0,0,0-766.91,75.17Z"/><g class="cls-18"><rect class="cls-2" x="-3563.72" y="-2410.26" width="5224.37" height="4468.85"/></g><path class="cls-3" d="M-726.22,86.2A4.4,4.4,0,0,1-729.33,85a7.48,7.48,0,0,0-5-1.91,7.43,7.43,0,0,0-5,1.91,4.42,4.42,0,0,1-3.11,1.25,4.4,4.4,0,0,1-3.1-1.25,7.47,7.47,0,0,0-5-1.91,7.5,7.5,0,0,0-5,1.91,4.38,4.38,0,0,1-3.1,1.25,4.4,4.4,0,0,1-3.1-1.25,7.48,7.48,0,0,0-5-1.91,7.44,7.44,0,0,0-5,1.91A4.43,4.43,0,0,1-775,86.2,4.42,4.42,0,0,1-778.15,85a7.47,7.47,0,0,0-5-1.91,7.48,7.48,0,0,0-5,1.91,4.37,4.37,0,0,1-3.09,1.25,4.38,4.38,0,0,1-3.1-1.25,7.47,7.47,0,0,0-5-1.91,7.43,7.43,0,0,0-5,1.91,4.4,4.4,0,0,1-3.1,1.25,4.38,4.38,0,0,1-3.1-1.25,7.45,7.45,0,0,0-5-1.91V86.2a4.37,4.37,0,0,1,3.1,1.24,7.42,7.42,0,0,0,5,1.91,7.42,7.42,0,0,0,5-1.91,4.39,4.39,0,0,1,3.1-1.24,4.39,4.39,0,0,1,3.1,1.24,7.38,7.38,0,0,0,5,1.91,7.42,7.42,0,0,0,5-1.91,4.39,4.39,0,0,1,3.1-1.24,4.39,4.39,0,0,1,3.1,1.24,7.41,7.41,0,0,0,5,1.91,7.39,7.39,0,0,0,5-1.91,4.39,4.39,0,0,1,3.1-1.24,4.4,4.4,0,0,1,3.11,1.24,7.42,7.42,0,0,0,5,1.91,7.45,7.45,0,0,0,5-1.91,4.37,4.37,0,0,1,3.1-1.24,4.39,4.39,0,0,1,3.1,1.24,7.42,7.42,0,0,0,5,1.91,7.42,7.42,0,0,0,5-1.91,4.42,4.42,0,0,1,3.11-1.24,4.42,4.42,0,0,1,3.11,1.24,7.43,7.43,0,0,0,5,1.91,7.42,7.42,0,0,0,5-1.91,4.42,4.42,0,0,1,3.11-1.24V83a7.45,7.45,0,0,0-5,1.91,4.42,4.42,0,0,1-3.11,1.25"/><g class="cls-19"><rect class="cls-2" x="-3563.72" y="-2410.26" width="5224.37" height="4468.85"/></g><path class="cls-3" d="M-757.44,67.3A4.73,4.73,0,0,0-752.72,72,4.73,4.73,0,0,0-748,67.3V64.15h-3.15V67.3a1.58,1.58,0,0,1-1.58,1.58,1.58,1.58,0,0,1-1.57-1.58v-22h-3.15Z"/><g class="cls-20"><rect class="cls-2" x="-3563.72" y="-2410.26" width="5224.37" height="4468.85"/></g><path class="cls-3" d="M-735.4,56.28V48.41h-3.15v7.87a1.57,1.57,0,0,1-1.57,1.58,1.57,1.57,0,0,1-1.57-1.58V43.68A4.73,4.73,0,0,0-746.42,39a4.74,4.74,0,0,0-4.73,4.72v4.73H-748V43.68a1.57,1.57,0,0,1,1.57-1.57,1.57,1.57,0,0,1,1.57,1.57v12.6A4.74,4.74,0,0,0-740.12,61a4.72,4.72,0,0,0,4.72-4.73"/><g class="cls-21"><rect class="cls-2" x="-3563.72" y="-2410.26" width="5224.37" height="4468.85"/></g><path class="cls-3" d="M-779.48,67.3a1.58,1.58,0,0,1-1.58,1.58,1.58,1.58,0,0,1-1.58-1.58V64.15h-3.14V67.3A4.73,4.73,0,0,0-781.06,72a4.74,4.74,0,0,0,4.73-4.73v-22h-3.15Z"/><g class="cls-22"><rect class="cls-2" x="-3563.72" y="-2410.26" width="5224.37" height="4468.85"/></g><path class="cls-3" d="M-798.38,56.28A4.73,4.73,0,0,0-793.65,61a4.73,4.73,0,0,0,4.72-4.73V43.68a1.57,1.57,0,0,1,1.58-1.57,1.58,1.58,0,0,1,1.57,1.57v4.73h3.15V43.68A4.73,4.73,0,0,0-787.35,39a4.73,4.73,0,0,0-4.73,4.72v12.6a1.58,1.58,0,0,1-1.57,1.58,1.57,1.57,0,0,1-1.57-1.58V48.41h-3.16Z"/><g class="cls-23"><rect class="cls-2" x="-3563.72" y="-2410.26" width="5224.37" height="4468.85"/></g><path class="cls-3" d="M-807.82,67.3a17.77,17.77,0,0,1,5.64.92l4.95,1.65-2.65-6.63a8.52,8.52,0,0,0-7.94-5.38,4.73,4.73,0,0,0-4.73,4.72,4.73,4.73,0,0,0,4.73,4.72m0-6.3a5.37,5.37,0,0,1,5,3.4l.16.4a20.92,20.92,0,0,0-5.17-.64,1.59,1.59,0,0,1-1.58-1.58A1.58,1.58,0,0,1-807.82,61"/><g class="cls-24"><rect class="cls-2" x="-3563.72" y="-2410.26" width="5224.37" height="4468.85"/></g><path class="cls-3" d="M-733.89,63.23l-2.66,6.64,5-1.65a17.73,17.73,0,0,1,5.64-.92,4.73,4.73,0,0,0,4.72-4.72,4.73,4.73,0,0,0-4.72-4.72A8.51,8.51,0,0,0-733.89,63.23ZM-731,64.4a5.36,5.36,0,0,1,5-3.39,1.57,1.57,0,0,1,1.57,1.57,1.57,1.57,0,0,1-1.57,1.57,21,21,0,0,0-5.18.65Z"/><g class="cls-25"><rect class="cls-2" x="-3563.72" y="-2410.26" width="5224.37" height="4468.85"/></g><path class="cls-2" d="M8,84.81C5,87.35.66,87,0,84a11.07,11.07,0,0,0,2.72.74,42,42,0,0,0,4.69-.57,2,2,0,0,1,1.22,0,14.83,14.83,0,0,0,13.15,0,1.75,1.75,0,0,1,1.31,0,19.59,19.59,0,0,0,17.53.22,2.42,2.42,0,0,1,2.19,0,14.45,14.45,0,0,0,12.67,0,1.71,1.71,0,0,1,1.14,0,9.38,9.38,0,0,0,7.89,0,3.27,3.27,0,0,1-2.15,2.24,5.14,5.14,0,0,1-6.14-1.67A7.59,7.59,0,0,1,49.3,89a8.27,8.27,0,0,1-7.45-3.46,10.47,10.47,0,0,1-9.73,5.08,10.38,10.38,0,0,1-9.77-5.57A8.76,8.76,0,0,1,10.1,87,8.89,8.89,0,0,1,8,84.81Z"/><path class="cls-2" d="M57.81,42.71a7.14,7.14,0,0,1-2.07-5.51c.16-3.39.08-6.8,0-10.2,0-3.13-1.1-4.35-4.07-5.2a2,2,0,0,1-1.08-1.47c-.15-1.45,0-2.93-.06-4.4-.06-2.95-1.47-4.39-4.43-4.48-1.66,0-3.33,0-5,0H34v0H29.44c-3.6,0-7.2,0-10.8,0C15.47,11.51,14,13,14,16.15c0,1.79,0,3.58,0,5.45-4.31.87-5,1.68-5,5.79,0,2.4-.15,4.82,0,7.2.27,3.54-.37,6.52-3.07,9.21-2,2-3.39,4.4-1.78,7.7,4,8.31,7.86,16.74,11.64,25.19,1.38,3.07,3.48,4.29,6.84,4.21,6.73-.17,13.47-.13,20.2,0,3,.05,4.72-1.4,5.86-3.87,3.14-6.77,6.23-13.56,9.35-20.34.86-1.87,1.83-3.7,2.57-5.61C62,47.56,59.92,45,57.81,42.71ZM22,14.69c7.79,0,15.58,0,23.37,0,1.69,0,2.31.42,2.27,2.23-.1,4.91,0,4.91-5,4.91H32.23c-4.33,0-8.66-.05-13,0-1.61,0-2.21-.48-2.2-2.17C17.07,14.69,17,14.69,22,14.69Zm8.71,63.05c-3.3,0-6.49.11-9.66-.09a3.25,3.25,0,0,1-2.14-1.74Q13,63.28,7.26,50.52a3.87,3.87,0,0,1,0-3.13c5.51-8.57,13.52-13.48,23.42-15.66ZM22.7,31c-3.58,1.61-7,3.66-10.76,5.7q0-3.42,0-6.85c0-5.58-.32-5.07,5.07-5.07q16.28,0,32.56,0c3,0,3,0,3,3s0,5.83,0,9c-2.78-1.68-5.07-3.42-7.63-4.5a61.13,61.13,0,0,0-11.06-3.62C30,27.93,26.2,29.43,22.7,31ZM57.44,50.48q-5.86,12.57-11.57,25.2a3.2,3.2,0,0,1-3.4,2.11c-2.4-.09-4.8-.05-7.2,0-1,0-1.48-.23-1.48-1.32q0-21.91.05-43.81a4.75,4.75,0,0,1,.2-.87c9.71,2.1,17.49,7,23.15,15.19A3.19,3.19,0,0,1,57.44,50.48Z"/><path class="cls-2" d="M27.2,41.91a3.59,3.59,0,0,1-3.64,3.61,3.62,3.62,0,0,1,0-7.23A3.62,3.62,0,0,1,27.2,41.91Z"/><path class="cls-2" d="M44.32,41.9a3.45,3.45,0,0,1-3.65,3.62A3.84,3.84,0,0,1,37,41.86a4,4,0,0,1,3.63-3.57A3.59,3.59,0,0,1,44.32,41.9Z"/><rect class="cls-2" x="30.67" width="3.18" height="14.23" rx="0.43"/><rect class="cls-2" x="31.29" y="-2.34" width="1.95" height="10.84" rx="0.42" transform="translate(35.34 -29.18) rotate(90)"/><rect class="cls-2" x="31.29" y="1.32" width="1.95" height="10.84" rx="0.35" transform="translate(39 -25.53) rotate(90)"/></svg>