<svg id="Layer_1" data-name="Layer 1" xmlns="http://www.w3.org/2000/svg" xmlns:xlink="http://www.w3.org/1999/xlink" viewBox="0 0 99.19 89.4"><defs><style>.cls-1,.cls-2,.cls-3{fill:#fff;}.cls-1{clip-rule:evenodd;}.cls-3{fill-rule:evenodd;}.cls-4{clip-path:url(#clip-path);}.cls-5{clip-path:url(#clip-path-2);}.cls-6{clip-path:url(#clip-path-3);}.cls-7{clip-path:url(#clip-path-4);}.cls-8{clip-path:url(#clip-path-5);}.cls-9{clip-path:url(#clip-path-6);}.cls-10{clip-path:url(#clip-path-7);}.cls-11{clip-path:url(#clip-path-8);}.cls-12{clip-path:url(#clip-path-9);}.cls-13{clip-path:url(#clip-path-10);}.cls-14{clip-path:url(#clip-path-11);}.cls-15{clip-path:url(#clip-path-12);}.cls-16{clip-path:url(#clip-path-13);}.cls-17{clip-path:url(#clip-path-14);}.cls-18{clip-path:url(#clip-path-15);}.cls-19{clip-path:url(#clip-path-16);}.cls-20{clip-path:url(#clip-path-17);}.cls-21{clip-path:url(#clip-path-18);}.cls-22{clip-path:url(#clip-path-19);}.cls-23{clip-path:url(#clip-path-20);}.cls-24{clip-path:url(#clip-path-21);}.cls-25{clip-path:url(#clip-path-22);}</style><clipPath id="clip-path"><path class="cls-1" d="M-859.67,83.13h15.91V73.19h-15.91Zm17.9,4h-19.89a2,2,0,0,1-2-2V71.19a2,2,0,0,1,2-2h19.89a2,2,0,0,1,2,2V85.12A2,2,0,0,1-841.77,87.11Z"/></clipPath><clipPath id="clip-path-2"><path class="cls-1" d="M-869.61,83.13h35.8V-4.39h-35.8Zm37.79,4H-871.6a2,2,0,0,1-2-2V-6.38a2,2,0,0,1,2-2h39.78a2,2,0,0,1,2,2v91.5A2,2,0,0,1-831.82,87.11Z"/></clipPath><clipPath id="clip-path-3"><path class="cls-1" d="M-885.53,83.13h11.93V3.57h-11.93Zm13.93,4h-15.92a2,2,0,0,1-2-2V1.58a2,2,0,0,1,2-2h15.92a2,2,0,0,1,2,2V85.12A2,2,0,0,1-871.6,87.11Z"/></clipPath><clipPath id="clip-path-4"><path class="cls-1" d="M-829.84,83.13h11.94V3.57h-11.94Zm13.93,4h-15.91a2,2,0,0,1-2-2V1.58a2,2,0,0,1,2-2h15.91a2,2,0,0,1,2,2V85.12A2,2,0,0,1-815.91,87.11Z"/></clipPath><clipPath id="clip-path-5"><rect class="cls-2" x="-903.43" y="43.35" width="3.98" height="19.89" transform="translate(-402.95 -699.66) rotate(-53.11)"/></clipPath><clipPath id="clip-path-6"><rect class="cls-2" x="-911.39" y="51.31" width="19.89" height="3.98" transform="translate(-212.35 -530.3) rotate(-36.88)"/></clipPath><clipPath id="clip-path-7"><rect class="cls-2" x="-803.97" y="43.35" width="3.97" height="19.89" transform="translate(-363.29 -620.18) rotate(-53.12)"/></clipPath><clipPath id="clip-path-8"><rect class="cls-2" x="-811.94" y="51.32" width="19.89" height="3.97" transform="translate(-192.18 -470.3) rotate(-36.85)"/></clipPath><clipPath id="clip-path-9"><path class="cls-2" d="M-1364.66,87.58h-74.58a2.57,2.57,0,0,1-2.53-2.6V79.54a2.57,2.57,0,0,1,2.53-2.6h28.57a6.67,6.67,0,0,1-.67-2.08,6.8,6.8,0,0,1,1.41-5.3l.92-1.13a7.08,7.08,0,0,0,1.46-5.57l-.38-2.43h-11.24a6,6,0,0,1-5.89-6.15,1,1,0,0,0-.39-.78l-2.36-1.67a2.63,2.63,0,0,1-1-2.9,2.53,2.53,0,0,1,2.43-1.86h19.32V44.14h-6.46a6,6,0,0,1-5.89-6.15.94.94,0,0,0-.39-.79l-2.36-1.67a2.62,2.62,0,0,1-1-2.89,2.56,2.56,0,0,1,2.43-1.87h13.67V29.3a10.18,10.18,0,0,0-5.7-9.28l-.72-.34V17.19h23.06v2.49l-.72.34a10.18,10.18,0,0,0-5.7,9.28v1.47h13.67a2.56,2.56,0,0,1,2.43,1.88,2.63,2.63,0,0,1-1,2.88l-2.36,1.67a1,1,0,0,0-.4.79,6,6,0,0,1-5.88,6.15h-6.46v2.93h19.32a2.55,2.55,0,0,1,2.43,1.87,2.65,2.65,0,0,1-1,2.89l-2.36,1.67a.93.93,0,0,0-.39.78,6,6,0,0,1-5.89,6.15H-1396l-.39,2.43a7.09,7.09,0,0,0,1.47,5.57l.91,1.13a6.8,6.8,0,0,1,1.42,5.3,7.06,7.06,0,0,1-.68,2.08h28.58a2.57,2.57,0,0,1,2.53,2.6V85A2.57,2.57,0,0,1-1364.66,87.58Zm-74.58-8.14a.18.18,0,0,0,0,.1V85a.14.14,0,0,0,0,.11h74.57a.14.14,0,0,0,0-.1V79.54a.13.13,0,0,0,0-.1h-35.06l3.09-2.26a4.12,4.12,0,0,0,1.61-2.7,4.26,4.26,0,0,0-.89-3.34l-.91-1.13a9.55,9.55,0,0,1-2-7.54l.71-4.54h13.38a3.53,3.53,0,0,0,3.39-3.65,3.43,3.43,0,0,1,1.45-2.83l2.36-1.67a.14.14,0,0,0,0-.15l-21.85-.06V41.64h9A3.52,3.52,0,0,0-1387,38a3.47,3.47,0,0,1,1.46-2.84l2.36-1.66a.14.14,0,0,0,0-.15l-16.2-.07v-4a12.91,12.91,0,0,1,4.22-9.61h-13.66a12.91,12.91,0,0,1,4.22,9.61v4h-16.17c0,.13,0,.2,0,.22l2.36,1.66a3.46,3.46,0,0,1,1.45,2.84,3.53,3.53,0,0,0,3.39,3.65h9v7.93h-21.82c0,.13,0,.2,0,.22l2.36,1.66a3.44,3.44,0,0,1,1.45,2.83,3.53,3.53,0,0,0,3.39,3.65h13.37l.72,4.54a9.59,9.59,0,0,1-2,7.54l-.92,1.13a4.3,4.3,0,0,0-.88,3.34,4.07,4.07,0,0,0,1.6,2.7l3.07,2.26Z"/></clipPath><clipPath id="clip-path-10"><path class="cls-1" d="M-1434.34,46.36a2.82,2.82,0,0,1,2.82-2.81,5.64,5.64,0,0,0,5.63-5.63v-7a2.82,2.82,0,0,1,2.82-2.82h8.45V25.25h-8.45a5.64,5.64,0,0,0-5.64,5.63v7a2.82,2.82,0,0,1-2.81,2.82,5.63,5.63,0,0,0-5.63,5.62V66.08h2.81Z"/></clipPath><clipPath id="clip-path-11"><path class="cls-2" d="M-1401.95,14.77a2.15,2.15,0,0,1-1.86-1L-1407,8.39a2.15,2.15,0,0,1,.32-2.64l3.2-3.2a2.21,2.21,0,0,1,3.06,0l3.2,3.2a2.15,2.15,0,0,1,.32,2.64l-3.2,5.33A2.14,2.14,0,0,1-1401.95,14.77Zm0-2.18Zm-.06-8.48-3.14,3.2,3.17,5.23,3.16-5.28Z"/></clipPath><clipPath id="clip-path-12"><path class="cls-1" d="M-1389.28,25.24v2.82h8.45a2.82,2.82,0,0,1,2.82,2.81v7a5.64,5.64,0,0,0,5.63,5.64,2.81,2.81,0,0,1,2.81,2.81V66.08h2.82V46.36a5.64,5.64,0,0,0-5.63-5.63,2.81,2.81,0,0,1-2.81-2.82v-7a5.65,5.65,0,0,0-5.64-5.63Z"/></clipPath><clipPath id="clip-path-13"><path class="cls-1" d="M-1383.65,15.39h2.82a8.46,8.46,0,0,0-8.45-8.45h-2.81V9.76h2.81a5.63,5.63,0,0,1,5.63,5.63"/></clipPath><clipPath id="clip-path-14"><path class="cls-1" d="M-1414.62,9.76h2.81V6.94h-2.81a8.46,8.46,0,0,0-8.45,8.44h2.82a5.63,5.63,0,0,1,5.63-5.62"/></clipPath><clipPath id="clip-path-15"><path class="cls-1" d="M-934.78,74.28a4.42,4.42,0,0,1-3.11,1.25A4.42,4.42,0,0,1-941,74.28a7.43,7.43,0,0,0-5-1.91,7.4,7.4,0,0,0-5,1.91,4.4,4.4,0,0,1-3.1,1.25,4.42,4.42,0,0,1-3.11-1.25,7.38,7.38,0,0,0-5-1.91,7.42,7.42,0,0,0-5,1.91,4.42,4.42,0,0,1-3.11,1.25,4,4,0,0,1-1.81-.38V33h22v3.15h3.14V33h1.58a3.15,3.15,0,0,0,3.15-3.14V26.71a3.16,3.16,0,0,0-3.15-3.15h-.08A29.92,29.92,0,0,0-973.83-4.7V-6.35a4.74,4.74,0,0,0-4.72-4.73,4.74,4.74,0,0,0-4.73,4.73V-4.7a29.91,29.91,0,0,0-28.26,28.26h-.08a3.16,3.16,0,0,0-3.15,3.15v3.16a3.15,3.15,0,0,0,3.15,3.14h1.57v3.15h3.16V33h22V75.12a4.07,4.07,0,0,1-1.86.41,4.42,4.42,0,0,1-3.11-1.25,7.42,7.42,0,0,0-5-1.91,7.38,7.38,0,0,0-5,1.91,4.4,4.4,0,0,1-3.1,1.25,4.38,4.38,0,0,1-3.1-1.25,7.38,7.38,0,0,0-5-1.91,7.42,7.42,0,0,0-5,1.91,4.4,4.4,0,0,1-3.1,1.25,4.4,4.4,0,0,1-3.1-1.25,7.38,7.38,0,0,0-5-1.91v3.16a4.37,4.37,0,0,1,3.1,1.24,7.47,7.47,0,0,0,5,1.9,7.4,7.4,0,0,0,5-1.9,4.39,4.39,0,0,1,3.1-1.24,4.37,4.37,0,0,1,3.1,1.24,7.42,7.42,0,0,0,5,1.9,7.42,7.42,0,0,0,5-1.9,4.39,4.39,0,0,1,3.1-1.24,4.37,4.37,0,0,1,3.1,1.24,7.43,7.43,0,0,0,5,1.9,7.37,7.37,0,0,0,5-1.9,4.43,4.43,0,0,1,3.11-1.24,4.43,4.43,0,0,1,3.11,1.24,7.37,7.37,0,0,0,5,1.9,7.43,7.43,0,0,0,5-1.9,4.37,4.37,0,0,1,3.1-1.24,4.42,4.42,0,0,1,3.11,1.24,7.38,7.38,0,0,0,5,1.9,7.42,7.42,0,0,0,5-1.9,4.39,4.39,0,0,1,3.1-1.24,4.4,4.4,0,0,1,3.11,1.24,7.43,7.43,0,0,0,5,1.9,7.4,7.4,0,0,0,5-1.9,4.43,4.43,0,0,1,3.11-1.24V72.37A7.4,7.4,0,0,0-934.78,74.28Zm-43.77-82.2A1.57,1.57,0,0,1-977-6.35v1.58h-3.15V-6.35A1.57,1.57,0,0,1-978.55-7.92Zm-4.33,6.35a37.25,37.25,0,0,0-8.33,11.91l2.88,1.26a33.92,33.92,0,0,1,9.78-12.78A33.55,33.55,0,0,1-966,23.56h-25.09a33.7,33.7,0,0,1,1.62-8.95l-3-1a37.35,37.35,0,0,0-1.78,9.93h-14.15A26.76,26.76,0,0,1-982.88-1.57Zm-28.74,28.28h53.53V23.56h-4.76A36.72,36.72,0,0,0-974.21-1.57a26.77,26.77,0,0,1,25.49,25.13h-6.22v3.15h9.45v3.16h-66.13Zm33,45.66a7.06,7.06,0,0,0-3.13.67V33h6.3V73.06A7,7,0,0,0-978.58,72.37Z"/></clipPath><clipPath id="clip-path-16"><path class="cls-1" d="M-937.89,83.4A4.42,4.42,0,0,1-941,82.15a7.48,7.48,0,0,0-5-1.91,7.47,7.47,0,0,0-5,1.91,4.42,4.42,0,0,1-3.11,1.25,4.4,4.4,0,0,1-3.1-1.25,7.45,7.45,0,0,0-5-1.91,7.45,7.45,0,0,0-5,1.91,4.42,4.42,0,0,1-3.11,1.25,4.4,4.4,0,0,1-3.1-1.25,7.45,7.45,0,0,0-5-1.91,7.45,7.45,0,0,0-5,1.91,4.4,4.4,0,0,1-3.1,1.25,4.42,4.42,0,0,1-3.11-1.25,7.45,7.45,0,0,0-5-1.91,7.45,7.45,0,0,0-5,1.91,4.4,4.4,0,0,1-3.1,1.25,4.4,4.4,0,0,1-3.1-1.25,7.45,7.45,0,0,0-5-1.91,7.42,7.42,0,0,0-5,1.91,4.44,4.44,0,0,1-3.11,1.25,4.42,4.42,0,0,1-3.1-1.25,7.42,7.42,0,0,0-5-1.91V83.4a4.39,4.39,0,0,1,3.1,1.24,7.37,7.37,0,0,0,5,1.91,7.4,7.4,0,0,0,5-1.91,4.39,4.39,0,0,1,3.1-1.24,4.43,4.43,0,0,1,3.11,1.24,7.35,7.35,0,0,0,5,1.91,7.42,7.42,0,0,0,5-1.91,4.39,4.39,0,0,1,3.1-1.24,4.39,4.39,0,0,1,3.1,1.24,7.45,7.45,0,0,0,5,1.91,7.42,7.42,0,0,0,5-1.91,4.39,4.39,0,0,1,3.1-1.24,4.39,4.39,0,0,1,3.1,1.24,7.42,7.42,0,0,0,5,1.91,7.43,7.43,0,0,0,5-1.91,4.39,4.39,0,0,1,3.1-1.24,4.43,4.43,0,0,1,3.11,1.24,7.37,7.37,0,0,0,5,1.91,7.43,7.43,0,0,0,5-1.91A4.37,4.37,0,0,1-946,83.4a4.4,4.4,0,0,1,3.11,1.24,7.43,7.43,0,0,0,5,1.91,7.38,7.38,0,0,0,5-1.91,4.42,4.42,0,0,1,3.12-1.24V80.24a7.48,7.48,0,0,0-5,1.91,4.42,4.42,0,0,1-3.11,1.25"/></clipPath><clipPath id="clip-path-17"><path class="cls-1" d="M-969.11,64.5a4.73,4.73,0,0,0,4.73,4.73,4.73,4.73,0,0,0,4.72-4.73V61.35h-3.15V64.5a1.57,1.57,0,0,1-1.57,1.58A1.58,1.58,0,0,1-966,64.5v-22h-3.15Z"/></clipPath><clipPath id="clip-path-18"><path class="cls-1" d="M-947.06,53.48V45.61h-3.16v7.87a1.57,1.57,0,0,1-1.57,1.58,1.57,1.57,0,0,1-1.57-1.58V40.88a4.73,4.73,0,0,0-4.73-4.72,4.73,4.73,0,0,0-4.72,4.72v4.73h3.15V40.88a1.58,1.58,0,0,1,1.57-1.57,1.57,1.57,0,0,1,1.57,1.57v12.6a4.74,4.74,0,0,0,4.73,4.73,4.73,4.73,0,0,0,4.73-4.73"/></clipPath><clipPath id="clip-path-19"><path class="cls-1" d="M-991.15,64.5a1.58,1.58,0,0,1-1.57,1.58,1.58,1.58,0,0,1-1.58-1.58V61.35h-3.15V64.5a4.73,4.73,0,0,0,4.73,4.73A4.73,4.73,0,0,0-988,64.5v-22h-3.15Z"/></clipPath><clipPath id="clip-path-20"><path class="cls-1" d="M-1010,53.48a4.72,4.72,0,0,0,4.72,4.73,4.74,4.74,0,0,0,4.73-4.73V40.88A1.57,1.57,0,0,1-999,39.31a1.58,1.58,0,0,1,1.57,1.57v4.73h3.15V40.88A4.73,4.73,0,0,0-999,36.16a4.73,4.73,0,0,0-4.73,4.72v12.6a1.57,1.57,0,0,1-1.57,1.58,1.57,1.57,0,0,1-1.57-1.58V45.61H-1010Z"/></clipPath><clipPath id="clip-path-21"><path class="cls-1" d="M-1019.49,64.5a17.73,17.73,0,0,1,5.64.92l5,1.65-2.65-6.63a8.51,8.51,0,0,0-7.94-5.38,4.73,4.73,0,0,0-4.73,4.72,4.73,4.73,0,0,0,4.73,4.72m0-6.3a5.4,5.4,0,0,1,5,3.4l.16.4a21,21,0,0,0-5.18-.64,1.59,1.59,0,0,1-1.58-1.58,1.58,1.58,0,0,1,1.58-1.58"/></clipPath><clipPath id="clip-path-22"><path class="cls-1" d="M-945.56,60.43l-2.65,6.64,5-1.65a17.73,17.73,0,0,1,5.64-.92,4.73,4.73,0,0,0,4.73-4.72,4.73,4.73,0,0,0-4.73-4.72A8.52,8.52,0,0,0-945.56,60.43Zm2.92,1.17a5.37,5.37,0,0,1,5-3.39A1.57,1.57,0,0,1-936,59.78a1.58,1.58,0,0,1-1.58,1.57,21.07,21.07,0,0,0-5.18.65Z"/></clipPath></defs><path class="cls-3" d="M-859.67,83.13h15.91V73.19h-15.91Zm17.9,4h-19.89a2,2,0,0,1-2-2V71.19a2,2,0,0,1,2-2h19.89a2,2,0,0,1,2,2V85.12A2,2,0,0,1-841.77,87.11Z"/><g class="cls-4"><rect class="cls-2" x="-2128.21" y="-3709.52" width="5804.01" height="4970.61"/></g><path class="cls-3" d="M-869.61,83.13h35.8V-4.39h-35.8Zm37.79,4H-871.6a2,2,0,0,1-2-2V-6.38a2,2,0,0,1,2-2h39.78a2,2,0,0,1,2,2v91.5A2,2,0,0,1-831.82,87.11Z"/><g class="cls-5"><rect class="cls-2" x="-2128.21" y="-3709.52" width="5804.01" height="4964.66"/></g><path class="cls-3" d="M-885.53,83.13h11.93V3.57h-11.93Zm13.93,4h-15.92a2,2,0,0,1-2-2V1.58a2,2,0,0,1,2-2h15.92a2,2,0,0,1,2,2V85.12A2,2,0,0,1-871.6,87.11Z"/><g class="cls-6"><rect class="cls-2" x="-2128.21" y="-3709.52" width="5804.01" height="4964.66"/></g><path class="cls-3" d="M-829.84,83.13h11.94V3.57h-11.94Zm13.93,4h-15.91a2,2,0,0,1-2-2V1.58a2,2,0,0,1,2-2h15.91a2,2,0,0,1,2,2V85.12A2,2,0,0,1-815.91,87.11Z"/><g class="cls-7"><rect class="cls-2" x="-2128.21" y="-3709.52" width="5804.01" height="4964.66"/></g><rect class="cls-2" x="-903.43" y="43.35" width="3.98" height="19.89" transform="translate(-402.95 -699.66) rotate(-53.11)"/><g class="cls-8"><rect class="cls-2" x="-2128.21" y="-3709.52" width="5804.01" height="4964.66"/></g><rect class="cls-2" x="-911.39" y="51.31" width="19.89" height="3.98" transform="translate(-212.35 -530.3) rotate(-36.88)"/><g class="cls-9"><rect class="cls-2" x="-2128.21" y="-3709.52" width="5804.01" height="4964.66"/></g><rect class="cls-2" x="-803.97" y="43.35" width="3.97" height="19.89" transform="translate(-363.29 -620.18) rotate(-53.12)"/><g class="cls-10"><rect class="cls-2" x="-2128.21" y="-3709.52" width="5804.01" height="4964.66"/></g><rect class="cls-2" x="-811.94" y="51.32" width="19.89" height="3.97" transform="translate(-192.18 -470.3) rotate(-36.85)"/><g class="cls-11"><rect class="cls-2" x="-2128.21" y="-3709.52" width="5804.01" height="4964.66"/></g><path class="cls-2" d="M-1364.66,87.58h-74.58a2.57,2.57,0,0,1-2.53-2.6V79.54a2.57,2.57,0,0,1,2.53-2.6h28.57a6.67,6.67,0,0,1-.67-2.08,6.8,6.8,0,0,1,1.41-5.3l.92-1.13a7.08,7.08,0,0,0,1.46-5.57l-.38-2.43h-11.24a6,6,0,0,1-5.89-6.15,1,1,0,0,0-.39-.78l-2.36-1.67a2.63,2.63,0,0,1-1-2.9,2.53,2.53,0,0,1,2.43-1.86h19.32V44.14h-6.46a6,6,0,0,1-5.89-6.15.94.94,0,0,0-.39-.79l-2.36-1.67a2.62,2.62,0,0,1-1-2.89,2.56,2.56,0,0,1,2.43-1.87h13.67V29.3a10.18,10.18,0,0,0-5.7-9.28l-.72-.34V17.19h23.06v2.49l-.72.34a10.18,10.18,0,0,0-5.7,9.28v1.47h13.67a2.56,2.56,0,0,1,2.43,1.88,2.63,2.63,0,0,1-1,2.88l-2.36,1.67a1,1,0,0,0-.4.79,6,6,0,0,1-5.88,6.15h-6.46v2.93h19.32a2.55,2.55,0,0,1,2.43,1.87,2.65,2.65,0,0,1-1,2.89l-2.36,1.67a.93.93,0,0,0-.39.78,6,6,0,0,1-5.89,6.15H-1396l-.39,2.43a7.09,7.09,0,0,0,1.47,5.57l.91,1.13a6.8,6.8,0,0,1,1.42,5.3,7.06,7.06,0,0,1-.68,2.08h28.58a2.57,2.57,0,0,1,2.53,2.6V85A2.57,2.57,0,0,1-1364.66,87.58Zm-74.58-8.14a.18.18,0,0,0,0,.1V85a.14.14,0,0,0,0,.11h74.57a.14.14,0,0,0,0-.1V79.54a.13.13,0,0,0,0-.1h-35.06l3.09-2.26a4.12,4.12,0,0,0,1.61-2.7,4.26,4.26,0,0,0-.89-3.34l-.91-1.13a9.55,9.55,0,0,1-2-7.54l.71-4.54h13.38a3.53,3.53,0,0,0,3.39-3.65,3.43,3.43,0,0,1,1.45-2.83l2.36-1.67a.14.14,0,0,0,0-.15l-21.85-.06V41.64h9A3.52,3.52,0,0,0-1387,38a3.47,3.47,0,0,1,1.46-2.84l2.36-1.66a.14.14,0,0,0,0-.15l-16.2-.07v-4a12.91,12.91,0,0,1,4.22-9.61h-13.66a12.91,12.91,0,0,1,4.22,9.61v4h-16.17c0,.13,0,.2,0,.22l2.36,1.66a3.46,3.46,0,0,1,1.45,2.84,3.53,3.53,0,0,0,3.39,3.65h9v7.93h-21.82c0,.13,0,.2,0,.22l2.36,1.66a3.44,3.44,0,0,1,1.45,2.83,3.53,3.53,0,0,0,3.39,3.65h13.37l.72,4.54a9.59,9.59,0,0,1-2,7.54l-.92,1.13a4.3,4.3,0,0,0-.88,3.34,4.07,4.07,0,0,0,1.6,2.7l3.07,2.26Z"/><g class="cls-12"><path class="cls-2" d="M1021,1871.47H-3856.37V-2534.79H1021Zm-4874.35-3H1018V-2531.79H-3853.37Z"/></g><path class="cls-3" d="M-1434.34,46.36a2.82,2.82,0,0,1,2.82-2.81,5.64,5.64,0,0,0,5.63-5.63v-7a2.82,2.82,0,0,1,2.82-2.82h8.45V25.25h-8.45a5.64,5.64,0,0,0-5.64,5.63v7a2.82,2.82,0,0,1-2.81,2.82,5.63,5.63,0,0,0-5.63,5.62V66.08h2.81Z"/><g class="cls-13"><rect class="cls-2" x="-4088.19" y="-2630.69" width="5338.01" height="4566.05"/></g><path class="cls-2" d="M-1401.95,14.77a2.15,2.15,0,0,1-1.86-1L-1407,8.39a2.15,2.15,0,0,1,.32-2.64l3.2-3.2a2.21,2.21,0,0,1,3.06,0l3.2,3.2a2.15,2.15,0,0,1,.32,2.64l-3.2,5.33A2.14,2.14,0,0,1-1401.95,14.77Zm0-2.18Zm-.06-8.48-3.14,3.2,3.17,5.23,3.16-5.28Z"/><g class="cls-14"><path class="cls-2" d="M605.17,1467.2H-3435.15V-1989.14H605.17Zm-4038.12-2.2H603V-1986.94H-3432.95Z"/></g><path class="cls-3" d="M-1389.28,25.24v2.82h8.45a2.82,2.82,0,0,1,2.82,2.81v7a5.64,5.64,0,0,0,5.63,5.64,2.81,2.81,0,0,1,2.81,2.81V66.08h2.82V46.36a5.64,5.64,0,0,0-5.63-5.63,2.81,2.81,0,0,1-2.81-2.82v-7a5.65,5.65,0,0,0-5.64-5.63Z"/><g class="cls-15"><rect class="cls-2" x="-4088.19" y="-2630.69" width="5338.01" height="4566.05"/></g><path class="cls-3" d="M-1383.65,15.39h2.82a8.46,8.46,0,0,0-8.45-8.45h-2.81V9.76h2.81a5.63,5.63,0,0,1,5.63,5.63"/><g class="cls-16"><rect class="cls-2" x="-4088.19" y="-2630.69" width="5338.01" height="4566.05"/></g><path class="cls-3" d="M-1414.62,9.76h2.81V6.94h-2.81a8.46,8.46,0,0,0-8.45,8.44h2.82a5.63,5.63,0,0,1,5.63-5.62"/><g class="cls-17"><rect class="cls-2" x="-4088.19" y="-2630.69" width="5338.01" height="4566.05"/></g><path class="cls-3" d="M-934.78,74.28a4.42,4.42,0,0,1-3.11,1.25A4.42,4.42,0,0,1-941,74.28a7.43,7.43,0,0,0-5-1.91,7.4,7.4,0,0,0-5,1.91,4.4,4.4,0,0,1-3.1,1.25,4.42,4.42,0,0,1-3.11-1.25,7.38,7.38,0,0,0-5-1.91,7.42,7.42,0,0,0-5,1.91,4.42,4.42,0,0,1-3.11,1.25,4,4,0,0,1-1.81-.38V33h22v3.15h3.14V33h1.58a3.15,3.15,0,0,0,3.15-3.14V26.71a3.16,3.16,0,0,0-3.15-3.15h-.08A29.92,29.92,0,0,0-973.83-4.7V-6.35a4.74,4.74,0,0,0-4.72-4.73,4.74,4.74,0,0,0-4.73,4.73V-4.7a29.91,29.91,0,0,0-28.26,28.26h-.08a3.16,3.16,0,0,0-3.15,3.15v3.16a3.15,3.15,0,0,0,3.15,3.14h1.57v3.15h3.16V33h22V75.12a4.07,4.07,0,0,1-1.86.41,4.42,4.42,0,0,1-3.11-1.25,7.42,7.42,0,0,0-5-1.91,7.38,7.38,0,0,0-5,1.91,4.4,4.4,0,0,1-3.1,1.25,4.38,4.38,0,0,1-3.1-1.25,7.38,7.38,0,0,0-5-1.91,7.42,7.42,0,0,0-5,1.91,4.4,4.4,0,0,1-3.1,1.25,4.4,4.4,0,0,1-3.1-1.25,7.38,7.38,0,0,0-5-1.91v3.16a4.37,4.37,0,0,1,3.1,1.24,7.47,7.47,0,0,0,5,1.9,7.4,7.4,0,0,0,5-1.9,4.39,4.39,0,0,1,3.1-1.24,4.37,4.37,0,0,1,3.1,1.24,7.42,7.42,0,0,0,5,1.9,7.42,7.42,0,0,0,5-1.9,4.39,4.39,0,0,1,3.1-1.24,4.37,4.37,0,0,1,3.1,1.24,7.43,7.43,0,0,0,5,1.9,7.37,7.37,0,0,0,5-1.9,4.43,4.43,0,0,1,3.11-1.24,4.43,4.43,0,0,1,3.11,1.24,7.37,7.37,0,0,0,5,1.9,7.43,7.43,0,0,0,5-1.9,4.37,4.37,0,0,1,3.1-1.24,4.42,4.42,0,0,1,3.11,1.24,7.38,7.38,0,0,0,5,1.9,7.42,7.42,0,0,0,5-1.9,4.39,4.39,0,0,1,3.1-1.24,4.4,4.4,0,0,1,3.11,1.24,7.43,7.43,0,0,0,5,1.9,7.4,7.4,0,0,0,5-1.9,4.43,4.43,0,0,1,3.11-1.24V72.37A7.4,7.4,0,0,0-934.78,74.28Zm-43.77-82.2A1.57,1.57,0,0,1-977-6.35v1.58h-3.15V-6.35A1.57,1.57,0,0,1-978.55-7.92Zm-4.33,6.35a37.25,37.25,0,0,0-8.33,11.91l2.88,1.26a33.92,33.92,0,0,1,9.78-12.78A33.55,33.55,0,0,1-966,23.56h-25.09a33.7,33.7,0,0,1,1.62-8.95l-3-1a37.35,37.35,0,0,0-1.78,9.93h-14.15A26.76,26.76,0,0,1-982.88-1.57Zm-28.74,28.28h53.53V23.56h-4.76A36.72,36.72,0,0,0-974.21-1.57a26.77,26.77,0,0,1,25.49,25.13h-6.22v3.15h9.45v3.16h-66.13Zm33,45.66a7.06,7.06,0,0,0-3.13.67V33h6.3V73.06A7,7,0,0,0-978.58,72.37Z"/><g class="cls-18"><rect class="cls-2" x="-3775.38" y="-2413.06" width="5224.37" height="4468.85"/></g><path class="cls-3" d="M-937.89,83.4A4.42,4.42,0,0,1-941,82.15a7.48,7.48,0,0,0-5-1.91,7.47,7.47,0,0,0-5,1.91,4.42,4.42,0,0,1-3.11,1.25,4.4,4.4,0,0,1-3.1-1.25,7.45,7.45,0,0,0-5-1.91,7.45,7.45,0,0,0-5,1.91,4.42,4.42,0,0,1-3.11,1.25,4.4,4.4,0,0,1-3.1-1.25,7.45,7.45,0,0,0-5-1.91,7.45,7.45,0,0,0-5,1.91,4.4,4.4,0,0,1-3.1,1.25,4.42,4.42,0,0,1-3.11-1.25,7.45,7.45,0,0,0-5-1.91,7.45,7.45,0,0,0-5,1.91,4.4,4.4,0,0,1-3.1,1.25,4.4,4.4,0,0,1-3.1-1.25,7.45,7.45,0,0,0-5-1.91,7.42,7.42,0,0,0-5,1.91,4.44,4.44,0,0,1-3.11,1.25,4.42,4.42,0,0,1-3.1-1.25,7.42,7.42,0,0,0-5-1.91V83.4a4.39,4.39,0,0,1,3.1,1.24,7.37,7.37,0,0,0,5,1.91,7.4,7.4,0,0,0,5-1.91,4.39,4.39,0,0,1,3.1-1.24,4.43,4.43,0,0,1,3.11,1.24,7.35,7.35,0,0,0,5,1.91,7.42,7.42,0,0,0,5-1.91,4.39,4.39,0,0,1,3.1-1.24,4.39,4.39,0,0,1,3.1,1.24,7.45,7.45,0,0,0,5,1.91,7.42,7.42,0,0,0,5-1.91,4.39,4.39,0,0,1,3.1-1.24,4.39,4.39,0,0,1,3.1,1.24,7.42,7.42,0,0,0,5,1.91,7.43,7.43,0,0,0,5-1.91,4.39,4.39,0,0,1,3.1-1.24,4.43,4.43,0,0,1,3.11,1.24,7.37,7.37,0,0,0,5,1.91,7.43,7.43,0,0,0,5-1.91A4.37,4.37,0,0,1-946,83.4a4.4,4.4,0,0,1,3.11,1.24,7.43,7.43,0,0,0,5,1.91,7.38,7.38,0,0,0,5-1.91,4.42,4.42,0,0,1,3.12-1.24V80.24a7.48,7.48,0,0,0-5,1.91,4.42,4.42,0,0,1-3.11,1.25"/><g class="cls-19"><rect class="cls-2" x="-3775.38" y="-2413.06" width="5224.37" height="4468.85"/></g><path class="cls-3" d="M-969.11,64.5a4.73,4.73,0,0,0,4.73,4.73,4.73,4.73,0,0,0,4.72-4.73V61.35h-3.15V64.5a1.57,1.57,0,0,1-1.57,1.58A1.58,1.58,0,0,1-966,64.5v-22h-3.15Z"/><g class="cls-20"><rect class="cls-2" x="-3775.38" y="-2413.06" width="5224.37" height="4468.85"/></g><path class="cls-3" d="M-947.06,53.48V45.61h-3.16v7.87a1.57,1.57,0,0,1-1.57,1.58,1.57,1.57,0,0,1-1.57-1.58V40.88a4.73,4.73,0,0,0-4.73-4.72,4.73,4.73,0,0,0-4.72,4.72v4.73h3.15V40.88a1.58,1.58,0,0,1,1.57-1.57,1.57,1.57,0,0,1,1.57,1.57v12.6a4.74,4.74,0,0,0,4.73,4.73,4.73,4.73,0,0,0,4.73-4.73"/><g class="cls-21"><rect class="cls-2" x="-3775.38" y="-2413.06" width="5224.37" height="4468.85"/></g><path class="cls-3" d="M-991.15,64.5a1.58,1.58,0,0,1-1.57,1.58,1.58,1.58,0,0,1-1.58-1.58V61.35h-3.15V64.5a4.73,4.73,0,0,0,4.73,4.73A4.73,4.73,0,0,0-988,64.5v-22h-3.15Z"/><g class="cls-22"><rect class="cls-2" x="-3775.38" y="-2413.06" width="5224.37" height="4468.85"/></g><path class="cls-3" d="M-1010,53.48a4.72,4.72,0,0,0,4.72,4.73,4.74,4.74,0,0,0,4.73-4.73V40.88A1.57,1.57,0,0,1-999,39.31a1.58,1.58,0,0,1,1.57,1.57v4.73h3.15V40.88A4.73,4.73,0,0,0-999,36.16a4.73,4.73,0,0,0-4.73,4.72v12.6a1.57,1.57,0,0,1-1.57,1.58,1.57,1.57,0,0,1-1.57-1.58V45.61H-1010Z"/><g class="cls-23"><rect class="cls-2" x="-3775.38" y="-2413.06" width="5224.37" height="4468.85"/></g><path class="cls-3" d="M-1019.49,64.5a17.73,17.73,0,0,1,5.64.92l5,1.65-2.65-6.63a8.51,8.51,0,0,0-7.94-5.38,4.73,4.73,0,0,0-4.73,4.72,4.73,4.73,0,0,0,4.73,4.72m0-6.3a5.4,5.4,0,0,1,5,3.4l.16.4a21,21,0,0,0-5.18-.64,1.59,1.59,0,0,1-1.58-1.58,1.58,1.58,0,0,1,1.58-1.58"/><g class="cls-24"><rect class="cls-2" x="-3775.38" y="-2413.06" width="5224.37" height="4468.85"/></g><path class="cls-3" d="M-945.56,60.43l-2.65,6.64,5-1.65a17.73,17.73,0,0,1,5.64-.92,4.73,4.73,0,0,0,4.73-4.72,4.73,4.73,0,0,0-4.73-4.72A8.52,8.52,0,0,0-945.56,60.43Zm2.92,1.17a5.37,5.37,0,0,1,5-3.39A1.57,1.57,0,0,1-936,59.78a1.58,1.58,0,0,1-1.58,1.57,21.07,21.07,0,0,0-5.18.65Z"/><g class="cls-25"><rect class="cls-2" x="-3775.38" y="-2413.06" width="5224.37" height="4468.85"/></g><path class="cls-2" d="M99.12,82a1.46,1.46,0,0,0-1.84-.92c-3,1-5.85,1.87-8.44,2.56l.08-14.5a4.12,4.12,0,0,0,2.68-3.86V61.63h4.26a3.34,3.34,0,0,0,3.33-3.34V22a1.43,1.43,0,0,0-.76-1.28,34.25,34.25,0,0,1-9.62-7.85V9.76A5.07,5.07,0,0,0,83.75,4.7h-.13V1.45a1.46,1.46,0,0,0-2.91,0V4.7h-.13a5.07,5.07,0,0,0-5.06,5.06v3.17c-6.5,9.85-15.91,15.49-25.9,15.5h0c-10,0-19.4-5.65-25.9-15.5V9.76A5.07,5.07,0,0,0,18.61,4.7h-.13V1.45a1.46,1.46,0,0,0-2.91,0V4.7h-.13a5.07,5.07,0,0,0-5.06,5.06v3.07A34,34,0,0,1,.76,20.68,1.47,1.47,0,0,0,0,22V58.29a3.35,3.35,0,0,0,3.34,3.34H9.52v3.65a4.14,4.14,0,0,0,2.68,3.86V80.81A51.39,51.39,0,0,0,.75,85.5,1.45,1.45,0,0,0,2.15,88a48.39,48.39,0,0,1,11.68-4.66,35.92,35.92,0,0,1,17.87-.56l23.77,5A79.52,79.52,0,0,0,70.06,89.4c7,0,15.48-1.32,28.14-5.56A1.46,1.46,0,0,0,99.12,82ZM88.7,65.28a1.22,1.22,0,0,1-1.22,1.22H69.11a1.24,1.24,0,0,1-1.23-1.22V61.63H88.7Zm.11-48.18a37,37,0,0,0,7.48,5.71V53H88.81ZM78.43,9.76a2.15,2.15,0,0,1,2.15-2.15h3.17A2.15,2.15,0,0,1,85.9,9.76v2.15H78.43Zm0,5.06H85.9V53H78.43ZM64.85,27.17a37.75,37.75,0,0,0,10.67-9.3V53H64.85ZM51.05,31.3a30.37,30.37,0,0,0,10.89-2.64V53H51.05Zm-13.8-2.64A30.37,30.37,0,0,0,48.14,31.3V53H37.25ZM23.67,17.87a38,38,0,0,0,10.68,9.31V53H23.67ZM13.29,9.76a2.15,2.15,0,0,1,2.15-2.15h3.17a2.15,2.15,0,0,1,2.15,2.15v2.15H13.29Zm0,5.06h7.47V53H13.29Zm-10.38,8a37.27,37.27,0,0,0,7.47-5.71V53H2.91ZM33.24,65.28A1.22,1.22,0,0,1,32,66.5H13.65a1.22,1.22,0,0,1-1.22-1.22V61.63H33.24ZM15.1,80.13V69.41H30.57V79.74a47.84,47.84,0,0,0-15.47.39Zm18.37,0v-11a4.14,4.14,0,0,0,2.68-3.86V61.63H46.81a1.45,1.45,0,1,0,0-2.9H3.34a.44.44,0,0,1-.43-.44V55.92H96.29v2.37a.44.44,0,0,1-.43.44H53.53a1.45,1.45,0,1,0,0,2.9H65v3.65a4.13,4.13,0,0,0,2.67,3.86V74.3a1.46,1.46,0,0,0,2.91,0V69.41H86l-.08,15a67.89,67.89,0,0,1-15.37,2.09V81a1.46,1.46,0,0,0-2.91,0v5.42A86.25,86.25,0,0,1,56,84.91s-18.85-4.15-22.51-4.75Zm0,0"/></svg>