<svg id="Layer_1" data-name="Layer 1" xmlns="http://www.w3.org/2000/svg" xmlns:xlink="http://www.w3.org/1999/xlink" viewBox="0 0 81.1 84.14"><defs><style>.cls-1,.cls-2,.cls-3{fill:#fff;}.cls-1{clip-rule:evenodd;}.cls-3{fill-rule:evenodd;}.cls-4{clip-path:url(#clip-path);}.cls-5{clip-path:url(#clip-path-2);}.cls-6{clip-path:url(#clip-path-3);}.cls-7{clip-path:url(#clip-path-4);}.cls-8{clip-path:url(#clip-path-5);}.cls-9{clip-path:url(#clip-path-6);}.cls-10{clip-path:url(#clip-path-7);}.cls-11{clip-path:url(#clip-path-8);}.cls-12{clip-path:url(#clip-path-9);}.cls-13{clip-path:url(#clip-path-10);}.cls-14{clip-path:url(#clip-path-11);}.cls-15{clip-path:url(#clip-path-12);}.cls-16{clip-path:url(#clip-path-13);}.cls-17{clip-path:url(#clip-path-14);}.cls-18{clip-path:url(#clip-path-15);}.cls-19{clip-path:url(#clip-path-16);}.cls-20{clip-path:url(#clip-path-17);}.cls-21{clip-path:url(#clip-path-18);}.cls-22{clip-path:url(#clip-path-19);}.cls-23{clip-path:url(#clip-path-20);}.cls-24{clip-path:url(#clip-path-21);}.cls-25{clip-path:url(#clip-path-22);}.cls-26{clip-path:url(#clip-path-23);}</style><clipPath id="clip-path"><path class="cls-1" d="M-546.4,79.28h15.91v-10H-546.4Zm17.9,4h-19.89a2,2,0,0,1-2-2V67.34a2,2,0,0,1,2-2h19.89a2,2,0,0,1,2,2V81.27A2,2,0,0,1-528.5,83.25Z"/></clipPath><clipPath id="clip-path-2"><path class="cls-1" d="M-556.34,79.28h35.8V-8.24h-35.8Zm37.79,4h-39.78a2,2,0,0,1-2-2v-91.5a2,2,0,0,1,2-2h39.78a2,2,0,0,1,2,2v91.5A2,2,0,0,1-518.55,83.25Z"/></clipPath><clipPath id="clip-path-3"><path class="cls-1" d="M-572.26,79.28h11.93V-.28h-11.93Zm13.93,4h-15.92a2,2,0,0,1-2-2V-2.28a2,2,0,0,1,2-2h15.92a2,2,0,0,1,2,2V81.27A2,2,0,0,1-558.33,83.25Z"/></clipPath><clipPath id="clip-path-4"><path class="cls-1" d="M-516.57,79.28h11.94V-.28h-11.94Zm13.93,4h-15.91a2,2,0,0,1-2-2V-2.28a2,2,0,0,1,2-2h15.91a2,2,0,0,1,2,2V81.27A2,2,0,0,1-502.64,83.25Z"/></clipPath><clipPath id="clip-path-5"><rect class="cls-2" x="-590.16" y="39.5" width="3.98" height="19.89" transform="translate(-274.65 -450.65) rotate(-53.11)"/></clipPath><clipPath id="clip-path-6"><rect class="cls-2" x="-598.12" y="47.45" width="19.89" height="3.98" transform="translate(-147.35 -343.08) rotate(-36.88)"/></clipPath><clipPath id="clip-path-7"><rect class="cls-2" x="-490.7" y="39.5" width="3.97" height="19.89" transform="translate(-234.95 -371.14) rotate(-53.12)"/></clipPath><clipPath id="clip-path-8"><rect class="cls-2" x="-498.67" y="47.46" width="19.89" height="3.97" transform="translate(-127.28 -283.2) rotate(-36.85)"/></clipPath><clipPath id="clip-path-9"><path class="cls-1" d="M-730.51,29.8a9.48,9.48,0,0,0-6.65-9,38.57,38.57,0,0,0-4.67-11.26A9.49,9.49,0,0,0-743.5-1.6a9.34,9.34,0,0,0-6.68-2.76,9.36,9.36,0,0,0-4.42,1.09,38.15,38.15,0,0,0-11.23-4.68,9.47,9.47,0,0,0-9-6.65,9.47,9.47,0,0,0-9,6.65,38.32,38.32,0,0,0-11.24,4.68A9.43,9.43,0,0,0-802.29-4a1.41,1.41,0,0,0,.82,2.69A6.6,6.6,0,0,1-794.84.39a6.67,6.67,0,0,1,0,9.41,6.72,6.72,0,0,1-9.39,0,6.68,6.68,0,0,1-1.45-7.24,1.41,1.41,0,0,0-2.6-1.06,9.46,9.46,0,0,0,.39,8,38.57,38.57,0,0,0-4.67,11.26,9.48,9.48,0,0,0-6.64,9,9.48,9.48,0,0,0,6.64,9,38.59,38.59,0,0,0,4.68,11.26,9.49,9.49,0,0,0,1.66,11.11,9.55,9.55,0,0,0,11.11,1.67,36.27,36.27,0,0,0,4.3,2.3l-4.29,11.61A3.31,3.31,0,0,0-792,81.18h34.36a3.3,3.3,0,0,0,3.06-4.39l-4.28-11.61a36.27,36.27,0,0,0,4.3-2.3,9.29,9.29,0,0,0,4.4,1.1,9.47,9.47,0,0,0,2.92-.46,1.41,1.41,0,0,0-.87-2.67,6.58,6.58,0,0,1-6.72-1.62,6.67,6.67,0,0,1,0-9.41,6.69,6.69,0,0,1,9.38,0A6.64,6.64,0,0,1-744,57a1.4,1.4,0,0,0,2.6,1,9.43,9.43,0,0,0-.42-7.93,38.57,38.57,0,0,0,4.67-11.26A9.47,9.47,0,0,0-730.51,29.8Zm-2.81,0A6.66,6.66,0,0,1-740,36.46a6.65,6.65,0,0,1-6.63-6.66A6.65,6.65,0,0,1-740,23.15,6.66,6.66,0,0,1-733.32,29.8Zm-16-1.4h-11.86a13.65,13.65,0,0,0-3-7.3l8.39-8.4a9.54,9.54,0,0,0,7.46,1.67,30.36,30.36,0,0,1,3.14,7.57A9.43,9.43,0,0,0-749.29,28.4Zm-11.83,34.68a45.41,45.41,0,0,1-4.3,1.48,8.79,8.79,0,0,0-.38-2.47A32.83,32.83,0,0,0-758.48,59a9.88,9.88,0,0,0,1.48,2A28.56,28.56,0,0,1-761.12,63.08Zm-31.58-2a9.42,9.42,0,0,0,1.46-2,33.23,33.23,0,0,0,7.32,3.05,9.58,9.58,0,0,0-.38,2.47A35.54,35.54,0,0,1-792.7,61.06Zm-13.36-13.38a35.65,35.65,0,0,1-3.49-8.42,9.43,9.43,0,0,0,2.45-.38A33.59,33.59,0,0,0-804,46.21,9.26,9.26,0,0,0-806.06,47.68Zm4.68-2.44a30.18,30.18,0,0,1-3.13-7.57,9.51,9.51,0,0,0,4.1-6.46h11.85a13.64,13.64,0,0,0,3,7.27l-8.41,8.41A9.58,9.58,0,0,0-801.38,45.24Zm25.12,10.17a9.41,9.41,0,0,0-6.45,4.1,30.7,30.7,0,0,1-7.56-3.15A9.51,9.51,0,0,0-792,48.87l8.4-8.39a13.64,13.64,0,0,0,7.3,3Zm1.4,2.7a6.66,6.66,0,0,1,6.65,6.65,6.66,6.66,0,0,1-6.65,6.65,6.65,6.65,0,0,1-6.64-6.65A6.65,6.65,0,0,1-774.86,58.11Zm15.42-1.75A30.54,30.54,0,0,1-767,59.51a9.41,9.41,0,0,0-6.45-4.1V43.51a13.67,13.67,0,0,0,7.29-3l8.4,8.39A9.48,9.48,0,0,0-759.44,56.36Zm-15.42-15.58a11,11,0,0,1-11-11,11,11,0,0,1,11-11,11,11,0,0,1,11,11A11,11,0,0,1-774.86,40.78Zm-9.06-43.26A33.23,33.23,0,0,0-791.24.57a8.86,8.86,0,0,0-1.47-2,35.36,35.36,0,0,1,8.41-3.5A10,10,0,0,0-783.92-2.48Zm-6.35,5.73A30.32,30.32,0,0,1-782.71.1a9.46,9.46,0,0,0,6.45,4.11V16.1a13.82,13.82,0,0,0-7.29,3l-8.39-8.39A9.55,9.55,0,0,0-790.27,3.25ZM-758.48.57a32.83,32.83,0,0,0-7.32-3,8.72,8.72,0,0,0,.38-2.46A35.61,35.61,0,0,1-757-1.44,9.82,9.82,0,0,0-758.48.57ZM-767,.1a30.17,30.17,0,0,1,7.56,3.15,9.49,9.49,0,0,0,1.66,7.46l-8.4,8.41a13.64,13.64,0,0,0-7.27-3V4.21A9.46,9.46,0,0,0-767,.1Zm23.34,11.83a35.44,35.44,0,0,1,3.5,8.42,9.5,9.5,0,0,0-2.46.38,33.27,33.27,0,0,0-3-7.33A9.45,9.45,0,0,0-743.66,11.93ZM-745.49.39a6.65,6.65,0,0,1,0,9.41,6.71,6.71,0,0,1-9.38,0,6.74,6.74,0,0,1,0-9.41A6.69,6.69,0,0,1-745.49.39ZM-774.86-11.8a6.66,6.66,0,0,1,6.65,6.65,6.66,6.66,0,0,1-6.65,6.65,6.65,6.65,0,0,1-6.64-6.65,6.56,6.56,0,0,1,.11-1.18,1.3,1.3,0,0,0,.07-.33A6.65,6.65,0,0,1-774.86-11.8Zm-19.07,24.51,8.4,8.4a13.69,13.69,0,0,0-3,7.29h-11.85a9.51,9.51,0,0,0-4.1-6.46,30.33,30.33,0,0,1,3.13-7.57A9.59,9.59,0,0,0-793.93,12.71ZM-804,13.4a33.8,33.8,0,0,0-3.05,7.33,9.43,9.43,0,0,0-2.45-.38,35.82,35.82,0,0,1,3.49-8.42A9.6,9.6,0,0,0-804,13.4Zm-12.34,16.4a6.73,6.73,0,0,1,6.63-6.65,6.66,6.66,0,0,1,6.65,6.65,6.66,6.66,0,0,1-6.65,6.66A6.66,6.66,0,0,1-816.39,29.8Zm16.86,31.38a6.61,6.61,0,0,1-4.7-2,6.67,6.67,0,0,1,0-9.41,6.7,6.7,0,0,1,9.39,0,6.67,6.67,0,0,1,0,9.41A6.75,6.75,0,0,1-799.53,61.18Zm42.28,16.59a.44.44,0,0,1-.43.6H-792a.44.44,0,0,1-.42-.6l4.25-11.52a37.91,37.91,0,0,0,4.33,1.31,9.47,9.47,0,0,0,9,6.66,9.48,9.48,0,0,0,9-6.66,37.91,37.91,0,0,0,4.33-1.31Zm1.47-30.87-8.4-8.4a13.69,13.69,0,0,0,3-7.29h11.86a9.43,9.43,0,0,0,4.09,6.46,30.21,30.21,0,0,1-3.14,7.57,9.33,9.33,0,0,0-1.84-.18A9.39,9.39,0,0,0-755.78,46.9Zm10.12-.69a33.07,33.07,0,0,0,3-7.33,9.5,9.5,0,0,0,2.46.38,35.26,35.26,0,0,1-3.5,8.42A9.45,9.45,0,0,0-745.66,46.21Z"/></clipPath><clipPath id="clip-path-10"><path class="cls-2" d="M-1051.39,83.73H-1126a2.57,2.57,0,0,1-2.53-2.6V75.69a2.57,2.57,0,0,1,2.53-2.6h28.57a6.67,6.67,0,0,1-.67-2.08,6.79,6.79,0,0,1,1.41-5.3l.92-1.13a7.1,7.1,0,0,0,1.46-5.57l-.38-2.43h-11.24a6,6,0,0,1-5.89-6.15.93.93,0,0,0-.38-.78l-2.37-1.68a2.62,2.62,0,0,1-1-2.89,2.53,2.53,0,0,1,2.43-1.87h19.32V40.29h-6.46a6,6,0,0,1-5.89-6.15.93.93,0,0,0-.39-.79l-2.36-1.67a2.62,2.62,0,0,1-1-2.89,2.55,2.55,0,0,1,2.43-1.87h13.67V25.45a10.17,10.17,0,0,0-5.7-9.28l-.72-.34V13.34h23.06v2.49l-.72.34a10.17,10.17,0,0,0-5.7,9.28v1.47h13.67a2.55,2.55,0,0,1,2.43,1.88,2.64,2.64,0,0,1-1,2.88l-2.36,1.67a.94.94,0,0,0-.4.79,6,6,0,0,1-5.88,6.15h-6.46v2.92h19.32a2.56,2.56,0,0,1,2.43,1.88,2.63,2.63,0,0,1-1,2.88l-2.36,1.67a.94.94,0,0,0-.39.79,6,6,0,0,1-5.89,6.15h-11.24l-.38,2.43a7,7,0,0,0,1.46,5.57l.91,1.13a6.79,6.79,0,0,1,1.42,5.3,7.15,7.15,0,0,1-.68,2.08h28.58a2.57,2.57,0,0,1,2.53,2.6v5.44A2.57,2.57,0,0,1-1051.39,83.73ZM-1126,75.59a.14.14,0,0,0,0,.1v5.44c0,.07,0,.1,0,.1h74.57a.14.14,0,0,0,0-.1V75.69a.13.13,0,0,0,0-.1h-35.06l3.09-2.26a4.12,4.12,0,0,0,1.61-2.7,4.3,4.3,0,0,0-.89-3.35l-.91-1.12a9.58,9.58,0,0,1-2-7.54l.71-4.54h13.38a3.53,3.53,0,0,0,3.39-3.65,3.43,3.43,0,0,1,1.45-2.83l2.36-1.67a.14.14,0,0,0,0-.15l-21.85-.07V37.79h9a3.52,3.52,0,0,0,3.38-3.65,3.47,3.47,0,0,1,1.46-2.84l2.36-1.66a.16.16,0,0,0,0-.16l-16.2-.06v-4a12.89,12.89,0,0,1,4.22-9.61h-13.66a12.89,12.89,0,0,1,4.22,9.61v4h-16.17c0,.13,0,.2,0,.22l2.36,1.66a3.46,3.46,0,0,1,1.45,2.84,3.53,3.53,0,0,0,3.39,3.65h9v7.92h-21.82c-.05.14,0,.2,0,.22l2.36,1.67a3.43,3.43,0,0,1,1.45,2.83,3.53,3.53,0,0,0,3.39,3.65h13.37l.72,4.54a9.6,9.6,0,0,1-2,7.54l-.92,1.12a4.33,4.33,0,0,0-.88,3.35,4.07,4.07,0,0,0,1.6,2.7l3.07,2.26Z"/></clipPath><clipPath id="clip-path-11"><path class="cls-1" d="M-1121.07,42.51a2.82,2.82,0,0,1,2.82-2.82,5.63,5.63,0,0,0,5.63-5.63V27a2.82,2.82,0,0,1,2.82-2.82h8.45V21.39h-8.45a5.64,5.64,0,0,0-5.64,5.63v7a2.82,2.82,0,0,1-2.81,2.82,5.64,5.64,0,0,0-5.63,5.63V62.22h2.81Z"/></clipPath><clipPath id="clip-path-12"><path class="cls-2" d="M-1088.68,10.92a2.15,2.15,0,0,1-1.86-1.05l-3.19-5.33a2.15,2.15,0,0,1,.32-2.64l3.2-3.2a2.21,2.21,0,0,1,3.06,0l3.2,3.2a2.15,2.15,0,0,1,.32,2.64l-3.2,5.33A2.17,2.17,0,0,1-1088.68,10.92Zm0-2.19h0Zm-.06-8.48-3.14,3.2,3.17,5.23,3.16-5.27Z"/></clipPath><clipPath id="clip-path-13"><path class="cls-1" d="M-1076,21.39v2.82h8.45a2.81,2.81,0,0,1,2.82,2.81v7a5.64,5.64,0,0,0,5.63,5.64,2.82,2.82,0,0,1,2.82,2.81V62.23h2.81V42.51a5.63,5.63,0,0,0-5.63-5.63,2.81,2.81,0,0,1-2.81-2.82V27a5.64,5.64,0,0,0-5.64-5.63Z"/></clipPath><clipPath id="clip-path-14"><path class="cls-1" d="M-1070.38,11.53h2.82A8.46,8.46,0,0,0-1076,3.08h-2.81V5.9h2.81a5.64,5.64,0,0,1,5.63,5.63"/></clipPath><clipPath id="clip-path-15"><path class="cls-1" d="M-1101.35,5.9h2.81V3.08h-2.81a8.47,8.47,0,0,0-8.45,8.45h2.82a5.64,5.64,0,0,1,5.63-5.63"/></clipPath><clipPath id="clip-path-16"><path class="cls-1" d="M-621.51,70.42a4.38,4.38,0,0,1-3.11,1.25,4.38,4.38,0,0,1-3.11-1.25,7.47,7.47,0,0,0-5-1.9,7.46,7.46,0,0,0-5,1.9,4.36,4.36,0,0,1-3.1,1.25A4.38,4.38,0,0,1-644,70.42a7.43,7.43,0,0,0-5-1.9,7.47,7.47,0,0,0-5,1.9,4.38,4.38,0,0,1-3.11,1.25,3.92,3.92,0,0,1-1.81-.38V29.16h22v3.15h3.14V29.16h1.58A3.15,3.15,0,0,0-629.07,26V22.86a3.16,3.16,0,0,0-3.15-3.15h-.08A29.92,29.92,0,0,0-660.56-8.55V-10.2a4.73,4.73,0,0,0-4.72-4.73A4.73,4.73,0,0,0-670-10.2v1.65a29.91,29.91,0,0,0-28.26,28.26h-.08a3.16,3.16,0,0,0-3.15,3.15V26a3.16,3.16,0,0,0,3.15,3.15h1.57v3.15h3.16V29.16h22v42.1a3.94,3.94,0,0,1-1.86.41,4.38,4.38,0,0,1-3.11-1.25,7.45,7.45,0,0,0-5-1.9,7.47,7.47,0,0,0-5,1.9,4.36,4.36,0,0,1-3.1,1.25,4.37,4.37,0,0,1-3.1-1.24,7.38,7.38,0,0,0-5-1.91,7.47,7.47,0,0,0-5,1.9,4.36,4.36,0,0,1-3.1,1.25,4.36,4.36,0,0,1-3.1-1.25,7.43,7.43,0,0,0-5-1.9v3.15a4.34,4.34,0,0,1,3.1,1.25,7.47,7.47,0,0,0,5,1.9,7.4,7.4,0,0,0,5-1.9,4.36,4.36,0,0,1,3.1-1.25,4.34,4.34,0,0,1,3.1,1.25,7.42,7.42,0,0,0,5,1.9,7.42,7.42,0,0,0,5-1.9,4.36,4.36,0,0,1,3.1-1.25,4.34,4.34,0,0,1,3.1,1.25,7.43,7.43,0,0,0,5,1.9,7.37,7.37,0,0,0,5-1.9,4.4,4.4,0,0,1,3.11-1.25,4.4,4.4,0,0,1,3.11,1.25,7.37,7.37,0,0,0,5,1.9,7.43,7.43,0,0,0,5-1.9,4.34,4.34,0,0,1,3.1-1.25,4.38,4.38,0,0,1,3.11,1.25,7.38,7.38,0,0,0,5,1.9,7.42,7.42,0,0,0,5-1.9,4.36,4.36,0,0,1,3.11-1.25,4.36,4.36,0,0,1,3.1,1.25,7.45,7.45,0,0,0,5,1.9,7.43,7.43,0,0,0,5-1.9,4.36,4.36,0,0,1,3.11-1.25V68.52A7.46,7.46,0,0,0-621.51,70.42Zm-43.77-82.2a1.58,1.58,0,0,1,1.57,1.58v1.57h-3.15V-10.2A1.58,1.58,0,0,1-665.28-11.78Zm-4.33,6.36a37.25,37.25,0,0,0-8.33,11.91L-675,7.75A33.71,33.71,0,0,1-665.28-5a33.55,33.55,0,0,1,12.55,24.74h-25.09a33.63,33.63,0,0,1,1.62-9l-3-1A37.28,37.28,0,0,0-681,19.71h-14.15A26.76,26.76,0,0,1-669.61-5.42Zm-28.74,28.28h53.53V19.71h-4.76A36.7,36.7,0,0,0-660.94-5.42a26.76,26.76,0,0,1,25.49,25.13h-6.22v3.15h9.45V26h-66.13Zm33,45.66a7.2,7.2,0,0,0-3.13.66v-40h6.3V69.21A7,7,0,0,0-665.31,68.52Z"/></clipPath><clipPath id="clip-path-17"><path class="cls-1" d="M-624.62,79.54a4.42,4.42,0,0,1-3.11-1.24,7.43,7.43,0,0,0-5-1.91,7.42,7.42,0,0,0-5,1.91,4.41,4.41,0,0,1-3.1,1.24A4.4,4.4,0,0,1-644,78.3a7.4,7.4,0,0,0-5-1.91,7.4,7.4,0,0,0-5,1.91,4.42,4.42,0,0,1-3.11,1.24,4.39,4.39,0,0,1-3.1-1.24,7.4,7.4,0,0,0-5-1.91,7.4,7.4,0,0,0-5,1.91,4.39,4.39,0,0,1-3.1,1.24,4.42,4.42,0,0,1-3.11-1.24,7.4,7.4,0,0,0-5-1.91,7.4,7.4,0,0,0-5,1.91,4.39,4.39,0,0,1-3.1,1.24,4.39,4.39,0,0,1-3.1-1.24,7.4,7.4,0,0,0-5-1.91,7.37,7.37,0,0,0-5,1.91A4.42,4.42,0,0,1-706,79.54a4.41,4.41,0,0,1-3.1-1.24,7.37,7.37,0,0,0-5-1.91v3.15a4.36,4.36,0,0,1,3.1,1.25,7.37,7.37,0,0,0,5,1.9,7.4,7.4,0,0,0,5-1.9,4.37,4.37,0,0,1,3.1-1.25,4.38,4.38,0,0,1,3.11,1.25,7.35,7.35,0,0,0,5,1.9,7.42,7.42,0,0,0,5-1.9,4.36,4.36,0,0,1,3.1-1.25,4.36,4.36,0,0,1,3.1,1.25,7.45,7.45,0,0,0,5,1.9,7.42,7.42,0,0,0,5-1.9,4.36,4.36,0,0,1,3.1-1.25,4.36,4.36,0,0,1,3.1,1.25,7.42,7.42,0,0,0,5,1.9,7.43,7.43,0,0,0,5-1.9,4.36,4.36,0,0,1,3.1-1.25,4.38,4.38,0,0,1,3.11,1.25,7.38,7.38,0,0,0,5,1.9,7.42,7.42,0,0,0,5-1.9,4.34,4.34,0,0,1,3.1-1.25,4.36,4.36,0,0,1,3.11,1.25,7.43,7.43,0,0,0,5,1.9,7.38,7.38,0,0,0,5-1.9,4.39,4.39,0,0,1,3.12-1.25V76.39a7.43,7.43,0,0,0-5,1.91,4.42,4.42,0,0,1-3.11,1.24"/></clipPath><clipPath id="clip-path-18"><path class="cls-1" d="M-655.84,60.65a4.72,4.72,0,0,0,4.73,4.72,4.72,4.72,0,0,0,4.72-4.72V57.5h-3.15v3.15a1.57,1.57,0,0,1-1.57,1.57,1.57,1.57,0,0,1-1.58-1.57v-22h-3.15Z"/></clipPath><clipPath id="clip-path-19"><path class="cls-1" d="M-633.79,49.63V41.76h-3.16v7.87a1.57,1.57,0,0,1-1.57,1.57,1.57,1.57,0,0,1-1.57-1.57V37a4.73,4.73,0,0,0-4.73-4.72A4.73,4.73,0,0,0-649.54,37v4.73h3.15V37a1.58,1.58,0,0,1,1.57-1.57A1.58,1.58,0,0,1-643.24,37v12.6a4.73,4.73,0,0,0,4.72,4.72,4.73,4.73,0,0,0,4.73-4.72"/></clipPath><clipPath id="clip-path-20"><path class="cls-1" d="M-677.88,60.65a1.57,1.57,0,0,1-1.57,1.57A1.57,1.57,0,0,1-681,60.65V57.5h-3.15v3.15a4.72,4.72,0,0,0,4.73,4.72,4.72,4.72,0,0,0,4.72-4.72v-22h-3.15Z"/></clipPath><clipPath id="clip-path-21"><path class="cls-1" d="M-696.77,49.63A4.72,4.72,0,0,0-692,54.35a4.74,4.74,0,0,0,4.73-4.72V37a1.57,1.57,0,0,1,1.57-1.57A1.58,1.58,0,0,1-684.18,37v4.73H-681V37a4.73,4.73,0,0,0-4.72-4.72A4.73,4.73,0,0,0-690.48,37v12.6A1.57,1.57,0,0,1-692,51.2a1.57,1.57,0,0,1-1.57-1.57V41.76h-3.15Z"/></clipPath><clipPath id="clip-path-22"><path class="cls-1" d="M-706.22,60.65a18,18,0,0,1,5.64.91l5,1.66-2.65-6.64a8.51,8.51,0,0,0-7.94-5.38,4.73,4.73,0,0,0-4.72,4.72,4.72,4.72,0,0,0,4.72,4.73m0-6.3a5.4,5.4,0,0,1,5,3.4l.16.4a21,21,0,0,0-5.18-.65,1.58,1.58,0,0,1-1.58-1.58,1.58,1.58,0,0,1,1.58-1.57"/></clipPath><clipPath id="clip-path-23"><path class="cls-1" d="M-632.29,56.57l-2.65,6.65,5-1.66a18,18,0,0,1,5.64-.91,4.73,4.73,0,0,0,4.73-4.73,4.74,4.74,0,0,0-4.73-4.72A8.52,8.52,0,0,0-632.29,56.57Zm2.92,1.18a5.38,5.38,0,0,1,5-3.4,1.58,1.58,0,0,1,1.58,1.57,1.58,1.58,0,0,1-1.58,1.58,21.07,21.07,0,0,0-5.18.65Z"/></clipPath></defs><path class="cls-3" d="M-546.4,79.28h15.91v-10H-546.4Zm17.9,4h-19.89a2,2,0,0,1-2-2V67.34a2,2,0,0,1,2-2h19.89a2,2,0,0,1,2,2V81.27A2,2,0,0,1-528.5,83.25Z"/><g class="cls-4"><rect class="cls-2" x="-1814.94" y="-3713.37" width="5804.01" height="4970.61"/></g><path class="cls-3" d="M-556.34,79.28h35.8V-8.24h-35.8Zm37.79,4h-39.78a2,2,0,0,1-2-2v-91.5a2,2,0,0,1,2-2h39.78a2,2,0,0,1,2,2v91.5A2,2,0,0,1-518.55,83.25Z"/><g class="cls-5"><rect class="cls-2" x="-1814.94" y="-3713.37" width="5804.01" height="4964.66"/></g><path class="cls-3" d="M-572.26,79.28h11.93V-.28h-11.93Zm13.93,4h-15.92a2,2,0,0,1-2-2V-2.28a2,2,0,0,1,2-2h15.92a2,2,0,0,1,2,2V81.27A2,2,0,0,1-558.33,83.25Z"/><g class="cls-6"><rect class="cls-2" x="-1814.94" y="-3713.37" width="5804.01" height="4964.66"/></g><path class="cls-3" d="M-516.57,79.28h11.94V-.28h-11.94Zm13.93,4h-15.91a2,2,0,0,1-2-2V-2.28a2,2,0,0,1,2-2h15.91a2,2,0,0,1,2,2V81.27A2,2,0,0,1-502.64,83.25Z"/><g class="cls-7"><rect class="cls-2" x="-1814.94" y="-3713.37" width="5804.01" height="4964.66"/></g><rect class="cls-2" x="-590.16" y="39.5" width="3.98" height="19.89" transform="translate(-274.65 -450.65) rotate(-53.11)"/><g class="cls-8"><rect class="cls-2" x="-1814.94" y="-3713.37" width="5804.01" height="4964.66"/></g><rect class="cls-2" x="-598.12" y="47.45" width="19.89" height="3.98" transform="translate(-147.35 -343.08) rotate(-36.88)"/><g class="cls-9"><rect class="cls-2" x="-1814.94" y="-3713.37" width="5804.01" height="4964.66"/></g><rect class="cls-2" x="-490.7" y="39.5" width="3.97" height="19.89" transform="translate(-234.95 -371.14) rotate(-53.12)"/><g class="cls-10"><rect class="cls-2" x="-1814.94" y="-3713.37" width="5804.01" height="4964.66"/></g><rect class="cls-2" x="-498.67" y="47.46" width="19.89" height="3.97" transform="translate(-127.28 -283.2) rotate(-36.85)"/><g class="cls-11"><rect class="cls-2" x="-1814.94" y="-3713.37" width="5804.01" height="4964.66"/></g><path class="cls-3" d="M-730.51,29.8a9.48,9.48,0,0,0-6.65-9,38.57,38.57,0,0,0-4.67-11.26A9.49,9.49,0,0,0-743.5-1.6a9.34,9.34,0,0,0-6.68-2.76,9.36,9.36,0,0,0-4.42,1.09,38.15,38.15,0,0,0-11.23-4.68,9.47,9.47,0,0,0-9-6.65,9.47,9.47,0,0,0-9,6.65,38.32,38.32,0,0,0-11.24,4.68A9.43,9.43,0,0,0-802.29-4a1.41,1.41,0,0,0,.82,2.69A6.6,6.6,0,0,1-794.84.39a6.67,6.67,0,0,1,0,9.41,6.72,6.72,0,0,1-9.39,0,6.68,6.68,0,0,1-1.45-7.24,1.41,1.41,0,0,0-2.6-1.06,9.46,9.46,0,0,0,.39,8,38.57,38.57,0,0,0-4.67,11.26,9.48,9.48,0,0,0-6.64,9,9.48,9.48,0,0,0,6.64,9,38.59,38.59,0,0,0,4.68,11.26,9.49,9.49,0,0,0,1.66,11.11,9.55,9.55,0,0,0,11.11,1.67,36.27,36.27,0,0,0,4.3,2.3l-4.29,11.61A3.31,3.31,0,0,0-792,81.18h34.36a3.3,3.3,0,0,0,3.06-4.39l-4.28-11.61a36.27,36.27,0,0,0,4.3-2.3,9.29,9.29,0,0,0,4.4,1.1,9.47,9.47,0,0,0,2.92-.46,1.41,1.41,0,0,0-.87-2.67,6.58,6.58,0,0,1-6.72-1.62,6.67,6.67,0,0,1,0-9.41,6.69,6.69,0,0,1,9.38,0A6.64,6.64,0,0,1-744,57a1.4,1.4,0,0,0,2.6,1,9.43,9.43,0,0,0-.42-7.93,38.57,38.57,0,0,0,4.67-11.26A9.47,9.47,0,0,0-730.51,29.8Zm-2.81,0A6.66,6.66,0,0,1-740,36.46a6.65,6.65,0,0,1-6.63-6.66A6.65,6.65,0,0,1-740,23.15,6.66,6.66,0,0,1-733.32,29.8Zm-16-1.4h-11.86a13.65,13.65,0,0,0-3-7.3l8.39-8.4a9.54,9.54,0,0,0,7.46,1.67,30.36,30.36,0,0,1,3.14,7.57A9.43,9.43,0,0,0-749.29,28.4Zm-11.83,34.68a45.41,45.41,0,0,1-4.3,1.48,8.79,8.79,0,0,0-.38-2.47A32.83,32.83,0,0,0-758.48,59a9.88,9.88,0,0,0,1.48,2A28.56,28.56,0,0,1-761.12,63.08Zm-31.58-2a9.42,9.42,0,0,0,1.46-2,33.23,33.23,0,0,0,7.32,3.05,9.58,9.58,0,0,0-.38,2.47A35.54,35.54,0,0,1-792.7,61.06Zm-13.36-13.38a35.65,35.65,0,0,1-3.49-8.42,9.43,9.43,0,0,0,2.45-.38A33.59,33.59,0,0,0-804,46.21,9.26,9.26,0,0,0-806.06,47.68Zm4.68-2.44a30.18,30.18,0,0,1-3.13-7.57,9.51,9.51,0,0,0,4.1-6.46h11.85a13.64,13.64,0,0,0,3,7.27l-8.41,8.41A9.58,9.58,0,0,0-801.38,45.24Zm25.12,10.17a9.41,9.41,0,0,0-6.45,4.1,30.7,30.7,0,0,1-7.56-3.15A9.51,9.51,0,0,0-792,48.87l8.4-8.39a13.64,13.64,0,0,0,7.3,3Zm1.4,2.7a6.66,6.66,0,0,1,6.65,6.65,6.66,6.66,0,0,1-6.65,6.65,6.65,6.65,0,0,1-6.64-6.65A6.65,6.65,0,0,1-774.86,58.11Zm15.42-1.75A30.54,30.54,0,0,1-767,59.51a9.41,9.41,0,0,0-6.45-4.1V43.51a13.67,13.67,0,0,0,7.29-3l8.4,8.39A9.48,9.48,0,0,0-759.44,56.36Zm-15.42-15.58a11,11,0,0,1-11-11,11,11,0,0,1,11-11,11,11,0,0,1,11,11A11,11,0,0,1-774.86,40.78Zm-9.06-43.26A33.23,33.23,0,0,0-791.24.57a8.86,8.86,0,0,0-1.47-2,35.36,35.36,0,0,1,8.41-3.5A10,10,0,0,0-783.92-2.48Zm-6.35,5.73A30.32,30.32,0,0,1-782.71.1a9.46,9.46,0,0,0,6.45,4.11V16.1a13.82,13.82,0,0,0-7.29,3l-8.39-8.39A9.55,9.55,0,0,0-790.27,3.25ZM-758.48.57a32.83,32.83,0,0,0-7.32-3,8.72,8.72,0,0,0,.38-2.46A35.61,35.61,0,0,1-757-1.44,9.82,9.82,0,0,0-758.48.57ZM-767,.1a30.17,30.17,0,0,1,7.56,3.15,9.49,9.49,0,0,0,1.66,7.46l-8.4,8.41a13.64,13.64,0,0,0-7.27-3V4.21A9.46,9.46,0,0,0-767,.1Zm23.34,11.83a35.44,35.44,0,0,1,3.5,8.42,9.5,9.5,0,0,0-2.46.38,33.27,33.27,0,0,0-3-7.33A9.45,9.45,0,0,0-743.66,11.93ZM-745.49.39a6.65,6.65,0,0,1,0,9.41,6.71,6.71,0,0,1-9.38,0,6.74,6.74,0,0,1,0-9.41A6.69,6.69,0,0,1-745.49.39ZM-774.86-11.8a6.66,6.66,0,0,1,6.65,6.65,6.66,6.66,0,0,1-6.65,6.65,6.65,6.65,0,0,1-6.64-6.65,6.56,6.56,0,0,1,.11-1.18,1.3,1.3,0,0,0,.07-.33A6.65,6.65,0,0,1-774.86-11.8Zm-19.07,24.51,8.4,8.4a13.69,13.69,0,0,0-3,7.29h-11.85a9.51,9.51,0,0,0-4.1-6.46,30.33,30.33,0,0,1,3.13-7.57A9.59,9.59,0,0,0-793.93,12.71ZM-804,13.4a33.8,33.8,0,0,0-3.05,7.33,9.43,9.43,0,0,0-2.45-.38,35.82,35.82,0,0,1,3.49-8.42A9.6,9.6,0,0,0-804,13.4Zm-12.34,16.4a6.73,6.73,0,0,1,6.63-6.65,6.66,6.66,0,0,1,6.65,6.65,6.66,6.66,0,0,1-6.65,6.66A6.66,6.66,0,0,1-816.39,29.8Zm16.86,31.38a6.61,6.61,0,0,1-4.7-2,6.67,6.67,0,0,1,0-9.41,6.7,6.7,0,0,1,9.39,0,6.67,6.67,0,0,1,0,9.41A6.75,6.75,0,0,1-799.53,61.18Zm42.28,16.59a.44.44,0,0,1-.43.6H-792a.44.44,0,0,1-.42-.6l4.25-11.52a37.91,37.91,0,0,0,4.33,1.31,9.47,9.47,0,0,0,9,6.66,9.48,9.48,0,0,0,9-6.66,37.91,37.91,0,0,0,4.33-1.31Zm1.47-30.87-8.4-8.4a13.69,13.69,0,0,0,3-7.29h11.86a9.43,9.43,0,0,0,4.09,6.46,30.21,30.21,0,0,1-3.14,7.57,9.33,9.33,0,0,0-1.84-.18A9.39,9.39,0,0,0-755.78,46.9Zm10.12-.69a33.07,33.07,0,0,0,3-7.33,9.5,9.5,0,0,0,2.46.38,35.26,35.26,0,0,1-3.5,8.42A9.45,9.45,0,0,0-745.66,46.21Z"/><g class="cls-12"><rect class="cls-2" x="-5339.18" y="-2229.97" width="5391.41" height="4611.73"/></g><path class="cls-2" d="M-1051.39,83.73H-1126a2.57,2.57,0,0,1-2.53-2.6V75.69a2.57,2.57,0,0,1,2.53-2.6h28.57a6.67,6.67,0,0,1-.67-2.08,6.79,6.79,0,0,1,1.41-5.3l.92-1.13a7.1,7.1,0,0,0,1.46-5.57l-.38-2.43h-11.24a6,6,0,0,1-5.89-6.15.93.93,0,0,0-.38-.78l-2.37-1.68a2.62,2.62,0,0,1-1-2.89,2.53,2.53,0,0,1,2.43-1.87h19.32V40.29h-6.46a6,6,0,0,1-5.89-6.15.93.93,0,0,0-.39-.79l-2.36-1.67a2.62,2.62,0,0,1-1-2.89,2.55,2.55,0,0,1,2.43-1.87h13.67V25.45a10.17,10.17,0,0,0-5.7-9.28l-.72-.34V13.34h23.06v2.49l-.72.34a10.17,10.17,0,0,0-5.7,9.28v1.47h13.67a2.55,2.55,0,0,1,2.43,1.88,2.64,2.64,0,0,1-1,2.88l-2.36,1.67a.94.94,0,0,0-.4.79,6,6,0,0,1-5.88,6.15h-6.46v2.92h19.32a2.56,2.56,0,0,1,2.43,1.88,2.63,2.63,0,0,1-1,2.88l-2.36,1.67a.94.94,0,0,0-.39.79,6,6,0,0,1-5.89,6.15h-11.24l-.38,2.43a7,7,0,0,0,1.46,5.57l.91,1.13a6.79,6.79,0,0,1,1.42,5.3,7.15,7.15,0,0,1-.68,2.08h28.58a2.57,2.57,0,0,1,2.53,2.6v5.44A2.57,2.57,0,0,1-1051.39,83.73ZM-1126,75.59a.14.14,0,0,0,0,.1v5.44c0,.07,0,.1,0,.1h74.57a.14.14,0,0,0,0-.1V75.69a.13.13,0,0,0,0-.1h-35.06l3.09-2.26a4.12,4.12,0,0,0,1.61-2.7,4.3,4.3,0,0,0-.89-3.35l-.91-1.12a9.58,9.58,0,0,1-2-7.54l.71-4.54h13.38a3.53,3.53,0,0,0,3.39-3.65,3.43,3.43,0,0,1,1.45-2.83l2.36-1.67a.14.14,0,0,0,0-.15l-21.85-.07V37.79h9a3.52,3.52,0,0,0,3.38-3.65,3.47,3.47,0,0,1,1.46-2.84l2.36-1.66a.16.16,0,0,0,0-.16l-16.2-.06v-4a12.89,12.89,0,0,1,4.22-9.61h-13.66a12.89,12.89,0,0,1,4.22,9.61v4h-16.17c0,.13,0,.2,0,.22l2.36,1.66a3.46,3.46,0,0,1,1.45,2.84,3.53,3.53,0,0,0,3.39,3.65h9v7.92h-21.82c-.05.14,0,.2,0,.22l2.36,1.67a3.43,3.43,0,0,1,1.45,2.83,3.53,3.53,0,0,0,3.39,3.65h13.37l.72,4.54a9.6,9.6,0,0,1-2,7.54l-.92,1.12a4.33,4.33,0,0,0-.88,3.35,4.07,4.07,0,0,0,1.6,2.7l3.07,2.26Z"/><g class="cls-13"><path class="cls-2" d="M1334.25,1867.61H-3543.1V-2538.64H1334.25Zm-4874.35-3H1331.25V-2535.64H-3540.1Z"/></g><path class="cls-3" d="M-1121.07,42.51a2.82,2.82,0,0,1,2.82-2.82,5.63,5.63,0,0,0,5.63-5.63V27a2.82,2.82,0,0,1,2.82-2.82h8.45V21.39h-8.45a5.64,5.64,0,0,0-5.64,5.63v7a2.82,2.82,0,0,1-2.81,2.82,5.64,5.64,0,0,0-5.63,5.63V62.22h2.81Z"/><g class="cls-14"><rect class="cls-2" x="-3774.92" y="-2634.54" width="5338.01" height="4566.05"/></g><path class="cls-2" d="M-1088.68,10.92a2.15,2.15,0,0,1-1.86-1.05l-3.19-5.33a2.15,2.15,0,0,1,.32-2.64l3.2-3.2a2.21,2.21,0,0,1,3.06,0l3.2,3.2a2.15,2.15,0,0,1,.32,2.64l-3.2,5.33A2.17,2.17,0,0,1-1088.68,10.92Zm0-2.19h0Zm-.06-8.48-3.14,3.2,3.17,5.23,3.16-5.27Z"/><g class="cls-15"><path class="cls-2" d="M918.44,1463.35H-3121.88V-1993H918.44Zm-4038.12-2.2H916.24V-1990.79H-3119.68Z"/></g><path class="cls-3" d="M-1076,21.39v2.82h8.45a2.81,2.81,0,0,1,2.82,2.81v7a5.64,5.64,0,0,0,5.63,5.64,2.82,2.82,0,0,1,2.82,2.81V62.23h2.81V42.51a5.63,5.63,0,0,0-5.63-5.63,2.81,2.81,0,0,1-2.81-2.82V27a5.64,5.64,0,0,0-5.64-5.63Z"/><g class="cls-16"><rect class="cls-2" x="-3774.92" y="-2634.54" width="5338.01" height="4566.05"/></g><path class="cls-3" d="M-1070.38,11.53h2.82A8.46,8.46,0,0,0-1076,3.08h-2.81V5.9h2.81a5.64,5.64,0,0,1,5.63,5.63"/><g class="cls-17"><rect class="cls-2" x="-3774.92" y="-2634.54" width="5338.01" height="4566.05"/></g><path class="cls-3" d="M-1101.35,5.9h2.81V3.08h-2.81a8.47,8.47,0,0,0-8.45,8.45h2.82a5.64,5.64,0,0,1,5.63-5.63"/><g class="cls-18"><rect class="cls-2" x="-3774.92" y="-2634.54" width="5338.01" height="4566.05"/></g><path class="cls-3" d="M-621.51,70.42a4.38,4.38,0,0,1-3.11,1.25,4.38,4.38,0,0,1-3.11-1.25,7.47,7.47,0,0,0-5-1.9,7.46,7.46,0,0,0-5,1.9,4.36,4.36,0,0,1-3.1,1.25A4.38,4.38,0,0,1-644,70.42a7.43,7.43,0,0,0-5-1.9,7.47,7.47,0,0,0-5,1.9,4.38,4.38,0,0,1-3.11,1.25,3.92,3.92,0,0,1-1.81-.38V29.16h22v3.15h3.14V29.16h1.58A3.15,3.15,0,0,0-629.07,26V22.86a3.16,3.16,0,0,0-3.15-3.15h-.08A29.92,29.92,0,0,0-660.56-8.55V-10.2a4.73,4.73,0,0,0-4.72-4.73A4.73,4.73,0,0,0-670-10.2v1.65a29.91,29.91,0,0,0-28.26,28.26h-.08a3.16,3.16,0,0,0-3.15,3.15V26a3.16,3.16,0,0,0,3.15,3.15h1.57v3.15h3.16V29.16h22v42.1a3.94,3.94,0,0,1-1.86.41,4.38,4.38,0,0,1-3.11-1.25,7.45,7.45,0,0,0-5-1.9,7.47,7.47,0,0,0-5,1.9,4.36,4.36,0,0,1-3.1,1.25,4.37,4.37,0,0,1-3.1-1.24,7.38,7.38,0,0,0-5-1.91,7.47,7.47,0,0,0-5,1.9,4.36,4.36,0,0,1-3.1,1.25,4.36,4.36,0,0,1-3.1-1.25,7.43,7.43,0,0,0-5-1.9v3.15a4.34,4.34,0,0,1,3.1,1.25,7.47,7.47,0,0,0,5,1.9,7.4,7.4,0,0,0,5-1.9,4.36,4.36,0,0,1,3.1-1.25,4.34,4.34,0,0,1,3.1,1.25,7.42,7.42,0,0,0,5,1.9,7.42,7.42,0,0,0,5-1.9,4.36,4.36,0,0,1,3.1-1.25,4.34,4.34,0,0,1,3.1,1.25,7.43,7.43,0,0,0,5,1.9,7.37,7.37,0,0,0,5-1.9,4.4,4.4,0,0,1,3.11-1.25,4.4,4.4,0,0,1,3.11,1.25,7.37,7.37,0,0,0,5,1.9,7.43,7.43,0,0,0,5-1.9,4.34,4.34,0,0,1,3.1-1.25,4.38,4.38,0,0,1,3.11,1.25,7.38,7.38,0,0,0,5,1.9,7.42,7.42,0,0,0,5-1.9,4.36,4.36,0,0,1,3.11-1.25,4.36,4.36,0,0,1,3.1,1.25,7.45,7.45,0,0,0,5,1.9,7.43,7.43,0,0,0,5-1.9,4.36,4.36,0,0,1,3.11-1.25V68.52A7.46,7.46,0,0,0-621.51,70.42Zm-43.77-82.2a1.58,1.58,0,0,1,1.57,1.58v1.57h-3.15V-10.2A1.58,1.58,0,0,1-665.28-11.78Zm-4.33,6.36a37.25,37.25,0,0,0-8.33,11.91L-675,7.75A33.71,33.71,0,0,1-665.28-5a33.55,33.55,0,0,1,12.55,24.74h-25.09a33.63,33.63,0,0,1,1.62-9l-3-1A37.28,37.28,0,0,0-681,19.71h-14.15A26.76,26.76,0,0,1-669.61-5.42Zm-28.74,28.28h53.53V19.71h-4.76A36.7,36.7,0,0,0-660.94-5.42a26.76,26.76,0,0,1,25.49,25.13h-6.22v3.15h9.45V26h-66.13Zm33,45.66a7.2,7.2,0,0,0-3.13.66v-40h6.3V69.21A7,7,0,0,0-665.31,68.52Z"/><g class="cls-19"><rect class="cls-2" x="-3462.11" y="-2416.91" width="5224.37" height="4468.85"/></g><path class="cls-3" d="M-624.62,79.54a4.42,4.42,0,0,1-3.11-1.24,7.43,7.43,0,0,0-5-1.91,7.42,7.42,0,0,0-5,1.91,4.41,4.41,0,0,1-3.1,1.24A4.4,4.4,0,0,1-644,78.3a7.4,7.4,0,0,0-5-1.91,7.4,7.4,0,0,0-5,1.91,4.42,4.42,0,0,1-3.11,1.24,4.39,4.39,0,0,1-3.1-1.24,7.4,7.4,0,0,0-5-1.91,7.4,7.4,0,0,0-5,1.91,4.39,4.39,0,0,1-3.1,1.24,4.42,4.42,0,0,1-3.11-1.24,7.4,7.4,0,0,0-5-1.91,7.4,7.4,0,0,0-5,1.91,4.39,4.39,0,0,1-3.1,1.24,4.39,4.39,0,0,1-3.1-1.24,7.4,7.4,0,0,0-5-1.91,7.37,7.37,0,0,0-5,1.91A4.42,4.42,0,0,1-706,79.54a4.41,4.41,0,0,1-3.1-1.24,7.37,7.37,0,0,0-5-1.91v3.15a4.36,4.36,0,0,1,3.1,1.25,7.37,7.37,0,0,0,5,1.9,7.4,7.4,0,0,0,5-1.9,4.37,4.37,0,0,1,3.1-1.25,4.38,4.38,0,0,1,3.11,1.25,7.35,7.35,0,0,0,5,1.9,7.42,7.42,0,0,0,5-1.9,4.36,4.36,0,0,1,3.1-1.25,4.36,4.36,0,0,1,3.1,1.25,7.45,7.45,0,0,0,5,1.9,7.42,7.42,0,0,0,5-1.9,4.36,4.36,0,0,1,3.1-1.25,4.36,4.36,0,0,1,3.1,1.25,7.42,7.42,0,0,0,5,1.9,7.43,7.43,0,0,0,5-1.9,4.36,4.36,0,0,1,3.1-1.25,4.38,4.38,0,0,1,3.11,1.25,7.38,7.38,0,0,0,5,1.9,7.42,7.42,0,0,0,5-1.9,4.34,4.34,0,0,1,3.1-1.25,4.36,4.36,0,0,1,3.11,1.25,7.43,7.43,0,0,0,5,1.9,7.38,7.38,0,0,0,5-1.9,4.39,4.39,0,0,1,3.12-1.25V76.39a7.43,7.43,0,0,0-5,1.91,4.42,4.42,0,0,1-3.11,1.24"/><g class="cls-20"><rect class="cls-2" x="-3462.11" y="-2416.91" width="5224.37" height="4468.85"/></g><path class="cls-3" d="M-655.84,60.65a4.72,4.72,0,0,0,4.73,4.72,4.72,4.72,0,0,0,4.72-4.72V57.5h-3.15v3.15a1.57,1.57,0,0,1-1.57,1.57,1.57,1.57,0,0,1-1.58-1.57v-22h-3.15Z"/><g class="cls-21"><rect class="cls-2" x="-3462.11" y="-2416.91" width="5224.37" height="4468.85"/></g><path class="cls-3" d="M-633.79,49.63V41.76h-3.16v7.87a1.57,1.57,0,0,1-1.57,1.57,1.57,1.57,0,0,1-1.57-1.57V37a4.73,4.73,0,0,0-4.73-4.72A4.73,4.73,0,0,0-649.54,37v4.73h3.15V37a1.58,1.58,0,0,1,1.57-1.57A1.58,1.58,0,0,1-643.24,37v12.6a4.73,4.73,0,0,0,4.72,4.72,4.73,4.73,0,0,0,4.73-4.72"/><g class="cls-22"><rect class="cls-2" x="-3462.11" y="-2416.91" width="5224.37" height="4468.85"/></g><path class="cls-3" d="M-677.88,60.65a1.57,1.57,0,0,1-1.57,1.57A1.57,1.57,0,0,1-681,60.65V57.5h-3.15v3.15a4.72,4.72,0,0,0,4.73,4.72,4.72,4.72,0,0,0,4.72-4.72v-22h-3.15Z"/><g class="cls-23"><rect class="cls-2" x="-3462.11" y="-2416.91" width="5224.37" height="4468.85"/></g><path class="cls-3" d="M-696.77,49.63A4.72,4.72,0,0,0-692,54.35a4.74,4.74,0,0,0,4.73-4.72V37a1.57,1.57,0,0,1,1.57-1.57A1.58,1.58,0,0,1-684.18,37v4.73H-681V37a4.73,4.73,0,0,0-4.72-4.72A4.73,4.73,0,0,0-690.48,37v12.6A1.57,1.57,0,0,1-692,51.2a1.57,1.57,0,0,1-1.57-1.57V41.76h-3.15Z"/><g class="cls-24"><rect class="cls-2" x="-3462.11" y="-2416.91" width="5224.37" height="4468.85"/></g><path class="cls-3" d="M-706.22,60.65a18,18,0,0,1,5.64.91l5,1.66-2.65-6.64a8.51,8.51,0,0,0-7.94-5.38,4.73,4.73,0,0,0-4.72,4.72,4.72,4.72,0,0,0,4.72,4.73m0-6.3a5.4,5.4,0,0,1,5,3.4l.16.4a21,21,0,0,0-5.18-.65,1.58,1.58,0,0,1-1.58-1.58,1.58,1.58,0,0,1,1.58-1.57"/><g class="cls-25"><rect class="cls-2" x="-3462.11" y="-2416.91" width="5224.37" height="4468.85"/></g><path class="cls-3" d="M-632.29,56.57l-2.65,6.65,5-1.66a18,18,0,0,1,5.64-.91,4.73,4.73,0,0,0,4.73-4.73,4.74,4.74,0,0,0-4.73-4.72A8.52,8.52,0,0,0-632.29,56.57Zm2.92,1.18a5.38,5.38,0,0,1,5-3.4,1.58,1.58,0,0,1,1.58,1.57,1.58,1.58,0,0,1-1.58,1.58,21.07,21.07,0,0,0-5.18.65Z"/><g class="cls-26"><rect class="cls-2" x="-3462.11" y="-2416.91" width="5224.37" height="4468.85"/></g><g id="Page-1"><g id="_038---Market-Stall" data-name="038---Market-Stall"><g id="Shape"><path class="cls-2" d="M79.13,23.18a7.14,7.14,0,0,0,2-4.95,6.29,6.29,0,0,0-.95-3.33l-6.73-11A8.06,8.06,0,0,0,66.58,0H14.52A8.06,8.06,0,0,0,7.69,3.9L1,14.9A6.29,6.29,0,0,0,0,18.23a7.17,7.17,0,0,0,2,5,6.75,6.75,0,0,0,2.08,1.44V53.29a4.09,4.09,0,0,0-4,3.49A4.23,4.23,0,0,0,2.7,61.45V76A4.23,4.23,0,0,0,.06,80.66a4.09,4.09,0,0,0,4,3.48h73a4.09,4.09,0,0,0,4-3.48A4.23,4.23,0,0,0,78.4,76V61.45A4.23,4.23,0,0,0,81,56.78a4.09,4.09,0,0,0-4-3.49V24.64a6.81,6.81,0,0,0,2.08-1.46Zm-1.91-2a4,4,0,0,1-2.88,1.24h-4a4.14,4.14,0,0,1-4.06-4.21H78.4A4.33,4.33,0,0,1,77.22,21.2ZM63.71,53.29l1.16-9.64a1.45,1.45,0,0,0-.33-1.11,1.31,1.31,0,0,0-1-.47H55.42a1.31,1.31,0,0,0-1,.47,1.45,1.45,0,0,0-.33,1.11l1.16,9.64H44.61V47.68a2.76,2.76,0,0,0-2.71-2.8H27V39.27h1.36a2.76,2.76,0,0,0,2.7-2.81v-2.8a2.76,2.76,0,0,0-2.7-2.81H17.57a2.76,2.76,0,0,0-2.7,2.81v2.8a2.76,2.76,0,0,0,2.7,2.81h1.35v5.61H17.57a2.75,2.75,0,0,0-2.7,2.8v5.61h-2.7V25.1a6.74,6.74,0,0,0,4-2.7,6.65,6.65,0,0,0,5.41,2.84H27a6.62,6.62,0,0,0,5.41-2.85,6.64,6.64,0,0,0,5.41,2.85h5.4a6.62,6.62,0,0,0,5.41-2.85,6.64,6.64,0,0,0,5.41,2.85h5.4a6.62,6.62,0,0,0,5.41-2.85,6.71,6.71,0,0,0,4.06,2.71V53.29ZM57,44.88h5l-1,8.41H58ZM25.68,36.46H17.57v-2.8H28.39v2.8Zm-4.05,2.81h2.7v5.61h-2.7Zm-1.35,8.41H41.9v5.61H17.57V47.68ZM63.53,18.23a4.14,4.14,0,0,1-4.06,4.21h-5.4A4.14,4.14,0,0,1,50,18.23Zm-16.22,0a4.14,4.14,0,0,1-4.06,4.21h-5.4a4.14,4.14,0,0,1-4.06-4.21Zm-29.74,0H31.09A4.14,4.14,0,0,1,27,22.44h-5.4A4.14,4.14,0,0,1,17.57,18.23ZM10,5.4a5.38,5.38,0,0,1,4.55-2.6H66.58a5.37,5.37,0,0,1,4.55,2.61l6.15,10H65.79L63.43,9.29a1.35,1.35,0,0,0-1.76-.78,1.43,1.43,0,0,0-.75,1.83l2,5.09H50V12.62a1.35,1.35,0,1,0-2.7,0v2.81H33.79V12.62a1.35,1.35,0,1,0-2.7,0v2.81H18.22l2-5.09A1.44,1.44,0,0,0,20,9a1.33,1.33,0,0,0-1.26-.52,1.35,1.35,0,0,0-1.06.86L15.3,15.43H3.82ZM2.7,18.23H14.87a4.14,4.14,0,0,1-4.06,4.21H6.76a4,4,0,0,1-2.87-1.23A4.3,4.3,0,0,1,2.7,18.23Zm4.06,7h2.7V53.29H6.76ZM75.69,75.73H5.41v-14H75.69Zm1.36,5.61h-73a1.41,1.41,0,0,1,0-2.81h73a1.41,1.41,0,0,1,0,2.81ZM78.4,57.5a1.38,1.38,0,0,1-1.35,1.4h-73a1.41,1.41,0,0,1,0-2.81h73A1.38,1.38,0,0,1,78.4,57.5Zm-4.06-4.21h-2.7v-28h2.7Z"/></g></g></g></svg>