<svg id="Layer_1" data-name="Layer 1" xmlns="http://www.w3.org/2000/svg" xmlns:xlink="http://www.w3.org/1999/xlink" viewBox="0 0 79.64 85.65"><defs><style>.cls-1,.cls-2,.cls-5{fill:#fff;}.cls-1,.cls-3,.cls-4{clip-rule:evenodd;}.cls-3,.cls-36,.cls-37,.cls-4{fill:none;}.cls-36,.cls-37,.cls-4{stroke:#fff;stroke-miterlimit:10;}.cls-37,.cls-5{fill-rule:evenodd;}.cls-6{clip-path:url(#clip-path);}.cls-7{clip-path:url(#clip-path-2);}.cls-8{clip-path:url(#clip-path-3);}.cls-9{clip-path:url(#clip-path-4);}.cls-10{clip-path:url(#clip-path-5);}.cls-11{clip-path:url(#clip-path-6);}.cls-12{clip-path:url(#clip-path-7);}.cls-13{clip-path:url(#clip-path-8);}.cls-14{clip-path:url(#clip-path-9);}.cls-15{clip-path:url(#clip-path-10);}.cls-16{clip-path:url(#clip-path-11);}.cls-17{clip-path:url(#clip-path-12);}.cls-18{clip-path:url(#clip-path-13);}.cls-19{clip-path:url(#clip-path-14);}.cls-20{clip-path:url(#clip-path-15);}.cls-21{clip-path:url(#clip-path-16);}.cls-22{clip-path:url(#clip-path-17);}.cls-23{clip-path:url(#clip-path-18);}.cls-24{clip-path:url(#clip-path-19);}.cls-25{clip-path:url(#clip-path-20);}.cls-26{clip-path:url(#clip-path-21);}.cls-27{clip-path:url(#clip-path-22);}.cls-28{clip-path:url(#clip-path-23);}.cls-29{clip-path:url(#clip-path-24);}.cls-30{clip-path:url(#clip-path-25);}.cls-31{clip-path:url(#clip-path-26);}.cls-32{clip-path:url(#clip-path-27);}.cls-33{clip-path:url(#clip-path-28);}.cls-34{clip-path:url(#clip-path-29);}.cls-35{clip-path:url(#clip-path-30);}.cls-36{stroke-width:1.5px;}.cls-38{clip-path:url(#clip-path-31);}.cls-39{clip-path:url(#clip-path-32);}.cls-40{clip-path:url(#clip-path-33);}.cls-41{clip-path:url(#clip-path-34);}.cls-42{clip-path:url(#clip-path-35);}.cls-43{clip-path:url(#clip-path-36);}.cls-44{clip-path:url(#clip-path-37);}.cls-45{clip-path:url(#clip-path-38);}.cls-46{clip-path:url(#clip-path-39);}.cls-47{clip-path:url(#clip-path-40);}.cls-48{clip-path:url(#clip-path-42);}.cls-49{clip-path:url(#clip-path-43);}.cls-50{clip-path:url(#clip-path-44);}.cls-51{clip-path:url(#clip-path-45);}.cls-52{clip-path:url(#clip-path-47);}.cls-53{clip-path:url(#clip-path-48);}.cls-54{clip-path:url(#clip-path-50);}.cls-55{clip-path:url(#clip-path-51);}.cls-56{clip-path:url(#clip-path-52);}.cls-57{clip-path:url(#clip-path-53);}.cls-58{clip-path:url(#clip-path-54);}.cls-59{clip-path:url(#clip-path-55);}.cls-60{clip-path:url(#clip-path-56);}.cls-61{clip-path:url(#clip-path-57);}.cls-62{clip-path:url(#clip-path-58);}</style><clipPath id="clip-path"><path class="cls-1" d="M582.1,81.19H598V71.25H582.1Zm17.9,4H580.11a2,2,0,0,1-2-2V69.26a2,2,0,0,1,2-2H600a2,2,0,0,1,2,2V83.18A2,2,0,0,1,600,85.17Z"/></clipPath><clipPath id="clip-path-2"><path class="cls-1" d="M572.16,81.19H608V-6.33h-35.8Zm37.79,4H570.17a2,2,0,0,1-2-2V-8.32a2,2,0,0,1,2-2H610a2,2,0,0,1,2,2v91.5A2,2,0,0,1,610,85.17Z"/></clipPath><clipPath id="clip-path-3"><path class="cls-1" d="M556.24,81.19h11.93V1.63H556.24Zm13.93,4H554.25a2,2,0,0,1-2-2V-.36a2,2,0,0,1,2-2h15.92a2,2,0,0,1,2,2V83.18A2,2,0,0,1,570.17,85.17Z"/></clipPath><clipPath id="clip-path-4"><path class="cls-1" d="M611.94,81.19h11.93V1.63H611.94Zm13.92,4H610a2,2,0,0,1-2-2V-.36a2,2,0,0,1,2-2h15.91a2,2,0,0,1,2,2V83.18A2,2,0,0,1,625.86,85.17Z"/></clipPath><clipPath id="clip-path-5"><rect class="cls-2" x="538.34" y="41.41" width="3.98" height="19.89" transform="translate(174.91 452.68) rotate(-53.11)"/></clipPath><clipPath id="clip-path-6"><rect class="cls-2" x="530.38" y="49.37" width="19.89" height="3.98" transform="translate(77.29 334.53) rotate(-36.88)"/></clipPath><clipPath id="clip-path-7"><rect class="cls-2" x="637.8" y="41.41" width="3.97" height="19.89" transform="translate(214.73 532.28) rotate(-53.12)"/></clipPath><clipPath id="clip-path-8"><rect class="cls-2" x="629.83" y="49.38" width="19.89" height="3.97" transform="translate(97 393.93) rotate(-36.85)"/></clipPath><clipPath id="clip-path-9"><path class="cls-3" d="M15.5,242.49v-.41h.41a.91.91,0,1,0,0-1.81H15.5v-.42a.91.91,0,1,0-1.81,0v.42h-.41a.91.91,0,1,0,0,1.81h.41v.41a.91.91,0,1,0,1.81,0"/></clipPath><clipPath id="clip-path-10"><path class="cls-3" d="M-1.62,262.11a.91.91,0,0,0,.91-.91v-1.3a.9.9,0,0,0-.91-.9.9.9,0,0,0-.9.9v1.3a.9.9,0,0,0,.9.91"/></clipPath><clipPath id="clip-path-11"><path class="cls-3" d="M2,262.11a.9.9,0,0,0,.9-.91v-1.3a.91.91,0,0,0-1.81,0v1.3a.91.91,0,0,0,.91.91"/></clipPath><clipPath id="clip-path-12"><path class="cls-3" d="M-1.62,266.58a.9.9,0,0,0,.91-.9v-1.31a.91.91,0,0,0-.91-.9.9.9,0,0,0-.9.9v1.31a.9.9,0,0,0,.9.9"/></clipPath><clipPath id="clip-path-13"><path class="cls-3" d="M2,266.58a.9.9,0,0,0,.9-.9v-1.31a.91.91,0,0,0-1.81,0v1.31a.9.9,0,0,0,.91.9"/></clipPath><clipPath id="clip-path-14"><path class="cls-3" d="M-1.62,271.06a.91.91,0,0,0,.91-.91v-1.3a.9.9,0,0,0-.91-.9.9.9,0,0,0-.9.9v1.3a.9.9,0,0,0,.9.91"/></clipPath><clipPath id="clip-path-15"><path class="cls-3" d="M2,271.06a.9.9,0,0,0,.9-.91v-1.3a.91.91,0,0,0-1.81,0v1.3a.91.91,0,0,0,.91.91"/></clipPath><clipPath id="clip-path-16"><path class="cls-3" d="M27.22,262.11a.91.91,0,0,0,.9-.91v-1.3a.91.91,0,0,0-1.81,0v1.3a.91.91,0,0,0,.91.91"/></clipPath><clipPath id="clip-path-17"><path class="cls-3" d="M30.81,262.11a.91.91,0,0,0,.91-.91v-1.3a.91.91,0,0,0-1.81,0v1.3a.9.9,0,0,0,.9.91"/></clipPath><clipPath id="clip-path-18"><path class="cls-3" d="M27.22,266.58a.9.9,0,0,0,.9-.9v-1.31a.91.91,0,0,0-1.81,0v1.31a.9.9,0,0,0,.91.9"/></clipPath><clipPath id="clip-path-19"><path class="cls-3" d="M30.81,266.58a.9.9,0,0,0,.91-.9v-1.31a.91.91,0,0,0-1.81,0v1.31a.9.9,0,0,0,.9.9"/></clipPath><clipPath id="clip-path-20"><path class="cls-3" d="M27.22,271.06a.91.91,0,0,0,.9-.91v-1.3a.91.91,0,0,0-1.81,0v1.3a.91.91,0,0,0,.91.91"/></clipPath><clipPath id="clip-path-21"><path class="cls-3" d="M30.81,271.06a.91.91,0,0,0,.91-.91v-1.3a.91.91,0,0,0-1.81,0v1.3a.9.9,0,0,0,.9.91"/></clipPath><clipPath id="clip-path-22"><path class="cls-3" d="M11.89,255.43v1.3a.91.91,0,0,0,1.81,0v-1.3a.91.91,0,1,0-1.81,0"/></clipPath><clipPath id="clip-path-23"><path class="cls-3" d="M15.49,255.43v1.3a.91.91,0,0,0,1.81,0v-1.3a.91.91,0,1,0-1.81,0"/></clipPath><clipPath id="clip-path-24"><path class="cls-3" d="M12.8,259a.9.9,0,0,0-.91.9v1.3a.91.91,0,1,0,1.81,0v-1.3a.9.9,0,0,0-.9-.9"/></clipPath><clipPath id="clip-path-25"><path class="cls-3" d="M16.39,259a.9.9,0,0,0-.9.9v1.3a.91.91,0,1,0,1.81,0v-1.3a.9.9,0,0,0-.91-.9"/></clipPath><clipPath id="clip-path-26"><path class="cls-3" d="M12.8,263.47a.91.91,0,0,0-.91.91v1.3a.91.91,0,0,0,1.81,0v-1.3a.9.9,0,0,0-.9-.91"/></clipPath><clipPath id="clip-path-27"><path class="cls-3" d="M16.39,263.47a.9.9,0,0,0-.9.91v1.3a.91.91,0,0,0,1.81,0v-1.3a.91.91,0,0,0-.91-.91"/></clipPath><clipPath id="clip-path-28"><path class="cls-3" d="M38.2,274.89H36.29V255.66a.9.9,0,0,0-.9-.91H23.61v-6.48a.9.9,0,0,0-.9-.9H15.5v-1.32h3.06a.91.91,0,0,0,.91-.91v-7.93a.91.91,0,0,0-.91-.91H10.63a.91.91,0,0,0-.91.91v7.93a.91.91,0,0,0,.91.91h3.06v1.32H6.48a.9.9,0,0,0-.9.9v6.48H-6.2a.9.9,0,0,0-.9.91v19.23H-9a.9.9,0,0,0-.91.91.9.9,0,0,0,.91.9H38.2a.91.91,0,0,0,0-1.81ZM21.8,249.18v25.71H20.28v-4a.9.9,0,0,0-.9-.91H9.82a.91.91,0,0,0-.91.91v4H7.39V249.18ZM10.72,274.89h7.75v-3.08H10.72Zm12.89,0H34.48V256.56H23.61Zm-28.9,0H5.58V256.56H-5.29Zm16.83-30.65h6.12v-6.13H11.54Z"/></clipPath><clipPath id="clip-path-29"><path class="cls-1" d="M398,31.72a9.46,9.46,0,0,0-6.65-9,38.3,38.3,0,0,0-4.67-11.26A9.49,9.49,0,0,0,385,.32a9.45,9.45,0,0,0-11.09-1.68A38.57,38.57,0,0,0,362.67-6a9.46,9.46,0,0,0-9-6.66,9.46,9.46,0,0,0-9,6.66,38.57,38.57,0,0,0-11.24,4.67A9.43,9.43,0,0,0,326.21-2,1.4,1.4,0,0,0,327,.64a6.65,6.65,0,0,1,6.63,11.07,6.71,6.71,0,0,1-9.39,0,6.66,6.66,0,0,1-1.45-7.23,1.41,1.41,0,0,0-2.6-1.06,9.5,9.5,0,0,0,.39,8,38.57,38.57,0,0,0-4.67,11.26,9.47,9.47,0,0,0,0,18.07A38.71,38.71,0,0,0,320.62,52,9.45,9.45,0,0,0,333.39,64.8a37.79,37.79,0,0,0,4.3,2.3l-4.28,11.61a3.3,3.3,0,0,0,3,4.38h34.37a3.3,3.3,0,0,0,3.05-4.38L369.6,67.1a38.79,38.79,0,0,0,4.31-2.3,9.38,9.38,0,0,0,7.31.64,1.4,1.4,0,0,0-.86-2.67,6.65,6.65,0,0,1-6.73-11,6.64,6.64,0,0,1,10.86,7.17,1.41,1.41,0,0,0,2.61,1,9.44,9.44,0,0,0-.43-7.92,38.41,38.41,0,0,0,4.67-11.26A9.48,9.48,0,0,0,398,31.72Zm-2.8,0a6.64,6.64,0,1,1-6.65-6.65A6.66,6.66,0,0,1,395.19,31.72Zm-16-1.4H367.35a13.65,13.65,0,0,0-3-7.31l8.39-8.4a9.5,9.5,0,0,0,7.46,1.67,30.84,30.84,0,0,1,3.15,7.58A9.41,9.41,0,0,0,379.21,30.32ZM367.38,65a45.35,45.35,0,0,1-4.3,1.47A8.85,8.85,0,0,0,362.7,64,33.07,33.07,0,0,0,370,61a9.67,9.67,0,0,0,1.47,2A29.7,29.7,0,0,1,367.38,65ZM335.8,63a9.62,9.62,0,0,0,1.46-2A33.72,33.72,0,0,0,344.58,64a9.5,9.5,0,0,0-.38,2.46A35.54,35.54,0,0,1,335.8,63ZM322.44,49.6A35.9,35.9,0,0,1,319,41.17a9.43,9.43,0,0,0,2.45-.38,33.67,33.67,0,0,0,3.05,7.34A9.26,9.26,0,0,0,322.44,49.6Zm4.69-2.44A30.27,30.27,0,0,1,324,39.58a9.49,9.49,0,0,0,4.1-6.45h11.85a13.64,13.64,0,0,0,3,7.27l-8.41,8.41A9.48,9.48,0,0,0,327.13,47.16Zm25.11,10.16a9.46,9.46,0,0,0-6.45,4.11,30.7,30.7,0,0,1-7.56-3.15,9.49,9.49,0,0,0-1.69-7.49l8.4-8.4a13.76,13.76,0,0,0,7.3,3Zm1.4,2.7A6.66,6.66,0,1,1,347,66.67,6.65,6.65,0,0,1,353.64,60Zm15.42-1.74a30.14,30.14,0,0,1-7.56,3.14,9.48,9.48,0,0,0-6.45-4.1V45.43a13.69,13.69,0,0,0,7.29-3l8.4,8.4A9.51,9.51,0,0,0,369.06,58.28ZM353.64,42.69a11,11,0,1,1,11-11A11,11,0,0,1,353.64,42.69ZM344.58-.57a34.22,34.22,0,0,0-7.32,3.05,9.32,9.32,0,0,0-1.47-2A35.36,35.36,0,0,1,344.2-3,10,10,0,0,0,344.58-.57Zm-6.35,5.74A30,30,0,0,1,345.79,2a9.48,9.48,0,0,0,6.45,4.1V18A13.75,13.75,0,0,0,345,21l-8.39-8.4A9.54,9.54,0,0,0,338.23,5.17ZM370,2.49A33.62,33.62,0,0,0,362.7-.57,8.72,8.72,0,0,0,363.08-3,35.68,35.68,0,0,1,371.5.47,9.47,9.47,0,0,0,370,2.49ZM361.5,2a29.8,29.8,0,0,1,7.56,3.15,9.51,9.51,0,0,0,1.66,7.46l-8.4,8.4a13.69,13.69,0,0,0-7.27-3V6.12A9.48,9.48,0,0,0,361.5,2Zm23.34,11.82a35.51,35.51,0,0,1,3.5,8.43,9.5,9.5,0,0,0-2.46.38,32.87,32.87,0,0,0-3-7.34A9.2,9.2,0,0,0,384.84,13.84ZM383,2.3a6.67,6.67,0,0,1,0,9.41,6.71,6.71,0,0,1-9.39,0,6.75,6.75,0,0,1,0-9.41A6.72,6.72,0,0,1,383,2.3ZM353.64-9.89a6.66,6.66,0,0,1,6.65,6.66,6.66,6.66,0,0,1-6.65,6.65A6.66,6.66,0,0,1,347-3.23a6.58,6.58,0,0,1,.11-1.19,1.14,1.14,0,0,0,.07-.32A6.67,6.67,0,0,1,353.64-9.89ZM334.57,14.62,343,23a13.75,13.75,0,0,0-3,7.3H328.09a9.51,9.51,0,0,0-4.1-6.46,30.43,30.43,0,0,1,3.14-7.58A9.48,9.48,0,0,0,334.57,14.62Zm-10.12.69a33.87,33.87,0,0,0-3.05,7.34,9.43,9.43,0,0,0-2.45-.38,35.51,35.51,0,0,1,3.5-8.43A9,9,0,0,0,324.45,15.31ZM312.11,31.72a6.73,6.73,0,0,1,6.64-6.65,6.65,6.65,0,1,1-6.64,6.65ZM329,63.09a6.66,6.66,0,0,1-4.7-11.36A6.65,6.65,0,1,1,329,63.09Zm42.28,16.59a.45.45,0,0,1-.42.61H336.46a.45.45,0,0,1-.42-.61l4.25-11.52a36.56,36.56,0,0,0,4.33,1.31,9.44,9.44,0,0,0,18.05,0A36,36,0,0,0,367,68.16Zm1.47-30.87-8.4-8.4a13.69,13.69,0,0,0,3-7.28h11.86a9.39,9.39,0,0,0,4.1,6.45,30.68,30.68,0,0,1-3.15,7.58,9.49,9.49,0,0,0-7.44,1.65Zm10.12-.68a32.87,32.87,0,0,0,3-7.34,9.5,9.5,0,0,0,2.46.38,35.51,35.51,0,0,1-3.5,8.43A9.2,9.2,0,0,0,382.84,48.13Z"/></clipPath><clipPath id="clip-path-30"><path class="cls-4" d="M-57.42,245a.93.93,0,0,1,.87-.41c3.75,0,7.51,0,11.26,0a.72.72,0,0,0,.77-.49c1.36-2.82,2.74-5.63,4.1-8.45a.74.74,0,0,0,.08-.5A2,2,0,0,1-39,232.67,2,2,0,0,1-36.53,234l.09.14c0-.14.1-.24.15-.35a2,2,0,0,1,2.49-1.1,2,2,0,0,1,1.27,2.38,1.1,1.1,0,0,0,.06.62c1.38,2.87,2.79,5.73,4.17,8.6a.5.5,0,0,0,.53.32c3.8,0,7.6,0,11.39,0,.71,0,1.14.42.78,1.22a1.92,1.92,0,0,1-1.32,1.08.47.47,0,0,0-.38.44q-1.11,6.39-2.26,12.77c-.15.83-.29,1.67-.44,2.5a2.63,2.63,0,0,1-2.64,2.24H-50.19a2.64,2.64,0,0,1-2.72-2.29q-1.12-6.39-2.26-12.76c-.15-.84-.29-1.68-.45-2.51a.53.53,0,0,0-.26-.35,2.23,2.23,0,0,1-1.54-1.34Zm21-10.08a2.27,2.27,0,0,1-1.16,1.46,1.11,1.11,0,0,0-.49.49c-1.21,2.43-2.4,4.88-3.59,7.33-.06.12-.1.24-.16.36h10.78a.75.75,0,0,0,0-.11l-3.77-7.74a.49.49,0,0,0-.24-.25A2.2,2.2,0,0,1-36.45,234.93Zm-2,13.69H-42.9c.13,1.38.25,2.74.37,4.09h4.09Zm8.44,0h-4.44v4.1h4.08C-30.24,251.35-30.12,250-30,248.62Zm-16.53,4.1c-.13-1.4-.25-2.76-.37-4.1h-4.43l.73,4.1Zm25-4.1H-26c-.12,1.38-.24,2.73-.36,4.1h4.06C-22,251.37-21.81,250-21.57,248.62Zm-16.88,8.12h-3.73c.12,1.39.24,2.74.36,4.1h3.37Zm7.38,4.12c.12-1.39.23-2.76.35-4.12h-3.71v4.12Zm4,0c1.09,0,2.13,0,3.17,0,.07,0,.19-.16.21-.27.18-.9.34-1.8.5-2.7.06-.38.12-.76.18-1.18h-2.82c-.84,0-.85,0-.94.82C-26.89,258.62-27,259.71-27.08,260.87Zm-22.76-4.16a.87.87,0,0,0,0,.2c.22,1.25.43,2.51.67,3.75,0,.09.21.2.32.2.59,0,1.18,0,1.77,0h1.28c-.1-1.1-.18-2.13-.27-3.17,0-.32,0-.78-.17-.92s-.65-.06-1-.07h-2.59Z"/></clipPath><clipPath id="clip-path-31"><path class="cls-2" d="M77.11,85.65H2.53A2.58,2.58,0,0,1,0,83V77.61A2.58,2.58,0,0,1,2.53,75H31.1a7,7,0,0,1-.67-2.08,6.8,6.8,0,0,1,1.41-5.3l.92-1.13a7,7,0,0,0,1.46-5.57l-.38-2.43H22.6a6,6,0,0,1-5.89-6.14,1,1,0,0,0-.38-.79L14,49.89A2.65,2.65,0,0,1,13,47a2.53,2.53,0,0,1,2.43-1.87H34.71V42.2H28.25a6,6,0,0,1-5.89-6.15.94.94,0,0,0-.39-.79L19.61,33.6a2.65,2.65,0,0,1-1-2.9A2.55,2.55,0,0,1,21,28.84H34.71V27.37A10.18,10.18,0,0,0,29,18.08l-.72-.33V15.26H51.36v2.49l-.73.33a10.18,10.18,0,0,0-5.7,9.29v1.47H58.6A2.55,2.55,0,0,1,61,30.71a2.64,2.64,0,0,1-1,2.89l-2.36,1.66a.94.94,0,0,0-.39.79,6,6,0,0,1-5.89,6.15H44.93v2.93H64.25A2.55,2.55,0,0,1,66.68,47a2.65,2.65,0,0,1-1,2.89l-2.36,1.67a.93.93,0,0,0-.39.79A6,6,0,0,1,57,58.49H45.8l-.38,2.43a7,7,0,0,0,1.46,5.57l.92,1.13a6.84,6.84,0,0,1,1.41,5.3A7,7,0,0,1,48.53,75H77.11a2.58,2.58,0,0,1,2.53,2.61V83A2.58,2.58,0,0,1,77.11,85.65ZM2.53,77.5a.24.24,0,0,0,0,.11V83a.14.14,0,0,0,0,.11H77.11a.24.24,0,0,0,0-.11V77.61a.16.16,0,0,0,0-.11H42l3.09-2.26a4.12,4.12,0,0,0,1.61-2.7,4.28,4.28,0,0,0-.89-3.34l-.91-1.13a9.58,9.58,0,0,1-2-7.54L43.66,56H57a3.52,3.52,0,0,0,3.39-3.64,3.46,3.46,0,0,1,1.45-2.84l2.36-1.66a.16.16,0,0,0,0-.16l-21.85-.06V39.7h9a3.53,3.53,0,0,0,3.39-3.65,3.46,3.46,0,0,1,1.45-2.84l2.36-1.66a.14.14,0,0,0,0-.15l-16.2-.06v-4a12.91,12.91,0,0,1,4.22-9.61H33a12.91,12.91,0,0,1,4.21,9.61v4H21c-.05.13,0,.19,0,.22l2.36,1.66a3.43,3.43,0,0,1,1.45,2.83,3.53,3.53,0,0,0,3.39,3.65h9v7.93H15.39c-.05.13,0,.2,0,.22l2.36,1.67a3.43,3.43,0,0,1,1.45,2.83A3.52,3.52,0,0,0,22.6,56H36l.71,4.54a9.59,9.59,0,0,1-2,7.54l-.92,1.13a4.32,4.32,0,0,0-.88,3.34,4.12,4.12,0,0,0,1.6,2.71l3.07,2.25Z"/></clipPath><clipPath id="clip-path-32"><path class="cls-2" d="M2462.75,1869.53H-2414.6V-2536.72H2462.75Zm-4874.35-3H2459.75V-2533.72H-2411.6Z"/></clipPath><clipPath id="clip-path-33"><path class="cls-1" d="M7.43,44.43a2.82,2.82,0,0,1,2.82-2.82A5.63,5.63,0,0,0,15.88,36v-7a2.82,2.82,0,0,1,2.82-2.82h8.45V23.31H18.7a5.63,5.63,0,0,0-5.63,5.63v7a2.83,2.83,0,0,1-2.82,2.82,5.64,5.64,0,0,0-5.63,5.63V64.14H7.43Z"/></clipPath><clipPath id="clip-path-34"><rect class="cls-2" x="-2646.42" y="-2632.62" width="5338.01" height="4566.05"/></clipPath><clipPath id="clip-path-35"><rect class="cls-2" x="4.62" y="66.95" width="2.81" height="4.22"/></clipPath><clipPath id="clip-path-36"><rect class="cls-2" x="11.66" y="52.88" width="2.82" height="11.26"/></clipPath><clipPath id="clip-path-37"><rect class="cls-2" x="11.66" y="66.95" width="2.82" height="4.22"/></clipPath><clipPath id="clip-path-38"><path class="cls-2" d="M39.82,12.83A2.14,2.14,0,0,1,38,11.78l-3.2-5.32a2.15,2.15,0,0,1,.33-2.65L38.29.61a2.23,2.23,0,0,1,3.06,0l3.2,3.2a2.16,2.16,0,0,1,.32,2.65l-3.19,5.32A2.17,2.17,0,0,1,39.82,12.83Zm0-2.18Zm-.06-8.48-3.14,3.2,3.17,5.23L43,5.32Z"/></clipPath><clipPath id="clip-path-39"><path class="cls-2" d="M2046.94,1465.27H-1993.38V-1991.08H2046.94Zm-4038.12-2.2H2044.74V-1988.88H-1991.18Z"/></clipPath><clipPath id="clip-path-40"><path class="cls-1" d="M52.49,23.31v2.81h8.45a2.82,2.82,0,0,1,2.82,2.82v7a5.64,5.64,0,0,0,5.63,5.63,2.82,2.82,0,0,1,2.82,2.81V64.14H75V44.42a5.63,5.63,0,0,0-5.63-5.62A2.82,2.82,0,0,1,66.58,36v-7a5.64,5.64,0,0,0-5.64-5.63Z"/></clipPath><clipPath id="clip-path-42"><rect class="cls-2" x="72.21" y="66.95" width="2.81" height="4.22"/></clipPath><clipPath id="clip-path-43"><rect class="cls-2" x="65.17" y="52.88" width="2.81" height="11.26"/></clipPath><clipPath id="clip-path-44"><rect class="cls-2" x="65.17" y="66.95" width="2.81" height="4.22"/></clipPath><clipPath id="clip-path-45"><path class="cls-1" d="M58.13,13.45h2.81A8.46,8.46,0,0,0,52.49,5H49.68V7.82h2.81a5.64,5.64,0,0,1,5.64,5.63"/></clipPath><clipPath id="clip-path-47"><rect class="cls-2" x="58.12" y="16.27" width="2.81" height="2.81"/></clipPath><clipPath id="clip-path-48"><path class="cls-1" d="M27.15,7.82H30V5H27.15a8.46,8.46,0,0,0-8.45,8.45h2.82a5.63,5.63,0,0,1,5.63-5.63"/></clipPath><clipPath id="clip-path-50"><rect class="cls-2" x="18.7" y="16.27" width="2.82" height="2.81"/></clipPath><clipPath id="clip-path-51"><path class="cls-1" d="M507,72.34a4.49,4.49,0,0,1-6.22,0,7.62,7.62,0,0,0-10.07,0,4.48,4.48,0,0,1-6.21,0,7.61,7.61,0,0,0-10.06,0,4.4,4.4,0,0,1-3.1,1.25,4.07,4.07,0,0,1-1.82-.38V31.07h22.05v3.16h3.15V31.07h1.57a3.15,3.15,0,0,0,3.15-3.14V24.78a3.15,3.15,0,0,0-3.15-3.15h-.08A29.9,29.9,0,0,0,467.94-6.63V-8.29A4.74,4.74,0,0,0,463.22-13a4.74,4.74,0,0,0-4.73,4.73v1.66a29.89,29.89,0,0,0-28.25,28.26h-.09A3.16,3.16,0,0,0,427,24.78v3.15a3.15,3.15,0,0,0,3.15,3.14h1.58v3.16h3.15V31.07h22V73.18a4.07,4.07,0,0,1-1.86.41A4.42,4.42,0,0,1,452,72.34a7.61,7.61,0,0,0-10.06,0,4.47,4.47,0,0,1-6.2,0,7.59,7.59,0,0,0-10.05,0,4.48,4.48,0,0,1-6.21,0,7.38,7.38,0,0,0-5-1.9v3.15a4.42,4.42,0,0,1,3.11,1.24,7.59,7.59,0,0,0,10.05,0,4.51,4.51,0,0,1,6.21,0,7.59,7.59,0,0,0,10.05,0,4.49,4.49,0,0,1,6.2,0,7.62,7.62,0,0,0,10.07,0,4.51,4.51,0,0,1,6.21,0,7.61,7.61,0,0,0,10.06,0,4.51,4.51,0,0,1,6.21,0,7.61,7.61,0,0,0,10.06,0,4.51,4.51,0,0,1,6.21,0,7.63,7.63,0,0,0,10.08,0A4.4,4.4,0,0,1,512,73.59V70.44A7.41,7.41,0,0,0,507,72.34ZM463.22-9.86a1.57,1.57,0,0,1,1.57,1.57v1.58h-3.14V-8.29A1.57,1.57,0,0,1,463.22-9.86ZM458.89-3.5a37.1,37.1,0,0,0-8.33,11.9l2.89,1.26a33.87,33.87,0,0,1,9.77-12.78,33.57,33.57,0,0,1,12.55,24.75H450.68a34.11,34.11,0,0,1,1.62-9l-3-1a37.36,37.36,0,0,0-1.78,9.94H433.38A26.75,26.75,0,0,1,458.89-3.5ZM430.15,24.78h53.53V21.63h-4.76A36.65,36.65,0,0,0,467.56-3.5a26.76,26.76,0,0,1,25.5,25.13h-6.22v3.15h9.44v3.15H430.15Zm33,45.66a7.06,7.06,0,0,0-3.13.66v-40h6.3V71.12A7.1,7.1,0,0,0,463.19,70.44Z"/></clipPath><clipPath id="clip-path-52"><path class="cls-1" d="M503.88,81.46a4.46,4.46,0,0,1-3.11-1.24,7.59,7.59,0,0,0-10.07,0,4.51,4.51,0,0,1-6.21,0,7.58,7.58,0,0,0-10.06,0,4.51,4.51,0,0,1-6.21,0,7.58,7.58,0,0,0-10.06,0,4.51,4.51,0,0,1-6.21,0,7.58,7.58,0,0,0-10.06,0,4.48,4.48,0,0,1-6.19,0,7.58,7.58,0,0,0-10.06,0,4.46,4.46,0,0,1-3.11,1.24,4.41,4.41,0,0,1-3.09-1.24,7.42,7.42,0,0,0-5-1.91v3.15a4.39,4.39,0,0,1,3.1,1.24,7.57,7.57,0,0,0,10.05,0,4.51,4.51,0,0,1,6.21,0,7.57,7.57,0,0,0,10.05,0,4.42,4.42,0,0,1,3.11-1.24A4.37,4.37,0,0,1,450,82.7a7.59,7.59,0,0,0,10.07,0,4.51,4.51,0,0,1,6.21,0,7.58,7.58,0,0,0,10.06,0,4.51,4.51,0,0,1,6.21,0,7.58,7.58,0,0,0,10.06,0,4.51,4.51,0,0,1,6.21,0,7.59,7.59,0,0,0,10.07,0A4.44,4.44,0,0,1,512,81.46V78.31a7.43,7.43,0,0,0-5,1.91,4.44,4.44,0,0,1-3.11,1.24"/></clipPath><clipPath id="clip-path-53"><path class="cls-1" d="M472.66,62.56a4.73,4.73,0,1,0,9.45,0V59.42H479v3.14a1.58,1.58,0,1,1-3.15,0v-22h-3.15Z"/></clipPath><clipPath id="clip-path-54"><path class="cls-1" d="M494.71,51.54V43.67h-3.16v7.87a1.57,1.57,0,1,1-3.14,0V39A4.73,4.73,0,1,0,479,39v4.72h3.15V39a1.58,1.58,0,1,1,3.15,0V51.54a4.73,4.73,0,1,0,9.45,0"/></clipPath><clipPath id="clip-path-55"><path class="cls-1" d="M450.62,62.56a1.58,1.58,0,1,1-3.15,0V59.42h-3.15v3.14a4.73,4.73,0,1,0,9.45,0v-22h-3.15Z"/></clipPath><clipPath id="clip-path-56"><path class="cls-1" d="M431.73,51.54a4.73,4.73,0,1,0,9.45,0V39a1.57,1.57,0,1,1,3.14,0v4.72h3.15V39A4.73,4.73,0,1,0,438,39V51.54a1.57,1.57,0,1,1-3.14,0V43.67h-3.15Z"/></clipPath><clipPath id="clip-path-57"><path class="cls-1" d="M422.28,62.56a17.73,17.73,0,0,1,5.64.92l4.95,1.65-2.65-6.63a8.51,8.51,0,0,0-7.94-5.38,4.72,4.72,0,1,0,0,9.44m0-6.29a5.39,5.39,0,0,1,5,3.39l.16.41a20.54,20.54,0,0,0-5.18-.65,1.58,1.58,0,0,1,0-3.15"/></clipPath><clipPath id="clip-path-58"><path class="cls-1" d="M496.21,58.49l-2.65,6.64,4.95-1.65a17.77,17.77,0,0,1,5.64-.92,4.72,4.72,0,1,0,0-9.44A8.52,8.52,0,0,0,496.21,58.49Zm2.93,1.17a5.36,5.36,0,0,1,5-3.39,1.58,1.58,0,1,1,0,3.15,20.46,20.46,0,0,0-5.17.65Z"/></clipPath></defs><path class="cls-5" d="M582.1,81.19H598V71.25H582.1Zm17.9,4H580.11a2,2,0,0,1-2-2V69.26a2,2,0,0,1,2-2H600a2,2,0,0,1,2,2V83.18A2,2,0,0,1,600,85.17Z"/><g class="cls-6"><rect class="cls-2" x="-686.44" y="-3711.46" width="5804.01" height="4970.61"/></g><path class="cls-5" d="M572.16,81.19H608V-6.33h-35.8Zm37.79,4H570.17a2,2,0,0,1-2-2V-8.32a2,2,0,0,1,2-2H610a2,2,0,0,1,2,2v91.5A2,2,0,0,1,610,85.17Z"/><g class="cls-7"><rect class="cls-2" x="-686.44" y="-3711.46" width="5804.01" height="4964.66"/></g><path class="cls-5" d="M556.24,81.19h11.93V1.63H556.24Zm13.93,4H554.25a2,2,0,0,1-2-2V-.36a2,2,0,0,1,2-2h15.92a2,2,0,0,1,2,2V83.18A2,2,0,0,1,570.17,85.17Z"/><g class="cls-8"><rect class="cls-2" x="-686.44" y="-3711.46" width="5804.01" height="4964.66"/></g><path class="cls-5" d="M611.94,81.19h11.93V1.63H611.94Zm13.92,4H610a2,2,0,0,1-2-2V-.36a2,2,0,0,1,2-2h15.91a2,2,0,0,1,2,2V83.18A2,2,0,0,1,625.86,85.17Z"/><g class="cls-9"><rect class="cls-2" x="-686.44" y="-3711.46" width="5804.01" height="4964.66"/></g><rect class="cls-2" x="538.34" y="41.41" width="3.98" height="19.89" transform="translate(174.91 452.68) rotate(-53.11)"/><g class="cls-10"><rect class="cls-2" x="-686.44" y="-3711.46" width="5804.01" height="4964.66"/></g><rect class="cls-2" x="530.38" y="49.37" width="19.89" height="3.98" transform="translate(77.29 334.53) rotate(-36.88)"/><g class="cls-11"><rect class="cls-2" x="-686.44" y="-3711.46" width="5804.01" height="4964.66"/></g><rect class="cls-2" x="637.8" y="41.41" width="3.97" height="19.89" transform="translate(214.73 532.28) rotate(-53.12)"/><g class="cls-12"><rect class="cls-2" x="-686.44" y="-3711.46" width="5804.01" height="4964.66"/></g><rect class="cls-2" x="629.83" y="49.38" width="19.89" height="3.97" transform="translate(97 393.93) rotate(-36.85)"/><g class="cls-13"><rect class="cls-2" x="-686.44" y="-3711.46" width="5804.01" height="4964.66"/></g><path class="cls-5" d="M398,31.72a9.46,9.46,0,0,0-6.65-9,38.3,38.3,0,0,0-4.67-11.26A9.49,9.49,0,0,0,385,.32a9.45,9.45,0,0,0-11.09-1.68A38.57,38.57,0,0,0,362.67-6a9.46,9.46,0,0,0-9-6.66,9.46,9.46,0,0,0-9,6.66,38.57,38.57,0,0,0-11.24,4.67A9.43,9.43,0,0,0,326.21-2,1.4,1.4,0,0,0,327,.64a6.65,6.65,0,0,1,6.63,11.07,6.71,6.71,0,0,1-9.39,0,6.66,6.66,0,0,1-1.45-7.23,1.41,1.41,0,0,0-2.6-1.06,9.5,9.5,0,0,0,.39,8,38.57,38.57,0,0,0-4.67,11.26,9.47,9.47,0,0,0,0,18.07A38.71,38.71,0,0,0,320.62,52,9.45,9.45,0,0,0,333.39,64.8a37.79,37.79,0,0,0,4.3,2.3l-4.28,11.61a3.3,3.3,0,0,0,3,4.38h34.37a3.3,3.3,0,0,0,3.05-4.38L369.6,67.1a38.79,38.79,0,0,0,4.31-2.3,9.38,9.38,0,0,0,7.31.64,1.4,1.4,0,0,0-.86-2.67,6.65,6.65,0,0,1-6.73-11,6.64,6.64,0,0,1,10.86,7.17,1.41,1.41,0,0,0,2.61,1,9.44,9.44,0,0,0-.43-7.92,38.41,38.41,0,0,0,4.67-11.26A9.48,9.48,0,0,0,398,31.72Zm-2.8,0a6.64,6.64,0,1,1-6.65-6.65A6.66,6.66,0,0,1,395.19,31.72Zm-16-1.4H367.35a13.65,13.65,0,0,0-3-7.31l8.39-8.4a9.5,9.5,0,0,0,7.46,1.67,30.84,30.84,0,0,1,3.15,7.58A9.41,9.41,0,0,0,379.21,30.32ZM367.38,65a45.35,45.35,0,0,1-4.3,1.47A8.85,8.85,0,0,0,362.7,64,33.07,33.07,0,0,0,370,61a9.67,9.67,0,0,0,1.47,2A29.7,29.7,0,0,1,367.38,65ZM335.8,63a9.62,9.62,0,0,0,1.46-2A33.72,33.72,0,0,0,344.58,64a9.5,9.5,0,0,0-.38,2.46A35.54,35.54,0,0,1,335.8,63ZM322.44,49.6A35.9,35.9,0,0,1,319,41.17a9.43,9.43,0,0,0,2.45-.38,33.67,33.67,0,0,0,3.05,7.34A9.26,9.26,0,0,0,322.44,49.6Zm4.69-2.44A30.27,30.27,0,0,1,324,39.58a9.49,9.49,0,0,0,4.1-6.45h11.85a13.64,13.64,0,0,0,3,7.27l-8.41,8.41A9.48,9.48,0,0,0,327.13,47.16Zm25.11,10.16a9.46,9.46,0,0,0-6.45,4.11,30.7,30.7,0,0,1-7.56-3.15,9.49,9.49,0,0,0-1.69-7.49l8.4-8.4a13.76,13.76,0,0,0,7.3,3Zm1.4,2.7A6.66,6.66,0,1,1,347,66.67,6.65,6.65,0,0,1,353.64,60Zm15.42-1.74a30.14,30.14,0,0,1-7.56,3.14,9.48,9.48,0,0,0-6.45-4.1V45.43a13.69,13.69,0,0,0,7.29-3l8.4,8.4A9.51,9.51,0,0,0,369.06,58.28ZM353.64,42.69a11,11,0,1,1,11-11A11,11,0,0,1,353.64,42.69ZM344.58-.57a34.22,34.22,0,0,0-7.32,3.05,9.32,9.32,0,0,0-1.47-2A35.36,35.36,0,0,1,344.2-3,10,10,0,0,0,344.58-.57Zm-6.35,5.74A30,30,0,0,1,345.79,2a9.48,9.48,0,0,0,6.45,4.1V18A13.75,13.75,0,0,0,345,21l-8.39-8.4A9.54,9.54,0,0,0,338.23,5.17ZM370,2.49A33.62,33.62,0,0,0,362.7-.57,8.72,8.72,0,0,0,363.08-3,35.68,35.68,0,0,1,371.5.47,9.47,9.47,0,0,0,370,2.49ZM361.5,2a29.8,29.8,0,0,1,7.56,3.15,9.51,9.51,0,0,0,1.66,7.46l-8.4,8.4a13.69,13.69,0,0,0-7.27-3V6.12A9.48,9.48,0,0,0,361.5,2Zm23.34,11.82a35.51,35.51,0,0,1,3.5,8.43,9.5,9.5,0,0,0-2.46.38,32.87,32.87,0,0,0-3-7.34A9.2,9.2,0,0,0,384.84,13.84ZM383,2.3a6.67,6.67,0,0,1,0,9.41,6.71,6.71,0,0,1-9.39,0,6.75,6.75,0,0,1,0-9.41A6.72,6.72,0,0,1,383,2.3ZM353.64-9.89a6.66,6.66,0,0,1,6.65,6.66,6.66,6.66,0,0,1-6.65,6.65A6.66,6.66,0,0,1,347-3.23a6.58,6.58,0,0,1,.11-1.19,1.14,1.14,0,0,0,.07-.32A6.67,6.67,0,0,1,353.64-9.89ZM334.57,14.62,343,23a13.75,13.75,0,0,0-3,7.3H328.09a9.51,9.51,0,0,0-4.1-6.46,30.43,30.43,0,0,1,3.14-7.58A9.48,9.48,0,0,0,334.57,14.62Zm-10.12.69a33.87,33.87,0,0,0-3.05,7.34,9.43,9.43,0,0,0-2.45-.38,35.51,35.51,0,0,1,3.5-8.43A9,9,0,0,0,324.45,15.31ZM312.11,31.72a6.73,6.73,0,0,1,6.64-6.65,6.65,6.65,0,1,1-6.64,6.65ZM329,63.09a6.66,6.66,0,0,1-4.7-11.36A6.65,6.65,0,1,1,329,63.09Zm42.28,16.59a.45.45,0,0,1-.42.61H336.46a.45.45,0,0,1-.42-.61l4.25-11.52a36.56,36.56,0,0,0,4.33,1.31,9.44,9.44,0,0,0,18.05,0A36,36,0,0,0,367,68.16Zm1.47-30.87-8.4-8.4a13.69,13.69,0,0,0,3-7.28h11.86a9.39,9.39,0,0,0,4.1,6.45,30.68,30.68,0,0,1-3.15,7.58,9.49,9.49,0,0,0-7.44,1.65Zm10.12-.68a32.87,32.87,0,0,0,3-7.34,9.5,9.5,0,0,0,2.46.38,35.51,35.51,0,0,1-3.5,8.43A9.2,9.2,0,0,0,382.84,48.13Z"/><g class="cls-34"><rect class="cls-2" x="-4210.68" y="-2228.05" width="5391.41" height="4611.73"/></g><g class="cls-35"><rect class="cls-36" x="-2437.09" y="-1171.99" width="2550.35" height="2181.53"/></g><path class="cls-37" d="M-57.42,245a.93.93,0,0,1,.87-.41c3.75,0,7.51,0,11.26,0a.72.72,0,0,0,.77-.49c1.36-2.82,2.74-5.63,4.1-8.45a.74.74,0,0,0,.08-.5A2,2,0,0,1-39,232.67,2,2,0,0,1-36.53,234l.09.14c0-.14.1-.24.15-.35a2,2,0,0,1,2.49-1.1,2,2,0,0,1,1.27,2.38,1.1,1.1,0,0,0,.06.62c1.38,2.87,2.79,5.73,4.17,8.6a.5.5,0,0,0,.53.32c3.8,0,7.6,0,11.39,0,.71,0,1.14.42.78,1.22a1.92,1.92,0,0,1-1.32,1.08.47.47,0,0,0-.38.44q-1.11,6.39-2.26,12.77c-.15.83-.29,1.67-.44,2.5a2.63,2.63,0,0,1-2.64,2.24H-50.19a2.64,2.64,0,0,1-2.72-2.29q-1.12-6.39-2.26-12.76c-.15-.84-.29-1.68-.45-2.51a.53.53,0,0,0-.26-.35,2.23,2.23,0,0,1-1.54-1.34Zm21-10.08a2.27,2.27,0,0,1-1.16,1.46,1.11,1.11,0,0,0-.49.49c-1.21,2.43-2.4,4.88-3.59,7.33-.06.12-.1.24-.16.36h10.78a.75.75,0,0,0,0-.11l-3.77-7.74a.49.49,0,0,0-.24-.25A2.2,2.2,0,0,1-36.45,234.93Zm-2,13.69H-42.9c.13,1.38.25,2.74.37,4.09h4.09Zm8.44,0h-4.44v4.1h4.08C-30.24,251.35-30.12,250-30,248.62Zm-16.53,4.1c-.13-1.4-.25-2.76-.37-4.1h-4.43l.73,4.1Zm25-4.1H-26c-.12,1.38-.24,2.73-.36,4.1h4.06C-22,251.37-21.81,250-21.57,248.62Zm-16.88,8.12h-3.73c.12,1.39.24,2.74.36,4.1h3.37Zm7.38,4.12c.12-1.39.23-2.76.35-4.12h-3.71v4.12Zm4,0c1.09,0,2.13,0,3.17,0,.07,0,.19-.16.21-.27.18-.9.34-1.8.5-2.7.06-.38.12-.76.18-1.18h-2.82c-.84,0-.85,0-.94.82C-26.89,258.62-27,259.71-27.08,260.87Zm-22.76-4.16a.87.87,0,0,0,0,.2c.22,1.25.43,2.51.67,3.75,0,.09.21.2.32.2.59,0,1.18,0,1.77,0h1.28c-.1-1.1-.18-2.13-.27-3.17,0-.32,0-.78-.17-.92s-.65-.06-1-.07h-2.59Z"/><path class="cls-2" d="M77.11,85.65H2.53A2.58,2.58,0,0,1,0,83V77.61A2.58,2.58,0,0,1,2.53,75H31.1a7,7,0,0,1-.67-2.08,6.8,6.8,0,0,1,1.41-5.3l.92-1.13a7,7,0,0,0,1.46-5.57l-.38-2.43H22.6a6,6,0,0,1-5.89-6.14,1,1,0,0,0-.38-.79L14,49.89A2.65,2.65,0,0,1,13,47a2.53,2.53,0,0,1,2.43-1.87H34.71V42.2H28.25a6,6,0,0,1-5.89-6.15.94.94,0,0,0-.39-.79L19.61,33.6a2.65,2.65,0,0,1-1-2.9A2.55,2.55,0,0,1,21,28.84H34.71V27.37A10.18,10.18,0,0,0,29,18.08l-.72-.33V15.26H51.36v2.49l-.73.33a10.18,10.18,0,0,0-5.7,9.29v1.47H58.6A2.55,2.55,0,0,1,61,30.71a2.64,2.64,0,0,1-1,2.89l-2.36,1.66a.94.94,0,0,0-.39.79,6,6,0,0,1-5.89,6.15H44.93v2.93H64.25A2.55,2.55,0,0,1,66.68,47a2.65,2.65,0,0,1-1,2.89l-2.36,1.67a.93.93,0,0,0-.39.79A6,6,0,0,1,57,58.49H45.8l-.38,2.43a7,7,0,0,0,1.46,5.57l.92,1.13a6.84,6.84,0,0,1,1.41,5.3A7,7,0,0,1,48.53,75H77.11a2.58,2.58,0,0,1,2.53,2.61V83A2.58,2.58,0,0,1,77.11,85.65ZM2.53,77.5a.24.24,0,0,0,0,.11V83a.14.14,0,0,0,0,.11H77.11a.24.24,0,0,0,0-.11V77.61a.16.16,0,0,0,0-.11H42l3.09-2.26a4.12,4.12,0,0,0,1.61-2.7,4.28,4.28,0,0,0-.89-3.34l-.91-1.13a9.58,9.58,0,0,1-2-7.54L43.66,56H57a3.52,3.52,0,0,0,3.39-3.64,3.46,3.46,0,0,1,1.45-2.84l2.36-1.66a.16.16,0,0,0,0-.16l-21.85-.06V39.7h9a3.53,3.53,0,0,0,3.39-3.65,3.46,3.46,0,0,1,1.45-2.84l2.36-1.66a.14.14,0,0,0,0-.15l-16.2-.06v-4a12.91,12.91,0,0,1,4.22-9.61H33a12.91,12.91,0,0,1,4.21,9.61v4H21c-.05.13,0,.19,0,.22l2.36,1.66a3.43,3.43,0,0,1,1.45,2.83,3.53,3.53,0,0,0,3.39,3.65h9v7.93H15.39c-.05.13,0,.2,0,.22l2.36,1.67a3.43,3.43,0,0,1,1.45,2.83A3.52,3.52,0,0,0,22.6,56H36l.71,4.54a9.59,9.59,0,0,1-2,7.54l-.92,1.13a4.32,4.32,0,0,0-.88,3.34,4.12,4.12,0,0,0,1.6,2.71l3.07,2.25Z"/><g class="cls-38"><path class="cls-2" d="M2462.75,1869.53H-2414.6V-2536.72H2462.75Zm-4874.35-3H2459.75V-2533.72H-2411.6Z"/><g class="cls-39"><path class="cls-2" d="M104.89,112.29H-25.25V-11.39H104.89Zm-127.14-3H101.89V-8.39H-22.25Z"/></g></g><path class="cls-5" d="M7.43,44.43a2.82,2.82,0,0,1,2.82-2.82A5.63,5.63,0,0,0,15.88,36v-7a2.82,2.82,0,0,1,2.82-2.82h8.45V23.31H18.7a5.63,5.63,0,0,0-5.63,5.63v7a2.83,2.83,0,0,1-2.82,2.82,5.64,5.64,0,0,0-5.63,5.63V64.14H7.43Z"/><g class="cls-40"><rect class="cls-2" x="-2646.42" y="-2632.62" width="5338.01" height="4566.05"/><g class="cls-41"><rect class="cls-2" x="-22.76" y="-4.07" width="77.28" height="95.58"/></g></g><rect class="cls-2" x="4.62" y="66.95" width="2.81" height="4.22"/><g class="cls-42"><rect class="cls-2" x="-22.75" y="39.58" width="57.56" height="58.97"/></g><rect class="cls-2" x="11.66" y="52.88" width="2.82" height="11.26"/><g class="cls-43"><rect class="cls-2" x="-15.72" y="25.5" width="57.57" height="66.01"/></g><rect class="cls-2" x="11.66" y="66.95" width="2.82" height="4.22"/><g class="cls-44"><rect class="cls-2" x="-15.72" y="39.58" width="57.57" height="58.97"/></g><path class="cls-2" d="M39.82,12.83A2.14,2.14,0,0,1,38,11.78l-3.2-5.32a2.15,2.15,0,0,1,.33-2.65L38.29.61a2.23,2.23,0,0,1,3.06,0l3.2,3.2a2.16,2.16,0,0,1,.32,2.65l-3.19,5.32A2.17,2.17,0,0,1,39.82,12.83Zm0-2.18Zm-.06-8.48-3.14,3.2,3.17,5.23L43,5.32Z"/><g class="cls-45"><path class="cls-2" d="M2046.94,1465.27H-1993.38V-1991.08H2046.94Zm-4038.12-2.2H2044.74V-1988.88H-1991.18Z"/><g class="cls-46"><path class="cls-2" d="M65.89,33.54H13.75V-20.73H65.89ZM16,31.34H63.69V-18.53H16Z"/></g></g><path class="cls-5" d="M52.49,23.31v2.81h8.45a2.82,2.82,0,0,1,2.82,2.82v7a5.64,5.64,0,0,0,5.63,5.63,2.82,2.82,0,0,1,2.82,2.81V64.14H75V44.42a5.63,5.63,0,0,0-5.63-5.62A2.82,2.82,0,0,1,66.58,36v-7a5.64,5.64,0,0,0-5.64-5.63Z"/><g class="cls-47"><rect class="cls-2" x="-2646.42" y="-2632.62" width="5338.01" height="4566.05"/><g class="cls-41"><rect class="cls-2" x="25.12" y="-4.07" width="77.28" height="95.58"/></g></g><rect class="cls-2" x="72.21" y="66.95" width="2.81" height="4.22"/><g class="cls-48"><rect class="cls-2" x="44.83" y="39.58" width="57.56" height="58.97"/></g><rect class="cls-2" x="65.17" y="52.88" width="2.81" height="11.26"/><g class="cls-49"><rect class="cls-2" x="37.79" y="25.5" width="57.56" height="66.01"/></g><rect class="cls-2" x="65.17" y="66.95" width="2.81" height="4.22"/><g class="cls-50"><rect class="cls-2" x="37.79" y="39.58" width="57.56" height="58.97"/></g><path class="cls-5" d="M58.13,13.45h2.81A8.46,8.46,0,0,0,52.49,5H49.68V7.82h2.81a5.64,5.64,0,0,1,5.64,5.63"/><g class="cls-51"><rect class="cls-2" x="-2646.42" y="-2632.62" width="5338.01" height="4566.05"/><g class="cls-41"><rect class="cls-2" x="22.3" y="-22.37" width="66.01" height="63.2"/></g></g><rect class="cls-2" x="58.12" y="16.27" width="2.81" height="2.81"/><g class="cls-52"><rect class="cls-2" x="30.75" y="-11.11" width="57.56" height="57.56"/></g><path class="cls-5" d="M27.15,7.82H30V5H27.15a8.46,8.46,0,0,0-8.45,8.45h2.82a5.63,5.63,0,0,1,5.63-5.63"/><g class="cls-53"><rect class="cls-2" x="-2646.42" y="-2632.62" width="5338.01" height="4566.05"/><g class="cls-41"><rect class="cls-2" x="-8.67" y="-22.38" width="66.01" height="63.2"/></g></g><rect class="cls-2" x="18.7" y="16.27" width="2.82" height="2.81"/><g class="cls-54"><rect class="cls-2" x="-8.68" y="-11.11" width="57.57" height="57.56"/></g><path class="cls-5" d="M507,72.34a4.49,4.49,0,0,1-6.22,0,7.62,7.62,0,0,0-10.07,0,4.48,4.48,0,0,1-6.21,0,7.61,7.61,0,0,0-10.06,0,4.4,4.4,0,0,1-3.1,1.25,4.07,4.07,0,0,1-1.82-.38V31.07h22.05v3.16h3.15V31.07h1.57a3.15,3.15,0,0,0,3.15-3.14V24.78a3.15,3.15,0,0,0-3.15-3.15h-.08A29.9,29.9,0,0,0,467.94-6.63V-8.29A4.74,4.74,0,0,0,463.22-13a4.74,4.74,0,0,0-4.73,4.73v1.66a29.89,29.89,0,0,0-28.25,28.26h-.09A3.16,3.16,0,0,0,427,24.78v3.15a3.15,3.15,0,0,0,3.15,3.14h1.58v3.16h3.15V31.07h22V73.18a4.07,4.07,0,0,1-1.86.41A4.42,4.42,0,0,1,452,72.34a7.61,7.61,0,0,0-10.06,0,4.47,4.47,0,0,1-6.2,0,7.59,7.59,0,0,0-10.05,0,4.48,4.48,0,0,1-6.21,0,7.38,7.38,0,0,0-5-1.9v3.15a4.42,4.42,0,0,1,3.11,1.24,7.59,7.59,0,0,0,10.05,0,4.51,4.51,0,0,1,6.21,0,7.59,7.59,0,0,0,10.05,0,4.49,4.49,0,0,1,6.2,0,7.62,7.62,0,0,0,10.07,0,4.51,4.51,0,0,1,6.21,0,7.61,7.61,0,0,0,10.06,0,4.51,4.51,0,0,1,6.21,0,7.61,7.61,0,0,0,10.06,0,4.51,4.51,0,0,1,6.21,0,7.63,7.63,0,0,0,10.08,0A4.4,4.4,0,0,1,512,73.59V70.44A7.41,7.41,0,0,0,507,72.34ZM463.22-9.86a1.57,1.57,0,0,1,1.57,1.57v1.58h-3.14V-8.29A1.57,1.57,0,0,1,463.22-9.86ZM458.89-3.5a37.1,37.1,0,0,0-8.33,11.9l2.89,1.26a33.87,33.87,0,0,1,9.77-12.78,33.57,33.57,0,0,1,12.55,24.75H450.68a34.11,34.11,0,0,1,1.62-9l-3-1a37.36,37.36,0,0,0-1.78,9.94H433.38A26.75,26.75,0,0,1,458.89-3.5ZM430.15,24.78h53.53V21.63h-4.76A36.65,36.65,0,0,0,467.56-3.5a26.76,26.76,0,0,1,25.5,25.13h-6.22v3.15h9.44v3.15H430.15Zm33,45.66a7.06,7.06,0,0,0-3.13.66v-40h6.3V71.12A7.1,7.1,0,0,0,463.19,70.44Z"/><g class="cls-55"><rect class="cls-2" x="-2333.61" y="-2414.99" width="5224.37" height="4468.85"/></g><path class="cls-5" d="M503.88,81.46a4.46,4.46,0,0,1-3.11-1.24,7.59,7.59,0,0,0-10.07,0,4.51,4.51,0,0,1-6.21,0,7.58,7.58,0,0,0-10.06,0,4.51,4.51,0,0,1-6.21,0,7.58,7.58,0,0,0-10.06,0,4.51,4.51,0,0,1-6.21,0,7.58,7.58,0,0,0-10.06,0,4.48,4.48,0,0,1-6.19,0,7.58,7.58,0,0,0-10.06,0,4.46,4.46,0,0,1-3.11,1.24,4.41,4.41,0,0,1-3.09-1.24,7.42,7.42,0,0,0-5-1.91v3.15a4.39,4.39,0,0,1,3.1,1.24,7.57,7.57,0,0,0,10.05,0,4.51,4.51,0,0,1,6.21,0,7.57,7.57,0,0,0,10.05,0,4.42,4.42,0,0,1,3.11-1.24A4.37,4.37,0,0,1,450,82.7a7.59,7.59,0,0,0,10.07,0,4.51,4.51,0,0,1,6.21,0,7.58,7.58,0,0,0,10.06,0,4.51,4.51,0,0,1,6.21,0,7.58,7.58,0,0,0,10.06,0,4.51,4.51,0,0,1,6.21,0,7.59,7.59,0,0,0,10.07,0A4.44,4.44,0,0,1,512,81.46V78.31a7.43,7.43,0,0,0-5,1.91,4.44,4.44,0,0,1-3.11,1.24"/><g class="cls-56"><rect class="cls-2" x="-2333.61" y="-2414.99" width="5224.37" height="4468.85"/></g><path class="cls-5" d="M472.66,62.56a4.73,4.73,0,1,0,9.45,0V59.42H479v3.14a1.58,1.58,0,1,1-3.15,0v-22h-3.15Z"/><g class="cls-57"><rect class="cls-2" x="-2333.61" y="-2414.99" width="5224.37" height="4468.85"/></g><path class="cls-5" d="M494.71,51.54V43.67h-3.16v7.87a1.57,1.57,0,1,1-3.14,0V39A4.73,4.73,0,1,0,479,39v4.72h3.15V39a1.58,1.58,0,1,1,3.15,0V51.54a4.73,4.73,0,1,0,9.45,0"/><g class="cls-58"><rect class="cls-2" x="-2333.61" y="-2414.99" width="5224.37" height="4468.85"/></g><path class="cls-5" d="M450.62,62.56a1.58,1.58,0,1,1-3.15,0V59.42h-3.15v3.14a4.73,4.73,0,1,0,9.45,0v-22h-3.15Z"/><g class="cls-59"><rect class="cls-2" x="-2333.61" y="-2414.99" width="5224.37" height="4468.85"/></g><path class="cls-5" d="M431.73,51.54a4.73,4.73,0,1,0,9.45,0V39a1.57,1.57,0,1,1,3.14,0v4.72h3.15V39A4.73,4.73,0,1,0,438,39V51.54a1.57,1.57,0,1,1-3.14,0V43.67h-3.15Z"/><g class="cls-60"><rect class="cls-2" x="-2333.61" y="-2414.99" width="5224.37" height="4468.85"/></g><path class="cls-5" d="M422.28,62.56a17.73,17.73,0,0,1,5.64.92l4.95,1.65-2.65-6.63a8.51,8.51,0,0,0-7.94-5.38,4.72,4.72,0,1,0,0,9.44m0-6.29a5.39,5.39,0,0,1,5,3.39l.16.41a20.54,20.54,0,0,0-5.18-.65,1.58,1.58,0,0,1,0-3.15"/><g class="cls-61"><rect class="cls-2" x="-2333.61" y="-2414.99" width="5224.37" height="4468.85"/></g><path class="cls-5" d="M496.21,58.49l-2.65,6.64,4.95-1.65a17.77,17.77,0,0,1,5.64-.92,4.72,4.72,0,1,0,0-9.44A8.52,8.52,0,0,0,496.21,58.49Zm2.93,1.17a5.36,5.36,0,0,1,5-3.39,1.58,1.58,0,1,1,0,3.15,20.46,20.46,0,0,0-5.17.65Z"/><g class="cls-62"><rect class="cls-2" x="-2333.61" y="-2414.99" width="5224.37" height="4468.85"/></g></svg>