<svg id="Layer_1" data-name="Layer 1" xmlns="http://www.w3.org/2000/svg" xmlns:xlink="http://www.w3.org/1999/xlink" viewBox="0 0 95.86 92.49"><defs><style>.cls-1,.cls-2,.cls-5{fill:#fff;}.cls-1,.cls-3,.cls-4{clip-rule:evenodd;}.cls-3,.cls-36,.cls-37,.cls-4{fill:none;}.cls-36,.cls-37,.cls-4{stroke:#fff;stroke-miterlimit:10;}.cls-37,.cls-5{fill-rule:evenodd;}.cls-6{clip-path:url(#clip-path);}.cls-7{clip-path:url(#clip-path-2);}.cls-8{clip-path:url(#clip-path-3);}.cls-9{clip-path:url(#clip-path-4);}.cls-10{clip-path:url(#clip-path-5);}.cls-11{clip-path:url(#clip-path-6);}.cls-12{clip-path:url(#clip-path-7);}.cls-13{clip-path:url(#clip-path-8);}.cls-14{clip-path:url(#clip-path-9);}.cls-15{clip-path:url(#clip-path-10);}.cls-16{clip-path:url(#clip-path-11);}.cls-17{clip-path:url(#clip-path-12);}.cls-18{clip-path:url(#clip-path-13);}.cls-19{clip-path:url(#clip-path-14);}.cls-20{clip-path:url(#clip-path-15);}.cls-21{clip-path:url(#clip-path-16);}.cls-22{clip-path:url(#clip-path-17);}.cls-23{clip-path:url(#clip-path-18);}.cls-24{clip-path:url(#clip-path-19);}.cls-25{clip-path:url(#clip-path-20);}.cls-26{clip-path:url(#clip-path-21);}.cls-27{clip-path:url(#clip-path-22);}.cls-28{clip-path:url(#clip-path-23);}.cls-29{clip-path:url(#clip-path-24);}.cls-30{clip-path:url(#clip-path-25);}.cls-31{clip-path:url(#clip-path-26);}.cls-32{clip-path:url(#clip-path-27);}.cls-33{clip-path:url(#clip-path-28);}.cls-34{clip-path:url(#clip-path-29);}.cls-35{clip-path:url(#clip-path-30);}.cls-36{stroke-width:1.5px;}.cls-38{clip-path:url(#clip-path-31);}.cls-39{clip-path:url(#clip-path-32);}.cls-40{clip-path:url(#clip-path-33);}.cls-41{clip-path:url(#clip-path-34);}.cls-42{clip-path:url(#clip-path-35);}.cls-43{clip-path:url(#clip-path-36);}.cls-44{clip-path:url(#clip-path-37);}.cls-45{clip-path:url(#clip-path-38);}.cls-46{clip-path:url(#clip-path-39);}.cls-47{clip-path:url(#clip-path-40);}.cls-48{clip-path:url(#clip-path-41);}.cls-49{clip-path:url(#clip-path-42);}.cls-50{clip-path:url(#clip-path-43);}.cls-51{clip-path:url(#clip-path-44);}.cls-52{clip-path:url(#clip-path-45);}.cls-53{clip-path:url(#clip-path-46);}.cls-54{clip-path:url(#clip-path-47);}</style><clipPath id="clip-path"><path class="cls-1" d="M483.26,88.35h15.91V78.4H483.26Zm17.9,4H481.27a2,2,0,0,1-2-2V76.41a2,2,0,0,1,2-2h19.89a2,2,0,0,1,2,2V90.33A2,2,0,0,1,501.16,92.32Z"/></clipPath><clipPath id="clip-path-2"><path class="cls-1" d="M473.32,88.35h35.8V.82h-35.8Zm37.79,4H471.32a2,2,0,0,1-2-2V-1.17a2,2,0,0,1,2-2h39.79a2,2,0,0,1,2,2v91.5A2,2,0,0,1,511.11,92.32Z"/></clipPath><clipPath id="clip-path-3"><path class="cls-1" d="M457.4,88.35h11.93V8.78H457.4Zm13.93,4H455.41a2,2,0,0,1-2-2V6.79a2,2,0,0,1,2-2h15.92a2,2,0,0,1,2,2V90.33A2,2,0,0,1,471.33,92.32Z"/></clipPath><clipPath id="clip-path-4"><path class="cls-1" d="M513.09,88.35H525V8.78H513.09Zm13.93,4H511.11a2,2,0,0,1-2-2V6.79a2,2,0,0,1,2-2H527a2,2,0,0,1,2,2V90.33A2,2,0,0,1,527,92.32Z"/></clipPath><clipPath id="clip-path-5"><rect class="cls-2" x="439.5" y="48.56" width="3.98" height="19.89" transform="translate(129.68 376.49) rotate(-53.11)"/></clipPath><clipPath id="clip-path-6"><rect class="cls-2" x="431.54" y="56.52" width="19.89" height="3.98" transform="translate(53.22 276.65) rotate(-36.88)"/></clipPath><clipPath id="clip-path-7"><rect class="cls-2" x="538.96" y="48.56" width="3.97" height="19.89" transform="translate(169.49 456.08) rotate(-53.12)"/></clipPath><clipPath id="clip-path-8"><rect class="cls-2" x="530.99" y="56.53" width="19.89" height="3.97" transform="translate(72.97 336.08) rotate(-36.85)"/></clipPath><clipPath id="clip-path-9"><path class="cls-3" d="M-83.34,249.64v-.41h.41a.91.91,0,0,0,.91-.91.9.9,0,0,0-.91-.9h-.41V247a.9.9,0,0,0-.9-.9.9.9,0,0,0-.91.9v.42h-.41a.9.9,0,0,0-.91.9.91.91,0,0,0,.91.91h.41v.41a.91.91,0,0,0,.91.91.91.91,0,0,0,.9-.91"/></clipPath><clipPath id="clip-path-10"><path class="cls-3" d="M-100.46,269.26a.9.9,0,0,0,.9-.91v-1.3a.9.9,0,0,0-.9-.9.9.9,0,0,0-.91.9v1.3a.91.91,0,0,0,.91.91"/></clipPath><clipPath id="clip-path-11"><path class="cls-3" d="M-96.86,269.26a.9.9,0,0,0,.9-.91v-1.3a.9.9,0,0,0-.9-.9.9.9,0,0,0-.91.9v1.3a.91.91,0,0,0,.91.91"/></clipPath><clipPath id="clip-path-12"><path class="cls-3" d="M-100.46,273.73a.9.9,0,0,0,.9-.9v-1.3a.9.9,0,0,0-.9-.91.91.91,0,0,0-.91.91v1.3a.9.9,0,0,0,.91.9"/></clipPath><clipPath id="clip-path-13"><path class="cls-3" d="M-96.86,273.73a.9.9,0,0,0,.9-.9v-1.3a.9.9,0,0,0-.9-.91.91.91,0,0,0-.91.91v1.3a.9.9,0,0,0,.91.9"/></clipPath><clipPath id="clip-path-14"><path class="cls-3" d="M-100.46,278.21a.9.9,0,0,0,.9-.91V276a.9.9,0,0,0-.9-.9.9.9,0,0,0-.91.9v1.3a.91.91,0,0,0,.91.91"/></clipPath><clipPath id="clip-path-15"><path class="cls-3" d="M-96.86,278.21a.9.9,0,0,0,.9-.91V276a.9.9,0,0,0-.9-.9.9.9,0,0,0-.91.9v1.3a.91.91,0,0,0,.91.91"/></clipPath><clipPath id="clip-path-16"><path class="cls-3" d="M-71.63,269.26a.91.91,0,0,0,.91-.91v-1.3a.9.9,0,0,0-.91-.9.9.9,0,0,0-.9.9v1.3a.9.9,0,0,0,.9.91"/></clipPath><clipPath id="clip-path-17"><path class="cls-3" d="M-68,269.26a.9.9,0,0,0,.9-.91v-1.3a.9.9,0,0,0-.9-.9.9.9,0,0,0-.9.9v1.3a.9.9,0,0,0,.9.91"/></clipPath><clipPath id="clip-path-18"><path class="cls-3" d="M-71.63,273.73a.9.9,0,0,0,.91-.9v-1.3a.91.91,0,0,0-.91-.91.9.9,0,0,0-.9.91v1.3a.9.9,0,0,0,.9.9"/></clipPath><clipPath id="clip-path-19"><path class="cls-3" d="M-68,273.73a.9.9,0,0,0,.9-.9v-1.3a.9.9,0,0,0-.9-.91.9.9,0,0,0-.9.91v1.3a.9.9,0,0,0,.9.9"/></clipPath><clipPath id="clip-path-20"><path class="cls-3" d="M-71.63,278.21a.91.91,0,0,0,.91-.91V276a.9.9,0,0,0-.91-.9.9.9,0,0,0-.9.9v1.3a.9.9,0,0,0,.9.91"/></clipPath><clipPath id="clip-path-21"><path class="cls-3" d="M-68,278.21a.9.9,0,0,0,.9-.91V276a.9.9,0,0,0-.9-.9.9.9,0,0,0-.9.9v1.3a.9.9,0,0,0,.9.91"/></clipPath><clipPath id="clip-path-22"><path class="cls-3" d="M-86.95,262.58v1.3a.91.91,0,0,0,.9.91.91.91,0,0,0,.91-.91v-1.3a.91.91,0,0,0-.91-.91.91.91,0,0,0-.9.91"/></clipPath><clipPath id="clip-path-23"><path class="cls-3" d="M-83.35,262.58v1.3a.9.9,0,0,0,.9.91.91.91,0,0,0,.91-.91v-1.3a.91.91,0,0,0-.91-.91.9.9,0,0,0-.9.91"/></clipPath><clipPath id="clip-path-24"><path class="cls-3" d="M-86,266.15a.9.9,0,0,0-.91.9v1.3a.91.91,0,0,0,.91.91.91.91,0,0,0,.9-.91v-1.3a.9.9,0,0,0-.9-.9"/></clipPath><clipPath id="clip-path-25"><path class="cls-3" d="M-82.45,266.15a.9.9,0,0,0-.9.9v1.3a.9.9,0,0,0,.9.91.91.91,0,0,0,.91-.91v-1.3a.9.9,0,0,0-.91-.9"/></clipPath><clipPath id="clip-path-26"><path class="cls-3" d="M-86,270.62a.91.91,0,0,0-.91.91v1.3a.9.9,0,0,0,.91.9.9.9,0,0,0,.9-.9v-1.3a.91.91,0,0,0-.9-.91"/></clipPath><clipPath id="clip-path-27"><path class="cls-3" d="M-82.45,270.62a.9.9,0,0,0-.9.91v1.3a.9.9,0,0,0,.9.9.9.9,0,0,0,.91-.9v-1.3a.91.91,0,0,0-.91-.91"/></clipPath><clipPath id="clip-path-28"><path class="cls-3" d="M-60.64,282h-1.91V262.81a.91.91,0,0,0-.9-.91H-75.23v-6.48a.9.9,0,0,0-.91-.9h-7.2V253.2h3.06a.91.91,0,0,0,.91-.91v-7.93a.91.91,0,0,0-.91-.91h-7.93a.91.91,0,0,0-.91.91v7.93a.91.91,0,0,0,.91.91h3.06v1.32h-7.21a.9.9,0,0,0-.9.9v6.48H-105a.9.9,0,0,0-.9.91V282h-1.91a.9.9,0,0,0-.9.91.9.9,0,0,0,.9.9h47.21a.9.9,0,0,0,.9-.9A.9.9,0,0,0-60.64,282ZM-77,256.33V282h-1.52v-4a.91.91,0,0,0-.91-.91H-89a.91.91,0,0,0-.9.91v4h-1.52V256.33ZM-88.12,282h7.75V279h-7.75Zm12.89,0h10.87V263.71H-75.23Zm-28.9,0h10.87V263.71h-10.87Zm16.82-30.65h6.13v-6.13h-6.13Z"/></clipPath><clipPath id="clip-path-29"><path class="cls-1" d="M299.15,38.87a9.46,9.46,0,0,0-6.65-9,38.57,38.57,0,0,0-4.67-11.26,9.49,9.49,0,0,0-1.67-11.11,9.35,9.35,0,0,0-6.68-2.77,9.48,9.48,0,0,0-4.42,1.09,38.4,38.4,0,0,0-11.23-4.67,9.44,9.44,0,0,0-18,0,38.57,38.57,0,0,0-11.24,4.67,9.43,9.43,0,0,0-7.17-.68,1.41,1.41,0,0,0,.82,2.69,6.64,6.64,0,0,1,6.63,11.06,6.71,6.71,0,0,1-9.39,0A6.64,6.64,0,0,1,224,11.63a1.41,1.41,0,0,0-2.6-1.06,9.46,9.46,0,0,0,.39,8,38.57,38.57,0,0,0-4.67,11.26,9.47,9.47,0,0,0,0,18.07,38.71,38.71,0,0,0,4.68,11.26A9.45,9.45,0,0,0,234.55,72a37.79,37.79,0,0,0,4.3,2.3l-4.29,11.61a3.3,3.3,0,0,0,3.06,4.38H272A3.3,3.3,0,0,0,275,85.86l-4.28-11.61a38.65,38.65,0,0,0,4.3-2.3,9.41,9.41,0,0,0,7.32.64,1.41,1.41,0,0,0-.87-2.67,6.65,6.65,0,0,1-6.72-11,6.64,6.64,0,0,1,10.86,7.17,1.4,1.4,0,0,0,2.6,1,9.43,9.43,0,0,0-.42-7.93,38.68,38.68,0,0,0,4.67-11.26A9.48,9.48,0,0,0,299.15,38.87Zm-2.81,0a6.64,6.64,0,1,1-6.64-6.65A6.65,6.65,0,0,1,296.34,38.87Zm-16-1.4H268.51a13.76,13.76,0,0,0-3-7.31l8.39-8.4a9.5,9.5,0,0,0,7.46,1.67A30.43,30.43,0,0,1,284.46,31,9.43,9.43,0,0,0,280.37,37.47ZM268.54,72.15a45.35,45.35,0,0,1-4.3,1.47,8.85,8.85,0,0,0-.38-2.47,32.8,32.8,0,0,0,7.32-3,9.47,9.47,0,0,0,1.48,2A28.62,28.62,0,0,1,268.54,72.15Zm-31.58-2a9.37,9.37,0,0,0,1.46-2,33.72,33.72,0,0,0,7.32,3,9.57,9.57,0,0,0-.38,2.46A35.12,35.12,0,0,1,237,70.12ZM223.6,56.75a36.36,36.36,0,0,1-3.5-8.43,9,9,0,0,0,2.46-.38,33.67,33.67,0,0,0,3.05,7.34A9.26,9.26,0,0,0,223.6,56.75Zm4.68-2.44a30.33,30.33,0,0,1-3.13-7.57,9.53,9.53,0,0,0,4.1-6.46H241.1a13.64,13.64,0,0,0,3,7.27L235.71,56A9.49,9.49,0,0,0,228.28,54.31ZM253.4,64.47A9.46,9.46,0,0,0,247,68.58a30.54,30.54,0,0,1-7.56-3.15,9.49,9.49,0,0,0-1.69-7.49l8.4-8.4a13.65,13.65,0,0,0,7.3,3Zm1.4,2.7a6.66,6.66,0,1,1-6.64,6.65A6.65,6.65,0,0,1,254.8,67.17Zm15.42-1.74a30.54,30.54,0,0,1-7.56,3.15,9.46,9.46,0,0,0-6.45-4.11V52.58a13.69,13.69,0,0,0,7.29-3l8.39,8.4A9.5,9.5,0,0,0,270.22,65.43ZM254.8,49.84a11,11,0,1,1,11-11A11,11,0,0,1,254.8,49.84ZM245.74,6.58a34.22,34.22,0,0,0-7.32,3.05,9.32,9.32,0,0,0-1.47-2,35.36,35.36,0,0,1,8.41-3.5A9.5,9.5,0,0,0,245.74,6.58Zm-6.35,5.74A29.8,29.8,0,0,1,247,9.17a9.49,9.49,0,0,0,6.45,4.11V25.16a13.72,13.72,0,0,0-7.29,3l-8.4-8.4A9.49,9.49,0,0,0,239.39,12.32Zm31.79-2.68a33.34,33.34,0,0,0-7.32-3.06,8.72,8.72,0,0,0,.38-2.46,36,36,0,0,1,8.42,3.5A9.52,9.52,0,0,0,271.18,9.64Zm-8.52-.47a29.8,29.8,0,0,1,7.56,3.15,9.51,9.51,0,0,0,1.66,7.46l-8.4,8.4a13.72,13.72,0,0,0-7.27-3V13.28A9.49,9.49,0,0,0,262.66,9.17ZM286,21a35.51,35.51,0,0,1,3.5,8.43,9.5,9.5,0,0,0-2.46.38,33.35,33.35,0,0,0-3-7.34A9.12,9.12,0,0,0,286,21ZM284.17,9.45a6.64,6.64,0,0,1-9.38,9.41,6.64,6.64,0,1,1,9.38-9.41ZM254.8-2.74a6.68,6.68,0,1,1-6.53,5.47,1.14,1.14,0,0,0,.07-.32A6.66,6.66,0,0,1,254.8-2.74ZM235.73,21.77l8.4,8.41a13.69,13.69,0,0,0-3,7.29H229.25a9.51,9.51,0,0,0-4.1-6.46,30.4,30.4,0,0,1,3.13-7.58A9.51,9.51,0,0,0,235.73,21.77Zm-10.12.69a33.87,33.87,0,0,0-3.05,7.34,9.43,9.43,0,0,0-2.45-.38A35.9,35.9,0,0,1,223.6,21,8.94,8.94,0,0,0,225.61,22.46ZM213.27,38.87a6.73,6.73,0,0,1,6.63-6.65,6.65,6.65,0,1,1-6.63,6.65Zm16.86,31.37a6.66,6.66,0,0,1-4.7-11.36,6.65,6.65,0,1,1,4.7,11.36ZM272.4,86.83a.45.45,0,0,1-.42.61H237.62a.45.45,0,0,1-.42-.61l4.25-11.51a40,40,0,0,0,4.33,1.31,9.44,9.44,0,0,0,18,0,40,40,0,0,0,4.33-1.31ZM273.88,56l-8.4-8.41a13.69,13.69,0,0,0,3-7.28h11.86a9.45,9.45,0,0,0,4.09,6.46,30.36,30.36,0,0,1-3.14,7.57A9.45,9.45,0,0,0,273.88,56ZM284,55.28a33.35,33.35,0,0,0,3-7.34,9.1,9.1,0,0,0,2.46.38,35.51,35.51,0,0,1-3.5,8.43A9.45,9.45,0,0,0,284,55.28Z"/></clipPath><clipPath id="clip-path-30"><path class="cls-4" d="M-156.27,252.16a1,1,0,0,1,.87-.41c3.76,0,7.52,0,11.27,0a.72.72,0,0,0,.77-.49c1.36-2.82,2.74-5.63,4.1-8.45a.81.81,0,0,0,.08-.5,2,2,0,0,1,1.34-2.51,2,2,0,0,1,2.47,1.33.75.75,0,0,0,.08.14c.06-.14.11-.24.16-.34a2,2,0,0,1,2.48-1.11,2,2,0,0,1,1.28,2.38.94.94,0,0,0,.06.62c1.38,2.87,2.78,5.73,4.17,8.6a.5.5,0,0,0,.53.32c3.8,0,7.6,0,11.39,0,.71,0,1.13.42.78,1.22a1.94,1.94,0,0,1-1.32,1.08c-.26.07-.33.19-.38.44q-1.12,6.39-2.26,12.77c-.15.83-.29,1.67-.44,2.5a2.64,2.64,0,0,1-2.64,2.24H-149a2.64,2.64,0,0,1-2.72-2.29q-1.12-6.39-2.27-12.76c-.15-.84-.28-1.68-.44-2.51a.53.53,0,0,0-.26-.35,2.27,2.27,0,0,1-1.55-1.34Zm21-10.08a2.27,2.27,0,0,1-1.16,1.46,1.11,1.11,0,0,0-.49.49c-1.21,2.43-2.4,4.88-3.59,7.33-.06.12-.1.24-.16.36h10.78c0-.05,0-.08,0-.11-1.26-2.58-2.51-5.16-3.78-7.74a.44.44,0,0,0-.23-.25A2.18,2.18,0,0,1-135.29,242.08Zm-2,13.69h-4.46c.13,1.38.24,2.74.36,4.09h4.1Zm8.44,0h-4.45v4.1h4.09C-129.08,258.5-129,257.15-128.84,255.77Zm-16.54,4.11c-.12-1.41-.24-2.77-.36-4.1h-4.43c.25,1.39.49,2.74.73,4.1Zm25-4.1h-4.43l-.36,4.09h4.06C-120.9,258.52-120.66,257.17-120.41,255.78Zm-16.88,8.11H-141c.12,1.39.24,2.74.36,4.1h3.37Zm7.37,4.12c.12-1.39.24-2.76.36-4.12h-3.71V268Zm4,0c1.09,0,2.13,0,3.17,0,.07,0,.19-.16.21-.27.18-.9.33-1.8.5-2.7.06-.38.11-.76.18-1.18h-2.82c-.84,0-.86,0-.94.82C-125.73,265.77-125.82,266.86-125.92,268Zm-22.76-4.16a.87.87,0,0,0,0,.2c.22,1.25.43,2.51.67,3.75,0,.09.21.2.32.21h3c-.09-1.1-.17-2.13-.26-3.17,0-.32,0-.78-.17-.92s-.65-.06-1-.07h-2.59Z"/></clipPath><clipPath id="clip-path-31"><path class="cls-2" d="M-21.73,92.8H-96.31a2.58,2.58,0,0,1-2.53-2.61V84.76a2.58,2.58,0,0,1,2.53-2.61h28.57a6.7,6.7,0,0,1-.67-2.07A6.81,6.81,0,0,1-67,74.77l.92-1.13a7.08,7.08,0,0,0,1.46-5.57L-65,65.64H-76.24a6,6,0,0,1-5.89-6.14,1,1,0,0,0-.39-.79L-84.88,57a2.62,2.62,0,0,1-1-2.89,2.53,2.53,0,0,1,2.43-1.87h19.32V49.35h-6.46a6,6,0,0,1-5.89-6.15.94.94,0,0,0-.39-.79l-2.36-1.66a2.63,2.63,0,0,1-1-2.9A2.55,2.55,0,0,1-77.8,36h13.67V34.52a10.19,10.19,0,0,0-5.7-9.29l-.72-.33V22.41h23.06V24.9l-.72.33a10.19,10.19,0,0,0-5.7,9.29V36h13.67a2.55,2.55,0,0,1,2.43,1.87,2.65,2.65,0,0,1-1,2.89l-2.36,1.66a1,1,0,0,0-.4.79,6,6,0,0,1-5.88,6.15h-6.46v2.93h19.32a2.55,2.55,0,0,1,2.43,1.87,2.64,2.64,0,0,1-1,2.89l-2.36,1.67a.93.93,0,0,0-.39.79,6,6,0,0,1-5.89,6.14H-53l-.39,2.43A7.09,7.09,0,0,0-52,73.64l.91,1.13a6.8,6.8,0,0,1,1.42,5.3,7,7,0,0,1-.68,2.08h28.58a2.58,2.58,0,0,1,2.53,2.61v5.43A2.58,2.58,0,0,1-21.73,92.8Zm-74.58-8.15a.24.24,0,0,0,0,.11v5.43a.14.14,0,0,0,0,.11h74.57a.24.24,0,0,0,0-.11V84.76a.16.16,0,0,0,0-.11H-56.8l3.09-2.26a4.05,4.05,0,0,0,1.6-2.7A4.24,4.24,0,0,0-53,76.35l-.91-1.13a9.58,9.58,0,0,1-2-7.54l.72-4.54H-41.8a3.52,3.52,0,0,0,3.39-3.64A3.46,3.46,0,0,1-37,56.66L-34.6,55a.16.16,0,0,0,0-.16l-21.85-.06V46.85h9a3.52,3.52,0,0,0,3.38-3.65,3.44,3.44,0,0,1,1.46-2.83l2.36-1.67a.14.14,0,0,0,0-.15l-16.2-.06v-4a12.88,12.88,0,0,1,4.22-9.61H-65.85a12.88,12.88,0,0,1,4.22,9.61v4H-77.8c0,.13,0,.19,0,.22l2.36,1.66A3.43,3.43,0,0,1-74,43.2a3.53,3.53,0,0,0,3.39,3.65h9v7.93H-83.45c0,.13,0,.2,0,.22l2.36,1.67a3.43,3.43,0,0,1,1.45,2.83,3.52,3.52,0,0,0,3.39,3.64h13.37l.72,4.54a9.59,9.59,0,0,1-2,7.54l-.92,1.13a4.28,4.28,0,0,0-.88,3.34,4.12,4.12,0,0,0,1.6,2.71l3.07,2.25Z"/></clipPath><clipPath id="clip-path-32"><path class="cls-2" d="M2363.91,1876.68H-2513.44V-2529.57H2363.91Zm-4874.35-3H2360.91V-2526.57H-2510.44Z"/></clipPath><clipPath id="clip-path-33"><path class="cls-1" d="M-91.41,51.58a2.82,2.82,0,0,1,2.82-2.82A5.63,5.63,0,0,0-83,43.13v-7a2.82,2.82,0,0,1,2.82-2.82h8.45V30.46h-8.45a5.64,5.64,0,0,0-5.64,5.63v7A2.82,2.82,0,0,1-88.59,46a5.64,5.64,0,0,0-5.63,5.63V71.29h2.81Z"/></clipPath><clipPath id="clip-path-34"><path class="cls-2" d="M-59,20a2.16,2.16,0,0,1-1.86-1l-3.19-5.33A2.16,2.16,0,0,1-63.75,11l3.2-3.2a2.23,2.23,0,0,1,3.06,0l3.2,3.2A2.17,2.17,0,0,1-54,13.61l-3.2,5.32A2.14,2.14,0,0,1-59,20Zm0-2.18ZM-59,9.32l-3.14,3.2L-59,17.75l3.16-5.28Z"/></clipPath><clipPath id="clip-path-35"><path class="cls-1" d="M-46.35,30.46v2.81h8.45a2.83,2.83,0,0,1,2.82,2.82v7a5.64,5.64,0,0,0,5.63,5.63,2.81,2.81,0,0,1,2.81,2.82V71.29h2.82V51.58A5.63,5.63,0,0,0-29.45,46a2.82,2.82,0,0,1-2.81-2.82v-7a5.64,5.64,0,0,0-5.64-5.63Z"/></clipPath><clipPath id="clip-path-36"><rect class="cls-2" x="-2745.26" y="-2625.47" width="5338.01" height="4566.05"/></clipPath><clipPath id="clip-path-37"><rect class="cls-2" x="-26.64" y="74.11" width="2.81" height="4.22"/></clipPath><clipPath id="clip-path-38"><path class="cls-1" d="M-40.72,20.6h2.82a8.46,8.46,0,0,0-8.45-8.45h-2.81V15h2.81a5.63,5.63,0,0,1,5.63,5.63"/></clipPath><clipPath id="clip-path-39"><path class="cls-1" d="M-71.69,15h2.81V12.15h-2.81a8.46,8.46,0,0,0-8.45,8.45h2.82A5.63,5.63,0,0,1-71.69,15"/></clipPath><clipPath id="clip-path-40"><path class="cls-1" d="M408.15,79.49a4.49,4.49,0,0,1-6.22,0,7.62,7.62,0,0,0-10.07,0,4.48,4.48,0,0,1-6.21,0,7.61,7.61,0,0,0-10.06,0,4.42,4.42,0,0,1-3.11,1.25,4,4,0,0,1-1.81-.38V38.22h22.05v3.16h3.14V38.22h1.58a3.15,3.15,0,0,0,3.15-3.14V31.93a3.15,3.15,0,0,0-3.15-3.15h-.08A29.91,29.91,0,0,0,369.1.52V-1.14a4.73,4.73,0,0,0-4.72-4.72,4.73,4.73,0,0,0-4.73,4.72V.52a29.9,29.9,0,0,0-28.26,28.26h-.08a3.15,3.15,0,0,0-3.15,3.15v3.15a3.15,3.15,0,0,0,3.15,3.14h1.57v3.16H336V38.22h22V80.33a3.94,3.94,0,0,1-1.86.41,4.42,4.42,0,0,1-3.11-1.25,7.61,7.61,0,0,0-10.06,0,4.47,4.47,0,0,1-6.2,0,7.61,7.61,0,0,0-10.06,0,4.47,4.47,0,0,1-6.2,0,7.38,7.38,0,0,0-5-1.9v3.15a4.37,4.37,0,0,1,3.1,1.24,7.61,7.61,0,0,0,10.06,0,4.5,4.5,0,0,1,6.2,0A7.61,7.61,0,0,0,345,82a4.5,4.5,0,0,1,6.2,0,7.61,7.61,0,0,0,10.06,0,4.52,4.52,0,0,1,6.22,0,7.61,7.61,0,0,0,10.06,0,4.51,4.51,0,0,1,6.21,0,7.61,7.61,0,0,0,10.06,0A4.51,4.51,0,0,1,400,82a7.62,7.62,0,0,0,10.07,0,4.43,4.43,0,0,1,3.11-1.24V77.59A7.4,7.4,0,0,0,408.15,79.49ZM364.38-2.71A1.57,1.57,0,0,1,366-1.14V.44H362.8V-1.14A1.57,1.57,0,0,1,364.38-2.71Zm-4.33,6.36a37.2,37.2,0,0,0-8.33,11.9l2.88,1.26A34,34,0,0,1,364.38,4a33.57,33.57,0,0,1,12.55,24.75H351.84a33.7,33.7,0,0,1,1.62-9l-3-1a37.36,37.36,0,0,0-1.78,9.94H334.54A26.75,26.75,0,0,1,360.05,3.65ZM331.31,31.93h53.53V28.78h-4.76A36.7,36.7,0,0,0,368.72,3.65a26.75,26.75,0,0,1,25.49,25.13H388v3.15h9.45v3.15H331.31Zm33,45.66a7.06,7.06,0,0,0-3.13.66v-40h6.3V78.28A7,7,0,0,0,364.35,77.59Z"/></clipPath><clipPath id="clip-path-41"><path class="cls-1" d="M405,88.61a4.42,4.42,0,0,1-3.11-1.24,7.59,7.59,0,0,0-10.07,0,4.51,4.51,0,0,1-6.21,0,7.58,7.58,0,0,0-10.06,0,4.51,4.51,0,0,1-6.21,0,7.58,7.58,0,0,0-10.06,0,4.51,4.51,0,0,1-6.21,0,7.58,7.58,0,0,0-10.06,0,4.5,4.5,0,0,1-6.2,0,7.57,7.57,0,0,0-10.05,0,4.51,4.51,0,0,1-6.21,0,7.37,7.37,0,0,0-5-1.91v3.15a4.39,4.39,0,0,1,3.1,1.24,7.57,7.57,0,0,0,10.05,0,4.51,4.51,0,0,1,6.21,0,7.57,7.57,0,0,0,10.05,0,4.5,4.5,0,0,1,6.2,0,7.59,7.59,0,0,0,10.07,0,4.49,4.49,0,0,1,6.2,0,7.59,7.59,0,0,0,10.07,0,4.51,4.51,0,0,1,6.21,0,7.58,7.58,0,0,0,10.06,0,4.51,4.51,0,0,1,6.21,0,7.59,7.59,0,0,0,10.07,0,4.42,4.42,0,0,1,3.12-1.24V85.46a7.43,7.43,0,0,0-5,1.91A4.42,4.42,0,0,1,405,88.61"/></clipPath><clipPath id="clip-path-42"><path class="cls-1" d="M373.82,69.72a4.73,4.73,0,0,0,9.45,0V66.57h-3.15v3.15a1.58,1.58,0,0,1-3.15,0v-22h-3.15Z"/></clipPath><clipPath id="clip-path-43"><path class="cls-1" d="M395.87,58.69V50.82h-3.16v7.87a1.57,1.57,0,1,1-3.14,0V46.1a4.73,4.73,0,0,0-9.45,0v4.72h3.15V46.1a1.57,1.57,0,1,1,3.14,0V58.69a4.73,4.73,0,0,0,9.46,0"/></clipPath><clipPath id="clip-path-44"><path class="cls-1" d="M351.78,69.72a1.58,1.58,0,0,1-3.15,0V66.57h-3.15v3.15a4.73,4.73,0,0,0,9.45,0v-22h-3.15Z"/></clipPath><clipPath id="clip-path-45"><path class="cls-1" d="M332.89,58.69a4.73,4.73,0,1,0,9.45,0V46.1a1.57,1.57,0,1,1,3.14,0v4.72h3.15V46.1a4.73,4.73,0,0,0-9.45,0V58.69a1.57,1.57,0,1,1-3.14,0V50.82h-3.15Z"/></clipPath><clipPath id="clip-path-46"><path class="cls-1" d="M323.44,69.72a17.72,17.72,0,0,1,5.64.91L334,72.28l-2.65-6.63a8.51,8.51,0,0,0-7.94-5.38,4.73,4.73,0,1,0,0,9.45m0-6.3a5.39,5.39,0,0,1,5,3.39l.16.41a20.54,20.54,0,0,0-5.18-.65,1.58,1.58,0,1,1,0-3.15"/></clipPath><clipPath id="clip-path-47"><path class="cls-1" d="M397.37,65.64l-2.65,6.64,4.95-1.65a17.72,17.72,0,0,1,5.64-.91,4.73,4.73,0,1,0,0-9.45A8.52,8.52,0,0,0,397.37,65.64Zm2.92,1.17a5.39,5.39,0,0,1,5-3.39,1.58,1.58,0,1,1,0,3.15,20.6,20.6,0,0,0-5.18.65Z"/></clipPath></defs><path class="cls-5" d="M483.26,88.35h15.91V78.4H483.26Zm17.9,4H481.27a2,2,0,0,1-2-2V76.41a2,2,0,0,1,2-2h19.89a2,2,0,0,1,2,2V90.33A2,2,0,0,1,501.16,92.32Z"/><g class="cls-6"><rect class="cls-2" x="-785.28" y="-3704.31" width="5804.01" height="4970.61"/></g><path class="cls-5" d="M473.32,88.35h35.8V.82h-35.8Zm37.79,4H471.32a2,2,0,0,1-2-2V-1.17a2,2,0,0,1,2-2h39.79a2,2,0,0,1,2,2v91.5A2,2,0,0,1,511.11,92.32Z"/><g class="cls-7"><rect class="cls-2" x="-785.28" y="-3704.31" width="5804.01" height="4964.66"/></g><path class="cls-5" d="M457.4,88.35h11.93V8.78H457.4Zm13.93,4H455.41a2,2,0,0,1-2-2V6.79a2,2,0,0,1,2-2h15.92a2,2,0,0,1,2,2V90.33A2,2,0,0,1,471.33,92.32Z"/><g class="cls-8"><rect class="cls-2" x="-785.28" y="-3704.31" width="5804.01" height="4964.66"/></g><path class="cls-5" d="M513.09,88.35H525V8.78H513.09Zm13.93,4H511.11a2,2,0,0,1-2-2V6.79a2,2,0,0,1,2-2H527a2,2,0,0,1,2,2V90.33A2,2,0,0,1,527,92.32Z"/><g class="cls-9"><rect class="cls-2" x="-785.28" y="-3704.31" width="5804.01" height="4964.66"/></g><rect class="cls-2" x="439.5" y="48.56" width="3.98" height="19.89" transform="translate(129.68 376.49) rotate(-53.11)"/><g class="cls-10"><rect class="cls-2" x="-785.28" y="-3704.31" width="5804.01" height="4964.66"/></g><rect class="cls-2" x="431.54" y="56.52" width="19.89" height="3.98" transform="translate(53.22 276.65) rotate(-36.88)"/><g class="cls-11"><rect class="cls-2" x="-785.28" y="-3704.31" width="5804.01" height="4964.66"/></g><rect class="cls-2" x="538.96" y="48.56" width="3.97" height="19.89" transform="translate(169.49 456.08) rotate(-53.12)"/><g class="cls-12"><rect class="cls-2" x="-785.28" y="-3704.31" width="5804.01" height="4964.66"/></g><rect class="cls-2" x="530.99" y="56.53" width="19.89" height="3.97" transform="translate(72.97 336.08) rotate(-36.85)"/><g class="cls-13"><rect class="cls-2" x="-785.28" y="-3704.31" width="5804.01" height="4964.66"/></g><path class="cls-5" d="M299.15,38.87a9.46,9.46,0,0,0-6.65-9,38.57,38.57,0,0,0-4.67-11.26,9.49,9.49,0,0,0-1.67-11.11,9.35,9.35,0,0,0-6.68-2.77,9.48,9.48,0,0,0-4.42,1.09,38.4,38.4,0,0,0-11.23-4.67,9.44,9.44,0,0,0-18,0,38.57,38.57,0,0,0-11.24,4.67,9.43,9.43,0,0,0-7.17-.68,1.41,1.41,0,0,0,.82,2.69,6.64,6.64,0,0,1,6.63,11.06,6.71,6.71,0,0,1-9.39,0A6.64,6.64,0,0,1,224,11.63a1.41,1.41,0,0,0-2.6-1.06,9.46,9.46,0,0,0,.39,8,38.57,38.57,0,0,0-4.67,11.26,9.47,9.47,0,0,0,0,18.07,38.71,38.71,0,0,0,4.68,11.26A9.45,9.45,0,0,0,234.55,72a37.79,37.79,0,0,0,4.3,2.3l-4.29,11.61a3.3,3.3,0,0,0,3.06,4.38H272A3.3,3.3,0,0,0,275,85.86l-4.28-11.61a38.65,38.65,0,0,0,4.3-2.3,9.41,9.41,0,0,0,7.32.64,1.41,1.41,0,0,0-.87-2.67,6.65,6.65,0,0,1-6.72-11,6.64,6.64,0,0,1,10.86,7.17,1.4,1.4,0,0,0,2.6,1,9.43,9.43,0,0,0-.42-7.93,38.68,38.68,0,0,0,4.67-11.26A9.48,9.48,0,0,0,299.15,38.87Zm-2.81,0a6.64,6.64,0,1,1-6.64-6.65A6.65,6.65,0,0,1,296.34,38.87Zm-16-1.4H268.51a13.76,13.76,0,0,0-3-7.31l8.39-8.4a9.5,9.5,0,0,0,7.46,1.67A30.43,30.43,0,0,1,284.46,31,9.43,9.43,0,0,0,280.37,37.47ZM268.54,72.15a45.35,45.35,0,0,1-4.3,1.47,8.85,8.85,0,0,0-.38-2.47,32.8,32.8,0,0,0,7.32-3,9.47,9.47,0,0,0,1.48,2A28.62,28.62,0,0,1,268.54,72.15Zm-31.58-2a9.37,9.37,0,0,0,1.46-2,33.72,33.72,0,0,0,7.32,3,9.57,9.57,0,0,0-.38,2.46A35.12,35.12,0,0,1,237,70.12ZM223.6,56.75a36.36,36.36,0,0,1-3.5-8.43,9,9,0,0,0,2.46-.38,33.67,33.67,0,0,0,3.05,7.34A9.26,9.26,0,0,0,223.6,56.75Zm4.68-2.44a30.33,30.33,0,0,1-3.13-7.57,9.53,9.53,0,0,0,4.1-6.46H241.1a13.64,13.64,0,0,0,3,7.27L235.71,56A9.49,9.49,0,0,0,228.28,54.31ZM253.4,64.47A9.46,9.46,0,0,0,247,68.58a30.54,30.54,0,0,1-7.56-3.15,9.49,9.49,0,0,0-1.69-7.49l8.4-8.4a13.65,13.65,0,0,0,7.3,3Zm1.4,2.7a6.66,6.66,0,1,1-6.64,6.65A6.65,6.65,0,0,1,254.8,67.17Zm15.42-1.74a30.54,30.54,0,0,1-7.56,3.15,9.46,9.46,0,0,0-6.45-4.11V52.58a13.69,13.69,0,0,0,7.29-3l8.39,8.4A9.5,9.5,0,0,0,270.22,65.43ZM254.8,49.84a11,11,0,1,1,11-11A11,11,0,0,1,254.8,49.84ZM245.74,6.58a34.22,34.22,0,0,0-7.32,3.05,9.32,9.32,0,0,0-1.47-2,35.36,35.36,0,0,1,8.41-3.5A9.5,9.5,0,0,0,245.74,6.58Zm-6.35,5.74A29.8,29.8,0,0,1,247,9.17a9.49,9.49,0,0,0,6.45,4.11V25.16a13.72,13.72,0,0,0-7.29,3l-8.4-8.4A9.49,9.49,0,0,0,239.39,12.32Zm31.79-2.68a33.34,33.34,0,0,0-7.32-3.06,8.72,8.72,0,0,0,.38-2.46,36,36,0,0,1,8.42,3.5A9.52,9.52,0,0,0,271.18,9.64Zm-8.52-.47a29.8,29.8,0,0,1,7.56,3.15,9.51,9.51,0,0,0,1.66,7.46l-8.4,8.4a13.72,13.72,0,0,0-7.27-3V13.28A9.49,9.49,0,0,0,262.66,9.17ZM286,21a35.51,35.51,0,0,1,3.5,8.43,9.5,9.5,0,0,0-2.46.38,33.35,33.35,0,0,0-3-7.34A9.12,9.12,0,0,0,286,21ZM284.17,9.45a6.64,6.64,0,0,1-9.38,9.41,6.64,6.64,0,1,1,9.38-9.41ZM254.8-2.74a6.68,6.68,0,1,1-6.53,5.47,1.14,1.14,0,0,0,.07-.32A6.66,6.66,0,0,1,254.8-2.74ZM235.73,21.77l8.4,8.41a13.69,13.69,0,0,0-3,7.29H229.25a9.51,9.51,0,0,0-4.1-6.46,30.4,30.4,0,0,1,3.13-7.58A9.51,9.51,0,0,0,235.73,21.77Zm-10.12.69a33.87,33.87,0,0,0-3.05,7.34,9.43,9.43,0,0,0-2.45-.38A35.9,35.9,0,0,1,223.6,21,8.94,8.94,0,0,0,225.61,22.46ZM213.27,38.87a6.73,6.73,0,0,1,6.63-6.65,6.65,6.65,0,1,1-6.63,6.65Zm16.86,31.37a6.66,6.66,0,0,1-4.7-11.36,6.65,6.65,0,1,1,4.7,11.36ZM272.4,86.83a.45.45,0,0,1-.42.61H237.62a.45.45,0,0,1-.42-.61l4.25-11.51a40,40,0,0,0,4.33,1.31,9.44,9.44,0,0,0,18,0,40,40,0,0,0,4.33-1.31ZM273.88,56l-8.4-8.41a13.69,13.69,0,0,0,3-7.28h11.86a9.45,9.45,0,0,0,4.09,6.46,30.36,30.36,0,0,1-3.14,7.57A9.45,9.45,0,0,0,273.88,56ZM284,55.28a33.35,33.35,0,0,0,3-7.34,9.1,9.1,0,0,0,2.46.38,35.51,35.51,0,0,1-3.5,8.43A9.45,9.45,0,0,0,284,55.28Z"/><g class="cls-34"><rect class="cls-2" x="-4309.52" y="-2220.9" width="5391.41" height="4611.73"/></g><g class="cls-35"><rect class="cls-36" x="-2535.94" y="-1164.84" width="2550.35" height="2181.53"/></g><path class="cls-37" d="M-156.27,252.16a1,1,0,0,1,.87-.41c3.76,0,7.52,0,11.27,0a.72.72,0,0,0,.77-.49c1.36-2.82,2.74-5.63,4.1-8.45a.81.81,0,0,0,.08-.5,2,2,0,0,1,1.34-2.51,2,2,0,0,1,2.47,1.33.75.75,0,0,0,.08.14c.06-.14.11-.24.16-.34a2,2,0,0,1,2.48-1.11,2,2,0,0,1,1.28,2.38.94.94,0,0,0,.06.62c1.38,2.87,2.78,5.73,4.17,8.6a.5.5,0,0,0,.53.32c3.8,0,7.6,0,11.39,0,.71,0,1.13.42.78,1.22a1.94,1.94,0,0,1-1.32,1.08c-.26.07-.33.19-.38.44q-1.12,6.39-2.26,12.77c-.15.83-.29,1.67-.44,2.5a2.64,2.64,0,0,1-2.64,2.24H-149a2.64,2.64,0,0,1-2.72-2.29q-1.12-6.39-2.27-12.76c-.15-.84-.28-1.68-.44-2.51a.53.53,0,0,0-.26-.35,2.27,2.27,0,0,1-1.55-1.34Zm21-10.08a2.27,2.27,0,0,1-1.16,1.46,1.11,1.11,0,0,0-.49.49c-1.21,2.43-2.4,4.88-3.59,7.33-.06.12-.1.24-.16.36h10.78c0-.05,0-.08,0-.11-1.26-2.58-2.51-5.16-3.78-7.74a.44.44,0,0,0-.23-.25A2.18,2.18,0,0,1-135.29,242.08Zm-2,13.69h-4.46c.13,1.38.24,2.74.36,4.09h4.1Zm8.44,0h-4.45v4.1h4.09C-129.08,258.5-129,257.15-128.84,255.77Zm-16.54,4.11c-.12-1.41-.24-2.77-.36-4.1h-4.43c.25,1.39.49,2.74.73,4.1Zm25-4.1h-4.43l-.36,4.09h4.06C-120.9,258.52-120.66,257.17-120.41,255.78Zm-16.88,8.11H-141c.12,1.39.24,2.74.36,4.1h3.37Zm7.37,4.12c.12-1.39.24-2.76.36-4.12h-3.71V268Zm4,0c1.09,0,2.13,0,3.17,0,.07,0,.19-.16.21-.27.18-.9.33-1.8.5-2.7.06-.38.11-.76.18-1.18h-2.82c-.84,0-.86,0-.94.82C-125.73,265.77-125.82,266.86-125.92,268Zm-22.76-4.16a.87.87,0,0,0,0,.2c.22,1.25.43,2.51.67,3.75,0,.09.21.2.32.21h3c-.09-1.1-.17-2.13-.26-3.17,0-.32,0-.78-.17-.92s-.65-.06-1-.07h-2.59Z"/><path class="cls-2" d="M-21.73,92.8H-96.31a2.58,2.58,0,0,1-2.53-2.61V84.76a2.58,2.58,0,0,1,2.53-2.61h28.57a6.7,6.7,0,0,1-.67-2.07A6.81,6.81,0,0,1-67,74.77l.92-1.13a7.08,7.08,0,0,0,1.46-5.57L-65,65.64H-76.24a6,6,0,0,1-5.89-6.14,1,1,0,0,0-.39-.79L-84.88,57a2.62,2.62,0,0,1-1-2.89,2.53,2.53,0,0,1,2.43-1.87h19.32V49.35h-6.46a6,6,0,0,1-5.89-6.15.94.94,0,0,0-.39-.79l-2.36-1.66a2.63,2.63,0,0,1-1-2.9A2.55,2.55,0,0,1-77.8,36h13.67V34.52a10.19,10.19,0,0,0-5.7-9.29l-.72-.33V22.41h23.06V24.9l-.72.33a10.19,10.19,0,0,0-5.7,9.29V36h13.67a2.55,2.55,0,0,1,2.43,1.87,2.65,2.65,0,0,1-1,2.89l-2.36,1.66a1,1,0,0,0-.4.79,6,6,0,0,1-5.88,6.15h-6.46v2.93h19.32a2.55,2.55,0,0,1,2.43,1.87,2.64,2.64,0,0,1-1,2.89l-2.36,1.67a.93.93,0,0,0-.39.79,6,6,0,0,1-5.89,6.14H-53l-.39,2.43A7.09,7.09,0,0,0-52,73.64l.91,1.13a6.8,6.8,0,0,1,1.42,5.3,7,7,0,0,1-.68,2.08h28.58a2.58,2.58,0,0,1,2.53,2.61v5.43A2.58,2.58,0,0,1-21.73,92.8Zm-74.58-8.15a.24.24,0,0,0,0,.11v5.43a.14.14,0,0,0,0,.11h74.57a.24.24,0,0,0,0-.11V84.76a.16.16,0,0,0,0-.11H-56.8l3.09-2.26a4.05,4.05,0,0,0,1.6-2.7A4.24,4.24,0,0,0-53,76.35l-.91-1.13a9.58,9.58,0,0,1-2-7.54l.72-4.54H-41.8a3.52,3.52,0,0,0,3.39-3.64A3.46,3.46,0,0,1-37,56.66L-34.6,55a.16.16,0,0,0,0-.16l-21.85-.06V46.85h9a3.52,3.52,0,0,0,3.38-3.65,3.44,3.44,0,0,1,1.46-2.83l2.36-1.67a.14.14,0,0,0,0-.15l-16.2-.06v-4a12.88,12.88,0,0,1,4.22-9.61H-65.85a12.88,12.88,0,0,1,4.22,9.61v4H-77.8c0,.13,0,.19,0,.22l2.36,1.66A3.43,3.43,0,0,1-74,43.2a3.53,3.53,0,0,0,3.39,3.65h9v7.93H-83.45c0,.13,0,.2,0,.22l2.36,1.67a3.43,3.43,0,0,1,1.45,2.83,3.52,3.52,0,0,0,3.39,3.64h13.37l.72,4.54a9.59,9.59,0,0,1-2,7.54l-.92,1.13a4.28,4.28,0,0,0-.88,3.34,4.12,4.12,0,0,0,1.6,2.71l3.07,2.25Z"/><g class="cls-38"><path class="cls-2" d="M2363.91,1876.68H-2513.44V-2529.57H2363.91Zm-4874.35-3H2360.91V-2526.57H-2510.44Z"/><g class="cls-39"><path class="cls-2" d="M6,119.45H-124.09V-4.24H6Zm-127.13-3H3V-1.24H-121.09Z"/></g></g><path class="cls-5" d="M-91.41,51.58a2.82,2.82,0,0,1,2.82-2.82A5.63,5.63,0,0,0-83,43.13v-7a2.82,2.82,0,0,1,2.82-2.82h8.45V30.46h-8.45a5.64,5.64,0,0,0-5.64,5.63v7A2.82,2.82,0,0,1-88.59,46a5.64,5.64,0,0,0-5.63,5.63V71.29h2.81Z"/><g class="cls-40"><rect class="cls-2" x="-2745.26" y="-2625.47" width="5338.01" height="4566.05"/></g><path class="cls-2" d="M-59,20a2.16,2.16,0,0,1-1.86-1l-3.19-5.33A2.16,2.16,0,0,1-63.75,11l3.2-3.2a2.23,2.23,0,0,1,3.06,0l3.2,3.2A2.17,2.17,0,0,1-54,13.61l-3.2,5.32A2.14,2.14,0,0,1-59,20Zm0-2.18ZM-59,9.32l-3.14,3.2L-59,17.75l3.16-5.28Z"/><g class="cls-41"><path class="cls-2" d="M1948.1,1472.42H-2092.22V-1983.93H1948.1Zm-4038.12-2.2H1945.9V-1981.73H-2090Z"/></g><path class="cls-5" d="M-46.35,30.46v2.81h8.45a2.83,2.83,0,0,1,2.82,2.82v7a5.64,5.64,0,0,0,5.63,5.63,2.81,2.81,0,0,1,2.81,2.82V71.29h2.82V51.58A5.63,5.63,0,0,0-29.45,46a2.82,2.82,0,0,1-2.81-2.82v-7a5.64,5.64,0,0,0-5.64-5.63Z"/><g class="cls-42"><rect class="cls-2" x="-2745.26" y="-2625.47" width="5338.01" height="4566.05"/><g class="cls-43"><rect class="cls-2" x="-73.73" y="3.08" width="77.28" height="95.58"/></g></g><rect class="cls-2" x="-26.64" y="74.11" width="2.81" height="4.22"/><g class="cls-44"><rect class="cls-2" x="-54.01" y="46.73" width="57.56" height="58.97"/></g><path class="cls-5" d="M-40.72,20.6h2.82a8.46,8.46,0,0,0-8.45-8.45h-2.81V15h2.81a5.63,5.63,0,0,1,5.63,5.63"/><g class="cls-45"><rect class="cls-2" x="-2745.26" y="-2625.47" width="5338.01" height="4566.05"/></g><path class="cls-5" d="M-71.69,15h2.81V12.15h-2.81a8.46,8.46,0,0,0-8.45,8.45h2.82A5.63,5.63,0,0,1-71.69,15"/><g class="cls-46"><rect class="cls-2" x="-2745.26" y="-2625.47" width="5338.01" height="4566.05"/></g><path class="cls-5" d="M408.15,79.49a4.49,4.49,0,0,1-6.22,0,7.62,7.62,0,0,0-10.07,0,4.48,4.48,0,0,1-6.21,0,7.61,7.61,0,0,0-10.06,0,4.42,4.42,0,0,1-3.11,1.25,4,4,0,0,1-1.81-.38V38.22h22.05v3.16h3.14V38.22h1.58a3.15,3.15,0,0,0,3.15-3.14V31.93a3.15,3.15,0,0,0-3.15-3.15h-.08A29.91,29.91,0,0,0,369.1.52V-1.14a4.73,4.73,0,0,0-4.72-4.72,4.73,4.73,0,0,0-4.73,4.72V.52a29.9,29.9,0,0,0-28.26,28.26h-.08a3.15,3.15,0,0,0-3.15,3.15v3.15a3.15,3.15,0,0,0,3.15,3.14h1.57v3.16H336V38.22h22V80.33a3.94,3.94,0,0,1-1.86.41,4.42,4.42,0,0,1-3.11-1.25,7.61,7.61,0,0,0-10.06,0,4.47,4.47,0,0,1-6.2,0,7.61,7.61,0,0,0-10.06,0,4.47,4.47,0,0,1-6.2,0,7.38,7.38,0,0,0-5-1.9v3.15a4.37,4.37,0,0,1,3.1,1.24,7.61,7.61,0,0,0,10.06,0,4.5,4.5,0,0,1,6.2,0A7.61,7.61,0,0,0,345,82a4.5,4.5,0,0,1,6.2,0,7.61,7.61,0,0,0,10.06,0,4.52,4.52,0,0,1,6.22,0,7.61,7.61,0,0,0,10.06,0,4.51,4.51,0,0,1,6.21,0,7.61,7.61,0,0,0,10.06,0A4.51,4.51,0,0,1,400,82a7.62,7.62,0,0,0,10.07,0,4.43,4.43,0,0,1,3.11-1.24V77.59A7.4,7.4,0,0,0,408.15,79.49ZM364.38-2.71A1.57,1.57,0,0,1,366-1.14V.44H362.8V-1.14A1.57,1.57,0,0,1,364.38-2.71Zm-4.33,6.36a37.2,37.2,0,0,0-8.33,11.9l2.88,1.26A34,34,0,0,1,364.38,4a33.57,33.57,0,0,1,12.55,24.75H351.84a33.7,33.7,0,0,1,1.62-9l-3-1a37.36,37.36,0,0,0-1.78,9.94H334.54A26.75,26.75,0,0,1,360.05,3.65ZM331.31,31.93h53.53V28.78h-4.76A36.7,36.7,0,0,0,368.72,3.65a26.75,26.75,0,0,1,25.49,25.13H388v3.15h9.45v3.15H331.31Zm33,45.66a7.06,7.06,0,0,0-3.13.66v-40h6.3V78.28A7,7,0,0,0,364.35,77.59Z"/><g class="cls-47"><rect class="cls-2" x="-2432.45" y="-2407.84" width="5224.37" height="4468.85"/></g><path class="cls-5" d="M405,88.61a4.42,4.42,0,0,1-3.11-1.24,7.59,7.59,0,0,0-10.07,0,4.51,4.51,0,0,1-6.21,0,7.58,7.58,0,0,0-10.06,0,4.51,4.51,0,0,1-6.21,0,7.58,7.58,0,0,0-10.06,0,4.51,4.51,0,0,1-6.21,0,7.58,7.58,0,0,0-10.06,0,4.5,4.5,0,0,1-6.2,0,7.57,7.57,0,0,0-10.05,0,4.51,4.51,0,0,1-6.21,0,7.37,7.37,0,0,0-5-1.91v3.15a4.39,4.39,0,0,1,3.1,1.24,7.57,7.57,0,0,0,10.05,0,4.51,4.51,0,0,1,6.21,0,7.57,7.57,0,0,0,10.05,0,4.5,4.5,0,0,1,6.2,0,7.59,7.59,0,0,0,10.07,0,4.49,4.49,0,0,1,6.2,0,7.59,7.59,0,0,0,10.07,0,4.51,4.51,0,0,1,6.21,0,7.58,7.58,0,0,0,10.06,0,4.51,4.51,0,0,1,6.21,0,7.59,7.59,0,0,0,10.07,0,4.42,4.42,0,0,1,3.12-1.24V85.46a7.43,7.43,0,0,0-5,1.91A4.42,4.42,0,0,1,405,88.61"/><g class="cls-48"><rect class="cls-2" x="-2432.45" y="-2407.84" width="5224.37" height="4468.85"/></g><path class="cls-5" d="M373.82,69.72a4.73,4.73,0,0,0,9.45,0V66.57h-3.15v3.15a1.58,1.58,0,0,1-3.15,0v-22h-3.15Z"/><g class="cls-49"><rect class="cls-2" x="-2432.45" y="-2407.84" width="5224.37" height="4468.85"/></g><path class="cls-5" d="M395.87,58.69V50.82h-3.16v7.87a1.57,1.57,0,1,1-3.14,0V46.1a4.73,4.73,0,0,0-9.45,0v4.72h3.15V46.1a1.57,1.57,0,1,1,3.14,0V58.69a4.73,4.73,0,0,0,9.46,0"/><g class="cls-50"><rect class="cls-2" x="-2432.45" y="-2407.84" width="5224.37" height="4468.85"/></g><path class="cls-5" d="M351.78,69.72a1.58,1.58,0,0,1-3.15,0V66.57h-3.15v3.15a4.73,4.73,0,0,0,9.45,0v-22h-3.15Z"/><g class="cls-51"><rect class="cls-2" x="-2432.45" y="-2407.84" width="5224.37" height="4468.85"/></g><path class="cls-5" d="M332.89,58.69a4.73,4.73,0,1,0,9.45,0V46.1a1.57,1.57,0,1,1,3.14,0v4.72h3.15V46.1a4.73,4.73,0,0,0-9.45,0V58.69a1.57,1.57,0,1,1-3.14,0V50.82h-3.15Z"/><g class="cls-52"><rect class="cls-2" x="-2432.45" y="-2407.84" width="5224.37" height="4468.85"/></g><path class="cls-5" d="M323.44,69.72a17.72,17.72,0,0,1,5.64.91L334,72.28l-2.65-6.63a8.51,8.51,0,0,0-7.94-5.38,4.73,4.73,0,1,0,0,9.45m0-6.3a5.39,5.39,0,0,1,5,3.39l.16.41a20.54,20.54,0,0,0-5.18-.65,1.58,1.58,0,1,1,0-3.15"/><g class="cls-53"><rect class="cls-2" x="-2432.45" y="-2407.84" width="5224.37" height="4468.85"/></g><path class="cls-5" d="M397.37,65.64l-2.65,6.64,4.95-1.65a17.72,17.72,0,0,1,5.64-.91,4.73,4.73,0,1,0,0-9.45A8.52,8.52,0,0,0,397.37,65.64Zm2.92,1.17a5.39,5.39,0,0,1,5-3.39,1.58,1.58,0,1,1,0,3.15,20.6,20.6,0,0,0-5.18.65Z"/><g class="cls-54"><rect class="cls-2" x="-2432.45" y="-2407.84" width="5224.37" height="4468.85"/></g><path class="cls-2" d="M51.06,44.78H49.33V41a1.41,1.41,0,0,0-2.81,0v5.2a1.41,1.41,0,0,0,1.41,1.4h3.13a1.41,1.41,0,0,0,0-2.81Zm0,0"/><path class="cls-2" d="M47.93,33A11.8,11.8,0,1,0,59.67,44.81,11.78,11.78,0,0,0,47.93,33Zm0,20.78a9,9,0,1,1,8.93-9,9,9,0,0,1-8.93,9Zm0,0"/><path class="cls-2" d="M10.9,59.4h13A2.08,2.08,0,0,0,26,57.32V50.86a2.07,2.07,0,0,0-2.07-2.07h-13a2.07,2.07,0,0,0-2.07,2.07v6.46A2.08,2.08,0,0,0,10.9,59.4Zm7.89-7.8h4.35v5H18.79Zm-7.16,0H16v5H11.63Zm0,0"/><path class="cls-2" d="M8.83,71.36a2.08,2.08,0,0,0,2.07,2.08h13A2.08,2.08,0,0,0,26,71.36V64.91a2.08,2.08,0,0,0-2.07-2.08h-13a2.08,2.08,0,0,0-2.07,2.08Zm10-5.72h4.35v5H18.79Zm-7.16,0H16v5H11.63Zm0,0"/><path class="cls-2" d="M72,59.4H85A2.08,2.08,0,0,0,87,57.32V50.86A2.08,2.08,0,0,0,85,48.79H72a2.08,2.08,0,0,0-2.08,2.07v6.46A2.08,2.08,0,0,0,72,59.4Zm7.89-7.8h4.35v5H79.87Zm-7.16,0h4.35v5H72.71Zm0,0"/><path class="cls-2" d="M72,73.44H85A2.08,2.08,0,0,0,87,71.36V64.91A2.08,2.08,0,0,0,85,62.83H72a2.08,2.08,0,0,0-2.08,2.08v6.45A2.08,2.08,0,0,0,72,73.44Zm7.89-7.8h4.35v5H79.87Zm-7.16,0h4.35v5H72.71Zm0,0"/><path class="cls-2" d="M94,33.69H66.89v-4.2h1.72a2.05,2.05,0,0,0,2-2V21.6a2.05,2.05,0,0,0-2-2.05H49.33V15.41H60.46A2.54,2.54,0,0,0,63,12.87V4.78a2.54,2.54,0,0,0-2.54-2.54H49.33V1.4a1.41,1.41,0,0,0-2.81,0V19.55H27.24a2.05,2.05,0,0,0-2,2.05v5.84a2.05,2.05,0,0,0,2,2H29V33.7H1.88A1.87,1.87,0,0,0,0,35.58v4.93A1.89,1.89,0,0,0,1.88,42.4h.91V65c0,.78.63-2.48,1.41-2.48a1.41,1.41,0,0,0,1.4-1.41V42.4H29V89.68H5.6V57.11a1.4,1.4,0,0,0-1.4-1.4c-.78,0-1.41,4.52-1.41,5.29V90.23a2.26,2.26,0,0,0,2.26,2.26H90.81a2.26,2.26,0,0,0,2.25-2.26V42.4H94a1.89,1.89,0,0,0,1.89-1.89V35.58A1.89,1.89,0,0,0,94,33.69ZM49.33,5.05H60.19v7.56H49.33ZM29,39.59H2.81V36.5H29ZM93.05,36.5v3.09H66.89V36.5ZM57.63,89.68H38.22V86.26H57.63ZM40.86,83.46V67.12h5.66V83.46Zm8.47,0V67.12H55V83.46Zm8.46,0V66.71a2.4,2.4,0,0,0-2.39-2.4H40.46a2.4,2.4,0,0,0-2.4,2.4V83.46a2.67,2.67,0,0,0-2.65,2.62v3.6H31.77V29.49H44.51a1.4,1.4,0,0,0,0-2.8H28V22.35H67.85v4.34H50.76a1.4,1.4,0,0,0,0,2.8H64.08V89.68H60.44v-3.6a2.67,2.67,0,0,0-2.65-2.62Zm32.46,6.22H66.89V42.4H90.25Zm0,0"/></svg>