<svg id="Layer_1" data-name="Layer 1" xmlns="http://www.w3.org/2000/svg" xmlns:xlink="http://www.w3.org/1999/xlink" viewBox="0 0 97.62 97.62"><defs><style>.cls-1,.cls-2,.cls-4{fill:#fff;}.cls-1,.cls-3{clip-rule:evenodd;}.cls-3{fill:none;}.cls-4{fill-rule:evenodd;}.cls-5{clip-path:url(#clip-path);}.cls-6{clip-path:url(#clip-path-2);}.cls-7{clip-path:url(#clip-path-3);}.cls-8{clip-path:url(#clip-path-4);}.cls-9{clip-path:url(#clip-path-5);}.cls-10{clip-path:url(#clip-path-6);}.cls-11{clip-path:url(#clip-path-7);}.cls-12{clip-path:url(#clip-path-8);}.cls-13{clip-path:url(#clip-path-9);}.cls-14{clip-path:url(#clip-path-11);}.cls-15{clip-path:url(#clip-path-12);}.cls-16{clip-path:url(#clip-path-13);}.cls-17{clip-path:url(#clip-path-14);}.cls-18{clip-path:url(#clip-path-15);}.cls-19{clip-path:url(#clip-path-16);}.cls-20{clip-path:url(#clip-path-17);}.cls-21{clip-path:url(#clip-path-18);}.cls-22{clip-path:url(#clip-path-19);}.cls-23{clip-path:url(#clip-path-20);}.cls-24{clip-path:url(#clip-path-21);}.cls-25{clip-path:url(#clip-path-22);}.cls-26{clip-path:url(#clip-path-23);}.cls-27{clip-path:url(#clip-path-24);}.cls-28{clip-path:url(#clip-path-25);}.cls-29{clip-path:url(#clip-path-26);}.cls-30{clip-path:url(#clip-path-27);}.cls-31{clip-path:url(#clip-path-28);}.cls-32{clip-path:url(#clip-path-29);}.cls-33{clip-path:url(#clip-path-30);}.cls-34{clip-path:url(#clip-path-31);}.cls-35{clip-path:url(#clip-path-32);}.cls-36{clip-path:url(#clip-path-33);}.cls-37{clip-path:url(#clip-path-34);}.cls-38{clip-path:url(#clip-path-35);}.cls-39{clip-path:url(#clip-path-36);}.cls-40{clip-path:url(#clip-path-37);}.cls-41{clip-path:url(#clip-path-38);}.cls-42{clip-path:url(#clip-path-39);}.cls-43{clip-path:url(#clip-path-40);}.cls-44{clip-path:url(#clip-path-41);}.cls-45{clip-path:url(#clip-path-42);}.cls-46{clip-path:url(#clip-path-43);}.cls-47{clip-path:url(#clip-path-45);}.cls-48{clip-path:url(#clip-path-46);}.cls-49{clip-path:url(#clip-path-48);}.cls-50{clip-path:url(#clip-path-49);}.cls-51{clip-path:url(#clip-path-50);}.cls-52{clip-path:url(#clip-path-52);}.cls-53{clip-path:url(#clip-path-53);}.cls-54{clip-path:url(#clip-path-54);}.cls-55{clip-path:url(#clip-path-56);}.cls-56{clip-path:url(#clip-path-57);}.cls-57{clip-path:url(#clip-path-58);}.cls-58{clip-path:url(#clip-path-60);}.cls-59{clip-path:url(#clip-path-61);}.cls-60{clip-path:url(#clip-path-63);}.cls-61{clip-path:url(#clip-path-64);}.cls-62{clip-path:url(#clip-path-66);}</style><clipPath id="clip-path"><path class="cls-1" d="M167.7,94.21h15.91V84.26H167.7Zm17.9,4H165.71a2,2,0,0,1-2-2V82.27a2,2,0,0,1,2-2H185.6a2,2,0,0,1,2,2V96.2A2,2,0,0,1,185.6,98.18Z"/></clipPath><clipPath id="clip-path-2"><path class="cls-1" d="M157.75,94.21h35.8V6.69h-35.8Zm37.8,4H155.76a2,2,0,0,1-2-2V4.7a2,2,0,0,1,2-2h39.79a2,2,0,0,1,2,2V96.2A2,2,0,0,1,195.55,98.18Z"/></clipPath><clipPath id="clip-path-3"><path class="cls-1" d="M141.84,94.21h11.93V14.65H141.84Zm13.92,4H139.85a2,2,0,0,1-2-2V12.65a2,2,0,0,1,2-2h15.91a2,2,0,0,1,2,2V96.2A2,2,0,0,1,155.76,98.18Z"/></clipPath><clipPath id="clip-path-4"><path class="cls-1" d="M197.53,94.21h11.93V14.65H197.53Zm13.93,4H195.54a2,2,0,0,1-2-2V12.65a2,2,0,0,1,2-2h15.92a2,2,0,0,1,2,2V96.2A2,2,0,0,1,211.46,98.18Z"/></clipPath><clipPath id="clip-path-5"><rect class="cls-2" x="115.98" y="94.21" width="23.87" height="3.97"/></clipPath><clipPath id="clip-path-6"><rect class="cls-2" x="123.94" y="54.43" width="3.97" height="41.77"/></clipPath><clipPath id="clip-path-7"><rect class="cls-2" x="123.94" y="54.43" width="3.98" height="19.89" transform="translate(-1.15 126.45) rotate(-53.11)"/></clipPath><clipPath id="clip-path-8"><rect class="cls-2" x="-1100.84" y="-3698.44" width="5804.01" height="4964.66"/></clipPath><clipPath id="clip-path-9"><rect class="cls-2" x="115.98" y="62.38" width="19.89" height="3.98" transform="translate(-13.44 88.45) rotate(-36.88)"/></clipPath><clipPath id="clip-path-11"><rect class="cls-2" x="223.39" y="54.43" width="3.97" height="19.89" transform="translate(38.63 206.01) rotate(-53.12)"/></clipPath><clipPath id="clip-path-12"><rect class="cls-2" x="215.43" y="62.39" width="19.89" height="3.97" transform="translate(6.41 148.02) rotate(-36.85)"/></clipPath><clipPath id="clip-path-13"><path class="cls-3" d="M-398.9,255.51v-.42h.41a.9.9,0,0,0,.91-.9.91.91,0,0,0-.91-.91h-.41v-.41a.91.91,0,0,0-.91-.91.9.9,0,0,0-.9.91v.41h-.42a.91.91,0,0,0-.91.91.9.9,0,0,0,.91.9h.42v.42a.9.9,0,0,0,.9.9.9.9,0,0,0,.91-.9"/></clipPath><clipPath id="clip-path-14"><path class="cls-3" d="M-416,275.12a.9.9,0,0,0,.91-.9v-1.3A.91.91,0,0,0-416,272a.91.91,0,0,0-.9.91v1.3a.9.9,0,0,0,.9.9"/></clipPath><clipPath id="clip-path-15"><path class="cls-3" d="M-412.43,275.12a.9.9,0,0,0,.91-.9v-1.3a.91.91,0,0,0-.91-.91.9.9,0,0,0-.9.91v1.3a.9.9,0,0,0,.9.9"/></clipPath><clipPath id="clip-path-16"><path class="cls-3" d="M-416,279.6a.91.91,0,0,0,.91-.91v-1.3a.9.9,0,0,0-.91-.9.9.9,0,0,0-.9.9v1.3a.91.91,0,0,0,.9.91"/></clipPath><clipPath id="clip-path-17"><path class="cls-3" d="M-412.43,279.6a.91.91,0,0,0,.91-.91v-1.3a.9.9,0,0,0-.91-.9.9.9,0,0,0-.9.9v1.3a.9.9,0,0,0,.9.91"/></clipPath><clipPath id="clip-path-18"><path class="cls-3" d="M-416,284.07a.9.9,0,0,0,.91-.9v-1.31a.9.9,0,0,0-.91-.9.91.91,0,0,0-.9.9v1.31a.9.9,0,0,0,.9.9"/></clipPath><clipPath id="clip-path-19"><path class="cls-3" d="M-412.43,284.07a.9.9,0,0,0,.91-.9v-1.31a.91.91,0,0,0-.91-.9.9.9,0,0,0-.9.9v1.31a.9.9,0,0,0,.9.9"/></clipPath><clipPath id="clip-path-20"><path class="cls-3" d="M-387.19,275.12a.9.9,0,0,0,.9-.9v-1.3a.9.9,0,0,0-.9-.91.91.91,0,0,0-.91.91v1.3a.9.9,0,0,0,.91.9"/></clipPath><clipPath id="clip-path-21"><path class="cls-3" d="M-383.59,275.12a.9.9,0,0,0,.9-.9v-1.3a.9.9,0,0,0-.9-.91.91.91,0,0,0-.91.91v1.3a.9.9,0,0,0,.91.9"/></clipPath><clipPath id="clip-path-22"><path class="cls-3" d="M-387.19,279.6a.9.9,0,0,0,.9-.91v-1.3a.9.9,0,0,0-.9-.9.9.9,0,0,0-.91.9v1.3a.91.91,0,0,0,.91.91"/></clipPath><clipPath id="clip-path-23"><path class="cls-3" d="M-383.59,279.6a.9.9,0,0,0,.9-.91v-1.3a.9.9,0,0,0-.9-.9.9.9,0,0,0-.91.9v1.3a.91.91,0,0,0,.91.91"/></clipPath><clipPath id="clip-path-24"><path class="cls-3" d="M-387.19,284.07a.9.9,0,0,0,.9-.9v-1.31a.9.9,0,0,0-.9-.9.91.91,0,0,0-.91.9v1.31a.9.9,0,0,0,.91.9"/></clipPath><clipPath id="clip-path-25"><path class="cls-3" d="M-383.59,284.07a.9.9,0,0,0,.9-.9v-1.31a.9.9,0,0,0-.9-.9.91.91,0,0,0-.91.9v1.31a.9.9,0,0,0,.91.9"/></clipPath><clipPath id="clip-path-26"><path class="cls-3" d="M-402.51,268.44v1.3a.9.9,0,0,0,.9.91.91.91,0,0,0,.91-.91v-1.3a.9.9,0,0,0-.91-.9.9.9,0,0,0-.9.9"/></clipPath><clipPath id="clip-path-27"><path class="cls-3" d="M-398.92,268.44v1.3a.91.91,0,0,0,.91.91.91.91,0,0,0,.91-.91v-1.3a.9.9,0,0,0-.91-.9.9.9,0,0,0-.91.9"/></clipPath><clipPath id="clip-path-28"><path class="cls-3" d="M-401.61,272a.9.9,0,0,0-.9.91v1.3a.9.9,0,0,0,.9.9.9.9,0,0,0,.91-.9v-1.3a.91.91,0,0,0-.91-.91"/></clipPath><clipPath id="clip-path-29"><path class="cls-3" d="M-398,272a.9.9,0,0,0-.9.91v1.3a.9.9,0,0,0,.9.9.9.9,0,0,0,.91-.9v-1.3A.91.91,0,0,0-398,272"/></clipPath><clipPath id="clip-path-30"><path class="cls-3" d="M-401.61,276.49a.9.9,0,0,0-.9.9v1.3a.9.9,0,0,0,.9.91.91.91,0,0,0,.91-.91v-1.3a.9.9,0,0,0-.91-.9"/></clipPath><clipPath id="clip-path-31"><path class="cls-3" d="M-398,276.49a.9.9,0,0,0-.9.9v1.3a.9.9,0,0,0,.9.91.91.91,0,0,0,.91-.91v-1.3a.9.9,0,0,0-.91-.9"/></clipPath><clipPath id="clip-path-32"><path class="cls-3" d="M-376.21,287.9h-1.9V268.67a.9.9,0,0,0-.91-.9h-11.77v-6.48a.91.91,0,0,0-.91-.91h-7.2v-1.32h3.06a.9.9,0,0,0,.9-.91v-7.93a.9.9,0,0,0-.9-.91h-7.94a.91.91,0,0,0-.9.91v7.93a.9.9,0,0,0,.9.91h3.06v1.32h-7.2a.9.9,0,0,0-.9.91v6.48H-420.6a.9.9,0,0,0-.91.9V287.9h-1.9a.91.91,0,0,0-.91.91.91.91,0,0,0,.91.91h47.2a.91.91,0,0,0,.91-.91A.91.91,0,0,0-376.21,287.9Zm-16.4-25.71V287.9h-1.51v-4a.9.9,0,0,0-.91-.9h-9.56a.9.9,0,0,0-.9.9v4H-407V262.19Zm-11.07,25.71h7.75v-3.07h-7.75Zm12.89,0h10.87V269.58h-10.87Zm-28.9,0h10.87V269.58h-10.87Zm16.82-30.65h6.12v-6.12h-6.12Z"/></clipPath><clipPath id="clip-path-33"><path class="cls-1" d="M-16.41,44.73a9.48,9.48,0,0,0-6.65-9,38.57,38.57,0,0,0-4.67-11.26A9.51,9.51,0,0,0-29.4,13.33a9.35,9.35,0,0,0-6.68-2.76,9.33,9.33,0,0,0-4.42,1.09A38.21,38.21,0,0,0-51.74,7a9.45,9.45,0,0,0-9-6.65,9.46,9.46,0,0,0-9,6.65A38.21,38.21,0,0,0-81,11.66,9.45,9.45,0,0,0-88.2,11a1.41,1.41,0,0,0,.83,2.69,6.6,6.6,0,0,1,6.63,1.66,6.67,6.67,0,0,1,0,9.41,6.72,6.72,0,0,1-9.39,0,6.66,6.66,0,0,1-1.45-7.24,1.41,1.41,0,0,0-2.6-1.06,9.46,9.46,0,0,0,.39,8A38.57,38.57,0,0,0-98.46,35.7a9.47,9.47,0,0,0-6.64,9,9.48,9.48,0,0,0,6.64,9A38.57,38.57,0,0,0-93.79,65a9.5,9.5,0,0,0,1.67,11.11A9.53,9.53,0,0,0-81,77.81a36.4,36.4,0,0,0,4.31,2.3L-81,91.72a3.31,3.31,0,0,0,3.06,4.39h34.36a3.3,3.3,0,0,0,3-4.39l-4.28-11.61a36.4,36.4,0,0,0,4.31-2.3,9.29,9.29,0,0,0,4.4,1.1,9.46,9.46,0,0,0,2.91-.46A1.4,1.4,0,0,0-34,75.78a6.6,6.6,0,0,1-6.73-1.62,6.67,6.67,0,0,1,0-9.41,6.7,6.7,0,0,1,9.39,0,6.66,6.66,0,0,1,1.48,7.17,1.4,1.4,0,0,0,2.6,1A9.43,9.43,0,0,0-27.73,65a38.57,38.57,0,0,0,4.67-11.26A9.47,9.47,0,0,0-16.41,44.73Zm-2.81,0a6.66,6.66,0,0,1-6.64,6.66,6.66,6.66,0,0,1-6.64-6.66,6.66,6.66,0,0,1,6.64-6.65A6.66,6.66,0,0,1-19.22,44.73Zm-16-1.4H-47.06a13.64,13.64,0,0,0-3-7.3l8.39-8.4a9.54,9.54,0,0,0,7.46,1.67,31.13,31.13,0,0,1,3.14,7.57A9.44,9.44,0,0,0-35.2,43.33ZM-47,78c-1.43.54-2.82,1.08-4.3,1.48A9.58,9.58,0,0,0-51.7,77a33,33,0,0,0,7.32-3,9.83,9.83,0,0,0,1.47,2A28,28,0,0,1-47,78Zm-31.59-2a9.47,9.47,0,0,0,1.47-2,33,33,0,0,0,7.32,3,9.58,9.58,0,0,0-.38,2.47A35.61,35.61,0,0,1-78.61,76ZM-92,62.61a36.1,36.1,0,0,1-3.5-8.42A9.44,9.44,0,0,0-93,53.81a33.56,33.56,0,0,0,3,7.33A9.45,9.45,0,0,0-92,62.61Zm4.68-2.44a30.58,30.58,0,0,1-3.14-7.57,9.44,9.44,0,0,0,4.1-6.46h11.86a13.71,13.71,0,0,0,3,7.27l-8.4,8.41A9.58,9.58,0,0,0-87.28,60.17Zm25.12,10.17a9.37,9.37,0,0,0-6.45,4.1,30.77,30.77,0,0,1-7.57-3.15,9.46,9.46,0,0,0-1.68-7.49l8.4-8.39a13.69,13.69,0,0,0,7.3,3Zm1.4,2.7a6.65,6.65,0,0,1,6.64,6.65,6.65,6.65,0,0,1-6.64,6.65,6.65,6.65,0,0,1-6.64-6.65A6.65,6.65,0,0,1-60.76,73Zm15.42-1.75a30.86,30.86,0,0,1-7.56,3.15,9.41,9.41,0,0,0-6.46-4.1V58.44a13.75,13.75,0,0,0,7.29-3l8.4,8.39A9.47,9.47,0,0,0-45.34,71.29ZM-60.76,55.71a11,11,0,0,1-11-11,11,11,0,0,1,11-11,11,11,0,0,1,11,11A11,11,0,0,1-60.76,55.71Zm-9.06-43.26a33,33,0,0,0-7.32,3.05,9.17,9.17,0,0,0-1.47-2A35.36,35.36,0,0,1-70.2,10,9.5,9.5,0,0,0-69.82,12.45Zm-6.36,5.73A30.39,30.39,0,0,1-68.61,15a9.41,9.41,0,0,0,6.45,4.11V31a13.75,13.75,0,0,0-7.29,3l-8.4-8.39A9.47,9.47,0,0,0-76.18,18.18Zm31.8-2.68a33,33,0,0,0-7.32-3.05A9.5,9.5,0,0,0-51.32,10a35.36,35.36,0,0,1,8.41,3.5A9.77,9.77,0,0,0-44.38,15.5ZM-52.9,15a30.48,30.48,0,0,1,7.56,3.15,9.49,9.49,0,0,0,1.66,7.46l-8.4,8.41a13.64,13.64,0,0,0-7.28-3V19.14A9.46,9.46,0,0,0-52.9,15Zm23.34,11.83a35,35,0,0,1,3.49,8.42,9.43,9.43,0,0,0-2.45.38,33.27,33.27,0,0,0-3-7.33A9.45,9.45,0,0,0-29.56,26.86Zm-1.83-11.54a6.67,6.67,0,0,1,0,9.41,6.72,6.72,0,0,1-9.39,0,6.75,6.75,0,0,1,0-9.41A6.7,6.7,0,0,1-31.39,15.32ZM-60.76,3.13a6.65,6.65,0,0,1,6.64,6.65,6.65,6.65,0,0,1-6.64,6.65A6.65,6.65,0,0,1-67.4,9.78a6.75,6.75,0,0,1,.11-1.19,1.14,1.14,0,0,0,.07-.32A6.65,6.65,0,0,1-60.76,3.13ZM-79.84,27.64l8.41,8.4a13.69,13.69,0,0,0-3,7.29H-86.32a9.44,9.44,0,0,0-4.1-6.46,30.74,30.74,0,0,1,3.14-7.57A9.56,9.56,0,0,0-79.84,27.64ZM-90,28.33a33.76,33.76,0,0,0-3,7.33,9.43,9.43,0,0,0-2.45-.38A35.82,35.82,0,0,1-92,26.86,9.81,9.81,0,0,0-90,28.33Zm-12.34,16.4a6.74,6.74,0,0,1,6.64-6.65A6.65,6.65,0,0,1-89,44.73a6.65,6.65,0,0,1-6.64,6.66A6.67,6.67,0,0,1-102.3,44.73Zm16.86,31.38a6.61,6.61,0,0,1-4.69-2,6.67,6.67,0,0,1,0-9.41,6.7,6.7,0,0,1,9.39,0,6.67,6.67,0,0,1,0,9.41A6.76,6.76,0,0,1-85.44,76.11ZM-43.16,92.7a.44.44,0,0,1-.42.6H-77.94a.45.45,0,0,1-.43-.6l4.26-11.52a37.91,37.91,0,0,0,4.33,1.31,9.47,9.47,0,0,0,9,6.66,9.46,9.46,0,0,0,9-6.66,38.07,38.07,0,0,0,4.34-1.31Zm1.48-30.87-8.4-8.4a13.6,13.6,0,0,0,3-7.29H-35.2a9.44,9.44,0,0,0,4.1,6.46,30.61,30.61,0,0,1-3.15,7.57A9.23,9.23,0,0,0-36.08,60,9.37,9.37,0,0,0-41.68,61.83Zm10.12-.69a33.07,33.07,0,0,0,3-7.33,9.43,9.43,0,0,0,2.45.38,34.83,34.83,0,0,1-3.49,8.42A9.45,9.45,0,0,0-31.56,61.14Z"/></clipPath><clipPath id="clip-path-34"><rect class="cls-2" x="-4625.08" y="-2215.04" width="5391.41" height="4611.73"/></clipPath><clipPath id="clip-path-35"><path class="cls-2" d="M-337.3,98.66h-74.57a2.57,2.57,0,0,1-2.53-2.6V90.62a2.57,2.57,0,0,1,2.53-2.6h28.57a6.67,6.67,0,0,1-.67-2.08,6.75,6.75,0,0,1,1.41-5.3l.92-1.13a7.14,7.14,0,0,0,1.46-5.57l-.39-2.43h-11.24a6,6,0,0,1-5.89-6.15.93.93,0,0,0-.38-.78l-2.37-1.68a2.63,2.63,0,0,1-1-2.89A2.53,2.53,0,0,1-399,58.14h19.32V55.22h-6.47A6,6,0,0,1-392,49.07a1,1,0,0,0-.39-.79l-2.37-1.67a2.63,2.63,0,0,1-1-2.89,2.53,2.53,0,0,1,2.43-1.87h13.67V40.38a10.17,10.17,0,0,0-5.7-9.28l-.73-.34V28.27H-363v2.49l-.72.34a10.15,10.15,0,0,0-5.7,9.28v1.47h13.67a2.55,2.55,0,0,1,2.43,1.88,2.64,2.64,0,0,1-1,2.88l-2.37,1.67a1,1,0,0,0-.39.79A6,6,0,0,1-363,55.22h-6.46v2.92h19.31A2.58,2.58,0,0,1-347.72,60a2.63,2.63,0,0,1-1,2.88l-2.37,1.67a1,1,0,0,0-.39.79,6,6,0,0,1-5.88,6.15H-368.6l-.39,2.43a7.05,7.05,0,0,0,1.47,5.57l.91,1.13a6.79,6.79,0,0,1,1.41,5.3,6.6,6.6,0,0,1-.68,2.08h28.58a2.57,2.57,0,0,1,2.53,2.6v5.44A2.57,2.57,0,0,1-337.3,98.66Zm-74.57-8.14a.14.14,0,0,0,0,.1v5.44c0,.07,0,.1,0,.1h74.56a.14.14,0,0,0,0-.1V90.62a.14.14,0,0,0,0-.1h-35.07l3.1-2.26a4.11,4.11,0,0,0,1.6-2.7,4.25,4.25,0,0,0-.88-3.35l-.91-1.13a9.52,9.52,0,0,1-2-7.53l.72-4.54h13.38A3.53,3.53,0,0,0-354,65.36a3.44,3.44,0,0,1,1.46-2.83l2.36-1.67a.16.16,0,0,0,0-.15L-372,60.64V52.72h9a3.53,3.53,0,0,0,3.38-3.65,3.44,3.44,0,0,1,1.46-2.84l2.36-1.66a.19.19,0,0,0,0-.16L-372,44.35v-4a12.92,12.92,0,0,1,4.21-9.61h-13.65a12.93,12.93,0,0,1,4.22,9.61v4h-16.17c-.05.13,0,.2,0,.22l2.36,1.66a3.49,3.49,0,0,1,1.45,2.84,3.53,3.53,0,0,0,3.38,3.65h9v7.92H-399c-.05.14,0,.2,0,.22l2.36,1.67a3.45,3.45,0,0,1,1.44,2.83A3.54,3.54,0,0,0-391.81,69h13.38l.72,4.54a9.61,9.61,0,0,1-2,7.53l-.92,1.13a4.25,4.25,0,0,0-.88,3.35,4.07,4.07,0,0,0,1.6,2.7l3.07,2.26Z"/></clipPath><clipPath id="clip-path-36"><path class="cls-1" d="M-407,57.44a2.82,2.82,0,0,1,2.82-2.82A5.64,5.64,0,0,0-398.52,49V42a2.82,2.82,0,0,1,2.81-2.82h8.45V36.32h-8.45A5.64,5.64,0,0,0-401.34,42v7a2.82,2.82,0,0,1-2.81,2.82,5.64,5.64,0,0,0-5.64,5.63V77.15H-407Z"/></clipPath><clipPath id="clip-path-37"><path class="cls-2" d="M-374.58,25.85a2.15,2.15,0,0,1-1.86-1.05l-3.2-5.33a2.15,2.15,0,0,1,.33-2.64l3.2-3.2a2.2,2.2,0,0,1,3.05,0l3.2,3.2a2.15,2.15,0,0,1,.33,2.64l-3.2,5.33A2.19,2.19,0,0,1-374.58,25.85Zm0-2.19h0Zm-.05-8.48-3.15,3.2,3.18,5.23,3.16-5.27Z"/></clipPath><clipPath id="clip-path-38"><path class="cls-1" d="M-361.91,36.32v2.82h8.44A2.81,2.81,0,0,1-350.65,42v7A5.64,5.64,0,0,0-345,54.63a2.81,2.81,0,0,1,2.82,2.81V77.16h2.82V57.44A5.64,5.64,0,0,0-345,51.81,2.81,2.81,0,0,1-347.83,49V42a5.64,5.64,0,0,0-5.64-5.63Z"/></clipPath><clipPath id="clip-path-39"><path class="cls-1" d="M-356.28,26.46h2.82A8.46,8.46,0,0,0-361.91,18h-2.82v2.82h2.82a5.64,5.64,0,0,1,5.63,5.63"/></clipPath><clipPath id="clip-path-40"><path class="cls-1" d="M-387.26,20.83h2.82V18h-2.82a8.46,8.46,0,0,0-8.44,8.45h2.81a5.64,5.64,0,0,1,5.63-5.63"/></clipPath><clipPath id="clip-path-41"><path class="cls-1" d="M92.58,85.35a4.48,4.48,0,0,1-6.21,0,7.62,7.62,0,0,0-10.07,0,4.48,4.48,0,0,1-6.21,0,7.61,7.61,0,0,0-10.06,0,4.38,4.38,0,0,1-3.11,1.25,3.89,3.89,0,0,1-1.81-.38V44.09h22v3.15H80.3V44.09h1.58A3.16,3.16,0,0,0,85,40.94V37.79a3.16,3.16,0,0,0-3.15-3.15H81.8A29.92,29.92,0,0,0,53.54,6.38V4.73a4.73,4.73,0,1,0-9.45,0V6.38A29.91,29.91,0,0,0,15.83,34.64h-.08a3.16,3.16,0,0,0-3.15,3.15v3.15a3.15,3.15,0,0,0,3.15,3.15h1.57v3.15h3.15V44.09H42.52v42.1a4,4,0,0,1-1.87.41,4.34,4.34,0,0,1-3.1-1.25,7.61,7.61,0,0,0-10.06,0,4.48,4.48,0,0,1-6.2,0,7.59,7.59,0,0,0-10.06,0,4.36,4.36,0,0,1-3.1,1.25A4.36,4.36,0,0,1,5,85.35a7.45,7.45,0,0,0-5-1.9V86.6a4.36,4.36,0,0,1,3.1,1.25,7.47,7.47,0,0,0,5,1.9,7.37,7.37,0,0,0,5-1.9,4.48,4.48,0,0,1,6.21,0,7.59,7.59,0,0,0,10.05,0,4.48,4.48,0,0,1,6.21,0,7.61,7.61,0,0,0,10.06,0,4.48,4.48,0,0,1,6.21,0,7.61,7.61,0,0,0,10.06,0,4.49,4.49,0,0,1,6.22,0,7.61,7.61,0,0,0,10.06,0,4.48,4.48,0,0,1,6.21,0,7.62,7.62,0,0,0,10.07,0,4.38,4.38,0,0,1,3.11-1.25V83.45A7.5,7.5,0,0,0,92.58,85.35ZM48.81,3.15a1.58,1.58,0,0,1,1.58,1.58V6.3H47.24V4.73A1.58,1.58,0,0,1,48.81,3.15ZM44.49,9.51a37.09,37.09,0,0,0-8.33,11.91L39,22.68A33.91,33.91,0,0,1,48.81,9.9,33.59,33.59,0,0,1,61.37,34.64H36.28a34,34,0,0,1,1.61-8.95l-3-1a36.5,36.5,0,0,0-1.78,9.93H19A26.77,26.77,0,0,1,44.49,9.51ZM15.75,37.79H69.28V34.64H64.51A36.61,36.61,0,0,0,53.15,9.51a26.76,26.76,0,0,1,25.5,25.13H72.43v3.15h9.45v3.15H15.75Zm33,45.66a7.17,7.17,0,0,0-3.13.66v-40H52V84.14A7,7,0,0,0,48.79,83.45Z"/></clipPath><clipPath id="clip-path-42"><rect class="cls-2" x="-2748.02" y="-2401.98" width="5224.37" height="4468.85"/></clipPath><clipPath id="clip-path-43"><path class="cls-1" d="M89.48,94.47a4.4,4.4,0,0,1-3.11-1.24,7.59,7.59,0,0,0-10.07,0,4.51,4.51,0,0,1-6.21,0,7.59,7.59,0,0,0-10.07,0,4.49,4.49,0,0,1-6.2,0,7.58,7.58,0,0,0-10.06,0,4.51,4.51,0,0,1-6.21,0,7.59,7.59,0,0,0-10.07,0,4.48,4.48,0,0,1-6.19,0,7.58,7.58,0,0,0-10.06,0,4.39,4.39,0,0,1-3.1,1.24A4.37,4.37,0,0,1,5,93.23a7.4,7.4,0,0,0-5-1.91v3.15a4.34,4.34,0,0,1,3.1,1.25,7.42,7.42,0,0,0,5,1.9,7.42,7.42,0,0,0,5-1.9,4.47,4.47,0,0,1,6.2,0,7.61,7.61,0,0,0,10.06,0,4.47,4.47,0,0,1,6.2,0,7.61,7.61,0,0,0,10.06,0,4.48,4.48,0,0,1,6.21,0,7.62,7.62,0,0,0,10.07,0,4.47,4.47,0,0,1,6.2,0,7.61,7.61,0,0,0,10.06,0,4.49,4.49,0,0,1,6.22,0,7.62,7.62,0,0,0,10.07,0,4.38,4.38,0,0,1,3.11-1.25V91.32a7.4,7.4,0,0,0-5,1.91,4.42,4.42,0,0,1-3.11,1.24"/></clipPath><clipPath id="clip-path-45"><rect class="cls-2" x="77.15" y="50.39" width="3.15" height="3.15"/></clipPath><clipPath id="clip-path-46"><path class="cls-1" d="M58.26,75.58a4.73,4.73,0,0,0,9.45,0V72.43H64.56v3.15a1.58,1.58,0,0,1-3.15,0v-22H58.26Z"/></clipPath><clipPath id="clip-path-48"><rect class="cls-2" x="64.56" y="66.13" width="3.15" height="3.15"/></clipPath><clipPath id="clip-path-49"><rect class="cls-2" x="64.56" y="59.84" width="3.15" height="3.15"/></clipPath><clipPath id="clip-path-50"><path class="cls-1" d="M80.3,64.56V56.69H77.15v7.87a1.57,1.57,0,0,1-3.14,0V52a4.73,4.73,0,0,0-9.46,0v4.73h3.16V52a1.57,1.57,0,1,1,3.14,0v12.6a4.73,4.73,0,0,0,9.45,0"/></clipPath><clipPath id="clip-path-52"><rect class="cls-2" x="58.26" y="47.24" width="3.15" height="3.15"/></clipPath><clipPath id="clip-path-53"><rect class="cls-2" x="17.32" y="50.39" width="3.15" height="3.15"/></clipPath><clipPath id="clip-path-54"><path class="cls-1" d="M36.22,75.58a1.58,1.58,0,0,1-3.16,0V72.43H29.92v3.15a4.73,4.73,0,0,0,9.45,0v-22H36.22Z"/></clipPath><clipPath id="clip-path-56"><rect class="cls-2" x="29.92" y="66.13" width="3.15" height="3.15"/></clipPath><clipPath id="clip-path-57"><rect class="cls-2" x="29.92" y="59.84" width="3.15" height="3.15"/></clipPath><clipPath id="clip-path-58"><path class="cls-1" d="M17.32,64.56a4.73,4.73,0,0,0,9.45,0V52a1.58,1.58,0,0,1,3.15,0v4.73h3.15V52a4.73,4.73,0,0,0-9.45,0v12.6a1.57,1.57,0,1,1-3.14,0V56.69H17.32Z"/></clipPath><clipPath id="clip-path-60"><rect class="cls-2" x="36.22" y="47.24" width="3.15" height="3.15"/></clipPath><clipPath id="clip-path-61"><path class="cls-1" d="M7.88,75.58a18,18,0,0,1,5.64.91l4.95,1.66-2.65-6.64a8.52,8.52,0,0,0-7.94-5.38,4.73,4.73,0,1,0,0,9.45m0-6.3a5.37,5.37,0,0,1,5,3.4l.16.4a20.93,20.93,0,0,0-5.17-.65,1.58,1.58,0,1,1,0-3.15"/></clipPath><clipPath id="clip-path-63"><rect class="cls-2" x="22.05" y="74.01" width="3.15" height="3.15"/></clipPath><clipPath id="clip-path-64"><path class="cls-1" d="M81.81,71.5l-2.66,6.65,5-1.66a18,18,0,0,1,5.64-.91,4.73,4.73,0,0,0,0-9.45A8.51,8.51,0,0,0,81.81,71.5Zm2.92,1.18a5.37,5.37,0,0,1,5-3.4,1.58,1.58,0,0,1,0,3.15,21,21,0,0,0-5.18.65Z"/></clipPath><clipPath id="clip-path-66"><rect class="cls-2" x="72.43" y="74.01" width="3.15" height="3.15"/></clipPath></defs><path class="cls-4" d="M167.7,94.21h15.91V84.26H167.7Zm17.9,4H165.71a2,2,0,0,1-2-2V82.27a2,2,0,0,1,2-2H185.6a2,2,0,0,1,2,2V96.2A2,2,0,0,1,185.6,98.18Z"/><g class="cls-5"><rect class="cls-2" x="-1100.84" y="-3698.44" width="5804.01" height="4970.61"/></g><path class="cls-4" d="M157.75,94.21h35.8V6.69h-35.8Zm37.8,4H155.76a2,2,0,0,1-2-2V4.7a2,2,0,0,1,2-2h39.79a2,2,0,0,1,2,2V96.2A2,2,0,0,1,195.55,98.18Z"/><g class="cls-6"><rect class="cls-2" x="-1100.84" y="-3698.44" width="5804.01" height="4964.66"/></g><path class="cls-4" d="M141.84,94.21h11.93V14.65H141.84Zm13.92,4H139.85a2,2,0,0,1-2-2V12.65a2,2,0,0,1,2-2h15.91a2,2,0,0,1,2,2V96.2A2,2,0,0,1,155.76,98.18Z"/><g class="cls-7"><rect class="cls-2" x="-1100.84" y="-3698.44" width="5804.01" height="4964.66"/></g><path class="cls-4" d="M197.53,94.21h11.93V14.65H197.53Zm13.93,4H195.54a2,2,0,0,1-2-2V12.65a2,2,0,0,1,2-2h15.92a2,2,0,0,1,2,2V96.2A2,2,0,0,1,211.46,98.18Z"/><g class="cls-8"><rect class="cls-2" x="-1100.84" y="-3698.44" width="5804.01" height="4964.66"/></g><rect class="cls-2" x="115.98" y="94.21" width="23.87" height="3.97"/><g class="cls-9"><rect class="cls-2" x="86.22" y="64.45" width="83.39" height="63.5"/></g><rect class="cls-2" x="123.94" y="54.43" width="3.97" height="41.77"/><g class="cls-10"><rect class="cls-2" x="94.17" y="24.66" width="63.5" height="101.3"/></g><rect class="cls-2" x="123.94" y="54.43" width="3.98" height="19.89" transform="translate(-1.15 126.45) rotate(-53.11)"/><g class="cls-11"><rect class="cls-2" x="-1100.84" y="-3698.44" width="5804.01" height="4964.66"/><g class="cls-12"><rect class="cls-2" x="87.01" y="27.05" width="77.83" height="74.64"/></g></g><rect class="cls-2" x="115.98" y="62.38" width="19.89" height="3.98" transform="translate(-13.44 88.45) rotate(-36.88)"/><g class="cls-13"><rect class="cls-2" x="-1100.84" y="-3698.44" width="5804.01" height="4964.66"/><g class="cls-12"><rect class="cls-2" x="87.01" y="27.05" width="77.83" height="74.65"/></g></g><rect class="cls-2" x="223.39" y="54.43" width="3.97" height="19.89" transform="translate(38.63 206.01) rotate(-53.12)"/><g class="cls-14"><rect class="cls-2" x="-1100.84" y="-3698.44" width="5804.01" height="4964.66"/></g><rect class="cls-2" x="215.43" y="62.39" width="19.89" height="3.97" transform="translate(6.41 148.02) rotate(-36.85)"/><g class="cls-15"><rect class="cls-2" x="-1100.84" y="-3698.44" width="5804.01" height="4964.66"/></g><path class="cls-4" d="M-16.41,44.73a9.48,9.48,0,0,0-6.65-9,38.57,38.57,0,0,0-4.67-11.26A9.51,9.51,0,0,0-29.4,13.33a9.35,9.35,0,0,0-6.68-2.76,9.33,9.33,0,0,0-4.42,1.09A38.21,38.21,0,0,0-51.74,7a9.45,9.45,0,0,0-9-6.65,9.46,9.46,0,0,0-9,6.65A38.21,38.21,0,0,0-81,11.66,9.45,9.45,0,0,0-88.2,11a1.41,1.41,0,0,0,.83,2.69,6.6,6.6,0,0,1,6.63,1.66,6.67,6.67,0,0,1,0,9.41,6.72,6.72,0,0,1-9.39,0,6.66,6.66,0,0,1-1.45-7.24,1.41,1.41,0,0,0-2.6-1.06,9.46,9.46,0,0,0,.39,8A38.57,38.57,0,0,0-98.46,35.7a9.47,9.47,0,0,0-6.64,9,9.48,9.48,0,0,0,6.64,9A38.57,38.57,0,0,0-93.79,65a9.5,9.5,0,0,0,1.67,11.11A9.53,9.53,0,0,0-81,77.81a36.4,36.4,0,0,0,4.31,2.3L-81,91.72a3.31,3.31,0,0,0,3.06,4.39h34.36a3.3,3.3,0,0,0,3-4.39l-4.28-11.61a36.4,36.4,0,0,0,4.31-2.3,9.29,9.29,0,0,0,4.4,1.1,9.46,9.46,0,0,0,2.91-.46A1.4,1.4,0,0,0-34,75.78a6.6,6.6,0,0,1-6.73-1.62,6.67,6.67,0,0,1,0-9.41,6.7,6.7,0,0,1,9.39,0,6.66,6.66,0,0,1,1.48,7.17,1.4,1.4,0,0,0,2.6,1A9.43,9.43,0,0,0-27.73,65a38.57,38.57,0,0,0,4.67-11.26A9.47,9.47,0,0,0-16.41,44.73Zm-2.81,0a6.66,6.66,0,0,1-6.64,6.66,6.66,6.66,0,0,1-6.64-6.66,6.66,6.66,0,0,1,6.64-6.65A6.66,6.66,0,0,1-19.22,44.73Zm-16-1.4H-47.06a13.64,13.64,0,0,0-3-7.3l8.39-8.4a9.54,9.54,0,0,0,7.46,1.67,31.13,31.13,0,0,1,3.14,7.57A9.44,9.44,0,0,0-35.2,43.33ZM-47,78c-1.43.54-2.82,1.08-4.3,1.48A9.58,9.58,0,0,0-51.7,77a33,33,0,0,0,7.32-3,9.83,9.83,0,0,0,1.47,2A28,28,0,0,1-47,78Zm-31.59-2a9.47,9.47,0,0,0,1.47-2,33,33,0,0,0,7.32,3,9.58,9.58,0,0,0-.38,2.47A35.61,35.61,0,0,1-78.61,76ZM-92,62.61a36.1,36.1,0,0,1-3.5-8.42A9.44,9.44,0,0,0-93,53.81a33.56,33.56,0,0,0,3,7.33A9.45,9.45,0,0,0-92,62.61Zm4.68-2.44a30.58,30.58,0,0,1-3.14-7.57,9.44,9.44,0,0,0,4.1-6.46h11.86a13.71,13.71,0,0,0,3,7.27l-8.4,8.41A9.58,9.58,0,0,0-87.28,60.17Zm25.12,10.17a9.37,9.37,0,0,0-6.45,4.1,30.77,30.77,0,0,1-7.57-3.15,9.46,9.46,0,0,0-1.68-7.49l8.4-8.39a13.69,13.69,0,0,0,7.3,3Zm1.4,2.7a6.65,6.65,0,0,1,6.64,6.65,6.65,6.65,0,0,1-6.64,6.65,6.65,6.65,0,0,1-6.64-6.65A6.65,6.65,0,0,1-60.76,73Zm15.42-1.75a30.86,30.86,0,0,1-7.56,3.15,9.41,9.41,0,0,0-6.46-4.1V58.44a13.75,13.75,0,0,0,7.29-3l8.4,8.39A9.47,9.47,0,0,0-45.34,71.29ZM-60.76,55.71a11,11,0,0,1-11-11,11,11,0,0,1,11-11,11,11,0,0,1,11,11A11,11,0,0,1-60.76,55.71Zm-9.06-43.26a33,33,0,0,0-7.32,3.05,9.17,9.17,0,0,0-1.47-2A35.36,35.36,0,0,1-70.2,10,9.5,9.5,0,0,0-69.82,12.45Zm-6.36,5.73A30.39,30.39,0,0,1-68.61,15a9.41,9.41,0,0,0,6.45,4.11V31a13.75,13.75,0,0,0-7.29,3l-8.4-8.39A9.47,9.47,0,0,0-76.18,18.18Zm31.8-2.68a33,33,0,0,0-7.32-3.05A9.5,9.5,0,0,0-51.32,10a35.36,35.36,0,0,1,8.41,3.5A9.77,9.77,0,0,0-44.38,15.5ZM-52.9,15a30.48,30.48,0,0,1,7.56,3.15,9.49,9.49,0,0,0,1.66,7.46l-8.4,8.41a13.64,13.64,0,0,0-7.28-3V19.14A9.46,9.46,0,0,0-52.9,15Zm23.34,11.83a35,35,0,0,1,3.49,8.42,9.43,9.43,0,0,0-2.45.38,33.27,33.27,0,0,0-3-7.33A9.45,9.45,0,0,0-29.56,26.86Zm-1.83-11.54a6.67,6.67,0,0,1,0,9.41,6.72,6.72,0,0,1-9.39,0,6.75,6.75,0,0,1,0-9.41A6.7,6.7,0,0,1-31.39,15.32ZM-60.76,3.13a6.65,6.65,0,0,1,6.64,6.65,6.65,6.65,0,0,1-6.64,6.65A6.65,6.65,0,0,1-67.4,9.78a6.75,6.75,0,0,1,.11-1.19,1.14,1.14,0,0,0,.07-.32A6.65,6.65,0,0,1-60.76,3.13ZM-79.84,27.64l8.41,8.4a13.69,13.69,0,0,0-3,7.29H-86.32a9.44,9.44,0,0,0-4.1-6.46,30.74,30.74,0,0,1,3.14-7.57A9.56,9.56,0,0,0-79.84,27.64ZM-90,28.33a33.76,33.76,0,0,0-3,7.33,9.43,9.43,0,0,0-2.45-.38A35.82,35.82,0,0,1-92,26.86,9.81,9.81,0,0,0-90,28.33Zm-12.34,16.4a6.74,6.74,0,0,1,6.64-6.65A6.65,6.65,0,0,1-89,44.73a6.65,6.65,0,0,1-6.64,6.66A6.67,6.67,0,0,1-102.3,44.73Zm16.86,31.38a6.61,6.61,0,0,1-4.69-2,6.67,6.67,0,0,1,0-9.41,6.7,6.7,0,0,1,9.39,0,6.67,6.67,0,0,1,0,9.41A6.76,6.76,0,0,1-85.44,76.11ZM-43.16,92.7a.44.44,0,0,1-.42.6H-77.94a.45.45,0,0,1-.43-.6l4.26-11.52a37.91,37.91,0,0,0,4.33,1.31,9.47,9.47,0,0,0,9,6.66,9.46,9.46,0,0,0,9-6.66,38.07,38.07,0,0,0,4.34-1.31Zm1.48-30.87-8.4-8.4a13.6,13.6,0,0,0,3-7.29H-35.2a9.44,9.44,0,0,0,4.1,6.46,30.61,30.61,0,0,1-3.15,7.57A9.23,9.23,0,0,0-36.08,60,9.37,9.37,0,0,0-41.68,61.83Zm10.12-.69a33.07,33.07,0,0,0,3-7.33,9.43,9.43,0,0,0,2.45.38,34.83,34.83,0,0,1-3.49,8.42A9.45,9.45,0,0,0-31.56,61.14Z"/><g class="cls-36"><rect class="cls-2" x="-4625.08" y="-2215.04" width="5391.41" height="4611.73"/><g class="cls-37"><rect class="cls-2" x="-132.75" y="-27.32" width="143.99" height="151.08"/></g></g><path class="cls-2" d="M-337.3,98.66h-74.57a2.57,2.57,0,0,1-2.53-2.6V90.62a2.57,2.57,0,0,1,2.53-2.6h28.57a6.67,6.67,0,0,1-.67-2.08,6.75,6.75,0,0,1,1.41-5.3l.92-1.13a7.14,7.14,0,0,0,1.46-5.57l-.39-2.43h-11.24a6,6,0,0,1-5.89-6.15.93.93,0,0,0-.38-.78l-2.37-1.68a2.63,2.63,0,0,1-1-2.89A2.53,2.53,0,0,1-399,58.14h19.32V55.22h-6.47A6,6,0,0,1-392,49.07a1,1,0,0,0-.39-.79l-2.37-1.67a2.63,2.63,0,0,1-1-2.89,2.53,2.53,0,0,1,2.43-1.87h13.67V40.38a10.17,10.17,0,0,0-5.7-9.28l-.73-.34V28.27H-363v2.49l-.72.34a10.15,10.15,0,0,0-5.7,9.28v1.47h13.67a2.55,2.55,0,0,1,2.43,1.88,2.64,2.64,0,0,1-1,2.88l-2.37,1.67a1,1,0,0,0-.39.79A6,6,0,0,1-363,55.22h-6.46v2.92h19.31A2.58,2.58,0,0,1-347.72,60a2.63,2.63,0,0,1-1,2.88l-2.37,1.67a1,1,0,0,0-.39.79,6,6,0,0,1-5.88,6.15H-368.6l-.39,2.43a7.05,7.05,0,0,0,1.47,5.57l.91,1.13a6.79,6.79,0,0,1,1.41,5.3,6.6,6.6,0,0,1-.68,2.08h28.58a2.57,2.57,0,0,1,2.53,2.6v5.44A2.57,2.57,0,0,1-337.3,98.66Zm-74.57-8.14a.14.14,0,0,0,0,.1v5.44c0,.07,0,.1,0,.1h74.56a.14.14,0,0,0,0-.1V90.62a.14.14,0,0,0,0-.1h-35.07l3.1-2.26a4.11,4.11,0,0,0,1.6-2.7,4.25,4.25,0,0,0-.88-3.35l-.91-1.13a9.52,9.52,0,0,1-2-7.53l.72-4.54h13.38A3.53,3.53,0,0,0-354,65.36a3.44,3.44,0,0,1,1.46-2.83l2.36-1.67a.16.16,0,0,0,0-.15L-372,60.64V52.72h9a3.53,3.53,0,0,0,3.38-3.65,3.44,3.44,0,0,1,1.46-2.84l2.36-1.66a.19.19,0,0,0,0-.16L-372,44.35v-4a12.92,12.92,0,0,1,4.21-9.61h-13.65a12.93,12.93,0,0,1,4.22,9.61v4h-16.17c-.05.13,0,.2,0,.22l2.36,1.66a3.49,3.49,0,0,1,1.45,2.84,3.53,3.53,0,0,0,3.38,3.65h9v7.92H-399c-.05.14,0,.2,0,.22l2.36,1.67a3.45,3.45,0,0,1,1.44,2.83A3.54,3.54,0,0,0-391.81,69h13.38l.72,4.54a9.61,9.61,0,0,1-2,7.53l-.92,1.13a4.25,4.25,0,0,0-.88,3.35,4.07,4.07,0,0,0,1.6,2.7l3.07,2.26Z"/><g class="cls-38"><path class="cls-2" d="M2048.35,1882.54H-2829V-2523.71H2048.35Zm-4874.35-3H2045.35V-2520.71H-2826Z"/></g><path class="cls-4" d="M-407,57.44a2.82,2.82,0,0,1,2.82-2.82A5.64,5.64,0,0,0-398.52,49V42a2.82,2.82,0,0,1,2.81-2.82h8.45V36.32h-8.45A5.64,5.64,0,0,0-401.34,42v7a2.82,2.82,0,0,1-2.81,2.82,5.64,5.64,0,0,0-5.64,5.63V77.15H-407Z"/><g class="cls-39"><rect class="cls-2" x="-3060.83" y="-2619.61" width="5338.01" height="4566.05"/></g><path class="cls-2" d="M-374.58,25.85a2.15,2.15,0,0,1-1.86-1.05l-3.2-5.33a2.15,2.15,0,0,1,.33-2.64l3.2-3.2a2.2,2.2,0,0,1,3.05,0l3.2,3.2a2.15,2.15,0,0,1,.33,2.64l-3.2,5.33A2.19,2.19,0,0,1-374.58,25.85Zm0-2.19h0Zm-.05-8.48-3.15,3.2,3.18,5.23,3.16-5.27Z"/><g class="cls-40"><path class="cls-2" d="M1632.53,1478.28H-2407.79V-1978.06H1632.53Zm-4038.12-2.2H1630.33V-1975.86H-2405.59Z"/></g><path class="cls-4" d="M-361.91,36.32v2.82h8.44A2.81,2.81,0,0,1-350.65,42v7A5.64,5.64,0,0,0-345,54.63a2.81,2.81,0,0,1,2.82,2.81V77.16h2.82V57.44A5.64,5.64,0,0,0-345,51.81,2.81,2.81,0,0,1-347.83,49V42a5.64,5.64,0,0,0-5.64-5.63Z"/><g class="cls-41"><rect class="cls-2" x="-3060.83" y="-2619.61" width="5338.01" height="4566.05"/></g><path class="cls-4" d="M-356.28,26.46h2.82A8.46,8.46,0,0,0-361.91,18h-2.82v2.82h2.82a5.64,5.64,0,0,1,5.63,5.63"/><g class="cls-42"><rect class="cls-2" x="-3060.83" y="-2619.61" width="5338.01" height="4566.05"/></g><path class="cls-4" d="M-387.26,20.83h2.82V18h-2.82a8.46,8.46,0,0,0-8.44,8.45h2.81a5.64,5.64,0,0,1,5.63-5.63"/><g class="cls-43"><rect class="cls-2" x="-3060.83" y="-2619.61" width="5338.01" height="4566.05"/></g><path class="cls-4" d="M92.58,85.35a4.48,4.48,0,0,1-6.21,0,7.62,7.62,0,0,0-10.07,0,4.48,4.48,0,0,1-6.21,0,7.61,7.61,0,0,0-10.06,0,4.38,4.38,0,0,1-3.11,1.25,3.89,3.89,0,0,1-1.81-.38V44.09h22v3.15H80.3V44.09h1.58A3.16,3.16,0,0,0,85,40.94V37.79a3.16,3.16,0,0,0-3.15-3.15H81.8A29.92,29.92,0,0,0,53.54,6.38V4.73a4.73,4.73,0,1,0-9.45,0V6.38A29.91,29.91,0,0,0,15.83,34.64h-.08a3.16,3.16,0,0,0-3.15,3.15v3.15a3.15,3.15,0,0,0,3.15,3.15h1.57v3.15h3.15V44.09H42.52v42.1a4,4,0,0,1-1.87.41,4.34,4.34,0,0,1-3.1-1.25,7.61,7.61,0,0,0-10.06,0,4.48,4.48,0,0,1-6.2,0,7.59,7.59,0,0,0-10.06,0,4.36,4.36,0,0,1-3.1,1.25A4.36,4.36,0,0,1,5,85.35a7.45,7.45,0,0,0-5-1.9V86.6a4.36,4.36,0,0,1,3.1,1.25,7.47,7.47,0,0,0,5,1.9,7.37,7.37,0,0,0,5-1.9,4.48,4.48,0,0,1,6.21,0,7.59,7.59,0,0,0,10.05,0,4.48,4.48,0,0,1,6.21,0,7.61,7.61,0,0,0,10.06,0,4.48,4.48,0,0,1,6.21,0,7.61,7.61,0,0,0,10.06,0,4.49,4.49,0,0,1,6.22,0,7.61,7.61,0,0,0,10.06,0,4.48,4.48,0,0,1,6.21,0,7.62,7.62,0,0,0,10.07,0,4.38,4.38,0,0,1,3.11-1.25V83.45A7.5,7.5,0,0,0,92.58,85.35ZM48.81,3.15a1.58,1.58,0,0,1,1.58,1.58V6.3H47.24V4.73A1.58,1.58,0,0,1,48.81,3.15ZM44.49,9.51a37.09,37.09,0,0,0-8.33,11.91L39,22.68A33.91,33.91,0,0,1,48.81,9.9,33.59,33.59,0,0,1,61.37,34.64H36.28a34,34,0,0,1,1.61-8.95l-3-1a36.5,36.5,0,0,0-1.78,9.93H19A26.77,26.77,0,0,1,44.49,9.51ZM15.75,37.79H69.28V34.64H64.51A36.61,36.61,0,0,0,53.15,9.51a26.76,26.76,0,0,1,25.5,25.13H72.43v3.15h9.45v3.15H15.75Zm33,45.66a7.17,7.17,0,0,0-3.13.66v-40H52V84.14A7,7,0,0,0,48.79,83.45Z"/><g class="cls-44"><rect class="cls-2" x="-2748.02" y="-2401.98" width="5224.37" height="4468.85"/><g class="cls-45"><rect class="cls-2" x="-26.79" y="-26.79" width="151.21" height="143.33"/></g></g><path class="cls-4" d="M89.48,94.47a4.4,4.4,0,0,1-3.11-1.24,7.59,7.59,0,0,0-10.07,0,4.51,4.51,0,0,1-6.21,0,7.59,7.59,0,0,0-10.07,0,4.49,4.49,0,0,1-6.2,0,7.58,7.58,0,0,0-10.06,0,4.51,4.51,0,0,1-6.21,0,7.59,7.59,0,0,0-10.07,0,4.48,4.48,0,0,1-6.19,0,7.58,7.58,0,0,0-10.06,0,4.39,4.39,0,0,1-3.1,1.24A4.37,4.37,0,0,1,5,93.23a7.4,7.4,0,0,0-5-1.91v3.15a4.34,4.34,0,0,1,3.1,1.25,7.42,7.42,0,0,0,5,1.9,7.42,7.42,0,0,0,5-1.9,4.47,4.47,0,0,1,6.2,0,7.61,7.61,0,0,0,10.06,0,4.47,4.47,0,0,1,6.2,0,7.61,7.61,0,0,0,10.06,0,4.48,4.48,0,0,1,6.21,0,7.62,7.62,0,0,0,10.07,0,4.47,4.47,0,0,1,6.2,0,7.61,7.61,0,0,0,10.06,0,4.49,4.49,0,0,1,6.22,0,7.62,7.62,0,0,0,10.07,0,4.38,4.38,0,0,1,3.11-1.25V91.32a7.4,7.4,0,0,0-5,1.91,4.42,4.42,0,0,1-3.11,1.24"/><g class="cls-46"><rect class="cls-2" x="-2748.02" y="-2401.98" width="5224.37" height="4468.85"/><g class="cls-45"><rect class="cls-2" x="-26.79" y="64.53" width="151.21" height="59.89"/></g></g><rect class="cls-2" x="77.15" y="50.39" width="3.15" height="3.15"/><g class="cls-47"><rect class="cls-2" x="50.36" y="23.6" width="56.74" height="56.74"/></g><path class="cls-4" d="M58.26,75.58a4.73,4.73,0,0,0,9.45,0V72.43H64.56v3.15a1.58,1.58,0,0,1-3.15,0v-22H58.26Z"/><g class="cls-48"><rect class="cls-2" x="-2748.02" y="-2401.98" width="5224.37" height="4468.85"/><g class="cls-45"><rect class="cls-2" x="31.47" y="26.75" width="63.03" height="80.35"/></g></g><rect class="cls-2" x="64.56" y="66.13" width="3.15" height="3.15"/><g class="cls-49"><rect class="cls-2" x="37.76" y="39.34" width="56.74" height="56.73"/></g><rect class="cls-2" x="64.56" y="59.84" width="3.15" height="3.15"/><g class="cls-50"><rect class="cls-2" x="37.76" y="33.04" width="56.74" height="56.73"/></g><path class="cls-4" d="M80.3,64.56V56.69H77.15v7.87a1.57,1.57,0,0,1-3.14,0V52a4.73,4.73,0,0,0-9.46,0v4.73h3.16V52a1.57,1.57,0,1,1,3.14,0v12.6a4.73,4.73,0,0,0,9.45,0"/><g class="cls-51"><rect class="cls-2" x="-2748.02" y="-2401.98" width="5224.37" height="4468.85"/><g class="cls-45"><rect class="cls-2" x="37.76" y="20.45" width="69.33" height="75.63"/></g></g><rect class="cls-2" x="58.26" y="47.24" width="3.15" height="3.15"/><g class="cls-52"><rect class="cls-2" x="31.47" y="20.45" width="56.74" height="56.73"/></g><rect class="cls-2" x="17.32" y="50.39" width="3.15" height="3.15"/><g class="cls-53"><rect class="cls-2" x="-9.47" y="23.6" width="56.74" height="56.74"/></g><path class="cls-4" d="M36.22,75.58a1.58,1.58,0,0,1-3.16,0V72.43H29.92v3.15a4.73,4.73,0,0,0,9.45,0v-22H36.22Z"/><g class="cls-54"><rect class="cls-2" x="-2748.02" y="-2401.98" width="5224.37" height="4468.85"/><g class="cls-45"><rect class="cls-2" x="3.13" y="26.75" width="63.03" height="80.35"/></g></g><rect class="cls-2" x="29.92" y="66.13" width="3.15" height="3.15"/><g class="cls-55"><rect class="cls-2" x="3.13" y="39.34" width="56.73" height="56.73"/></g><rect class="cls-2" x="29.92" y="59.84" width="3.15" height="3.15"/><g class="cls-56"><rect class="cls-2" x="3.13" y="33.04" width="56.73" height="56.73"/></g><path class="cls-4" d="M17.32,64.56a4.73,4.73,0,0,0,9.45,0V52a1.58,1.58,0,0,1,3.15,0v4.73h3.15V52a4.73,4.73,0,0,0-9.45,0v12.6a1.57,1.57,0,1,1-3.14,0V56.69H17.32Z"/><g class="cls-57"><rect class="cls-2" x="-2748.02" y="-2401.98" width="5224.37" height="4468.85"/><g class="cls-45"><rect class="cls-2" x="-9.47" y="20.45" width="69.33" height="75.63"/></g></g><rect class="cls-2" x="36.22" y="47.24" width="3.15" height="3.15"/><g class="cls-58"><rect class="cls-2" x="9.43" y="20.45" width="56.73" height="56.73"/></g><path class="cls-4" d="M7.88,75.58a18,18,0,0,1,5.64.91l4.95,1.66-2.65-6.64a8.52,8.52,0,0,0-7.94-5.38,4.73,4.73,0,1,0,0,9.45m0-6.3a5.37,5.37,0,0,1,5,3.4l.16.4a20.93,20.93,0,0,0-5.17-.65,1.58,1.58,0,1,1,0-3.15"/><g class="cls-59"><rect class="cls-2" x="-2748.02" y="-2401.98" width="5224.37" height="4468.85"/><g class="cls-45"><rect class="cls-2" x="-23.64" y="39.34" width="68.9" height="65.6"/></g></g><rect class="cls-2" x="22.05" y="74.01" width="3.15" height="3.15"/><g class="cls-60"><rect class="cls-2" x="-4.75" y="47.22" width="56.73" height="56.73"/></g><path class="cls-4" d="M81.81,71.5l-2.66,6.65,5-1.66a18,18,0,0,1,5.64-.91,4.73,4.73,0,0,0,0-9.45A8.51,8.51,0,0,0,81.81,71.5Zm2.92,1.18a5.37,5.37,0,0,1,5-3.4,1.58,1.58,0,0,1,0,3.15,21,21,0,0,0-5.18.65Z"/><g class="cls-61"><rect class="cls-2" x="-2748.02" y="-2401.98" width="5224.37" height="4468.85"/><g class="cls-45"><rect class="cls-2" x="52.36" y="39.34" width="68.9" height="65.6"/></g></g><rect class="cls-2" x="72.43" y="74.01" width="3.15" height="3.15"/><g class="cls-62"><rect class="cls-2" x="45.64" y="47.22" width="56.73" height="56.73"/></g></svg>