<svg id="Layer_1" data-name="Layer 1" xmlns="http://www.w3.org/2000/svg" xmlns:xlink="http://www.w3.org/1999/xlink" viewBox="0 0 103.16 87.99"><defs><style>.cls-1,.cls-2,.cls-3{fill:#fff;}.cls-1{clip-rule:evenodd;}.cls-3{fill-rule:evenodd;}.cls-4{clip-path:url(#clip-path);}.cls-5{clip-path:url(#clip-path-2);}.cls-6{clip-path:url(#clip-path-3);}.cls-7{clip-path:url(#clip-path-4);}.cls-8{clip-path:url(#clip-path-5);}.cls-9{clip-path:url(#clip-path-6);}.cls-10{clip-path:url(#clip-path-7);}.cls-11{clip-path:url(#clip-path-8);}.cls-12{clip-path:url(#clip-path-9);}.cls-13{clip-path:url(#clip-path-10);}.cls-14{clip-path:url(#clip-path-12);}.cls-15{clip-path:url(#clip-path-13);}.cls-16{clip-path:url(#clip-path-14);}.cls-17{clip-path:url(#clip-path-15);}.cls-18{clip-path:url(#clip-path-16);}.cls-19{clip-path:url(#clip-path-17);}.cls-20{clip-path:url(#clip-path-18);}.cls-21{clip-path:url(#clip-path-19);}.cls-22{clip-path:url(#clip-path-20);}.cls-23{clip-path:url(#clip-path-21);}.cls-24{clip-path:url(#clip-path-22);}.cls-25{clip-path:url(#clip-path-23);}.cls-26{clip-path:url(#clip-path-24);}.cls-27{clip-path:url(#clip-path-25);}.cls-28{clip-path:url(#clip-path-26);}</style><clipPath id="clip-path"><path class="cls-1" d="M-91.41,81.91h15.92V72H-91.41Zm17.9,4H-93.4a2,2,0,0,1-2-2V70a2,2,0,0,1,2-2h19.89a2,2,0,0,1,2,2V83.9A2,2,0,0,1-73.51,85.89Z"/></clipPath><clipPath id="clip-path-2"><path class="cls-1" d="M-101.35,81.91h35.8V-5.61h-35.8Zm37.79,4h-39.78a2,2,0,0,1-2-2V-7.6a2,2,0,0,1,2-2h39.78a2,2,0,0,1,2,2V83.9A2,2,0,0,1-63.56,85.89Z"/></clipPath><clipPath id="clip-path-3"><path class="cls-1" d="M-117.27,81.91h11.93V2.35h-11.93Zm13.93,4h-15.92a2,2,0,0,1-2-2V.35a2,2,0,0,1,2-2h15.92a2,2,0,0,1,2,2V83.9A2,2,0,0,1-103.34,85.89Z"/></clipPath><clipPath id="clip-path-4"><path class="cls-1" d="M-61.57,81.91h11.93V2.35H-61.57Zm13.92,4H-63.56a2,2,0,0,1-2-2V.35a2,2,0,0,1,2-2h15.91a2,2,0,0,1,2,2V83.9A2,2,0,0,1-47.65,85.89Z"/></clipPath><clipPath id="clip-path-5"><rect class="cls-2" x="-47.65" y="81.91" width="23.87" height="3.97"/></clipPath><clipPath id="clip-path-6"><rect class="cls-2" x="-135.17" y="42.13" width="3.98" height="19.89" transform="translate(-94.88 -85.7) rotate(-53.11)"/></clipPath><clipPath id="clip-path-7"><rect class="cls-2" x="-143.13" y="50.08" width="19.89" height="3.98" transform="translate(-57.9 -69.51) rotate(-36.88)"/></clipPath><clipPath id="clip-path-8"><rect class="cls-2" x="-35.71" y="42.13" width="3.97" height="19.89" transform="translate(-55.14 -6.15) rotate(-53.12)"/></clipPath><clipPath id="clip-path-9"><rect class="cls-2" x="-1359.95" y="-3710.74" width="5804.01" height="4964.66"/></clipPath><clipPath id="clip-path-10"><rect class="cls-2" x="-43.68" y="50.09" width="19.89" height="3.97" transform="translate(-37.97 -9.82) rotate(-36.85)"/></clipPath><clipPath id="clip-path-12"><path class="cls-1" d="M-275.52,32.43a9.46,9.46,0,0,0-6.65-9,38.25,38.25,0,0,0-4.67-11.27A9.49,9.49,0,0,0-288.51,1a9.38,9.38,0,0,0-6.68-2.76A9.29,9.29,0,0,0-299.6-.64a38.59,38.59,0,0,0-11.24-4.68,9.46,9.46,0,0,0-9-6.65,9.47,9.47,0,0,0-9,6.65A38.59,38.59,0,0,0-340.13-.64a9.43,9.43,0,0,0-7.17-.69,1.41,1.41,0,0,0,.82,2.69A6.62,6.62,0,0,1-339.85,3a6.67,6.67,0,0,1,0,9.41,6.72,6.72,0,0,1-9.39,0,6.66,6.66,0,0,1-1.45-7.23,1.4,1.4,0,0,0-2.6-1.06,9.48,9.48,0,0,0,.39,8,38.52,38.52,0,0,0-4.67,11.27,9.46,9.46,0,0,0-6.64,9,9.48,9.48,0,0,0,6.64,9,38.59,38.59,0,0,0,4.68,11.26,9.47,9.47,0,0,0,1.67,11.11,9.53,9.53,0,0,0,11.1,1.68,37.71,37.71,0,0,0,4.3,2.29l-4.28,11.62A3.3,3.3,0,0,0-337,83.81h34.37a3.3,3.3,0,0,0,3.05-4.38l-4.28-11.62a38.71,38.71,0,0,0,4.31-2.29,9.36,9.36,0,0,0,4.39,1.09,9.47,9.47,0,0,0,2.92-.46,1.4,1.4,0,0,0-.86-2.67,6.59,6.59,0,0,1-6.73-1.62,6.67,6.67,0,0,1,0-9.41,6.7,6.7,0,0,1,9.39,0A6.66,6.66,0,0,1-289,59.62a1.41,1.41,0,0,0,2.61,1,9.47,9.47,0,0,0-.43-7.93,38.19,38.19,0,0,0,4.67-11.26A9.47,9.47,0,0,0-275.52,32.43Zm-2.8,0A6.67,6.67,0,0,1-285,39.09a6.65,6.65,0,0,1-6.63-6.66A6.65,6.65,0,0,1-285,25.78,6.67,6.67,0,0,1-278.32,32.43Zm-16-1.39h-11.86a13.65,13.65,0,0,0-3-7.31l8.39-8.4A9.54,9.54,0,0,0-293.35,17a30.77,30.77,0,0,1,3.15,7.57A9.41,9.41,0,0,0-294.3,31Zm-11.83,34.68c-1.42.53-2.82,1.07-4.3,1.47a8.79,8.79,0,0,0-.38-2.47,33.56,33.56,0,0,0,7.33-3,9.67,9.67,0,0,0,1.47,2A29.7,29.7,0,0,1-306.13,65.72Zm-31.58-2a9.62,9.62,0,0,0,1.46-2,33.68,33.68,0,0,0,7.32,3,9.58,9.58,0,0,0-.38,2.47A35.54,35.54,0,0,1-337.71,63.69Zm-13.36-13.38a35.65,35.65,0,0,1-3.49-8.42,9.43,9.43,0,0,0,2.45-.38,33.59,33.59,0,0,0,3.05,7.33A9.6,9.6,0,0,0-351.07,50.31Zm4.69-2.44a29.69,29.69,0,0,1-3.14-7.57,9.51,9.51,0,0,0,4.1-6.46h11.85a13.61,13.61,0,0,0,3,7.27L-339,49.52A9.56,9.56,0,0,0-346.38,47.87ZM-321.27,58a9.42,9.42,0,0,0-6.45,4.11A31.12,31.12,0,0,1-335.28,59,9.51,9.51,0,0,0-337,51.5l8.4-8.39a13.67,13.67,0,0,0,7.3,3Zm1.4,2.7a6.65,6.65,0,0,1,6.65,6.65A6.65,6.65,0,0,1-319.87,74a6.65,6.65,0,0,1-6.64-6.65A6.65,6.65,0,0,1-319.87,60.74ZM-304.45,59A30.54,30.54,0,0,1-312,62.14a9.44,9.44,0,0,0-6.45-4.1V46.14a13.6,13.6,0,0,0,7.29-3l8.4,8.4A9.48,9.48,0,0,0-304.45,59Zm-15.42-15.58a11,11,0,0,1-11-11,11,11,0,0,1,11-11,11,11,0,0,1,11,11A11,11,0,0,1-319.87,43.41ZM-328.93.15a33.23,33.23,0,0,0-7.32,3.05,8.86,8.86,0,0,0-1.47-2,35.36,35.36,0,0,1,8.41-3.5A10,10,0,0,0-328.93.15Zm-6.35,5.73a30.32,30.32,0,0,1,7.56-3.15,9.46,9.46,0,0,0,6.45,4.11V18.73a13.82,13.82,0,0,0-7.29,3l-8.39-8.39A9.55,9.55,0,0,0-335.28,5.88Zm31.8-2.68A33.11,33.11,0,0,0-310.81.15a8.72,8.72,0,0,0,.38-2.46A35.26,35.26,0,0,1-302,1.19,9.42,9.42,0,0,0-303.48,3.2ZM-312,2.73a30.17,30.17,0,0,1,7.56,3.15,9.49,9.49,0,0,0,1.66,7.46l-8.4,8.41a13.61,13.61,0,0,0-7.27-3V6.84A9.46,9.46,0,0,0-312,2.73Zm23.34,11.83a35.34,35.34,0,0,1,3.5,8.43,8.72,8.72,0,0,0-2.46.38,32.68,32.68,0,0,0-3-7.34A9.2,9.2,0,0,0-288.67,14.56ZM-290.49,3a6.67,6.67,0,0,1,0,9.41,6.72,6.72,0,0,1-9.39,0,6.75,6.75,0,0,1,0-9.41A6.7,6.7,0,0,1-290.49,3ZM-319.87-9.17a6.66,6.66,0,0,1,6.65,6.66,6.66,6.66,0,0,1-6.65,6.65,6.66,6.66,0,0,1-6.64-6.65,6.58,6.58,0,0,1,.11-1.19,1.3,1.3,0,0,0,.07-.33A6.66,6.66,0,0,1-319.87-9.17Zm-19.07,24.51,8.4,8.4a13.69,13.69,0,0,0-3,7.3h-11.85a9.51,9.51,0,0,0-4.1-6.47A30,30,0,0,1-346.38,17,9.53,9.53,0,0,0-338.94,15.34Zm-10.12.69a33.67,33.67,0,0,0-3.05,7.34,8.65,8.65,0,0,0-2.45-.38,35.34,35.34,0,0,1,3.5-8.43A9.29,9.29,0,0,0-349.06,16Zm-12.34,16.4a6.73,6.73,0,0,1,6.64-6.65,6.66,6.66,0,0,1,6.64,6.65,6.66,6.66,0,0,1-6.64,6.66A6.65,6.65,0,0,1-361.4,32.43Zm16.86,31.38a6.63,6.63,0,0,1-4.7-2,6.67,6.67,0,0,1,0-9.41,6.7,6.7,0,0,1,9.39,0,6.67,6.67,0,0,1,0,9.41A6.75,6.75,0,0,1-344.54,63.81Zm42.28,16.59a.44.44,0,0,1-.42.6H-337a.44.44,0,0,1-.42-.6l4.25-11.52a38.53,38.53,0,0,0,4.33,1.31,9.47,9.47,0,0,0,9,6.66,9.47,9.47,0,0,0,9-6.66,37.91,37.91,0,0,0,4.33-1.31Zm1.47-30.87-8.4-8.4a13.69,13.69,0,0,0,3-7.29h11.86a9.41,9.41,0,0,0,4.1,6.46,30.45,30.45,0,0,1-3.15,7.57,9.33,9.33,0,0,0-1.84-.18A9.39,9.39,0,0,0-300.79,49.53Zm10.12-.69a32.61,32.61,0,0,0,3-7.33,9.5,9.5,0,0,0,2.46.38,35.26,35.26,0,0,1-3.5,8.42A9.54,9.54,0,0,0-290.67,48.84Z"/></clipPath><clipPath id="clip-path-13"><path class="cls-2" d="M-596.4,86.36H-671a2.57,2.57,0,0,1-2.53-2.6V78.32a2.57,2.57,0,0,1,2.53-2.6h28.57a7,7,0,0,1-.67-2.08,6.79,6.79,0,0,1,1.41-5.3l.92-1.13a7.05,7.05,0,0,0,1.46-5.57l-.38-2.43h-11.24a6,6,0,0,1-5.89-6.15.94.94,0,0,0-.38-.78l-2.37-1.67a2.66,2.66,0,0,1-1-2.9,2.53,2.53,0,0,1,2.43-1.86h19.32V42.92h-6.46a6,6,0,0,1-5.89-6.15.93.93,0,0,0-.39-.79l-2.36-1.67a2.64,2.64,0,0,1-1-2.89,2.55,2.55,0,0,1,2.43-1.87h13.67V28.08a10.18,10.18,0,0,0-5.7-9.28l-.72-.34V16h23.07v2.49l-.73.34a10.18,10.18,0,0,0-5.7,9.28v1.47h13.67a2.55,2.55,0,0,1,2.43,1.88,2.62,2.62,0,0,1-1,2.88L-615.84,36a.93.93,0,0,0-.39.79,6,6,0,0,1-5.89,6.15h-6.46v2.93h19.32a2.55,2.55,0,0,1,2.43,1.87,2.65,2.65,0,0,1-1,2.89l-2.36,1.66a1,1,0,0,0-.39.79,6,6,0,0,1-5.89,6.15h-11.24l-.38,2.43a7,7,0,0,0,1.46,5.57l.92,1.13a6.82,6.82,0,0,1,1.41,5.3,7.06,7.06,0,0,1-.68,2.08h28.58a2.57,2.57,0,0,1,2.53,2.6v5.44A2.57,2.57,0,0,1-596.4,86.36ZM-671,78.22a.14.14,0,0,0,0,.1v5.44c0,.07,0,.1,0,.1h74.57a.14.14,0,0,0,0-.1V78.32a.13.13,0,0,0,0-.1h-35.06l3.09-2.26a4.12,4.12,0,0,0,1.61-2.7,4.3,4.3,0,0,0-.89-3.35l-.91-1.12a9.58,9.58,0,0,1-2-7.54l.71-4.54h13.38a3.53,3.53,0,0,0,3.39-3.65,3.43,3.43,0,0,1,1.45-2.83l2.36-1.67a.14.14,0,0,0,0-.15l-21.85-.06V40.42h9a3.53,3.53,0,0,0,3.39-3.65,3.46,3.46,0,0,1,1.45-2.84l2.36-1.66a.15.15,0,0,0,0-.15l-16.2-.07v-4a12.93,12.93,0,0,1,4.22-9.61h-13.65a12.92,12.92,0,0,1,4.21,9.61v4h-16.17c0,.13,0,.2,0,.22l2.36,1.66a3.46,3.46,0,0,1,1.45,2.84,3.53,3.53,0,0,0,3.39,3.65h9v7.93h-21.82c0,.13,0,.19,0,.22l2.36,1.66a3.43,3.43,0,0,1,1.45,2.83,3.53,3.53,0,0,0,3.39,3.65h13.38l.71,4.54a9.6,9.6,0,0,1-2,7.54l-.92,1.13a4.3,4.3,0,0,0-.88,3.34A4.07,4.07,0,0,0-639,76l3.07,2.26Z"/></clipPath><clipPath id="clip-path-14"><path class="cls-1" d="M-666.08,45.14a2.83,2.83,0,0,1,2.82-2.82,5.63,5.63,0,0,0,5.63-5.63v-7a2.82,2.82,0,0,1,2.82-2.81h8.45V24h-8.45a5.64,5.64,0,0,0-5.63,5.63v7a2.83,2.83,0,0,1-2.82,2.82,5.64,5.64,0,0,0-5.63,5.63V64.85h2.81Z"/></clipPath><clipPath id="clip-path-15"><path class="cls-2" d="M-633.69,13.55a2.14,2.14,0,0,1-1.85-1.05l-3.2-5.33a2.14,2.14,0,0,1,.33-2.64l3.19-3.2a2.21,2.21,0,0,1,3.06,0l3.2,3.2a2.15,2.15,0,0,1,.32,2.64l-3.19,5.33A2.17,2.17,0,0,1-633.69,13.55Zm0-2.19h0Zm-.06-8.47-3.14,3.2,3.17,5.23L-630.52,6Z"/></clipPath><clipPath id="clip-path-16"><path class="cls-1" d="M-621,24v2.82h8.45a2.81,2.81,0,0,1,2.82,2.81v7a5.64,5.64,0,0,0,5.63,5.64,2.82,2.82,0,0,1,2.82,2.81V64.86h2.81V45.14a5.63,5.63,0,0,0-5.63-5.63,2.81,2.81,0,0,1-2.81-2.82v-7A5.64,5.64,0,0,0-612.57,24Z"/></clipPath><clipPath id="clip-path-17"><path class="cls-1" d="M-615.38,14.16h2.81A8.45,8.45,0,0,0-621,5.72h-2.81V8.54H-621a5.64,5.64,0,0,1,5.64,5.62"/></clipPath><clipPath id="clip-path-18"><path class="cls-1" d="M-646.36,8.53h2.81V5.71h-2.81a8.47,8.47,0,0,0-8.45,8.45H-652a5.64,5.64,0,0,1,5.63-5.63"/></clipPath><clipPath id="clip-path-19"><path class="cls-1" d="M-166.52,73.05a4.39,4.39,0,0,1-3.11,1.26,4.4,4.4,0,0,1-3.11-1.26,7.47,7.47,0,0,0-5-1.9,7.46,7.46,0,0,0-5,1.9,4.36,4.36,0,0,1-3.1,1.26A4.39,4.39,0,0,1-189,73.05a7.43,7.43,0,0,0-5-1.9,7.47,7.47,0,0,0-5,1.9,4.36,4.36,0,0,1-3.1,1.26,3.93,3.93,0,0,1-1.82-.39V31.79h22.05v3.15h3.15V31.79h1.57a3.15,3.15,0,0,0,3.15-3.14V25.49a3.16,3.16,0,0,0-3.15-3.15h-.08A29.91,29.91,0,0,0-205.57-5.92V-7.57a4.73,4.73,0,0,0-4.72-4.73A4.73,4.73,0,0,0-215-7.57v1.65a29.89,29.89,0,0,0-28.25,28.26h-.09a3.16,3.16,0,0,0-3.15,3.15v3.16a3.15,3.15,0,0,0,3.15,3.14h1.58v3.15h3.15V31.79h22v42.1a3.94,3.94,0,0,1-1.86.42,4.39,4.39,0,0,1-3.11-1.26,7.43,7.43,0,0,0-5-1.9,7.47,7.47,0,0,0-5,1.9,4.34,4.34,0,0,1-3.1,1.26,4.4,4.4,0,0,1-3.1-1.25,7.38,7.38,0,0,0-5-1.91,7.42,7.42,0,0,0-5,1.9A4.4,4.4,0,0,1-251,74.31a4.36,4.36,0,0,1-3.1-1.26,7.43,7.43,0,0,0-5-1.9v3.16A4.42,4.42,0,0,1-256,75.55a7.44,7.44,0,0,0,5,1.9,7.4,7.4,0,0,0,5-1.9,4.39,4.39,0,0,1,3.1-1.24,4.42,4.42,0,0,1,3.11,1.24,7.37,7.37,0,0,0,5,1.9,7.42,7.42,0,0,0,5-1.9,4.39,4.39,0,0,1,3.1-1.24,4.37,4.37,0,0,1,3.1,1.24,7.43,7.43,0,0,0,5,1.9,7.42,7.42,0,0,0,5-1.9,4.39,4.39,0,0,1,3.1-1.24,4.42,4.42,0,0,1,3.11,1.24,7.38,7.38,0,0,0,5,1.9,7.42,7.42,0,0,0,5-1.9,4.39,4.39,0,0,1,3.1-1.24,4.42,4.42,0,0,1,3.11,1.24,7.42,7.42,0,0,0,5,1.9,7.42,7.42,0,0,0,5-1.9,4.4,4.4,0,0,1,3.11-1.24,4.39,4.39,0,0,1,3.1,1.24,7.45,7.45,0,0,0,5,1.9,7.43,7.43,0,0,0,5-1.9,4.4,4.4,0,0,1,3.11-1.24V71.15A7.46,7.46,0,0,0-166.52,73.05Zm-43.77-82.2a1.58,1.58,0,0,1,1.57,1.58V-6h-3.14V-7.57A1.57,1.57,0,0,1-210.29-9.15Zm-4.33,6.36a37.25,37.25,0,0,0-8.33,11.91l2.89,1.26A33.71,33.71,0,0,1-210.29-2.4a33.55,33.55,0,0,1,12.55,24.74h-25.09a34,34,0,0,1,1.62-8.95l-3-1A37.28,37.28,0,0,0-226,22.34h-14.15A26.76,26.76,0,0,1-214.62-2.79Zm-28.74,28.28h53.53V22.34h-4.76A36.67,36.67,0,0,0-205.95-2.79a26.78,26.78,0,0,1,25.5,25.13h-6.22v3.15h9.44v3.16h-66.13Zm33,45.66a7.2,7.2,0,0,0-3.13.66v-40h6.3V71.84A7,7,0,0,0-210.32,71.15Z"/></clipPath><clipPath id="clip-path-20"><path class="cls-1" d="M-169.63,82.18a4.42,4.42,0,0,1-3.11-1.25,7.43,7.43,0,0,0-5-1.91,7.42,7.42,0,0,0-5,1.91,4.4,4.4,0,0,1-3.1,1.25A4.44,4.44,0,0,1-189,80.93,7.4,7.4,0,0,0-194,79a7.4,7.4,0,0,0-5,1.91,4.42,4.42,0,0,1-3.11,1.25,4.4,4.4,0,0,1-3.1-1.25,7.4,7.4,0,0,0-5-1.91,7.4,7.4,0,0,0-5,1.91,4.4,4.4,0,0,1-3.1,1.25,4.42,4.42,0,0,1-3.11-1.25,7.39,7.39,0,0,0-5-1.91,7.41,7.41,0,0,0-5,1.91,4.38,4.38,0,0,1-3.1,1.25,4.42,4.42,0,0,1-3.1-1.25,7.39,7.39,0,0,0-5-1.91,7.38,7.38,0,0,0-5,1.91A4.42,4.42,0,0,1-251,82.18a4.37,4.37,0,0,1-3.09-1.25,7.42,7.42,0,0,0-5-1.91v3.16a4.39,4.39,0,0,1,3.1,1.24,7.37,7.37,0,0,0,5,1.9,7.38,7.38,0,0,0,5-1.9,4.42,4.42,0,0,1,3.11-1.24,4.41,4.41,0,0,1,3.1,1.24,7.35,7.35,0,0,0,5,1.9,7.42,7.42,0,0,0,5-1.9,4.42,4.42,0,0,1,3.11-1.24,4.37,4.37,0,0,1,3.09,1.24,7.45,7.45,0,0,0,5,1.9,7.42,7.42,0,0,0,5-1.9,4.39,4.39,0,0,1,3.1-1.24,4.43,4.43,0,0,1,3.11,1.24,7.39,7.39,0,0,0,5,1.9,7.43,7.43,0,0,0,5-1.9,4.39,4.39,0,0,1,3.1-1.24,4.42,4.42,0,0,1,3.11,1.24,7.38,7.38,0,0,0,5,1.9,7.42,7.42,0,0,0,5-1.9,4.39,4.39,0,0,1,3.1-1.24,4.4,4.4,0,0,1,3.11,1.24,7.43,7.43,0,0,0,5,1.9,7.38,7.38,0,0,0,5-1.9,4.44,4.44,0,0,1,3.12-1.24V79a7.43,7.43,0,0,0-5,1.91,4.4,4.4,0,0,1-3.11,1.25"/></clipPath><clipPath id="clip-path-21"><path class="cls-1" d="M-200.85,63.28A4.73,4.73,0,0,0-196.12,68a4.73,4.73,0,0,0,4.72-4.73V60.13h-3.15v3.15a1.57,1.57,0,0,1-1.57,1.57,1.57,1.57,0,0,1-1.58-1.57v-22h-3.15Z"/></clipPath><clipPath id="clip-path-22"><path class="cls-1" d="M-178.8,52.26V44.39H-182v7.87a1.57,1.57,0,0,1-1.57,1.57,1.58,1.58,0,0,1-1.57-1.57V39.66a4.73,4.73,0,0,0-4.73-4.72,4.73,4.73,0,0,0-4.72,4.72v4.73h3.15V39.66a1.58,1.58,0,0,1,1.57-1.57,1.58,1.58,0,0,1,1.58,1.57v12.6A4.72,4.72,0,0,0-183.53,57a4.72,4.72,0,0,0,4.73-4.72"/></clipPath><clipPath id="clip-path-23"><path class="cls-1" d="M-222.89,63.28a1.57,1.57,0,0,1-1.57,1.57A1.57,1.57,0,0,1-226,63.28V60.13h-3.15v3.15A4.73,4.73,0,0,0-224.46,68a4.73,4.73,0,0,0,4.72-4.73v-22h-3.15Z"/></clipPath><clipPath id="clip-path-24"><path class="cls-1" d="M-241.78,52.26A4.72,4.72,0,0,0-237.06,57a4.72,4.72,0,0,0,4.73-4.72V39.66a1.57,1.57,0,0,1,1.57-1.57,1.57,1.57,0,0,1,1.57,1.57v4.73H-226V39.66a4.73,4.73,0,0,0-4.72-4.72,4.73,4.73,0,0,0-4.73,4.72v12.6a1.57,1.57,0,0,1-1.57,1.57,1.57,1.57,0,0,1-1.57-1.57V44.39h-3.15Z"/></clipPath><clipPath id="clip-path-25"><path class="cls-1" d="M-251.23,63.28a18,18,0,0,1,5.64.91l5,1.66-2.65-6.64a8.51,8.51,0,0,0-7.94-5.38,4.73,4.73,0,0,0-4.72,4.73,4.72,4.72,0,0,0,4.72,4.72m0-6.3a5.4,5.4,0,0,1,5,3.4l.16.4a21,21,0,0,0-5.18-.64,1.58,1.58,0,0,1-1.57-1.58A1.57,1.57,0,0,1-251.23,57"/></clipPath><clipPath id="clip-path-26"><path class="cls-1" d="M-177.3,59.21l-2.65,6.64,4.95-1.66a18,18,0,0,1,5.64-.91,4.73,4.73,0,0,0,4.73-4.72,4.74,4.74,0,0,0-4.73-4.73A8.52,8.52,0,0,0-177.3,59.21Zm2.93,1.17a5.36,5.36,0,0,1,5-3.4,1.58,1.58,0,0,1,1.58,1.58,1.58,1.58,0,0,1-1.58,1.57,20.93,20.93,0,0,0-5.17.65Z"/></clipPath></defs><path class="cls-3" d="M-91.41,81.91h15.92V72H-91.41Zm17.9,4H-93.4a2,2,0,0,1-2-2V70a2,2,0,0,1,2-2h19.89a2,2,0,0,1,2,2V83.9A2,2,0,0,1-73.51,85.89Z"/><g class="cls-4"><rect class="cls-2" x="-1359.95" y="-3710.74" width="5804.01" height="4970.61"/></g><path class="cls-3" d="M-101.35,81.91h35.8V-5.61h-35.8Zm37.79,4h-39.78a2,2,0,0,1-2-2V-7.6a2,2,0,0,1,2-2h39.78a2,2,0,0,1,2,2V83.9A2,2,0,0,1-63.56,85.89Z"/><g class="cls-5"><rect class="cls-2" x="-1359.95" y="-3710.74" width="5804.01" height="4964.66"/></g><path class="cls-3" d="M-117.27,81.91h11.93V2.35h-11.93Zm13.93,4h-15.92a2,2,0,0,1-2-2V.35a2,2,0,0,1,2-2h15.92a2,2,0,0,1,2,2V83.9A2,2,0,0,1-103.34,85.89Z"/><g class="cls-6"><rect class="cls-2" x="-1359.95" y="-3710.74" width="5804.01" height="4964.66"/></g><path class="cls-3" d="M-61.57,81.91h11.93V2.35H-61.57Zm13.92,4H-63.56a2,2,0,0,1-2-2V.35a2,2,0,0,1,2-2h15.91a2,2,0,0,1,2,2V83.9A2,2,0,0,1-47.65,85.89Z"/><g class="cls-7"><rect class="cls-2" x="-1359.95" y="-3710.74" width="5804.01" height="4964.66"/></g><rect class="cls-2" x="-47.65" y="81.91" width="23.87" height="3.97"/><g class="cls-8"><rect class="cls-2" x="-77.41" y="52.15" width="83.4" height="63.5"/></g><rect class="cls-2" x="-135.17" y="42.13" width="3.98" height="19.89" transform="translate(-94.88 -85.7) rotate(-53.11)"/><g class="cls-9"><rect class="cls-2" x="-1359.95" y="-3710.74" width="5804.01" height="4964.66"/></g><rect class="cls-2" x="-143.13" y="50.08" width="19.89" height="3.98" transform="translate(-57.9 -69.51) rotate(-36.88)"/><g class="cls-10"><rect class="cls-2" x="-1359.95" y="-3710.74" width="5804.01" height="4964.66"/></g><rect class="cls-2" x="-35.71" y="42.13" width="3.97" height="19.89" transform="translate(-55.14 -6.15) rotate(-53.12)"/><g class="cls-11"><rect class="cls-2" x="-1359.95" y="-3710.74" width="5804.01" height="4964.66"/><g class="cls-12"><rect class="cls-2" x="-72.64" y="14.75" width="77.83" height="74.64"/></g></g><rect class="cls-2" x="-43.68" y="50.09" width="19.89" height="3.97" transform="translate(-37.97 -9.82) rotate(-36.85)"/><g class="cls-13"><rect class="cls-2" x="-1359.95" y="-3710.74" width="5804.01" height="4964.66"/><g class="cls-12"><rect class="cls-2" x="-72.64" y="14.76" width="77.83" height="74.64"/></g></g><path class="cls-3" d="M-275.52,32.43a9.46,9.46,0,0,0-6.65-9,38.25,38.25,0,0,0-4.67-11.27A9.49,9.49,0,0,0-288.51,1a9.38,9.38,0,0,0-6.68-2.76A9.29,9.29,0,0,0-299.6-.64a38.59,38.59,0,0,0-11.24-4.68,9.46,9.46,0,0,0-9-6.65,9.47,9.47,0,0,0-9,6.65A38.59,38.59,0,0,0-340.13-.64a9.43,9.43,0,0,0-7.17-.69,1.41,1.41,0,0,0,.82,2.69A6.62,6.62,0,0,1-339.85,3a6.67,6.67,0,0,1,0,9.41,6.72,6.72,0,0,1-9.39,0,6.66,6.66,0,0,1-1.45-7.23,1.4,1.4,0,0,0-2.6-1.06,9.48,9.48,0,0,0,.39,8,38.52,38.52,0,0,0-4.67,11.27,9.46,9.46,0,0,0-6.64,9,9.48,9.48,0,0,0,6.64,9,38.59,38.59,0,0,0,4.68,11.26,9.47,9.47,0,0,0,1.67,11.11,9.53,9.53,0,0,0,11.1,1.68,37.71,37.71,0,0,0,4.3,2.29l-4.28,11.62A3.3,3.3,0,0,0-337,83.81h34.37a3.3,3.3,0,0,0,3.05-4.38l-4.28-11.62a38.71,38.71,0,0,0,4.31-2.29,9.36,9.36,0,0,0,4.39,1.09,9.47,9.47,0,0,0,2.92-.46,1.4,1.4,0,0,0-.86-2.67,6.59,6.59,0,0,1-6.73-1.62,6.67,6.67,0,0,1,0-9.41,6.7,6.7,0,0,1,9.39,0A6.66,6.66,0,0,1-289,59.62a1.41,1.41,0,0,0,2.61,1,9.47,9.47,0,0,0-.43-7.93,38.19,38.19,0,0,0,4.67-11.26A9.47,9.47,0,0,0-275.52,32.43Zm-2.8,0A6.67,6.67,0,0,1-285,39.09a6.65,6.65,0,0,1-6.63-6.66A6.65,6.65,0,0,1-285,25.78,6.67,6.67,0,0,1-278.32,32.43Zm-16-1.39h-11.86a13.65,13.65,0,0,0-3-7.31l8.39-8.4A9.54,9.54,0,0,0-293.35,17a30.77,30.77,0,0,1,3.15,7.57A9.41,9.41,0,0,0-294.3,31Zm-11.83,34.68c-1.42.53-2.82,1.07-4.3,1.47a8.79,8.79,0,0,0-.38-2.47,33.56,33.56,0,0,0,7.33-3,9.67,9.67,0,0,0,1.47,2A29.7,29.7,0,0,1-306.13,65.72Zm-31.58-2a9.62,9.62,0,0,0,1.46-2,33.68,33.68,0,0,0,7.32,3,9.58,9.58,0,0,0-.38,2.47A35.54,35.54,0,0,1-337.71,63.69Zm-13.36-13.38a35.65,35.65,0,0,1-3.49-8.42,9.43,9.43,0,0,0,2.45-.38,33.59,33.59,0,0,0,3.05,7.33A9.6,9.6,0,0,0-351.07,50.31Zm4.69-2.44a29.69,29.69,0,0,1-3.14-7.57,9.51,9.51,0,0,0,4.1-6.46h11.85a13.61,13.61,0,0,0,3,7.27L-339,49.52A9.56,9.56,0,0,0-346.38,47.87ZM-321.27,58a9.42,9.42,0,0,0-6.45,4.11A31.12,31.12,0,0,1-335.28,59,9.51,9.51,0,0,0-337,51.5l8.4-8.39a13.67,13.67,0,0,0,7.3,3Zm1.4,2.7a6.65,6.65,0,0,1,6.65,6.65A6.65,6.65,0,0,1-319.87,74a6.65,6.65,0,0,1-6.64-6.65A6.65,6.65,0,0,1-319.87,60.74ZM-304.45,59A30.54,30.54,0,0,1-312,62.14a9.44,9.44,0,0,0-6.45-4.1V46.14a13.6,13.6,0,0,0,7.29-3l8.4,8.4A9.48,9.48,0,0,0-304.45,59Zm-15.42-15.58a11,11,0,0,1-11-11,11,11,0,0,1,11-11,11,11,0,0,1,11,11A11,11,0,0,1-319.87,43.41ZM-328.93.15a33.23,33.23,0,0,0-7.32,3.05,8.86,8.86,0,0,0-1.47-2,35.36,35.36,0,0,1,8.41-3.5A10,10,0,0,0-328.93.15Zm-6.35,5.73a30.32,30.32,0,0,1,7.56-3.15,9.46,9.46,0,0,0,6.45,4.11V18.73a13.82,13.82,0,0,0-7.29,3l-8.39-8.39A9.55,9.55,0,0,0-335.28,5.88Zm31.8-2.68A33.11,33.11,0,0,0-310.81.15a8.72,8.72,0,0,0,.38-2.46A35.26,35.26,0,0,1-302,1.19,9.42,9.42,0,0,0-303.48,3.2ZM-312,2.73a30.17,30.17,0,0,1,7.56,3.15,9.49,9.49,0,0,0,1.66,7.46l-8.4,8.41a13.61,13.61,0,0,0-7.27-3V6.84A9.46,9.46,0,0,0-312,2.73Zm23.34,11.83a35.34,35.34,0,0,1,3.5,8.43,8.72,8.72,0,0,0-2.46.38,32.68,32.68,0,0,0-3-7.34A9.2,9.2,0,0,0-288.67,14.56ZM-290.49,3a6.67,6.67,0,0,1,0,9.41,6.72,6.72,0,0,1-9.39,0,6.75,6.75,0,0,1,0-9.41A6.7,6.7,0,0,1-290.49,3ZM-319.87-9.17a6.66,6.66,0,0,1,6.65,6.66,6.66,6.66,0,0,1-6.65,6.65,6.66,6.66,0,0,1-6.64-6.65,6.58,6.58,0,0,1,.11-1.19,1.3,1.3,0,0,0,.07-.33A6.66,6.66,0,0,1-319.87-9.17Zm-19.07,24.51,8.4,8.4a13.69,13.69,0,0,0-3,7.3h-11.85a9.51,9.51,0,0,0-4.1-6.47A30,30,0,0,1-346.38,17,9.53,9.53,0,0,0-338.94,15.34Zm-10.12.69a33.67,33.67,0,0,0-3.05,7.34,8.65,8.65,0,0,0-2.45-.38,35.34,35.34,0,0,1,3.5-8.43A9.29,9.29,0,0,0-349.06,16Zm-12.34,16.4a6.73,6.73,0,0,1,6.64-6.65,6.66,6.66,0,0,1,6.64,6.65,6.66,6.66,0,0,1-6.64,6.66A6.65,6.65,0,0,1-361.4,32.43Zm16.86,31.38a6.63,6.63,0,0,1-4.7-2,6.67,6.67,0,0,1,0-9.41,6.7,6.7,0,0,1,9.39,0,6.67,6.67,0,0,1,0,9.41A6.75,6.75,0,0,1-344.54,63.81Zm42.28,16.59a.44.44,0,0,1-.42.6H-337a.44.44,0,0,1-.42-.6l4.25-11.52a38.53,38.53,0,0,0,4.33,1.31,9.47,9.47,0,0,0,9,6.66,9.47,9.47,0,0,0,9-6.66,37.91,37.91,0,0,0,4.33-1.31Zm1.47-30.87-8.4-8.4a13.69,13.69,0,0,0,3-7.29h11.86a9.41,9.41,0,0,0,4.1,6.46,30.45,30.45,0,0,1-3.15,7.57,9.33,9.33,0,0,0-1.84-.18A9.39,9.39,0,0,0-300.79,49.53Zm10.12-.69a32.61,32.61,0,0,0,3-7.33,9.5,9.5,0,0,0,2.46.38,35.26,35.26,0,0,1-3.5,8.42A9.54,9.54,0,0,0-290.67,48.84Z"/><g class="cls-14"><rect class="cls-2" x="-4884.19" y="-2227.34" width="5391.41" height="4611.73"/></g><path class="cls-2" d="M-596.4,86.36H-671a2.57,2.57,0,0,1-2.53-2.6V78.32a2.57,2.57,0,0,1,2.53-2.6h28.57a7,7,0,0,1-.67-2.08,6.79,6.79,0,0,1,1.41-5.3l.92-1.13a7.05,7.05,0,0,0,1.46-5.57l-.38-2.43h-11.24a6,6,0,0,1-5.89-6.15.94.94,0,0,0-.38-.78l-2.37-1.67a2.66,2.66,0,0,1-1-2.9,2.53,2.53,0,0,1,2.43-1.86h19.32V42.92h-6.46a6,6,0,0,1-5.89-6.15.93.93,0,0,0-.39-.79l-2.36-1.67a2.64,2.64,0,0,1-1-2.89,2.55,2.55,0,0,1,2.43-1.87h13.67V28.08a10.18,10.18,0,0,0-5.7-9.28l-.72-.34V16h23.07v2.49l-.73.34a10.18,10.18,0,0,0-5.7,9.28v1.47h13.67a2.55,2.55,0,0,1,2.43,1.88,2.62,2.62,0,0,1-1,2.88L-615.84,36a.93.93,0,0,0-.39.79,6,6,0,0,1-5.89,6.15h-6.46v2.93h19.32a2.55,2.55,0,0,1,2.43,1.87,2.65,2.65,0,0,1-1,2.89l-2.36,1.66a1,1,0,0,0-.39.79,6,6,0,0,1-5.89,6.15h-11.24l-.38,2.43a7,7,0,0,0,1.46,5.57l.92,1.13a6.82,6.82,0,0,1,1.41,5.3,7.06,7.06,0,0,1-.68,2.08h28.58a2.57,2.57,0,0,1,2.53,2.6v5.44A2.57,2.57,0,0,1-596.4,86.36ZM-671,78.22a.14.14,0,0,0,0,.1v5.44c0,.07,0,.1,0,.1h74.57a.14.14,0,0,0,0-.1V78.32a.13.13,0,0,0,0-.1h-35.06l3.09-2.26a4.12,4.12,0,0,0,1.61-2.7,4.3,4.3,0,0,0-.89-3.35l-.91-1.12a9.58,9.58,0,0,1-2-7.54l.71-4.54h13.38a3.53,3.53,0,0,0,3.39-3.65,3.43,3.43,0,0,1,1.45-2.83l2.36-1.67a.14.14,0,0,0,0-.15l-21.85-.06V40.42h9a3.53,3.53,0,0,0,3.39-3.65,3.46,3.46,0,0,1,1.45-2.84l2.36-1.66a.15.15,0,0,0,0-.15l-16.2-.07v-4a12.93,12.93,0,0,1,4.22-9.61h-13.65a12.92,12.92,0,0,1,4.21,9.61v4h-16.17c0,.13,0,.2,0,.22l2.36,1.66a3.46,3.46,0,0,1,1.45,2.84,3.53,3.53,0,0,0,3.39,3.65h9v7.93h-21.82c0,.13,0,.19,0,.22l2.36,1.66a3.43,3.43,0,0,1,1.45,2.83,3.53,3.53,0,0,0,3.39,3.65h13.38l.71,4.54a9.6,9.6,0,0,1-2,7.54l-.92,1.13a4.3,4.3,0,0,0-.88,3.34A4.07,4.07,0,0,0-639,76l3.07,2.26Z"/><g class="cls-15"><path class="cls-2" d="M1789.24,1870.24H-3088.11V-2536H1789.24Zm-4874.35-3H1786.24V-2533H-3085.11Z"/></g><path class="cls-3" d="M-666.08,45.14a2.83,2.83,0,0,1,2.82-2.82,5.63,5.63,0,0,0,5.63-5.63v-7a2.82,2.82,0,0,1,2.82-2.81h8.45V24h-8.45a5.64,5.64,0,0,0-5.63,5.63v7a2.83,2.83,0,0,1-2.82,2.82,5.64,5.64,0,0,0-5.63,5.63V64.85h2.81Z"/><g class="cls-16"><rect class="cls-2" x="-3319.93" y="-2631.91" width="5338.01" height="4566.05"/></g><path class="cls-2" d="M-633.69,13.55a2.14,2.14,0,0,1-1.85-1.05l-3.2-5.33a2.14,2.14,0,0,1,.33-2.64l3.19-3.2a2.21,2.21,0,0,1,3.06,0l3.2,3.2a2.15,2.15,0,0,1,.32,2.64l-3.19,5.33A2.17,2.17,0,0,1-633.69,13.55Zm0-2.19h0Zm-.06-8.47-3.14,3.2,3.17,5.23L-630.52,6Z"/><g class="cls-17"><path class="cls-2" d="M1373.43,1466H-2666.89V-1990.36H1373.43Zm-4038.12-2.2H1371.23V-1988.16H-2664.69Z"/></g><path class="cls-3" d="M-621,24v2.82h8.45a2.81,2.81,0,0,1,2.82,2.81v7a5.64,5.64,0,0,0,5.63,5.64,2.82,2.82,0,0,1,2.82,2.81V64.86h2.81V45.14a5.63,5.63,0,0,0-5.63-5.63,2.81,2.81,0,0,1-2.81-2.82v-7A5.64,5.64,0,0,0-612.57,24Z"/><g class="cls-18"><rect class="cls-2" x="-3319.93" y="-2631.91" width="5338.01" height="4566.05"/></g><path class="cls-3" d="M-615.38,14.16h2.81A8.45,8.45,0,0,0-621,5.72h-2.81V8.54H-621a5.64,5.64,0,0,1,5.64,5.62"/><g class="cls-19"><rect class="cls-2" x="-3319.93" y="-2631.91" width="5338.01" height="4566.05"/></g><path class="cls-3" d="M-646.36,8.53h2.81V5.71h-2.81a8.47,8.47,0,0,0-8.45,8.45H-652a5.64,5.64,0,0,1,5.63-5.63"/><g class="cls-20"><rect class="cls-2" x="-3319.93" y="-2631.91" width="5338.01" height="4566.05"/></g><path class="cls-3" d="M-166.52,73.05a4.39,4.39,0,0,1-3.11,1.26,4.4,4.4,0,0,1-3.11-1.26,7.47,7.47,0,0,0-5-1.9,7.46,7.46,0,0,0-5,1.9,4.36,4.36,0,0,1-3.1,1.26A4.39,4.39,0,0,1-189,73.05a7.43,7.43,0,0,0-5-1.9,7.47,7.47,0,0,0-5,1.9,4.36,4.36,0,0,1-3.1,1.26,3.93,3.93,0,0,1-1.82-.39V31.79h22.05v3.15h3.15V31.79h1.57a3.15,3.15,0,0,0,3.15-3.14V25.49a3.16,3.16,0,0,0-3.15-3.15h-.08A29.91,29.91,0,0,0-205.57-5.92V-7.57a4.73,4.73,0,0,0-4.72-4.73A4.73,4.73,0,0,0-215-7.57v1.65a29.89,29.89,0,0,0-28.25,28.26h-.09a3.16,3.16,0,0,0-3.15,3.15v3.16a3.15,3.15,0,0,0,3.15,3.14h1.58v3.15h3.15V31.79h22v42.1a3.94,3.94,0,0,1-1.86.42,4.39,4.39,0,0,1-3.11-1.26,7.43,7.43,0,0,0-5-1.9,7.47,7.47,0,0,0-5,1.9,4.34,4.34,0,0,1-3.1,1.26,4.4,4.4,0,0,1-3.1-1.25,7.38,7.38,0,0,0-5-1.91,7.42,7.42,0,0,0-5,1.9A4.4,4.4,0,0,1-251,74.31a4.36,4.36,0,0,1-3.1-1.26,7.43,7.43,0,0,0-5-1.9v3.16A4.42,4.42,0,0,1-256,75.55a7.44,7.44,0,0,0,5,1.9,7.4,7.4,0,0,0,5-1.9,4.39,4.39,0,0,1,3.1-1.24,4.42,4.42,0,0,1,3.11,1.24,7.37,7.37,0,0,0,5,1.9,7.42,7.42,0,0,0,5-1.9,4.39,4.39,0,0,1,3.1-1.24,4.37,4.37,0,0,1,3.1,1.24,7.43,7.43,0,0,0,5,1.9,7.42,7.42,0,0,0,5-1.9,4.39,4.39,0,0,1,3.1-1.24,4.42,4.42,0,0,1,3.11,1.24,7.38,7.38,0,0,0,5,1.9,7.42,7.42,0,0,0,5-1.9,4.39,4.39,0,0,1,3.1-1.24,4.42,4.42,0,0,1,3.11,1.24,7.42,7.42,0,0,0,5,1.9,7.42,7.42,0,0,0,5-1.9,4.4,4.4,0,0,1,3.11-1.24,4.39,4.39,0,0,1,3.1,1.24,7.45,7.45,0,0,0,5,1.9,7.43,7.43,0,0,0,5-1.9,4.4,4.4,0,0,1,3.11-1.24V71.15A7.46,7.46,0,0,0-166.52,73.05Zm-43.77-82.2a1.58,1.58,0,0,1,1.57,1.58V-6h-3.14V-7.57A1.57,1.57,0,0,1-210.29-9.15Zm-4.33,6.36a37.25,37.25,0,0,0-8.33,11.91l2.89,1.26A33.71,33.71,0,0,1-210.29-2.4a33.55,33.55,0,0,1,12.55,24.74h-25.09a34,34,0,0,1,1.62-8.95l-3-1A37.28,37.28,0,0,0-226,22.34h-14.15A26.76,26.76,0,0,1-214.62-2.79Zm-28.74,28.28h53.53V22.34h-4.76A36.67,36.67,0,0,0-205.95-2.79a26.78,26.78,0,0,1,25.5,25.13h-6.22v3.15h9.44v3.16h-66.13Zm33,45.66a7.2,7.2,0,0,0-3.13.66v-40h6.3V71.84A7,7,0,0,0-210.32,71.15Z"/><g class="cls-21"><rect class="cls-2" x="-3007.12" y="-2414.28" width="5224.37" height="4468.85"/></g><path class="cls-3" d="M-169.63,82.18a4.42,4.42,0,0,1-3.11-1.25,7.43,7.43,0,0,0-5-1.91,7.42,7.42,0,0,0-5,1.91,4.4,4.4,0,0,1-3.1,1.25A4.44,4.44,0,0,1-189,80.93,7.4,7.4,0,0,0-194,79a7.4,7.4,0,0,0-5,1.91,4.42,4.42,0,0,1-3.11,1.25,4.4,4.4,0,0,1-3.1-1.25,7.4,7.4,0,0,0-5-1.91,7.4,7.4,0,0,0-5,1.91,4.4,4.4,0,0,1-3.1,1.25,4.42,4.42,0,0,1-3.11-1.25,7.39,7.39,0,0,0-5-1.91,7.41,7.41,0,0,0-5,1.91,4.38,4.38,0,0,1-3.1,1.25,4.42,4.42,0,0,1-3.1-1.25,7.39,7.39,0,0,0-5-1.91,7.38,7.38,0,0,0-5,1.91A4.42,4.42,0,0,1-251,82.18a4.37,4.37,0,0,1-3.09-1.25,7.42,7.42,0,0,0-5-1.91v3.16a4.39,4.39,0,0,1,3.1,1.24,7.37,7.37,0,0,0,5,1.9,7.38,7.38,0,0,0,5-1.9,4.42,4.42,0,0,1,3.11-1.24,4.41,4.41,0,0,1,3.1,1.24,7.35,7.35,0,0,0,5,1.9,7.42,7.42,0,0,0,5-1.9,4.42,4.42,0,0,1,3.11-1.24,4.37,4.37,0,0,1,3.09,1.24,7.45,7.45,0,0,0,5,1.9,7.42,7.42,0,0,0,5-1.9,4.39,4.39,0,0,1,3.1-1.24,4.43,4.43,0,0,1,3.11,1.24,7.39,7.39,0,0,0,5,1.9,7.43,7.43,0,0,0,5-1.9,4.39,4.39,0,0,1,3.1-1.24,4.42,4.42,0,0,1,3.11,1.24,7.38,7.38,0,0,0,5,1.9,7.42,7.42,0,0,0,5-1.9,4.39,4.39,0,0,1,3.1-1.24,4.4,4.4,0,0,1,3.11,1.24,7.43,7.43,0,0,0,5,1.9,7.38,7.38,0,0,0,5-1.9,4.44,4.44,0,0,1,3.12-1.24V79a7.43,7.43,0,0,0-5,1.91,4.4,4.4,0,0,1-3.11,1.25"/><g class="cls-22"><rect class="cls-2" x="-3007.12" y="-2414.28" width="5224.37" height="4468.85"/></g><path class="cls-3" d="M-200.85,63.28A4.73,4.73,0,0,0-196.12,68a4.73,4.73,0,0,0,4.72-4.73V60.13h-3.15v3.15a1.57,1.57,0,0,1-1.57,1.57,1.57,1.57,0,0,1-1.58-1.57v-22h-3.15Z"/><g class="cls-23"><rect class="cls-2" x="-3007.12" y="-2414.28" width="5224.37" height="4468.85"/></g><path class="cls-3" d="M-178.8,52.26V44.39H-182v7.87a1.57,1.57,0,0,1-1.57,1.57,1.58,1.58,0,0,1-1.57-1.57V39.66a4.73,4.73,0,0,0-4.73-4.72,4.73,4.73,0,0,0-4.72,4.72v4.73h3.15V39.66a1.58,1.58,0,0,1,1.57-1.57,1.58,1.58,0,0,1,1.58,1.57v12.6A4.72,4.72,0,0,0-183.53,57a4.72,4.72,0,0,0,4.73-4.72"/><g class="cls-24"><rect class="cls-2" x="-3007.12" y="-2414.28" width="5224.37" height="4468.85"/></g><path class="cls-3" d="M-222.89,63.28a1.57,1.57,0,0,1-1.57,1.57A1.57,1.57,0,0,1-226,63.28V60.13h-3.15v3.15A4.73,4.73,0,0,0-224.46,68a4.73,4.73,0,0,0,4.72-4.73v-22h-3.15Z"/><g class="cls-25"><rect class="cls-2" x="-3007.12" y="-2414.28" width="5224.37" height="4468.85"/></g><path class="cls-3" d="M-241.78,52.26A4.72,4.72,0,0,0-237.06,57a4.72,4.72,0,0,0,4.73-4.72V39.66a1.57,1.57,0,0,1,1.57-1.57,1.57,1.57,0,0,1,1.57,1.57v4.73H-226V39.66a4.73,4.73,0,0,0-4.72-4.72,4.73,4.73,0,0,0-4.73,4.72v12.6a1.57,1.57,0,0,1-1.57,1.57,1.57,1.57,0,0,1-1.57-1.57V44.39h-3.15Z"/><g class="cls-26"><rect class="cls-2" x="-3007.12" y="-2414.28" width="5224.37" height="4468.85"/></g><path class="cls-3" d="M-251.23,63.28a18,18,0,0,1,5.64.91l5,1.66-2.65-6.64a8.51,8.51,0,0,0-7.94-5.38,4.73,4.73,0,0,0-4.72,4.73,4.72,4.72,0,0,0,4.72,4.72m0-6.3a5.4,5.4,0,0,1,5,3.4l.16.4a21,21,0,0,0-5.18-.64,1.58,1.58,0,0,1-1.57-1.58A1.57,1.57,0,0,1-251.23,57"/><g class="cls-27"><rect class="cls-2" x="-3007.12" y="-2414.28" width="5224.37" height="4468.85"/></g><path class="cls-3" d="M-177.3,59.21l-2.65,6.64,4.95-1.66a18,18,0,0,1,5.64-.91,4.73,4.73,0,0,0,4.73-4.72,4.74,4.74,0,0,0-4.73-4.73A8.52,8.52,0,0,0-177.3,59.21Zm2.93,1.17a5.36,5.36,0,0,1,5-3.4,1.58,1.58,0,0,1,1.58,1.58,1.58,1.58,0,0,1-1.58,1.57,20.93,20.93,0,0,0-5.17.65Z"/><g class="cls-28"><rect class="cls-2" x="-3007.12" y="-2414.28" width="5224.37" height="4468.85"/></g><path class="cls-2" d="M100.5,15.27H82.81v-5A3.69,3.69,0,0,0,79.12,6.6H76.33V3a3,3,0,0,0-3-3H39.74a3,3,0,0,0-3,3v3.6H34a3.69,3.69,0,0,0-3.69,3.69V18l-17.4,8a.23.23,0,0,0-.11,0L4,30l0,0C2.27,30.76,0,31.81,0,34.46V85.52A2.47,2.47,0,0,0,2.46,88h98a2.67,2.67,0,0,0,2.66-2.67V17.93A2.67,2.67,0,0,0,100.5,15.27ZM30.26,76.73H14.11V72.1H30.26Zm0-16.54H14.11V55.56H30.26Zm0-16.54H14.11V39H30.26Zm0-7.66H13.57a2.5,2.5,0,0,0-2.5,2.5v5.7a2.51,2.51,0,0,0,2.5,2.51H30.26v5.82H13.57A2.51,2.51,0,0,0,11.07,55v5.69a2.51,2.51,0,0,0,2.5,2.52H30.26v5.82H13.57a2.5,2.5,0,0,0-2.5,2.5v5.7a2.51,2.51,0,0,0,2.5,2.51H30.26v5.17H3V34.46c0-.6.54-1,2.16-1.69l7-3.2h0l18-8.21ZM55,84.94H48.27V69.77H55Zm9.79,0H58.06V69.77H64.8Zm15,0H67.84V69.77h3.21a1.53,1.53,0,0,0,0-3H42a1.53,1.53,0,0,0,0,3h3.21V84.94H33.3V10.29A.66.66,0,0,1,34,9.64l19.37,0a1.52,1.52,0,1,0,0-3h0l-13.52,0V3H73.28V6.6H60.36a1.52,1.52,0,1,0,0,3H79.12a.66.66,0,0,1,.65.65Zm3-56.48h8.32v4.62H82.81Zm0,16.53h8.32v4.63H82.81Zm0,16.54h8.32v4.62H82.81Zm17.3,23.41H82.81V69.19h8.85a2.51,2.51,0,0,0,2.51-2.5V61a2.52,2.52,0,0,0-2.51-2.51H82.81V52.66h8.85a2.51,2.51,0,0,0,2.51-2.5v-5.7A2.52,2.52,0,0,0,91.66,42H82.81V36.13h8.85a2.52,2.52,0,0,0,2.51-2.51v-5.7a2.52,2.52,0,0,0-2.51-2.51H82.81V18.32h17.3ZM12.28,29.57c-.21.09.21,0,0,0Z"/><path class="cls-2" d="M51.26,15.28h-9.1a2.12,2.12,0,0,0-2.11,2.11v6.93a2.12,2.12,0,0,0,2.11,2.11h9.1a2.11,2.11,0,0,0,2.1-2.11V17.39A2.11,2.11,0,0,0,51.26,15.28Zm-.94,8.1H43.09V18.32h7.23Z"/><path class="cls-2" d="M70.91,15.28h-9.1a2.11,2.11,0,0,0-2.1,2.11v6.93a2.11,2.11,0,0,0,2.1,2.11h9.1A2.12,2.12,0,0,0,73,24.32V17.39A2.12,2.12,0,0,0,70.91,15.28ZM70,23.38H62.75V18.32H70Z"/><path class="cls-2" d="M51.26,31.24h-9.1a2.12,2.12,0,0,0-2.11,2.12v6.92a2.12,2.12,0,0,0,2.11,2.11h9.1a2.11,2.11,0,0,0,2.1-2.11V33.36A2.11,2.11,0,0,0,51.26,31.24Zm-.94,8.11H43.09V34.29h7.23Z"/><path class="cls-2" d="M70.91,31.24h-9.1a2.11,2.11,0,0,0-2.1,2.12v6.92a2.11,2.11,0,0,0,2.1,2.11h9.1A2.12,2.12,0,0,0,73,40.28V33.36A2.12,2.12,0,0,0,70.91,31.24ZM70,39.35H62.75V34.29H70Z"/><path class="cls-2" d="M51.26,47.21h-9.1a2.12,2.12,0,0,0-2.11,2.11v6.93a2.12,2.12,0,0,0,2.11,2.11h9.1a2.11,2.11,0,0,0,2.1-2.11V49.32A2.11,2.11,0,0,0,51.26,47.21Zm-.94,8.11H43.09V50.26h7.23Z"/><path class="cls-2" d="M70.91,47.21h-9.1a2.11,2.11,0,0,0-2.1,2.11v6.93a2.11,2.11,0,0,0,2.1,2.11h9.1A2.12,2.12,0,0,0,73,56.25V49.32A2.12,2.12,0,0,0,70.91,47.21ZM70,55.32H62.75V50.26H70Z"/></svg>