<svg id="Layer_1" data-name="Layer 1" xmlns="http://www.w3.org/2000/svg" xmlns:xlink="http://www.w3.org/1999/xlink" viewBox="0 0 87.11 87.11"><defs><style>.cls-1,.cls-2,.cls-4{fill:#fff;}.cls-1{clip-rule:evenodd;}.cls-3{fill:none;}.cls-4{fill-rule:evenodd;}.cls-5{clip-path:url(#clip-path);}.cls-6{clip-path:url(#clip-path-2);}.cls-7{clip-path:url(#clip-path-3);}.cls-8{clip-path:url(#clip-path-4);}.cls-9{clip-path:url(#clip-path-5);}.cls-10{clip-path:url(#clip-path-6);}.cls-11{clip-path:url(#clip-path-7);}.cls-12{clip-path:url(#clip-path-8);}.cls-13{clip-path:url(#clip-path-9);}.cls-14{clip-path:url(#clip-path-10);}.cls-15{clip-path:url(#clip-path-11);}.cls-16{clip-path:url(#clip-path-12);}.cls-17{clip-path:url(#clip-path-13);}.cls-18{clip-path:url(#clip-path-14);}.cls-19{clip-path:url(#clip-path-15);}.cls-20{clip-path:url(#clip-path-16);}.cls-21{clip-path:url(#clip-path-17);}.cls-22{clip-path:url(#clip-path-18);}.cls-23{clip-path:url(#clip-path-19);}.cls-24{clip-path:url(#clip-path-20);}.cls-25{clip-path:url(#clip-path-21);}.cls-26{clip-path:url(#clip-path-22);}.cls-27{clip-path:url(#clip-path-23);}</style><clipPath id="clip-path"><path class="cls-1" d="M-736.52,82.74h15.92V72.79h-15.92Zm17.9,4h-19.89a2,2,0,0,1-2-2V70.8a2,2,0,0,1,2-2h19.89a2,2,0,0,1,2,2V84.73A2,2,0,0,1-718.62,86.71Z"/></clipPath><clipPath id="clip-path-2"><path class="cls-1" d="M-746.46,82.74h35.8V-4.78h-35.8Zm37.79,4h-39.78a2,2,0,0,1-2-2V-6.78a2,2,0,0,1,2-2h39.78a2,2,0,0,1,2,2V84.73A2,2,0,0,1-708.67,86.71Z"/></clipPath><clipPath id="clip-path-3"><path class="cls-1" d="M-762.37,82.74h11.92V3.17h-11.92Zm13.92,4h-15.92a2,2,0,0,1-2-2V1.18a2,2,0,0,1,2-2h15.92a2,2,0,0,1,2,2V84.73A2,2,0,0,1-748.45,86.71Z"/></clipPath><clipPath id="clip-path-4"><path class="cls-1" d="M-706.68,82.74h11.93V3.17h-11.93Zm13.92,4h-15.91a2,2,0,0,1-2-2V1.18a2,2,0,0,1,2-2h15.91a2,2,0,0,1,2,2V84.73A2,2,0,0,1-692.76,86.71Z"/></clipPath><clipPath id="clip-path-5"><rect class="cls-2" x="-780.28" y="42.96" width="3.98" height="19.89" transform="translate(-353.41 -601.32) rotate(-53.11)"/></clipPath><clipPath id="clip-path-6"><rect class="cls-2" x="-788.24" y="50.91" width="19.89" height="3.98" transform="translate(-187.47 -456.48) rotate(-36.88)"/></clipPath><clipPath id="clip-path-7"><rect class="cls-2" x="-680.82" y="42.95" width="3.97" height="19.89" transform="translate(-313.73 -521.83) rotate(-53.12)"/></clipPath><clipPath id="clip-path-8"><rect class="cls-2" x="-688.78" y="50.92" width="19.89" height="3.97" transform="translate(-167.34 -396.52) rotate(-36.85)"/></clipPath><clipPath id="clip-path-9"><path class="cls-2" d="M-1241.51,87.19h-74.57a2.58,2.58,0,0,1-2.54-2.6V79.15a2.58,2.58,0,0,1,2.54-2.6h28.56a7.24,7.24,0,0,1-.67-2.08,6.78,6.78,0,0,1,1.42-5.3l.91-1.13a7.06,7.06,0,0,0,1.46-5.57l-.38-2.44H-1296a6,6,0,0,1-5.89-6.14,1,1,0,0,0-.38-.79l-2.37-1.67a2.65,2.65,0,0,1-1-2.89,2.54,2.54,0,0,1,2.43-1.87h19.32V43.74h-6.46a6,6,0,0,1-5.89-6.14,1,1,0,0,0-.38-.8l-2.37-1.66a2.65,2.65,0,0,1-1-2.89,2.55,2.55,0,0,1,2.43-1.87h13.67V28.91a10.15,10.15,0,0,0-5.7-9.28l-.72-.34V16.8h23.07v2.49l-.73.34a10.17,10.17,0,0,0-5.7,9.28v1.47H-1260a2.55,2.55,0,0,1,2.43,1.88,2.61,2.61,0,0,1-1,2.88l-2.36,1.66a1,1,0,0,0-.39.8,6,6,0,0,1-5.89,6.14h-6.46v2.93h19.32a2.55,2.55,0,0,1,2.43,1.88,2.62,2.62,0,0,1-1,2.88l-2.36,1.67a.94.94,0,0,0-.39.79,6,6,0,0,1-5.89,6.14h-11.24l-.38,2.44a7,7,0,0,0,1.46,5.57l.92,1.13a6.77,6.77,0,0,1,1.41,5.3,6.87,6.87,0,0,1-.68,2.08h28.58a2.57,2.57,0,0,1,2.53,2.6v5.44A2.57,2.57,0,0,1-1241.51,87.19Zm-74.57-8.14a.13.13,0,0,0,0,.1v5.44c0,.07,0,.1,0,.1h74.57a.14.14,0,0,0,0-.1V79.15a.13.13,0,0,0,0-.1h-35.06l3.1-2.26a4.18,4.18,0,0,0,1.6-2.7,4.33,4.33,0,0,0-.88-3.35l-.92-1.13a9.55,9.55,0,0,1-2-7.53l.71-4.55h13.38a3.52,3.52,0,0,0,3.39-3.64,3.46,3.46,0,0,1,1.45-2.84l2.36-1.66a.15.15,0,0,0,0-.15l-21.85-.07V41.24h9a3.52,3.52,0,0,0,3.39-3.64,3.46,3.46,0,0,1,1.45-2.84l2.36-1.66a.16.16,0,0,0,0-.16l-16.2-.06v-4A12.93,12.93,0,0,1-1272,19.3h-13.65a12.92,12.92,0,0,1,4.21,9.61v4h-16.17c-.05.13,0,.2,0,.22l2.36,1.66a3.46,3.46,0,0,1,1.45,2.84,3.52,3.52,0,0,0,3.39,3.64h9v7.93h-21.82c0,.13,0,.2,0,.22l2.36,1.67a3.43,3.43,0,0,1,1.45,2.83,3.52,3.52,0,0,0,3.39,3.64h13.38l.71,4.55a9.57,9.57,0,0,1-2,7.53l-.91,1.13a4.3,4.3,0,0,0-.89,3.35,4.09,4.09,0,0,0,1.61,2.7l3.06,2.26Z"/></clipPath><clipPath id="clip-path-10"><path class="cls-1" d="M-1311.19,46a2.82,2.82,0,0,1,2.82-2.82,5.63,5.63,0,0,0,5.63-5.63v-7a2.83,2.83,0,0,1,2.82-2.82h8.45V24.85h-8.45a5.63,5.63,0,0,0-5.63,5.63v7a2.83,2.83,0,0,1-2.82,2.82A5.64,5.64,0,0,0-1314,46V65.68h2.81Z"/></clipPath><clipPath id="clip-path-11"><path class="cls-2" d="M-1278.8,14.38a2.16,2.16,0,0,1-1.85-1.05l-3.2-5.33a2.15,2.15,0,0,1,.33-2.65l3.19-3.19a2.21,2.21,0,0,1,3.06,0l3.2,3.2a2.14,2.14,0,0,1,.32,2.64l-3.19,5.32A2.18,2.18,0,0,1-1278.8,14.38Zm0-2.19Zm-.06-8.48-3.14,3.2,3.17,5.23,3.17-5.27Z"/></clipPath><clipPath id="clip-path-12"><path class="cls-1" d="M-1266.13,24.85v2.82h8.45a2.81,2.81,0,0,1,2.82,2.81v7a5.63,5.63,0,0,0,5.63,5.63,2.83,2.83,0,0,1,2.82,2.82V65.68h2.81V46a5.63,5.63,0,0,0-5.63-5.63,2.82,2.82,0,0,1-2.81-2.82v-7a5.64,5.64,0,0,0-5.64-5.63Z"/></clipPath><clipPath id="clip-path-13"><path class="cls-1" d="M-1260.49,15h2.81a8.46,8.46,0,0,0-8.45-8.45h-2.81V9.36h2.81a5.64,5.64,0,0,1,5.64,5.63"/></clipPath><clipPath id="clip-path-14"><path class="cls-1" d="M-1291.47,9.36h2.81V6.54h-2.81a8.46,8.46,0,0,0-8.45,8.45h2.82a5.63,5.63,0,0,1,5.63-5.63"/></clipPath><clipPath id="clip-path-15"><path class="cls-1" d="M-811.63,73.88a4.42,4.42,0,0,1-3.11,1.25,4.4,4.4,0,0,1-3.1-1.25,7.5,7.5,0,0,0-5-1.9,7.48,7.48,0,0,0-5,1.9,4.4,4.4,0,0,1-3.1,1.25,4.44,4.44,0,0,1-3.11-1.25,7.42,7.42,0,0,0-5-1.9,7.48,7.48,0,0,0-5,1.9,4.38,4.38,0,0,1-3.1,1.25,3.86,3.86,0,0,1-1.81-.38V32.62h22v3.15h3.15V32.62h1.57a3.15,3.15,0,0,0,3.15-3.15V26.32a3.16,3.16,0,0,0-3.15-3.15h-.08A29.91,29.91,0,0,0-850.68-5.09V-6.75a4.73,4.73,0,0,0-4.72-4.72,4.74,4.74,0,0,0-4.73,4.72v1.66a29.9,29.9,0,0,0-28.25,28.26h-.09a3.15,3.15,0,0,0-3.14,3.15v3.15a3.15,3.15,0,0,0,3.14,3.15h1.58v3.15h3.15V32.62h22v42.1a3.94,3.94,0,0,1-1.86.41,4.42,4.42,0,0,1-3.11-1.25,7.42,7.42,0,0,0-5-1.9,7.48,7.48,0,0,0-5,1.9,4.38,4.38,0,0,1-3.1,1.25,4.45,4.45,0,0,1-3.1-1.24,7.37,7.37,0,0,0-5-1.91,7.43,7.43,0,0,0-5,1.9,4.42,4.42,0,0,1-3.11,1.25,4.42,4.42,0,0,1-3.1-1.25,7.42,7.42,0,0,0-5-1.9v3.15a4.36,4.36,0,0,1,3.1,1.25,7.44,7.44,0,0,0,5,1.9,7.45,7.45,0,0,0,5-1.9,4.4,4.4,0,0,1,3.11-1.25,4.37,4.37,0,0,1,3.1,1.25,7.42,7.42,0,0,0,5,1.9,7.47,7.47,0,0,0,5-1.9,4.36,4.36,0,0,1,3.11-1.25,4.37,4.37,0,0,1,3.1,1.25,7.45,7.45,0,0,0,5,1.9,7.47,7.47,0,0,0,5-1.9,4.36,4.36,0,0,1,3.1-1.25,4.38,4.38,0,0,1,3.11,1.25,7.43,7.43,0,0,0,5,1.9,7.47,7.47,0,0,0,5-1.9,4.38,4.38,0,0,1,3.11-1.25,4.36,4.36,0,0,1,3.1,1.25,7.47,7.47,0,0,0,5,1.9,7.47,7.47,0,0,0,5-1.9,4.36,4.36,0,0,1,3.11-1.25,4.36,4.36,0,0,1,3.1,1.25,7.5,7.5,0,0,0,5,1.9,7.48,7.48,0,0,0,5-1.9,4.36,4.36,0,0,1,3.11-1.25V72A7.48,7.48,0,0,0-811.63,73.88ZM-855.4-8.32a1.57,1.57,0,0,1,1.57,1.57v1.58H-857V-6.75A1.57,1.57,0,0,1-855.4-8.32ZM-859.72-2A37.17,37.17,0,0,0-868.06,10l2.89,1.26A33.81,33.81,0,0,1-855.4-1.57a33.53,33.53,0,0,1,12.55,24.74h-25.09a34,34,0,0,1,1.62-9l-3-1a37,37,0,0,0-1.77,9.94h-14.16A26.76,26.76,0,0,1-859.72-2Zm-28.75,28.28h53.53V23.17h-4.76A36.65,36.65,0,0,0-851.06-2a26.76,26.76,0,0,1,25.5,25.13h-6.22v3.15h9.44v3.15h-66.13Zm33,45.66a7.12,7.12,0,0,0-3.12.66v-40h6.29V72.67A7,7,0,0,0-855.43,72Z"/></clipPath><clipPath id="clip-path-16"><path class="cls-1" d="M-814.74,83a4.42,4.42,0,0,1-3.11-1.24,7.42,7.42,0,0,0-5-1.91,7.43,7.43,0,0,0-5,1.91A4.37,4.37,0,0,1-831,83a4.43,4.43,0,0,1-3.11-1.24,7.38,7.38,0,0,0-5-1.91,7.42,7.42,0,0,0-5,1.91A4.4,4.4,0,0,1-847.3,83a4.41,4.41,0,0,1-3.1-1.24,7.4,7.4,0,0,0-5-1.91,7.4,7.4,0,0,0-5,1.91,4.39,4.39,0,0,1-3.1,1.24,4.37,4.37,0,0,1-3.1-1.24,7.42,7.42,0,0,0-5-1.91,7.43,7.43,0,0,0-5,1.91,4.37,4.37,0,0,1-3.1,1.24,4.37,4.37,0,0,1-3.09-1.24,7.42,7.42,0,0,0-5-1.91,7.38,7.38,0,0,0-5,1.91A4.42,4.42,0,0,1-896.09,83a4.37,4.37,0,0,1-3.09-1.24,7.42,7.42,0,0,0-5-1.91V83a4.36,4.36,0,0,1,3.1,1.25,7.46,7.46,0,0,0,5,1.9,7.43,7.43,0,0,0,5-1.9A4.38,4.38,0,0,1-887.95,83a4.37,4.37,0,0,1,3.1,1.25,7.42,7.42,0,0,0,5,1.9,7.45,7.45,0,0,0,5-1.9A4.38,4.38,0,0,1-871.69,83a4.33,4.33,0,0,1,3.09,1.25,7.5,7.5,0,0,0,5,1.9,7.47,7.47,0,0,0,5-1.9,4.36,4.36,0,0,1,3.1-1.25,4.38,4.38,0,0,1,3.11,1.25,7.44,7.44,0,0,0,5,1.9,7.46,7.46,0,0,0,5-1.9,4.36,4.36,0,0,1,3.1-1.25A4.38,4.38,0,0,1-836,84.25a7.43,7.43,0,0,0,5,1.9,7.47,7.47,0,0,0,5-1.9A4.36,4.36,0,0,1-822.88,83a4.4,4.4,0,0,1,3.11,1.25,7.47,7.47,0,0,0,5,1.9,7.48,7.48,0,0,0,5-1.9A4.38,4.38,0,0,1-806.59,83V79.85a7.43,7.43,0,0,0-5,1.91A4.4,4.4,0,0,1-814.74,83"/></clipPath><clipPath id="clip-path-17"><path class="cls-1" d="M-846,64.11a4.73,4.73,0,0,0,4.73,4.72,4.72,4.72,0,0,0,4.72-4.72V61h-3.15v3.15a1.57,1.57,0,0,1-1.57,1.57,1.57,1.57,0,0,1-1.57-1.57v-22H-846Z"/></clipPath><clipPath id="clip-path-18"><path class="cls-1" d="M-823.91,53.09V45.21h-3.15v7.88a1.58,1.58,0,0,1-1.58,1.57,1.58,1.58,0,0,1-1.57-1.57V40.49a4.73,4.73,0,0,0-4.72-4.72,4.73,4.73,0,0,0-4.73,4.72v4.72h3.15V40.49a1.57,1.57,0,0,1,1.58-1.57,1.57,1.57,0,0,1,1.57,1.57v12.6a4.73,4.73,0,0,0,4.72,4.72,4.73,4.73,0,0,0,4.73-4.72"/></clipPath><clipPath id="clip-path-19"><path class="cls-1" d="M-868,64.11a1.57,1.57,0,0,1-1.57,1.57,1.58,1.58,0,0,1-1.58-1.57V61h-3.15v3.15a4.72,4.72,0,0,0,4.73,4.72,4.72,4.72,0,0,0,4.72-4.72v-22H-868Z"/></clipPath><clipPath id="clip-path-20"><path class="cls-1" d="M-886.89,53.09a4.73,4.73,0,0,0,4.72,4.72,4.73,4.73,0,0,0,4.73-4.72V40.49a1.57,1.57,0,0,1,1.57-1.57,1.57,1.57,0,0,1,1.57,1.57v4.72h3.15V40.49a4.73,4.73,0,0,0-4.72-4.72,4.72,4.72,0,0,0-4.72,4.72v12.6a1.58,1.58,0,0,1-1.58,1.57,1.57,1.57,0,0,1-1.57-1.57V45.21h-3.15Z"/></clipPath><clipPath id="clip-path-21"><path class="cls-1" d="M-896.34,64.11a18,18,0,0,1,5.64.91l5,1.66L-888.4,60a8.51,8.51,0,0,0-7.94-5.38,4.73,4.73,0,0,0-4.72,4.72,4.73,4.73,0,0,0,4.72,4.73m0-6.3a5.36,5.36,0,0,1,5,3.4l.16.4a21,21,0,0,0-5.18-.65,1.57,1.57,0,0,1-1.57-1.58,1.57,1.57,0,0,1,1.57-1.57"/></clipPath><clipPath id="clip-path-22"><path class="cls-1" d="M-822.41,60l-2.65,6.65,4.95-1.66a18,18,0,0,1,5.64-.91,4.73,4.73,0,0,0,4.73-4.73,4.73,4.73,0,0,0-4.73-4.72A8.52,8.52,0,0,0-822.41,60Zm2.93,1.18a5.36,5.36,0,0,1,5-3.4,1.58,1.58,0,0,1,1.58,1.57A1.58,1.58,0,0,1-814.47,61a20.93,20.93,0,0,0-5.17.65Z"/></clipPath><clipPath id="clip-path-23"><rect class="cls-3" width="87.11" height="87.11"/></clipPath></defs><path class="cls-4" d="M-736.52,82.74h15.92V72.79h-15.92Zm17.9,4h-19.89a2,2,0,0,1-2-2V70.8a2,2,0,0,1,2-2h19.89a2,2,0,0,1,2,2V84.73A2,2,0,0,1-718.62,86.71Z"/><g class="cls-5"><rect class="cls-2" x="-2005.06" y="-3709.91" width="5804.01" height="4970.61"/></g><path class="cls-4" d="M-746.46,82.74h35.8V-4.78h-35.8Zm37.79,4h-39.78a2,2,0,0,1-2-2V-6.78a2,2,0,0,1,2-2h39.78a2,2,0,0,1,2,2V84.73A2,2,0,0,1-708.67,86.71Z"/><g class="cls-6"><rect class="cls-2" x="-2005.06" y="-3709.91" width="5804.01" height="4964.66"/></g><path class="cls-4" d="M-762.37,82.74h11.92V3.17h-11.92Zm13.92,4h-15.92a2,2,0,0,1-2-2V1.18a2,2,0,0,1,2-2h15.92a2,2,0,0,1,2,2V84.73A2,2,0,0,1-748.45,86.71Z"/><g class="cls-7"><rect class="cls-2" x="-2005.06" y="-3709.91" width="5804.01" height="4964.66"/></g><path class="cls-4" d="M-706.68,82.74h11.93V3.17h-11.93Zm13.92,4h-15.91a2,2,0,0,1-2-2V1.18a2,2,0,0,1,2-2h15.91a2,2,0,0,1,2,2V84.73A2,2,0,0,1-692.76,86.71Z"/><g class="cls-8"><rect class="cls-2" x="-2005.06" y="-3709.91" width="5804.01" height="4964.66"/></g><rect class="cls-2" x="-780.28" y="42.96" width="3.98" height="19.89" transform="translate(-353.41 -601.32) rotate(-53.11)"/><g class="cls-9"><rect class="cls-2" x="-2005.06" y="-3709.91" width="5804.01" height="4964.66"/></g><rect class="cls-2" x="-788.24" y="50.91" width="19.89" height="3.98" transform="translate(-187.47 -456.48) rotate(-36.88)"/><g class="cls-10"><rect class="cls-2" x="-2005.06" y="-3709.91" width="5804.01" height="4964.66"/></g><rect class="cls-2" x="-680.82" y="42.95" width="3.97" height="19.89" transform="translate(-313.73 -521.83) rotate(-53.12)"/><g class="cls-11"><rect class="cls-2" x="-2005.06" y="-3709.91" width="5804.01" height="4964.66"/></g><rect class="cls-2" x="-688.78" y="50.92" width="19.89" height="3.97" transform="translate(-167.34 -396.52) rotate(-36.85)"/><g class="cls-12"><rect class="cls-2" x="-2005.06" y="-3709.91" width="5804.01" height="4964.66"/></g><path class="cls-2" d="M-1241.51,87.19h-74.57a2.58,2.58,0,0,1-2.54-2.6V79.15a2.58,2.58,0,0,1,2.54-2.6h28.56a7.24,7.24,0,0,1-.67-2.08,6.78,6.78,0,0,1,1.42-5.3l.91-1.13a7.06,7.06,0,0,0,1.46-5.57l-.38-2.44H-1296a6,6,0,0,1-5.89-6.14,1,1,0,0,0-.38-.79l-2.37-1.67a2.65,2.65,0,0,1-1-2.89,2.54,2.54,0,0,1,2.43-1.87h19.32V43.74h-6.46a6,6,0,0,1-5.89-6.14,1,1,0,0,0-.38-.8l-2.37-1.66a2.65,2.65,0,0,1-1-2.89,2.55,2.55,0,0,1,2.43-1.87h13.67V28.91a10.15,10.15,0,0,0-5.7-9.28l-.72-.34V16.8h23.07v2.49l-.73.34a10.17,10.17,0,0,0-5.7,9.28v1.47H-1260a2.55,2.55,0,0,1,2.43,1.88,2.61,2.61,0,0,1-1,2.88l-2.36,1.66a1,1,0,0,0-.39.8,6,6,0,0,1-5.89,6.14h-6.46v2.93h19.32a2.55,2.55,0,0,1,2.43,1.88,2.62,2.62,0,0,1-1,2.88l-2.36,1.67a.94.94,0,0,0-.39.79,6,6,0,0,1-5.89,6.14h-11.24l-.38,2.44a7,7,0,0,0,1.46,5.57l.92,1.13a6.77,6.77,0,0,1,1.41,5.3,6.87,6.87,0,0,1-.68,2.08h28.58a2.57,2.57,0,0,1,2.53,2.6v5.44A2.57,2.57,0,0,1-1241.51,87.19Zm-74.57-8.14a.13.13,0,0,0,0,.1v5.44c0,.07,0,.1,0,.1h74.57a.14.14,0,0,0,0-.1V79.15a.13.13,0,0,0,0-.1h-35.06l3.1-2.26a4.18,4.18,0,0,0,1.6-2.7,4.33,4.33,0,0,0-.88-3.35l-.92-1.13a9.55,9.55,0,0,1-2-7.53l.71-4.55h13.38a3.52,3.52,0,0,0,3.39-3.64,3.46,3.46,0,0,1,1.45-2.84l2.36-1.66a.15.15,0,0,0,0-.15l-21.85-.07V41.24h9a3.52,3.52,0,0,0,3.39-3.64,3.46,3.46,0,0,1,1.45-2.84l2.36-1.66a.16.16,0,0,0,0-.16l-16.2-.06v-4A12.93,12.93,0,0,1-1272,19.3h-13.65a12.92,12.92,0,0,1,4.21,9.61v4h-16.17c-.05.13,0,.2,0,.22l2.36,1.66a3.46,3.46,0,0,1,1.45,2.84,3.52,3.52,0,0,0,3.39,3.64h9v7.93h-21.82c0,.13,0,.2,0,.22l2.36,1.67a3.43,3.43,0,0,1,1.45,2.83,3.52,3.52,0,0,0,3.39,3.64h13.38l.71,4.55a9.57,9.57,0,0,1-2,7.53l-.91,1.13a4.3,4.3,0,0,0-.89,3.35,4.09,4.09,0,0,0,1.61,2.7l3.06,2.26Z"/><g class="cls-13"><path class="cls-2" d="M1144.13,1871.07H-3733.21V-2535.18H1144.13Zm-4874.34-3H1141.13V-2532.18H-3730.21Z"/></g><path class="cls-4" d="M-1311.19,46a2.82,2.82,0,0,1,2.82-2.82,5.63,5.63,0,0,0,5.63-5.63v-7a2.83,2.83,0,0,1,2.82-2.82h8.45V24.85h-8.45a5.63,5.63,0,0,0-5.63,5.63v7a2.83,2.83,0,0,1-2.82,2.82A5.64,5.64,0,0,0-1314,46V65.68h2.81Z"/><g class="cls-14"><rect class="cls-2" x="-3965.04" y="-2631.08" width="5338.01" height="4566.05"/></g><path class="cls-2" d="M-1278.8,14.38a2.16,2.16,0,0,1-1.85-1.05l-3.2-5.33a2.15,2.15,0,0,1,.33-2.65l3.19-3.19a2.21,2.21,0,0,1,3.06,0l3.2,3.2a2.14,2.14,0,0,1,.32,2.64l-3.19,5.32A2.18,2.18,0,0,1-1278.8,14.38Zm0-2.19Zm-.06-8.48-3.14,3.2,3.17,5.23,3.17-5.27Z"/><g class="cls-15"><path class="cls-2" d="M728.32,1466.81H-3312V-1989.54H728.32Zm-4038.12-2.2H726.12V-1987.34H-3309.8Z"/></g><path class="cls-4" d="M-1266.13,24.85v2.82h8.45a2.81,2.81,0,0,1,2.82,2.81v7a5.63,5.63,0,0,0,5.63,5.63,2.83,2.83,0,0,1,2.82,2.82V65.68h2.81V46a5.63,5.63,0,0,0-5.63-5.63,2.82,2.82,0,0,1-2.81-2.82v-7a5.64,5.64,0,0,0-5.64-5.63Z"/><g class="cls-16"><rect class="cls-2" x="-3965.04" y="-2631.08" width="5338.01" height="4566.05"/></g><path class="cls-4" d="M-1260.49,15h2.81a8.46,8.46,0,0,0-8.45-8.45h-2.81V9.36h2.81a5.64,5.64,0,0,1,5.64,5.63"/><g class="cls-17"><rect class="cls-2" x="-3965.04" y="-2631.08" width="5338.01" height="4566.05"/></g><path class="cls-4" d="M-1291.47,9.36h2.81V6.54h-2.81a8.46,8.46,0,0,0-8.45,8.45h2.82a5.63,5.63,0,0,1,5.63-5.63"/><g class="cls-18"><rect class="cls-2" x="-3965.04" y="-2631.08" width="5338.01" height="4566.05"/></g><path class="cls-4" d="M-811.63,73.88a4.42,4.42,0,0,1-3.11,1.25,4.4,4.4,0,0,1-3.1-1.25,7.5,7.5,0,0,0-5-1.9,7.48,7.48,0,0,0-5,1.9,4.4,4.4,0,0,1-3.1,1.25,4.44,4.44,0,0,1-3.11-1.25,7.42,7.42,0,0,0-5-1.9,7.48,7.48,0,0,0-5,1.9,4.38,4.38,0,0,1-3.1,1.25,3.86,3.86,0,0,1-1.81-.38V32.62h22v3.15h3.15V32.62h1.57a3.15,3.15,0,0,0,3.15-3.15V26.32a3.16,3.16,0,0,0-3.15-3.15h-.08A29.91,29.91,0,0,0-850.68-5.09V-6.75a4.73,4.73,0,0,0-4.72-4.72,4.74,4.74,0,0,0-4.73,4.72v1.66a29.9,29.9,0,0,0-28.25,28.26h-.09a3.15,3.15,0,0,0-3.14,3.15v3.15a3.15,3.15,0,0,0,3.14,3.15h1.58v3.15h3.15V32.62h22v42.1a3.94,3.94,0,0,1-1.86.41,4.42,4.42,0,0,1-3.11-1.25,7.42,7.42,0,0,0-5-1.9,7.48,7.48,0,0,0-5,1.9,4.38,4.38,0,0,1-3.1,1.25,4.45,4.45,0,0,1-3.1-1.24,7.37,7.37,0,0,0-5-1.91,7.43,7.43,0,0,0-5,1.9,4.42,4.42,0,0,1-3.11,1.25,4.42,4.42,0,0,1-3.1-1.25,7.42,7.42,0,0,0-5-1.9v3.15a4.36,4.36,0,0,1,3.1,1.25,7.44,7.44,0,0,0,5,1.9,7.45,7.45,0,0,0,5-1.9,4.4,4.4,0,0,1,3.11-1.25,4.37,4.37,0,0,1,3.1,1.25,7.42,7.42,0,0,0,5,1.9,7.47,7.47,0,0,0,5-1.9,4.36,4.36,0,0,1,3.11-1.25,4.37,4.37,0,0,1,3.1,1.25,7.45,7.45,0,0,0,5,1.9,7.47,7.47,0,0,0,5-1.9,4.36,4.36,0,0,1,3.1-1.25,4.38,4.38,0,0,1,3.11,1.25,7.43,7.43,0,0,0,5,1.9,7.47,7.47,0,0,0,5-1.9,4.38,4.38,0,0,1,3.11-1.25,4.36,4.36,0,0,1,3.1,1.25,7.47,7.47,0,0,0,5,1.9,7.47,7.47,0,0,0,5-1.9,4.36,4.36,0,0,1,3.11-1.25,4.36,4.36,0,0,1,3.1,1.25,7.5,7.5,0,0,0,5,1.9,7.48,7.48,0,0,0,5-1.9,4.36,4.36,0,0,1,3.11-1.25V72A7.48,7.48,0,0,0-811.63,73.88ZM-855.4-8.32a1.57,1.57,0,0,1,1.57,1.57v1.58H-857V-6.75A1.57,1.57,0,0,1-855.4-8.32ZM-859.72-2A37.17,37.17,0,0,0-868.06,10l2.89,1.26A33.81,33.81,0,0,1-855.4-1.57a33.53,33.53,0,0,1,12.55,24.74h-25.09a34,34,0,0,1,1.62-9l-3-1a37,37,0,0,0-1.77,9.94h-14.16A26.76,26.76,0,0,1-859.72-2Zm-28.75,28.28h53.53V23.17h-4.76A36.65,36.65,0,0,0-851.06-2a26.76,26.76,0,0,1,25.5,25.13h-6.22v3.15h9.44v3.15h-66.13Zm33,45.66a7.12,7.12,0,0,0-3.12.66v-40h6.29V72.67A7,7,0,0,0-855.43,72Z"/><g class="cls-19"><rect class="cls-2" x="-3652.23" y="-2413.45" width="5224.37" height="4468.85"/></g><path class="cls-4" d="M-814.74,83a4.42,4.42,0,0,1-3.11-1.24,7.42,7.42,0,0,0-5-1.91,7.43,7.43,0,0,0-5,1.91A4.37,4.37,0,0,1-831,83a4.43,4.43,0,0,1-3.11-1.24,7.38,7.38,0,0,0-5-1.91,7.42,7.42,0,0,0-5,1.91A4.4,4.4,0,0,1-847.3,83a4.41,4.41,0,0,1-3.1-1.24,7.4,7.4,0,0,0-5-1.91,7.4,7.4,0,0,0-5,1.91,4.39,4.39,0,0,1-3.1,1.24,4.37,4.37,0,0,1-3.1-1.24,7.42,7.42,0,0,0-5-1.91,7.43,7.43,0,0,0-5,1.91,4.37,4.37,0,0,1-3.1,1.24,4.37,4.37,0,0,1-3.09-1.24,7.42,7.42,0,0,0-5-1.91,7.38,7.38,0,0,0-5,1.91A4.42,4.42,0,0,1-896.09,83a4.37,4.37,0,0,1-3.09-1.24,7.42,7.42,0,0,0-5-1.91V83a4.36,4.36,0,0,1,3.1,1.25,7.46,7.46,0,0,0,5,1.9,7.43,7.43,0,0,0,5-1.9A4.38,4.38,0,0,1-887.95,83a4.37,4.37,0,0,1,3.1,1.25,7.42,7.42,0,0,0,5,1.9,7.45,7.45,0,0,0,5-1.9A4.38,4.38,0,0,1-871.69,83a4.33,4.33,0,0,1,3.09,1.25,7.5,7.5,0,0,0,5,1.9,7.47,7.47,0,0,0,5-1.9,4.36,4.36,0,0,1,3.1-1.25,4.38,4.38,0,0,1,3.11,1.25,7.44,7.44,0,0,0,5,1.9,7.46,7.46,0,0,0,5-1.9,4.36,4.36,0,0,1,3.1-1.25A4.38,4.38,0,0,1-836,84.25a7.43,7.43,0,0,0,5,1.9,7.47,7.47,0,0,0,5-1.9A4.36,4.36,0,0,1-822.88,83a4.4,4.4,0,0,1,3.11,1.25,7.47,7.47,0,0,0,5,1.9,7.48,7.48,0,0,0,5-1.9A4.38,4.38,0,0,1-806.59,83V79.85a7.43,7.43,0,0,0-5,1.91A4.4,4.4,0,0,1-814.74,83"/><g class="cls-20"><rect class="cls-2" x="-3652.23" y="-2413.45" width="5224.37" height="4468.85"/></g><path class="cls-4" d="M-846,64.11a4.73,4.73,0,0,0,4.73,4.72,4.72,4.72,0,0,0,4.72-4.72V61h-3.15v3.15a1.57,1.57,0,0,1-1.57,1.57,1.57,1.57,0,0,1-1.57-1.57v-22H-846Z"/><g class="cls-21"><rect class="cls-2" x="-3652.23" y="-2413.45" width="5224.37" height="4468.85"/></g><path class="cls-4" d="M-823.91,53.09V45.21h-3.15v7.88a1.58,1.58,0,0,1-1.58,1.57,1.58,1.58,0,0,1-1.57-1.57V40.49a4.73,4.73,0,0,0-4.72-4.72,4.73,4.73,0,0,0-4.73,4.72v4.72h3.15V40.49a1.57,1.57,0,0,1,1.58-1.57,1.57,1.57,0,0,1,1.57,1.57v12.6a4.73,4.73,0,0,0,4.72,4.72,4.73,4.73,0,0,0,4.73-4.72"/><g class="cls-22"><rect class="cls-2" x="-3652.23" y="-2413.45" width="5224.37" height="4468.85"/></g><path class="cls-4" d="M-868,64.11a1.57,1.57,0,0,1-1.57,1.57,1.58,1.58,0,0,1-1.58-1.57V61h-3.15v3.15a4.72,4.72,0,0,0,4.73,4.72,4.72,4.72,0,0,0,4.72-4.72v-22H-868Z"/><g class="cls-23"><rect class="cls-2" x="-3652.23" y="-2413.45" width="5224.37" height="4468.85"/></g><path class="cls-4" d="M-886.89,53.09a4.73,4.73,0,0,0,4.72,4.72,4.73,4.73,0,0,0,4.73-4.72V40.49a1.57,1.57,0,0,1,1.57-1.57,1.57,1.57,0,0,1,1.57,1.57v4.72h3.15V40.49a4.73,4.73,0,0,0-4.72-4.72,4.72,4.72,0,0,0-4.72,4.72v12.6a1.58,1.58,0,0,1-1.58,1.57,1.57,1.57,0,0,1-1.57-1.57V45.21h-3.15Z"/><g class="cls-24"><rect class="cls-2" x="-3652.23" y="-2413.45" width="5224.37" height="4468.85"/></g><path class="cls-4" d="M-896.34,64.11a18,18,0,0,1,5.64.91l5,1.66L-888.4,60a8.51,8.51,0,0,0-7.94-5.38,4.73,4.73,0,0,0-4.72,4.72,4.73,4.73,0,0,0,4.72,4.73m0-6.3a5.36,5.36,0,0,1,5,3.4l.16.4a21,21,0,0,0-5.18-.65,1.57,1.57,0,0,1-1.57-1.58,1.57,1.57,0,0,1,1.57-1.57"/><g class="cls-25"><rect class="cls-2" x="-3652.23" y="-2413.45" width="5224.37" height="4468.85"/></g><path class="cls-4" d="M-822.41,60l-2.65,6.65,4.95-1.66a18,18,0,0,1,5.64-.91,4.73,4.73,0,0,0,4.73-4.73,4.73,4.73,0,0,0-4.73-4.72A8.52,8.52,0,0,0-822.41,60Zm2.93,1.18a5.36,5.36,0,0,1,5-3.4,1.58,1.58,0,0,1,1.58,1.57A1.58,1.58,0,0,1-814.47,61a20.93,20.93,0,0,0-5.17.65Z"/><g class="cls-26"><rect class="cls-2" x="-3652.23" y="-2413.45" width="5224.37" height="4468.85"/></g><g class="cls-27"><path class="cls-2" d="M80.34,60.09a2,2,0,0,0,2-2V54.53h2.67a2.07,2.07,0,0,0,2.06-2.06V47.8a2.07,2.07,0,0,0-2.06-2.06H81.37v-14a4.54,4.54,0,0,0,1.1.14,5,5,0,0,0,1.22-.16,4.63,4.63,0,0,0,1.11-8.47L46,.85a5.18,5.18,0,0,0-5,0L2.31,23.23a4.62,4.62,0,0,0,3.43,8.49v14H2.06A2.07,2.07,0,0,0,0,47.8v4.67a2.07,2.07,0,0,0,2.06,2.06H4.74v3.53a2,2,0,0,0,2,2H8.3V72.54H6.77a2,2,0,0,0-2,2V78.1H2.06A2.07,2.07,0,0,0,0,80.16v4.67a2.07,2.07,0,0,0,2.06,2.06H40.89a1.28,1.28,0,0,0,0-2.56H2.56V80.66h82v3.67H46.78a1.28,1.28,0,1,0,0,2.56H85.05a2.07,2.07,0,0,0,2.06-2.06V80.16a2.07,2.07,0,0,0-2.06-2.06H82.38V74.58a2,2,0,0,0-2-2H78.8V60.09ZM5.66,29a2.05,2.05,0,0,1-1.57.2,2,2,0,0,1-1.26-1h0a2.07,2.07,0,0,1,.76-2.83L42.36,3.06a2.46,2.46,0,0,1,1.19-.29,2.37,2.37,0,0,1,1.2.29L83.52,25.44A2.07,2.07,0,0,1,81.45,29L44.19,7.51a1.33,1.33,0,0,0-.64-.17,1.27,1.27,0,0,0-.63.17ZM2.56,48.3H40.89a1.28,1.28,0,1,0,0-2.56H8.29V30.45L43.55,10.09,78.82,30.45V45.74H46.57a1.28,1.28,0,0,0,0,2.56h38V52h-82Zm33.08,9.24v-3H51.46v3Zm12.25,2.55V72.54H39.22V60.09ZM7.29,57.54v-3H23.1v3Zm12.24,2.55V72.54H10.86V60.09Zm3.57,18H7.29v-3H23.1Zm10-3.52V78.1H25.66V74.58a2,2,0,0,0-2-2H22.09V60.09h1.53a2,2,0,0,0,2-2V54.53h7.43v3.53a2,2,0,0,0,2,2h1.53V72.54H35.13a2,2,0,0,0-2,2ZM51.46,78.1H35.64v-3H51.46Zm10-3.52V78.1H54V74.58a2,2,0,0,0-2-2H50.44V60.09H52a2,2,0,0,0,2-2V54.53h7.43v3.53a2,2,0,0,0,2,2H65V72.54H63.49a2,2,0,0,0-2,2Zm18.37.51v3H64v-3ZM67.58,72.54V60.09h8.67V72.54ZM64,57.54v-3H79.82v3Zm0,0"/></g><path class="cls-2" d="M43.45,22.43a6.94,6.94,0,1,0,6.94,6.93A6.94,6.94,0,0,0,43.45,22.43Zm0,10.74a3.81,3.81,0,1,1,3.81-3.81A3.82,3.82,0,0,1,43.45,33.17Z"/></svg>