<svg id="Layer_1" data-name="Layer 1" xmlns="http://www.w3.org/2000/svg" xmlns:xlink="http://www.w3.org/1999/xlink" viewBox="0 0 119.35 95.48"><defs><style>.cls-1,.cls-2,.cls-3{fill:#fff;}.cls-1{clip-rule:evenodd;}.cls-3{fill-rule:evenodd;}.cls-4{clip-path:url(#clip-path);}.cls-5{clip-path:url(#clip-path-2);}.cls-6{clip-path:url(#clip-path-3);}.cls-7{clip-path:url(#clip-path-4);}.cls-8{clip-path:url(#clip-path-5);}.cls-9{clip-path:url(#clip-path-6);}.cls-10{clip-path:url(#clip-path-8);}.cls-11{clip-path:url(#clip-path-9);}.cls-12{clip-path:url(#clip-path-10);}.cls-13{clip-path:url(#clip-path-11);}.cls-14{clip-path:url(#clip-path-12);}.cls-15{clip-path:url(#clip-path-13);}.cls-16{clip-path:url(#clip-path-14);}.cls-17{clip-path:url(#clip-path-15);}.cls-18{clip-path:url(#clip-path-16);}.cls-19{clip-path:url(#clip-path-17);}.cls-20{clip-path:url(#clip-path-18);}.cls-21{clip-path:url(#clip-path-19);}.cls-22{clip-path:url(#clip-path-20);}.cls-23{clip-path:url(#clip-path-21);}.cls-24{clip-path:url(#clip-path-22);}.cls-25{clip-path:url(#clip-path-23);}.cls-26{clip-path:url(#clip-path-24);}.cls-27{clip-path:url(#clip-path-25);}.cls-28{clip-path:url(#clip-path-26);}.cls-29{clip-path:url(#clip-path-27);}.cls-30{clip-path:url(#clip-path-28);}.cls-31{clip-path:url(#clip-path-29);}.cls-32{clip-path:url(#clip-path-30);}.cls-33{clip-path:url(#clip-path-31);}.cls-34{clip-path:url(#clip-path-32);}.cls-35{clip-path:url(#clip-path-33);}.cls-36{clip-path:url(#clip-path-34);}.cls-37{clip-path:url(#clip-path-35);}.cls-38{clip-path:url(#clip-path-36);}.cls-39{clip-path:url(#clip-path-37);}.cls-40{clip-path:url(#clip-path-38);}.cls-41{clip-path:url(#clip-path-39);}.cls-42{clip-path:url(#clip-path-40);}.cls-43{clip-path:url(#clip-path-41);}.cls-44{clip-path:url(#clip-path-42);}.cls-45{clip-path:url(#clip-path-43);}.cls-46{clip-path:url(#clip-path-44);}.cls-47{clip-path:url(#clip-path-45);}.cls-48{clip-path:url(#clip-path-47);}.cls-49{clip-path:url(#clip-path-48);}.cls-50{clip-path:url(#clip-path-49);}.cls-51{clip-path:url(#clip-path-50);}.cls-52{clip-path:url(#clip-path-51);}.cls-53{clip-path:url(#clip-path-52);}.cls-54{clip-path:url(#clip-path-53);}.cls-55{clip-path:url(#clip-path-54);}.cls-56{clip-path:url(#clip-path-55);}.cls-57{clip-path:url(#clip-path-56);}.cls-58{clip-path:url(#clip-path-57);}.cls-59{clip-path:url(#clip-path-58);}.cls-60{clip-path:url(#clip-path-60);}.cls-61{clip-path:url(#clip-path-62);}.cls-62{clip-path:url(#clip-path-63);}.cls-63{clip-path:url(#clip-path-65);}.cls-64{clip-path:url(#clip-path-67);}.cls-65{clip-path:url(#clip-path-68);}.cls-66{clip-path:url(#clip-path-69);}.cls-67{clip-path:url(#clip-path-70);}.cls-68{clip-path:url(#clip-path-71);}.cls-69{clip-path:url(#clip-path-72);}.cls-70{clip-path:url(#clip-path-73);}.cls-71{clip-path:url(#clip-path-74);}.cls-72{clip-path:url(#clip-path-75);}.cls-73{clip-path:url(#clip-path-76);}.cls-74{clip-path:url(#clip-path-78);}.cls-75{clip-path:url(#clip-path-79);}.cls-76{clip-path:url(#clip-path-80);}.cls-77{clip-path:url(#clip-path-81);}.cls-78{clip-path:url(#clip-path-82);}.cls-79{clip-path:url(#clip-path-83);}</style><clipPath id="clip-path"><path class="cls-1" d="M51.72,91.5H67.63V81.56H51.72Zm17.9,4H49.73a2,2,0,0,1-2-2V79.56a2,2,0,0,1,2-2H69.62a2,2,0,0,1,2,2V93.49A2,2,0,0,1,69.62,95.48Z"/></clipPath><clipPath id="clip-path-2"><rect class="cls-2" x="-1216.82" y="-3701.15" width="5804.01" height="4970.61"/></clipPath><clipPath id="clip-path-3"><rect class="cls-2" x="57.68" y="79.56" width="3.98" height="13.93"/></clipPath><clipPath id="clip-path-4"><path class="cls-1" d="M41.77,91.5h35.8V4H41.77Zm37.8,4H39.78a2,2,0,0,1-2-2V2a2,2,0,0,1,2-2H79.57a2,2,0,0,1,2,2v91.5A2,2,0,0,1,79.57,95.48Z"/></clipPath><clipPath id="clip-path-5"><rect class="cls-2" x="-1216.82" y="-3701.15" width="5804.01" height="4964.66"/></clipPath><clipPath id="clip-path-6"><path class="cls-1" d="M25.86,91.5H37.79V11.94H25.86Zm13.92,4H23.87a2,2,0,0,1-2-2V10a2,2,0,0,1,2-2H39.78a2,2,0,0,1,2,2V93.49A2,2,0,0,1,39.78,95.48Z"/></clipPath><clipPath id="clip-path-8"><rect class="cls-2" x="17.9" y="7.95" width="5.97" height="3.98"/></clipPath><clipPath id="clip-path-9"><rect class="cls-2" x="33.82" width="51.72" height="3.97"/></clipPath><clipPath id="clip-path-10"><rect class="cls-2" x="45.75" y="67.63" width="3.97" height="5.97"/></clipPath><clipPath id="clip-path-11"><rect class="cls-2" x="53.71" y="67.63" width="3.97" height="5.97"/></clipPath><clipPath id="clip-path-12"><rect class="cls-2" x="61.66" y="67.63" width="3.98" height="5.97"/></clipPath><clipPath id="clip-path-13"><rect class="cls-2" x="69.62" y="67.63" width="3.98" height="5.97"/></clipPath><clipPath id="clip-path-14"><rect class="cls-2" x="45.75" y="57.68" width="3.97" height="5.97"/></clipPath><clipPath id="clip-path-15"><rect class="cls-2" x="53.71" y="57.68" width="3.97" height="5.97"/></clipPath><clipPath id="clip-path-16"><rect class="cls-2" x="61.66" y="57.68" width="3.98" height="5.97"/></clipPath><clipPath id="clip-path-17"><rect class="cls-2" x="69.62" y="57.68" width="3.98" height="5.97"/></clipPath><clipPath id="clip-path-18"><rect class="cls-2" x="45.75" y="47.74" width="3.97" height="5.97"/></clipPath><clipPath id="clip-path-19"><rect class="cls-2" x="53.71" y="47.74" width="3.97" height="5.97"/></clipPath><clipPath id="clip-path-20"><rect class="cls-2" x="61.66" y="47.74" width="3.98" height="5.97"/></clipPath><clipPath id="clip-path-21"><rect class="cls-2" x="69.62" y="47.74" width="3.98" height="5.97"/></clipPath><clipPath id="clip-path-22"><rect class="cls-2" x="45.75" y="37.8" width="3.97" height="5.96"/></clipPath><clipPath id="clip-path-23"><rect class="cls-2" x="53.71" y="37.8" width="3.97" height="5.96"/></clipPath><clipPath id="clip-path-24"><rect class="cls-2" x="61.66" y="37.8" width="3.98" height="5.96"/></clipPath><clipPath id="clip-path-25"><rect class="cls-2" x="69.62" y="37.8" width="3.98" height="5.96"/></clipPath><clipPath id="clip-path-26"><rect class="cls-2" x="45.75" y="27.85" width="3.97" height="5.97"/></clipPath><clipPath id="clip-path-27"><rect class="cls-2" x="53.71" y="27.85" width="3.97" height="5.97"/></clipPath><clipPath id="clip-path-28"><rect class="cls-2" x="61.66" y="27.85" width="3.98" height="5.97"/></clipPath><clipPath id="clip-path-29"><rect class="cls-2" x="69.62" y="27.85" width="3.98" height="5.97"/></clipPath><clipPath id="clip-path-30"><rect class="cls-2" x="45.75" y="17.9" width="3.97" height="5.97"/></clipPath><clipPath id="clip-path-31"><rect class="cls-2" x="53.71" y="17.9" width="3.97" height="5.97"/></clipPath><clipPath id="clip-path-32"><rect class="cls-2" x="61.66" y="17.9" width="3.98" height="5.97"/></clipPath><clipPath id="clip-path-33"><rect class="cls-2" x="69.62" y="17.9" width="3.98" height="5.97"/></clipPath><clipPath id="clip-path-34"><rect class="cls-2" x="45.75" y="7.95" width="3.97" height="5.97"/></clipPath><clipPath id="clip-path-35"><rect class="cls-2" x="53.71" y="7.95" width="3.97" height="5.97"/></clipPath><clipPath id="clip-path-36"><rect class="cls-2" x="61.66" y="7.95" width="3.98" height="5.97"/></clipPath><clipPath id="clip-path-37"><rect class="cls-2" x="69.62" y="7.95" width="3.98" height="5.97"/></clipPath><clipPath id="clip-path-38"><rect class="cls-2" x="29.84" y="77.58" width="3.98" height="5.97"/></clipPath><clipPath id="clip-path-39"><rect class="cls-2" x="29.84" y="67.63" width="3.98" height="5.97"/></clipPath><clipPath id="clip-path-40"><rect class="cls-2" x="29.84" y="57.68" width="3.98" height="5.97"/></clipPath><clipPath id="clip-path-41"><rect class="cls-2" x="29.84" y="47.74" width="3.98" height="5.97"/></clipPath><clipPath id="clip-path-42"><rect class="cls-2" x="29.84" y="37.8" width="3.98" height="5.96"/></clipPath><clipPath id="clip-path-43"><rect class="cls-2" x="29.84" y="27.85" width="3.98" height="5.97"/></clipPath><clipPath id="clip-path-44"><rect class="cls-2" x="29.84" y="17.9" width="3.98" height="5.97"/></clipPath><clipPath id="clip-path-45"><path class="cls-1" d="M81.55,91.5H93.48V11.94H81.55Zm13.93,4H79.56a2,2,0,0,1-2-2V10a2,2,0,0,1,2-2H95.48a2,2,0,0,1,2,2V93.49A2,2,0,0,1,95.48,95.48Z"/></clipPath><clipPath id="clip-path-47"><rect class="cls-2" x="95.48" y="7.95" width="5.97" height="3.98"/></clipPath><clipPath id="clip-path-48"><rect class="cls-2" x="85.53" y="77.58" width="3.97" height="5.97"/></clipPath><clipPath id="clip-path-49"><rect class="cls-2" x="85.53" y="67.63" width="3.97" height="5.97"/></clipPath><clipPath id="clip-path-50"><rect class="cls-2" x="85.53" y="57.68" width="3.97" height="5.97"/></clipPath><clipPath id="clip-path-51"><rect class="cls-2" x="85.53" y="47.74" width="3.97" height="5.97"/></clipPath><clipPath id="clip-path-52"><rect class="cls-2" x="85.53" y="37.8" width="3.97" height="5.96"/></clipPath><clipPath id="clip-path-53"><rect class="cls-2" x="85.53" y="27.85" width="3.97" height="5.97"/></clipPath><clipPath id="clip-path-54"><rect class="cls-2" x="85.53" y="17.9" width="3.97" height="5.97"/></clipPath><clipPath id="clip-path-55"><rect class="cls-2" y="91.5" width="23.87" height="3.97"/></clipPath><clipPath id="clip-path-56"><rect class="cls-2" x="95.48" y="91.5" width="23.87" height="3.97"/></clipPath><clipPath id="clip-path-57"><rect class="cls-2" x="7.96" y="51.72" width="3.97" height="41.77"/></clipPath><clipPath id="clip-path-58"><rect class="cls-2" x="7.96" y="51.72" width="3.98" height="19.89" transform="translate(-45.34 32.6) rotate(-53.11)"/></clipPath><clipPath id="clip-path-60"><rect class="cls-2" y="59.67" width="19.89" height="3.98" transform="translate(-35.02 18.3) rotate(-36.88)"/></clipPath><clipPath id="clip-path-62"><rect class="cls-2" x="107.41" y="51.72" width="3.98" height="41.77"/></clipPath><clipPath id="clip-path-63"><rect class="cls-2" x="107.41" y="51.72" width="3.97" height="19.89" transform="translate(-5.58 112.16) rotate(-53.12)"/></clipPath><clipPath id="clip-path-65"><rect class="cls-2" x="99.45" y="59.69" width="19.89" height="3.97" transform="translate(-15.13 77.92) rotate(-36.85)"/></clipPath><clipPath id="clip-path-67"><path class="cls-1" d="M-132.39,42A9.46,9.46,0,0,0-139,33a38.52,38.52,0,0,0-4.67-11.27,9.48,9.48,0,0,0-1.68-11.1,9.32,9.32,0,0,0-6.67-2.77A9.33,9.33,0,0,0-156.48,9a38.48,38.48,0,0,0-11.24-4.68,9.45,9.45,0,0,0-9-6.65,9.48,9.48,0,0,0-9,6.65A38.53,38.53,0,0,0-197,9a9.4,9.4,0,0,0-7.18-.68,1.4,1.4,0,0,0,.83,2.68,6.62,6.62,0,0,1,6.63,1.66,6.67,6.67,0,0,1,0,9.41,6.71,6.71,0,0,1-9.39,0,6.65,6.65,0,0,1-1.45-7.23,1.4,1.4,0,0,0-2.6-1.06,9.44,9.44,0,0,0,.39,8A38.52,38.52,0,0,0-214.44,33a9.45,9.45,0,0,0-6.64,9,9.46,9.46,0,0,0,6.64,9,38.57,38.57,0,0,0,4.67,11.26,9.5,9.5,0,0,0,1.67,11.11A9.53,9.53,0,0,0-197,75.11a37.85,37.85,0,0,0,4.31,2.29L-197,89a3.3,3.3,0,0,0,3.06,4.38h34.36A3.29,3.29,0,0,0-156.51,89l-4.28-11.62a37.85,37.85,0,0,0,4.31-2.29,9.41,9.41,0,0,0,4.4,1.1,9.77,9.77,0,0,0,2.91-.46,1.41,1.41,0,0,0-.86-2.68,6.6,6.6,0,0,1-6.73-1.62,6.67,6.67,0,0,1,0-9.41,6.7,6.7,0,0,1,9.39,0,6.64,6.64,0,0,1,1.47,7.17,1.41,1.41,0,0,0,2.61,1,9.47,9.47,0,0,0-.42-7.93A38.73,38.73,0,0,0-139,51.06,9.46,9.46,0,0,0-132.39,42Zm-2.81,0a6.65,6.65,0,0,1-6.64,6.65A6.65,6.65,0,0,1-148.48,42a6.66,6.66,0,0,1,6.64-6.66A6.66,6.66,0,0,1-135.2,42Zm-16-1.4H-163a13.64,13.64,0,0,0-3-7.31l8.39-8.4a9.54,9.54,0,0,0,7.46,1.67,31.13,31.13,0,0,1,3.14,7.57A9.45,9.45,0,0,0-151.18,40.63ZM-163,75.31c-1.42.53-2.82,1.07-4.29,1.47a9.58,9.58,0,0,0-.38-2.47,33,33,0,0,0,7.32-3,9.67,9.67,0,0,0,1.47,2A28.63,28.63,0,0,1-163,75.31Zm-31.58-2a9.67,9.67,0,0,0,1.47-2,33.64,33.64,0,0,0,7.31,3,9.88,9.88,0,0,0-.37,2.46A35.61,35.61,0,0,1-194.59,73.28ZM-207.94,59.9a36.1,36.1,0,0,1-3.5-8.42A9.44,9.44,0,0,0-209,51.1a33.56,33.56,0,0,0,3,7.33A9.81,9.81,0,0,0-207.94,59.9Zm4.68-2.44a30.42,30.42,0,0,1-3.14-7.57,9.44,9.44,0,0,0,4.1-6.46h11.85a13.83,13.83,0,0,0,3,7.28l-8.4,8.4A9.58,9.58,0,0,0-203.26,57.46Zm25.12,10.17a9.38,9.38,0,0,0-6.45,4.11,30.8,30.8,0,0,1-7.57-3.16,9.46,9.46,0,0,0-1.68-7.49l8.4-8.39a13.61,13.61,0,0,0,7.3,3Zm1.4,2.7A6.65,6.65,0,0,1-170.1,77a6.65,6.65,0,0,1-6.64,6.65A6.65,6.65,0,0,1-183.38,77,6.65,6.65,0,0,1-176.74,70.33Zm15.42-1.75a30.48,30.48,0,0,1-7.56,3.15,9.46,9.46,0,0,0-6.46-4.1V55.73a13.6,13.6,0,0,0,7.29-3l8.4,8.4A9.44,9.44,0,0,0-161.32,68.58ZM-176.74,53a11,11,0,0,1-11-11,11,11,0,0,1,11-11,11,11,0,0,1,11,11A11,11,0,0,1-176.74,53Zm-9.07-43.26a33.15,33.15,0,0,0-7.31,3,9.17,9.17,0,0,0-1.47-2,35.36,35.36,0,0,1,8.41-3.5A10,10,0,0,0-185.81,9.74Zm-6.35,5.74a30.42,30.42,0,0,1,7.57-3.16,9.41,9.41,0,0,0,6.45,4.11V28.32a13.75,13.75,0,0,0-7.29,3l-8.4-8.39A9.46,9.46,0,0,0-192.16,15.48Zm31.8-2.69a33,33,0,0,0-7.32-3,9.5,9.5,0,0,0,.38-2.46,35.36,35.36,0,0,1,8.41,3.5A9.42,9.42,0,0,0-160.36,12.79Zm-8.52-.47a30.51,30.51,0,0,1,7.56,3.16,9.47,9.47,0,0,0,1.66,7.46l-8.4,8.4a13.64,13.64,0,0,0-7.28-3V16.43A9.48,9.48,0,0,0-168.88,12.32Zm23.34,11.83A35.07,35.07,0,0,1-142,32.58a8.65,8.65,0,0,0-2.45.38,33.84,33.84,0,0,0-3-7.34A9.45,9.45,0,0,0-145.54,24.15Zm-1.83-11.54a6.67,6.67,0,0,1,0,9.41,6.71,6.71,0,0,1-9.39,0,6.75,6.75,0,0,1,0-9.41A6.7,6.7,0,0,1-147.37,12.61ZM-176.74.42a6.66,6.66,0,0,1,6.64,6.66,6.66,6.66,0,0,1-6.64,6.65,6.66,6.66,0,0,1-6.64-6.65,6.58,6.58,0,0,1,.11-1.19,1.23,1.23,0,0,0,.07-.32A6.64,6.64,0,0,1-176.74.42Zm-19.08,24.51,8.41,8.4a13.81,13.81,0,0,0-3,7.3H-202.3a9.48,9.48,0,0,0-4.1-6.47,30.74,30.74,0,0,1,3.14-7.57A9.52,9.52,0,0,0-195.82,24.93Zm-10.12.69A33.84,33.84,0,0,0-209,33a8.65,8.65,0,0,0-2.45-.38,35.9,35.9,0,0,1,3.49-8.43A9.81,9.81,0,0,0-205.94,25.62ZM-218.28,42a6.74,6.74,0,0,1,6.64-6.66A6.65,6.65,0,0,1-205,42a6.64,6.64,0,0,1-6.64,6.65A6.65,6.65,0,0,1-218.28,42Zm16.86,31.37a6.61,6.61,0,0,1-4.69-2,6.67,6.67,0,0,1,0-9.41,6.7,6.7,0,0,1,9.39,0,6.67,6.67,0,0,1,0,9.41A6.78,6.78,0,0,1-201.42,73.4ZM-159.14,90a.44.44,0,0,1-.42.6h-34.36a.45.45,0,0,1-.43-.6l4.26-11.52a37.75,37.75,0,0,0,4.32,1.31,9.49,9.49,0,0,0,9,6.66,9.46,9.46,0,0,0,9-6.66,37.91,37.91,0,0,0,4.33-1.31Zm1.48-30.87-8.4-8.4a13.6,13.6,0,0,0,3-7.29h11.86a9.41,9.41,0,0,0,4.1,6.46,30.45,30.45,0,0,1-3.15,7.57,9.23,9.23,0,0,0-1.83-.17A9.36,9.36,0,0,0-157.66,59.12Zm10.12-.69a33.56,33.56,0,0,0,3-7.33,9.43,9.43,0,0,0,2.45.38,34.83,34.83,0,0,1-3.49,8.42A9.81,9.81,0,0,0-147.54,58.43Z"/></clipPath><clipPath id="clip-path-68"><path class="cls-2" d="M-453.28,96h-74.57a2.57,2.57,0,0,1-2.54-2.6V87.91a2.58,2.58,0,0,1,2.54-2.6h28.57a6.67,6.67,0,0,1-.67-2.08,6.76,6.76,0,0,1,1.41-5.3l.92-1.13a7.13,7.13,0,0,0,1.46-5.57l-.39-2.43h-11.24a6,6,0,0,1-5.89-6.15.94.94,0,0,0-.38-.78l-2.37-1.67a2.66,2.66,0,0,1-1-2.9A2.55,2.55,0,0,1-515,55.44h19.32V52.51h-6.47A6,6,0,0,1-508,46.36a1,1,0,0,0-.39-.79l-2.37-1.67a2.63,2.63,0,0,1-1-2.89,2.53,2.53,0,0,1,2.43-1.87h13.67V37.67a10.17,10.17,0,0,0-5.71-9.28l-.72-.34V25.56H-479v2.49l-.72.34a10.16,10.16,0,0,0-5.7,9.28v1.47h13.66A2.55,2.55,0,0,1-469.35,41a2.63,2.63,0,0,1-1,2.88l-2.37,1.67a1,1,0,0,0-.39.79A6,6,0,0,1-479,52.51h-6.46v2.93h19.31a2.57,2.57,0,0,1,2.44,1.87,2.65,2.65,0,0,1-1,2.89l-2.37,1.67a1,1,0,0,0-.39.78,6,6,0,0,1-5.88,6.15h-11.25l-.38,2.43a7.05,7.05,0,0,0,1.47,5.57l.91,1.13a6.8,6.8,0,0,1,1.41,5.3,6.52,6.52,0,0,1-.68,2.08h28.58a2.57,2.57,0,0,1,2.53,2.6v5.44A2.56,2.56,0,0,1-453.28,96Zm-74.57-8.14a.15.15,0,0,0,0,.1v5.44a.14.14,0,0,0,0,.11h74.56a.14.14,0,0,0,0-.1V87.91a.14.14,0,0,0,0-.1h-35.07l3.1-2.26a4.11,4.11,0,0,0,1.6-2.7,4.29,4.29,0,0,0-.88-3.35l-.91-1.12a9.55,9.55,0,0,1-2-7.54l.72-4.54h13.38A3.53,3.53,0,0,0-470,62.65a3.44,3.44,0,0,1,1.46-2.83l2.35-1.67a.14.14,0,0,0,0-.15l-21.84-.06V50h9a3.53,3.53,0,0,0,3.38-3.65,3.44,3.44,0,0,1,1.46-2.84l2.36-1.66a.17.17,0,0,0,0-.15l-16.19-.07v-4a12.94,12.94,0,0,1,4.21-9.61h-13.65a13,13,0,0,1,4.22,9.61v4h-16.17c-.05.13,0,.2,0,.22l2.36,1.66a3.49,3.49,0,0,1,1.45,2.84A3.53,3.53,0,0,0-502.14,50h9v7.93H-515c0,.13,0,.2,0,.22l2.36,1.66a3.45,3.45,0,0,1,1.44,2.83,3.53,3.53,0,0,0,3.39,3.65h13.38l.72,4.54a9.64,9.64,0,0,1-2,7.54l-.92,1.13a4.22,4.22,0,0,0-.88,3.34,4.07,4.07,0,0,0,1.6,2.7l3.07,2.26Z"/></clipPath><clipPath id="clip-path-69"><path class="cls-1" d="M-522.95,54.73a2.81,2.81,0,0,1,2.82-2.81,5.64,5.64,0,0,0,5.63-5.63v-7a2.81,2.81,0,0,1,2.81-2.82h8.45V33.62h-8.45a5.64,5.64,0,0,0-5.63,5.63v7a2.82,2.82,0,0,1-2.81,2.81,5.64,5.64,0,0,0-5.64,5.63V74.45h2.82Z"/></clipPath><clipPath id="clip-path-70"><path class="cls-2" d="M-490.56,23.14a2.15,2.15,0,0,1-1.86-1.05l-3.2-5.33a2.15,2.15,0,0,1,.33-2.64l3.19-3.2a2.21,2.21,0,0,1,3.06,0l3.2,3.2a2.15,2.15,0,0,1,.33,2.64l-3.2,5.33A2.17,2.17,0,0,1-490.56,23.14Zm0-2.18h0Zm0-8.48-3.15,3.2,3.17,5.23,3.17-5.28Z"/></clipPath><clipPath id="clip-path-71"><path class="cls-1" d="M-477.89,33.61v2.82h8.44a2.81,2.81,0,0,1,2.82,2.81v7A5.64,5.64,0,0,0-461,51.92a2.81,2.81,0,0,1,2.82,2.81V74.45h2.82V54.73A5.64,5.64,0,0,0-461,49.1a2.81,2.81,0,0,1-2.81-2.82v-7a5.64,5.64,0,0,0-5.64-5.63Z"/></clipPath><clipPath id="clip-path-72"><path class="cls-1" d="M-472.26,23.76h2.82a8.46,8.46,0,0,0-8.45-8.45h-2.82v2.82h2.82a5.64,5.64,0,0,1,5.63,5.63"/></clipPath><clipPath id="clip-path-73"><path class="cls-1" d="M-503.24,18.12h2.82V15.31h-2.82a8.46,8.46,0,0,0-8.45,8.44h2.82a5.64,5.64,0,0,1,5.63-5.63"/></clipPath><clipPath id="clip-path-74"><path class="cls-1" d="M-23.4,82.64a4.36,4.36,0,0,1-3.1,1.26,4.37,4.37,0,0,1-3.11-1.26,7.5,7.5,0,0,0-5-1.9,7.43,7.43,0,0,0-5,1.9,4.39,4.39,0,0,1-3.11,1.26,4.36,4.36,0,0,1-3.1-1.26,7.47,7.47,0,0,0-5-1.9,7.45,7.45,0,0,0-5,1.9,4.39,4.39,0,0,1-3.11,1.26,4,4,0,0,1-1.81-.38V41.38h22v3.15h3.15V41.38h1.58a3.15,3.15,0,0,0,3.15-3.14V35.08a3.16,3.16,0,0,0-3.15-3.15h-.09A29.9,29.9,0,0,0-62.44,3.67V2a4.73,4.73,0,0,0-4.73-4.73A4.73,4.73,0,0,0-71.89,2V3.67a29.91,29.91,0,0,0-28.26,28.26h-.08a3.16,3.16,0,0,0-3.15,3.15v3.16a3.15,3.15,0,0,0,3.15,3.14h1.57v3.15h3.15V41.38h22.05v42.1a4,4,0,0,1-1.87.42,4.34,4.34,0,0,1-3.1-1.26,7.47,7.47,0,0,0-5-1.9,7.43,7.43,0,0,0-5,1.9A4.39,4.39,0,0,1-91.6,83.9a4.37,4.37,0,0,1-3.09-1.25,7.42,7.42,0,0,0-5-1.91,7.45,7.45,0,0,0-5,1.9,4.39,4.39,0,0,1-3.11,1.26,4.34,4.34,0,0,1-3.09-1.26,7.45,7.45,0,0,0-5-1.9V83.9a4.39,4.39,0,0,1,3.1,1.24,7.46,7.46,0,0,0,5,1.9,7.38,7.38,0,0,0,5-1.9,4.43,4.43,0,0,1,3.11-1.24,4.41,4.41,0,0,1,3.1,1.24,7.37,7.37,0,0,0,5,1.9,7.38,7.38,0,0,0,5-1.9,4.42,4.42,0,0,1,3.11-1.24,4.41,4.41,0,0,1,3.1,1.24,7.42,7.42,0,0,0,5,1.9,7.4,7.4,0,0,0,5-1.9,4.42,4.42,0,0,1,3.11-1.24,4.39,4.39,0,0,1,3.1,1.24,7.42,7.42,0,0,0,5,1.9,7.4,7.4,0,0,0,5-1.9,4.42,4.42,0,0,1,3.11-1.24,4.39,4.39,0,0,1,3.1,1.24,7.42,7.42,0,0,0,5,1.9,7.43,7.43,0,0,0,5-1.9,4.37,4.37,0,0,1,3.1-1.24,4.4,4.4,0,0,1,3.11,1.24,7.43,7.43,0,0,0,5,1.9,7.4,7.4,0,0,0,5-1.9,4.42,4.42,0,0,1,3.11-1.24V80.74A7.5,7.5,0,0,0-23.4,82.64ZM-67.17.45A1.57,1.57,0,0,1-65.6,2V3.59h-3.14V2A1.57,1.57,0,0,1-67.17.45ZM-71.49,6.8a37.09,37.09,0,0,0-8.33,11.91L-76.94,20A33.91,33.91,0,0,1-67.17,7.19,33.55,33.55,0,0,1-54.62,31.93H-79.7A34.09,34.09,0,0,1-78.09,23l-3-1a37,37,0,0,0-1.77,9.93H-97A26.77,26.77,0,0,1-71.49,6.8Zm-28.74,28.28H-46.7V31.93h-4.77A36.63,36.63,0,0,0-62.83,6.8a26.77,26.77,0,0,1,25.5,25.13h-6.22v3.15h9.45v3.16h-66.13Zm33,45.66a7,7,0,0,0-3.13.67v-40H-64V81.43A7,7,0,0,0-67.19,80.74Z"/></clipPath><clipPath id="clip-path-75"><rect class="cls-2" x="-2864" y="-2404.69" width="5224.37" height="4468.85"/></clipPath><clipPath id="clip-path-76"><path class="cls-1" d="M-26.5,91.77a4.4,4.4,0,0,1-3.11-1.25,7.43,7.43,0,0,0-5-1.91,7.38,7.38,0,0,0-5,1.91,4.42,4.42,0,0,1-3.11,1.25,4.4,4.4,0,0,1-3.1-1.25,7.42,7.42,0,0,0-5-1.91,7.45,7.45,0,0,0-5,1.91,4.38,4.38,0,0,1-3.1,1.25,4.4,4.4,0,0,1-3.1-1.25,7.43,7.43,0,0,0-5-1.91,7.39,7.39,0,0,0-5,1.91,4.44,4.44,0,0,1-3.11,1.25,4.4,4.4,0,0,1-3.1-1.25,7.42,7.42,0,0,0-5-1.91,7.43,7.43,0,0,0-5,1.91,4.37,4.37,0,0,1-3.09,1.25,4.38,4.38,0,0,1-3.1-1.25,7.42,7.42,0,0,0-5-1.91,7.38,7.38,0,0,0-5,1.91,4.4,4.4,0,0,1-3.1,1.25,4.38,4.38,0,0,1-3.1-1.25,7.42,7.42,0,0,0-5-1.91v3.16a4.37,4.37,0,0,1,3.1,1.24,7.42,7.42,0,0,0,5,1.91,7.42,7.42,0,0,0,5-1.91,4.39,4.39,0,0,1,3.1-1.24A4.39,4.39,0,0,1-96.62,93a7.38,7.38,0,0,0,5,1.91,7.39,7.39,0,0,0,5-1.91,4.43,4.43,0,0,1,3.11-1.24A4.39,4.39,0,0,1-80.36,93a7.4,7.4,0,0,0,5,1.91,7.4,7.4,0,0,0,5-1.91,4.39,4.39,0,0,1,3.1-1.24A4.42,4.42,0,0,1-64.09,93a7.42,7.42,0,0,0,5,1.91A7.45,7.45,0,0,0-54,93a4.37,4.37,0,0,1,3.1-1.24A4.39,4.39,0,0,1-47.82,93a7.42,7.42,0,0,0,5,1.91,7.42,7.42,0,0,0,5-1.91,4.4,4.4,0,0,1,3.11-1.24A4.42,4.42,0,0,1-31.54,93a7.43,7.43,0,0,0,5,1.91,7.42,7.42,0,0,0,5-1.91,4.42,4.42,0,0,1,3.11-1.24V88.61a7.4,7.4,0,0,0-5,1.91,4.44,4.44,0,0,1-3.11,1.25"/></clipPath><clipPath id="clip-path-78"><path class="cls-1" d="M-57.72,72.87A4.73,4.73,0,0,0-53,77.6a4.73,4.73,0,0,0,4.73-4.73V69.72h-3.16v3.15A1.57,1.57,0,0,1-53,74.44a1.57,1.57,0,0,1-1.57-1.57v-22h-3.15Z"/></clipPath><clipPath id="clip-path-79"><path class="cls-1" d="M-35.68,61.85V54h-3.15v7.87a1.57,1.57,0,0,1-1.57,1.58A1.58,1.58,0,0,1-42,61.85V49.25a4.72,4.72,0,0,0-4.72-4.72,4.74,4.74,0,0,0-4.73,4.72V54h3.16V49.25a1.57,1.57,0,0,1,1.57-1.57,1.57,1.57,0,0,1,1.57,1.57v12.6a4.73,4.73,0,0,0,4.73,4.72,4.72,4.72,0,0,0,4.72-4.72"/></clipPath><clipPath id="clip-path-80"><path class="cls-1" d="M-79.76,72.87a1.57,1.57,0,0,1-1.58,1.57,1.57,1.57,0,0,1-1.58-1.57V69.72h-3.14v3.15a4.73,4.73,0,0,0,4.72,4.73,4.74,4.74,0,0,0,4.73-4.73v-22h-3.15Z"/></clipPath><clipPath id="clip-path-81"><path class="cls-1" d="M-98.66,61.85a4.72,4.72,0,0,0,4.73,4.72,4.72,4.72,0,0,0,4.72-4.72V49.25a1.57,1.57,0,0,1,1.57-1.57,1.58,1.58,0,0,1,1.58,1.57V54h3.15V49.25a4.73,4.73,0,0,0-4.73-4.72,4.73,4.73,0,0,0-4.72,4.72v12.6a1.58,1.58,0,0,1-1.57,1.58,1.58,1.58,0,0,1-1.58-1.58V54h-3.15Z"/></clipPath><clipPath id="clip-path-82"><path class="cls-1" d="M-108.1,72.87a17.77,17.77,0,0,1,5.64.92l4.95,1.65-2.65-6.64a8.51,8.51,0,0,0-7.94-5.37,4.73,4.73,0,0,0-4.73,4.72,4.73,4.73,0,0,0,4.73,4.72m0-6.3a5.37,5.37,0,0,1,5,3.4l.16.4a20.92,20.92,0,0,0-5.17-.64,1.59,1.59,0,0,1-1.58-1.58,1.58,1.58,0,0,1,1.58-1.58"/></clipPath><clipPath id="clip-path-83"><path class="cls-1" d="M-34.17,68.8l-2.66,6.64,5-1.65a17.73,17.73,0,0,1,5.64-.92,4.73,4.73,0,0,0,4.72-4.72,4.73,4.73,0,0,0-4.72-4.72A8.51,8.51,0,0,0-34.17,68.8ZM-31.25,70a5.37,5.37,0,0,1,5-3.4,1.57,1.57,0,0,1,1.57,1.58,1.57,1.57,0,0,1-1.57,1.57,21,21,0,0,0-5.18.65Z"/></clipPath></defs><path class="cls-3" d="M51.72,91.5H67.63V81.56H51.72Zm17.9,4H49.73a2,2,0,0,1-2-2V79.56a2,2,0,0,1,2-2H69.62a2,2,0,0,1,2,2V93.49A2,2,0,0,1,69.62,95.48Z"/><g class="cls-4"><rect class="cls-2" x="-1216.82" y="-3701.15" width="5804.01" height="4970.61"/><g class="cls-5"><rect class="cls-2" x="17.97" y="47.81" width="83.4" height="77.43"/></g></g><rect class="cls-2" x="57.68" y="79.56" width="3.98" height="13.93"/><g class="cls-6"><rect class="cls-2" x="27.92" y="49.8" width="63.51" height="73.45"/></g><path class="cls-3" d="M41.77,91.5h35.8V4H41.77Zm37.8,4H39.78a2,2,0,0,1-2-2V2a2,2,0,0,1,2-2H79.57a2,2,0,0,1,2,2v91.5A2,2,0,0,1,79.57,95.48Z"/><g class="cls-7"><rect class="cls-2" x="-1216.82" y="-3701.15" width="5804.01" height="4964.66"/><g class="cls-8"><rect class="cls-2" x="8.03" y="-29.76" width="103.29" height="155"/></g></g><path class="cls-3" d="M25.86,91.5H37.79V11.94H25.86Zm13.92,4H23.87a2,2,0,0,1-2-2V10a2,2,0,0,1,2-2H39.78a2,2,0,0,1,2,2V93.49A2,2,0,0,1,39.78,95.48Z"/><g class="cls-9"><rect class="cls-2" x="-1216.82" y="-3701.15" width="5804.01" height="4964.66"/><g class="cls-8"><rect class="cls-2" x="-7.89" y="-21.81" width="79.42" height="147.05"/></g></g><rect class="cls-2" x="17.9" y="7.95" width="5.97" height="3.98"/><g class="cls-10"><rect class="cls-2" x="-11.86" y="-21.81" width="65.49" height="63.51"/></g><rect class="cls-2" x="33.82" width="51.72" height="3.97"/><g class="cls-11"><rect class="cls-2" x="4.05" y="-29.76" width="111.25" height="63.5"/></g><rect class="cls-2" x="45.75" y="67.63" width="3.97" height="5.97"/><g class="cls-12"><rect class="cls-2" x="15.99" y="37.87" width="63.5" height="65.5"/></g><rect class="cls-2" x="53.71" y="67.63" width="3.97" height="5.97"/><g class="cls-13"><rect class="cls-2" x="23.94" y="37.87" width="63.5" height="65.5"/></g><rect class="cls-2" x="61.66" y="67.63" width="3.98" height="5.97"/><g class="cls-14"><rect class="cls-2" x="31.9" y="37.87" width="63.51" height="65.5"/></g><rect class="cls-2" x="69.62" y="67.63" width="3.98" height="5.97"/><g class="cls-15"><rect class="cls-2" x="39.85" y="37.87" width="63.51" height="65.5"/></g><rect class="cls-2" x="45.75" y="57.68" width="3.97" height="5.97"/><g class="cls-16"><rect class="cls-2" x="15.99" y="27.92" width="63.5" height="65.49"/></g><rect class="cls-2" x="53.71" y="57.68" width="3.97" height="5.97"/><g class="cls-17"><rect class="cls-2" x="23.94" y="27.92" width="63.5" height="65.49"/></g><rect class="cls-2" x="61.66" y="57.68" width="3.98" height="5.97"/><g class="cls-18"><rect class="cls-2" x="31.9" y="27.92" width="63.51" height="65.49"/></g><rect class="cls-2" x="69.62" y="57.68" width="3.98" height="5.97"/><g class="cls-19"><rect class="cls-2" x="39.85" y="27.92" width="63.51" height="65.49"/></g><rect class="cls-2" x="45.75" y="47.74" width="3.97" height="5.97"/><g class="cls-20"><rect class="cls-2" x="15.99" y="17.97" width="63.5" height="65.49"/></g><rect class="cls-2" x="53.71" y="47.74" width="3.97" height="5.97"/><g class="cls-21"><rect class="cls-2" x="23.94" y="17.97" width="63.5" height="65.49"/></g><rect class="cls-2" x="61.66" y="47.74" width="3.98" height="5.97"/><g class="cls-22"><rect class="cls-2" x="31.9" y="17.97" width="63.51" height="65.49"/></g><rect class="cls-2" x="69.62" y="47.74" width="3.98" height="5.97"/><g class="cls-23"><rect class="cls-2" x="39.85" y="17.97" width="63.51" height="65.49"/></g><rect class="cls-2" x="45.75" y="37.8" width="3.97" height="5.96"/><g class="cls-24"><rect class="cls-2" x="15.99" y="8.03" width="63.5" height="65.49"/></g><rect class="cls-2" x="53.71" y="37.8" width="3.97" height="5.96"/><g class="cls-25"><rect class="cls-2" x="23.94" y="8.03" width="63.5" height="65.49"/></g><rect class="cls-2" x="61.66" y="37.8" width="3.98" height="5.96"/><g class="cls-26"><rect class="cls-2" x="31.9" y="8.03" width="63.51" height="65.49"/></g><rect class="cls-2" x="69.62" y="37.8" width="3.98" height="5.96"/><g class="cls-27"><rect class="cls-2" x="39.85" y="8.03" width="63.51" height="65.49"/></g><rect class="cls-2" x="45.75" y="27.85" width="3.97" height="5.97"/><g class="cls-28"><rect class="cls-2" x="15.99" y="-1.92" width="63.5" height="65.49"/></g><rect class="cls-2" x="53.71" y="27.85" width="3.97" height="5.97"/><g class="cls-29"><rect class="cls-2" x="23.94" y="-1.92" width="63.5" height="65.49"/></g><rect class="cls-2" x="61.66" y="27.85" width="3.98" height="5.97"/><g class="cls-30"><rect class="cls-2" x="31.9" y="-1.92" width="63.51" height="65.49"/></g><rect class="cls-2" x="69.62" y="27.85" width="3.98" height="5.97"/><g class="cls-31"><rect class="cls-2" x="39.85" y="-1.92" width="63.51" height="65.49"/></g><rect class="cls-2" x="45.75" y="17.9" width="3.97" height="5.97"/><g class="cls-32"><rect class="cls-2" x="15.99" y="-11.86" width="63.5" height="65.49"/></g><rect class="cls-2" x="53.71" y="17.9" width="3.97" height="5.97"/><g class="cls-33"><rect class="cls-2" x="23.94" y="-11.86" width="63.5" height="65.49"/></g><rect class="cls-2" x="61.66" y="17.9" width="3.98" height="5.97"/><g class="cls-34"><rect class="cls-2" x="31.9" y="-11.86" width="63.51" height="65.49"/></g><rect class="cls-2" x="69.62" y="17.9" width="3.98" height="5.97"/><g class="cls-35"><rect class="cls-2" x="39.85" y="-11.86" width="63.51" height="65.49"/></g><rect class="cls-2" x="45.75" y="7.95" width="3.97" height="5.97"/><g class="cls-36"><rect class="cls-2" x="15.99" y="-21.81" width="63.5" height="65.49"/></g><rect class="cls-2" x="53.71" y="7.95" width="3.97" height="5.97"/><g class="cls-37"><rect class="cls-2" x="23.94" y="-21.81" width="63.5" height="65.49"/></g><rect class="cls-2" x="61.66" y="7.95" width="3.98" height="5.97"/><g class="cls-38"><rect class="cls-2" x="31.9" y="-21.81" width="63.51" height="65.49"/></g><rect class="cls-2" x="69.62" y="7.95" width="3.98" height="5.97"/><g class="cls-39"><rect class="cls-2" x="39.85" y="-21.81" width="63.51" height="65.49"/></g><rect class="cls-2" x="29.84" y="77.58" width="3.98" height="5.97"/><g class="cls-40"><rect class="cls-2" x="0.07" y="47.81" width="63.51" height="65.5"/></g><rect class="cls-2" x="29.84" y="67.63" width="3.98" height="5.97"/><g class="cls-41"><rect class="cls-2" x="0.07" y="37.87" width="63.51" height="65.5"/></g><rect class="cls-2" x="29.84" y="57.68" width="3.98" height="5.97"/><g class="cls-42"><rect class="cls-2" x="0.07" y="27.92" width="63.51" height="65.49"/></g><rect class="cls-2" x="29.84" y="47.74" width="3.98" height="5.97"/><g class="cls-43"><rect class="cls-2" x="0.07" y="17.97" width="63.51" height="65.49"/></g><rect class="cls-2" x="29.84" y="37.8" width="3.98" height="5.96"/><g class="cls-44"><rect class="cls-2" x="0.07" y="8.03" width="63.51" height="65.49"/></g><rect class="cls-2" x="29.84" y="27.85" width="3.98" height="5.97"/><g class="cls-45"><rect class="cls-2" x="0.07" y="-1.92" width="63.51" height="65.49"/></g><rect class="cls-2" x="29.84" y="17.9" width="3.98" height="5.97"/><g class="cls-46"><rect class="cls-2" x="0.07" y="-11.86" width="63.51" height="65.49"/></g><path class="cls-3" d="M81.55,91.5H93.48V11.94H81.55Zm13.93,4H79.56a2,2,0,0,1-2-2V10a2,2,0,0,1,2-2H95.48a2,2,0,0,1,2,2V93.49A2,2,0,0,1,95.48,95.48Z"/><g class="cls-47"><rect class="cls-2" x="-1216.82" y="-3701.15" width="5804.01" height="4964.66"/><g class="cls-8"><rect class="cls-2" x="47.81" y="-21.81" width="79.42" height="147.05"/></g></g><rect class="cls-2" x="95.48" y="7.95" width="5.97" height="3.98"/><g class="cls-48"><rect class="cls-2" x="65.71" y="-21.81" width="65.49" height="63.51"/></g><rect class="cls-2" x="85.53" y="77.58" width="3.97" height="5.97"/><g class="cls-49"><rect class="cls-2" x="55.77" y="47.81" width="63.5" height="65.5"/></g><rect class="cls-2" x="85.53" y="67.63" width="3.97" height="5.97"/><g class="cls-50"><rect class="cls-2" x="55.77" y="37.87" width="63.5" height="65.5"/></g><rect class="cls-2" x="85.53" y="57.68" width="3.97" height="5.97"/><g class="cls-51"><rect class="cls-2" x="55.77" y="27.92" width="63.5" height="65.49"/></g><rect class="cls-2" x="85.53" y="47.74" width="3.97" height="5.97"/><g class="cls-52"><rect class="cls-2" x="55.77" y="17.97" width="63.5" height="65.49"/></g><rect class="cls-2" x="85.53" y="37.8" width="3.97" height="5.96"/><g class="cls-53"><rect class="cls-2" x="55.77" y="8.03" width="63.5" height="65.49"/></g><rect class="cls-2" x="85.53" y="27.85" width="3.97" height="5.97"/><g class="cls-54"><rect class="cls-2" x="55.77" y="-1.92" width="63.5" height="65.49"/></g><rect class="cls-2" x="85.53" y="17.9" width="3.97" height="5.97"/><g class="cls-55"><rect class="cls-2" x="55.77" y="-11.86" width="63.5" height="65.49"/></g><rect class="cls-2" y="91.5" width="23.87" height="3.97"/><g class="cls-56"><rect class="cls-2" x="-29.76" y="61.74" width="83.39" height="63.5"/></g><rect class="cls-2" x="95.48" y="91.5" width="23.87" height="3.97"/><g class="cls-57"><rect class="cls-2" x="65.71" y="61.74" width="83.4" height="63.5"/></g><rect class="cls-2" x="7.96" y="51.72" width="3.97" height="41.77"/><g class="cls-58"><rect class="cls-2" x="-21.81" y="21.95" width="63.5" height="101.3"/></g><rect class="cls-2" x="7.96" y="51.72" width="3.98" height="19.89" transform="translate(-45.34 32.6) rotate(-53.11)"/><g class="cls-59"><rect class="cls-2" x="-1216.82" y="-3701.15" width="5804.01" height="4964.66"/><g class="cls-8"><rect class="cls-2" x="-28.97" y="24.34" width="77.83" height="74.64"/></g></g><rect class="cls-2" y="59.67" width="19.89" height="3.98" transform="translate(-35.02 18.3) rotate(-36.88)"/><g class="cls-60"><rect class="cls-2" x="-1216.82" y="-3701.15" width="5804.01" height="4964.66"/><g class="cls-8"><rect class="cls-2" x="-28.97" y="24.34" width="77.83" height="74.65"/></g></g><rect class="cls-2" x="107.41" y="51.72" width="3.98" height="41.77"/><g class="cls-61"><rect class="cls-2" x="77.65" y="21.95" width="63.51" height="101.3"/></g><rect class="cls-2" x="107.41" y="51.72" width="3.97" height="19.89" transform="translate(-5.58 112.16) rotate(-53.12)"/><g class="cls-62"><rect class="cls-2" x="-1216.82" y="-3701.15" width="5804.01" height="4964.66"/><g class="cls-8"><rect class="cls-2" x="70.49" y="24.34" width="77.83" height="74.64"/></g></g><rect class="cls-2" x="99.45" y="59.69" width="19.89" height="3.97" transform="translate(-15.13 77.92) rotate(-36.85)"/><g class="cls-63"><rect class="cls-2" x="-1216.82" y="-3701.15" width="5804.01" height="4964.66"/><g class="cls-8"><rect class="cls-2" x="70.48" y="24.35" width="77.83" height="74.64"/></g></g><path class="cls-3" d="M-132.39,42A9.46,9.46,0,0,0-139,33a38.52,38.52,0,0,0-4.67-11.27,9.48,9.48,0,0,0-1.68-11.1,9.32,9.32,0,0,0-6.67-2.77A9.33,9.33,0,0,0-156.48,9a38.48,38.48,0,0,0-11.24-4.68,9.45,9.45,0,0,0-9-6.65,9.48,9.48,0,0,0-9,6.65A38.53,38.53,0,0,0-197,9a9.4,9.4,0,0,0-7.18-.68,1.4,1.4,0,0,0,.83,2.68,6.62,6.62,0,0,1,6.63,1.66,6.67,6.67,0,0,1,0,9.41,6.71,6.71,0,0,1-9.39,0,6.65,6.65,0,0,1-1.45-7.23,1.4,1.4,0,0,0-2.6-1.06,9.44,9.44,0,0,0,.39,8A38.52,38.52,0,0,0-214.44,33a9.45,9.45,0,0,0-6.64,9,9.46,9.46,0,0,0,6.64,9,38.57,38.57,0,0,0,4.67,11.26,9.5,9.5,0,0,0,1.67,11.11A9.53,9.53,0,0,0-197,75.11a37.85,37.85,0,0,0,4.31,2.29L-197,89a3.3,3.3,0,0,0,3.06,4.38h34.36A3.29,3.29,0,0,0-156.51,89l-4.28-11.62a37.85,37.85,0,0,0,4.31-2.29,9.41,9.41,0,0,0,4.4,1.1,9.77,9.77,0,0,0,2.91-.46,1.41,1.41,0,0,0-.86-2.68,6.6,6.6,0,0,1-6.73-1.62,6.67,6.67,0,0,1,0-9.41,6.7,6.7,0,0,1,9.39,0,6.64,6.64,0,0,1,1.47,7.17,1.41,1.41,0,0,0,2.61,1,9.47,9.47,0,0,0-.42-7.93A38.73,38.73,0,0,0-139,51.06,9.46,9.46,0,0,0-132.39,42Zm-2.81,0a6.65,6.65,0,0,1-6.64,6.65A6.65,6.65,0,0,1-148.48,42a6.66,6.66,0,0,1,6.64-6.66A6.66,6.66,0,0,1-135.2,42Zm-16-1.4H-163a13.64,13.64,0,0,0-3-7.31l8.39-8.4a9.54,9.54,0,0,0,7.46,1.67,31.13,31.13,0,0,1,3.14,7.57A9.45,9.45,0,0,0-151.18,40.63ZM-163,75.31c-1.42.53-2.82,1.07-4.29,1.47a9.58,9.58,0,0,0-.38-2.47,33,33,0,0,0,7.32-3,9.67,9.67,0,0,0,1.47,2A28.63,28.63,0,0,1-163,75.31Zm-31.58-2a9.67,9.67,0,0,0,1.47-2,33.64,33.64,0,0,0,7.31,3,9.88,9.88,0,0,0-.37,2.46A35.61,35.61,0,0,1-194.59,73.28ZM-207.94,59.9a36.1,36.1,0,0,1-3.5-8.42A9.44,9.44,0,0,0-209,51.1a33.56,33.56,0,0,0,3,7.33A9.81,9.81,0,0,0-207.94,59.9Zm4.68-2.44a30.42,30.42,0,0,1-3.14-7.57,9.44,9.44,0,0,0,4.1-6.46h11.85a13.83,13.83,0,0,0,3,7.28l-8.4,8.4A9.58,9.58,0,0,0-203.26,57.46Zm25.12,10.17a9.38,9.38,0,0,0-6.45,4.11,30.8,30.8,0,0,1-7.57-3.16,9.46,9.46,0,0,0-1.68-7.49l8.4-8.39a13.61,13.61,0,0,0,7.3,3Zm1.4,2.7A6.65,6.65,0,0,1-170.1,77a6.65,6.65,0,0,1-6.64,6.65A6.65,6.65,0,0,1-183.38,77,6.65,6.65,0,0,1-176.74,70.33Zm15.42-1.75a30.48,30.48,0,0,1-7.56,3.15,9.46,9.46,0,0,0-6.46-4.1V55.73a13.6,13.6,0,0,0,7.29-3l8.4,8.4A9.44,9.44,0,0,0-161.32,68.58ZM-176.74,53a11,11,0,0,1-11-11,11,11,0,0,1,11-11,11,11,0,0,1,11,11A11,11,0,0,1-176.74,53Zm-9.07-43.26a33.15,33.15,0,0,0-7.31,3,9.17,9.17,0,0,0-1.47-2,35.36,35.36,0,0,1,8.41-3.5A10,10,0,0,0-185.81,9.74Zm-6.35,5.74a30.42,30.42,0,0,1,7.57-3.16,9.41,9.41,0,0,0,6.45,4.11V28.32a13.75,13.75,0,0,0-7.29,3l-8.4-8.39A9.46,9.46,0,0,0-192.16,15.48Zm31.8-2.69a33,33,0,0,0-7.32-3,9.5,9.5,0,0,0,.38-2.46,35.36,35.36,0,0,1,8.41,3.5A9.42,9.42,0,0,0-160.36,12.79Zm-8.52-.47a30.51,30.51,0,0,1,7.56,3.16,9.47,9.47,0,0,0,1.66,7.46l-8.4,8.4a13.64,13.64,0,0,0-7.28-3V16.43A9.48,9.48,0,0,0-168.88,12.32Zm23.34,11.83A35.07,35.07,0,0,1-142,32.58a8.65,8.65,0,0,0-2.45.38,33.84,33.84,0,0,0-3-7.34A9.45,9.45,0,0,0-145.54,24.15Zm-1.83-11.54a6.67,6.67,0,0,1,0,9.41,6.71,6.71,0,0,1-9.39,0,6.75,6.75,0,0,1,0-9.41A6.7,6.7,0,0,1-147.37,12.61ZM-176.74.42a6.66,6.66,0,0,1,6.64,6.66,6.66,6.66,0,0,1-6.64,6.65,6.66,6.66,0,0,1-6.64-6.65,6.58,6.58,0,0,1,.11-1.19,1.23,1.23,0,0,0,.07-.32A6.64,6.64,0,0,1-176.74.42Zm-19.08,24.51,8.41,8.4a13.81,13.81,0,0,0-3,7.3H-202.3a9.48,9.48,0,0,0-4.1-6.47,30.74,30.74,0,0,1,3.14-7.57A9.52,9.52,0,0,0-195.82,24.93Zm-10.12.69A33.84,33.84,0,0,0-209,33a8.65,8.65,0,0,0-2.45-.38,35.9,35.9,0,0,1,3.49-8.43A9.81,9.81,0,0,0-205.94,25.62ZM-218.28,42a6.74,6.74,0,0,1,6.64-6.66A6.65,6.65,0,0,1-205,42a6.64,6.64,0,0,1-6.64,6.65A6.65,6.65,0,0,1-218.28,42Zm16.86,31.37a6.61,6.61,0,0,1-4.69-2,6.67,6.67,0,0,1,0-9.41,6.7,6.7,0,0,1,9.39,0,6.67,6.67,0,0,1,0,9.41A6.78,6.78,0,0,1-201.42,73.4ZM-159.14,90a.44.44,0,0,1-.42.6h-34.36a.45.45,0,0,1-.43-.6l4.26-11.52a37.75,37.75,0,0,0,4.32,1.31,9.49,9.49,0,0,0,9,6.66,9.46,9.46,0,0,0,9-6.66,37.91,37.91,0,0,0,4.33-1.31Zm1.48-30.87-8.4-8.4a13.6,13.6,0,0,0,3-7.29h11.86a9.41,9.41,0,0,0,4.1,6.46,30.45,30.45,0,0,1-3.15,7.57,9.23,9.23,0,0,0-1.83-.17A9.36,9.36,0,0,0-157.66,59.12Zm10.12-.69a33.56,33.56,0,0,0,3-7.33,9.43,9.43,0,0,0,2.45.38,34.83,34.83,0,0,1-3.49,8.42A9.81,9.81,0,0,0-147.54,58.43Z"/><g class="cls-64"><rect class="cls-2" x="-4741.06" y="-2217.74" width="5391.41" height="4611.73"/></g><path class="cls-2" d="M-453.28,96h-74.57a2.57,2.57,0,0,1-2.54-2.6V87.91a2.58,2.58,0,0,1,2.54-2.6h28.57a6.67,6.67,0,0,1-.67-2.08,6.76,6.76,0,0,1,1.41-5.3l.92-1.13a7.13,7.13,0,0,0,1.46-5.57l-.39-2.43h-11.24a6,6,0,0,1-5.89-6.15.94.94,0,0,0-.38-.78l-2.37-1.67a2.66,2.66,0,0,1-1-2.9A2.55,2.55,0,0,1-515,55.44h19.32V52.51h-6.47A6,6,0,0,1-508,46.36a1,1,0,0,0-.39-.79l-2.37-1.67a2.63,2.63,0,0,1-1-2.89,2.53,2.53,0,0,1,2.43-1.87h13.67V37.67a10.17,10.17,0,0,0-5.71-9.28l-.72-.34V25.56H-479v2.49l-.72.34a10.16,10.16,0,0,0-5.7,9.28v1.47h13.66A2.55,2.55,0,0,1-469.35,41a2.63,2.63,0,0,1-1,2.88l-2.37,1.67a1,1,0,0,0-.39.79A6,6,0,0,1-479,52.51h-6.46v2.93h19.31a2.57,2.57,0,0,1,2.44,1.87,2.65,2.65,0,0,1-1,2.89l-2.37,1.67a1,1,0,0,0-.39.78,6,6,0,0,1-5.88,6.15h-11.25l-.38,2.43a7.05,7.05,0,0,0,1.47,5.57l.91,1.13a6.8,6.8,0,0,1,1.41,5.3,6.52,6.52,0,0,1-.68,2.08h28.58a2.57,2.57,0,0,1,2.53,2.6v5.44A2.56,2.56,0,0,1-453.28,96Zm-74.57-8.14a.15.15,0,0,0,0,.1v5.44a.14.14,0,0,0,0,.11h74.56a.14.14,0,0,0,0-.1V87.91a.14.14,0,0,0,0-.1h-35.07l3.1-2.26a4.11,4.11,0,0,0,1.6-2.7,4.29,4.29,0,0,0-.88-3.35l-.91-1.12a9.55,9.55,0,0,1-2-7.54l.72-4.54h13.38A3.53,3.53,0,0,0-470,62.65a3.44,3.44,0,0,1,1.46-2.83l2.35-1.67a.14.14,0,0,0,0-.15l-21.84-.06V50h9a3.53,3.53,0,0,0,3.38-3.65,3.44,3.44,0,0,1,1.46-2.84l2.36-1.66a.17.17,0,0,0,0-.15l-16.19-.07v-4a12.94,12.94,0,0,1,4.21-9.61h-13.65a13,13,0,0,1,4.22,9.61v4h-16.17c-.05.13,0,.2,0,.22l2.36,1.66a3.49,3.49,0,0,1,1.45,2.84A3.53,3.53,0,0,0-502.14,50h9v7.93H-515c0,.13,0,.2,0,.22l2.36,1.66a3.45,3.45,0,0,1,1.44,2.83,3.53,3.53,0,0,0,3.39,3.65h13.38l.72,4.54a9.64,9.64,0,0,1-2,7.54l-.92,1.13a4.22,4.22,0,0,0-.88,3.34,4.07,4.07,0,0,0,1.6,2.7l3.07,2.26Z"/><g class="cls-65"><path class="cls-2" d="M1932.36,1879.83H-2945V-2526.42H1932.36Zm-4874.34-3H1929.36V-2523.42H-2942Z"/></g><path class="cls-3" d="M-522.95,54.73a2.81,2.81,0,0,1,2.82-2.81,5.64,5.64,0,0,0,5.63-5.63v-7a2.81,2.81,0,0,1,2.81-2.82h8.45V33.62h-8.45a5.64,5.64,0,0,0-5.63,5.63v7a2.82,2.82,0,0,1-2.81,2.81,5.64,5.64,0,0,0-5.64,5.63V74.45h2.82Z"/><g class="cls-66"><rect class="cls-2" x="-3176.81" y="-2622.32" width="5338.01" height="4566.05"/></g><path class="cls-2" d="M-490.56,23.14a2.15,2.15,0,0,1-1.86-1.05l-3.2-5.33a2.15,2.15,0,0,1,.33-2.64l3.19-3.2a2.21,2.21,0,0,1,3.06,0l3.2,3.2a2.15,2.15,0,0,1,.33,2.64l-3.2,5.33A2.17,2.17,0,0,1-490.56,23.14Zm0-2.18h0Zm0-8.48-3.15,3.2,3.17,5.23,3.17-5.28Z"/><g class="cls-67"><path class="cls-2" d="M1516.55,1475.57H-2523.77V-1980.77H1516.55Zm-4038.12-2.2H1514.35V-1978.57H-2521.57Z"/></g><path class="cls-3" d="M-477.89,33.61v2.82h8.44a2.81,2.81,0,0,1,2.82,2.81v7A5.64,5.64,0,0,0-461,51.92a2.81,2.81,0,0,1,2.82,2.81V74.45h2.82V54.73A5.64,5.64,0,0,0-461,49.1a2.81,2.81,0,0,1-2.81-2.82v-7a5.64,5.64,0,0,0-5.64-5.63Z"/><g class="cls-68"><rect class="cls-2" x="-3176.81" y="-2622.32" width="5338.01" height="4566.05"/></g><path class="cls-3" d="M-472.26,23.76h2.82a8.46,8.46,0,0,0-8.45-8.45h-2.82v2.82h2.82a5.64,5.64,0,0,1,5.63,5.63"/><g class="cls-69"><rect class="cls-2" x="-3176.81" y="-2622.32" width="5338.01" height="4566.05"/></g><path class="cls-3" d="M-503.24,18.12h2.82V15.31h-2.82a8.46,8.46,0,0,0-8.45,8.44h2.82a5.64,5.64,0,0,1,5.63-5.63"/><g class="cls-70"><rect class="cls-2" x="-3176.81" y="-2622.32" width="5338.01" height="4566.05"/></g><path class="cls-3" d="M-23.4,82.64a4.36,4.36,0,0,1-3.1,1.26,4.37,4.37,0,0,1-3.11-1.26,7.5,7.5,0,0,0-5-1.9,7.43,7.43,0,0,0-5,1.9,4.39,4.39,0,0,1-3.11,1.26,4.36,4.36,0,0,1-3.1-1.26,7.47,7.47,0,0,0-5-1.9,7.45,7.45,0,0,0-5,1.9,4.39,4.39,0,0,1-3.11,1.26,4,4,0,0,1-1.81-.38V41.38h22v3.15h3.15V41.38h1.58a3.15,3.15,0,0,0,3.15-3.14V35.08a3.16,3.16,0,0,0-3.15-3.15h-.09A29.9,29.9,0,0,0-62.44,3.67V2a4.73,4.73,0,0,0-4.73-4.73A4.73,4.73,0,0,0-71.89,2V3.67a29.91,29.91,0,0,0-28.26,28.26h-.08a3.16,3.16,0,0,0-3.15,3.15v3.16a3.15,3.15,0,0,0,3.15,3.14h1.57v3.15h3.15V41.38h22.05v42.1a4,4,0,0,1-1.87.42,4.34,4.34,0,0,1-3.1-1.26,7.47,7.47,0,0,0-5-1.9,7.43,7.43,0,0,0-5,1.9A4.39,4.39,0,0,1-91.6,83.9a4.37,4.37,0,0,1-3.09-1.25,7.42,7.42,0,0,0-5-1.91,7.45,7.45,0,0,0-5,1.9,4.39,4.39,0,0,1-3.11,1.26,4.34,4.34,0,0,1-3.09-1.26,7.45,7.45,0,0,0-5-1.9V83.9a4.39,4.39,0,0,1,3.1,1.24,7.46,7.46,0,0,0,5,1.9,7.38,7.38,0,0,0,5-1.9,4.43,4.43,0,0,1,3.11-1.24,4.41,4.41,0,0,1,3.1,1.24,7.37,7.37,0,0,0,5,1.9,7.38,7.38,0,0,0,5-1.9,4.42,4.42,0,0,1,3.11-1.24,4.41,4.41,0,0,1,3.1,1.24,7.42,7.42,0,0,0,5,1.9,7.4,7.4,0,0,0,5-1.9,4.42,4.42,0,0,1,3.11-1.24,4.39,4.39,0,0,1,3.1,1.24,7.42,7.42,0,0,0,5,1.9,7.4,7.4,0,0,0,5-1.9,4.42,4.42,0,0,1,3.11-1.24,4.39,4.39,0,0,1,3.1,1.24,7.42,7.42,0,0,0,5,1.9,7.43,7.43,0,0,0,5-1.9,4.37,4.37,0,0,1,3.1-1.24,4.4,4.4,0,0,1,3.11,1.24,7.43,7.43,0,0,0,5,1.9,7.4,7.4,0,0,0,5-1.9,4.42,4.42,0,0,1,3.11-1.24V80.74A7.5,7.5,0,0,0-23.4,82.64ZM-67.17.45A1.57,1.57,0,0,1-65.6,2V3.59h-3.14V2A1.57,1.57,0,0,1-67.17.45ZM-71.49,6.8a37.09,37.09,0,0,0-8.33,11.91L-76.94,20A33.91,33.91,0,0,1-67.17,7.19,33.55,33.55,0,0,1-54.62,31.93H-79.7A34.09,34.09,0,0,1-78.09,23l-3-1a37,37,0,0,0-1.77,9.93H-97A26.77,26.77,0,0,1-71.49,6.8Zm-28.74,28.28H-46.7V31.93h-4.77A36.63,36.63,0,0,0-62.83,6.8a26.77,26.77,0,0,1,25.5,25.13h-6.22v3.15h9.45v3.16h-66.13Zm33,45.66a7,7,0,0,0-3.13.67v-40H-64V81.43A7,7,0,0,0-67.19,80.74Z"/><g class="cls-71"><rect class="cls-2" x="-2864" y="-2404.69" width="5224.37" height="4468.85"/><g class="cls-72"><rect class="cls-2" x="-142.77" y="-29.5" width="151.21" height="143.33"/></g></g><path class="cls-3" d="M-26.5,91.77a4.4,4.4,0,0,1-3.11-1.25,7.43,7.43,0,0,0-5-1.91,7.38,7.38,0,0,0-5,1.91,4.42,4.42,0,0,1-3.11,1.25,4.4,4.4,0,0,1-3.1-1.25,7.42,7.42,0,0,0-5-1.91,7.45,7.45,0,0,0-5,1.91,4.38,4.38,0,0,1-3.1,1.25,4.4,4.4,0,0,1-3.1-1.25,7.43,7.43,0,0,0-5-1.91,7.39,7.39,0,0,0-5,1.91,4.44,4.44,0,0,1-3.11,1.25,4.4,4.4,0,0,1-3.1-1.25,7.42,7.42,0,0,0-5-1.91,7.43,7.43,0,0,0-5,1.91,4.37,4.37,0,0,1-3.09,1.25,4.38,4.38,0,0,1-3.1-1.25,7.42,7.42,0,0,0-5-1.91,7.38,7.38,0,0,0-5,1.91,4.4,4.4,0,0,1-3.1,1.25,4.38,4.38,0,0,1-3.1-1.25,7.42,7.42,0,0,0-5-1.91v3.16a4.37,4.37,0,0,1,3.1,1.24,7.42,7.42,0,0,0,5,1.91,7.42,7.42,0,0,0,5-1.91,4.39,4.39,0,0,1,3.1-1.24A4.39,4.39,0,0,1-96.62,93a7.38,7.38,0,0,0,5,1.91,7.39,7.39,0,0,0,5-1.91,4.43,4.43,0,0,1,3.11-1.24A4.39,4.39,0,0,1-80.36,93a7.4,7.4,0,0,0,5,1.91,7.4,7.4,0,0,0,5-1.91,4.39,4.39,0,0,1,3.1-1.24A4.42,4.42,0,0,1-64.09,93a7.42,7.42,0,0,0,5,1.91A7.45,7.45,0,0,0-54,93a4.37,4.37,0,0,1,3.1-1.24A4.39,4.39,0,0,1-47.82,93a7.42,7.42,0,0,0,5,1.91,7.42,7.42,0,0,0,5-1.91,4.4,4.4,0,0,1,3.11-1.24A4.42,4.42,0,0,1-31.54,93a7.43,7.43,0,0,0,5,1.91,7.42,7.42,0,0,0,5-1.91,4.42,4.42,0,0,1,3.11-1.24V88.61a7.4,7.4,0,0,0-5,1.91,4.44,4.44,0,0,1-3.11,1.25"/><g class="cls-73"><rect class="cls-2" x="-2864" y="-2404.69" width="5224.37" height="4468.85"/><g class="cls-72"><rect class="cls-2" x="-142.77" y="61.82" width="151.21" height="59.89"/></g></g><path class="cls-3" d="M-57.72,72.87A4.73,4.73,0,0,0-53,77.6a4.73,4.73,0,0,0,4.73-4.73V69.72h-3.16v3.15A1.57,1.57,0,0,1-53,74.44a1.57,1.57,0,0,1-1.57-1.57v-22h-3.15Z"/><g class="cls-74"><rect class="cls-2" x="-2864" y="-2404.69" width="5224.37" height="4468.85"/></g><path class="cls-3" d="M-35.68,61.85V54h-3.15v7.87a1.57,1.57,0,0,1-1.57,1.58A1.58,1.58,0,0,1-42,61.85V49.25a4.72,4.72,0,0,0-4.72-4.72,4.74,4.74,0,0,0-4.73,4.72V54h3.16V49.25a1.57,1.57,0,0,1,1.57-1.57,1.57,1.57,0,0,1,1.57,1.57v12.6a4.73,4.73,0,0,0,4.73,4.72,4.72,4.72,0,0,0,4.72-4.72"/><g class="cls-75"><rect class="cls-2" x="-2864" y="-2404.69" width="5224.37" height="4468.85"/></g><path class="cls-3" d="M-79.76,72.87a1.57,1.57,0,0,1-1.58,1.57,1.57,1.57,0,0,1-1.58-1.57V69.72h-3.14v3.15a4.73,4.73,0,0,0,4.72,4.73,4.74,4.74,0,0,0,4.73-4.73v-22h-3.15Z"/><g class="cls-76"><rect class="cls-2" x="-2864" y="-2404.69" width="5224.37" height="4468.85"/></g><path class="cls-3" d="M-98.66,61.85a4.72,4.72,0,0,0,4.73,4.72,4.72,4.72,0,0,0,4.72-4.72V49.25a1.57,1.57,0,0,1,1.57-1.57,1.58,1.58,0,0,1,1.58,1.57V54h3.15V49.25a4.73,4.73,0,0,0-4.73-4.72,4.73,4.73,0,0,0-4.72,4.72v12.6a1.58,1.58,0,0,1-1.57,1.58,1.58,1.58,0,0,1-1.58-1.58V54h-3.15Z"/><g class="cls-77"><rect class="cls-2" x="-2864" y="-2404.69" width="5224.37" height="4468.85"/></g><path class="cls-3" d="M-108.1,72.87a17.77,17.77,0,0,1,5.64.92l4.95,1.65-2.65-6.64a8.51,8.51,0,0,0-7.94-5.37,4.73,4.73,0,0,0-4.73,4.72,4.73,4.73,0,0,0,4.73,4.72m0-6.3a5.37,5.37,0,0,1,5,3.4l.16.4a20.92,20.92,0,0,0-5.17-.64,1.59,1.59,0,0,1-1.58-1.58,1.58,1.58,0,0,1,1.58-1.58"/><g class="cls-78"><rect class="cls-2" x="-2864" y="-2404.69" width="5224.37" height="4468.85"/></g><path class="cls-3" d="M-34.17,68.8l-2.66,6.64,5-1.65a17.73,17.73,0,0,1,5.64-.92,4.73,4.73,0,0,0,4.72-4.72,4.73,4.73,0,0,0-4.72-4.72A8.51,8.51,0,0,0-34.17,68.8ZM-31.25,70a5.37,5.37,0,0,1,5-3.4,1.57,1.57,0,0,1,1.57,1.58,1.57,1.57,0,0,1-1.57,1.57,21,21,0,0,0-5.18.65Z"/><g class="cls-79"><rect class="cls-2" x="-2864" y="-2404.69" width="5224.37" height="4468.85"/><g class="cls-72"><rect class="cls-2" x="-63.62" y="36.63" width="68.9" height="65.6"/></g></g></svg>