<svg id="Layer_1" data-name="Layer 1" xmlns="http://www.w3.org/2000/svg" xmlns:xlink="http://www.w3.org/1999/xlink" viewBox="0 0 88.69 95.78"><defs><style>.cls-1,.cls-2,.cls-4{fill:#fff;}.cls-1,.cls-3{clip-rule:evenodd;}.cls-3{fill:none;}.cls-4{fill-rule:evenodd;}.cls-5{clip-path:url(#clip-path);}.cls-6{clip-path:url(#clip-path-2);}.cls-7{clip-path:url(#clip-path-3);}.cls-8{clip-path:url(#clip-path-4);}.cls-9{clip-path:url(#clip-path-5);}.cls-10{clip-path:url(#clip-path-6);}.cls-11{clip-path:url(#clip-path-7);}.cls-12{clip-path:url(#clip-path-8);}.cls-13{clip-path:url(#clip-path-9);}.cls-14{clip-path:url(#clip-path-10);}.cls-15{clip-path:url(#clip-path-11);}.cls-16{clip-path:url(#clip-path-12);}.cls-17{clip-path:url(#clip-path-13);}.cls-18{clip-path:url(#clip-path-14);}.cls-19{clip-path:url(#clip-path-15);}.cls-20{clip-path:url(#clip-path-16);}.cls-21{clip-path:url(#clip-path-17);}.cls-22{clip-path:url(#clip-path-18);}.cls-23{clip-path:url(#clip-path-19);}.cls-24{clip-path:url(#clip-path-20);}.cls-25{clip-path:url(#clip-path-21);}.cls-26{clip-path:url(#clip-path-22);}.cls-27{clip-path:url(#clip-path-23);}.cls-28{clip-path:url(#clip-path-24);}.cls-29{clip-path:url(#clip-path-25);}.cls-30{clip-path:url(#clip-path-26);}.cls-31{clip-path:url(#clip-path-27);}.cls-32{clip-path:url(#clip-path-28);}.cls-33{clip-path:url(#clip-path-29);}.cls-34{clip-path:url(#clip-path-30);}.cls-35{clip-path:url(#clip-path-31);}.cls-36{clip-path:url(#clip-path-32);}.cls-37{clip-path:url(#clip-path-33);}.cls-38{clip-path:url(#clip-path-34);}.cls-39{clip-path:url(#clip-path-35);}.cls-40{clip-path:url(#clip-path-36);}.cls-41{clip-path:url(#clip-path-37);}.cls-42{clip-path:url(#clip-path-38);}.cls-43{clip-path:url(#clip-path-39);}.cls-44{clip-path:url(#clip-path-41);}.cls-45{clip-path:url(#clip-path-42);}.cls-46{clip-path:url(#clip-path-43);}.cls-47{clip-path:url(#clip-path-44);}.cls-48{clip-path:url(#clip-path-45);}.cls-49{clip-path:url(#clip-path-47);}</style><clipPath id="clip-path"><path class="cls-1" d="M272.8,93.88h15.91V83.94H272.8Zm17.9,4H270.81a2,2,0,0,1-2-2V82a2,2,0,0,1,2-2H290.7a2,2,0,0,1,2,2V95.87A2,2,0,0,1,290.7,97.86Z"/></clipPath><clipPath id="clip-path-2"><path class="cls-1" d="M262.86,93.88h35.8V6.36h-35.8Zm37.79,4H260.87a2,2,0,0,1-2-2V4.37a2,2,0,0,1,2-2h39.78a2,2,0,0,1,2,2v91.5A2,2,0,0,1,300.65,97.86Z"/></clipPath><clipPath id="clip-path-3"><path class="cls-1" d="M246.94,93.88h11.93V14.32H246.94Zm13.93,4H245a2,2,0,0,1-2-2V12.33a2,2,0,0,1,2-2h15.92a2,2,0,0,1,2,2V95.87A2,2,0,0,1,260.87,97.86Z"/></clipPath><clipPath id="clip-path-4"><path class="cls-1" d="M302.64,93.88h11.93V14.32H302.64Zm13.92,4H300.65a2,2,0,0,1-2-2V12.33a2,2,0,0,1,2-2h15.91a2,2,0,0,1,2,2V95.87A2,2,0,0,1,316.56,97.86Z"/></clipPath><clipPath id="clip-path-5"><rect class="cls-2" x="229.04" y="54.1" width="3.98" height="19.89" transform="translate(41.13 210.38) rotate(-53.11)"/></clipPath><clipPath id="clip-path-6"><rect class="cls-2" x="221.08" y="62.06" width="19.89" height="3.98" transform="translate(7.79 151.46) rotate(-36.88)"/></clipPath><clipPath id="clip-path-7"><rect class="cls-2" x="328.5" y="54.1" width="3.97" height="19.89" transform="translate(80.91 289.95) rotate(-53.12)"/></clipPath><clipPath id="clip-path-8"><rect class="cls-2" x="320.53" y="62.07" width="19.89" height="3.97" transform="translate(27.61 210.98) rotate(-36.85)"/></clipPath><clipPath id="clip-path-9"><path class="cls-3" d="M-293.8,255.18v-.41h.41a.91.91,0,0,0,.91-.91.9.9,0,0,0-.91-.9h-.41v-.42a.9.9,0,0,0-.9-.91.91.91,0,0,0-.91.91V253H-296a.9.9,0,0,0-.91.9.91.91,0,0,0,.91.91h.41v.41a.91.91,0,0,0,.91.91.9.9,0,0,0,.9-.91"/></clipPath><clipPath id="clip-path-10"><path class="cls-3" d="M-310.92,274.8a.91.91,0,0,0,.91-.91v-1.3a.9.9,0,0,0-.91-.9.9.9,0,0,0-.91.9v1.3a.91.91,0,0,0,.91.91"/></clipPath><clipPath id="clip-path-11"><path class="cls-3" d="M-307.32,274.8a.9.9,0,0,0,.9-.91v-1.3a.9.9,0,0,0-.9-.9.9.9,0,0,0-.91.9v1.3a.91.91,0,0,0,.91.91"/></clipPath><clipPath id="clip-path-12"><path class="cls-3" d="M-310.92,279.27a.91.91,0,0,0,.91-.9v-1.31a.91.91,0,0,0-.91-.9.91.91,0,0,0-.91.9v1.31a.91.91,0,0,0,.91.9"/></clipPath><clipPath id="clip-path-13"><path class="cls-3" d="M-307.32,279.27a.9.9,0,0,0,.9-.9v-1.31a.9.9,0,0,0-.9-.9.91.91,0,0,0-.91.9v1.31a.91.91,0,0,0,.91.9"/></clipPath><clipPath id="clip-path-14"><path class="cls-3" d="M-310.92,283.75a.91.91,0,0,0,.91-.91v-1.3a.91.91,0,0,0-.91-.91.91.91,0,0,0-.91.91v1.3a.91.91,0,0,0,.91.91"/></clipPath><clipPath id="clip-path-15"><path class="cls-3" d="M-307.32,283.75a.9.9,0,0,0,.9-.91v-1.3a.9.9,0,0,0-.9-.91.91.91,0,0,0-.91.91v1.3a.91.91,0,0,0,.91.91"/></clipPath><clipPath id="clip-path-16"><path class="cls-3" d="M-282.09,274.8a.91.91,0,0,0,.91-.91v-1.3a.9.9,0,0,0-.91-.9.9.9,0,0,0-.9.9v1.3a.9.9,0,0,0,.9.91"/></clipPath><clipPath id="clip-path-17"><path class="cls-3" d="M-278.49,274.8a.9.9,0,0,0,.9-.91v-1.3a.9.9,0,0,0-.9-.9.9.9,0,0,0-.9.9v1.3a.9.9,0,0,0,.9.91"/></clipPath><clipPath id="clip-path-18"><path class="cls-3" d="M-282.09,279.27a.91.91,0,0,0,.91-.9v-1.31a.91.91,0,0,0-.91-.9.9.9,0,0,0-.9.9v1.31a.9.9,0,0,0,.9.9"/></clipPath><clipPath id="clip-path-19"><path class="cls-3" d="M-278.49,279.27a.9.9,0,0,0,.9-.9v-1.31a.9.9,0,0,0-.9-.9.9.9,0,0,0-.9.9v1.31a.9.9,0,0,0,.9.9"/></clipPath><clipPath id="clip-path-20"><path class="cls-3" d="M-282.09,283.75a.91.91,0,0,0,.91-.91v-1.3a.91.91,0,0,0-.91-.91.9.9,0,0,0-.9.91v1.3a.9.9,0,0,0,.9.91"/></clipPath><clipPath id="clip-path-21"><path class="cls-3" d="M-278.49,283.75a.9.9,0,0,0,.9-.91v-1.3a.9.9,0,0,0-.9-.91.9.9,0,0,0-.9.91v1.3a.9.9,0,0,0,.9.91"/></clipPath><clipPath id="clip-path-22"><path class="cls-3" d="M-297.41,268.12v1.3a.9.9,0,0,0,.91.9.9.9,0,0,0,.9-.9v-1.3a.9.9,0,0,0-.9-.91.91.91,0,0,0-.91.91"/></clipPath><clipPath id="clip-path-23"><path class="cls-3" d="M-293.81,268.12v1.3a.9.9,0,0,0,.9.9.9.9,0,0,0,.91-.9v-1.3a.91.91,0,0,0-.91-.91.9.9,0,0,0-.9.91"/></clipPath><clipPath id="clip-path-24"><path class="cls-3" d="M-296.5,271.69a.9.9,0,0,0-.91.9v1.3a.91.91,0,0,0,.91.91.9.9,0,0,0,.9-.91v-1.3a.9.9,0,0,0-.9-.9"/></clipPath><clipPath id="clip-path-25"><path class="cls-3" d="M-292.91,271.69a.9.9,0,0,0-.9.9v1.3a.9.9,0,0,0,.9.91.91.91,0,0,0,.91-.91v-1.3a.9.9,0,0,0-.91-.9"/></clipPath><clipPath id="clip-path-26"><path class="cls-3" d="M-296.5,276.16a.91.91,0,0,0-.91.9v1.31a.9.9,0,0,0,.91.9.9.9,0,0,0,.9-.9v-1.31a.9.9,0,0,0-.9-.9"/></clipPath><clipPath id="clip-path-27"><path class="cls-3" d="M-292.91,276.16a.9.9,0,0,0-.9.9v1.31a.9.9,0,0,0,.9.9.9.9,0,0,0,.91-.9v-1.31a.91.91,0,0,0-.91-.9"/></clipPath><clipPath id="clip-path-28"><path class="cls-3" d="M-271.1,287.58H-273V268.35a.9.9,0,0,0-.9-.91h-11.78V261a.91.91,0,0,0-.91-.91h-7.2v-1.31h3.06a.91.91,0,0,0,.91-.91v-7.94a.9.9,0,0,0-.91-.9h-7.93a.9.9,0,0,0-.91.9v7.94a.91.91,0,0,0,.91.91h3.06v1.31h-7.21a.9.9,0,0,0-.9.91v6.48H-315.5a.9.9,0,0,0-.9.91v19.23h-1.9a.9.9,0,0,0-.91.91.9.9,0,0,0,.91.9h47.2a.9.9,0,0,0,.9-.9A.9.9,0,0,0-271.1,287.58Zm-16.4-25.71v25.71H-289v-4a.91.91,0,0,0-.91-.91h-9.55a.91.91,0,0,0-.91.91v4h-1.52V261.87Zm-11.08,25.71h7.75V284.5h-7.75Zm12.89,0h10.87V269.25h-10.87Zm-28.9,0h10.87V269.25h-10.87Zm16.82-30.66h6.13V250.8h-6.13Z"/></clipPath><clipPath id="clip-path-29"><path class="cls-1" d="M88.69,44.41a9.46,9.46,0,0,0-6.65-9,38.36,38.36,0,0,0-4.67-11.27A9.47,9.47,0,0,0,75.7,13,9.35,9.35,0,0,0,69,10.24a9.48,9.48,0,0,0-4.42,1.09A38.4,38.4,0,0,0,53.37,6.66a9.44,9.44,0,0,0-18,0,38.57,38.57,0,0,0-11.24,4.67,9.43,9.43,0,0,0-7.17-.68,1.4,1.4,0,0,0,.82,2.68A6.65,6.65,0,0,1,24.36,24.4a6.64,6.64,0,0,1-10.84-7.23,1.41,1.41,0,0,0-2.6-1.06,9.47,9.47,0,0,0,.39,8A38.63,38.63,0,0,0,6.64,35.38a9.47,9.47,0,0,0,0,18.07A38.65,38.65,0,0,0,11.32,64.7,9.45,9.45,0,0,0,24.09,77.49a37.79,37.79,0,0,0,4.3,2.3L24.11,91.4a3.3,3.3,0,0,0,3.05,4.38H61.53a3.3,3.3,0,0,0,3-4.38L60.3,79.79a37.79,37.79,0,0,0,4.3-2.3,9.41,9.41,0,0,0,7.32.64,1.41,1.41,0,0,0-.87-2.68,6.58,6.58,0,0,1-6.72-1.62,6.64,6.64,0,1,1,10.86-2.24,1.41,1.41,0,0,0,2.61,1,9.47,9.47,0,0,0-.43-7.93A38.24,38.24,0,0,0,82,53.45,9.48,9.48,0,0,0,88.69,44.41Zm-2.8,0a6.64,6.64,0,1,1-6.65-6.65A6.66,6.66,0,0,1,85.89,44.41Zm-16-1.4H58.05a13.65,13.65,0,0,0-3-7.31l8.39-8.4A9.54,9.54,0,0,0,70.86,29,30.68,30.68,0,0,1,74,36.55,9.41,9.41,0,0,0,69.91,43ZM58.08,77.69a45.35,45.35,0,0,1-4.3,1.47,8.85,8.85,0,0,0-.38-2.47,33.07,33.07,0,0,0,7.33-3,9.67,9.67,0,0,0,1.47,2A29.7,29.7,0,0,1,58.08,77.69Zm-31.58-2a9.62,9.62,0,0,0,1.46-2,33.72,33.72,0,0,0,7.32,3,9.5,9.5,0,0,0-.38,2.46A35.54,35.54,0,0,1,26.5,75.66ZM13.14,62.29a35.9,35.9,0,0,1-3.49-8.43,9.43,9.43,0,0,0,2.45-.38,33.67,33.67,0,0,0,3.05,7.34A9.26,9.26,0,0,0,13.14,62.29Zm4.69-2.44a29.91,29.91,0,0,1-3.14-7.58,9.49,9.49,0,0,0,4.1-6.45H30.64a13.64,13.64,0,0,0,3,7.27L25.25,61.5A9.48,9.48,0,0,0,17.83,59.85ZM42.94,70a9.46,9.46,0,0,0-6.45,4.11A30.7,30.7,0,0,1,28.93,71a9.49,9.49,0,0,0-1.69-7.49l8.4-8.4a13.76,13.76,0,0,0,7.3,3Zm1.4,2.7a6.66,6.66,0,1,1-6.64,6.65A6.65,6.65,0,0,1,44.34,72.71ZM59.76,71a30.14,30.14,0,0,1-7.56,3.14A9.48,9.48,0,0,0,45.75,70V58.12a13.69,13.69,0,0,0,7.29-3l8.4,8.4A9.5,9.5,0,0,0,59.76,71ZM44.34,55.38a11,11,0,1,1,11-11A11,11,0,0,1,44.34,55.38ZM35.28,12.12A34.22,34.22,0,0,0,28,15.17a9.32,9.32,0,0,0-1.47-2,35.36,35.36,0,0,1,8.41-3.5A10,10,0,0,0,35.28,12.12Zm-6.35,5.74a30,30,0,0,1,7.56-3.15,9.48,9.48,0,0,0,6.45,4.1V30.7a13.82,13.82,0,0,0-7.29,3l-8.39-8.39A9.54,9.54,0,0,0,28.93,17.86Zm31.8-2.68a33.62,33.62,0,0,0-7.33-3.06,8.72,8.72,0,0,0,.38-2.46,35.68,35.68,0,0,1,8.42,3.5A9.47,9.47,0,0,0,60.73,15.18Zm-8.53-.47a29.8,29.8,0,0,1,7.56,3.15,9.51,9.51,0,0,0,1.66,7.46L53,33.72a13.69,13.69,0,0,0-7.27-3V18.81A9.48,9.48,0,0,0,52.2,14.71ZM75.54,26.53A35.51,35.51,0,0,1,79,35a9.5,9.5,0,0,0-2.46.38,32.87,32.87,0,0,0-3-7.34A9.45,9.45,0,0,0,75.54,26.53ZM73.71,15a6.64,6.64,0,0,1-9.38,9.41A6.64,6.64,0,0,1,73.71,15ZM44.34,2.8A6.66,6.66,0,1,1,37.7,9.46a6.58,6.58,0,0,1,.11-1.19A1.23,1.23,0,0,0,37.88,8,6.66,6.66,0,0,1,44.34,2.8ZM25.27,27.31l8.4,8.4a13.72,13.72,0,0,0-3,7.3H18.79a9.51,9.51,0,0,0-4.1-6.46A29.91,29.91,0,0,1,17.83,29,9.53,9.53,0,0,0,25.27,27.31ZM15.15,28a33.87,33.87,0,0,0-3.05,7.34A9.43,9.43,0,0,0,9.65,35a35.51,35.51,0,0,1,3.5-8.43A9,9,0,0,0,15.15,28ZM2.81,44.41a6.72,6.72,0,0,1,6.63-6.65,6.65,6.65,0,1,1-6.63,6.65ZM19.67,75.78A6.66,6.66,0,0,1,15,64.42a6.65,6.65,0,1,1,4.7,11.36ZM62,92.37a.45.45,0,0,1-.42.61H27.16a.45.45,0,0,1-.42-.61L31,80.85a36.56,36.56,0,0,0,4.33,1.31,9.44,9.44,0,0,0,18,0,36,36,0,0,0,4.33-1.31ZM63.42,61.5,55,53.1a13.69,13.69,0,0,0,3-7.28H69.91A9.39,9.39,0,0,0,74,52.27a30.68,30.68,0,0,1-3.15,7.58,9.49,9.49,0,0,0-7.44,1.65Zm10.12-.68a32.87,32.87,0,0,0,3-7.34,9.5,9.5,0,0,0,2.46.38,35.51,35.51,0,0,1-3.5,8.43A9.45,9.45,0,0,0,73.54,60.82Z"/></clipPath><clipPath id="clip-path-30"><rect class="cls-2" x="-4519.98" y="-2215.36" width="5391.41" height="4611.73"/></clipPath><clipPath id="clip-path-31"><path class="cls-2" d="M-232.19,98.34h-74.58a2.58,2.58,0,0,1-2.53-2.61V90.3a2.58,2.58,0,0,1,2.53-2.61h28.57a7,7,0,0,1-.67-2.08,6.8,6.8,0,0,1,1.41-5.3l.92-1.13a7,7,0,0,0,1.46-5.57l-.38-2.43H-286.7A6,6,0,0,1-292.59,65a1,1,0,0,0-.38-.79l-2.37-1.67a2.65,2.65,0,0,1-1-2.89,2.53,2.53,0,0,1,2.43-1.87h19.32V54.89H-281a6,6,0,0,1-5.89-6.15.94.94,0,0,0-.39-.79l-2.36-1.66a2.64,2.64,0,0,1-1-2.9,2.56,2.56,0,0,1,2.43-1.87h13.67V40.06a10.18,10.18,0,0,0-5.7-9.29l-.72-.33v-2.5h23.07v2.5l-.73.33a10.18,10.18,0,0,0-5.7,9.29v1.46h13.67a2.56,2.56,0,0,1,2.43,1.88,2.63,2.63,0,0,1-1,2.88L-251.63,48a.94.94,0,0,0-.39.79,6,6,0,0,1-5.89,6.15h-6.46v2.93H-245a2.55,2.55,0,0,1,2.43,1.87,2.65,2.65,0,0,1-1,2.89L-246,64.25a.93.93,0,0,0-.39.79,6,6,0,0,1-5.89,6.14H-263.5l-.38,2.43a7,7,0,0,0,1.46,5.57l.92,1.13a6.84,6.84,0,0,1,1.41,5.3,7,7,0,0,1-.68,2.08h28.58a2.58,2.58,0,0,1,2.53,2.61v5.43A2.58,2.58,0,0,1-232.19,98.34Zm-74.58-8.15a.19.19,0,0,0,0,.11v5.43a.14.14,0,0,0,0,.11h74.57a.24.24,0,0,0,0-.11V90.3a.14.14,0,0,0,0-.11h-35.06l3.09-2.26a4.12,4.12,0,0,0,1.61-2.7,4.28,4.28,0,0,0-.89-3.34l-.91-1.13a9.58,9.58,0,0,1-2-7.54l.71-4.54h13.38A3.52,3.52,0,0,0-248.87,65a3.45,3.45,0,0,1,1.45-2.84l2.36-1.66a.16.16,0,0,0,0-.16l-21.85-.06V52.39h9a3.53,3.53,0,0,0,3.39-3.65,3.46,3.46,0,0,1,1.45-2.84l2.36-1.66a.14.14,0,0,0,0-.15l-16.2-.07v-4a13,13,0,0,1,4.22-9.62h-13.66a12.92,12.92,0,0,1,4.22,9.62v4h-16.17c-.05.14,0,.2,0,.22l2.36,1.66a3.46,3.46,0,0,1,1.45,2.84A3.53,3.53,0,0,0-281,52.39h9v7.93h-21.82c0,.13,0,.2,0,.22l2.36,1.66A3.46,3.46,0,0,1-290.09,65a3.52,3.52,0,0,0,3.39,3.64h13.38l.71,4.54a9.59,9.59,0,0,1-2,7.54l-.92,1.13a4.32,4.32,0,0,0-.88,3.34,4.12,4.12,0,0,0,1.6,2.71l3.07,2.25Z"/></clipPath><clipPath id="clip-path-32"><path class="cls-1" d="M-301.87,57.12A2.82,2.82,0,0,1-299,54.3a5.64,5.64,0,0,0,5.63-5.63v-7a2.82,2.82,0,0,1,2.82-2.82h8.45V36h-8.45a5.63,5.63,0,0,0-5.63,5.63v7A2.83,2.83,0,0,1-299,51.49a5.64,5.64,0,0,0-5.63,5.63V76.83h2.81Z"/></clipPath><clipPath id="clip-path-33"><path class="cls-2" d="M-269.48,25.52a2.12,2.12,0,0,1-1.85-1.05l-3.2-5.32a2.15,2.15,0,0,1,.33-2.65l3.19-3.2a2.21,2.21,0,0,1,3.06,0l3.2,3.2a2.16,2.16,0,0,1,.32,2.65l-3.19,5.32A2.17,2.17,0,0,1-269.48,25.52Zm0-2.18Zm-.06-8.48-3.14,3.2,3.17,5.23,3.17-5.28Z"/></clipPath><clipPath id="clip-path-34"><path class="cls-1" d="M-256.81,36v2.81h8.45a2.82,2.82,0,0,1,2.82,2.82v7a5.64,5.64,0,0,0,5.63,5.63,2.82,2.82,0,0,1,2.82,2.81V76.83h2.81V57.11a5.63,5.63,0,0,0-5.63-5.62,2.82,2.82,0,0,1-2.81-2.82v-7A5.64,5.64,0,0,0-248.36,36Z"/></clipPath><clipPath id="clip-path-35"><path class="cls-1" d="M-251.17,26.14h2.81a8.46,8.46,0,0,0-8.45-8.45h-2.81v2.82h2.81a5.64,5.64,0,0,1,5.64,5.63"/></clipPath><clipPath id="clip-path-36"><path class="cls-1" d="M-282.15,20.51h2.81V17.69h-2.81a8.46,8.46,0,0,0-8.45,8.45h2.82a5.63,5.63,0,0,1,5.63-5.63"/></clipPath><clipPath id="clip-path-37"><path class="cls-1" d="M197.69,85a4.49,4.49,0,0,1-6.22,0,7.59,7.59,0,0,0-10.07,0,4.48,4.48,0,0,1-6.21,0,7.58,7.58,0,0,0-10.06,0,4.4,4.4,0,0,1-3.1,1.25,4.07,4.07,0,0,1-1.82-.38V43.76h22v3.16h3.15V43.76H187a3.15,3.15,0,0,0,3.15-3.14V37.46A3.15,3.15,0,0,0,187,34.32h-.08A29.92,29.92,0,0,0,158.64,6.05V4.4a4.73,4.73,0,1,0-9.45,0V6.05a29.92,29.92,0,0,0-28.26,28.27h-.08a3.15,3.15,0,0,0-3.15,3.14v3.16a3.15,3.15,0,0,0,3.15,3.14h1.57v3.16h3.16V43.76h22V85.87a4.07,4.07,0,0,1-1.86.41A4.42,4.42,0,0,1,142.65,85a7.58,7.58,0,0,0-10.06,0,4.47,4.47,0,0,1-6.2,0,7.57,7.57,0,0,0-10,0,4.48,4.48,0,0,1-6.21,0,7.38,7.38,0,0,0-5-1.91v3.16a4.42,4.42,0,0,1,3.11,1.24,7.59,7.59,0,0,0,10.05,0,4.5,4.5,0,0,1,6.2,0,7.61,7.61,0,0,0,10.06,0,4.5,4.5,0,0,1,6.2,0,7.62,7.62,0,0,0,10.07,0,4.51,4.51,0,0,1,6.21,0,7.61,7.61,0,0,0,10.06,0,4.51,4.51,0,0,1,6.21,0,7.61,7.61,0,0,0,10.06,0,4.51,4.51,0,0,1,6.21,0,7.63,7.63,0,0,0,10.08,0,4.4,4.4,0,0,1,3.11-1.24V83.12A7.41,7.41,0,0,0,197.69,85ZM153.92,2.83a1.57,1.57,0,0,1,1.57,1.57V6h-3.15V4.4A1.57,1.57,0,0,1,153.92,2.83Zm-4.33,6.36a37.1,37.1,0,0,0-8.33,11.9l2.89,1.26a33.87,33.87,0,0,1,9.77-12.78,33.57,33.57,0,0,1,12.55,24.75H141.38a34.11,34.11,0,0,1,1.62-9l-3-1a37.36,37.36,0,0,0-1.78,9.94H124.08A26.75,26.75,0,0,1,149.59,9.19ZM120.85,37.46h53.53V34.32h-4.76A36.7,36.7,0,0,0,158.26,9.19a26.76,26.76,0,0,1,25.5,25.13h-6.22v3.14H187v3.16H120.85Zm33,45.66a7.06,7.06,0,0,0-3.13.67v-40h6.3V83.81A7.09,7.09,0,0,0,153.89,83.12Z"/></clipPath><clipPath id="clip-path-38"><rect class="cls-2" x="-2642.91" y="-2402.3" width="5224.37" height="4468.85"/></clipPath><clipPath id="clip-path-39"><path class="cls-1" d="M194.58,94.15a4.42,4.42,0,0,1-3.11-1.25,7.62,7.62,0,0,0-10.07,0,4.48,4.48,0,0,1-6.21,0,7.61,7.61,0,0,0-10.06,0,4.48,4.48,0,0,1-6.21,0,7.61,7.61,0,0,0-10.06,0,4.48,4.48,0,0,1-6.21,0,7.61,7.61,0,0,0-10.06,0,4.47,4.47,0,0,1-6.2,0,7.59,7.59,0,0,0-10,0,4.48,4.48,0,0,1-6.21,0,7.42,7.42,0,0,0-5-1.9v3.15a4.39,4.39,0,0,1,3.1,1.24,7.57,7.57,0,0,0,10.05,0,4.51,4.51,0,0,1,6.21,0,7.57,7.57,0,0,0,10.05,0,4.49,4.49,0,0,1,6.2,0,7.59,7.59,0,0,0,10.07,0,4.49,4.49,0,0,1,6.2,0,7.59,7.59,0,0,0,10.07,0,4.51,4.51,0,0,1,6.21,0,7.58,7.58,0,0,0,10.06,0,4.51,4.51,0,0,1,6.21,0,7.59,7.59,0,0,0,10.07,0,4.42,4.42,0,0,1,3.12-1.24V91a7.48,7.48,0,0,0-5,1.9,4.4,4.4,0,0,1-3.11,1.25"/></clipPath><clipPath id="clip-path-41"><path class="cls-1" d="M163.36,75.25a4.73,4.73,0,1,0,9.45,0V72.1h-3.15v3.15a1.58,1.58,0,1,1-3.15,0v-22h-3.15Z"/></clipPath><clipPath id="clip-path-42"><path class="cls-1" d="M185.41,64.23V56.36h-3.16v7.87a1.57,1.57,0,1,1-3.14,0V51.64a4.73,4.73,0,1,0-9.45,0v4.72h3.15V51.64a1.58,1.58,0,1,1,3.15,0V64.23a4.73,4.73,0,1,0,9.45,0"/></clipPath><clipPath id="clip-path-43"><path class="cls-1" d="M141.32,75.25a1.58,1.58,0,1,1-3.15,0V72.1H135v3.15a4.73,4.73,0,1,0,9.45,0v-22h-3.15Z"/></clipPath><clipPath id="clip-path-44"><path class="cls-1" d="M122.43,64.23a4.73,4.73,0,1,0,9.45,0V51.64a1.57,1.57,0,1,1,3.14,0v4.72h3.15V51.64a4.73,4.73,0,1,0-9.45,0V64.23a1.57,1.57,0,1,1-3.14,0V56.36h-3.15Z"/></clipPath><clipPath id="clip-path-45"><path class="cls-1" d="M113,75.25a17.73,17.73,0,0,1,5.64.92l4.95,1.65-2.65-6.63A8.51,8.51,0,0,0,113,65.81a4.72,4.72,0,1,0,0,9.44M113,69a5.39,5.39,0,0,1,5,3.39l.16.4a21,21,0,0,0-5.18-.64A1.58,1.58,0,1,1,113,69"/></clipPath><clipPath id="clip-path-47"><path class="cls-1" d="M186.91,71.18l-2.65,6.64,5-1.65a17.77,17.77,0,0,1,5.64-.92,4.72,4.72,0,1,0,0-9.44A8.52,8.52,0,0,0,186.91,71.18Zm2.93,1.17a5.36,5.36,0,0,1,5-3.39,1.57,1.57,0,1,1,0,3.14,21.07,21.07,0,0,0-5.18.65Z"/></clipPath></defs><path class="cls-4" d="M272.8,93.88h15.91V83.94H272.8Zm17.9,4H270.81a2,2,0,0,1-2-2V82a2,2,0,0,1,2-2H290.7a2,2,0,0,1,2,2V95.87A2,2,0,0,1,290.7,97.86Z"/><g class="cls-5"><rect class="cls-2" x="-995.74" y="-3698.77" width="5804.01" height="4970.61"/></g><path class="cls-4" d="M262.86,93.88h35.8V6.36h-35.8Zm37.79,4H260.87a2,2,0,0,1-2-2V4.37a2,2,0,0,1,2-2h39.78a2,2,0,0,1,2,2v91.5A2,2,0,0,1,300.65,97.86Z"/><g class="cls-6"><rect class="cls-2" x="-995.74" y="-3698.77" width="5804.01" height="4964.66"/></g><path class="cls-4" d="M246.94,93.88h11.93V14.32H246.94Zm13.93,4H245a2,2,0,0,1-2-2V12.33a2,2,0,0,1,2-2h15.92a2,2,0,0,1,2,2V95.87A2,2,0,0,1,260.87,97.86Z"/><g class="cls-7"><rect class="cls-2" x="-995.74" y="-3698.77" width="5804.01" height="4964.66"/></g><path class="cls-4" d="M302.64,93.88h11.93V14.32H302.64Zm13.92,4H300.65a2,2,0,0,1-2-2V12.33a2,2,0,0,1,2-2h15.91a2,2,0,0,1,2,2V95.87A2,2,0,0,1,316.56,97.86Z"/><g class="cls-8"><rect class="cls-2" x="-995.74" y="-3698.77" width="5804.01" height="4964.66"/></g><rect class="cls-2" x="229.04" y="54.1" width="3.98" height="19.89" transform="translate(41.13 210.38) rotate(-53.11)"/><g class="cls-9"><rect class="cls-2" x="-995.74" y="-3698.77" width="5804.01" height="4964.66"/></g><rect class="cls-2" x="221.08" y="62.06" width="19.89" height="3.98" transform="translate(7.79 151.46) rotate(-36.88)"/><g class="cls-10"><rect class="cls-2" x="-995.74" y="-3698.77" width="5804.01" height="4964.66"/></g><rect class="cls-2" x="328.5" y="54.1" width="3.97" height="19.89" transform="translate(80.91 289.95) rotate(-53.12)"/><g class="cls-11"><rect class="cls-2" x="-995.74" y="-3698.77" width="5804.01" height="4964.66"/></g><rect class="cls-2" x="320.53" y="62.07" width="19.89" height="3.97" transform="translate(27.61 210.98) rotate(-36.85)"/><g class="cls-12"><rect class="cls-2" x="-995.74" y="-3698.77" width="5804.01" height="4964.66"/></g><path class="cls-4" d="M88.69,44.41a9.46,9.46,0,0,0-6.65-9,38.36,38.36,0,0,0-4.67-11.27A9.47,9.47,0,0,0,75.7,13,9.35,9.35,0,0,0,69,10.24a9.48,9.48,0,0,0-4.42,1.09A38.4,38.4,0,0,0,53.37,6.66a9.44,9.44,0,0,0-18,0,38.57,38.57,0,0,0-11.24,4.67,9.43,9.43,0,0,0-7.17-.68,1.4,1.4,0,0,0,.82,2.68A6.65,6.65,0,0,1,24.36,24.4a6.64,6.64,0,0,1-10.84-7.23,1.41,1.41,0,0,0-2.6-1.06,9.47,9.47,0,0,0,.39,8A38.63,38.63,0,0,0,6.64,35.38a9.47,9.47,0,0,0,0,18.07A38.65,38.65,0,0,0,11.32,64.7,9.45,9.45,0,0,0,24.09,77.49a37.79,37.79,0,0,0,4.3,2.3L24.11,91.4a3.3,3.3,0,0,0,3.05,4.38H61.53a3.3,3.3,0,0,0,3-4.38L60.3,79.79a37.79,37.79,0,0,0,4.3-2.3,9.41,9.41,0,0,0,7.32.64,1.41,1.41,0,0,0-.87-2.68,6.58,6.58,0,0,1-6.72-1.62,6.64,6.64,0,1,1,10.86-2.24,1.41,1.41,0,0,0,2.61,1,9.47,9.47,0,0,0-.43-7.93A38.24,38.24,0,0,0,82,53.45,9.48,9.48,0,0,0,88.69,44.41Zm-2.8,0a6.64,6.64,0,1,1-6.65-6.65A6.66,6.66,0,0,1,85.89,44.41Zm-16-1.4H58.05a13.65,13.65,0,0,0-3-7.31l8.39-8.4A9.54,9.54,0,0,0,70.86,29,30.68,30.68,0,0,1,74,36.55,9.41,9.41,0,0,0,69.91,43ZM58.08,77.69a45.35,45.35,0,0,1-4.3,1.47,8.85,8.85,0,0,0-.38-2.47,33.07,33.07,0,0,0,7.33-3,9.67,9.67,0,0,0,1.47,2A29.7,29.7,0,0,1,58.08,77.69Zm-31.58-2a9.62,9.62,0,0,0,1.46-2,33.72,33.72,0,0,0,7.32,3,9.5,9.5,0,0,0-.38,2.46A35.54,35.54,0,0,1,26.5,75.66ZM13.14,62.29a35.9,35.9,0,0,1-3.49-8.43,9.43,9.43,0,0,0,2.45-.38,33.67,33.67,0,0,0,3.05,7.34A9.26,9.26,0,0,0,13.14,62.29Zm4.69-2.44a29.91,29.91,0,0,1-3.14-7.58,9.49,9.49,0,0,0,4.1-6.45H30.64a13.64,13.64,0,0,0,3,7.27L25.25,61.5A9.48,9.48,0,0,0,17.83,59.85ZM42.94,70a9.46,9.46,0,0,0-6.45,4.11A30.7,30.7,0,0,1,28.93,71a9.49,9.49,0,0,0-1.69-7.49l8.4-8.4a13.76,13.76,0,0,0,7.3,3Zm1.4,2.7a6.66,6.66,0,1,1-6.64,6.65A6.65,6.65,0,0,1,44.34,72.71ZM59.76,71a30.14,30.14,0,0,1-7.56,3.14A9.48,9.48,0,0,0,45.75,70V58.12a13.69,13.69,0,0,0,7.29-3l8.4,8.4A9.5,9.5,0,0,0,59.76,71ZM44.34,55.38a11,11,0,1,1,11-11A11,11,0,0,1,44.34,55.38ZM35.28,12.12A34.22,34.22,0,0,0,28,15.17a9.32,9.32,0,0,0-1.47-2,35.36,35.36,0,0,1,8.41-3.5A10,10,0,0,0,35.28,12.12Zm-6.35,5.74a30,30,0,0,1,7.56-3.15,9.48,9.48,0,0,0,6.45,4.1V30.7a13.82,13.82,0,0,0-7.29,3l-8.39-8.39A9.54,9.54,0,0,0,28.93,17.86Zm31.8-2.68a33.62,33.62,0,0,0-7.33-3.06,8.72,8.72,0,0,0,.38-2.46,35.68,35.68,0,0,1,8.42,3.5A9.47,9.47,0,0,0,60.73,15.18Zm-8.53-.47a29.8,29.8,0,0,1,7.56,3.15,9.51,9.51,0,0,0,1.66,7.46L53,33.72a13.69,13.69,0,0,0-7.27-3V18.81A9.48,9.48,0,0,0,52.2,14.71ZM75.54,26.53A35.51,35.51,0,0,1,79,35a9.5,9.5,0,0,0-2.46.38,32.87,32.87,0,0,0-3-7.34A9.45,9.45,0,0,0,75.54,26.53ZM73.71,15a6.64,6.64,0,0,1-9.38,9.41A6.64,6.64,0,0,1,73.71,15ZM44.34,2.8A6.66,6.66,0,1,1,37.7,9.46a6.58,6.58,0,0,1,.11-1.19A1.23,1.23,0,0,0,37.88,8,6.66,6.66,0,0,1,44.34,2.8ZM25.27,27.31l8.4,8.4a13.72,13.72,0,0,0-3,7.3H18.79a9.51,9.51,0,0,0-4.1-6.46A29.91,29.91,0,0,1,17.83,29,9.53,9.53,0,0,0,25.27,27.31ZM15.15,28a33.87,33.87,0,0,0-3.05,7.34A9.43,9.43,0,0,0,9.65,35a35.51,35.51,0,0,1,3.5-8.43A9,9,0,0,0,15.15,28ZM2.81,44.41a6.72,6.72,0,0,1,6.63-6.65,6.65,6.65,0,1,1-6.63,6.65ZM19.67,75.78A6.66,6.66,0,0,1,15,64.42a6.65,6.65,0,1,1,4.7,11.36ZM62,92.37a.45.45,0,0,1-.42.61H27.16a.45.45,0,0,1-.42-.61L31,80.85a36.56,36.56,0,0,0,4.33,1.31,9.44,9.44,0,0,0,18,0,36,36,0,0,0,4.33-1.31ZM63.42,61.5,55,53.1a13.69,13.69,0,0,0,3-7.28H69.91A9.39,9.39,0,0,0,74,52.27a30.68,30.68,0,0,1-3.15,7.58,9.49,9.49,0,0,0-7.44,1.65Zm10.12-.68a32.87,32.87,0,0,0,3-7.34,9.5,9.5,0,0,0,2.46.38,35.51,35.51,0,0,1-3.5,8.43A9.45,9.45,0,0,0,73.54,60.82Z"/><g class="cls-33"><rect class="cls-2" x="-4519.98" y="-2215.36" width="5391.41" height="4611.73"/><g class="cls-34"><rect class="cls-2" x="-27.65" y="-27.65" width="143.99" height="151.08"/></g></g><path class="cls-2" d="M-232.19,98.34h-74.58a2.58,2.58,0,0,1-2.53-2.61V90.3a2.58,2.58,0,0,1,2.53-2.61h28.57a7,7,0,0,1-.67-2.08,6.8,6.8,0,0,1,1.41-5.3l.92-1.13a7,7,0,0,0,1.46-5.57l-.38-2.43H-286.7A6,6,0,0,1-292.59,65a1,1,0,0,0-.38-.79l-2.37-1.67a2.65,2.65,0,0,1-1-2.89,2.53,2.53,0,0,1,2.43-1.87h19.32V54.89H-281a6,6,0,0,1-5.89-6.15.94.94,0,0,0-.39-.79l-2.36-1.66a2.64,2.64,0,0,1-1-2.9,2.56,2.56,0,0,1,2.43-1.87h13.67V40.06a10.18,10.18,0,0,0-5.7-9.29l-.72-.33v-2.5h23.07v2.5l-.73.33a10.18,10.18,0,0,0-5.7,9.29v1.46h13.67a2.56,2.56,0,0,1,2.43,1.88,2.63,2.63,0,0,1-1,2.88L-251.63,48a.94.94,0,0,0-.39.79,6,6,0,0,1-5.89,6.15h-6.46v2.93H-245a2.55,2.55,0,0,1,2.43,1.87,2.65,2.65,0,0,1-1,2.89L-246,64.25a.93.93,0,0,0-.39.79,6,6,0,0,1-5.89,6.14H-263.5l-.38,2.43a7,7,0,0,0,1.46,5.57l.92,1.13a6.84,6.84,0,0,1,1.41,5.3,7,7,0,0,1-.68,2.08h28.58a2.58,2.58,0,0,1,2.53,2.61v5.43A2.58,2.58,0,0,1-232.19,98.34Zm-74.58-8.15a.19.19,0,0,0,0,.11v5.43a.14.14,0,0,0,0,.11h74.57a.24.24,0,0,0,0-.11V90.3a.14.14,0,0,0,0-.11h-35.06l3.09-2.26a4.12,4.12,0,0,0,1.61-2.7,4.28,4.28,0,0,0-.89-3.34l-.91-1.13a9.58,9.58,0,0,1-2-7.54l.71-4.54h13.38A3.52,3.52,0,0,0-248.87,65a3.45,3.45,0,0,1,1.45-2.84l2.36-1.66a.16.16,0,0,0,0-.16l-21.85-.06V52.39h9a3.53,3.53,0,0,0,3.39-3.65,3.46,3.46,0,0,1,1.45-2.84l2.36-1.66a.14.14,0,0,0,0-.15l-16.2-.07v-4a13,13,0,0,1,4.22-9.62h-13.66a12.92,12.92,0,0,1,4.22,9.62v4h-16.17c-.05.14,0,.2,0,.22l2.36,1.66a3.46,3.46,0,0,1,1.45,2.84A3.53,3.53,0,0,0-281,52.39h9v7.93h-21.82c0,.13,0,.2,0,.22l2.36,1.66A3.46,3.46,0,0,1-290.09,65a3.52,3.52,0,0,0,3.39,3.64h13.38l.71,4.54a9.59,9.59,0,0,1-2,7.54l-.92,1.13a4.32,4.32,0,0,0-.88,3.34,4.12,4.12,0,0,0,1.6,2.71l3.07,2.25Z"/><g class="cls-35"><path class="cls-2" d="M2153.45,1882.22H-2723.9V-2524H2153.45Zm-4874.35-3H2150.45V-2521H-2720.9Z"/></g><path class="cls-4" d="M-301.87,57.12A2.82,2.82,0,0,1-299,54.3a5.64,5.64,0,0,0,5.63-5.63v-7a2.82,2.82,0,0,1,2.82-2.82h8.45V36h-8.45a5.63,5.63,0,0,0-5.63,5.63v7A2.83,2.83,0,0,1-299,51.49a5.64,5.64,0,0,0-5.63,5.63V76.83h2.81Z"/><g class="cls-36"><rect class="cls-2" x="-2955.72" y="-2619.93" width="5338.01" height="4566.05"/></g><path class="cls-2" d="M-269.48,25.52a2.12,2.12,0,0,1-1.85-1.05l-3.2-5.32a2.15,2.15,0,0,1,.33-2.65l3.19-3.2a2.21,2.21,0,0,1,3.06,0l3.2,3.2a2.16,2.16,0,0,1,.32,2.65l-3.19,5.32A2.17,2.17,0,0,1-269.48,25.52Zm0-2.18Zm-.06-8.48-3.14,3.2,3.17,5.23,3.17-5.28Z"/><g class="cls-37"><path class="cls-2" d="M1737.64,1478H-2302.68V-1978.39H1737.64Zm-4038.12-2.2H1735.44V-1976.19H-2300.48Z"/></g><path class="cls-4" d="M-256.81,36v2.81h8.45a2.82,2.82,0,0,1,2.82,2.82v7a5.64,5.64,0,0,0,5.63,5.63,2.82,2.82,0,0,1,2.82,2.81V76.83h2.81V57.11a5.63,5.63,0,0,0-5.63-5.62,2.82,2.82,0,0,1-2.81-2.82v-7A5.64,5.64,0,0,0-248.36,36Z"/><g class="cls-38"><rect class="cls-2" x="-2955.72" y="-2619.93" width="5338.01" height="4566.05"/></g><path class="cls-4" d="M-251.17,26.14h2.81a8.46,8.46,0,0,0-8.45-8.45h-2.81v2.82h2.81a5.64,5.64,0,0,1,5.64,5.63"/><g class="cls-39"><rect class="cls-2" x="-2955.72" y="-2619.93" width="5338.01" height="4566.05"/></g><path class="cls-4" d="M-282.15,20.51h2.81V17.69h-2.81a8.46,8.46,0,0,0-8.45,8.45h2.82a5.63,5.63,0,0,1,5.63-5.63"/><g class="cls-40"><rect class="cls-2" x="-2955.72" y="-2619.93" width="5338.01" height="4566.05"/></g><path class="cls-4" d="M197.69,85a4.49,4.49,0,0,1-6.22,0,7.59,7.59,0,0,0-10.07,0,4.48,4.48,0,0,1-6.21,0,7.58,7.58,0,0,0-10.06,0,4.4,4.4,0,0,1-3.1,1.25,4.07,4.07,0,0,1-1.82-.38V43.76h22v3.16h3.15V43.76H187a3.15,3.15,0,0,0,3.15-3.14V37.46A3.15,3.15,0,0,0,187,34.32h-.08A29.92,29.92,0,0,0,158.64,6.05V4.4a4.73,4.73,0,1,0-9.45,0V6.05a29.92,29.92,0,0,0-28.26,28.27h-.08a3.15,3.15,0,0,0-3.15,3.14v3.16a3.15,3.15,0,0,0,3.15,3.14h1.57v3.16h3.16V43.76h22V85.87a4.07,4.07,0,0,1-1.86.41A4.42,4.42,0,0,1,142.65,85a7.58,7.58,0,0,0-10.06,0,4.47,4.47,0,0,1-6.2,0,7.57,7.57,0,0,0-10,0,4.48,4.48,0,0,1-6.21,0,7.38,7.38,0,0,0-5-1.91v3.16a4.42,4.42,0,0,1,3.11,1.24,7.59,7.59,0,0,0,10.05,0,4.5,4.5,0,0,1,6.2,0,7.61,7.61,0,0,0,10.06,0,4.5,4.5,0,0,1,6.2,0,7.62,7.62,0,0,0,10.07,0,4.51,4.51,0,0,1,6.21,0,7.61,7.61,0,0,0,10.06,0,4.51,4.51,0,0,1,6.21,0,7.61,7.61,0,0,0,10.06,0,4.51,4.51,0,0,1,6.21,0,7.63,7.63,0,0,0,10.08,0,4.4,4.4,0,0,1,3.11-1.24V83.12A7.41,7.41,0,0,0,197.69,85ZM153.92,2.83a1.57,1.57,0,0,1,1.57,1.57V6h-3.15V4.4A1.57,1.57,0,0,1,153.92,2.83Zm-4.33,6.36a37.1,37.1,0,0,0-8.33,11.9l2.89,1.26a33.87,33.87,0,0,1,9.77-12.78,33.57,33.57,0,0,1,12.55,24.75H141.38a34.11,34.11,0,0,1,1.62-9l-3-1a37.36,37.36,0,0,0-1.78,9.94H124.08A26.75,26.75,0,0,1,149.59,9.19ZM120.85,37.46h53.53V34.32h-4.76A36.7,36.7,0,0,0,158.26,9.19a26.76,26.76,0,0,1,25.5,25.13h-6.22v3.14H187v3.16H120.85Zm33,45.66a7.06,7.06,0,0,0-3.13.67v-40h6.3V83.81A7.09,7.09,0,0,0,153.89,83.12Z"/><g class="cls-41"><rect class="cls-2" x="-2642.91" y="-2402.3" width="5224.37" height="4468.85"/><g class="cls-42"><rect class="cls-2" x="78.31" y="-27.12" width="151.21" height="143.33"/></g></g><path class="cls-4" d="M194.58,94.15a4.42,4.42,0,0,1-3.11-1.25,7.62,7.62,0,0,0-10.07,0,4.48,4.48,0,0,1-6.21,0,7.61,7.61,0,0,0-10.06,0,4.48,4.48,0,0,1-6.21,0,7.61,7.61,0,0,0-10.06,0,4.48,4.48,0,0,1-6.21,0,7.61,7.61,0,0,0-10.06,0,4.47,4.47,0,0,1-6.2,0,7.59,7.59,0,0,0-10,0,4.48,4.48,0,0,1-6.21,0,7.42,7.42,0,0,0-5-1.9v3.15a4.39,4.39,0,0,1,3.1,1.24,7.57,7.57,0,0,0,10.05,0,4.51,4.51,0,0,1,6.21,0,7.57,7.57,0,0,0,10.05,0,4.49,4.49,0,0,1,6.2,0,7.59,7.59,0,0,0,10.07,0,4.49,4.49,0,0,1,6.2,0,7.59,7.59,0,0,0,10.07,0,4.51,4.51,0,0,1,6.21,0,7.58,7.58,0,0,0,10.06,0,4.51,4.51,0,0,1,6.21,0,7.59,7.59,0,0,0,10.07,0,4.42,4.42,0,0,1,3.12-1.24V91a7.48,7.48,0,0,0-5,1.9,4.4,4.4,0,0,1-3.11,1.25"/><g class="cls-43"><rect class="cls-2" x="-2642.91" y="-2402.3" width="5224.37" height="4468.85"/><g class="cls-42"><rect class="cls-2" x="78.31" y="64.2" width="151.21" height="59.89"/></g></g><path class="cls-4" d="M163.36,75.25a4.73,4.73,0,1,0,9.45,0V72.1h-3.15v3.15a1.58,1.58,0,1,1-3.15,0v-22h-3.15Z"/><g class="cls-44"><rect class="cls-2" x="-2642.91" y="-2402.3" width="5224.37" height="4468.85"/></g><path class="cls-4" d="M185.41,64.23V56.36h-3.16v7.87a1.57,1.57,0,1,1-3.14,0V51.64a4.73,4.73,0,1,0-9.45,0v4.72h3.15V51.64a1.58,1.58,0,1,1,3.15,0V64.23a4.73,4.73,0,1,0,9.45,0"/><g class="cls-45"><rect class="cls-2" x="-2642.91" y="-2402.3" width="5224.37" height="4468.85"/></g><path class="cls-4" d="M141.32,75.25a1.58,1.58,0,1,1-3.15,0V72.1H135v3.15a4.73,4.73,0,1,0,9.45,0v-22h-3.15Z"/><g class="cls-46"><rect class="cls-2" x="-2642.91" y="-2402.3" width="5224.37" height="4468.85"/></g><path class="cls-4" d="M122.43,64.23a4.73,4.73,0,1,0,9.45,0V51.64a1.57,1.57,0,1,1,3.14,0v4.72h3.15V51.64a4.73,4.73,0,1,0-9.45,0V64.23a1.57,1.57,0,1,1-3.14,0V56.36h-3.15Z"/><g class="cls-47"><rect class="cls-2" x="-2642.91" y="-2402.3" width="5224.37" height="4468.85"/></g><path class="cls-4" d="M113,75.25a17.73,17.73,0,0,1,5.64.92l4.95,1.65-2.65-6.63A8.51,8.51,0,0,0,113,65.81a4.72,4.72,0,1,0,0,9.44M113,69a5.39,5.39,0,0,1,5,3.39l.16.4a21,21,0,0,0-5.18-.64A1.58,1.58,0,1,1,113,69"/><g class="cls-48"><rect class="cls-2" x="-2642.91" y="-2402.3" width="5224.37" height="4468.85"/><g class="cls-42"><rect class="cls-2" x="81.46" y="39.02" width="68.9" height="65.6"/></g></g><path class="cls-4" d="M186.91,71.18l-2.65,6.64,5-1.65a17.77,17.77,0,0,1,5.64-.92,4.72,4.72,0,1,0,0-9.44A8.52,8.52,0,0,0,186.91,71.18Zm2.93,1.17a5.36,5.36,0,0,1,5-3.39,1.57,1.57,0,1,1,0,3.14,21.07,21.07,0,0,0-5.18.65Z"/><g class="cls-49"><rect class="cls-2" x="-2642.91" y="-2402.3" width="5224.37" height="4468.85"/></g></svg>