<svg id="Layer_1" data-name="Layer 1" xmlns="http://www.w3.org/2000/svg" xmlns:xlink="http://www.w3.org/1999/xlink" viewBox="0 0 64.5 90.7"><defs><style>.cls-1,.cls-2,.cls-3{fill:#221c45;}.cls-1{clip-rule:evenodd;}.cls-3{fill-rule:evenodd;}.cls-4{clip-path:url(#clip-path);}.cls-5{clip-path:url(#clip-path-2);}.cls-6{clip-path:url(#clip-path-3);}.cls-7{clip-path:url(#clip-path-4);}.cls-8{clip-path:url(#clip-path-5);}.cls-9{clip-path:url(#clip-path-6);}.cls-10{clip-path:url(#clip-path-7);}.cls-11{clip-path:url(#clip-path-8);}.cls-12{clip-path:url(#clip-path-9);}.cls-13{clip-path:url(#clip-path-10);}.cls-14{clip-path:url(#clip-path-11);}.cls-15{clip-path:url(#clip-path-12);}.cls-16{clip-path:url(#clip-path-13);}.cls-17{clip-path:url(#clip-path-14);}.cls-18{clip-path:url(#clip-path-15);}.cls-19{clip-path:url(#clip-path-16);}.cls-20{clip-path:url(#clip-path-17);}.cls-21{clip-path:url(#clip-path-18);}.cls-22{clip-path:url(#clip-path-19);}.cls-23{clip-path:url(#clip-path-20);}.cls-24{clip-path:url(#clip-path-21);}.cls-25{clip-path:url(#clip-path-22);}.cls-26{clip-path:url(#clip-path-23);}</style><clipPath id="clip-path"><path class="cls-1" d="M172-41h15.9V-51H172Zm17.9,3.9H170a2,2,0,0,1-2-2V-53a2,2,0,0,1,2-2h19.9a2,2,0,0,1,2,2v13.9A2,2,0,0,1,189.9-37.1Z"/></clipPath><clipPath id="clip-path-2"><path class="cls-1" d="M162.1-41h35.7v-87.6H162.1Zm37.7,3.9H160.1a2,2,0,0,1-2-2v-91.5a1.9,1.9,0,0,1,2-1.9h39.7a1.9,1.9,0,0,1,2,1.9v91.5A2,2,0,0,1,199.8-37.1Z"/></clipPath><clipPath id="clip-path-3"><path class="cls-1" d="M146.1-41h12v-79.6h-12Zm14,3.9h-16a2,2,0,0,1-1.9-2v-83.5a2,2,0,0,1,1.9-2h16a1.9,1.9,0,0,1,1.9,2v83.5A1.9,1.9,0,0,1,160.1-37.1Z"/></clipPath><clipPath id="clip-path-4"><path class="cls-1" d="M201.8-41h12v-79.6h-12Zm14,3.9h-16a2,2,0,0,1-2-2v-83.5a2,2,0,0,1,2-2h16a1.9,1.9,0,0,1,1.9,2v83.5A1.9,1.9,0,0,1,215.8-37.1Z"/></clipPath><clipPath id="clip-path-5"><rect class="cls-2" x="128.2" y="-80.8" width="4" height="19.89" transform="translate(108.7 75.8) rotate(-53.1)"/></clipPath><clipPath id="clip-path-6"><rect class="cls-2" x="120.3" y="-72.9" width="19.9" height="3.98" transform="translate(68.6 64) rotate(-36.9)"/></clipPath><clipPath id="clip-path-7"><rect class="cls-2" x="227.7" y="-80.8" width="4" height="19.89" transform="translate(148.5 155.4) rotate(-53.1)"/></clipPath><clipPath id="clip-path-8"><rect class="cls-2" x="219.7" y="-72.9" width="19.9" height="3.97" transform="translate(88.4 123.6) rotate(-36.8)"/></clipPath><clipPath id="clip-path-9"><path class="cls-1" d="M-12.1-90.5a9.3,9.3,0,0,0-6.7-9,38.4,38.4,0,0,0-4.6-11.3,9.6,9.6,0,0,0-1.7-11.1,9.5,9.5,0,0,0-6.7-2.8,9.3,9.3,0,0,0-4.4,1.1,42.3,42.3,0,0,0-11.2-4.7,9.5,9.5,0,0,0-9.1-6.6,9.5,9.5,0,0,0-9,6.6,40.9,40.9,0,0,0-11.2,4.7,10,10,0,0,0-7.2-.7,1.4,1.4,0,0,0,.8,2.7,6.7,6.7,0,0,1,6.7,1.7,6.8,6.8,0,0,1,0,9.4,6.8,6.8,0,0,1-9.4,0,6.8,6.8,0,0,1-1.5-7.3c.7-1.6-1.9-2.7-2.6-1a9.3,9.3,0,0,0,.4,8,41.6,41.6,0,0,0-4.7,11.3,9.3,9.3,0,0,0-6.6,9,9.5,9.5,0,0,0,6.6,9,41.6,41.6,0,0,0,4.7,11.3,9.5,9.5,0,0,0,1.7,11.1,9.6,9.6,0,0,0,11.1,1.7c1.4.8,2.8,1.6,4.3,2.3l-4.3,11.6a3.3,3.3,0,0,0,3.1,4.4h34.3a3.4,3.4,0,0,0,3.1-4.4l-4.3-11.6c1.5-.7,2.9-1.5,4.3-2.3a9.9,9.9,0,0,0,4.4,1.1,9.8,9.8,0,0,0,2.9-.5c1.7-.5.9-3.2-.9-2.7a6.5,6.5,0,0,1-6.7-1.6,6.6,6.6,0,0,1,0-9.4,6.6,6.6,0,0,1,9.4,0,6.6,6.6,0,0,1,1.5,7.2c-.7,1.6,1.9,2.7,2.6,1a9.9,9.9,0,0,0-.4-7.9,38.4,38.4,0,0,0,4.6-11.3A9.5,9.5,0,0,0-12.1-90.5Zm-2.8,0a6.6,6.6,0,0,1-6.7,6.6,6.6,6.6,0,0,1-6.6-6.6,6.7,6.7,0,0,1,6.6-6.7A6.7,6.7,0,0,1-14.9-90.5Zm-16-1.4H-42.8a12.6,12.6,0,0,0-3-7.3l8.4-8.4a9.5,9.5,0,0,0,7.5,1.6,35.7,35.7,0,0,1,3.1,7.6A9.5,9.5,0,0,0-30.9-91.9ZM-42.7-57.2-47-55.8a10,10,0,0,0-.4-2.4,33.4,33.4,0,0,0,7.3-3.1,9.5,9.5,0,0,0,1.5,2A31.7,31.7,0,0,1-42.7-57.2Zm-31.6-2.1a9.5,9.5,0,0,0,1.5-2,31.4,31.4,0,0,0,7.3,3.1,6.7,6.7,0,0,0-.4,2.4A32.5,32.5,0,0,1-74.3-59.3ZM-87.7-72.6a37.1,37.1,0,0,1-3.5-8.5,10.1,10.1,0,0,0,2.5-.3,33,33,0,0,0,3,7.3A9.5,9.5,0,0,0-87.7-72.6Zm4.7-2.5a29.6,29.6,0,0,1-3.1-7.6A9.4,9.4,0,0,0-82-89.1h11.8a14.8,14.8,0,0,0,3,7.3l-8.4,8.4A9.3,9.3,0,0,0-83-75.1Zm25.1,10.2a9.3,9.3,0,0,0-6.4,4.1A29.9,29.9,0,0,1-71.9-64a9.3,9.3,0,0,0-1.7-7.5l8.4-8.3a14.8,14.8,0,0,0,7.3,3Zm1.4,2.7a6.7,6.7,0,0,1,6.7,6.6,6.7,6.7,0,0,1-6.7,6.7,6.7,6.7,0,0,1-6.6-6.7A6.7,6.7,0,0,1-56.5-62.2ZM-41-64a31.5,31.5,0,0,1-7.6,3.2,9.5,9.5,0,0,0-6.5-4.1V-76.8a14.1,14.1,0,0,0,7.3-3l8.4,8.4A9,9,0,0,0-41-64ZM-56.5-79.5a11,11,0,0,1-10.9-11,10.9,10.9,0,0,1,10.9-11,11,11,0,0,1,11,11A11,11,0,0,1-56.5-79.5Zm-9-43.3a31.2,31.2,0,0,0-7.3,3,9.5,9.5,0,0,0-1.5-2,36.4,36.4,0,0,1,8.4-3.5A6.9,6.9,0,0,0-65.5-122.8Zm-6.4,5.7a29.6,29.6,0,0,1,7.6-3.1,9.7,9.7,0,0,0,6.4,4.1v11.9a13.9,13.9,0,0,0-7.3,3l-8.4-8.4A9.2,9.2,0,0,0-71.9-117.1Zm31.8-2.7a33,33,0,0,0-7.3-3,10.1,10.1,0,0,0,.4-2.5,38.3,38.3,0,0,1,8.4,3.5A13,13,0,0,0-40.1-119.8Zm-8.5-.4a31.2,31.2,0,0,1,7.6,3.1,9.6,9.6,0,0,0,1.6,7.5l-8.4,8.4a13.3,13.3,0,0,0-7.3-3v-11.9A9.9,9.9,0,0,0-48.6-120.2Zm23.3,11.8a34,34,0,0,1,3.5,8.4,10,10,0,0,0-2.4.4,33.4,33.4,0,0,0-3.1-7.3A7.5,7.5,0,0,0-25.3-108.4Zm-1.8-11.5a6.6,6.6,0,0,1,0,9.4,6.8,6.8,0,0,1-9.4,0,6.8,6.8,0,0,1,0-9.4A6.6,6.6,0,0,1-27.1-119.9Zm-29.4-12.2a6.7,6.7,0,0,1,6.7,6.6,6.7,6.7,0,0,1-6.7,6.7,6.7,6.7,0,0,1-6.6-6.7,4.9,4.9,0,0,1,.1-1.2v-.3A6.6,6.6,0,0,1-56.5-132.1Zm-19,24.5,8.4,8.4a13.4,13.4,0,0,0-3.1,7.3H-82a9.9,9.9,0,0,0-4.1-6.5A31.2,31.2,0,0,1-83-106,9.6,9.6,0,0,0-75.5-107.6Zm-10.2.7a33,33,0,0,0-3,7.3,10.1,10.1,0,0,0-2.5-.4,38.3,38.3,0,0,1,3.5-8.4A9.5,9.5,0,0,0-85.7-106.9ZM-98-90.5a6.7,6.7,0,0,1,6.6-6.7,6.7,6.7,0,0,1,6.7,6.7,6.6,6.6,0,0,1-6.7,6.6A6.6,6.6,0,0,1-98-90.5Zm16.9,31.4a6.3,6.3,0,0,1-4.7-2,6.6,6.6,0,0,1,0-9.4,6.6,6.6,0,0,1,9.4,0,6.8,6.8,0,0,1,0,9.4A7.1,7.1,0,0,1-81.1-59.1Zm42.2,16.5c.1.4,0,.6-.4.6H-73.6c-.4,0-.5-.2-.5-.6l4.3-11.5a21.3,21.3,0,0,0,4.3,1.3,9.5,9.5,0,0,0,9,6.7,9.5,9.5,0,0,0,9.1-6.7,23.5,23.5,0,0,0,4.3-1.3Zm1.5-30.8-8.4-8.4a13.2,13.2,0,0,0,3-7.3h11.9a9.1,9.1,0,0,0,4.1,6.4,33.7,33.7,0,0,1-3.1,7.6l-1.9-.2A9.5,9.5,0,0,0-37.4-73.4Zm10.1-.7a33.4,33.4,0,0,0,3.1-7.3,9.9,9.9,0,0,0,2.4.3,33.1,33.1,0,0,1-3.5,8.5A7.5,7.5,0,0,0-27.3-74.1Z"/></clipPath><clipPath id="clip-path-10"><path class="cls-2" d="M-333-36.6h-74.6a2.6,2.6,0,0,1-2.5-2.6v-5.4a2.5,2.5,0,0,1,2.5-2.6H-379a8.6,8.6,0,0,1-.7-2.1,6.7,6.7,0,0,1,1.4-5.3l1-1.1a7.4,7.4,0,0,0,1.4-5.6l-.4-2.4h-11.2a6,6,0,0,1-5.9-6.2.9.9,0,0,0-.4-.8l-2.4-1.6a2.6,2.6,0,0,1-.9-2.9,2.4,2.4,0,0,1,2.4-1.9h19.3V-80h-6.5a6,6,0,0,1-5.8-6.2,1.2,1.2,0,0,0-.4-.8l-2.4-1.6a2.8,2.8,0,0,1-1-2.9,2.6,2.6,0,0,1,2.4-1.9h13.7v-1.5a10.3,10.3,0,0,0-5.7-9.3l-.7-.3V-107h23v2.5l-.7.3a10.4,10.4,0,0,0-5.7,9.3v1.5h13.7a2.6,2.6,0,0,1,2.4,1.9,2.7,2.7,0,0,1-1,2.9l-2.3,1.6a.9.9,0,0,0-.4.8,6.1,6.1,0,0,1-5.9,6.2h-6.5v2.9h19.3a2.6,2.6,0,0,1,2.5,1.9,2.8,2.8,0,0,1-1,2.9l-2.4,1.6a1.2,1.2,0,0,0-.4.8,6,6,0,0,1-5.9,6.2h-11.2l-.4,2.4a7.1,7.1,0,0,0,1.5,5.6l.9,1.1a6.7,6.7,0,0,1,1.4,5.3,5.8,5.8,0,0,1-.7,2.1H-333a2.5,2.5,0,0,1,2.5,2.6v5.4A2.6,2.6,0,0,1-333-36.6Zm-74.6-8.1h0v5.4H-333v-5.4h-35.1L-365-47a3.7,3.7,0,0,0,1.6-2.7,3.9,3.9,0,0,0-.9-3.3l-.9-1.2a9.5,9.5,0,0,1-2-7.5l.8-4.5h13.3a3.6,3.6,0,0,0,3.4-3.7,3.5,3.5,0,0,1,1.5-2.8l2.3-1.7h-21.8v-7.9h9a3.6,3.6,0,0,0,3.4-3.7,3.4,3.4,0,0,1,1.4-2.8l2.4-1.7h-16.2v-4a13.2,13.2,0,0,1,4.2-9.6h-13.6a13.2,13.2,0,0,1,4.2,9.6v4h-16.2v.2l2.4,1.7a3.5,3.5,0,0,1,1.5,2.8,3.6,3.6,0,0,0,3.3,3.7h9v7.9h-21.8a.1.1,0,0,0,0,.2l2.4,1.7a3.4,3.4,0,0,1,1.4,2.8,3.6,3.6,0,0,0,3.4,3.7h13.4l.7,4.5a9.6,9.6,0,0,1-2,7.5l-.9,1.2a3.9,3.9,0,0,0-.9,3.3,4,4,0,0,0,1.6,2.7l3.1,2.3Z"/></clipPath><clipPath id="clip-path-11"><path class="cls-1" d="M-402.7-77.8a2.8,2.8,0,0,1,2.8-2.8,5.8,5.8,0,0,0,5.7-5.7v-7a2.7,2.7,0,0,1,2.8-2.8h8.4v-2.8h-8.4a5.6,5.6,0,0,0-5.6,5.6v7a2.9,2.9,0,0,1-2.9,2.9,5.6,5.6,0,0,0-5.6,5.6v19.7h2.8Z"/></clipPath><clipPath id="clip-path-12"><path class="cls-2" d="M-370.3-109.4a2,2,0,0,1-1.8-1.1l-3.2-5.3a2,2,0,0,1,.3-2.6l3.2-3.2a2.2,2.2,0,0,1,3,0l3.2,3.2a2.1,2.1,0,0,1,.4,2.6l-3.2,5.3A2.1,2.1,0,0,1-370.3-109.4Zm0-2.2Zm0-8.5-3.2,3.2,3.2,5.3,3.2-5.3Z"/></clipPath><clipPath id="clip-path-13"><path class="cls-1" d="M-357.6-98.9v2.8h8.4a2.7,2.7,0,0,1,2.8,2.8v7a5.8,5.8,0,0,0,5.7,5.7,2.8,2.8,0,0,1,2.8,2.8v19.7h2.8V-77.8a5.6,5.6,0,0,0-5.6-5.6,2.8,2.8,0,0,1-2.8-2.9v-7a5.7,5.7,0,0,0-5.7-5.6Z"/></clipPath><clipPath id="clip-path-14"><path class="cls-1" d="M-352-108.8h2.8a8.5,8.5,0,0,0-8.4-8.4h-2.8v2.8h2.8a5.6,5.6,0,0,1,5.6,5.6"/></clipPath><clipPath id="clip-path-15"><path class="cls-1" d="M-383-114.4h2.9v-2.8H-383a8.5,8.5,0,0,0-8.4,8.4h2.8a5.6,5.6,0,0,1,5.6-5.6"/></clipPath><clipPath id="clip-path-16"><path class="cls-1" d="M96.9-49.9a4.6,4.6,0,0,1-3.1,1.3,4.4,4.4,0,0,1-3.1-1.3,7.8,7.8,0,0,0-5.1-1.9,7.7,7.7,0,0,0-5,1.9,4.4,4.4,0,0,1-3.1,1.3,4.4,4.4,0,0,1-3.1-1.3,7.7,7.7,0,0,0-5-1.9,7.8,7.8,0,0,0-5.1,1.9,4.4,4.4,0,0,1-3.1,1.3,4.4,4.4,0,0,1-1.8-.4V-91.2h22V-88h3.2v-3.2h1.6a3.1,3.1,0,0,0,3.1-3.1v-3.2a3.1,3.1,0,0,0-3.1-3.1h-.1a30,30,0,0,0-28.3-28.3v-1.6a4.8,4.8,0,0,0-4.7-4.8,4.8,4.8,0,0,0-4.7,4.8v1.6a30,30,0,0,0-28.3,28.3H20a3.1,3.1,0,0,0-3.1,3.1v3.2A3.1,3.1,0,0,0,20-91.2h1.6V-88h3.2v-3.2h22v42.1a3.3,3.3,0,0,1-1.9.5,4.9,4.9,0,0,1-3.1-1.3,7.5,7.5,0,0,0-5-1.9,7.5,7.5,0,0,0-5,1.9,4.6,4.6,0,0,1-3.1,1.3,4.4,4.4,0,0,1-3.1-1.3,7.7,7.7,0,0,0-5-1.9,7.8,7.8,0,0,0-5.1,1.9,4.4,4.4,0,0,1-3.1,1.3,4.6,4.6,0,0,1-3.1-1.3,7.5,7.5,0,0,0-5-1.9v3.2a4.4,4.4,0,0,1,3.1,1.2,7.7,7.7,0,0,0,5,1.9,7.3,7.3,0,0,0,5-1.9,4.8,4.8,0,0,1,3.2-1.2,4.8,4.8,0,0,1,3.1,1.2,7.3,7.3,0,0,0,5,1.9,7.5,7.5,0,0,0,5-1.9,4.4,4.4,0,0,1,3.1-1.2,4.4,4.4,0,0,1,3.1,1.2,7.7,7.7,0,0,0,5,1.9A7.8,7.8,0,0,0,50-47.4a4.4,4.4,0,0,1,3.1-1.2,4.4,4.4,0,0,1,3.1,1.2,7.5,7.5,0,0,0,5,1.9,7.3,7.3,0,0,0,5-1.9,4.8,4.8,0,0,1,3.2-1.2,4.8,4.8,0,0,1,3.1,1.2,7.5,7.5,0,0,0,5,1.9,7.5,7.5,0,0,0,5-1.9,4.6,4.6,0,0,1,3.1-1.2,4.4,4.4,0,0,1,3.1,1.2,7.8,7.8,0,0,0,5.1,1.9,7.7,7.7,0,0,0,5-1.9,4.4,4.4,0,0,1,3.1-1.2v-3.2A7.5,7.5,0,0,0,96.9-49.9ZM53.1-132.1a1.6,1.6,0,0,1,1.6,1.6v1.5H51.5v-1.5A1.6,1.6,0,0,1,53.1-132.1Zm-4.3,6.4a35.5,35.5,0,0,0-8.3,11.9l2.8,1.2a35.1,35.1,0,0,1,9.8-12.8,34.1,34.1,0,0,1,12.6,24.8H40.6a30.4,30.4,0,0,1,1.6-9l-3-.9a36.8,36.8,0,0,0-1.8,9.9H23.3A26.7,26.7,0,0,1,48.8-125.7ZM20-97.5H73.6v-3.1H68.8a36.3,36.3,0,0,0-11.4-25.1,26.7,26.7,0,0,1,25.5,25.1H76.7v3.1h9.5v3.2H20ZM53.1-51.8a6.8,6.8,0,0,0-3.1.7V-91.2h6.3v40.1A7.6,7.6,0,0,0,53.1-51.8Z"/></clipPath><clipPath id="clip-path-17"><path class="cls-1" d="M93.8-40.8A4.4,4.4,0,0,1,90.7-42a7.3,7.3,0,0,0-5.1-1.9,7,7,0,0,0-5,1.9,4.4,4.4,0,0,1-3.1,1.2A4.4,4.4,0,0,1,74.4-42a7.2,7.2,0,0,0-5-1.9A7.3,7.3,0,0,0,64.3-42a4.4,4.4,0,0,1-3.1,1.2A4.4,4.4,0,0,1,58.1-42a7,7,0,0,0-5-1.9,6.9,6.9,0,0,0-5,1.9A4.8,4.8,0,0,1,45-40.8,4.8,4.8,0,0,1,41.8-42a7,7,0,0,0-5-1.9,7,7,0,0,0-5,1.9,4.6,4.6,0,0,1-3.1,1.2A4.4,4.4,0,0,1,25.6-42a7.2,7.2,0,0,0-5-1.9A7.3,7.3,0,0,0,15.5-42a4.4,4.4,0,0,1-3.1,1.2A4.6,4.6,0,0,1,9.3-42a7,7,0,0,0-5-1.9v3.1a4.1,4.1,0,0,1,3.1,1.3,7.7,7.7,0,0,0,5,1.9,7.8,7.8,0,0,0,5.1-1.9,4.1,4.1,0,0,1,3.1-1.3,4.4,4.4,0,0,1,3.1,1.3,7.3,7.3,0,0,0,5,1.9,7.5,7.5,0,0,0,5-1.9,4.1,4.1,0,0,1,3.1-1.3,4.1,4.1,0,0,1,3.1,1.3A7.8,7.8,0,0,0,45-37.6a7.7,7.7,0,0,0,5-1.9,4.1,4.1,0,0,1,3.1-1.3,4.1,4.1,0,0,1,3.1,1.3,7.5,7.5,0,0,0,5,1.9,7.8,7.8,0,0,0,5.1-1.9,4.1,4.1,0,0,1,3.1-1.3,4.4,4.4,0,0,1,3.1,1.3,7.5,7.5,0,0,0,5,1.9,7.5,7.5,0,0,0,5-1.9,4.2,4.2,0,0,1,3.1-1.3,4.1,4.1,0,0,1,3.1,1.3,7.8,7.8,0,0,0,5.1,1.9,7.7,7.7,0,0,0,5-1.9,4.1,4.1,0,0,1,3.1-1.3v-3.1a7,7,0,0,0-5,1.9,4.6,4.6,0,0,1-3.1,1.2"/></clipPath><clipPath id="clip-path-18"><path class="cls-1" d="M62.6-59.7a4.8,4.8,0,0,0,4.7,4.8A4.8,4.8,0,0,0,72-59.7v-3.1H68.9v3.1a1.6,1.6,0,0,1-1.6,1.6,1.6,1.6,0,0,1-1.6-1.6v-22H62.6Z"/></clipPath><clipPath id="clip-path-19"><path class="cls-1" d="M84.6-70.7v-7.9H81.4v7.9a1.6,1.6,0,0,1-1.5,1.6,1.6,1.6,0,0,1-1.6-1.6V-83.3A4.7,4.7,0,0,0,73.6-88a4.7,4.7,0,0,0-4.7,4.7v4.7H72v-4.7a1.6,1.6,0,0,1,1.6-1.6,1.6,1.6,0,0,1,1.5,1.6v12.6A4.8,4.8,0,0,0,79.9-66a4.7,4.7,0,0,0,4.7-4.7"/></clipPath><clipPath id="clip-path-20"><path class="cls-1" d="M40.5-59.7a1.6,1.6,0,0,1-1.6,1.6,1.6,1.6,0,0,1-1.5-1.6v-3.1H34.2v3.1a4.8,4.8,0,0,0,4.7,4.8,4.9,4.9,0,0,0,4.8-4.8v-22H40.5Z"/></clipPath><clipPath id="clip-path-21"><path class="cls-1" d="M21.6-70.7A4.7,4.7,0,0,0,26.3-66a4.8,4.8,0,0,0,4.8-4.7V-83.3a1.6,1.6,0,0,1,1.5-1.6,1.6,1.6,0,0,1,1.6,1.6v4.7h3.2v-4.7A4.8,4.8,0,0,0,32.6-88a4.7,4.7,0,0,0-4.7,4.7v12.6a1.6,1.6,0,0,1-1.6,1.6,1.6,1.6,0,0,1-1.5-1.6v-7.9H21.6Z"/></clipPath><clipPath id="clip-path-22"><path class="cls-1" d="M12.2-59.7a17.7,17.7,0,0,1,5.6.9l5,1.7-2.7-6.6a8.4,8.4,0,0,0-7.9-5.4,4.8,4.8,0,0,0-4.8,4.7,4.8,4.8,0,0,0,4.8,4.7m0-6.3a5.4,5.4,0,0,1,5,3.4v.4a21.6,21.6,0,0,0-5.1-.6,1.6,1.6,0,0,1-1.6-1.6A1.6,1.6,0,0,1,12.2-66"/></clipPath><clipPath id="clip-path-23"><path class="cls-1" d="M86.1-63.7l-2.7,6.6,5-1.7a17.7,17.7,0,0,1,5.6-.9,4.8,4.8,0,0,0,4.8-4.7A4.8,4.8,0,0,0,94-69.1,8.4,8.4,0,0,0,86.1-63.7ZM89-62.6A5.4,5.4,0,0,1,94-66a1.6,1.6,0,0,1,1.6,1.6A1.6,1.6,0,0,1,94-62.8a22.2,22.2,0,0,0-5.1.6Z"/></clipPath></defs><path class="cls-3" d="M172-41h15.9V-51H172Zm17.9,3.9H170a2,2,0,0,1-2-2V-53a2,2,0,0,1,2-2h19.9a2,2,0,0,1,2,2v13.9A2,2,0,0,1,189.9-37.1Z"/><g class="cls-4"><rect class="cls-2" x="-1096.5" y="-3833.7" width="5804" height="4970.61"/></g><path class="cls-3" d="M162.1-41h35.7v-87.6H162.1Zm37.7,3.9H160.1a2,2,0,0,1-2-2v-91.5a1.9,1.9,0,0,1,2-1.9h39.7a1.9,1.9,0,0,1,2,1.9v91.5A2,2,0,0,1,199.8-37.1Z"/><g class="cls-5"><rect class="cls-2" x="-1096.5" y="-3833.7" width="5804" height="4964.66"/></g><path class="cls-3" d="M146.1-41h12v-79.6h-12Zm14,3.9h-16a2,2,0,0,1-1.9-2v-83.5a2,2,0,0,1,1.9-2h16a1.9,1.9,0,0,1,1.9,2v83.5A1.9,1.9,0,0,1,160.1-37.1Z"/><g class="cls-6"><rect class="cls-2" x="-1096.5" y="-3833.7" width="5804" height="4964.66"/></g><path class="cls-3" d="M201.8-41h12v-79.6h-12Zm14,3.9h-16a2,2,0,0,1-2-2v-83.5a2,2,0,0,1,2-2h16a1.9,1.9,0,0,1,1.9,2v83.5A1.9,1.9,0,0,1,215.8-37.1Z"/><g class="cls-7"><rect class="cls-2" x="-1096.5" y="-3833.7" width="5804" height="4964.66"/></g><rect class="cls-2" x="128.2" y="-80.8" width="4" height="19.89" transform="translate(108.7 75.8) rotate(-53.1)"/><g class="cls-8"><rect class="cls-2" x="-1096.5" y="-3833.7" width="5804" height="4964.66"/></g><rect class="cls-2" x="120.3" y="-72.9" width="19.9" height="3.98" transform="translate(68.6 64) rotate(-36.9)"/><g class="cls-9"><rect class="cls-2" x="-1096.5" y="-3833.7" width="5804" height="4964.66"/></g><rect class="cls-2" x="227.7" y="-80.8" width="4" height="19.89" transform="translate(148.5 155.4) rotate(-53.1)"/><g class="cls-10"><rect class="cls-2" x="-1096.5" y="-3833.7" width="5804" height="4964.66"/></g><rect class="cls-2" x="219.7" y="-72.9" width="19.9" height="3.97" transform="translate(88.4 123.6) rotate(-36.8)"/><g class="cls-11"><rect class="cls-2" x="-1096.5" y="-3833.7" width="5804" height="4964.66"/></g><path class="cls-3" d="M-12.1-90.5a9.3,9.3,0,0,0-6.7-9,38.4,38.4,0,0,0-4.6-11.3,9.6,9.6,0,0,0-1.7-11.1,9.5,9.5,0,0,0-6.7-2.8,9.3,9.3,0,0,0-4.4,1.1,42.3,42.3,0,0,0-11.2-4.7,9.5,9.5,0,0,0-9.1-6.6,9.5,9.5,0,0,0-9,6.6,40.9,40.9,0,0,0-11.2,4.7,10,10,0,0,0-7.2-.7,1.4,1.4,0,0,0,.8,2.7,6.7,6.7,0,0,1,6.7,1.7,6.8,6.8,0,0,1,0,9.4,6.8,6.8,0,0,1-9.4,0,6.8,6.8,0,0,1-1.5-7.3c.7-1.6-1.9-2.7-2.6-1a9.3,9.3,0,0,0,.4,8,41.6,41.6,0,0,0-4.7,11.3,9.3,9.3,0,0,0-6.6,9,9.5,9.5,0,0,0,6.6,9,41.6,41.6,0,0,0,4.7,11.3,9.5,9.5,0,0,0,1.7,11.1,9.6,9.6,0,0,0,11.1,1.7c1.4.8,2.8,1.6,4.3,2.3l-4.3,11.6a3.3,3.3,0,0,0,3.1,4.4h34.3a3.4,3.4,0,0,0,3.1-4.4l-4.3-11.6c1.5-.7,2.9-1.5,4.3-2.3a9.9,9.9,0,0,0,4.4,1.1,9.8,9.8,0,0,0,2.9-.5c1.7-.5.9-3.2-.9-2.7a6.5,6.5,0,0,1-6.7-1.6,6.6,6.6,0,0,1,0-9.4,6.6,6.6,0,0,1,9.4,0,6.6,6.6,0,0,1,1.5,7.2c-.7,1.6,1.9,2.7,2.6,1a9.9,9.9,0,0,0-.4-7.9,38.4,38.4,0,0,0,4.6-11.3A9.5,9.5,0,0,0-12.1-90.5Zm-2.8,0a6.6,6.6,0,0,1-6.7,6.6,6.6,6.6,0,0,1-6.6-6.6,6.7,6.7,0,0,1,6.6-6.7A6.7,6.7,0,0,1-14.9-90.5Zm-16-1.4H-42.8a12.6,12.6,0,0,0-3-7.3l8.4-8.4a9.5,9.5,0,0,0,7.5,1.6,35.7,35.7,0,0,1,3.1,7.6A9.5,9.5,0,0,0-30.9-91.9ZM-42.7-57.2-47-55.8a10,10,0,0,0-.4-2.4,33.4,33.4,0,0,0,7.3-3.1,9.5,9.5,0,0,0,1.5,2A31.7,31.7,0,0,1-42.7-57.2Zm-31.6-2.1a9.5,9.5,0,0,0,1.5-2,31.4,31.4,0,0,0,7.3,3.1,6.7,6.7,0,0,0-.4,2.4A32.5,32.5,0,0,1-74.3-59.3ZM-87.7-72.6a37.1,37.1,0,0,1-3.5-8.5,10.1,10.1,0,0,0,2.5-.3,33,33,0,0,0,3,7.3A9.5,9.5,0,0,0-87.7-72.6Zm4.7-2.5a29.6,29.6,0,0,1-3.1-7.6A9.4,9.4,0,0,0-82-89.1h11.8a14.8,14.8,0,0,0,3,7.3l-8.4,8.4A9.3,9.3,0,0,0-83-75.1Zm25.1,10.2a9.3,9.3,0,0,0-6.4,4.1A29.9,29.9,0,0,1-71.9-64a9.3,9.3,0,0,0-1.7-7.5l8.4-8.3a14.8,14.8,0,0,0,7.3,3Zm1.4,2.7a6.7,6.7,0,0,1,6.7,6.6,6.7,6.7,0,0,1-6.7,6.7,6.7,6.7,0,0,1-6.6-6.7A6.7,6.7,0,0,1-56.5-62.2ZM-41-64a31.5,31.5,0,0,1-7.6,3.2,9.5,9.5,0,0,0-6.5-4.1V-76.8a14.1,14.1,0,0,0,7.3-3l8.4,8.4A9,9,0,0,0-41-64ZM-56.5-79.5a11,11,0,0,1-10.9-11,10.9,10.9,0,0,1,10.9-11,11,11,0,0,1,11,11A11,11,0,0,1-56.5-79.5Zm-9-43.3a31.2,31.2,0,0,0-7.3,3,9.5,9.5,0,0,0-1.5-2,36.4,36.4,0,0,1,8.4-3.5A6.9,6.9,0,0,0-65.5-122.8Zm-6.4,5.7a29.6,29.6,0,0,1,7.6-3.1,9.7,9.7,0,0,0,6.4,4.1v11.9a13.9,13.9,0,0,0-7.3,3l-8.4-8.4A9.2,9.2,0,0,0-71.9-117.1Zm31.8-2.7a33,33,0,0,0-7.3-3,10.1,10.1,0,0,0,.4-2.5,38.3,38.3,0,0,1,8.4,3.5A13,13,0,0,0-40.1-119.8Zm-8.5-.4a31.2,31.2,0,0,1,7.6,3.1,9.6,9.6,0,0,0,1.6,7.5l-8.4,8.4a13.3,13.3,0,0,0-7.3-3v-11.9A9.9,9.9,0,0,0-48.6-120.2Zm23.3,11.8a34,34,0,0,1,3.5,8.4,10,10,0,0,0-2.4.4,33.4,33.4,0,0,0-3.1-7.3A7.5,7.5,0,0,0-25.3-108.4Zm-1.8-11.5a6.6,6.6,0,0,1,0,9.4,6.8,6.8,0,0,1-9.4,0,6.8,6.8,0,0,1,0-9.4A6.6,6.6,0,0,1-27.1-119.9Zm-29.4-12.2a6.7,6.7,0,0,1,6.7,6.6,6.7,6.7,0,0,1-6.7,6.7,6.7,6.7,0,0,1-6.6-6.7,4.9,4.9,0,0,1,.1-1.2v-.3A6.6,6.6,0,0,1-56.5-132.1Zm-19,24.5,8.4,8.4a13.4,13.4,0,0,0-3.1,7.3H-82a9.9,9.9,0,0,0-4.1-6.5A31.2,31.2,0,0,1-83-106,9.6,9.6,0,0,0-75.5-107.6Zm-10.2.7a33,33,0,0,0-3,7.3,10.1,10.1,0,0,0-2.5-.4,38.3,38.3,0,0,1,3.5-8.4A9.5,9.5,0,0,0-85.7-106.9ZM-98-90.5a6.7,6.7,0,0,1,6.6-6.7,6.7,6.7,0,0,1,6.7,6.7,6.6,6.6,0,0,1-6.7,6.6A6.6,6.6,0,0,1-98-90.5Zm16.9,31.4a6.3,6.3,0,0,1-4.7-2,6.6,6.6,0,0,1,0-9.4,6.6,6.6,0,0,1,9.4,0,6.8,6.8,0,0,1,0,9.4A7.1,7.1,0,0,1-81.1-59.1Zm42.2,16.5c.1.4,0,.6-.4.6H-73.6c-.4,0-.5-.2-.5-.6l4.3-11.5a21.3,21.3,0,0,0,4.3,1.3,9.5,9.5,0,0,0,9,6.7,9.5,9.5,0,0,0,9.1-6.7,23.5,23.5,0,0,0,4.3-1.3Zm1.5-30.8-8.4-8.4a13.2,13.2,0,0,0,3-7.3h11.9a9.1,9.1,0,0,0,4.1,6.4,33.7,33.7,0,0,1-3.1,7.6l-1.9-.2A9.5,9.5,0,0,0-37.4-73.4Zm10.1-.7a33.4,33.4,0,0,0,3.1-7.3,9.9,9.9,0,0,0,2.4.3,33.1,33.1,0,0,1-3.5,8.5A7.5,7.5,0,0,0-27.3-74.1Z"/><g class="cls-12"><rect class="cls-2" x="-4620.8" y="-2350.3" width="5391.4" height="4611.73"/></g><path class="cls-2" d="M-333-36.6h-74.6a2.6,2.6,0,0,1-2.5-2.6v-5.4a2.5,2.5,0,0,1,2.5-2.6H-379a8.6,8.6,0,0,1-.7-2.1,6.7,6.7,0,0,1,1.4-5.3l1-1.1a7.4,7.4,0,0,0,1.4-5.6l-.4-2.4h-11.2a6,6,0,0,1-5.9-6.2.9.9,0,0,0-.4-.8l-2.4-1.6a2.6,2.6,0,0,1-.9-2.9,2.4,2.4,0,0,1,2.4-1.9h19.3V-80h-6.5a6,6,0,0,1-5.8-6.2,1.2,1.2,0,0,0-.4-.8l-2.4-1.6a2.8,2.8,0,0,1-1-2.9,2.6,2.6,0,0,1,2.4-1.9h13.7v-1.5a10.3,10.3,0,0,0-5.7-9.3l-.7-.3V-107h23v2.5l-.7.3a10.4,10.4,0,0,0-5.7,9.3v1.5h13.7a2.6,2.6,0,0,1,2.4,1.9,2.7,2.7,0,0,1-1,2.9l-2.3,1.6a.9.9,0,0,0-.4.8,6.1,6.1,0,0,1-5.9,6.2h-6.5v2.9h19.3a2.6,2.6,0,0,1,2.5,1.9,2.8,2.8,0,0,1-1,2.9l-2.4,1.6a1.2,1.2,0,0,0-.4.8,6,6,0,0,1-5.9,6.2h-11.2l-.4,2.4a7.1,7.1,0,0,0,1.5,5.6l.9,1.1a6.7,6.7,0,0,1,1.4,5.3,5.8,5.8,0,0,1-.7,2.1H-333a2.5,2.5,0,0,1,2.5,2.6v5.4A2.6,2.6,0,0,1-333-36.6Zm-74.6-8.1h0v5.4H-333v-5.4h-35.1L-365-47a3.7,3.7,0,0,0,1.6-2.7,3.9,3.9,0,0,0-.9-3.3l-.9-1.2a9.5,9.5,0,0,1-2-7.5l.8-4.5h13.3a3.6,3.6,0,0,0,3.4-3.7,3.5,3.5,0,0,1,1.5-2.8l2.3-1.7h-21.8v-7.9h9a3.6,3.6,0,0,0,3.4-3.7,3.4,3.4,0,0,1,1.4-2.8l2.4-1.7h-16.2v-4a13.2,13.2,0,0,1,4.2-9.6h-13.6a13.2,13.2,0,0,1,4.2,9.6v4h-16.2v.2l2.4,1.7a3.5,3.5,0,0,1,1.5,2.8,3.6,3.6,0,0,0,3.3,3.7h9v7.9h-21.8a.1.1,0,0,0,0,.2l2.4,1.7a3.4,3.4,0,0,1,1.4,2.8,3.6,3.6,0,0,0,3.4,3.7h13.4l.7,4.5a9.6,9.6,0,0,1-2,7.5l-.9,1.2a3.9,3.9,0,0,0-.9,3.3,4,4,0,0,0,1.6,2.7l3.1,2.3Z"/><g class="cls-13"><path class="cls-2" d="M2052.6,1747.3H-2824.7V-2659H2052.6Zm-4874.3-3H2049.6V-2656H-2821.7Z"/></g><path class="cls-3" d="M-402.7-77.8a2.8,2.8,0,0,1,2.8-2.8,5.8,5.8,0,0,0,5.7-5.7v-7a2.7,2.7,0,0,1,2.8-2.8h8.4v-2.8h-8.4a5.6,5.6,0,0,0-5.6,5.6v7a2.9,2.9,0,0,1-2.9,2.9,5.6,5.6,0,0,0-5.6,5.6v19.7h2.8Z"/><g class="cls-14"><rect class="cls-2" x="-3056.5" y="-2754.9" width="5338" height="4566.05"/></g><path class="cls-2" d="M-370.3-109.4a2,2,0,0,1-1.8-1.1l-3.2-5.3a2,2,0,0,1,.3-2.6l3.2-3.2a2.2,2.2,0,0,1,3,0l3.2,3.2a2.1,2.1,0,0,1,.4,2.6l-3.2,5.3A2.1,2.1,0,0,1-370.3-109.4Zm0-2.2Zm0-8.5-3.2,3.2,3.2,5.3,3.2-5.3Z"/><g class="cls-15"><path class="cls-2" d="M1636.8,1343H-2403.5V-2113.3H1636.8Zm-4038.1-2.2H1634.6V-2111.1H-2401.3Z"/></g><path class="cls-3" d="M-357.6-98.9v2.8h8.4a2.7,2.7,0,0,1,2.8,2.8v7a5.8,5.8,0,0,0,5.7,5.7,2.8,2.8,0,0,1,2.8,2.8v19.7h2.8V-77.8a5.6,5.6,0,0,0-5.6-5.6,2.8,2.8,0,0,1-2.8-2.9v-7a5.7,5.7,0,0,0-5.7-5.6Z"/><g class="cls-16"><rect class="cls-2" x="-3056.5" y="-2754.9" width="5338" height="4566.05"/></g><path class="cls-3" d="M-352-108.8h2.8a8.5,8.5,0,0,0-8.4-8.4h-2.8v2.8h2.8a5.6,5.6,0,0,1,5.6,5.6"/><g class="cls-17"><rect class="cls-2" x="-3056.5" y="-2754.9" width="5338" height="4566.05"/></g><path class="cls-3" d="M-383-114.4h2.9v-2.8H-383a8.5,8.5,0,0,0-8.4,8.4h2.8a5.6,5.6,0,0,1,5.6-5.6"/><g class="cls-18"><rect class="cls-2" x="-3056.5" y="-2754.9" width="5338" height="4566.05"/></g><path class="cls-3" d="M96.9-49.9a4.6,4.6,0,0,1-3.1,1.3,4.4,4.4,0,0,1-3.1-1.3,7.8,7.8,0,0,0-5.1-1.9,7.7,7.7,0,0,0-5,1.9,4.4,4.4,0,0,1-3.1,1.3,4.4,4.4,0,0,1-3.1-1.3,7.7,7.7,0,0,0-5-1.9,7.8,7.8,0,0,0-5.1,1.9,4.4,4.4,0,0,1-3.1,1.3,4.4,4.4,0,0,1-1.8-.4V-91.2h22V-88h3.2v-3.2h1.6a3.1,3.1,0,0,0,3.1-3.1v-3.2a3.1,3.1,0,0,0-3.1-3.1h-.1a30,30,0,0,0-28.3-28.3v-1.6a4.8,4.8,0,0,0-4.7-4.8,4.8,4.8,0,0,0-4.7,4.8v1.6a30,30,0,0,0-28.3,28.3H20a3.1,3.1,0,0,0-3.1,3.1v3.2A3.1,3.1,0,0,0,20-91.2h1.6V-88h3.2v-3.2h22v42.1a3.3,3.3,0,0,1-1.9.5,4.9,4.9,0,0,1-3.1-1.3,7.5,7.5,0,0,0-5-1.9,7.5,7.5,0,0,0-5,1.9,4.6,4.6,0,0,1-3.1,1.3,4.4,4.4,0,0,1-3.1-1.3,7.7,7.7,0,0,0-5-1.9,7.8,7.8,0,0,0-5.1,1.9,4.4,4.4,0,0,1-3.1,1.3,4.6,4.6,0,0,1-3.1-1.3,7.5,7.5,0,0,0-5-1.9v3.2a4.4,4.4,0,0,1,3.1,1.2,7.7,7.7,0,0,0,5,1.9,7.3,7.3,0,0,0,5-1.9,4.8,4.8,0,0,1,3.2-1.2,4.8,4.8,0,0,1,3.1,1.2,7.3,7.3,0,0,0,5,1.9,7.5,7.5,0,0,0,5-1.9,4.4,4.4,0,0,1,3.1-1.2,4.4,4.4,0,0,1,3.1,1.2,7.7,7.7,0,0,0,5,1.9A7.8,7.8,0,0,0,50-47.4a4.4,4.4,0,0,1,3.1-1.2,4.4,4.4,0,0,1,3.1,1.2,7.5,7.5,0,0,0,5,1.9,7.3,7.3,0,0,0,5-1.9,4.8,4.8,0,0,1,3.2-1.2,4.8,4.8,0,0,1,3.1,1.2,7.5,7.5,0,0,0,5,1.9,7.5,7.5,0,0,0,5-1.9,4.6,4.6,0,0,1,3.1-1.2,4.4,4.4,0,0,1,3.1,1.2,7.8,7.8,0,0,0,5.1,1.9,7.7,7.7,0,0,0,5-1.9,4.4,4.4,0,0,1,3.1-1.2v-3.2A7.5,7.5,0,0,0,96.9-49.9ZM53.1-132.1a1.6,1.6,0,0,1,1.6,1.6v1.5H51.5v-1.5A1.6,1.6,0,0,1,53.1-132.1Zm-4.3,6.4a35.5,35.5,0,0,0-8.3,11.9l2.8,1.2a35.1,35.1,0,0,1,9.8-12.8,34.1,34.1,0,0,1,12.6,24.8H40.6a30.4,30.4,0,0,1,1.6-9l-3-.9a36.8,36.8,0,0,0-1.8,9.9H23.3A26.7,26.7,0,0,1,48.8-125.7ZM20-97.5H73.6v-3.1H68.8a36.3,36.3,0,0,0-11.4-25.1,26.7,26.7,0,0,1,25.5,25.1H76.7v3.1h9.5v3.2H20ZM53.1-51.8a6.8,6.8,0,0,0-3.1.7V-91.2h6.3v40.1A7.6,7.6,0,0,0,53.1-51.8Z"/><g class="cls-19"><rect class="cls-2" x="-2743.7" y="-2537.2" width="5224.4" height="4468.85"/></g><path class="cls-3" d="M93.8-40.8A4.4,4.4,0,0,1,90.7-42a7.3,7.3,0,0,0-5.1-1.9,7,7,0,0,0-5,1.9,4.4,4.4,0,0,1-3.1,1.2A4.4,4.4,0,0,1,74.4-42a7.2,7.2,0,0,0-5-1.9A7.3,7.3,0,0,0,64.3-42a4.4,4.4,0,0,1-3.1,1.2A4.4,4.4,0,0,1,58.1-42a7,7,0,0,0-5-1.9,6.9,6.9,0,0,0-5,1.9A4.8,4.8,0,0,1,45-40.8,4.8,4.8,0,0,1,41.8-42a7,7,0,0,0-5-1.9,7,7,0,0,0-5,1.9,4.6,4.6,0,0,1-3.1,1.2A4.4,4.4,0,0,1,25.6-42a7.2,7.2,0,0,0-5-1.9A7.3,7.3,0,0,0,15.5-42a4.4,4.4,0,0,1-3.1,1.2A4.6,4.6,0,0,1,9.3-42a7,7,0,0,0-5-1.9v3.1a4.1,4.1,0,0,1,3.1,1.3,7.7,7.7,0,0,0,5,1.9,7.8,7.8,0,0,0,5.1-1.9,4.1,4.1,0,0,1,3.1-1.3,4.4,4.4,0,0,1,3.1,1.3,7.3,7.3,0,0,0,5,1.9,7.5,7.5,0,0,0,5-1.9,4.1,4.1,0,0,1,3.1-1.3,4.1,4.1,0,0,1,3.1,1.3A7.8,7.8,0,0,0,45-37.6a7.7,7.7,0,0,0,5-1.9,4.1,4.1,0,0,1,3.1-1.3,4.1,4.1,0,0,1,3.1,1.3,7.5,7.5,0,0,0,5,1.9,7.8,7.8,0,0,0,5.1-1.9,4.1,4.1,0,0,1,3.1-1.3,4.4,4.4,0,0,1,3.1,1.3,7.5,7.5,0,0,0,5,1.9,7.5,7.5,0,0,0,5-1.9,4.2,4.2,0,0,1,3.1-1.3,4.1,4.1,0,0,1,3.1,1.3,7.8,7.8,0,0,0,5.1,1.9,7.7,7.7,0,0,0,5-1.9,4.1,4.1,0,0,1,3.1-1.3v-3.1a7,7,0,0,0-5,1.9,4.6,4.6,0,0,1-3.1,1.2"/><g class="cls-20"><rect class="cls-2" x="-2743.7" y="-2537.2" width="5224.4" height="4468.85"/></g><path class="cls-3" d="M62.6-59.7a4.8,4.8,0,0,0,4.7,4.8A4.8,4.8,0,0,0,72-59.7v-3.1H68.9v3.1a1.6,1.6,0,0,1-1.6,1.6,1.6,1.6,0,0,1-1.6-1.6v-22H62.6Z"/><g class="cls-21"><rect class="cls-2" x="-2743.7" y="-2537.2" width="5224.4" height="4468.85"/></g><path class="cls-3" d="M84.6-70.7v-7.9H81.4v7.9a1.6,1.6,0,0,1-1.5,1.6,1.6,1.6,0,0,1-1.6-1.6V-83.3A4.7,4.7,0,0,0,73.6-88a4.7,4.7,0,0,0-4.7,4.7v4.7H72v-4.7a1.6,1.6,0,0,1,1.6-1.6,1.6,1.6,0,0,1,1.5,1.6v12.6A4.8,4.8,0,0,0,79.9-66a4.7,4.7,0,0,0,4.7-4.7"/><g class="cls-22"><rect class="cls-2" x="-2743.7" y="-2537.2" width="5224.4" height="4468.85"/></g><path class="cls-3" d="M40.5-59.7a1.6,1.6,0,0,1-1.6,1.6,1.6,1.6,0,0,1-1.5-1.6v-3.1H34.2v3.1a4.8,4.8,0,0,0,4.7,4.8,4.9,4.9,0,0,0,4.8-4.8v-22H40.5Z"/><g class="cls-23"><rect class="cls-2" x="-2743.7" y="-2537.2" width="5224.4" height="4468.85"/></g><path class="cls-3" d="M21.6-70.7A4.7,4.7,0,0,0,26.3-66a4.8,4.8,0,0,0,4.8-4.7V-83.3a1.6,1.6,0,0,1,1.5-1.6,1.6,1.6,0,0,1,1.6,1.6v4.7h3.2v-4.7A4.8,4.8,0,0,0,32.6-88a4.7,4.7,0,0,0-4.7,4.7v12.6a1.6,1.6,0,0,1-1.6,1.6,1.6,1.6,0,0,1-1.5-1.6v-7.9H21.6Z"/><g class="cls-24"><rect class="cls-2" x="-2743.7" y="-2537.2" width="5224.4" height="4468.85"/></g><path class="cls-3" d="M12.2-59.7a17.7,17.7,0,0,1,5.6.9l5,1.7-2.7-6.6a8.4,8.4,0,0,0-7.9-5.4,4.8,4.8,0,0,0-4.8,4.7,4.8,4.8,0,0,0,4.8,4.7m0-6.3a5.4,5.4,0,0,1,5,3.4v.4a21.6,21.6,0,0,0-5.1-.6,1.6,1.6,0,0,1-1.6-1.6A1.6,1.6,0,0,1,12.2-66"/><g class="cls-25"><rect class="cls-2" x="-2743.7" y="-2537.2" width="5224.4" height="4468.85"/></g><path class="cls-3" d="M86.1-63.7l-2.7,6.6,5-1.7a17.7,17.7,0,0,1,5.6-.9,4.8,4.8,0,0,0,4.8-4.7A4.8,4.8,0,0,0,94-69.1,8.4,8.4,0,0,0,86.1-63.7ZM89-62.6A5.4,5.4,0,0,1,94-66a1.6,1.6,0,0,1,1.6,1.6A1.6,1.6,0,0,1,94-62.8a22.2,22.2,0,0,0-5.1.6Z"/><g class="cls-26"><rect class="cls-2" x="-2743.7" y="-2537.2" width="5224.4" height="4468.85"/></g><path class="cls-2" d="M8,84.8C5,87.4.7,87,0,84a13.4,13.4,0,0,0,2.7.7c1.6,0,3.1-.4,4.7-.5a1.3,1.3,0,0,1,1.2,0,15.3,15.3,0,0,0,13.2,0,1.5,1.5,0,0,1,1.3,0,19.6,19.6,0,0,0,17.5.2,2.2,2.2,0,0,1,2.2,0,14.9,14.9,0,0,0,12.7,0,1.1,1.1,0,0,1,1.1,0,9.9,9.9,0,0,0,7.9,0,3.3,3.3,0,0,1-2.1,2.2,5.1,5.1,0,0,1-6.2-1.7A7.4,7.4,0,0,1,49.3,89a7.9,7.9,0,0,1-7.4-3.4,10.7,10.7,0,0,1-9.8,5,10.3,10.3,0,0,1-9.8-5.5A8.8,8.8,0,0,1,10.1,87,11,11,0,0,1,8,84.8Z"/><path class="cls-2" d="M57.8,42.7a7.1,7.1,0,0,1-2.1-5.5c.2-3.4.1-6.8.1-10.2s-1.1-4.3-4.1-5.2c-.5-.1-1-.9-1.1-1.5s0-2.9,0-4.4-1.5-4.4-4.5-4.4H18.6c-3.1,0-4.6,1.5-4.6,4.7v5.4c-4.3.9-5,1.7-5,5.8,0,2.4-.2,4.8,0,7.2a10.7,10.7,0,0,1-3.1,9.2c-1.9,2-3.4,4.4-1.7,7.7,4,8.3,7.8,16.7,11.6,25.2,1.4,3.1,3.5,4.3,6.8,4.2,6.8-.2,13.5-.1,20.2,0A5.9,5.9,0,0,0,48.7,77L58,56.7c.9-1.9,1.9-3.7,2.6-5.6C62,47.6,59.9,45,57.8,42.7ZM22,14.7H45.3c1.7-.1,2.4.4,2.3,2.2-.1,4.9,0,4.9-5,4.9H19.2c-1.6.1-2.2-.5-2.2-2.1C17.1,14.7,17,14.7,22,14.7Zm8.7,63c-3.3,0-6.5.2-9.7,0a3.4,3.4,0,0,1-2.1-1.8c-4-8.4-7.8-16.9-11.6-25.4a3.7,3.7,0,0,1,0-3.1c5.5-8.6,13.5-13.5,23.4-15.7ZM22.7,31c-3.6,1.6-7,3.7-10.8,5.7V29.9c0-5.6-.3-5.1,5.1-5.1H49.6c2.9,0,2.9,0,2.9,3s0,5.9,0,9.1c-2.7-1.7-5-3.5-7.6-4.5a64.7,64.7,0,0,0-11-3.7C30,27.9,26.2,29.4,22.7,31ZM57.4,50.5c-3.9,8.4-7.7,16.8-11.5,25.2a3.2,3.2,0,0,1-3.4,2.1H35.3c-1,0-1.5-.3-1.5-1.3V32.6c0-.2.2-.5.2-.8A36.3,36.3,0,0,1,57.2,47,3,3,0,0,1,57.4,50.5Z"/><path class="cls-2" d="M27.2,41.9a3.6,3.6,0,0,1-3.6,3.6,3.6,3.6,0,0,1,0-7.2A3.6,3.6,0,0,1,27.2,41.9Z"/><path class="cls-2" d="M44.3,41.9a3.4,3.4,0,0,1-3.6,3.6A3.7,3.7,0,0,1,37,41.9a3.9,3.9,0,0,1,3.6-3.6A3.6,3.6,0,0,1,44.3,41.9Z"/><rect class="cls-2" x="30.7" width="3.2" height="14.23" rx="0.4"/><rect class="cls-2" x="31.3" y="-2.3" width="2" height="10.84" rx="0.4" transform="translate(35.3 -29.2) rotate(90)"/><rect class="cls-2" x="31.3" y="1.3" width="2" height="10.84" rx="0.4" transform="translate(39 -25.5) rotate(90)"/></svg>