<svg id="Layer_1" data-name="Layer 1" xmlns="http://www.w3.org/2000/svg" xmlns:xlink="http://www.w3.org/1999/xlink" viewBox="0 0 89.5 92.7"><defs><style>.cls-1,.cls-2,.cls-3{fill:#221c45;}.cls-1{clip-rule:evenodd;}.cls-3{fill-rule:evenodd;}.cls-4{clip-path:url(#clip-path);}.cls-5{clip-path:url(#clip-path-2);}.cls-6{clip-path:url(#clip-path-3);}.cls-7{clip-path:url(#clip-path-4);}.cls-8{clip-path:url(#clip-path-5);}.cls-9{clip-path:url(#clip-path-6);}.cls-10{clip-path:url(#clip-path-7);}.cls-11{clip-path:url(#clip-path-8);}.cls-12{clip-path:url(#clip-path-9);}.cls-13{clip-path:url(#clip-path-10);}.cls-14{clip-path:url(#clip-path-11);}.cls-15{clip-path:url(#clip-path-12);}.cls-16{clip-path:url(#clip-path-13);}.cls-17{clip-path:url(#clip-path-14);}.cls-18{clip-path:url(#clip-path-15);}.cls-19{clip-path:url(#clip-path-16);}.cls-20{clip-path:url(#clip-path-17);}.cls-21{clip-path:url(#clip-path-18);}.cls-22{clip-path:url(#clip-path-19);}.cls-23{clip-path:url(#clip-path-20);}.cls-24{clip-path:url(#clip-path-21);}.cls-25{clip-path:url(#clip-path-22);}.cls-26{clip-path:url(#clip-path-23);}</style><clipPath id="clip-path"><path class="cls-1" d="M503.4-40.6h15.9v-9.9H503.4Zm17.9,4H501.4a2,2,0,0,1-2-2V-52.5a2,2,0,0,1,2-2h19.9a2,2,0,0,1,2,2v13.9A2,2,0,0,1,521.3-36.6Z"/></clipPath><clipPath id="clip-path-2"><path class="cls-1" d="M493.4-40.6h35.8v-87.5H493.4Zm37.8,4H491.5a2,2,0,0,1-2-2v-91.5a2,2,0,0,1,2-2h39.7a2,2,0,0,1,2,2v91.5A2,2,0,0,1,531.2-36.6Z"/></clipPath><clipPath id="clip-path-3"><path class="cls-1" d="M477.5-40.6h12v-79.5h-12Zm14,4h-16a1.9,1.9,0,0,1-1.9-2v-83.5a1.9,1.9,0,0,1,1.9-2h16a1.9,1.9,0,0,1,1.9,2v83.5A1.9,1.9,0,0,1,491.5-36.6Z"/></clipPath><clipPath id="clip-path-4"><path class="cls-1" d="M533.2-40.6h12v-79.5h-12Zm13.9,4H531.2a2,2,0,0,1-2-2v-83.5a2,2,0,0,1,2-2h15.9a1.9,1.9,0,0,1,2,2v83.5A1.9,1.9,0,0,1,547.1-36.6Z"/></clipPath><clipPath id="clip-path-5"><rect class="cls-2" x="459.6" y="-80.4" width="4" height="19.89" transform="translate(240.8 341.1) rotate(-53.1)"/></clipPath><clipPath id="clip-path-6"><rect class="cls-2" x="451.7" y="-72.4" width="19.9" height="3.98" transform="translate(134.6 262.9) rotate(-36.9)"/></clipPath><clipPath id="clip-path-7"><rect class="cls-2" x="559.1" y="-80.4" width="4" height="19.89" transform="translate(280.7 420.6) rotate(-53.1)"/></clipPath><clipPath id="clip-path-8"><rect class="cls-2" x="551.1" y="-72.4" width="19.9" height="3.97" transform="translate(154.3 322.4) rotate(-36.8)"/></clipPath><clipPath id="clip-path-9"><path class="cls-1" d="M319.3-90.1a9.5,9.5,0,0,0-6.7-9,38.4,38.4,0,0,0-4.6-11.3,9.6,9.6,0,0,0-1.7-11.1,9.8,9.8,0,0,0-6.7-2.7,8.2,8.2,0,0,0-4.4,1.1,36.6,36.6,0,0,0-11.2-4.7,9.5,9.5,0,0,0-9.1-6.7,9.5,9.5,0,0,0-9,6.7,35.6,35.6,0,0,0-11.2,4.7,9.1,9.1,0,0,0-7.2-.7,1.4,1.4,0,0,0,.8,2.7,6.4,6.4,0,0,1,6.6,1.6,6.6,6.6,0,0,1,0,9.4,6.5,6.5,0,0,1-9.3,0,6.6,6.6,0,0,1-1.5-7.2c.7-1.6-1.9-2.8-2.6-1.1a9.3,9.3,0,0,0,.4,8,41.6,41.6,0,0,0-4.7,11.3,9.5,9.5,0,0,0-6.6,9,9.5,9.5,0,0,0,6.6,9.1,40.9,40.9,0,0,0,4.7,11.2,9.4,9.4,0,0,0,1.7,11.1A9.6,9.6,0,0,0,254.7-57a35.5,35.5,0,0,0,4.3,2.3l-4.3,11.6a3.3,3.3,0,0,0,3.1,4.4h34.3a3.4,3.4,0,0,0,3.1-4.4l-4.3-11.6a35.5,35.5,0,0,0,4.3-2.3,9.9,9.9,0,0,0,4.4,1.1,9.7,9.7,0,0,0,2.9-.4,1.4,1.4,0,0,0-.9-2.7,6.7,6.7,0,0,1-6.7-1.6,6.6,6.6,0,0,1,0-9.4,6.6,6.6,0,0,1,9.4,0,6.4,6.4,0,0,1,1.5,7.1,1.4,1.4,0,0,0,2.6,1.1,10.1,10.1,0,0,0-.4-8A37.8,37.8,0,0,0,312.6-81,9.5,9.5,0,0,0,319.3-90.1Zm-2.8,0a6.7,6.7,0,0,1-6.7,6.7,6.7,6.7,0,0,1-6.6-6.7,6.7,6.7,0,0,1,6.6-6.6A6.7,6.7,0,0,1,316.5-90.1Zm-16-1.4H288.6a13.2,13.2,0,0,0-3-7.3l8.4-8.4a9.5,9.5,0,0,0,7.5,1.7,33.7,33.7,0,0,1,3.1,7.6A9.1,9.1,0,0,0,300.5-91.5ZM288.7-56.8l-4.3,1.5a10.1,10.1,0,0,0-.4-2.5,33,33,0,0,0,7.3-3,9.5,9.5,0,0,0,1.5,2A22.2,22.2,0,0,1,288.7-56.8Zm-31.6-2a9.5,9.5,0,0,0,1.5-2,31.2,31.2,0,0,0,7.3,3,6.9,6.9,0,0,0-.4,2.5A34.7,34.7,0,0,1,257.1-58.8ZM243.7-72.2a36.4,36.4,0,0,1-3.5-8.4,10.1,10.1,0,0,0,2.5-.4,31.2,31.2,0,0,0,3,7.3A9.5,9.5,0,0,0,243.7-72.2Zm4.7-2.4a29.6,29.6,0,0,1-3.1-7.6,9.6,9.6,0,0,0,4.1-6.5h11.8a14.1,14.1,0,0,0,3,7.3L255.8-73A9.7,9.7,0,0,0,248.4-74.6Zm25.1,10.1a9.4,9.4,0,0,0-6.4,4.1,29.6,29.6,0,0,1-7.6-3.1,9.2,9.2,0,0,0-1.7-7.5l8.4-8.4a13.2,13.2,0,0,0,7.3,3Zm1.4,2.7a6.7,6.7,0,0,1,6.7,6.7,6.6,6.6,0,0,1-6.7,6.6,6.6,6.6,0,0,1-6.6-6.6A6.7,6.7,0,0,1,274.9-61.8Zm15.4-1.7a29,29,0,0,1-7.5,3.1,9.9,9.9,0,0,0-6.5-4.1V-76.4a12.6,12.6,0,0,0,7.3-3L292-71A9.6,9.6,0,0,0,290.3-63.5ZM274.9-79.1a10.9,10.9,0,0,1-10.9-11A10.9,10.9,0,0,1,274.9-101a10.9,10.9,0,0,1,11,10.9A11,11,0,0,1,274.9-79.1Zm-9-43.2a31.2,31.2,0,0,0-7.3,3,9.5,9.5,0,0,0-1.5-2,36.4,36.4,0,0,1,8.4-3.5A7.3,7.3,0,0,0,265.9-122.3Zm-6.4,5.7a29.9,29.9,0,0,1,7.6-3.2,9.1,9.1,0,0,0,6.4,4.1v11.9a14.1,14.1,0,0,0-7.3,3.1l-8.4-8.4A9.3,9.3,0,0,0,259.5-116.6Zm31.8-2.7a33,33,0,0,0-7.3-3,10.9,10.9,0,0,0,.4-2.5,38.3,38.3,0,0,1,8.4,3.5A9.5,9.5,0,0,0,291.3-119.3Zm-8.5-.5a29.2,29.2,0,0,1,7.5,3.2,9.4,9.4,0,0,0,1.7,7.4l-8.4,8.5a13.4,13.4,0,0,0-7.3-3.1v-11.9A9.5,9.5,0,0,0,282.8-119.8Zm23.3,11.9a31.1,31.1,0,0,1,3.5,8.4,6.7,6.7,0,0,0-2.4.4,34.1,34.1,0,0,0-3.1-7.4A10.1,10.1,0,0,0,306.1-107.9Zm-1.8-11.6a6.6,6.6,0,0,1,0,9.4,6.6,6.6,0,0,1-9.4,0,6.8,6.8,0,0,1,0-9.4A6.8,6.8,0,0,1,304.3-119.5Zm-29.4-12.2a6.7,6.7,0,0,1,6.7,6.7,6.6,6.6,0,0,1-6.7,6.6,6.6,6.6,0,0,1-6.6-6.6,4.9,4.9,0,0,1,.1-1.2v-.3A6.6,6.6,0,0,1,274.9-131.7Zm-19,24.5,8.4,8.4a14.1,14.1,0,0,0-3.1,7.3H249.4a9.4,9.4,0,0,0-4.1-6.4,29.6,29.6,0,0,1,3.1-7.6A9.6,9.6,0,0,0,255.9-107.2Zm-10.2.7a33.8,33.8,0,0,0-3,7.4,6.9,6.9,0,0,0-2.5-.4,34.7,34.7,0,0,1,3.5-8.4ZM233.4-90.1a6.7,6.7,0,0,1,6.6-6.6,6.7,6.7,0,0,1,6.7,6.6,6.7,6.7,0,0,1-6.7,6.7A6.7,6.7,0,0,1,233.4-90.1Zm16.9,31.4a6.7,6.7,0,0,1-4.7-1.9,6.6,6.6,0,0,1,0-9.4,6.5,6.5,0,0,1,9.3,0,6.6,6.6,0,0,1,0,9.4A6.6,6.6,0,0,1,250.3-58.7Zm42.2,16.6c.1.4,0,.6-.4.6H257.8c-.4,0-.5-.2-.5-.6l4.3-11.5,4.3,1.3a9.6,9.6,0,0,0,9,6.7,9.6,9.6,0,0,0,9.1-6.7l4.3-1.3ZM294-73l-8.4-8.4a12.6,12.6,0,0,0,3-7.3h11.9a9.3,9.3,0,0,0,4.1,6.5,29.9,29.9,0,0,1-3.2,7.6l-1.8-.2A9.4,9.4,0,0,0,294-73Zm10.1-.7a31.4,31.4,0,0,0,3.1-7.3,10,10,0,0,0,2.4.4,32.5,32.5,0,0,1-3.5,8.4A9.5,9.5,0,0,0,304.1-73.7Z"/></clipPath><clipPath id="clip-path-10"><path class="cls-2" d="M-1.6-36.1H-76.2a2.6,2.6,0,0,1-2.5-2.6v-5.5a2.6,2.6,0,0,1,2.5-2.6h28.6a6.5,6.5,0,0,1-.7-2.1,6.7,6.7,0,0,1,1.4-5.3l1-1.1a7.3,7.3,0,0,0,1.4-5.6l-.4-2.4H-56.1A6,6,0,0,1-62-69.4c0-.4-.1-.7-.4-.8l-2.4-1.7a2.7,2.7,0,0,1-1-2.9,2.7,2.7,0,0,1,2.5-1.8H-44v-3h-6.5a5.9,5.9,0,0,1-5.8-6.1,1,1,0,0,0-.4-.8l-2.4-1.7a2.7,2.7,0,0,1-1-2.9,2.5,2.5,0,0,1,2.4-1.8H-44v-1.5a10.2,10.2,0,0,0-5.7-9.3l-.7-.3v-2.5h23v2.5l-.7.3a10.3,10.3,0,0,0-5.7,9.3v1.5h13.7a2.5,2.5,0,0,1,2.4,1.8,2.7,2.7,0,0,1-1,2.9L-21-86.5a.8.8,0,0,0-.4.8,6,6,0,0,1-5.9,6.1h-6.5v3h19.3A2.5,2.5,0,0,1-12-74.8a2.7,2.7,0,0,1-1,2.9l-2.4,1.7a.9.9,0,0,0-.4.8,6,6,0,0,1-5.9,6.1H-32.9l-.4,2.4a6.9,6.9,0,0,0,1.5,5.6l.9,1.1a6.7,6.7,0,0,1,1.4,5.3,4.8,4.8,0,0,1-.7,2.1H-1.6A2.6,2.6,0,0,1,.9-44.2v5.5A2.6,2.6,0,0,1-1.6-36.1Zm-74.6-8.2h0v5.5H-1.6v-5.5H-36.7l3.1-2.2A3.8,3.8,0,0,0-32-49.2a4.1,4.1,0,0,0-.9-3.4l-.9-1.1a9.6,9.6,0,0,1-2-7.5l.8-4.6h13.3a3.5,3.5,0,0,0,3.4-3.6,3.6,3.6,0,0,1,1.5-2.9l2.3-1.6v-.2H-36.3v-8h9a3.5,3.5,0,0,0,3.4-3.6,3.6,3.6,0,0,1,1.4-2.9l2.4-1.6v-.2H-36.3v-4a12.8,12.8,0,0,1,4.2-9.6H-45.7a12.8,12.8,0,0,1,4.2,9.6v4H-57.7v.2l2.4,1.6a3.6,3.6,0,0,1,1.5,2.9,3.5,3.5,0,0,0,3.3,3.6h9v8H-63.3c-.1.1,0,.1,0,.2l2.4,1.6a3.6,3.6,0,0,1,1.4,2.9,3.5,3.5,0,0,0,3.4,3.6h13.4l.7,4.6a9.6,9.6,0,0,1-2,7.5l-.9,1.1a4.1,4.1,0,0,0-.9,3.4,4.2,4.2,0,0,0,1.6,2.7l3.1,2.2Z"/></clipPath><clipPath id="clip-path-11"><path class="cls-1" d="M-71.3-77.4a2.9,2.9,0,0,1,2.8-2.8,5.7,5.7,0,0,0,5.7-5.6v-7A2.8,2.8,0,0,1-60-95.7h8.4v-2.8H-60a5.7,5.7,0,0,0-5.6,5.7v7A2.9,2.9,0,0,1-68.5-83a5.6,5.6,0,0,0-5.6,5.6v19.8h2.8Z"/></clipPath><clipPath id="clip-path-12"><path class="cls-2" d="M-38.9-108.9a1.9,1.9,0,0,1-1.8-1.1l-3.2-5.3a2.1,2.1,0,0,1,.3-2.7l3.2-3.2a2.2,2.2,0,0,1,3,0l3.2,3.2a2.3,2.3,0,0,1,.4,2.7L-37-110A2.4,2.4,0,0,1-38.9-108.9Zm0-2.2Zm0-8.5-3.2,3.2,3.2,5.2,3.2-5.3Z"/></clipPath><clipPath id="clip-path-13"><path class="cls-1" d="M-26.2-98.5v2.8h8.4A2.8,2.8,0,0,1-15-92.8v7a5.7,5.7,0,0,0,5.7,5.6,2.9,2.9,0,0,1,2.8,2.8v19.8h2.8V-77.4A5.6,5.6,0,0,0-9.3-83a2.7,2.7,0,0,1-2.8-2.8v-7a5.7,5.7,0,0,0-5.7-5.7Z"/></clipPath><clipPath id="clip-path-14"><path class="cls-1" d="M-20.6-108.3h2.8a8.5,8.5,0,0,0-8.4-8.5H-29v2.8h2.8a5.7,5.7,0,0,1,5.6,5.7"/></clipPath><clipPath id="clip-path-15"><path class="cls-1" d="M-51.6-114h2.9v-2.8h-2.9a8.5,8.5,0,0,0-8.4,8.5h2.8a5.7,5.7,0,0,1,5.6-5.7"/></clipPath><clipPath id="clip-path-16"><path class="cls-1" d="M428.3-49.4a4.6,4.6,0,0,1-3.1,1.2,4.4,4.4,0,0,1-3.1-1.2,7.3,7.3,0,0,0-5.1-1.9,7,7,0,0,0-5,1.9,4.4,4.4,0,0,1-3.1,1.2,4.4,4.4,0,0,1-3.1-1.2,7.2,7.2,0,0,0-5-1.9,7.3,7.3,0,0,0-5.1,1.9,4.4,4.4,0,0,1-3.1,1.2,3.2,3.2,0,0,1-1.8-.4V-90.7h22v3.1H416v-3.1h1.6a3.1,3.1,0,0,0,3.1-3.2V-97a3.2,3.2,0,0,0-3.1-3.2h-.1a29.9,29.9,0,0,0-28.3-28.2v-1.7a4.7,4.7,0,0,0-4.7-4.7,4.7,4.7,0,0,0-4.7,4.7v1.7a29.9,29.9,0,0,0-28.3,28.2h-.1a3.2,3.2,0,0,0-3.1,3.2v3.1a3.1,3.1,0,0,0,3.1,3.2H353v3.1h3.2v-3.1h22v42.1a4.5,4.5,0,0,1-1.9.4,4.6,4.6,0,0,1-3.1-1.2,7,7,0,0,0-5-1.9,7,7,0,0,0-5,1.9,4.6,4.6,0,0,1-3.1,1.2,4.4,4.4,0,0,1-3.1-1.2,7.2,7.2,0,0,0-5-1.9,7.3,7.3,0,0,0-5.1,1.9,4.4,4.4,0,0,1-3.1,1.2,4.6,4.6,0,0,1-3.1-1.2,7,7,0,0,0-5-1.9v3.1a4.1,4.1,0,0,1,3.1,1.3,7.7,7.7,0,0,0,5,1.9,7.3,7.3,0,0,0,5-1.9,4.4,4.4,0,0,1,3.2-1.3,4.4,4.4,0,0,1,3.1,1.3,7.3,7.3,0,0,0,5,1.9,7.5,7.5,0,0,0,5-1.9,4.1,4.1,0,0,1,3.1-1.3,4.1,4.1,0,0,1,3.1,1.3,7.7,7.7,0,0,0,5,1.9,7.8,7.8,0,0,0,5.1-1.9,4.1,4.1,0,0,1,3.1-1.3,4.1,4.1,0,0,1,3.1,1.3,7.5,7.5,0,0,0,5,1.9,7.3,7.3,0,0,0,5-1.9,4.4,4.4,0,0,1,3.2-1.3,4.4,4.4,0,0,1,3.1,1.3,7.5,7.5,0,0,0,5,1.9,7.5,7.5,0,0,0,5-1.9,4.2,4.2,0,0,1,3.1-1.3,4.1,4.1,0,0,1,3.1,1.3,7.8,7.8,0,0,0,5.1,1.9,7.7,7.7,0,0,0,5-1.9,4.1,4.1,0,0,1,3.1-1.3v-3.1A7,7,0,0,0,428.3-49.4Zm-43.8-82.2a1.6,1.6,0,0,1,1.6,1.5v1.6h-3.2v-1.6A1.6,1.6,0,0,1,384.5-131.6Zm-4.3,6.3a38.4,38.4,0,0,0-8.4,11.9l2.9,1.3a34.3,34.3,0,0,1,9.8-12.8,33.7,33.7,0,0,1,12.6,24.7H372a30.3,30.3,0,0,1,1.6-8.9l-3-1a37.5,37.5,0,0,0-1.8,9.9H354.7A26.7,26.7,0,0,1,380.2-125.3ZM351.4-97H405v-3.2h-4.8a36.3,36.3,0,0,0-11.4-25.1,26.7,26.7,0,0,1,25.5,25.1h-6.2V-97h9.5v3.1H351.4Zm33.1,45.7a6.8,6.8,0,0,0-3.1.6v-40h6.3v40A7.6,7.6,0,0,0,384.5-51.3Z"/></clipPath><clipPath id="clip-path-17"><path class="cls-1" d="M425.2-40.3a4.1,4.1,0,0,1-3.1-1.3,7.8,7.8,0,0,0-5.1-1.9,7.5,7.5,0,0,0-5,1.9,4.1,4.1,0,0,1-3.1,1.3,4.1,4.1,0,0,1-3.1-1.3,7.7,7.7,0,0,0-5-1.9,7.8,7.8,0,0,0-5.1,1.9,4.1,4.1,0,0,1-3.1,1.3,4.1,4.1,0,0,1-3.1-1.3,7.5,7.5,0,0,0-5-1.9,7.8,7.8,0,0,0-5.1,1.9,4.1,4.1,0,0,1-3.1,1.3,4.2,4.2,0,0,1-3.1-1.3,7.5,7.5,0,0,0-5-1.9,7.5,7.5,0,0,0-5,1.9,4.2,4.2,0,0,1-3.1,1.3,4.1,4.1,0,0,1-3.1-1.3,7.7,7.7,0,0,0-5-1.9,7.8,7.8,0,0,0-5.1,1.9,4.1,4.1,0,0,1-3.1,1.3,4.2,4.2,0,0,1-3.1-1.3,7.5,7.5,0,0,0-5-1.9v3.2a4.4,4.4,0,0,1,3.1,1.2,7.2,7.2,0,0,0,5,1.9,6.9,6.9,0,0,0,5-1.9,4.8,4.8,0,0,1,3.2-1.2,4.8,4.8,0,0,1,3.1,1.2,6.9,6.9,0,0,0,5,1.9,7.2,7.2,0,0,0,5-1.9,4.4,4.4,0,0,1,3.1-1.2,4.4,4.4,0,0,1,3.1,1.2,7.2,7.2,0,0,0,5,1.9,7.3,7.3,0,0,0,5.1-1.9,4.4,4.4,0,0,1,3.1-1.2,4.6,4.6,0,0,1,3.1,1.2,7,7,0,0,0,5,1.9,6.9,6.9,0,0,0,5-1.9,4.8,4.8,0,0,1,3.2-1.2,4.8,4.8,0,0,1,3.1,1.2,7,7,0,0,0,5,1.9,7,7,0,0,0,5-1.9,4.4,4.4,0,0,1,3.1-1.2,4.4,4.4,0,0,1,3.1,1.2,7.3,7.3,0,0,0,5.1,1.9,7.2,7.2,0,0,0,5-1.9,4.4,4.4,0,0,1,3.1-1.2v-3.2a7.5,7.5,0,0,0-5,1.9,4.2,4.2,0,0,1-3.1,1.3"/></clipPath><clipPath id="clip-path-18"><path class="cls-1" d="M394-59.2a4.7,4.7,0,0,0,4.7,4.7,4.7,4.7,0,0,0,4.7-4.7v-3.2h-3.2v3.2a1.6,1.6,0,0,1-1.5,1.6,1.6,1.6,0,0,1-1.6-1.6V-81.3H394Z"/></clipPath><clipPath id="clip-path-19"><path class="cls-1" d="M416-70.2v-7.9h-3.2v7.9a1.5,1.5,0,0,1-1.5,1.5,1.6,1.6,0,0,1-1.6-1.5V-82.8a4.8,4.8,0,0,0-4.7-4.8,4.9,4.9,0,0,0-4.8,4.8v4.7h3.2v-4.7a1.6,1.6,0,0,1,1.6-1.6,1.6,1.6,0,0,1,1.5,1.6v12.6a4.8,4.8,0,0,0,4.8,4.7,4.7,4.7,0,0,0,4.7-4.7"/></clipPath><clipPath id="clip-path-20"><path class="cls-1" d="M371.9-59.2a1.6,1.6,0,0,1-1.6,1.6,1.6,1.6,0,0,1-1.5-1.6v-3.2h-3.2v3.2a4.7,4.7,0,0,0,4.7,4.7,4.8,4.8,0,0,0,4.8-4.7V-81.3h-3.2Z"/></clipPath><clipPath id="clip-path-21"><path class="cls-1" d="M353-70.2a4.7,4.7,0,0,0,4.7,4.7,4.8,4.8,0,0,0,4.8-4.7V-82.8a1.6,1.6,0,0,1,1.5-1.6,1.6,1.6,0,0,1,1.6,1.6v4.7h3.2v-4.7a4.9,4.9,0,0,0-4.8-4.8,4.8,4.8,0,0,0-4.7,4.8v12.6a1.6,1.6,0,0,1-1.6,1.5,1.5,1.5,0,0,1-1.5-1.5v-7.9H353Z"/></clipPath><clipPath id="clip-path-22"><path class="cls-1" d="M343.6-59.2a17.7,17.7,0,0,1,5.6.9l5,1.7-2.7-6.7a8.4,8.4,0,0,0-7.9-5.4,4.9,4.9,0,0,0-4.8,4.8,4.8,4.8,0,0,0,4.8,4.7m0-6.3a5.3,5.3,0,0,1,5,3.4v.4a21.6,21.6,0,0,0-5.1-.7,1.6,1.6,0,0,1-1.6-1.5,1.6,1.6,0,0,1,1.6-1.6"/></clipPath><clipPath id="clip-path-23"><path class="cls-1" d="M417.5-63.3l-2.7,6.7,5-1.7a17.7,17.7,0,0,1,5.6-.9,4.8,4.8,0,0,0,4.8-4.7,4.9,4.9,0,0,0-4.8-4.8A8.4,8.4,0,0,0,417.5-63.3Zm2.9,1.2a5.3,5.3,0,0,1,5-3.4,1.6,1.6,0,0,1,1.6,1.6,1.6,1.6,0,0,1-1.6,1.5,22.4,22.4,0,0,0-5.1.7Z"/></clipPath></defs><path class="cls-3" d="M503.4-40.6h15.9v-9.9H503.4Zm17.9,4H501.4a2,2,0,0,1-2-2V-52.5a2,2,0,0,1,2-2h19.9a2,2,0,0,1,2,2v13.9A2,2,0,0,1,521.3-36.6Z"/><g class="cls-4"><rect class="cls-2" x="-765.1" y="-3833.2" width="5804" height="4970.61"/></g><path class="cls-3" d="M493.4-40.6h35.8v-87.5H493.4Zm37.8,4H491.5a2,2,0,0,1-2-2v-91.5a2,2,0,0,1,2-2h39.7a2,2,0,0,1,2,2v91.5A2,2,0,0,1,531.2-36.6Z"/><g class="cls-5"><rect class="cls-2" x="-765.1" y="-3833.2" width="5804" height="4964.66"/></g><path class="cls-3" d="M477.5-40.6h12v-79.5h-12Zm14,4h-16a1.9,1.9,0,0,1-1.9-2v-83.5a1.9,1.9,0,0,1,1.9-2h16a1.9,1.9,0,0,1,1.9,2v83.5A1.9,1.9,0,0,1,491.5-36.6Z"/><g class="cls-6"><rect class="cls-2" x="-765.1" y="-3833.2" width="5804" height="4964.66"/></g><path class="cls-3" d="M533.2-40.6h12v-79.5h-12Zm13.9,4H531.2a2,2,0,0,1-2-2v-83.5a2,2,0,0,1,2-2h15.9a1.9,1.9,0,0,1,2,2v83.5A1.9,1.9,0,0,1,547.1-36.6Z"/><g class="cls-7"><rect class="cls-2" x="-765.1" y="-3833.2" width="5804" height="4964.66"/></g><rect class="cls-2" x="459.6" y="-80.4" width="4" height="19.89" transform="translate(240.8 341.1) rotate(-53.1)"/><g class="cls-8"><rect class="cls-2" x="-765.1" y="-3833.2" width="5804" height="4964.66"/></g><rect class="cls-2" x="451.7" y="-72.4" width="19.9" height="3.98" transform="translate(134.6 262.9) rotate(-36.9)"/><g class="cls-9"><rect class="cls-2" x="-765.1" y="-3833.2" width="5804" height="4964.66"/></g><rect class="cls-2" x="559.1" y="-80.4" width="4" height="19.89" transform="translate(280.7 420.6) rotate(-53.1)"/><g class="cls-10"><rect class="cls-2" x="-765.1" y="-3833.2" width="5804" height="4964.66"/></g><rect class="cls-2" x="551.1" y="-72.4" width="19.9" height="3.97" transform="translate(154.3 322.4) rotate(-36.8)"/><g class="cls-11"><rect class="cls-2" x="-765.1" y="-3833.2" width="5804" height="4964.66"/></g><path class="cls-3" d="M319.3-90.1a9.5,9.5,0,0,0-6.7-9,38.4,38.4,0,0,0-4.6-11.3,9.6,9.6,0,0,0-1.7-11.1,9.8,9.8,0,0,0-6.7-2.7,8.2,8.2,0,0,0-4.4,1.1,36.6,36.6,0,0,0-11.2-4.7,9.5,9.5,0,0,0-9.1-6.7,9.5,9.5,0,0,0-9,6.7,35.6,35.6,0,0,0-11.2,4.7,9.1,9.1,0,0,0-7.2-.7,1.4,1.4,0,0,0,.8,2.7,6.4,6.4,0,0,1,6.6,1.6,6.6,6.6,0,0,1,0,9.4,6.5,6.5,0,0,1-9.3,0,6.6,6.6,0,0,1-1.5-7.2c.7-1.6-1.9-2.8-2.6-1.1a9.3,9.3,0,0,0,.4,8,41.6,41.6,0,0,0-4.7,11.3,9.5,9.5,0,0,0-6.6,9,9.5,9.5,0,0,0,6.6,9.1,40.9,40.9,0,0,0,4.7,11.2,9.4,9.4,0,0,0,1.7,11.1A9.6,9.6,0,0,0,254.7-57a35.5,35.5,0,0,0,4.3,2.3l-4.3,11.6a3.3,3.3,0,0,0,3.1,4.4h34.3a3.4,3.4,0,0,0,3.1-4.4l-4.3-11.6a35.5,35.5,0,0,0,4.3-2.3,9.9,9.9,0,0,0,4.4,1.1,9.7,9.7,0,0,0,2.9-.4,1.4,1.4,0,0,0-.9-2.7,6.7,6.7,0,0,1-6.7-1.6,6.6,6.6,0,0,1,0-9.4,6.6,6.6,0,0,1,9.4,0,6.4,6.4,0,0,1,1.5,7.1,1.4,1.4,0,0,0,2.6,1.1,10.1,10.1,0,0,0-.4-8A37.8,37.8,0,0,0,312.6-81,9.5,9.5,0,0,0,319.3-90.1Zm-2.8,0a6.7,6.7,0,0,1-6.7,6.7,6.7,6.7,0,0,1-6.6-6.7,6.7,6.7,0,0,1,6.6-6.6A6.7,6.7,0,0,1,316.5-90.1Zm-16-1.4H288.6a13.2,13.2,0,0,0-3-7.3l8.4-8.4a9.5,9.5,0,0,0,7.5,1.7,33.7,33.7,0,0,1,3.1,7.6A9.1,9.1,0,0,0,300.5-91.5ZM288.7-56.8l-4.3,1.5a10.1,10.1,0,0,0-.4-2.5,33,33,0,0,0,7.3-3,9.5,9.5,0,0,0,1.5,2A22.2,22.2,0,0,1,288.7-56.8Zm-31.6-2a9.5,9.5,0,0,0,1.5-2,31.2,31.2,0,0,0,7.3,3,6.9,6.9,0,0,0-.4,2.5A34.7,34.7,0,0,1,257.1-58.8ZM243.7-72.2a36.4,36.4,0,0,1-3.5-8.4,10.1,10.1,0,0,0,2.5-.4,31.2,31.2,0,0,0,3,7.3A9.5,9.5,0,0,0,243.7-72.2Zm4.7-2.4a29.6,29.6,0,0,1-3.1-7.6,9.6,9.6,0,0,0,4.1-6.5h11.8a14.1,14.1,0,0,0,3,7.3L255.8-73A9.7,9.7,0,0,0,248.4-74.6Zm25.1,10.1a9.4,9.4,0,0,0-6.4,4.1,29.6,29.6,0,0,1-7.6-3.1,9.2,9.2,0,0,0-1.7-7.5l8.4-8.4a13.2,13.2,0,0,0,7.3,3Zm1.4,2.7a6.7,6.7,0,0,1,6.7,6.7,6.6,6.6,0,0,1-6.7,6.6,6.6,6.6,0,0,1-6.6-6.6A6.7,6.7,0,0,1,274.9-61.8Zm15.4-1.7a29,29,0,0,1-7.5,3.1,9.9,9.9,0,0,0-6.5-4.1V-76.4a12.6,12.6,0,0,0,7.3-3L292-71A9.6,9.6,0,0,0,290.3-63.5ZM274.9-79.1a10.9,10.9,0,0,1-10.9-11A10.9,10.9,0,0,1,274.9-101a10.9,10.9,0,0,1,11,10.9A11,11,0,0,1,274.9-79.1Zm-9-43.2a31.2,31.2,0,0,0-7.3,3,9.5,9.5,0,0,0-1.5-2,36.4,36.4,0,0,1,8.4-3.5A7.3,7.3,0,0,0,265.9-122.3Zm-6.4,5.7a29.9,29.9,0,0,1,7.6-3.2,9.1,9.1,0,0,0,6.4,4.1v11.9a14.1,14.1,0,0,0-7.3,3.1l-8.4-8.4A9.3,9.3,0,0,0,259.5-116.6Zm31.8-2.7a33,33,0,0,0-7.3-3,10.9,10.9,0,0,0,.4-2.5,38.3,38.3,0,0,1,8.4,3.5A9.5,9.5,0,0,0,291.3-119.3Zm-8.5-.5a29.2,29.2,0,0,1,7.5,3.2,9.4,9.4,0,0,0,1.7,7.4l-8.4,8.5a13.4,13.4,0,0,0-7.3-3.1v-11.9A9.5,9.5,0,0,0,282.8-119.8Zm23.3,11.9a31.1,31.1,0,0,1,3.5,8.4,6.7,6.7,0,0,0-2.4.4,34.1,34.1,0,0,0-3.1-7.4A10.1,10.1,0,0,0,306.1-107.9Zm-1.8-11.6a6.6,6.6,0,0,1,0,9.4,6.6,6.6,0,0,1-9.4,0,6.8,6.8,0,0,1,0-9.4A6.8,6.8,0,0,1,304.3-119.5Zm-29.4-12.2a6.7,6.7,0,0,1,6.7,6.7,6.6,6.6,0,0,1-6.7,6.6,6.6,6.6,0,0,1-6.6-6.6,4.9,4.9,0,0,1,.1-1.2v-.3A6.6,6.6,0,0,1,274.9-131.7Zm-19,24.5,8.4,8.4a14.1,14.1,0,0,0-3.1,7.3H249.4a9.4,9.4,0,0,0-4.1-6.4,29.6,29.6,0,0,1,3.1-7.6A9.6,9.6,0,0,0,255.9-107.2Zm-10.2.7a33.8,33.8,0,0,0-3,7.4,6.9,6.9,0,0,0-2.5-.4,34.7,34.7,0,0,1,3.5-8.4ZM233.4-90.1a6.7,6.7,0,0,1,6.6-6.6,6.7,6.7,0,0,1,6.7,6.6,6.7,6.7,0,0,1-6.7,6.7A6.7,6.7,0,0,1,233.4-90.1Zm16.9,31.4a6.7,6.7,0,0,1-4.7-1.9,6.6,6.6,0,0,1,0-9.4,6.5,6.5,0,0,1,9.3,0,6.6,6.6,0,0,1,0,9.4A6.6,6.6,0,0,1,250.3-58.7Zm42.2,16.6c.1.4,0,.6-.4.6H257.8c-.4,0-.5-.2-.5-.6l4.3-11.5,4.3,1.3a9.6,9.6,0,0,0,9,6.7,9.6,9.6,0,0,0,9.1-6.7l4.3-1.3ZM294-73l-8.4-8.4a12.6,12.6,0,0,0,3-7.3h11.9a9.3,9.3,0,0,0,4.1,6.5,29.9,29.9,0,0,1-3.2,7.6l-1.8-.2A9.4,9.4,0,0,0,294-73Zm10.1-.7a31.4,31.4,0,0,0,3.1-7.3,10,10,0,0,0,2.4.4,32.5,32.5,0,0,1-3.5,8.4A9.5,9.5,0,0,0,304.1-73.7Z"/><g class="cls-12"><rect class="cls-2" x="-4289.4" y="-2349.8" width="5391.4" height="4611.73"/></g><path class="cls-2" d="M-1.6-36.1H-76.2a2.6,2.6,0,0,1-2.5-2.6v-5.5a2.6,2.6,0,0,1,2.5-2.6h28.6a6.5,6.5,0,0,1-.7-2.1,6.7,6.7,0,0,1,1.4-5.3l1-1.1a7.3,7.3,0,0,0,1.4-5.6l-.4-2.4H-56.1A6,6,0,0,1-62-69.4c0-.4-.1-.7-.4-.8l-2.4-1.7a2.7,2.7,0,0,1-1-2.9,2.7,2.7,0,0,1,2.5-1.8H-44v-3h-6.5a5.9,5.9,0,0,1-5.8-6.1,1,1,0,0,0-.4-.8l-2.4-1.7a2.7,2.7,0,0,1-1-2.9,2.5,2.5,0,0,1,2.4-1.8H-44v-1.5a10.2,10.2,0,0,0-5.7-9.3l-.7-.3v-2.5h23v2.5l-.7.3a10.3,10.3,0,0,0-5.7,9.3v1.5h13.7a2.5,2.5,0,0,1,2.4,1.8,2.7,2.7,0,0,1-1,2.9L-21-86.5a.8.8,0,0,0-.4.8,6,6,0,0,1-5.9,6.1h-6.5v3h19.3A2.5,2.5,0,0,1-12-74.8a2.7,2.7,0,0,1-1,2.9l-2.4,1.7a.9.9,0,0,0-.4.8,6,6,0,0,1-5.9,6.1H-32.9l-.4,2.4a6.9,6.9,0,0,0,1.5,5.6l.9,1.1a6.7,6.7,0,0,1,1.4,5.3,4.8,4.8,0,0,1-.7,2.1H-1.6A2.6,2.6,0,0,1,.9-44.2v5.5A2.6,2.6,0,0,1-1.6-36.1Zm-74.6-8.2h0v5.5H-1.6v-5.5H-36.7l3.1-2.2A3.8,3.8,0,0,0-32-49.2a4.1,4.1,0,0,0-.9-3.4l-.9-1.1a9.6,9.6,0,0,1-2-7.5l.8-4.6h13.3a3.5,3.5,0,0,0,3.4-3.6,3.6,3.6,0,0,1,1.5-2.9l2.3-1.6v-.2H-36.3v-8h9a3.5,3.5,0,0,0,3.4-3.6,3.6,3.6,0,0,1,1.4-2.9l2.4-1.6v-.2H-36.3v-4a12.8,12.8,0,0,1,4.2-9.6H-45.7a12.8,12.8,0,0,1,4.2,9.6v4H-57.7v.2l2.4,1.6a3.6,3.6,0,0,1,1.5,2.9,3.5,3.5,0,0,0,3.3,3.6h9v8H-63.3c-.1.1,0,.1,0,.2l2.4,1.6a3.6,3.6,0,0,1,1.4,2.9,3.5,3.5,0,0,0,3.4,3.6h13.4l.7,4.6a9.6,9.6,0,0,1-2,7.5l-.9,1.1a4.1,4.1,0,0,0-.9,3.4,4.2,4.2,0,0,0,1.6,2.7l3.1,2.2Z"/><g class="cls-13"><path class="cls-2" d="M2384,1747.7H-2493.3V-2658.5H2384Zm-4874.3-3H2381V-2655.5H-2490.3Z"/></g><path class="cls-3" d="M-71.3-77.4a2.9,2.9,0,0,1,2.8-2.8,5.7,5.7,0,0,0,5.7-5.6v-7A2.8,2.8,0,0,1-60-95.7h8.4v-2.8H-60a5.7,5.7,0,0,0-5.6,5.7v7A2.9,2.9,0,0,1-68.5-83a5.6,5.6,0,0,0-5.6,5.6v19.8h2.8Z"/><g class="cls-14"><rect class="cls-2" x="-2725.1" y="-2754.4" width="5338" height="4566.05"/></g><path class="cls-2" d="M-38.9-108.9a1.9,1.9,0,0,1-1.8-1.1l-3.2-5.3a2.1,2.1,0,0,1,.3-2.7l3.2-3.2a2.2,2.2,0,0,1,3,0l3.2,3.2a2.3,2.3,0,0,1,.4,2.7L-37-110A2.4,2.4,0,0,1-38.9-108.9Zm0-2.2Zm0-8.5-3.2,3.2,3.2,5.2,3.2-5.3Z"/><g class="cls-15"><path class="cls-2" d="M1968.2,1343.5H-2072.1V-2112.9H1968.2Zm-4038.1-2.2H1966v-3452H-2069.9Z"/></g><path class="cls-3" d="M-26.2-98.5v2.8h8.4A2.8,2.8,0,0,1-15-92.8v7a5.7,5.7,0,0,0,5.7,5.6,2.9,2.9,0,0,1,2.8,2.8v19.8h2.8V-77.4A5.6,5.6,0,0,0-9.3-83a2.7,2.7,0,0,1-2.8-2.8v-7a5.7,5.7,0,0,0-5.7-5.7Z"/><g class="cls-16"><rect class="cls-2" x="-2725.1" y="-2754.4" width="5338" height="4566.05"/></g><path class="cls-3" d="M-20.6-108.3h2.8a8.5,8.5,0,0,0-8.4-8.5H-29v2.8h2.8a5.7,5.7,0,0,1,5.6,5.7"/><g class="cls-17"><rect class="cls-2" x="-2725.1" y="-2754.4" width="5338" height="4566.05"/></g><path class="cls-3" d="M-51.6-114h2.9v-2.8h-2.9a8.5,8.5,0,0,0-8.4,8.5h2.8a5.7,5.7,0,0,1,5.6-5.7"/><g class="cls-18"><rect class="cls-2" x="-2725.1" y="-2754.4" width="5338" height="4566.05"/></g><path class="cls-3" d="M428.3-49.4a4.6,4.6,0,0,1-3.1,1.2,4.4,4.4,0,0,1-3.1-1.2,7.3,7.3,0,0,0-5.1-1.9,7,7,0,0,0-5,1.9,4.4,4.4,0,0,1-3.1,1.2,4.4,4.4,0,0,1-3.1-1.2,7.2,7.2,0,0,0-5-1.9,7.3,7.3,0,0,0-5.1,1.9,4.4,4.4,0,0,1-3.1,1.2,3.2,3.2,0,0,1-1.8-.4V-90.7h22v3.1H416v-3.1h1.6a3.1,3.1,0,0,0,3.1-3.2V-97a3.2,3.2,0,0,0-3.1-3.2h-.1a29.9,29.9,0,0,0-28.3-28.2v-1.7a4.7,4.7,0,0,0-4.7-4.7,4.7,4.7,0,0,0-4.7,4.7v1.7a29.9,29.9,0,0,0-28.3,28.2h-.1a3.2,3.2,0,0,0-3.1,3.2v3.1a3.1,3.1,0,0,0,3.1,3.2H353v3.1h3.2v-3.1h22v42.1a4.5,4.5,0,0,1-1.9.4,4.6,4.6,0,0,1-3.1-1.2,7,7,0,0,0-5-1.9,7,7,0,0,0-5,1.9,4.6,4.6,0,0,1-3.1,1.2,4.4,4.4,0,0,1-3.1-1.2,7.2,7.2,0,0,0-5-1.9,7.3,7.3,0,0,0-5.1,1.9,4.4,4.4,0,0,1-3.1,1.2,4.6,4.6,0,0,1-3.1-1.2,7,7,0,0,0-5-1.9v3.1a4.1,4.1,0,0,1,3.1,1.3,7.7,7.7,0,0,0,5,1.9,7.3,7.3,0,0,0,5-1.9,4.4,4.4,0,0,1,3.2-1.3,4.4,4.4,0,0,1,3.1,1.3,7.3,7.3,0,0,0,5,1.9,7.5,7.5,0,0,0,5-1.9,4.1,4.1,0,0,1,3.1-1.3,4.1,4.1,0,0,1,3.1,1.3,7.7,7.7,0,0,0,5,1.9,7.8,7.8,0,0,0,5.1-1.9,4.1,4.1,0,0,1,3.1-1.3,4.1,4.1,0,0,1,3.1,1.3,7.5,7.5,0,0,0,5,1.9,7.3,7.3,0,0,0,5-1.9,4.4,4.4,0,0,1,3.2-1.3,4.4,4.4,0,0,1,3.1,1.3,7.5,7.5,0,0,0,5,1.9,7.5,7.5,0,0,0,5-1.9,4.2,4.2,0,0,1,3.1-1.3,4.1,4.1,0,0,1,3.1,1.3,7.8,7.8,0,0,0,5.1,1.9,7.7,7.7,0,0,0,5-1.9,4.1,4.1,0,0,1,3.1-1.3v-3.1A7,7,0,0,0,428.3-49.4Zm-43.8-82.2a1.6,1.6,0,0,1,1.6,1.5v1.6h-3.2v-1.6A1.6,1.6,0,0,1,384.5-131.6Zm-4.3,6.3a38.4,38.4,0,0,0-8.4,11.9l2.9,1.3a34.3,34.3,0,0,1,9.8-12.8,33.7,33.7,0,0,1,12.6,24.7H372a30.3,30.3,0,0,1,1.6-8.9l-3-1a37.5,37.5,0,0,0-1.8,9.9H354.7A26.7,26.7,0,0,1,380.2-125.3ZM351.4-97H405v-3.2h-4.8a36.3,36.3,0,0,0-11.4-25.1,26.7,26.7,0,0,1,25.5,25.1h-6.2V-97h9.5v3.1H351.4Zm33.1,45.7a6.8,6.8,0,0,0-3.1.6v-40h6.3v40A7.6,7.6,0,0,0,384.5-51.3Z"/><g class="cls-19"><rect class="cls-2" x="-2412.3" y="-2536.8" width="5224.4" height="4468.85"/></g><path class="cls-3" d="M425.2-40.3a4.1,4.1,0,0,1-3.1-1.3,7.8,7.8,0,0,0-5.1-1.9,7.5,7.5,0,0,0-5,1.9,4.1,4.1,0,0,1-3.1,1.3,4.1,4.1,0,0,1-3.1-1.3,7.7,7.7,0,0,0-5-1.9,7.8,7.8,0,0,0-5.1,1.9,4.1,4.1,0,0,1-3.1,1.3,4.1,4.1,0,0,1-3.1-1.3,7.5,7.5,0,0,0-5-1.9,7.8,7.8,0,0,0-5.1,1.9,4.1,4.1,0,0,1-3.1,1.3,4.2,4.2,0,0,1-3.1-1.3,7.5,7.5,0,0,0-5-1.9,7.5,7.5,0,0,0-5,1.9,4.2,4.2,0,0,1-3.1,1.3,4.1,4.1,0,0,1-3.1-1.3,7.7,7.7,0,0,0-5-1.9,7.8,7.8,0,0,0-5.1,1.9,4.1,4.1,0,0,1-3.1,1.3,4.2,4.2,0,0,1-3.1-1.3,7.5,7.5,0,0,0-5-1.9v3.2a4.4,4.4,0,0,1,3.1,1.2,7.2,7.2,0,0,0,5,1.9,6.9,6.9,0,0,0,5-1.9,4.8,4.8,0,0,1,3.2-1.2,4.8,4.8,0,0,1,3.1,1.2,6.9,6.9,0,0,0,5,1.9,7.2,7.2,0,0,0,5-1.9,4.4,4.4,0,0,1,3.1-1.2,4.4,4.4,0,0,1,3.1,1.2,7.2,7.2,0,0,0,5,1.9,7.3,7.3,0,0,0,5.1-1.9,4.4,4.4,0,0,1,3.1-1.2,4.6,4.6,0,0,1,3.1,1.2,7,7,0,0,0,5,1.9,6.9,6.9,0,0,0,5-1.9,4.8,4.8,0,0,1,3.2-1.2,4.8,4.8,0,0,1,3.1,1.2,7,7,0,0,0,5,1.9,7,7,0,0,0,5-1.9,4.4,4.4,0,0,1,3.1-1.2,4.4,4.4,0,0,1,3.1,1.2,7.3,7.3,0,0,0,5.1,1.9,7.2,7.2,0,0,0,5-1.9,4.4,4.4,0,0,1,3.1-1.2v-3.2a7.5,7.5,0,0,0-5,1.9,4.2,4.2,0,0,1-3.1,1.3"/><g class="cls-20"><rect class="cls-2" x="-2412.3" y="-2536.8" width="5224.4" height="4468.85"/></g><path class="cls-3" d="M394-59.2a4.7,4.7,0,0,0,4.7,4.7,4.7,4.7,0,0,0,4.7-4.7v-3.2h-3.2v3.2a1.6,1.6,0,0,1-1.5,1.6,1.6,1.6,0,0,1-1.6-1.6V-81.3H394Z"/><g class="cls-21"><rect class="cls-2" x="-2412.3" y="-2536.8" width="5224.4" height="4468.85"/></g><path class="cls-3" d="M416-70.2v-7.9h-3.2v7.9a1.5,1.5,0,0,1-1.5,1.5,1.6,1.6,0,0,1-1.6-1.5V-82.8a4.8,4.8,0,0,0-4.7-4.8,4.9,4.9,0,0,0-4.8,4.8v4.7h3.2v-4.7a1.6,1.6,0,0,1,1.6-1.6,1.6,1.6,0,0,1,1.5,1.6v12.6a4.8,4.8,0,0,0,4.8,4.7,4.7,4.7,0,0,0,4.7-4.7"/><g class="cls-22"><rect class="cls-2" x="-2412.3" y="-2536.8" width="5224.4" height="4468.85"/></g><path class="cls-3" d="M371.9-59.2a1.6,1.6,0,0,1-1.6,1.6,1.6,1.6,0,0,1-1.5-1.6v-3.2h-3.2v3.2a4.7,4.7,0,0,0,4.7,4.7,4.8,4.8,0,0,0,4.8-4.7V-81.3h-3.2Z"/><g class="cls-23"><rect class="cls-2" x="-2412.3" y="-2536.8" width="5224.4" height="4468.85"/></g><path class="cls-3" d="M353-70.2a4.7,4.7,0,0,0,4.7,4.7,4.8,4.8,0,0,0,4.8-4.7V-82.8a1.6,1.6,0,0,1,1.5-1.6,1.6,1.6,0,0,1,1.6,1.6v4.7h3.2v-4.7a4.9,4.9,0,0,0-4.8-4.8,4.8,4.8,0,0,0-4.7,4.8v12.6a1.6,1.6,0,0,1-1.6,1.5,1.5,1.5,0,0,1-1.5-1.5v-7.9H353Z"/><g class="cls-24"><rect class="cls-2" x="-2412.3" y="-2536.8" width="5224.4" height="4468.85"/></g><path class="cls-3" d="M343.6-59.2a17.7,17.7,0,0,1,5.6.9l5,1.7-2.7-6.7a8.4,8.4,0,0,0-7.9-5.4,4.9,4.9,0,0,0-4.8,4.8,4.8,4.8,0,0,0,4.8,4.7m0-6.3a5.3,5.3,0,0,1,5,3.4v.4a21.6,21.6,0,0,0-5.1-.7,1.6,1.6,0,0,1-1.6-1.5,1.6,1.6,0,0,1,1.6-1.6"/><g class="cls-25"><rect class="cls-2" x="-2412.3" y="-2536.8" width="5224.4" height="4468.85"/></g><path class="cls-3" d="M417.5-63.3l-2.7,6.7,5-1.7a17.7,17.7,0,0,1,5.6-.9,4.8,4.8,0,0,0,4.8-4.7,4.9,4.9,0,0,0-4.8-4.8A8.4,8.4,0,0,0,417.5-63.3Zm2.9,1.2a5.3,5.3,0,0,1,5-3.4,1.6,1.6,0,0,1,1.6,1.6,1.6,1.6,0,0,1-1.6,1.5,22.4,22.4,0,0,0-5.1.7Z"/><g class="cls-26"><rect class="cls-2" x="-2412.3" y="-2536.8" width="5224.4" height="4468.85"/></g><path class="cls-2" d="M82,17.3A1.4,1.4,0,1,0,79.9,19a33.6,33.6,0,0,1,6.8,18.7L68.5,32.8a71.2,71.2,0,0,0,.9-14.6,79.5,79.5,0,0,0-.8-8.4,28.3,28.3,0,0,1,7.1,4.7,1.3,1.3,0,0,0,1.8-2,35.3,35.3,0,0,0-12.2-7l1.4-3.7A1.4,1.4,0,0,0,65.8.1a1.3,1.3,0,0,0-1.7.8L62.7,4.7A35.3,35.3,0,0,0,23.5,21.8a1.5,1.5,0,0,0-.2.8l.5,7a3.2,3.2,0,0,0,2.3,2.9l13.4,3.6A3.4,3.4,0,0,0,43,34.8l1.7-2.6.2,3.1a3.3,3.3,0,0,0,2.4,2.9l5.4,1.4L45.1,67.9H32.4A1.4,1.4,0,0,0,31,69.3a1.3,1.3,0,0,0,1.4,1.3H59a5.1,5.1,0,0,0,3.5-1.5l9.6-9.8a7.4,7.4,0,0,1,7.6-1.8l2.9,1L64.5,76.8A4,4,0,0,1,61.6,78H9.1A6.7,6.7,0,0,1,11,72.5a6.2,6.2,0,0,1,4.6-1.9H26a1.3,1.3,0,0,0,1.4-1.3A1.4,1.4,0,0,0,26,67.9H15.6a8.4,8.4,0,0,0-6.5,2.7c-2.2,2.2-2.7,5.2-2.7,8.2a1.8,1.8,0,0,0,1.9,1.9h3.2L8.7,86.9A4.2,4.2,0,0,0,8.6,90H1.4A1.3,1.3,0,0,0,0,91.3a1.4,1.4,0,0,0,1.4,1.4H84.9a1.4,1.4,0,0,0,1.4-1.4A1.4,1.4,0,0,0,84.9,90H72.1a3.7,3.7,0,0,0-.1-3.1l-4.3-9.5L85.5,59.5a1.9,1.9,0,0,0-.7-3.1L80.6,55a10.4,10.4,0,0,0-10.5,2.5l-9.5,9.8A2.4,2.4,0,0,1,59,68H47.9l7.4-27.6,5.4,1.4a3,3,0,0,0,3.4-1.2l1.8-2.6.2,3.1a3.1,3.1,0,0,0,2.3,2.8l13.4,3.6a3.1,3.1,0,0,0,3.5-1.3l3.9-5.9a1.5,1.5,0,0,0,.3-.7A35.6,35.6,0,0,0,82,17.3ZM12.4,90l-.5-.2a1.4,1.4,0,0,1-.7-1.8l3.3-7.3h3l-3.8,8.5a1.8,1.8,0,0,1-1.3.8Zm26.8,0H16.3l4.2-9.3H41.6ZM42,90l2.4-9.3H60.3L64.5,90Zm27.5-2a1.2,1.2,0,0,1-.6,1.8l-.6.2a1.5,1.5,0,0,1-1.2-.8l-3.9-8.6a7.7,7.7,0,0,0,2.4-1.2ZM40.7,33.3l-.5.2L26.8,29.9c-.2-.1-.3-.2-.3-.4l-.4-5.2L43.6,29Zm4.2-6.8L26.7,21.6A32.9,32.9,0,0,1,57.2,6.5a59,59,0,0,0-5.8,7.4,65.3,65.3,0,0,0-6.5,12.6Zm17,12.4a.4.4,0,0,1-.5.2L48,35.5a.4.4,0,0,1-.4-.4l-.3-5.2,17.5,4.7Zm4-6.8L47.6,27.2a65.5,65.5,0,0,1,6-11.8A55,55,0,0,1,60.5,7a25.5,25.5,0,0,1,5.2,1.5,79.3,79.3,0,0,1,1,9.8,79.9,79.9,0,0,1-.8,13.8ZM83,44.6c-.1.2-.3.2-.5.2L69.1,41.2c-.2,0-.3-.2-.3-.4l-.4-5.2,17.5,4.7Z"/></svg>