<svg id="Layer_1" data-name="Layer 1" xmlns="http://www.w3.org/2000/svg" xmlns:xlink="http://www.w3.org/1999/xlink" viewBox="0 0 88.7 95.8"><defs><style>.cls-1,.cls-2,.cls-3{fill:#221c45;}.cls-1{clip-rule:evenodd;}.cls-3{fill-rule:evenodd;}.cls-4{clip-path:url(#clip-path);}.cls-5{clip-path:url(#clip-path-2);}.cls-6{clip-path:url(#clip-path-3);}.cls-7{clip-path:url(#clip-path-4);}.cls-8{clip-path:url(#clip-path-5);}.cls-9{clip-path:url(#clip-path-6);}.cls-10{clip-path:url(#clip-path-7);}.cls-11{clip-path:url(#clip-path-8);}.cls-12{clip-path:url(#clip-path-9);}.cls-13{clip-path:url(#clip-path-10);}.cls-14{clip-path:url(#clip-path-11);}.cls-15{clip-path:url(#clip-path-12);}.cls-16{clip-path:url(#clip-path-13);}.cls-17{clip-path:url(#clip-path-14);}.cls-18{clip-path:url(#clip-path-15);}.cls-19{clip-path:url(#clip-path-16);}.cls-20{clip-path:url(#clip-path-17);}.cls-21{clip-path:url(#clip-path-18);}.cls-22{clip-path:url(#clip-path-19);}.cls-23{clip-path:url(#clip-path-21);}.cls-24{clip-path:url(#clip-path-22);}.cls-25{clip-path:url(#clip-path-23);}.cls-26{clip-path:url(#clip-path-24);}.cls-27{clip-path:url(#clip-path-25);}.cls-28{clip-path:url(#clip-path-27);}</style><clipPath id="clip-path"><path class="cls-1" d="M272.8,93.9h15.9v-10H272.8Zm17.9,4H270.8a2,2,0,0,1-2-2v-14a1.9,1.9,0,0,1,2-1.9h19.9a1.9,1.9,0,0,1,2,1.9v14A2,2,0,0,1,290.7,97.9Z"/></clipPath><clipPath id="clip-path-2"><path class="cls-1" d="M262.9,93.9h35.8V6.4H262.9Zm37.8,4H260.9a2,2,0,0,1-2-2V4.4a2,2,0,0,1,2-2h39.8a1.9,1.9,0,0,1,1.9,2V95.9A1.9,1.9,0,0,1,300.7,97.9Z"/></clipPath><clipPath id="clip-path-3"><path class="cls-1" d="M246.9,93.9h12V14.3h-12Zm14,4H245a2,2,0,0,1-2-2V12.3a2,2,0,0,1,2-2h15.9a2,2,0,0,1,2,2V95.9A2,2,0,0,1,260.9,97.9Z"/></clipPath><clipPath id="clip-path-4"><path class="cls-1" d="M302.6,93.9h12V14.3h-12Zm14,4h-16a2,2,0,0,1-1.9-2V12.3a2,2,0,0,1,1.9-2h16a2,2,0,0,1,2,2V95.9A2,2,0,0,1,316.6,97.9Z"/></clipPath><clipPath id="clip-path-5"><rect class="cls-2" x="229" y="54.1" width="4" height="19.89" transform="translate(41.1 210.4) rotate(-53.1)"/></clipPath><clipPath id="clip-path-6"><rect class="cls-2" x="221.1" y="62.1" width="19.9" height="3.98" transform="translate(7.8 151.5) rotate(-36.9)"/></clipPath><clipPath id="clip-path-7"><rect class="cls-2" x="328.5" y="54.1" width="4" height="19.89" transform="translate(80.9 290) rotate(-53.1)"/></clipPath><clipPath id="clip-path-8"><rect class="cls-2" x="320.5" y="62.1" width="19.9" height="3.97" transform="translate(27.6 211) rotate(-36.8)"/></clipPath><clipPath id="clip-path-9"><path class="cls-1" d="M88.7,44.4a9.5,9.5,0,0,0-6.7-9,38.4,38.4,0,0,0-4.6-11.3A9.5,9.5,0,0,0,69,10.2a9.9,9.9,0,0,0-4.4,1.1A39,39,0,0,0,53.4,6.7a9.5,9.5,0,0,0-18.1,0,39,39,0,0,0-11.2,4.6,10,10,0,0,0-7.2-.7c-1.7.6-.9,3.3.8,2.7a6.7,6.7,0,1,1-4.2,3.9,1.4,1.4,0,0,0-2.6-1.1,9.3,9.3,0,0,0,.4,8A41.6,41.6,0,0,0,6.6,35.4a9.4,9.4,0,0,0,0,18,41.6,41.6,0,0,0,4.7,11.3A9.4,9.4,0,0,0,13,75.8a9.6,9.6,0,0,0,11.1,1.7,35.5,35.5,0,0,0,4.3,2.3L24.1,91.4a3.3,3.3,0,0,0,3.1,4.4H61.5a3.4,3.4,0,0,0,3.1-4.4L60.3,79.8a35.5,35.5,0,0,0,4.3-2.3A9.9,9.9,0,0,0,69,78.6a9.3,9.3,0,0,0,2.9-.5c1.7-.5.9-3.2-.8-2.6a6.9,6.9,0,0,1-6.8-1.7,6.6,6.6,0,0,1,0-9.4,6.8,6.8,0,0,1,9.4,0,6.6,6.6,0,0,1,1.5,7.2c-.7,1.6,1.9,2.7,2.6,1a9.9,9.9,0,0,0-.4-7.9A38.4,38.4,0,0,0,82,53.4,9.5,9.5,0,0,0,88.7,44.4Zm-2.8,0a6.7,6.7,0,1,1-13.3,0,6.7,6.7,0,0,1,13.3,0ZM69.9,43H58a12.9,12.9,0,0,0-3-7.3l8.4-8.4A9.5,9.5,0,0,0,70.9,29,34.9,34.9,0,0,1,74,36.5,9.5,9.5,0,0,0,69.9,43ZM58.1,77.7c-1.4.5-2.8,1.1-4.3,1.5a10.1,10.1,0,0,0-.4-2.5,27.7,27.7,0,0,0,7.3-3.1,10.1,10.1,0,0,0,1.5,2.1A31.1,31.1,0,0,1,58.1,77.7Zm-31.6-2A10.1,10.1,0,0,0,28,73.6a27.7,27.7,0,0,0,7.3,3.1,10.1,10.1,0,0,0-.4,2.5A36.4,36.4,0,0,1,26.5,75.7ZM13.1,62.3a43.9,43.9,0,0,1-3.5-8.4l2.5-.4a33,33,0,0,0,3,7.3A13,13,0,0,0,13.1,62.3Zm4.7-2.5a29,29,0,0,1-3.1-7.5,9.5,9.5,0,0,0,4.1-6.5H30.6a13.4,13.4,0,0,0,3.1,7.3l-8.4,8.4A9.6,9.6,0,0,0,17.8,59.8ZM42.9,70a9.3,9.3,0,0,0-6.4,4.1A29.6,29.6,0,0,1,28.9,71a9.2,9.2,0,0,0-1.7-7.5l8.4-8.4a14.8,14.8,0,0,0,7.3,3Zm1.4,2.7a6.7,6.7,0,1,1-6.6,6.7A6.7,6.7,0,0,1,44.3,72.7ZM59.8,71a31.2,31.2,0,0,1-7.6,3.1A9.5,9.5,0,0,0,45.7,70V58.1a14.1,14.1,0,0,0,7.3-3l8.4,8.4A9.6,9.6,0,0,0,59.8,71ZM44.3,55.4a11,11,0,1,1,11-11A10.9,10.9,0,0,1,44.3,55.4Zm-9-43.3A31.4,31.4,0,0,0,28,15.2a9.5,9.5,0,0,0-1.5-2,32.5,32.5,0,0,1,8.4-3.5A10,10,0,0,0,35.3,12.1Zm-6.4,5.8a29.9,29.9,0,0,1,7.6-3.2,9.3,9.3,0,0,0,6.4,4.1V30.7a14.1,14.1,0,0,0-7.2,3l-8.4-8.4A9.4,9.4,0,0,0,28.9,17.9Zm31.8-2.7a31.4,31.4,0,0,0-7.3-3.1,10,10,0,0,0,.4-2.4,34,34,0,0,1,8.4,3.5A9.5,9.5,0,0,0,60.7,15.2Zm-8.5-.5a31.5,31.5,0,0,1,7.6,3.2,9.4,9.4,0,0,0,1.6,7.4L53,33.7a14.1,14.1,0,0,0-7.3-3V18.8A9.5,9.5,0,0,0,52.2,14.7ZM75.5,26.5A33.1,33.1,0,0,1,79,35a9.9,9.9,0,0,0-2.4.3A33.4,33.4,0,0,0,73.5,28,7.5,7.5,0,0,0,75.5,26.5ZM73.7,15a6.6,6.6,0,1,1-9.4,9.4,6.8,6.8,0,0,1,0-9.4A6.6,6.6,0,0,1,73.7,15ZM44.3,2.8a6.7,6.7,0,1,1-6.6,6.7,4.9,4.9,0,0,1,.1-1.2c0-.1.1-.2.1-.4A6.6,6.6,0,0,1,44.3,2.8Zm-19,24.5,8.4,8.4A13.7,13.7,0,0,0,30.6,43H18.8a9.5,9.5,0,0,0-4.1-6.5A30.5,30.5,0,0,1,17.8,29,9.5,9.5,0,0,0,25.3,27.3ZM15.1,28a33,33,0,0,0-3,7.3A9.9,9.9,0,0,0,9.7,35a36.8,36.8,0,0,1,3.4-8.5A13,13,0,0,0,15.1,28ZM2.8,44.4a6.7,6.7,0,1,1,6.6,6.7A6.7,6.7,0,0,1,2.8,44.4ZM19.7,75.8a6.3,6.3,0,0,1-4.7-2,6.6,6.6,0,0,1,0-9.4,6.8,6.8,0,0,1,9.4,0,6.7,6.7,0,0,1-4.7,11.4ZM61.9,92.4c.1.3,0,.5-.4.6H27.2c-.4-.1-.5-.3-.5-.6L31,80.9l4.3,1.3a9.5,9.5,0,0,0,18.1,0l4.3-1.3Zm1.5-30.9L55,53.1a12.6,12.6,0,0,0,3-7.3H69.9A9.5,9.5,0,0,0,74,52.3a32.9,32.9,0,0,1-3.1,7.5H69A9.4,9.4,0,0,0,63.4,61.5Zm10.1-.7a33.4,33.4,0,0,0,3.1-7.3l2.4.4a34,34,0,0,1-3.5,8.4A7.5,7.5,0,0,0,73.5,60.8Z"/></clipPath><clipPath id="clip-path-10"><rect class="cls-2" x="-4520" y="-2215.4" width="5391.4" height="4611.73"/></clipPath><clipPath id="clip-path-11"><path class="cls-2" d="M-232.2,98.3h-74.6a2.5,2.5,0,0,1-2.5-2.6V90.3a2.6,2.6,0,0,1,2.5-2.6h28.6a6.5,6.5,0,0,1-.7-2.1,7.2,7.2,0,0,1,1.4-5.3l1-1.1a7.4,7.4,0,0,0,1.4-5.6l-.4-2.4h-11.2a6.1,6.1,0,0,1-5.9-6.2.7.7,0,0,0-.4-.7l-2.3-1.7a2.4,2.4,0,0,1-1-2.9,2.6,2.6,0,0,1,2.4-1.9h19.3V54.9h-6.5a6,6,0,0,1-5.8-6.2.8.8,0,0,0-.4-.7l-2.4-1.7a2.7,2.7,0,0,1-1-2.9,2.6,2.6,0,0,1,2.4-1.9h13.7V40.1a10,10,0,0,0-5.7-9.3l-.7-.4V27.9h23.1v2.5l-.8.4a10.2,10.2,0,0,0-5.7,9.3v1.4h13.7a2.6,2.6,0,0,1,2.4,1.9,2.7,2.7,0,0,1-1,2.9l-2.3,1.6a.9.9,0,0,0-.4.8,6.1,6.1,0,0,1-5.9,6.2h-6.5v2.9h19.3a2.6,2.6,0,0,1,2.5,1.9,2.7,2.7,0,0,1-1,2.9l-2.4,1.6a1.2,1.2,0,0,0-.4.8,6,6,0,0,1-5.9,6.2h-11.2l-.4,2.4a7,7,0,0,0,1.5,5.6l.9,1.1a6.7,6.7,0,0,1,1.4,5.3,5.8,5.8,0,0,1-.7,2.1h28.6a2.6,2.6,0,0,1,2.5,2.6v5.4A2.5,2.5,0,0,1-232.2,98.3Zm-74.6-8.1h0v5.4h74.6V90.3h-35.1l3.1-2.3a3.7,3.7,0,0,0,1.6-2.7,4.2,4.2,0,0,0-.8-3.3l-1-1.1a9.8,9.8,0,0,1-2-7.6l.8-4.5h13.3a3.6,3.6,0,0,0,3.4-3.7,3.5,3.5,0,0,1,1.5-2.8l2.3-1.7a.1.1,0,0,0,.1-.1h-21.9V52.4h9a3.5,3.5,0,0,0,3.4-3.7,3.4,3.4,0,0,1,1.4-2.8l2.4-1.7h-16.2V40.1a13.2,13.2,0,0,1,4.2-9.7h-13.6a13.2,13.2,0,0,1,4.2,9.7V44h-16.2c0,.2,0,.2.1.2l2.3,1.7a3.5,3.5,0,0,1,1.5,2.8,3.5,3.5,0,0,0,3.3,3.7h9v7.9h-21.8a.1.1,0,0,0,0,.2l2.4,1.7a3.4,3.4,0,0,1,1.4,2.8,3.6,3.6,0,0,0,3.4,3.7h13.4l.7,4.5a9.8,9.8,0,0,1-2,7.6l-.9,1.1a3.9,3.9,0,0,0-.9,3.3,4,4,0,0,0,1.6,2.7l3.1,2.3Z"/></clipPath><clipPath id="clip-path-12"><path class="cls-1" d="M-301.9,57.1a2.9,2.9,0,0,1,2.9-2.8,5.6,5.6,0,0,0,5.6-5.6V41.6a2.8,2.8,0,0,1,2.8-2.8h8.4V36h-8.4a5.6,5.6,0,0,0-5.6,5.6v7.1a2.9,2.9,0,0,1-2.8,2.8,5.6,5.6,0,0,0-5.7,5.6V76.8h2.8Z"/></clipPath><clipPath id="clip-path-13"><path class="cls-2" d="M-269.5,25.5a2.2,2.2,0,0,1-1.8-1l-3.2-5.4a2.1,2.1,0,0,1,.3-2.6l3.2-3.2a2.2,2.2,0,0,1,3,0l3.2,3.2a2,2,0,0,1,.4,2.6l-3.2,5.4A2.3,2.3,0,0,1-269.5,25.5Zm0-2.2Zm0-8.4-3.2,3.2,3.2,5.2,3.2-5.3Z"/></clipPath><clipPath id="clip-path-14"><path class="cls-1" d="M-256.8,36v2.8h8.4a2.9,2.9,0,0,1,2.9,2.8v7.1a5.6,5.6,0,0,0,5.6,5.6,2.9,2.9,0,0,1,2.8,2.8V76.8h2.8V57.1a5.6,5.6,0,0,0-5.6-5.6,2.8,2.8,0,0,1-2.8-2.8V41.6a5.7,5.7,0,0,0-5.7-5.6Z"/></clipPath><clipPath id="clip-path-15"><path class="cls-1" d="M-251.2,26.1h2.8a8.4,8.4,0,0,0-8.4-8.4h-2.8v2.8h2.8a5.6,5.6,0,0,1,5.6,5.6"/></clipPath><clipPath id="clip-path-16"><path class="cls-1" d="M-282.2,20.5h2.9V17.7h-2.9a8.5,8.5,0,0,0-8.4,8.4h2.8a5.6,5.6,0,0,1,5.6-5.6"/></clipPath><clipPath id="clip-path-17"><path class="cls-1" d="M197.7,85a4.3,4.3,0,0,1-6.2,0,7.7,7.7,0,0,0-10.1,0,4.3,4.3,0,0,1-6.2,0,7.7,7.7,0,0,0-10.1,0,4.4,4.4,0,0,1-3.1,1.3,4.4,4.4,0,0,1-1.8-.4V43.8h22.1v3.1h3.1V43.8H187a3.1,3.1,0,0,0,3.1-3.2V37.5a3.1,3.1,0,0,0-3.1-3.2h-.1A29.9,29.9,0,0,0,158.6,6.1V4.4a4.7,4.7,0,1,0-9.4,0V6.1a29.9,29.9,0,0,0-28.3,28.2h0a3.2,3.2,0,0,0-3.2,3.2v3.1a3.2,3.2,0,0,0,3.2,3.2h1.5v3.1h3.2V43.8h22V85.9a4.4,4.4,0,0,1-1.8.4,4.4,4.4,0,0,1-3.1-1.3,7.8,7.8,0,0,0-5.1-1.9,7.5,7.5,0,0,0-5,1.9,4.3,4.3,0,0,1-6.2,0,7.7,7.7,0,0,0-10.1,0,4.4,4.4,0,0,1-3.1,1.3,4.6,4.6,0,0,1-3.1-1.3,7.5,7.5,0,0,0-5-1.9v3.2a4.4,4.4,0,0,1,3.1,1.2,7.2,7.2,0,0,0,5,1.9,7.3,7.3,0,0,0,5.1-1.9,4.4,4.4,0,0,1,3.1-1.2,4.6,4.6,0,0,1,3.1,1.2,7.5,7.5,0,0,0,10,0,4.6,4.6,0,0,1,3.1-1.2,4.4,4.4,0,0,1,3.1,1.2,7.3,7.3,0,0,0,5.1,1.9,7.2,7.2,0,0,0,5-1.9,4.6,4.6,0,0,1,6.2,0,7.2,7.2,0,0,0,5,1.9,7.3,7.3,0,0,0,5.1-1.9,4.4,4.4,0,0,1,3.1-1.2,4.6,4.6,0,0,1,3.1,1.2,7.5,7.5,0,0,0,10,0,4.6,4.6,0,0,1,3.1-1.2,4.4,4.4,0,0,1,3.1,1.2,7.3,7.3,0,0,0,5.1,1.9,7,7,0,0,0,5-1.9,4.6,4.6,0,0,1,3.1-1.2V83.1A7.7,7.7,0,0,0,197.7,85ZM153.9,2.8a1.6,1.6,0,0,1,1.6,1.6V6h-3.2V4.4A1.6,1.6,0,0,1,153.9,2.8Zm-4.3,6.4a36.5,36.5,0,0,0-8.3,11.9l2.8,1.3a34.3,34.3,0,0,1,9.8-12.8,33.7,33.7,0,0,1,12.6,24.7H141.4a30.3,30.3,0,0,1,1.6-8.9l-3-1a41.2,41.2,0,0,0-1.8,9.9H124.1A26.7,26.7,0,0,1,149.6,9.2ZM120.9,37.5h53.5V34.3h-4.8A36.6,36.6,0,0,0,158.3,9.2a26.8,26.8,0,0,1,25.5,25.1h-6.3v3.2H187v3.1H120.9Zm33,45.6a6.8,6.8,0,0,0-3.1.7v-40h6.3v40A7.6,7.6,0,0,0,153.9,83.1Z"/></clipPath><clipPath id="clip-path-18"><rect class="cls-2" x="-2642.9" y="-2402.3" width="5224.4" height="4468.85"/></clipPath><clipPath id="clip-path-19"><path class="cls-1" d="M194.6,94.1a4.4,4.4,0,0,1-3.1-1.2,7.7,7.7,0,0,0-10.1,0,4.6,4.6,0,0,1-6.2,0,7.7,7.7,0,0,0-10.1,0,4.4,4.4,0,0,1-3.1,1.2,4.6,4.6,0,0,1-3.1-1.2,7.5,7.5,0,0,0-10,0,4.8,4.8,0,0,1-3.1,1.2,4.4,4.4,0,0,1-3.1-1.2,7.8,7.8,0,0,0-5.1-1.9,7.5,7.5,0,0,0-5,1.9,4.6,4.6,0,0,1-6.2,0,7.7,7.7,0,0,0-10.1,0,4.4,4.4,0,0,1-3.1,1.2,4.6,4.6,0,0,1-3.1-1.2,7.5,7.5,0,0,0-5-1.9v3.1a4.4,4.4,0,0,1,3.1,1.3,7.7,7.7,0,0,0,10.1,0,4.4,4.4,0,0,1,3.1-1.3,4.6,4.6,0,0,1,3.1,1.3,7.5,7.5,0,0,0,10,0,4.6,4.6,0,0,1,3.1-1.3,4.4,4.4,0,0,1,3.1,1.3,7.7,7.7,0,0,0,10.1,0,4.3,4.3,0,0,1,6.2,0,7.7,7.7,0,0,0,10.1,0,4.4,4.4,0,0,1,3.1-1.3,4.6,4.6,0,0,1,3.1,1.3,7.5,7.5,0,0,0,10,0,4.6,4.6,0,0,1,3.1-1.3,4.4,4.4,0,0,1,3.1,1.3,7.8,7.8,0,0,0,5.1,1.9,7.5,7.5,0,0,0,5-1.9,4.6,4.6,0,0,1,3.1-1.3V91a7.7,7.7,0,0,0-5,1.9,4.4,4.4,0,0,1-3.1,1.2"/></clipPath><clipPath id="clip-path-21"><path class="cls-1" d="M163.4,75.3a4.7,4.7,0,0,0,9.4,0V72.1h-3.1v3.2a1.6,1.6,0,0,1-3.2,0V53.2h-3.1Z"/></clipPath><clipPath id="clip-path-22"><path class="cls-1" d="M185.4,64.2V56.4h-3.1v7.8a1.6,1.6,0,0,1-3.2,0V51.6a4.7,4.7,0,1,0-9.4,0v4.8h3.1V51.6a1.6,1.6,0,0,1,3.2,0V64.2a4.7,4.7,0,1,0,9.4,0"/></clipPath><clipPath id="clip-path-23"><path class="cls-1" d="M141.3,75.3a1.6,1.6,0,0,1-1.6,1.5,1.5,1.5,0,0,1-1.5-1.5V72.1H135v3.2a4.7,4.7,0,0,0,4.7,4.7,4.8,4.8,0,0,0,4.8-4.7V53.2h-3.2Z"/></clipPath><clipPath id="clip-path-24"><path class="cls-1" d="M122.4,64.2a4.8,4.8,0,1,0,9.5,0V51.6a1.5,1.5,0,0,1,1.5-1.5,1.6,1.6,0,0,1,1.6,1.5v4.8h3.2V51.6a4.8,4.8,0,0,0-9.5,0V64.2a1.6,1.6,0,0,1-1.5,1.6,1.6,1.6,0,0,1-1.6-1.6V56.4h-3.2Z"/></clipPath><clipPath id="clip-path-25"><path class="cls-1" d="M113,75.3a17.7,17.7,0,0,1,5.6.9l5,1.6-2.7-6.6a8.4,8.4,0,0,0-7.9-5.4,4.7,4.7,0,0,0-4.7,4.7,4.8,4.8,0,0,0,4.7,4.8m0-6.3a5.3,5.3,0,0,1,5,3.4l.2.4a18.6,18.6,0,0,0-5.2-.7,1.6,1.6,0,0,1-1.6-1.6A1.6,1.6,0,0,1,113,69"/></clipPath><clipPath id="clip-path-27"><path class="cls-1" d="M186.9,71.2l-2.6,6.6,4.9-1.6a17.9,17.9,0,0,1,5.7-.9,4.8,4.8,0,0,0,4.7-4.8,4.7,4.7,0,0,0-4.7-4.7A8.5,8.5,0,0,0,186.9,71.2Zm2.9,1.2a5.4,5.4,0,0,1,5.1-3.4,1.5,1.5,0,0,1,1.5,1.5,1.6,1.6,0,0,1-1.5,1.6,18.1,18.1,0,0,0-5.2.7Z"/></clipPath></defs><path class="cls-3" d="M272.8,93.9h15.9v-10H272.8Zm17.9,4H270.8a2,2,0,0,1-2-2v-14a1.9,1.9,0,0,1,2-1.9h19.9a1.9,1.9,0,0,1,2,1.9v14A2,2,0,0,1,290.7,97.9Z"/><g class="cls-4"><rect class="cls-2" x="-995.7" y="-3698.8" width="5804" height="4970.61"/></g><path class="cls-3" d="M262.9,93.9h35.8V6.4H262.9Zm37.8,4H260.9a2,2,0,0,1-2-2V4.4a2,2,0,0,1,2-2h39.8a1.9,1.9,0,0,1,1.9,2V95.9A1.9,1.9,0,0,1,300.7,97.9Z"/><g class="cls-5"><rect class="cls-2" x="-995.7" y="-3698.8" width="5804" height="4964.66"/></g><path class="cls-3" d="M246.9,93.9h12V14.3h-12Zm14,4H245a2,2,0,0,1-2-2V12.3a2,2,0,0,1,2-2h15.9a2,2,0,0,1,2,2V95.9A2,2,0,0,1,260.9,97.9Z"/><g class="cls-6"><rect class="cls-2" x="-995.7" y="-3698.8" width="5804" height="4964.66"/></g><path class="cls-3" d="M302.6,93.9h12V14.3h-12Zm14,4h-16a2,2,0,0,1-1.9-2V12.3a2,2,0,0,1,1.9-2h16a2,2,0,0,1,2,2V95.9A2,2,0,0,1,316.6,97.9Z"/><g class="cls-7"><rect class="cls-2" x="-995.7" y="-3698.8" width="5804" height="4964.66"/></g><rect class="cls-2" x="229" y="54.1" width="4" height="19.89" transform="translate(41.1 210.4) rotate(-53.1)"/><g class="cls-8"><rect class="cls-2" x="-995.7" y="-3698.8" width="5804" height="4964.66"/></g><rect class="cls-2" x="221.1" y="62.1" width="19.9" height="3.98" transform="translate(7.8 151.5) rotate(-36.9)"/><g class="cls-9"><rect class="cls-2" x="-995.7" y="-3698.8" width="5804" height="4964.66"/></g><rect class="cls-2" x="328.5" y="54.1" width="4" height="19.89" transform="translate(80.9 290) rotate(-53.1)"/><g class="cls-10"><rect class="cls-2" x="-995.7" y="-3698.8" width="5804" height="4964.66"/></g><rect class="cls-2" x="320.5" y="62.1" width="19.9" height="3.97" transform="translate(27.6 211) rotate(-36.8)"/><g class="cls-11"><rect class="cls-2" x="-995.7" y="-3698.8" width="5804" height="4964.66"/></g><path class="cls-3" d="M88.7,44.4a9.5,9.5,0,0,0-6.7-9,38.4,38.4,0,0,0-4.6-11.3A9.5,9.5,0,0,0,69,10.2a9.9,9.9,0,0,0-4.4,1.1A39,39,0,0,0,53.4,6.7a9.5,9.5,0,0,0-18.1,0,39,39,0,0,0-11.2,4.6,10,10,0,0,0-7.2-.7c-1.7.6-.9,3.3.8,2.7a6.7,6.7,0,1,1-4.2,3.9,1.4,1.4,0,0,0-2.6-1.1,9.3,9.3,0,0,0,.4,8A41.6,41.6,0,0,0,6.6,35.4a9.4,9.4,0,0,0,0,18,41.6,41.6,0,0,0,4.7,11.3A9.4,9.4,0,0,0,13,75.8a9.6,9.6,0,0,0,11.1,1.7,35.5,35.5,0,0,0,4.3,2.3L24.1,91.4a3.3,3.3,0,0,0,3.1,4.4H61.5a3.4,3.4,0,0,0,3.1-4.4L60.3,79.8a35.5,35.5,0,0,0,4.3-2.3A9.9,9.9,0,0,0,69,78.6a9.3,9.3,0,0,0,2.9-.5c1.7-.5.9-3.2-.8-2.6a6.9,6.9,0,0,1-6.8-1.7,6.6,6.6,0,0,1,0-9.4,6.8,6.8,0,0,1,9.4,0,6.6,6.6,0,0,1,1.5,7.2c-.7,1.6,1.9,2.7,2.6,1a9.9,9.9,0,0,0-.4-7.9A38.4,38.4,0,0,0,82,53.4,9.5,9.5,0,0,0,88.7,44.4Zm-2.8,0a6.7,6.7,0,1,1-13.3,0,6.7,6.7,0,0,1,13.3,0ZM69.9,43H58a12.9,12.9,0,0,0-3-7.3l8.4-8.4A9.5,9.5,0,0,0,70.9,29,34.9,34.9,0,0,1,74,36.5,9.5,9.5,0,0,0,69.9,43ZM58.1,77.7c-1.4.5-2.8,1.1-4.3,1.5a10.1,10.1,0,0,0-.4-2.5,27.7,27.7,0,0,0,7.3-3.1,10.1,10.1,0,0,0,1.5,2.1A31.1,31.1,0,0,1,58.1,77.7Zm-31.6-2A10.1,10.1,0,0,0,28,73.6a27.7,27.7,0,0,0,7.3,3.1,10.1,10.1,0,0,0-.4,2.5A36.4,36.4,0,0,1,26.5,75.7ZM13.1,62.3a43.9,43.9,0,0,1-3.5-8.4l2.5-.4a33,33,0,0,0,3,7.3A13,13,0,0,0,13.1,62.3Zm4.7-2.5a29,29,0,0,1-3.1-7.5,9.5,9.5,0,0,0,4.1-6.5H30.6a13.4,13.4,0,0,0,3.1,7.3l-8.4,8.4A9.6,9.6,0,0,0,17.8,59.8ZM42.9,70a9.3,9.3,0,0,0-6.4,4.1A29.6,29.6,0,0,1,28.9,71a9.2,9.2,0,0,0-1.7-7.5l8.4-8.4a14.8,14.8,0,0,0,7.3,3Zm1.4,2.7a6.7,6.7,0,1,1-6.6,6.7A6.7,6.7,0,0,1,44.3,72.7ZM59.8,71a31.2,31.2,0,0,1-7.6,3.1A9.5,9.5,0,0,0,45.7,70V58.1a14.1,14.1,0,0,0,7.3-3l8.4,8.4A9.6,9.6,0,0,0,59.8,71ZM44.3,55.4a11,11,0,1,1,11-11A10.9,10.9,0,0,1,44.3,55.4Zm-9-43.3A31.4,31.4,0,0,0,28,15.2a9.5,9.5,0,0,0-1.5-2,32.5,32.5,0,0,1,8.4-3.5A10,10,0,0,0,35.3,12.1Zm-6.4,5.8a29.9,29.9,0,0,1,7.6-3.2,9.3,9.3,0,0,0,6.4,4.1V30.7a14.1,14.1,0,0,0-7.2,3l-8.4-8.4A9.4,9.4,0,0,0,28.9,17.9Zm31.8-2.7a31.4,31.4,0,0,0-7.3-3.1,10,10,0,0,0,.4-2.4,34,34,0,0,1,8.4,3.5A9.5,9.5,0,0,0,60.7,15.2Zm-8.5-.5a31.5,31.5,0,0,1,7.6,3.2,9.4,9.4,0,0,0,1.6,7.4L53,33.7a14.1,14.1,0,0,0-7.3-3V18.8A9.5,9.5,0,0,0,52.2,14.7ZM75.5,26.5A33.1,33.1,0,0,1,79,35a9.9,9.9,0,0,0-2.4.3A33.4,33.4,0,0,0,73.5,28,7.5,7.5,0,0,0,75.5,26.5ZM73.7,15a6.6,6.6,0,1,1-9.4,9.4,6.8,6.8,0,0,1,0-9.4A6.6,6.6,0,0,1,73.7,15ZM44.3,2.8a6.7,6.7,0,1,1-6.6,6.7,4.9,4.9,0,0,1,.1-1.2c0-.1.1-.2.1-.4A6.6,6.6,0,0,1,44.3,2.8Zm-19,24.5,8.4,8.4A13.7,13.7,0,0,0,30.6,43H18.8a9.5,9.5,0,0,0-4.1-6.5A30.5,30.5,0,0,1,17.8,29,9.5,9.5,0,0,0,25.3,27.3ZM15.1,28a33,33,0,0,0-3,7.3A9.9,9.9,0,0,0,9.7,35a36.8,36.8,0,0,1,3.4-8.5A13,13,0,0,0,15.1,28ZM2.8,44.4a6.7,6.7,0,1,1,6.6,6.7A6.7,6.7,0,0,1,2.8,44.4ZM19.7,75.8a6.3,6.3,0,0,1-4.7-2,6.6,6.6,0,0,1,0-9.4,6.8,6.8,0,0,1,9.4,0,6.7,6.7,0,0,1-4.7,11.4ZM61.9,92.4c.1.3,0,.5-.4.6H27.2c-.4-.1-.5-.3-.5-.6L31,80.9l4.3,1.3a9.5,9.5,0,0,0,18.1,0l4.3-1.3Zm1.5-30.9L55,53.1a12.6,12.6,0,0,0,3-7.3H69.9A9.5,9.5,0,0,0,74,52.3a32.9,32.9,0,0,1-3.1,7.5H69A9.4,9.4,0,0,0,63.4,61.5Zm10.1-.7a33.4,33.4,0,0,0,3.1-7.3l2.4.4a34,34,0,0,1-3.5,8.4A7.5,7.5,0,0,0,73.5,60.8Z"/><g class="cls-12"><rect class="cls-2" x="-4520" y="-2215.4" width="5391.4" height="4611.73"/><g class="cls-13"><rect class="cls-2" x="-27.6" y="-27.6" width="144" height="151.08"/></g></g><path class="cls-2" d="M-232.2,98.3h-74.6a2.5,2.5,0,0,1-2.5-2.6V90.3a2.6,2.6,0,0,1,2.5-2.6h28.6a6.5,6.5,0,0,1-.7-2.1,7.2,7.2,0,0,1,1.4-5.3l1-1.1a7.4,7.4,0,0,0,1.4-5.6l-.4-2.4h-11.2a6.1,6.1,0,0,1-5.9-6.2.7.7,0,0,0-.4-.7l-2.3-1.7a2.4,2.4,0,0,1-1-2.9,2.6,2.6,0,0,1,2.4-1.9h19.3V54.9h-6.5a6,6,0,0,1-5.8-6.2.8.8,0,0,0-.4-.7l-2.4-1.7a2.7,2.7,0,0,1-1-2.9,2.6,2.6,0,0,1,2.4-1.9h13.7V40.1a10,10,0,0,0-5.7-9.3l-.7-.4V27.9h23.1v2.5l-.8.4a10.2,10.2,0,0,0-5.7,9.3v1.4h13.7a2.6,2.6,0,0,1,2.4,1.9,2.7,2.7,0,0,1-1,2.9l-2.3,1.6a.9.9,0,0,0-.4.8,6.1,6.1,0,0,1-5.9,6.2h-6.5v2.9h19.3a2.6,2.6,0,0,1,2.5,1.9,2.7,2.7,0,0,1-1,2.9l-2.4,1.6a1.2,1.2,0,0,0-.4.8,6,6,0,0,1-5.9,6.2h-11.2l-.4,2.4a7,7,0,0,0,1.5,5.6l.9,1.1a6.7,6.7,0,0,1,1.4,5.3,5.8,5.8,0,0,1-.7,2.1h28.6a2.6,2.6,0,0,1,2.5,2.6v5.4A2.5,2.5,0,0,1-232.2,98.3Zm-74.6-8.1h0v5.4h74.6V90.3h-35.1l3.1-2.3a3.7,3.7,0,0,0,1.6-2.7,4.2,4.2,0,0,0-.8-3.3l-1-1.1a9.8,9.8,0,0,1-2-7.6l.8-4.5h13.3a3.6,3.6,0,0,0,3.4-3.7,3.5,3.5,0,0,1,1.5-2.8l2.3-1.7a.1.1,0,0,0,.1-.1h-21.9V52.4h9a3.5,3.5,0,0,0,3.4-3.7,3.4,3.4,0,0,1,1.4-2.8l2.4-1.7h-16.2V40.1a13.2,13.2,0,0,1,4.2-9.7h-13.6a13.2,13.2,0,0,1,4.2,9.7V44h-16.2c0,.2,0,.2.1.2l2.3,1.7a3.5,3.5,0,0,1,1.5,2.8,3.5,3.5,0,0,0,3.3,3.7h9v7.9h-21.8a.1.1,0,0,0,0,.2l2.4,1.7a3.4,3.4,0,0,1,1.4,2.8,3.6,3.6,0,0,0,3.4,3.7h13.4l.7,4.5a9.8,9.8,0,0,1-2,7.6l-.9,1.1a3.9,3.9,0,0,0-.9,3.3,4,4,0,0,0,1.6,2.7l3.1,2.3Z"/><g class="cls-14"><path class="cls-2" d="M2153.4,1882.2H-2723.9V-2524H2153.4Zm-4874.3-3H2150.4V-2521H-2720.9Z"/></g><path class="cls-3" d="M-301.9,57.1a2.9,2.9,0,0,1,2.9-2.8,5.6,5.6,0,0,0,5.6-5.6V41.6a2.8,2.8,0,0,1,2.8-2.8h8.4V36h-8.4a5.6,5.6,0,0,0-5.6,5.6v7.1a2.9,2.9,0,0,1-2.8,2.8,5.6,5.6,0,0,0-5.7,5.6V76.8h2.8Z"/><g class="cls-15"><rect class="cls-2" x="-2955.7" y="-2619.9" width="5338" height="4566.05"/></g><path class="cls-2" d="M-269.5,25.5a2.2,2.2,0,0,1-1.8-1l-3.2-5.4a2.1,2.1,0,0,1,.3-2.6l3.2-3.2a2.2,2.2,0,0,1,3,0l3.2,3.2a2,2,0,0,1,.4,2.6l-3.2,5.4A2.3,2.3,0,0,1-269.5,25.5Zm0-2.2Zm0-8.4-3.2,3.2,3.2,5.2,3.2-5.3Z"/><g class="cls-16"><path class="cls-2" d="M1737.6,1478H-2302.7V-1978.4H1737.6Zm-4038.1-2.2H1735.4v-3452H-2300.5Z"/></g><path class="cls-3" d="M-256.8,36v2.8h8.4a2.9,2.9,0,0,1,2.9,2.8v7.1a5.6,5.6,0,0,0,5.6,5.6,2.9,2.9,0,0,1,2.8,2.8V76.8h2.8V57.1a5.6,5.6,0,0,0-5.6-5.6,2.8,2.8,0,0,1-2.8-2.8V41.6a5.7,5.7,0,0,0-5.7-5.6Z"/><g class="cls-17"><rect class="cls-2" x="-2955.7" y="-2619.9" width="5338" height="4566.05"/></g><path class="cls-3" d="M-251.2,26.1h2.8a8.4,8.4,0,0,0-8.4-8.4h-2.8v2.8h2.8a5.6,5.6,0,0,1,5.6,5.6"/><g class="cls-18"><rect class="cls-2" x="-2955.7" y="-2619.9" width="5338" height="4566.05"/></g><path class="cls-3" d="M-282.2,20.5h2.9V17.7h-2.9a8.5,8.5,0,0,0-8.4,8.4h2.8a5.6,5.6,0,0,1,5.6-5.6"/><g class="cls-19"><rect class="cls-2" x="-2955.7" y="-2619.9" width="5338" height="4566.05"/></g><path class="cls-3" d="M197.7,85a4.3,4.3,0,0,1-6.2,0,7.7,7.7,0,0,0-10.1,0,4.3,4.3,0,0,1-6.2,0,7.7,7.7,0,0,0-10.1,0,4.4,4.4,0,0,1-3.1,1.3,4.4,4.4,0,0,1-1.8-.4V43.8h22.1v3.1h3.1V43.8H187a3.1,3.1,0,0,0,3.1-3.2V37.5a3.1,3.1,0,0,0-3.1-3.2h-.1A29.9,29.9,0,0,0,158.6,6.1V4.4a4.7,4.7,0,1,0-9.4,0V6.1a29.9,29.9,0,0,0-28.3,28.2h0a3.2,3.2,0,0,0-3.2,3.2v3.1a3.2,3.2,0,0,0,3.2,3.2h1.5v3.1h3.2V43.8h22V85.9a4.4,4.4,0,0,1-1.8.4,4.4,4.4,0,0,1-3.1-1.3,7.8,7.8,0,0,0-5.1-1.9,7.5,7.5,0,0,0-5,1.9,4.3,4.3,0,0,1-6.2,0,7.7,7.7,0,0,0-10.1,0,4.4,4.4,0,0,1-3.1,1.3,4.6,4.6,0,0,1-3.1-1.3,7.5,7.5,0,0,0-5-1.9v3.2a4.4,4.4,0,0,1,3.1,1.2,7.2,7.2,0,0,0,5,1.9,7.3,7.3,0,0,0,5.1-1.9,4.4,4.4,0,0,1,3.1-1.2,4.6,4.6,0,0,1,3.1,1.2,7.5,7.5,0,0,0,10,0,4.6,4.6,0,0,1,3.1-1.2,4.4,4.4,0,0,1,3.1,1.2,7.3,7.3,0,0,0,5.1,1.9,7.2,7.2,0,0,0,5-1.9,4.6,4.6,0,0,1,6.2,0,7.2,7.2,0,0,0,5,1.9,7.3,7.3,0,0,0,5.1-1.9,4.4,4.4,0,0,1,3.1-1.2,4.6,4.6,0,0,1,3.1,1.2,7.5,7.5,0,0,0,10,0,4.6,4.6,0,0,1,3.1-1.2,4.4,4.4,0,0,1,3.1,1.2,7.3,7.3,0,0,0,5.1,1.9,7,7,0,0,0,5-1.9,4.6,4.6,0,0,1,3.1-1.2V83.1A7.7,7.7,0,0,0,197.7,85ZM153.9,2.8a1.6,1.6,0,0,1,1.6,1.6V6h-3.2V4.4A1.6,1.6,0,0,1,153.9,2.8Zm-4.3,6.4a36.5,36.5,0,0,0-8.3,11.9l2.8,1.3a34.3,34.3,0,0,1,9.8-12.8,33.7,33.7,0,0,1,12.6,24.7H141.4a30.3,30.3,0,0,1,1.6-8.9l-3-1a41.2,41.2,0,0,0-1.8,9.9H124.1A26.7,26.7,0,0,1,149.6,9.2ZM120.9,37.5h53.5V34.3h-4.8A36.6,36.6,0,0,0,158.3,9.2a26.8,26.8,0,0,1,25.5,25.1h-6.3v3.2H187v3.1H120.9Zm33,45.6a6.8,6.8,0,0,0-3.1.7v-40h6.3v40A7.6,7.6,0,0,0,153.9,83.1Z"/><g class="cls-20"><rect class="cls-2" x="-2642.9" y="-2402.3" width="5224.4" height="4468.85"/><g class="cls-21"><rect class="cls-2" x="78.3" y="-27.1" width="151.2" height="143.33"/></g></g><path class="cls-3" d="M194.6,94.1a4.4,4.4,0,0,1-3.1-1.2,7.7,7.7,0,0,0-10.1,0,4.6,4.6,0,0,1-6.2,0,7.7,7.7,0,0,0-10.1,0,4.4,4.4,0,0,1-3.1,1.2,4.6,4.6,0,0,1-3.1-1.2,7.5,7.5,0,0,0-10,0,4.8,4.8,0,0,1-3.1,1.2,4.4,4.4,0,0,1-3.1-1.2,7.8,7.8,0,0,0-5.1-1.9,7.5,7.5,0,0,0-5,1.9,4.6,4.6,0,0,1-6.2,0,7.7,7.7,0,0,0-10.1,0,4.4,4.4,0,0,1-3.1,1.2,4.6,4.6,0,0,1-3.1-1.2,7.5,7.5,0,0,0-5-1.9v3.1a4.4,4.4,0,0,1,3.1,1.3,7.7,7.7,0,0,0,10.1,0,4.4,4.4,0,0,1,3.1-1.3,4.6,4.6,0,0,1,3.1,1.3,7.5,7.5,0,0,0,10,0,4.6,4.6,0,0,1,3.1-1.3,4.4,4.4,0,0,1,3.1,1.3,7.7,7.7,0,0,0,10.1,0,4.3,4.3,0,0,1,6.2,0,7.7,7.7,0,0,0,10.1,0,4.4,4.4,0,0,1,3.1-1.3,4.6,4.6,0,0,1,3.1,1.3,7.5,7.5,0,0,0,10,0,4.6,4.6,0,0,1,3.1-1.3,4.4,4.4,0,0,1,3.1,1.3,7.8,7.8,0,0,0,5.1,1.9,7.5,7.5,0,0,0,5-1.9,4.6,4.6,0,0,1,3.1-1.3V91a7.7,7.7,0,0,0-5,1.9,4.4,4.4,0,0,1-3.1,1.2"/><g class="cls-22"><rect class="cls-2" x="-2642.9" y="-2402.3" width="5224.4" height="4468.85"/><g class="cls-21"><rect class="cls-2" x="78.3" y="64.2" width="151.2" height="59.89"/></g></g><path class="cls-3" d="M163.4,75.3a4.7,4.7,0,0,0,9.4,0V72.1h-3.1v3.2a1.6,1.6,0,0,1-3.2,0V53.2h-3.1Z"/><g class="cls-23"><rect class="cls-2" x="-2642.9" y="-2402.3" width="5224.4" height="4468.85"/></g><path class="cls-3" d="M185.4,64.2V56.4h-3.1v7.8a1.6,1.6,0,0,1-3.2,0V51.6a4.7,4.7,0,1,0-9.4,0v4.8h3.1V51.6a1.6,1.6,0,0,1,3.2,0V64.2a4.7,4.7,0,1,0,9.4,0"/><g class="cls-24"><rect class="cls-2" x="-2642.9" y="-2402.3" width="5224.4" height="4468.85"/></g><path class="cls-3" d="M141.3,75.3a1.6,1.6,0,0,1-1.6,1.5,1.5,1.5,0,0,1-1.5-1.5V72.1H135v3.2a4.7,4.7,0,0,0,4.7,4.7,4.8,4.8,0,0,0,4.8-4.7V53.2h-3.2Z"/><g class="cls-25"><rect class="cls-2" x="-2642.9" y="-2402.3" width="5224.4" height="4468.85"/></g><path class="cls-3" d="M122.4,64.2a4.8,4.8,0,1,0,9.5,0V51.6a1.5,1.5,0,0,1,1.5-1.5,1.6,1.6,0,0,1,1.6,1.5v4.8h3.2V51.6a4.8,4.8,0,0,0-9.5,0V64.2a1.6,1.6,0,0,1-1.5,1.6,1.6,1.6,0,0,1-1.6-1.6V56.4h-3.2Z"/><g class="cls-26"><rect class="cls-2" x="-2642.9" y="-2402.3" width="5224.4" height="4468.85"/></g><path class="cls-3" d="M113,75.3a17.7,17.7,0,0,1,5.6.9l5,1.6-2.7-6.6a8.4,8.4,0,0,0-7.9-5.4,4.7,4.7,0,0,0-4.7,4.7,4.8,4.8,0,0,0,4.7,4.8m0-6.3a5.3,5.3,0,0,1,5,3.4l.2.4a18.6,18.6,0,0,0-5.2-.7,1.6,1.6,0,0,1-1.6-1.6A1.6,1.6,0,0,1,113,69"/><g class="cls-27"><rect class="cls-2" x="-2642.9" y="-2402.3" width="5224.4" height="4468.85"/><g class="cls-21"><rect class="cls-2" x="81.5" y="39" width="68.9" height="65.6"/></g></g><path class="cls-3" d="M186.9,71.2l-2.6,6.6,4.9-1.6a17.9,17.9,0,0,1,5.7-.9,4.8,4.8,0,0,0,4.7-4.8,4.7,4.7,0,0,0-4.7-4.7A8.5,8.5,0,0,0,186.9,71.2Zm2.9,1.2a5.4,5.4,0,0,1,5.1-3.4,1.5,1.5,0,0,1,1.5,1.5,1.6,1.6,0,0,1-1.5,1.6,18.1,18.1,0,0,0-5.2.7Z"/><g class="cls-28"><rect class="cls-2" x="-2642.9" y="-2402.3" width="5224.4" height="4468.85"/></g></svg>