<svg id="Layer_1" data-name="Layer 1" xmlns="http://www.w3.org/2000/svg" xmlns:xlink="http://www.w3.org/1999/xlink" viewBox="0 0 119.3 95.5"><defs><style>.cls-1,.cls-2,.cls-3{fill:#221c45;}.cls-1{clip-rule:evenodd;}.cls-3{fill-rule:evenodd;}.cls-4{clip-path:url(#clip-path);}.cls-5{clip-path:url(#clip-path-2);}.cls-6{clip-path:url(#clip-path-3);}.cls-7{clip-path:url(#clip-path-4);}.cls-8{clip-path:url(#clip-path-5);}.cls-9{clip-path:url(#clip-path-6);}.cls-10{clip-path:url(#clip-path-8);}.cls-11{clip-path:url(#clip-path-9);}.cls-12{clip-path:url(#clip-path-10);}.cls-13{clip-path:url(#clip-path-11);}.cls-14{clip-path:url(#clip-path-12);}.cls-15{clip-path:url(#clip-path-13);}.cls-16{clip-path:url(#clip-path-14);}.cls-17{clip-path:url(#clip-path-15);}.cls-18{clip-path:url(#clip-path-16);}.cls-19{clip-path:url(#clip-path-17);}.cls-20{clip-path:url(#clip-path-18);}.cls-21{clip-path:url(#clip-path-19);}.cls-22{clip-path:url(#clip-path-20);}.cls-23{clip-path:url(#clip-path-21);}.cls-24{clip-path:url(#clip-path-22);}.cls-25{clip-path:url(#clip-path-23);}.cls-26{clip-path:url(#clip-path-24);}.cls-27{clip-path:url(#clip-path-25);}.cls-28{clip-path:url(#clip-path-26);}.cls-29{clip-path:url(#clip-path-27);}.cls-30{clip-path:url(#clip-path-28);}.cls-31{clip-path:url(#clip-path-29);}.cls-32{clip-path:url(#clip-path-30);}.cls-33{clip-path:url(#clip-path-31);}.cls-34{clip-path:url(#clip-path-32);}.cls-35{clip-path:url(#clip-path-33);}.cls-36{clip-path:url(#clip-path-34);}.cls-37{clip-path:url(#clip-path-35);}.cls-38{clip-path:url(#clip-path-36);}.cls-39{clip-path:url(#clip-path-37);}.cls-40{clip-path:url(#clip-path-38);}.cls-41{clip-path:url(#clip-path-39);}.cls-42{clip-path:url(#clip-path-40);}.cls-43{clip-path:url(#clip-path-41);}.cls-44{clip-path:url(#clip-path-42);}.cls-45{clip-path:url(#clip-path-43);}.cls-46{clip-path:url(#clip-path-44);}.cls-47{clip-path:url(#clip-path-45);}.cls-48{clip-path:url(#clip-path-47);}.cls-49{clip-path:url(#clip-path-48);}.cls-50{clip-path:url(#clip-path-49);}.cls-51{clip-path:url(#clip-path-50);}.cls-52{clip-path:url(#clip-path-51);}.cls-53{clip-path:url(#clip-path-52);}.cls-54{clip-path:url(#clip-path-53);}.cls-55{clip-path:url(#clip-path-54);}.cls-56{clip-path:url(#clip-path-55);}.cls-57{clip-path:url(#clip-path-56);}.cls-58{clip-path:url(#clip-path-57);}.cls-59{clip-path:url(#clip-path-58);}.cls-60{clip-path:url(#clip-path-60);}.cls-61{clip-path:url(#clip-path-62);}.cls-62{clip-path:url(#clip-path-63);}.cls-63{clip-path:url(#clip-path-65);}.cls-64{clip-path:url(#clip-path-67);}.cls-65{clip-path:url(#clip-path-68);}.cls-66{clip-path:url(#clip-path-69);}.cls-67{clip-path:url(#clip-path-70);}.cls-68{clip-path:url(#clip-path-71);}.cls-69{clip-path:url(#clip-path-72);}.cls-70{clip-path:url(#clip-path-73);}.cls-71{clip-path:url(#clip-path-74);}.cls-72{clip-path:url(#clip-path-75);}.cls-73{clip-path:url(#clip-path-76);}.cls-74{clip-path:url(#clip-path-78);}.cls-75{clip-path:url(#clip-path-79);}.cls-76{clip-path:url(#clip-path-80);}.cls-77{clip-path:url(#clip-path-81);}.cls-78{clip-path:url(#clip-path-82);}.cls-79{clip-path:url(#clip-path-83);}</style><clipPath id="clip-path"><path class="cls-1" d="M51.7,91.5H67.6V81.6H51.7Zm17.9,4H49.7a2,2,0,0,1-2-2V79.6a2,2,0,0,1,2-2H69.6a2,2,0,0,1,2,2V93.5A2,2,0,0,1,69.6,95.5Z"/></clipPath><clipPath id="clip-path-2"><rect class="cls-2" x="-1216.8" y="-3701.2" width="5804" height="4970.61"/></clipPath><clipPath id="clip-path-3"><rect class="cls-2" x="57.7" y="79.6" width="4" height="13.93"/></clipPath><clipPath id="clip-path-4"><path class="cls-1" d="M41.8,91.5H77.6V4H41.8Zm37.8,4H39.8a2,2,0,0,1-2-2V2a2,2,0,0,1,2-2H79.6a2,2,0,0,1,2,2V93.5A2,2,0,0,1,79.6,95.5Z"/></clipPath><clipPath id="clip-path-5"><rect class="cls-2" x="-1216.8" y="-3701.2" width="5804" height="4964.66"/></clipPath><clipPath id="clip-path-6"><path class="cls-1" d="M25.9,91.5H37.8V11.9H25.9Zm13.9,4H23.9a2,2,0,0,1-2-2V9.9a1.9,1.9,0,0,1,2-1.9H39.8a1.9,1.9,0,0,1,2,1.9V93.5A2,2,0,0,1,39.8,95.5Z"/></clipPath><clipPath id="clip-path-8"><rect class="cls-2" x="17.9" y="8" width="6" height="3.98"/></clipPath><clipPath id="clip-path-9"><rect class="cls-2" x="33.8" width="51.7" height="3.97"/></clipPath><clipPath id="clip-path-10"><rect class="cls-2" x="45.7" y="67.6" width="4" height="5.97"/></clipPath><clipPath id="clip-path-11"><rect class="cls-2" x="53.7" y="67.6" width="4" height="5.97"/></clipPath><clipPath id="clip-path-12"><rect class="cls-2" x="61.7" y="67.6" width="4" height="5.97"/></clipPath><clipPath id="clip-path-13"><rect class="cls-2" x="69.6" y="67.6" width="4" height="5.97"/></clipPath><clipPath id="clip-path-14"><rect class="cls-2" x="45.7" y="57.7" width="4" height="5.97"/></clipPath><clipPath id="clip-path-15"><rect class="cls-2" x="53.7" y="57.7" width="4" height="5.97"/></clipPath><clipPath id="clip-path-16"><rect class="cls-2" x="61.7" y="57.7" width="4" height="5.97"/></clipPath><clipPath id="clip-path-17"><rect class="cls-2" x="69.6" y="57.7" width="4" height="5.97"/></clipPath><clipPath id="clip-path-18"><rect class="cls-2" x="45.7" y="47.7" width="4" height="5.97"/></clipPath><clipPath id="clip-path-19"><rect class="cls-2" x="53.7" y="47.7" width="4" height="5.97"/></clipPath><clipPath id="clip-path-20"><rect class="cls-2" x="61.7" y="47.7" width="4" height="5.97"/></clipPath><clipPath id="clip-path-21"><rect class="cls-2" x="69.6" y="47.7" width="4" height="5.97"/></clipPath><clipPath id="clip-path-22"><rect class="cls-2" x="45.7" y="37.8" width="4" height="5.96"/></clipPath><clipPath id="clip-path-23"><rect class="cls-2" x="53.7" y="37.8" width="4" height="5.96"/></clipPath><clipPath id="clip-path-24"><rect class="cls-2" x="61.7" y="37.8" width="4" height="5.96"/></clipPath><clipPath id="clip-path-25"><rect class="cls-2" x="69.6" y="37.8" width="4" height="5.96"/></clipPath><clipPath id="clip-path-26"><rect class="cls-2" x="45.7" y="27.8" width="4" height="5.97"/></clipPath><clipPath id="clip-path-27"><rect class="cls-2" x="53.7" y="27.8" width="4" height="5.97"/></clipPath><clipPath id="clip-path-28"><rect class="cls-2" x="61.7" y="27.8" width="4" height="5.97"/></clipPath><clipPath id="clip-path-29"><rect class="cls-2" x="69.6" y="27.8" width="4" height="5.97"/></clipPath><clipPath id="clip-path-30"><rect class="cls-2" x="45.7" y="17.9" width="4" height="5.97"/></clipPath><clipPath id="clip-path-31"><rect class="cls-2" x="53.7" y="17.9" width="4" height="5.97"/></clipPath><clipPath id="clip-path-32"><rect class="cls-2" x="61.7" y="17.9" width="4" height="5.97"/></clipPath><clipPath id="clip-path-33"><rect class="cls-2" x="69.6" y="17.9" width="4" height="5.97"/></clipPath><clipPath id="clip-path-34"><rect class="cls-2" x="45.7" y="8" width="4" height="5.97"/></clipPath><clipPath id="clip-path-35"><rect class="cls-2" x="53.7" y="8" width="4" height="5.97"/></clipPath><clipPath id="clip-path-36"><rect class="cls-2" x="61.7" y="8" width="4" height="5.97"/></clipPath><clipPath id="clip-path-37"><rect class="cls-2" x="69.6" y="8" width="4" height="5.97"/></clipPath><clipPath id="clip-path-38"><rect class="cls-2" x="29.8" y="77.6" width="4" height="5.97"/></clipPath><clipPath id="clip-path-39"><rect class="cls-2" x="29.8" y="67.6" width="4" height="5.97"/></clipPath><clipPath id="clip-path-40"><rect class="cls-2" x="29.8" y="57.7" width="4" height="5.97"/></clipPath><clipPath id="clip-path-41"><rect class="cls-2" x="29.8" y="47.7" width="4" height="5.97"/></clipPath><clipPath id="clip-path-42"><rect class="cls-2" x="29.8" y="37.8" width="4" height="5.96"/></clipPath><clipPath id="clip-path-43"><rect class="cls-2" x="29.8" y="27.8" width="4" height="5.97"/></clipPath><clipPath id="clip-path-44"><rect class="cls-2" x="29.8" y="17.9" width="4" height="5.97"/></clipPath><clipPath id="clip-path-45"><path class="cls-1" d="M81.6,91.5H93.5V11.9H81.6Zm13.9,4H79.6a2,2,0,0,1-2-2V9.9a1.9,1.9,0,0,1,2-1.9H95.5a1.9,1.9,0,0,1,2,1.9V93.5A2,2,0,0,1,95.5,95.5Z"/></clipPath><clipPath id="clip-path-47"><rect class="cls-2" x="95.5" y="8" width="6" height="3.98"/></clipPath><clipPath id="clip-path-48"><rect class="cls-2" x="85.5" y="77.6" width="4" height="5.97"/></clipPath><clipPath id="clip-path-49"><rect class="cls-2" x="85.5" y="67.6" width="4" height="5.97"/></clipPath><clipPath id="clip-path-50"><rect class="cls-2" x="85.5" y="57.7" width="4" height="5.97"/></clipPath><clipPath id="clip-path-51"><rect class="cls-2" x="85.5" y="47.7" width="4" height="5.97"/></clipPath><clipPath id="clip-path-52"><rect class="cls-2" x="85.5" y="37.8" width="4" height="5.96"/></clipPath><clipPath id="clip-path-53"><rect class="cls-2" x="85.5" y="27.8" width="4" height="5.97"/></clipPath><clipPath id="clip-path-54"><rect class="cls-2" x="85.5" y="17.9" width="4" height="5.97"/></clipPath><clipPath id="clip-path-55"><rect class="cls-2" y="91.5" width="23.9" height="3.97"/></clipPath><clipPath id="clip-path-56"><rect class="cls-2" x="95.5" y="91.5" width="23.9" height="3.97"/></clipPath><clipPath id="clip-path-57"><rect class="cls-2" x="8" y="51.7" width="4" height="41.77"/></clipPath><clipPath id="clip-path-58"><rect class="cls-2" x="8" y="51.7" width="4" height="19.89" transform="translate(-45.3 32.6) rotate(-53.1)"/></clipPath><clipPath id="clip-path-60"><rect class="cls-2" y="59.7" width="19.9" height="3.98" transform="translate(-35 18.3) rotate(-36.9)"/></clipPath><clipPath id="clip-path-62"><rect class="cls-2" x="107.4" y="51.7" width="4" height="41.77"/></clipPath><clipPath id="clip-path-63"><rect class="cls-2" x="107.4" y="51.7" width="4" height="19.89" transform="translate(-5.6 112.2) rotate(-53.1)"/></clipPath><clipPath id="clip-path-65"><rect class="cls-2" x="99.4" y="59.7" width="19.9" height="3.97" transform="translate(-15.1 77.9) rotate(-36.8)"/></clipPath><clipPath id="clip-path-67"><path class="cls-1" d="M-132.4,42a9.5,9.5,0,0,0-6.6-9,41.6,41.6,0,0,0-4.7-11.3,9.5,9.5,0,0,0-1.7-11.1,9.2,9.2,0,0,0-6.7-2.7,9.8,9.8,0,0,0-4.4,1,37.8,37.8,0,0,0-11.2-4.6,9.5,9.5,0,0,0-9-6.7,9.5,9.5,0,0,0-9.1,6.7A39,39,0,0,0-197,8.9a9.4,9.4,0,0,0-7.2-.6,1.4,1.4,0,0,0,.8,2.7,6.6,6.6,0,0,1,6.7,1.6,6.6,6.6,0,0,1,0,9.4,6.6,6.6,0,0,1-9.4,0,6.6,6.6,0,0,1-1.5-7.2c.7-1.6-1.9-2.8-2.6-1.1a9.7,9.7,0,0,0,.4,8A38.4,38.4,0,0,0-214.4,33a9.5,9.5,0,0,0-6.7,9,9.5,9.5,0,0,0,6.7,9.1,39,39,0,0,0,4.6,11.2,9.4,9.4,0,0,0,1.7,11.1A9.6,9.6,0,0,0-197,75.1a35.5,35.5,0,0,0,4.3,2.3L-197,89a3.4,3.4,0,0,0,3.1,4.4h34.3a3.3,3.3,0,0,0,3.1-4.4l-4.3-11.6a35.5,35.5,0,0,0,4.3-2.3,9.9,9.9,0,0,0,4.4,1.1,7.1,7.1,0,0,0,2.9-.5c1.7-.5.9-3.2-.8-2.6a7,7,0,0,1-6.8-1.6,7,7,0,0,1,0-9.5,6.8,6.8,0,0,1,9.4,0,6.6,6.6,0,0,1,1.5,7.2c-.6,1.6,1.9,2.8,2.6,1.1a9.3,9.3,0,0,0-.4-8A42.3,42.3,0,0,0-139,51.1,9.5,9.5,0,0,0-132.4,42Zm-2.8,0a6.7,6.7,0,0,1-6.6,6.7,6.7,6.7,0,0,1-6.7-6.7,6.7,6.7,0,0,1,6.7-6.6A6.7,6.7,0,0,1-135.2,42Zm-16-1.4H-163a14.1,14.1,0,0,0-3.1-7.3l8.4-8.4a9.5,9.5,0,0,0,7.5,1.7,29.6,29.6,0,0,1,3.1,7.6A9.4,9.4,0,0,0-151.2,40.6ZM-163,75.3c-1.4.5-2.8,1.1-4.3,1.5a6.9,6.9,0,0,0-.4-2.5,31.2,31.2,0,0,0,7.3-3,9.5,9.5,0,0,0,1.5,2A31.1,31.1,0,0,1-163,75.3Zm-31.6-2a9.5,9.5,0,0,0,1.5-2,31.2,31.2,0,0,0,7.3,3,10.1,10.1,0,0,0-.4,2.5A38.3,38.3,0,0,1-194.6,73.3Zm-13.3-13.4a34,34,0,0,1-3.5-8.4,10,10,0,0,0,2.4-.4,31.4,31.4,0,0,0,3.1,7.3A7.5,7.5,0,0,0-207.9,59.9Zm4.6-2.4a35.7,35.7,0,0,1-3.1-7.6,9.5,9.5,0,0,0,4.1-6.5h11.9a12.6,12.6,0,0,0,3,7.3l-8.4,8.4A9.9,9.9,0,0,0-203.3,57.5Zm25.2,10.1a9.9,9.9,0,0,0-6.5,4.1,31.2,31.2,0,0,1-7.6-3.1,9.6,9.6,0,0,0-1.6-7.5l8.4-8.4a12.6,12.6,0,0,0,7.3,3Zm1.4,2.7a6.7,6.7,0,0,1,6.6,6.7,6.7,6.7,0,0,1-6.6,6.6,6.7,6.7,0,0,1-6.7-6.6A6.7,6.7,0,0,1-176.7,70.3Zm15.4-1.7a29.6,29.6,0,0,1-7.6,3.1,9.7,9.7,0,0,0-6.4-4.1V55.7a13.2,13.2,0,0,0,7.3-3l8.4,8.4A9.2,9.2,0,0,0-161.3,68.6ZM-176.7,53a11,11,0,0,1-11-11,10.9,10.9,0,0,1,11-10.9A10.9,10.9,0,0,1-165.8,42,10.9,10.9,0,0,1-176.7,53Zm-9.1-43.3a36.4,36.4,0,0,0-7.3,3.1,9.5,9.5,0,0,0-1.5-2,34,34,0,0,1,8.4-3.5A9.3,9.3,0,0,0-185.8,9.7Zm-6.4,5.8a31.5,31.5,0,0,1,7.6-3.2,9.5,9.5,0,0,0,6.5,4.1V28.3a14.1,14.1,0,0,0-7.3,3l-8.4-8.4A9.3,9.3,0,0,0-192.2,15.5Zm31.8-2.7a36.4,36.4,0,0,0-7.3-3.1,6.4,6.4,0,0,0,.4-2.4,36.4,36.4,0,0,1,8.4,3.5A9.5,9.5,0,0,0-160.4,12.8Zm-8.5-.5a29.9,29.9,0,0,1,7.6,3.2,9.4,9.4,0,0,0,1.6,7.4l-8.4,8.4a14.1,14.1,0,0,0-7.2-3V16.4A9.3,9.3,0,0,0-168.9,12.3Zm23.4,11.9a34.7,34.7,0,0,1,3.5,8.4,6.9,6.9,0,0,0-2.5.4,31.9,31.9,0,0,0-3-7.4Zm-1.9-11.6a6.6,6.6,0,0,1,0,9.4,6.6,6.6,0,0,1-9.4,0,6.8,6.8,0,0,1,0-9.4A6.8,6.8,0,0,1-147.4,12.6ZM-176.7.4a6.7,6.7,0,0,1,6.6,6.7,6.7,6.7,0,0,1-6.6,6.6,6.7,6.7,0,0,1-6.7-6.6c0-.4.1-.8.1-1.2a.4.4,0,0,0,.1-.3A6.6,6.6,0,0,1-176.7.4Zm-19.1,24.5,8.4,8.4a13.2,13.2,0,0,0-3,7.3h-11.9a9.1,9.1,0,0,0-4.1-6.4,33.7,33.7,0,0,1,3.1-7.6A9.5,9.5,0,0,0-195.8,24.9Zm-10.1.7A32.2,32.2,0,0,0-209,33a6.7,6.7,0,0,0-2.4-.4,31.1,31.1,0,0,1,3.5-8.4A10.1,10.1,0,0,0-205.9,25.6ZM-218.3,42a6.7,6.7,0,0,1,6.7-6.6A6.7,6.7,0,0,1-205,42a6.7,6.7,0,0,1-6.6,6.7A6.7,6.7,0,0,1-218.3,42Zm16.9,31.4a6.7,6.7,0,0,1-4.7-1.9,6.8,6.8,0,0,1,0-9.5,6.8,6.8,0,0,1,9.4,0,6.8,6.8,0,0,1,0,9.5A6.8,6.8,0,0,1-201.4,73.4ZM-159.1,90c0,.3-.1.5-.5.6h-34.3c-.4-.1-.5-.3-.4-.6l4.2-11.5,4.3,1.3a9.5,9.5,0,0,0,9.1,6.6,9.5,9.5,0,0,0,9-6.6l4.3-1.3Zm1.4-30.9-8.4-8.4a13.4,13.4,0,0,0,3.1-7.3h11.8a9.9,9.9,0,0,0,4.1,6.5,31.2,31.2,0,0,1-3.1,7.6,5.8,5.8,0,0,0-1.9-.2A9.4,9.4,0,0,0-157.7,59.1Zm10.2-.7a31.2,31.2,0,0,0,3-7.3,10.1,10.1,0,0,0,2.5.4,38.3,38.3,0,0,1-3.5,8.4A9.5,9.5,0,0,0-147.5,58.4Z"/></clipPath><clipPath id="clip-path-68"><path class="cls-2" d="M-453.3,96h-74.6a2.6,2.6,0,0,1-2.5-2.6V87.9a2.6,2.6,0,0,1,2.5-2.6h28.6a10.3,10.3,0,0,1-.7-2.1,7.2,7.2,0,0,1,1.5-5.3l.9-1.1a6.9,6.9,0,0,0,1.4-5.6l-.3-2.4h-11.3a6.1,6.1,0,0,1-5.9-6.1c0-.4-.1-.7-.4-.8l-2.3-1.7a2.7,2.7,0,0,1-1-2.9,2.6,2.6,0,0,1,2.4-1.9h19.3V52.5h-6.4a6,6,0,0,1-5.9-6.1.9.9,0,0,0-.4-.8l-2.4-1.7a2.7,2.7,0,0,1-1-2.9,2.6,2.6,0,0,1,2.5-1.9h13.6V37.7a10,10,0,0,0-5.7-9.3l-.7-.3V25.6H-479v2.5l-.8.3a10.2,10.2,0,0,0-5.7,9.3v1.4h13.7a2.6,2.6,0,0,1,2.4,1.9,2.4,2.4,0,0,1-1,2.9l-2.3,1.7c-.3.1-.4.4-.4.8a6,6,0,0,1-5.9,6.1h-6.5v2.9h19.4a2.6,2.6,0,0,1,2.4,1.9,2.7,2.7,0,0,1-1,2.9l-2.4,1.7a.9.9,0,0,0-.4.8,6,6,0,0,1-5.8,6.1h-11.3l-.4,2.4a7,7,0,0,0,1.5,5.6l.9,1.1a6.7,6.7,0,0,1,1.4,5.3,4.8,4.8,0,0,1-.7,2.1h28.6a2.6,2.6,0,0,1,2.6,2.6v5.5A2.6,2.6,0,0,1-453.3,96Zm-74.6-8.2h0v5.5h74.7V87.9h-35.1l3-2.2a4.6,4.6,0,0,0,1.7-2.8,4.7,4.7,0,0,0-.9-3.3l-.9-1.1a9.4,9.4,0,0,1-2-7.6l.7-4.5h13.4a3.5,3.5,0,0,0,3.3-3.6,3.6,3.6,0,0,1,1.5-2.9l2.4-1.6V58H-488V50h9a3.5,3.5,0,0,0,3.4-3.6,3.6,3.6,0,0,1,1.4-2.9l2.4-1.6c0-.1.1-.1,0-.2H-488V37.7a12.6,12.6,0,0,1,4.3-9.6h-13.7a12.8,12.8,0,0,1,4.2,9.6v3.9h-16.1c-.1.2-.1.2,0,.3l2.3,1.6a3.6,3.6,0,0,1,1.5,2.9,3.5,3.5,0,0,0,3.4,3.6h8.9v7.9H-515v.3l2.4,1.6a3.6,3.6,0,0,1,1.4,2.9,3.5,3.5,0,0,0,3.4,3.6h13.4l.7,4.5a9.8,9.8,0,0,1-2,7.6l-.9,1.1a4.4,4.4,0,0,0-.9,3.4,4.7,4.7,0,0,0,1.6,2.7l3.1,2.2Z"/></clipPath><clipPath id="clip-path-69"><path class="cls-1" d="M-523,54.7a2.9,2.9,0,0,1,2.9-2.8,5.6,5.6,0,0,0,5.6-5.6V39.2a2.9,2.9,0,0,1,2.8-2.8h8.5V33.6h-8.5a5.6,5.6,0,0,0-5.6,5.6v7.1a2.9,2.9,0,0,1-2.8,2.8,5.7,5.7,0,0,0-5.7,5.6V74.4h2.8Z"/></clipPath><clipPath id="clip-path-70"><path class="cls-2" d="M-490.6,23.1a2.2,2.2,0,0,1-1.8-1l-3.2-5.3a2.3,2.3,0,0,1,.3-2.7l3.2-3.2a2.3,2.3,0,0,1,3.1,0l3.2,3.2a2.3,2.3,0,0,1,.3,2.7l-3.2,5.3A2.3,2.3,0,0,1-490.6,23.1Zm.1-2.1Zm-.1-8.5-3.1,3.2,3.1,5.2,3.2-5.3Z"/></clipPath><clipPath id="clip-path-71"><path class="cls-1" d="M-477.9,33.6v2.8h8.5a2.9,2.9,0,0,1,2.8,2.8v7.1a5.6,5.6,0,0,0,5.6,5.6,2.8,2.8,0,0,1,2.8,2.8V74.4h2.8V54.7a5.6,5.6,0,0,0-5.6-5.6,2.9,2.9,0,0,1-2.8-2.8V39.2a5.6,5.6,0,0,0-5.6-5.6Z"/></clipPath><clipPath id="clip-path-72"><path class="cls-1" d="M-472.3,23.8h2.9a8.5,8.5,0,0,0-8.5-8.5h-2.8v2.8h2.8a5.6,5.6,0,0,1,5.6,5.7"/></clipPath><clipPath id="clip-path-73"><path class="cls-1" d="M-503.2,18.1h2.8V15.3h-2.8a8.5,8.5,0,0,0-8.5,8.5h2.8a5.7,5.7,0,0,1,5.7-5.7"/></clipPath><clipPath id="clip-path-74"><path class="cls-1" d="M-23.4,82.6a4.1,4.1,0,0,1-3.1,1.3,4.1,4.1,0,0,1-3.1-1.3,7.7,7.7,0,0,0-5-1.9,7.8,7.8,0,0,0-5.1,1.9,4.1,4.1,0,0,1-3.1,1.3,4.1,4.1,0,0,1-3.1-1.3,7.5,7.5,0,0,0-5-1.9A7.8,7.8,0,0,0-56,82.6a4.1,4.1,0,0,1-3.1,1.3,4.8,4.8,0,0,1-1.8-.4V41.4h22.1v3.1h3.1V41.4h1.6A3.1,3.1,0,0,0-31,38.2V35.1a3.2,3.2,0,0,0-3.1-3.2h-.1A29.9,29.9,0,0,0-62.4,3.7V2a4.8,4.8,0,0,0-4.8-4.7A4.7,4.7,0,0,0-71.9,2V3.7a29.8,29.8,0,0,0-28.2,28.2h-.1a3.2,3.2,0,0,0-3.2,3.2v3.1a3.2,3.2,0,0,0,3.2,3.2h1.5v3.1h3.2V41.4h22V83.5a4.4,4.4,0,0,1-1.8.4,4.1,4.1,0,0,1-3.1-1.3,7.8,7.8,0,0,0-5.1-1.9,7.7,7.7,0,0,0-5,1.9,4.1,4.1,0,0,1-3.1,1.3,4.1,4.1,0,0,1-3.1-1.3,7.5,7.5,0,0,0-5-1.9,7.3,7.3,0,0,0-5,1.9,4.4,4.4,0,0,1-3.2,1.3,4.4,4.4,0,0,1-3.1-1.3,7.3,7.3,0,0,0-5-1.9v3.2a4.4,4.4,0,0,1,3.1,1.2,7.2,7.2,0,0,0,5,1.9,7.3,7.3,0,0,0,5.1-1.9,4.4,4.4,0,0,1,3.1-1.2,4.6,4.6,0,0,1,3.1,1.2,7,7,0,0,0,5,1.9,7,7,0,0,0,5-1.9,4.6,4.6,0,0,1,3.1-1.2,4.4,4.4,0,0,1,3.1,1.2A7.3,7.3,0,0,0-75.3,87a7.2,7.2,0,0,0,5-1.9,4.4,4.4,0,0,1,3.1-1.2,4.4,4.4,0,0,1,3.1,1.2,7.2,7.2,0,0,0,5,1.9A7.3,7.3,0,0,0-54,85.1a4.4,4.4,0,0,1,3.1-1.2,4.6,4.6,0,0,1,3.1,1.2,7,7,0,0,0,5,1.9,7,7,0,0,0,5-1.9,4.8,4.8,0,0,1,3.2-1.2,4.8,4.8,0,0,1,3.1,1.2,7,7,0,0,0,5,1.9,7,7,0,0,0,5-1.9,4.6,4.6,0,0,1,3.1-1.2V80.7A7.7,7.7,0,0,0-23.4,82.6ZM-67.2.4A1.6,1.6,0,0,1-65.6,2V3.6h-3.1V2A1.6,1.6,0,0,1-67.2.4Zm-4.3,6.4a36.5,36.5,0,0,0-8.3,11.9l2.9,1.3A33.1,33.1,0,0,1-67.2,7.2,33.7,33.7,0,0,1-54.6,31.9H-79.7A34,34,0,0,1-78.1,23l-3-1a42.1,42.1,0,0,0-1.8,9.9H-97A26.7,26.7,0,0,1-71.5,6.8Zm-28.7,28.3h53.5V31.9h-4.8A36.6,36.6,0,0,0-62.8,6.8,26.7,26.7,0,0,1-37.3,31.9h-6.2v3.2h9.4v3.1h-66.1Zm33,45.6a6.8,6.8,0,0,0-3.1.7v-40H-64v40A6.9,6.9,0,0,0-67.2,80.7Z"/></clipPath><clipPath id="clip-path-75"><rect class="cls-2" x="-2864" y="-2404.7" width="5224.4" height="4468.85"/></clipPath><clipPath id="clip-path-76"><path class="cls-1" d="M-26.5,91.8a4.4,4.4,0,0,1-3.1-1.3,7.8,7.8,0,0,0-5.1-1.9,7.7,7.7,0,0,0-5,1.9,4.4,4.4,0,0,1-3.1,1.3,4.4,4.4,0,0,1-3.1-1.3,7.7,7.7,0,0,0-5-1.9A7.8,7.8,0,0,0-56,90.5a4.4,4.4,0,0,1-3.1,1.3,4.6,4.6,0,0,1-3.1-1.3,7.5,7.5,0,0,0-5-1.9,7.5,7.5,0,0,0-5,1.9,4.6,4.6,0,0,1-3.1,1.3,4.4,4.4,0,0,1-3.1-1.3,7.8,7.8,0,0,0-5.1-1.9,7.7,7.7,0,0,0-5,1.9,4.4,4.4,0,0,1-3.1,1.3,4.4,4.4,0,0,1-3.1-1.3,7.7,7.7,0,0,0-5-1.9,7.3,7.3,0,0,0-5,1.9,4.9,4.9,0,0,1-3.2,1.3,4.4,4.4,0,0,1-3-1.3,7.8,7.8,0,0,0-5.1-1.9v3.2a4.4,4.4,0,0,1,3.1,1.2,7.2,7.2,0,0,0,5,1.9,7.3,7.3,0,0,0,5.1-1.9,4.4,4.4,0,0,1,3.1-1.2A4.6,4.6,0,0,1-96.6,93a7,7,0,0,0,5,1.9,7,7,0,0,0,5-1.9,4.6,4.6,0,0,1,3.1-1.2A4.4,4.4,0,0,1-80.4,93a7.3,7.3,0,0,0,5.1,1.9,7.2,7.2,0,0,0,5-1.9,4.4,4.4,0,0,1,3.1-1.2A4.4,4.4,0,0,1-64.1,93a7.2,7.2,0,0,0,5,1.9A7.3,7.3,0,0,0-54,93a4.4,4.4,0,0,1,3.1-1.2A4.6,4.6,0,0,1-47.8,93a7,7,0,0,0,5,1.9,7,7,0,0,0,5-1.9,4.8,4.8,0,0,1,3.1-1.2A4.8,4.8,0,0,1-31.5,93a7,7,0,0,0,5,1.9,7,7,0,0,0,5-1.9,4.6,4.6,0,0,1,3.1-1.2V88.6a7.7,7.7,0,0,0-5,1.9,4.4,4.4,0,0,1-3.1,1.3"/></clipPath><clipPath id="clip-path-78"><path class="cls-1" d="M-57.7,72.9A4.7,4.7,0,0,0-53,77.6a4.7,4.7,0,0,0,4.7-4.7V69.7h-3.1v3.2A1.6,1.6,0,0,1-53,74.4a1.6,1.6,0,0,1-1.6-1.5V50.8h-3.1Z"/></clipPath><clipPath id="clip-path-79"><path class="cls-1" d="M-35.7,61.8V54h-3.1v7.8a1.6,1.6,0,0,1-1.6,1.6A1.6,1.6,0,0,1-42,61.8V49.3a4.8,4.8,0,0,0-4.7-4.8,4.8,4.8,0,0,0-4.7,4.8V54h3.1V49.3a1.6,1.6,0,0,1,1.6-1.6,1.6,1.6,0,0,1,1.6,1.6V61.8a4.7,4.7,0,0,0,4.7,4.8,4.7,4.7,0,0,0,4.7-4.8"/></clipPath><clipPath id="clip-path-80"><path class="cls-1" d="M-79.8,72.9a1.5,1.5,0,0,1-1.5,1.5,1.6,1.6,0,0,1-1.6-1.5V69.7h-3.2v3.2a4.8,4.8,0,0,0,4.8,4.7,4.7,4.7,0,0,0,4.7-4.7V50.8h-3.2Z"/></clipPath><clipPath id="clip-path-81"><path class="cls-1" d="M-98.7,61.8a4.8,4.8,0,0,0,4.8,4.8,4.7,4.7,0,0,0,4.7-4.8V49.3a1.6,1.6,0,0,1,1.6-1.6,1.6,1.6,0,0,1,1.5,1.6V54h3.2V49.3a4.8,4.8,0,0,0-4.7-4.8,4.9,4.9,0,0,0-4.8,4.8V61.8a1.6,1.6,0,0,1-1.5,1.6,1.6,1.6,0,0,1-1.6-1.6V54h-3.2Z"/></clipPath><clipPath id="clip-path-82"><path class="cls-1" d="M-108.1,72.9a17.7,17.7,0,0,1,5.6.9l5,1.6-2.7-6.6a8.4,8.4,0,0,0-7.9-5.4,4.7,4.7,0,0,0-4.7,4.7,4.7,4.7,0,0,0,4.7,4.8m0-6.3a5.3,5.3,0,0,1,5,3.4l.2.4a18.6,18.6,0,0,0-5.2-.7,1.6,1.6,0,0,1-1.6-1.6,1.6,1.6,0,0,1,1.6-1.5"/></clipPath><clipPath id="clip-path-83"><path class="cls-1" d="M-34.2,68.8l-2.6,6.6,4.9-1.6a18.4,18.4,0,0,1,5.7-.9,4.7,4.7,0,0,0,4.7-4.8,4.7,4.7,0,0,0-4.7-4.7A8.6,8.6,0,0,0-34.2,68.8Zm3,1.2a5.2,5.2,0,0,1,5-3.4,1.5,1.5,0,0,1,1.5,1.5,1.6,1.6,0,0,1-1.5,1.6,18.1,18.1,0,0,0-5.2.7Z"/></clipPath></defs><path class="cls-3" d="M51.7,91.5H67.6V81.6H51.7Zm17.9,4H49.7a2,2,0,0,1-2-2V79.6a2,2,0,0,1,2-2H69.6a2,2,0,0,1,2,2V93.5A2,2,0,0,1,69.6,95.5Z"/><g class="cls-4"><rect class="cls-2" x="-1216.8" y="-3701.2" width="5804" height="4970.61"/><g class="cls-5"><rect class="cls-2" x="18" y="47.8" width="83.4" height="77.43"/></g></g><rect class="cls-2" x="57.7" y="79.6" width="4" height="13.93"/><g class="cls-6"><rect class="cls-2" x="27.9" y="49.8" width="63.5" height="73.45"/></g><path class="cls-3" d="M41.8,91.5H77.6V4H41.8Zm37.8,4H39.8a2,2,0,0,1-2-2V2a2,2,0,0,1,2-2H79.6a2,2,0,0,1,2,2V93.5A2,2,0,0,1,79.6,95.5Z"/><g class="cls-7"><rect class="cls-2" x="-1216.8" y="-3701.2" width="5804" height="4964.66"/><g class="cls-8"><rect class="cls-2" x="8" y="-29.8" width="103.3" height="155"/></g></g><path class="cls-3" d="M25.9,91.5H37.8V11.9H25.9Zm13.9,4H23.9a2,2,0,0,1-2-2V9.9a1.9,1.9,0,0,1,2-1.9H39.8a1.9,1.9,0,0,1,2,1.9V93.5A2,2,0,0,1,39.8,95.5Z"/><g class="cls-9"><rect class="cls-2" x="-1216.8" y="-3701.2" width="5804" height="4964.66"/><g class="cls-8"><rect class="cls-2" x="-7.9" y="-21.8" width="79.4" height="147.05"/></g></g><rect class="cls-2" x="17.9" y="8" width="6" height="3.98"/><g class="cls-10"><rect class="cls-2" x="-11.9" y="-21.8" width="65.5" height="63.51"/></g><rect class="cls-2" x="33.8" width="51.7" height="3.97"/><g class="cls-11"><rect class="cls-2" x="4.1" y="-29.8" width="111.2" height="63.5"/></g><rect class="cls-2" x="45.7" y="67.6" width="4" height="5.97"/><g class="cls-12"><rect class="cls-2" x="16" y="37.9" width="63.5" height="65.5"/></g><rect class="cls-2" x="53.7" y="67.6" width="4" height="5.97"/><g class="cls-13"><rect class="cls-2" x="23.9" y="37.9" width="63.5" height="65.5"/></g><rect class="cls-2" x="61.7" y="67.6" width="4" height="5.97"/><g class="cls-14"><rect class="cls-2" x="31.9" y="37.9" width="63.5" height="65.5"/></g><rect class="cls-2" x="69.6" y="67.6" width="4" height="5.97"/><g class="cls-15"><rect class="cls-2" x="39.9" y="37.9" width="63.5" height="65.5"/></g><rect class="cls-2" x="45.7" y="57.7" width="4" height="5.97"/><g class="cls-16"><rect class="cls-2" x="16" y="27.9" width="63.5" height="65.49"/></g><rect class="cls-2" x="53.7" y="57.7" width="4" height="5.97"/><g class="cls-17"><rect class="cls-2" x="23.9" y="27.9" width="63.5" height="65.49"/></g><rect class="cls-2" x="61.7" y="57.7" width="4" height="5.97"/><g class="cls-18"><rect class="cls-2" x="31.9" y="27.9" width="63.5" height="65.49"/></g><rect class="cls-2" x="69.6" y="57.7" width="4" height="5.97"/><g class="cls-19"><rect class="cls-2" x="39.9" y="27.9" width="63.5" height="65.49"/></g><rect class="cls-2" x="45.7" y="47.7" width="4" height="5.97"/><g class="cls-20"><rect class="cls-2" x="16" y="18" width="63.5" height="65.49"/></g><rect class="cls-2" x="53.7" y="47.7" width="4" height="5.97"/><g class="cls-21"><rect class="cls-2" x="23.9" y="18" width="63.5" height="65.49"/></g><rect class="cls-2" x="61.7" y="47.7" width="4" height="5.97"/><g class="cls-22"><rect class="cls-2" x="31.9" y="18" width="63.5" height="65.49"/></g><rect class="cls-2" x="69.6" y="47.7" width="4" height="5.97"/><g class="cls-23"><rect class="cls-2" x="39.9" y="18" width="63.5" height="65.49"/></g><rect class="cls-2" x="45.7" y="37.8" width="4" height="5.96"/><g class="cls-24"><rect class="cls-2" x="16" y="8" width="63.5" height="65.49"/></g><rect class="cls-2" x="53.7" y="37.8" width="4" height="5.96"/><g class="cls-25"><rect class="cls-2" x="23.9" y="8" width="63.5" height="65.49"/></g><rect class="cls-2" x="61.7" y="37.8" width="4" height="5.96"/><g class="cls-26"><rect class="cls-2" x="31.9" y="8" width="63.5" height="65.49"/></g><rect class="cls-2" x="69.6" y="37.8" width="4" height="5.96"/><g class="cls-27"><rect class="cls-2" x="39.9" y="8" width="63.5" height="65.49"/></g><rect class="cls-2" x="45.7" y="27.8" width="4" height="5.97"/><g class="cls-28"><rect class="cls-2" x="16" y="-1.9" width="63.5" height="65.49"/></g><rect class="cls-2" x="53.7" y="27.8" width="4" height="5.97"/><g class="cls-29"><rect class="cls-2" x="23.9" y="-1.9" width="63.5" height="65.49"/></g><rect class="cls-2" x="61.7" y="27.8" width="4" height="5.97"/><g class="cls-30"><rect class="cls-2" x="31.9" y="-1.9" width="63.5" height="65.49"/></g><rect class="cls-2" x="69.6" y="27.8" width="4" height="5.97"/><g class="cls-31"><rect class="cls-2" x="39.9" y="-1.9" width="63.5" height="65.49"/></g><rect class="cls-2" x="45.7" y="17.9" width="4" height="5.97"/><g class="cls-32"><rect class="cls-2" x="16" y="-11.9" width="63.5" height="65.49"/></g><rect class="cls-2" x="53.7" y="17.9" width="4" height="5.97"/><g class="cls-33"><rect class="cls-2" x="23.9" y="-11.9" width="63.5" height="65.49"/></g><rect class="cls-2" x="61.7" y="17.9" width="4" height="5.97"/><g class="cls-34"><rect class="cls-2" x="31.9" y="-11.9" width="63.5" height="65.49"/></g><rect class="cls-2" x="69.6" y="17.9" width="4" height="5.97"/><g class="cls-35"><rect class="cls-2" x="39.9" y="-11.9" width="63.5" height="65.49"/></g><rect class="cls-2" x="45.7" y="8" width="4" height="5.97"/><g class="cls-36"><rect class="cls-2" x="16" y="-21.8" width="63.5" height="65.49"/></g><rect class="cls-2" x="53.7" y="8" width="4" height="5.97"/><g class="cls-37"><rect class="cls-2" x="23.9" y="-21.8" width="63.5" height="65.49"/></g><rect class="cls-2" x="61.7" y="8" width="4" height="5.97"/><g class="cls-38"><rect class="cls-2" x="31.9" y="-21.8" width="63.5" height="65.49"/></g><rect class="cls-2" x="69.6" y="8" width="4" height="5.97"/><g class="cls-39"><rect class="cls-2" x="39.9" y="-21.8" width="63.5" height="65.49"/></g><rect class="cls-2" x="29.8" y="77.6" width="4" height="5.97"/><g class="cls-40"><rect class="cls-2" x="0.1" y="47.8" width="63.5" height="65.5"/></g><rect class="cls-2" x="29.8" y="67.6" width="4" height="5.97"/><g class="cls-41"><rect class="cls-2" x="0.1" y="37.9" width="63.5" height="65.5"/></g><rect class="cls-2" x="29.8" y="57.7" width="4" height="5.97"/><g class="cls-42"><rect class="cls-2" x="0.1" y="27.9" width="63.5" height="65.49"/></g><rect class="cls-2" x="29.8" y="47.7" width="4" height="5.97"/><g class="cls-43"><rect class="cls-2" x="0.1" y="18" width="63.5" height="65.49"/></g><rect class="cls-2" x="29.8" y="37.8" width="4" height="5.96"/><g class="cls-44"><rect class="cls-2" x="0.1" y="8" width="63.5" height="65.49"/></g><rect class="cls-2" x="29.8" y="27.8" width="4" height="5.97"/><g class="cls-45"><rect class="cls-2" x="0.1" y="-1.9" width="63.5" height="65.49"/></g><rect class="cls-2" x="29.8" y="17.9" width="4" height="5.97"/><g class="cls-46"><rect class="cls-2" x="0.1" y="-11.9" width="63.5" height="65.49"/></g><path class="cls-3" d="M81.6,91.5H93.5V11.9H81.6Zm13.9,4H79.6a2,2,0,0,1-2-2V9.9a1.9,1.9,0,0,1,2-1.9H95.5a1.9,1.9,0,0,1,2,1.9V93.5A2,2,0,0,1,95.5,95.5Z"/><g class="cls-47"><rect class="cls-2" x="-1216.8" y="-3701.2" width="5804" height="4964.66"/><g class="cls-8"><rect class="cls-2" x="47.8" y="-21.8" width="79.4" height="147.05"/></g></g><rect class="cls-2" x="95.5" y="8" width="6" height="3.98"/><g class="cls-48"><rect class="cls-2" x="65.7" y="-21.8" width="65.5" height="63.51"/></g><rect class="cls-2" x="85.5" y="77.6" width="4" height="5.97"/><g class="cls-49"><rect class="cls-2" x="55.8" y="47.8" width="63.5" height="65.5"/></g><rect class="cls-2" x="85.5" y="67.6" width="4" height="5.97"/><g class="cls-50"><rect class="cls-2" x="55.8" y="37.9" width="63.5" height="65.5"/></g><rect class="cls-2" x="85.5" y="57.7" width="4" height="5.97"/><g class="cls-51"><rect class="cls-2" x="55.8" y="27.9" width="63.5" height="65.49"/></g><rect class="cls-2" x="85.5" y="47.7" width="4" height="5.97"/><g class="cls-52"><rect class="cls-2" x="55.8" y="18" width="63.5" height="65.49"/></g><rect class="cls-2" x="85.5" y="37.8" width="4" height="5.96"/><g class="cls-53"><rect class="cls-2" x="55.8" y="8" width="63.5" height="65.49"/></g><rect class="cls-2" x="85.5" y="27.8" width="4" height="5.97"/><g class="cls-54"><rect class="cls-2" x="55.8" y="-1.9" width="63.5" height="65.49"/></g><rect class="cls-2" x="85.5" y="17.9" width="4" height="5.97"/><g class="cls-55"><rect class="cls-2" x="55.8" y="-11.9" width="63.5" height="65.49"/></g><rect class="cls-2" y="91.5" width="23.9" height="3.97"/><g class="cls-56"><rect class="cls-2" x="-29.8" y="61.7" width="83.4" height="63.5"/></g><rect class="cls-2" x="95.5" y="91.5" width="23.9" height="3.97"/><g class="cls-57"><rect class="cls-2" x="65.7" y="61.7" width="83.4" height="63.5"/></g><rect class="cls-2" x="8" y="51.7" width="4" height="41.77"/><g class="cls-58"><rect class="cls-2" x="-21.8" y="22" width="63.5" height="101.3"/></g><rect class="cls-2" x="8" y="51.7" width="4" height="19.89" transform="translate(-45.3 32.6) rotate(-53.1)"/><g class="cls-59"><rect class="cls-2" x="-1216.8" y="-3701.2" width="5804" height="4964.66"/><g class="cls-8"><rect class="cls-2" x="-29" y="24.3" width="77.8" height="74.64"/></g></g><rect class="cls-2" y="59.7" width="19.9" height="3.98" transform="translate(-35 18.3) rotate(-36.9)"/><g class="cls-60"><rect class="cls-2" x="-1216.8" y="-3701.2" width="5804" height="4964.66"/><g class="cls-8"><rect class="cls-2" x="-29" y="24.3" width="77.8" height="74.65"/></g></g><rect class="cls-2" x="107.4" y="51.7" width="4" height="41.77"/><g class="cls-61"><rect class="cls-2" x="77.6" y="22" width="63.5" height="101.3"/></g><rect class="cls-2" x="107.4" y="51.7" width="4" height="19.89" transform="translate(-5.6 112.2) rotate(-53.1)"/><g class="cls-62"><rect class="cls-2" x="-1216.8" y="-3701.2" width="5804" height="4964.66"/><g class="cls-8"><rect class="cls-2" x="70.5" y="24.3" width="77.8" height="74.64"/></g></g><rect class="cls-2" x="99.4" y="59.7" width="19.9" height="3.97" transform="translate(-15.1 77.9) rotate(-36.8)"/><g class="cls-63"><rect class="cls-2" x="-1216.8" y="-3701.2" width="5804" height="4964.66"/><g class="cls-8"><rect class="cls-2" x="70.5" y="24.4" width="77.8" height="74.64"/></g></g><path class="cls-3" d="M-132.4,42a9.5,9.5,0,0,0-6.6-9,41.6,41.6,0,0,0-4.7-11.3,9.5,9.5,0,0,0-1.7-11.1,9.2,9.2,0,0,0-6.7-2.7,9.8,9.8,0,0,0-4.4,1,37.8,37.8,0,0,0-11.2-4.6,9.5,9.5,0,0,0-9-6.7,9.5,9.5,0,0,0-9.1,6.7A39,39,0,0,0-197,8.9a9.4,9.4,0,0,0-7.2-.6,1.4,1.4,0,0,0,.8,2.7,6.6,6.6,0,0,1,6.7,1.6,6.6,6.6,0,0,1,0,9.4,6.6,6.6,0,0,1-9.4,0,6.6,6.6,0,0,1-1.5-7.2c.7-1.6-1.9-2.8-2.6-1.1a9.7,9.7,0,0,0,.4,8A38.4,38.4,0,0,0-214.4,33a9.5,9.5,0,0,0-6.7,9,9.5,9.5,0,0,0,6.7,9.1,39,39,0,0,0,4.6,11.2,9.4,9.4,0,0,0,1.7,11.1A9.6,9.6,0,0,0-197,75.1a35.5,35.5,0,0,0,4.3,2.3L-197,89a3.4,3.4,0,0,0,3.1,4.4h34.3a3.3,3.3,0,0,0,3.1-4.4l-4.3-11.6a35.5,35.5,0,0,0,4.3-2.3,9.9,9.9,0,0,0,4.4,1.1,7.1,7.1,0,0,0,2.9-.5c1.7-.5.9-3.2-.8-2.6a7,7,0,0,1-6.8-1.6,7,7,0,0,1,0-9.5,6.8,6.8,0,0,1,9.4,0,6.6,6.6,0,0,1,1.5,7.2c-.6,1.6,1.9,2.8,2.6,1.1a9.3,9.3,0,0,0-.4-8A42.3,42.3,0,0,0-139,51.1,9.5,9.5,0,0,0-132.4,42Zm-2.8,0a6.7,6.7,0,0,1-6.6,6.7,6.7,6.7,0,0,1-6.7-6.7,6.7,6.7,0,0,1,6.7-6.6A6.7,6.7,0,0,1-135.2,42Zm-16-1.4H-163a14.1,14.1,0,0,0-3.1-7.3l8.4-8.4a9.5,9.5,0,0,0,7.5,1.7,29.6,29.6,0,0,1,3.1,7.6A9.4,9.4,0,0,0-151.2,40.6ZM-163,75.3c-1.4.5-2.8,1.1-4.3,1.5a6.9,6.9,0,0,0-.4-2.5,31.2,31.2,0,0,0,7.3-3,9.5,9.5,0,0,0,1.5,2A31.1,31.1,0,0,1-163,75.3Zm-31.6-2a9.5,9.5,0,0,0,1.5-2,31.2,31.2,0,0,0,7.3,3,10.1,10.1,0,0,0-.4,2.5A38.3,38.3,0,0,1-194.6,73.3Zm-13.3-13.4a34,34,0,0,1-3.5-8.4,10,10,0,0,0,2.4-.4,31.4,31.4,0,0,0,3.1,7.3A7.5,7.5,0,0,0-207.9,59.9Zm4.6-2.4a35.7,35.7,0,0,1-3.1-7.6,9.5,9.5,0,0,0,4.1-6.5h11.9a12.6,12.6,0,0,0,3,7.3l-8.4,8.4A9.9,9.9,0,0,0-203.3,57.5Zm25.2,10.1a9.9,9.9,0,0,0-6.5,4.1,31.2,31.2,0,0,1-7.6-3.1,9.6,9.6,0,0,0-1.6-7.5l8.4-8.4a12.6,12.6,0,0,0,7.3,3Zm1.4,2.7a6.7,6.7,0,0,1,6.6,6.7,6.7,6.7,0,0,1-6.6,6.6,6.7,6.7,0,0,1-6.7-6.6A6.7,6.7,0,0,1-176.7,70.3Zm15.4-1.7a29.6,29.6,0,0,1-7.6,3.1,9.7,9.7,0,0,0-6.4-4.1V55.7a13.2,13.2,0,0,0,7.3-3l8.4,8.4A9.2,9.2,0,0,0-161.3,68.6ZM-176.7,53a11,11,0,0,1-11-11,10.9,10.9,0,0,1,11-10.9A10.9,10.9,0,0,1-165.8,42,10.9,10.9,0,0,1-176.7,53Zm-9.1-43.3a36.4,36.4,0,0,0-7.3,3.1,9.5,9.5,0,0,0-1.5-2,34,34,0,0,1,8.4-3.5A9.3,9.3,0,0,0-185.8,9.7Zm-6.4,5.8a31.5,31.5,0,0,1,7.6-3.2,9.5,9.5,0,0,0,6.5,4.1V28.3a14.1,14.1,0,0,0-7.3,3l-8.4-8.4A9.3,9.3,0,0,0-192.2,15.5Zm31.8-2.7a36.4,36.4,0,0,0-7.3-3.1,6.4,6.4,0,0,0,.4-2.4,36.4,36.4,0,0,1,8.4,3.5A9.5,9.5,0,0,0-160.4,12.8Zm-8.5-.5a29.9,29.9,0,0,1,7.6,3.2,9.4,9.4,0,0,0,1.6,7.4l-8.4,8.4a14.1,14.1,0,0,0-7.2-3V16.4A9.3,9.3,0,0,0-168.9,12.3Zm23.4,11.9a34.7,34.7,0,0,1,3.5,8.4,6.9,6.9,0,0,0-2.5.4,31.9,31.9,0,0,0-3-7.4Zm-1.9-11.6a6.6,6.6,0,0,1,0,9.4,6.6,6.6,0,0,1-9.4,0,6.8,6.8,0,0,1,0-9.4A6.8,6.8,0,0,1-147.4,12.6ZM-176.7.4a6.7,6.7,0,0,1,6.6,6.7,6.7,6.7,0,0,1-6.6,6.6,6.7,6.7,0,0,1-6.7-6.6c0-.4.1-.8.1-1.2a.4.4,0,0,0,.1-.3A6.6,6.6,0,0,1-176.7.4Zm-19.1,24.5,8.4,8.4a13.2,13.2,0,0,0-3,7.3h-11.9a9.1,9.1,0,0,0-4.1-6.4,33.7,33.7,0,0,1,3.1-7.6A9.5,9.5,0,0,0-195.8,24.9Zm-10.1.7A32.2,32.2,0,0,0-209,33a6.7,6.7,0,0,0-2.4-.4,31.1,31.1,0,0,1,3.5-8.4A10.1,10.1,0,0,0-205.9,25.6ZM-218.3,42a6.7,6.7,0,0,1,6.7-6.6A6.7,6.7,0,0,1-205,42a6.7,6.7,0,0,1-6.6,6.7A6.7,6.7,0,0,1-218.3,42Zm16.9,31.4a6.7,6.7,0,0,1-4.7-1.9,6.8,6.8,0,0,1,0-9.5,6.8,6.8,0,0,1,9.4,0,6.8,6.8,0,0,1,0,9.5A6.8,6.8,0,0,1-201.4,73.4ZM-159.1,90c0,.3-.1.5-.5.6h-34.3c-.4-.1-.5-.3-.4-.6l4.2-11.5,4.3,1.3a9.5,9.5,0,0,0,9.1,6.6,9.5,9.5,0,0,0,9-6.6l4.3-1.3Zm1.4-30.9-8.4-8.4a13.4,13.4,0,0,0,3.1-7.3h11.8a9.9,9.9,0,0,0,4.1,6.5,31.2,31.2,0,0,1-3.1,7.6,5.8,5.8,0,0,0-1.9-.2A9.4,9.4,0,0,0-157.7,59.1Zm10.2-.7a31.2,31.2,0,0,0,3-7.3,10.1,10.1,0,0,0,2.5.4,38.3,38.3,0,0,1-3.5,8.4A9.5,9.5,0,0,0-147.5,58.4Z"/><g class="cls-64"><rect class="cls-2" x="-4741.1" y="-2217.7" width="5391.4" height="4611.73"/></g><path class="cls-2" d="M-453.3,96h-74.6a2.6,2.6,0,0,1-2.5-2.6V87.9a2.6,2.6,0,0,1,2.5-2.6h28.6a10.3,10.3,0,0,1-.7-2.1,7.2,7.2,0,0,1,1.5-5.3l.9-1.1a6.9,6.9,0,0,0,1.4-5.6l-.3-2.4h-11.3a6.1,6.1,0,0,1-5.9-6.1c0-.4-.1-.7-.4-.8l-2.3-1.7a2.7,2.7,0,0,1-1-2.9,2.6,2.6,0,0,1,2.4-1.9h19.3V52.5h-6.4a6,6,0,0,1-5.9-6.1.9.9,0,0,0-.4-.8l-2.4-1.7a2.7,2.7,0,0,1-1-2.9,2.6,2.6,0,0,1,2.5-1.9h13.6V37.7a10,10,0,0,0-5.7-9.3l-.7-.3V25.6H-479v2.5l-.8.3a10.2,10.2,0,0,0-5.7,9.3v1.4h13.7a2.6,2.6,0,0,1,2.4,1.9,2.4,2.4,0,0,1-1,2.9l-2.3,1.7c-.3.1-.4.4-.4.8a6,6,0,0,1-5.9,6.1h-6.5v2.9h19.4a2.6,2.6,0,0,1,2.4,1.9,2.7,2.7,0,0,1-1,2.9l-2.4,1.7a.9.9,0,0,0-.4.8,6,6,0,0,1-5.8,6.1h-11.3l-.4,2.4a7,7,0,0,0,1.5,5.6l.9,1.1a6.7,6.7,0,0,1,1.4,5.3,4.8,4.8,0,0,1-.7,2.1h28.6a2.6,2.6,0,0,1,2.6,2.6v5.5A2.6,2.6,0,0,1-453.3,96Zm-74.6-8.2h0v5.5h74.7V87.9h-35.1l3-2.2a4.6,4.6,0,0,0,1.7-2.8,4.7,4.7,0,0,0-.9-3.3l-.9-1.1a9.4,9.4,0,0,1-2-7.6l.7-4.5h13.4a3.5,3.5,0,0,0,3.3-3.6,3.6,3.6,0,0,1,1.5-2.9l2.4-1.6V58H-488V50h9a3.5,3.5,0,0,0,3.4-3.6,3.6,3.6,0,0,1,1.4-2.9l2.4-1.6c0-.1.1-.1,0-.2H-488V37.7a12.6,12.6,0,0,1,4.3-9.6h-13.7a12.8,12.8,0,0,1,4.2,9.6v3.9h-16.1c-.1.2-.1.2,0,.3l2.3,1.6a3.6,3.6,0,0,1,1.5,2.9,3.5,3.5,0,0,0,3.4,3.6h8.9v7.9H-515v.3l2.4,1.6a3.6,3.6,0,0,1,1.4,2.9,3.5,3.5,0,0,0,3.4,3.6h13.4l.7,4.5a9.8,9.8,0,0,1-2,7.6l-.9,1.1a4.4,4.4,0,0,0-.9,3.4,4.7,4.7,0,0,0,1.6,2.7l3.1,2.2Z"/><g class="cls-65"><path class="cls-2" d="M1932.4,1879.8H-2945V-2526.4H1932.4Zm-4874.4-3H1929.4V-2523.4H-2942Z"/></g><path class="cls-3" d="M-523,54.7a2.9,2.9,0,0,1,2.9-2.8,5.6,5.6,0,0,0,5.6-5.6V39.2a2.9,2.9,0,0,1,2.8-2.8h8.5V33.6h-8.5a5.6,5.6,0,0,0-5.6,5.6v7.1a2.9,2.9,0,0,1-2.8,2.8,5.7,5.7,0,0,0-5.7,5.6V74.4h2.8Z"/><g class="cls-66"><rect class="cls-2" x="-3176.8" y="-2622.3" width="5338" height="4566.05"/></g><path class="cls-2" d="M-490.6,23.1a2.2,2.2,0,0,1-1.8-1l-3.2-5.3a2.3,2.3,0,0,1,.3-2.7l3.2-3.2a2.3,2.3,0,0,1,3.1,0l3.2,3.2a2.3,2.3,0,0,1,.3,2.7l-3.2,5.3A2.3,2.3,0,0,1-490.6,23.1Zm.1-2.1Zm-.1-8.5-3.1,3.2,3.1,5.2,3.2-5.3Z"/><g class="cls-67"><path class="cls-2" d="M1516.6,1475.6H-2523.8V-1980.8H1516.6Zm-4038.2-2.2h4036v-3452h-4036Z"/></g><path class="cls-3" d="M-477.9,33.6v2.8h8.5a2.9,2.9,0,0,1,2.8,2.8v7.1a5.6,5.6,0,0,0,5.6,5.6,2.8,2.8,0,0,1,2.8,2.8V74.4h2.8V54.7a5.6,5.6,0,0,0-5.6-5.6,2.9,2.9,0,0,1-2.8-2.8V39.2a5.6,5.6,0,0,0-5.6-5.6Z"/><g class="cls-68"><rect class="cls-2" x="-3176.8" y="-2622.3" width="5338" height="4566.05"/></g><path class="cls-3" d="M-472.3,23.8h2.9a8.5,8.5,0,0,0-8.5-8.5h-2.8v2.8h2.8a5.6,5.6,0,0,1,5.6,5.7"/><g class="cls-69"><rect class="cls-2" x="-3176.8" y="-2622.3" width="5338" height="4566.05"/></g><path class="cls-3" d="M-503.2,18.1h2.8V15.3h-2.8a8.5,8.5,0,0,0-8.5,8.5h2.8a5.7,5.7,0,0,1,5.7-5.7"/><g class="cls-70"><rect class="cls-2" x="-3176.8" y="-2622.3" width="5338" height="4566.05"/></g><path class="cls-3" d="M-23.4,82.6a4.1,4.1,0,0,1-3.1,1.3,4.1,4.1,0,0,1-3.1-1.3,7.7,7.7,0,0,0-5-1.9,7.8,7.8,0,0,0-5.1,1.9,4.1,4.1,0,0,1-3.1,1.3,4.1,4.1,0,0,1-3.1-1.3,7.5,7.5,0,0,0-5-1.9A7.8,7.8,0,0,0-56,82.6a4.1,4.1,0,0,1-3.1,1.3,4.8,4.8,0,0,1-1.8-.4V41.4h22.1v3.1h3.1V41.4h1.6A3.1,3.1,0,0,0-31,38.2V35.1a3.2,3.2,0,0,0-3.1-3.2h-.1A29.9,29.9,0,0,0-62.4,3.7V2a4.8,4.8,0,0,0-4.8-4.7A4.7,4.7,0,0,0-71.9,2V3.7a29.8,29.8,0,0,0-28.2,28.2h-.1a3.2,3.2,0,0,0-3.2,3.2v3.1a3.2,3.2,0,0,0,3.2,3.2h1.5v3.1h3.2V41.4h22V83.5a4.4,4.4,0,0,1-1.8.4,4.1,4.1,0,0,1-3.1-1.3,7.8,7.8,0,0,0-5.1-1.9,7.7,7.7,0,0,0-5,1.9,4.1,4.1,0,0,1-3.1,1.3,4.1,4.1,0,0,1-3.1-1.3,7.5,7.5,0,0,0-5-1.9,7.3,7.3,0,0,0-5,1.9,4.4,4.4,0,0,1-3.2,1.3,4.4,4.4,0,0,1-3.1-1.3,7.3,7.3,0,0,0-5-1.9v3.2a4.4,4.4,0,0,1,3.1,1.2,7.2,7.2,0,0,0,5,1.9,7.3,7.3,0,0,0,5.1-1.9,4.4,4.4,0,0,1,3.1-1.2,4.6,4.6,0,0,1,3.1,1.2,7,7,0,0,0,5,1.9,7,7,0,0,0,5-1.9,4.6,4.6,0,0,1,3.1-1.2,4.4,4.4,0,0,1,3.1,1.2A7.3,7.3,0,0,0-75.3,87a7.2,7.2,0,0,0,5-1.9,4.4,4.4,0,0,1,3.1-1.2,4.4,4.4,0,0,1,3.1,1.2,7.2,7.2,0,0,0,5,1.9A7.3,7.3,0,0,0-54,85.1a4.4,4.4,0,0,1,3.1-1.2,4.6,4.6,0,0,1,3.1,1.2,7,7,0,0,0,5,1.9,7,7,0,0,0,5-1.9,4.8,4.8,0,0,1,3.2-1.2,4.8,4.8,0,0,1,3.1,1.2,7,7,0,0,0,5,1.9,7,7,0,0,0,5-1.9,4.6,4.6,0,0,1,3.1-1.2V80.7A7.7,7.7,0,0,0-23.4,82.6ZM-67.2.4A1.6,1.6,0,0,1-65.6,2V3.6h-3.1V2A1.6,1.6,0,0,1-67.2.4Zm-4.3,6.4a36.5,36.5,0,0,0-8.3,11.9l2.9,1.3A33.1,33.1,0,0,1-67.2,7.2,33.7,33.7,0,0,1-54.6,31.9H-79.7A34,34,0,0,1-78.1,23l-3-1a42.1,42.1,0,0,0-1.8,9.9H-97A26.7,26.7,0,0,1-71.5,6.8Zm-28.7,28.3h53.5V31.9h-4.8A36.6,36.6,0,0,0-62.8,6.8,26.7,26.7,0,0,1-37.3,31.9h-6.2v3.2h9.4v3.1h-66.1Zm33,45.6a6.8,6.8,0,0,0-3.1.7v-40H-64v40A6.9,6.9,0,0,0-67.2,80.7Z"/><g class="cls-71"><rect class="cls-2" x="-2864" y="-2404.7" width="5224.4" height="4468.85"/><g class="cls-72"><rect class="cls-2" x="-142.8" y="-29.5" width="151.2" height="143.33"/></g></g><path class="cls-3" d="M-26.5,91.8a4.4,4.4,0,0,1-3.1-1.3,7.8,7.8,0,0,0-5.1-1.9,7.7,7.7,0,0,0-5,1.9,4.4,4.4,0,0,1-3.1,1.3,4.4,4.4,0,0,1-3.1-1.3,7.7,7.7,0,0,0-5-1.9A7.8,7.8,0,0,0-56,90.5a4.4,4.4,0,0,1-3.1,1.3,4.6,4.6,0,0,1-3.1-1.3,7.5,7.5,0,0,0-5-1.9,7.5,7.5,0,0,0-5,1.9,4.6,4.6,0,0,1-3.1,1.3,4.4,4.4,0,0,1-3.1-1.3,7.8,7.8,0,0,0-5.1-1.9,7.7,7.7,0,0,0-5,1.9,4.4,4.4,0,0,1-3.1,1.3,4.4,4.4,0,0,1-3.1-1.3,7.7,7.7,0,0,0-5-1.9,7.3,7.3,0,0,0-5,1.9,4.9,4.9,0,0,1-3.2,1.3,4.4,4.4,0,0,1-3-1.3,7.8,7.8,0,0,0-5.1-1.9v3.2a4.4,4.4,0,0,1,3.1,1.2,7.2,7.2,0,0,0,5,1.9,7.3,7.3,0,0,0,5.1-1.9,4.4,4.4,0,0,1,3.1-1.2A4.6,4.6,0,0,1-96.6,93a7,7,0,0,0,5,1.9,7,7,0,0,0,5-1.9,4.6,4.6,0,0,1,3.1-1.2A4.4,4.4,0,0,1-80.4,93a7.3,7.3,0,0,0,5.1,1.9,7.2,7.2,0,0,0,5-1.9,4.4,4.4,0,0,1,3.1-1.2A4.4,4.4,0,0,1-64.1,93a7.2,7.2,0,0,0,5,1.9A7.3,7.3,0,0,0-54,93a4.4,4.4,0,0,1,3.1-1.2A4.6,4.6,0,0,1-47.8,93a7,7,0,0,0,5,1.9,7,7,0,0,0,5-1.9,4.8,4.8,0,0,1,3.1-1.2A4.8,4.8,0,0,1-31.5,93a7,7,0,0,0,5,1.9,7,7,0,0,0,5-1.9,4.6,4.6,0,0,1,3.1-1.2V88.6a7.7,7.7,0,0,0-5,1.9,4.4,4.4,0,0,1-3.1,1.3"/><g class="cls-73"><rect class="cls-2" x="-2864" y="-2404.7" width="5224.4" height="4468.85"/><g class="cls-72"><rect class="cls-2" x="-142.8" y="61.8" width="151.2" height="59.89"/></g></g><path class="cls-3" d="M-57.7,72.9A4.7,4.7,0,0,0-53,77.6a4.7,4.7,0,0,0,4.7-4.7V69.7h-3.1v3.2A1.6,1.6,0,0,1-53,74.4a1.6,1.6,0,0,1-1.6-1.5V50.8h-3.1Z"/><g class="cls-74"><rect class="cls-2" x="-2864" y="-2404.7" width="5224.4" height="4468.85"/></g><path class="cls-3" d="M-35.7,61.8V54h-3.1v7.8a1.6,1.6,0,0,1-1.6,1.6A1.6,1.6,0,0,1-42,61.8V49.3a4.8,4.8,0,0,0-4.7-4.8,4.8,4.8,0,0,0-4.7,4.8V54h3.1V49.3a1.6,1.6,0,0,1,1.6-1.6,1.6,1.6,0,0,1,1.6,1.6V61.8a4.7,4.7,0,0,0,4.7,4.8,4.7,4.7,0,0,0,4.7-4.8"/><g class="cls-75"><rect class="cls-2" x="-2864" y="-2404.7" width="5224.4" height="4468.85"/></g><path class="cls-3" d="M-79.8,72.9a1.5,1.5,0,0,1-1.5,1.5,1.6,1.6,0,0,1-1.6-1.5V69.7h-3.2v3.2a4.8,4.8,0,0,0,4.8,4.7,4.7,4.7,0,0,0,4.7-4.7V50.8h-3.2Z"/><g class="cls-76"><rect class="cls-2" x="-2864" y="-2404.7" width="5224.4" height="4468.85"/></g><path class="cls-3" d="M-98.7,61.8a4.8,4.8,0,0,0,4.8,4.8,4.7,4.7,0,0,0,4.7-4.8V49.3a1.6,1.6,0,0,1,1.6-1.6,1.6,1.6,0,0,1,1.5,1.6V54h3.2V49.3a4.8,4.8,0,0,0-4.7-4.8,4.9,4.9,0,0,0-4.8,4.8V61.8a1.6,1.6,0,0,1-1.5,1.6,1.6,1.6,0,0,1-1.6-1.6V54h-3.2Z"/><g class="cls-77"><rect class="cls-2" x="-2864" y="-2404.7" width="5224.4" height="4468.85"/></g><path class="cls-3" d="M-108.1,72.9a17.7,17.7,0,0,1,5.6.9l5,1.6-2.7-6.6a8.4,8.4,0,0,0-7.9-5.4,4.7,4.7,0,0,0-4.7,4.7,4.7,4.7,0,0,0,4.7,4.8m0-6.3a5.3,5.3,0,0,1,5,3.4l.2.4a18.6,18.6,0,0,0-5.2-.7,1.6,1.6,0,0,1-1.6-1.6,1.6,1.6,0,0,1,1.6-1.5"/><g class="cls-78"><rect class="cls-2" x="-2864" y="-2404.7" width="5224.4" height="4468.85"/></g><path class="cls-3" d="M-34.2,68.8l-2.6,6.6,4.9-1.6a18.4,18.4,0,0,1,5.7-.9,4.7,4.7,0,0,0,4.7-4.8,4.7,4.7,0,0,0-4.7-4.7A8.6,8.6,0,0,0-34.2,68.8Zm3,1.2a5.2,5.2,0,0,1,5-3.4,1.5,1.5,0,0,1,1.5,1.5,1.6,1.6,0,0,1-1.5,1.6,18.1,18.1,0,0,0-5.2.7Z"/><g class="cls-79"><rect class="cls-2" x="-2864" y="-2404.7" width="5224.4" height="4468.85"/><g class="cls-72"><rect class="cls-2" x="-63.6" y="36.6" width="68.9" height="65.6"/></g></g></svg>