<svg id="Layer_1" data-name="Layer 1" xmlns="http://www.w3.org/2000/svg" xmlns:xlink="http://www.w3.org/1999/xlink" viewBox="0 0 103.2 88"><defs><style>.cls-1,.cls-2,.cls-3{fill:#221c45;}.cls-1{clip-rule:evenodd;}.cls-3{fill-rule:evenodd;}.cls-4{clip-path:url(#clip-path);}.cls-5{clip-path:url(#clip-path-2);}.cls-6{clip-path:url(#clip-path-3);}.cls-7{clip-path:url(#clip-path-4);}.cls-8{clip-path:url(#clip-path-5);}.cls-9{clip-path:url(#clip-path-6);}.cls-10{clip-path:url(#clip-path-7);}.cls-11{clip-path:url(#clip-path-8);}.cls-12{clip-path:url(#clip-path-9);}.cls-13{clip-path:url(#clip-path-10);}.cls-14{clip-path:url(#clip-path-12);}.cls-15{clip-path:url(#clip-path-13);}.cls-16{clip-path:url(#clip-path-14);}.cls-17{clip-path:url(#clip-path-15);}.cls-18{clip-path:url(#clip-path-16);}.cls-19{clip-path:url(#clip-path-17);}.cls-20{clip-path:url(#clip-path-18);}.cls-21{clip-path:url(#clip-path-19);}.cls-22{clip-path:url(#clip-path-20);}.cls-23{clip-path:url(#clip-path-21);}.cls-24{clip-path:url(#clip-path-22);}.cls-25{clip-path:url(#clip-path-23);}.cls-26{clip-path:url(#clip-path-24);}.cls-27{clip-path:url(#clip-path-25);}.cls-28{clip-path:url(#clip-path-26);}</style><clipPath id="clip-path"><path class="cls-1" d="M-91.4,81.9h15.9V72H-91.4Zm17.9,4H-93.4a2,2,0,0,1-2-2V70a2,2,0,0,1,2-2h19.9a2,2,0,0,1,2,2V83.9A2,2,0,0,1-73.5,85.9Z"/></clipPath><clipPath id="clip-path-2"><path class="cls-1" d="M-101.4,81.9h35.8V-5.6h-35.8Zm37.8,4h-39.7a2,2,0,0,1-2-2V-7.6a2,2,0,0,1,2-2h39.7a2,2,0,0,1,2,2V83.9A2,2,0,0,1-63.6,85.9Z"/></clipPath><clipPath id="clip-path-3"><path class="cls-1" d="M-117.3,81.9h12V2.3h-12Zm14,4h-16a1.9,1.9,0,0,1-1.9-2V.4a1.9,1.9,0,0,1,1.9-2h16a1.9,1.9,0,0,1,1.9,2V83.9A1.9,1.9,0,0,1-103.3,85.9Z"/></clipPath><clipPath id="clip-path-4"><path class="cls-1" d="M-61.6,81.9h12V2.3h-12Zm14,4h-16a2,2,0,0,1-2-2V.4a2,2,0,0,1,2-2h16a1.9,1.9,0,0,1,1.9,2V83.9A1.9,1.9,0,0,1-47.6,85.9Z"/></clipPath><clipPath id="clip-path-5"><rect class="cls-2" x="-47.6" y="81.9" width="23.9" height="3.97"/></clipPath><clipPath id="clip-path-6"><rect class="cls-2" x="-135.2" y="42.1" width="4" height="19.89" transform="translate(-94.9 -85.7) rotate(-53.1)"/></clipPath><clipPath id="clip-path-7"><rect class="cls-2" x="-143.1" y="50.1" width="19.9" height="3.98" transform="translate(-57.9 -69.5) rotate(-36.9)"/></clipPath><clipPath id="clip-path-8"><rect class="cls-2" x="-35.7" y="42.1" width="4" height="19.89" transform="translate(-55.1 -6.2) rotate(-53.1)"/></clipPath><clipPath id="clip-path-9"><rect class="cls-2" x="-1359.9" y="-3710.7" width="5804" height="4964.66"/></clipPath><clipPath id="clip-path-10"><rect class="cls-2" x="-43.7" y="50.1" width="19.9" height="3.97" transform="translate(-38 -9.8) rotate(-36.8)"/></clipPath><clipPath id="clip-path-12"><path class="cls-1" d="M-275.5,32.4a9.5,9.5,0,0,0-6.7-9,38.4,38.4,0,0,0-4.6-11.3A9.6,9.6,0,0,0-288.5,1a9.4,9.4,0,0,0-6.7-2.7,8.2,8.2,0,0,0-4.4,1.1,36.6,36.6,0,0,0-11.2-4.7,9.5,9.5,0,0,0-9.1-6.7,9.5,9.5,0,0,0-9,6.7A35.6,35.6,0,0,0-340.1-.6a9.1,9.1,0,0,0-7.2-.7,1.4,1.4,0,0,0,.8,2.7A6.6,6.6,0,0,1-339.8,3a6.8,6.8,0,0,1,0,9.4,6.6,6.6,0,0,1-9.4,0,6.6,6.6,0,0,1-1.5-7.2c.7-1.6-1.9-2.8-2.6-1.1a9.3,9.3,0,0,0,.4,8,41.6,41.6,0,0,0-4.7,11.3,9.5,9.5,0,0,0-6.6,9,9.5,9.5,0,0,0,6.6,9.1,40.9,40.9,0,0,0,4.7,11.2,9.4,9.4,0,0,0,1.7,11.1,9.6,9.6,0,0,0,11.1,1.7,35.5,35.5,0,0,0,4.3,2.3l-4.3,11.6a3.3,3.3,0,0,0,3.1,4.4h34.3a3.4,3.4,0,0,0,3.1-4.4l-4.3-11.6a35.5,35.5,0,0,0,4.3-2.3,9.9,9.9,0,0,0,4.4,1.1,9.7,9.7,0,0,0,2.9-.4,1.4,1.4,0,0,0-.9-2.7,6.7,6.7,0,0,1-6.7-1.6,6.8,6.8,0,0,1,0-9.5,6.8,6.8,0,0,1,9.4,0,6.6,6.6,0,0,1,1.5,7.2,1.4,1.4,0,0,0,2.6,1.1,10.1,10.1,0,0,0-.4-8,37.8,37.8,0,0,0,4.6-11.2A9.5,9.5,0,0,0-275.5,32.4Zm-2.8,0a6.7,6.7,0,0,1-6.7,6.7,6.7,6.7,0,0,1-6.6-6.7,6.7,6.7,0,0,1,6.6-6.6A6.7,6.7,0,0,1-278.3,32.4Zm-16-1.4h-11.9a13.2,13.2,0,0,0-3-7.3l8.4-8.4a9.5,9.5,0,0,0,7.5,1.7,33.7,33.7,0,0,1,3.1,7.6A9.1,9.1,0,0,0-294.3,31Zm-11.8,34.7-4.3,1.5a10.1,10.1,0,0,0-.4-2.5,33,33,0,0,0,7.3-3,9.5,9.5,0,0,0,1.5,2A22.2,22.2,0,0,1-306.1,65.7Zm-31.6-2a9.5,9.5,0,0,0,1.5-2,31.2,31.2,0,0,0,7.3,3,6.9,6.9,0,0,0-.4,2.5A34.7,34.7,0,0,1-337.7,63.7Zm-13.4-13.4a36.4,36.4,0,0,1-3.5-8.4,10.1,10.1,0,0,0,2.5-.4,31.2,31.2,0,0,0,3,7.3A9.5,9.5,0,0,0-351.1,50.3Zm4.7-2.4a29.6,29.6,0,0,1-3.1-7.6,9.6,9.6,0,0,0,4.1-6.5h11.8a14.1,14.1,0,0,0,3,7.3l-8.4,8.4A9.7,9.7,0,0,0-346.4,47.9ZM-321.3,58a9.4,9.4,0,0,0-6.4,4.1,29.6,29.6,0,0,1-7.6-3.1,9.2,9.2,0,0,0-1.7-7.5l8.4-8.4a13.2,13.2,0,0,0,7.3,3Zm1.4,2.7a6.7,6.7,0,0,1,6.7,6.7,6.6,6.6,0,0,1-6.7,6.6,6.6,6.6,0,0,1-6.6-6.6A6.7,6.7,0,0,1-319.9,60.7Zm15.5-1.7a31.2,31.2,0,0,1-7.6,3.1,9.9,9.9,0,0,0-6.5-4.1V46.1a12.6,12.6,0,0,0,7.3-3l8.4,8.4A9.2,9.2,0,0,0-304.4,59Zm-15.5-15.6a10.9,10.9,0,0,1-10.9-11,10.9,10.9,0,0,1,10.9-10.9,10.9,10.9,0,0,1,11,10.9A11,11,0,0,1-319.9,43.4Zm-9-43.3a36.4,36.4,0,0,0-7.3,3.1,9.5,9.5,0,0,0-1.5-2,36.4,36.4,0,0,1,8.4-3.5A6.4,6.4,0,0,0-328.9.1Zm-6.4,5.8a29.9,29.9,0,0,1,7.6-3.2,9.1,9.1,0,0,0,6.4,4.1V18.7a14.1,14.1,0,0,0-7.3,3.1l-8.4-8.4A9.3,9.3,0,0,0-335.3,5.9Zm31.8-2.7A39,39,0,0,0-310.8.1a9.3,9.3,0,0,0,.4-2.4A38.3,38.3,0,0,1-302,1.2,9.5,9.5,0,0,0-303.5,3.2Zm-8.5-.5a31.5,31.5,0,0,1,7.6,3.2,9.3,9.3,0,0,0,1.6,7.4l-8.4,8.4a14.1,14.1,0,0,0-7.3-3V6.8A9.5,9.5,0,0,0-312,2.7Zm23.3,11.9a31.1,31.1,0,0,1,3.5,8.4,6.7,6.7,0,0,0-2.4.4,34.1,34.1,0,0,0-3.1-7.4A10.1,10.1,0,0,0-288.7,14.6ZM-290.5,3a6.6,6.6,0,0,1,0,9.4,6.6,6.6,0,0,1-9.4,0,6.8,6.8,0,0,1,0-9.4A6.8,6.8,0,0,1-290.5,3ZM-319.9-9.2a6.7,6.7,0,0,1,6.7,6.7,6.6,6.6,0,0,1-6.7,6.6,6.6,6.6,0,0,1-6.6-6.6,4.9,4.9,0,0,1,.1-1.2c0-.1.1-.2.1-.3A6.6,6.6,0,0,1-319.9-9.2Zm-19,24.5,8.4,8.4a14.1,14.1,0,0,0-3.1,7.3h-11.8a9.4,9.4,0,0,0-4.1-6.4,29.6,29.6,0,0,1,3.1-7.6A9.6,9.6,0,0,0-338.9,15.3Zm-10.2.7a33.8,33.8,0,0,0-3,7.4,6.9,6.9,0,0,0-2.5-.4,34.7,34.7,0,0,1,3.5-8.4Zm-12.3,16.4a6.7,6.7,0,0,1,6.6-6.6,6.7,6.7,0,0,1,6.7,6.6,6.7,6.7,0,0,1-6.7,6.7A6.7,6.7,0,0,1-361.4,32.4Zm16.9,31.4a6.7,6.7,0,0,1-4.7-1.9,6.8,6.8,0,0,1,0-9.5,6.8,6.8,0,0,1,9.4,0,7,7,0,0,1,0,9.5A7,7,0,0,1-344.5,63.8Zm42.2,16.6c.1.3,0,.5-.4.6H-337c-.4-.1-.5-.3-.5-.6l4.3-11.5,4.3,1.3a9.6,9.6,0,0,0,9,6.7,9.6,9.6,0,0,0,9.1-6.7l4.3-1.3Zm1.5-30.9-8.4-8.4a12.6,12.6,0,0,0,3-7.3h11.9a9.3,9.3,0,0,0,4.1,6.5,29.9,29.9,0,0,1-3.2,7.6l-1.8-.2A9.4,9.4,0,0,0-300.8,49.5Zm10.1-.7a31.4,31.4,0,0,0,3.1-7.3,10,10,0,0,0,2.4.4,32.5,32.5,0,0,1-3.5,8.4A7.5,7.5,0,0,0-290.7,48.8Z"/></clipPath><clipPath id="clip-path-13"><path class="cls-2" d="M-596.4,86.4H-671a2.6,2.6,0,0,1-2.5-2.6V78.3a2.6,2.6,0,0,1,2.5-2.6h28.6a6.5,6.5,0,0,1-.7-2.1,6.7,6.7,0,0,1,1.4-5.3l1-1.1a7.3,7.3,0,0,0,1.4-5.6l-.4-2.4h-11.2a6,6,0,0,1-5.9-6.1c0-.4-.1-.7-.4-.8l-2.4-1.7a2.7,2.7,0,0,1-1-2.9,2.8,2.8,0,0,1,2.5-1.9h19.3V42.9h-6.5a5.9,5.9,0,0,1-5.8-6.1.9.9,0,0,0-.4-.8l-2.4-1.7a2.7,2.7,0,0,1-1-2.9,2.5,2.5,0,0,1,2.4-1.8h13.7V28.1a10.2,10.2,0,0,0-5.7-9.3l-.7-.3V16h23v2.5l-.7.3a10.3,10.3,0,0,0-5.7,9.3v1.5h13.7a2.5,2.5,0,0,1,2.4,1.8,2.7,2.7,0,0,1-1,2.9l-2.3,1.7c-.3.1-.4.4-.4.8a6,6,0,0,1-5.9,6.1h-6.5v2.9h19.3a2.6,2.6,0,0,1,2.5,1.9,2.7,2.7,0,0,1-1,2.9l-2.4,1.7a.9.9,0,0,0-.4.8,6,6,0,0,1-5.9,6.1h-11.2l-.4,2.4a7,7,0,0,0,1.5,5.6l.9,1.1a6.7,6.7,0,0,1,1.4,5.3,4.8,4.8,0,0,1-.7,2.1h28.6a2.6,2.6,0,0,1,2.5,2.6v5.5A2.6,2.6,0,0,1-596.4,86.4ZM-671,78.2h0v5.5h74.6V78.3h-35.1l3.1-2.2a3.8,3.8,0,0,0,1.6-2.7,4.1,4.1,0,0,0-.9-3.4l-.9-1.1a9.6,9.6,0,0,1-2-7.5l.8-4.6h13.3a3.5,3.5,0,0,0,3.4-3.6,3.6,3.6,0,0,1,1.5-2.9l2.3-1.6c.1-.1.1-.1.1-.2h-21.9V40.4h9a3.5,3.5,0,0,0,3.4-3.6,3.6,3.6,0,0,1,1.4-2.9l2.4-1.6v-.2h-16.2v-4a12.8,12.8,0,0,1,4.2-9.6h-13.6a12.8,12.8,0,0,1,4.2,9.6v4h-16.2v.2l2.4,1.6a3.6,3.6,0,0,1,1.5,2.9,3.5,3.5,0,0,0,3.3,3.6h9v7.9h-21.8c-.1.2,0,.2,0,.3l2.4,1.6a3.6,3.6,0,0,1,1.4,2.9,3.5,3.5,0,0,0,3.4,3.6h13.4l.7,4.6a9.6,9.6,0,0,1-2,7.5l-.9,1.1a4.1,4.1,0,0,0-.9,3.4A4.2,4.2,0,0,0-639,76l3.1,2.2Z"/></clipPath><clipPath id="clip-path-14"><path class="cls-1" d="M-666.1,45.1a2.9,2.9,0,0,1,2.8-2.8,5.7,5.7,0,0,0,5.7-5.6v-7a2.8,2.8,0,0,1,2.8-2.9h8.4V24h-8.4a5.6,5.6,0,0,0-5.6,5.7v7a2.9,2.9,0,0,1-2.9,2.8,5.6,5.6,0,0,0-5.6,5.6V64.9h2.8Z"/></clipPath><clipPath id="clip-path-15"><path class="cls-2" d="M-633.7,13.5a1.9,1.9,0,0,1-1.8-1l-3.2-5.3a2.1,2.1,0,0,1,.3-2.7l3.2-3.2a2.2,2.2,0,0,1,3,0l3.2,3.2a2.3,2.3,0,0,1,.4,2.7l-3.2,5.3A2.3,2.3,0,0,1-633.7,13.5Zm0-2.1Zm0-8.5-3.2,3.2,3.2,5.2,3.2-5.3Z"/></clipPath><clipPath id="clip-path-16"><path class="cls-1" d="M-621,24v2.8h8.4a2.8,2.8,0,0,1,2.8,2.9v7a5.7,5.7,0,0,0,5.7,5.6,2.9,2.9,0,0,1,2.8,2.8V64.9h2.8V45.1a5.6,5.6,0,0,0-5.6-5.6,2.8,2.8,0,0,1-2.8-2.8v-7a5.7,5.7,0,0,0-5.7-5.7Z"/></clipPath><clipPath id="clip-path-17"><path class="cls-1" d="M-615.4,14.2h2.8A8.5,8.5,0,0,0-621,5.7h-2.8V8.5h2.8a5.7,5.7,0,0,1,5.6,5.7"/></clipPath><clipPath id="clip-path-18"><path class="cls-1" d="M-646.4,8.5h2.9V5.7h-2.9a8.5,8.5,0,0,0-8.4,8.5h2.8a5.7,5.7,0,0,1,5.6-5.7"/></clipPath><clipPath id="clip-path-19"><path class="cls-1" d="M-166.5,73.1a4.6,4.6,0,0,1-3.1,1.2,4.4,4.4,0,0,1-3.1-1.2,7.3,7.3,0,0,0-5.1-1.9,7,7,0,0,0-5,1.9,4.4,4.4,0,0,1-3.1,1.2,4.4,4.4,0,0,1-3.1-1.2,7.2,7.2,0,0,0-5-1.9,7.3,7.3,0,0,0-5.1,1.9,4.4,4.4,0,0,1-3.1,1.2,3.2,3.2,0,0,1-1.8-.4V31.8h22v3.1h3.2V31.8h1.6a3.1,3.1,0,0,0,3.1-3.2V25.5a3.2,3.2,0,0,0-3.1-3.2h-.1A29.9,29.9,0,0,0-205.6-5.9V-7.6a4.7,4.7,0,0,0-4.7-4.7A4.7,4.7,0,0,0-215-7.6v1.7a29.9,29.9,0,0,0-28.3,28.2h-.1a3.2,3.2,0,0,0-3.1,3.2v3.1a3.1,3.1,0,0,0,3.1,3.2h1.6v3.1h3.2V31.8h22V73.9a4.5,4.5,0,0,1-1.9.4,4.6,4.6,0,0,1-3.1-1.2,7,7,0,0,0-5-1.9,7,7,0,0,0-5,1.9,4.6,4.6,0,0,1-3.1,1.2,4.4,4.4,0,0,1-3.1-1.2,7.2,7.2,0,0,0-5-1.9,7.3,7.3,0,0,0-5.1,1.9,4.4,4.4,0,0,1-3.1,1.2,4.6,4.6,0,0,1-3.1-1.2,7,7,0,0,0-5-1.9v3.1a4.4,4.4,0,0,1,3.1,1.2,7.2,7.2,0,0,0,5,1.9,6.9,6.9,0,0,0,5-1.9,4.8,4.8,0,0,1,3.2-1.2,4.8,4.8,0,0,1,3.1,1.2,6.9,6.9,0,0,0,5,1.9,7,7,0,0,0,5-1.9,4.4,4.4,0,0,1,3.1-1.2,4.4,4.4,0,0,1,3.1,1.2,7.2,7.2,0,0,0,5,1.9,7.3,7.3,0,0,0,5.1-1.9,4.4,4.4,0,0,1,3.1-1.2,4.4,4.4,0,0,1,3.1,1.2,7,7,0,0,0,5,1.9,6.9,6.9,0,0,0,5-1.9,4.8,4.8,0,0,1,3.2-1.2,4.8,4.8,0,0,1,3.1,1.2,7,7,0,0,0,5,1.9,7,7,0,0,0,5-1.9,4.6,4.6,0,0,1,3.1-1.2,4.4,4.4,0,0,1,3.1,1.2,7.3,7.3,0,0,0,5.1,1.9,7.2,7.2,0,0,0,5-1.9,4.4,4.4,0,0,1,3.1-1.2V71.2A7,7,0,0,0-166.5,73.1ZM-210.3-9.1a1.6,1.6,0,0,1,1.6,1.5V-6h-3.2V-7.6A1.6,1.6,0,0,1-210.3-9.1Zm-4.3,6.3a36.5,36.5,0,0,0-8.3,11.9l2.8,1.3a34.3,34.3,0,0,1,9.8-12.8,33.7,33.7,0,0,1,12.6,24.7h-25.1a30.3,30.3,0,0,1,1.6-8.9l-3-1a37.5,37.5,0,0,0-1.8,9.9h-14.1A26.7,26.7,0,0,1-214.6-2.8Zm-28.8,28.3h53.6V22.3h-4.8A36.3,36.3,0,0,0-206-2.8a26.7,26.7,0,0,1,25.5,25.1h-6.2v3.2h9.5v3.1h-66.2Zm33.1,45.7a6.8,6.8,0,0,0-3.1.6v-40h6.3v40A7.6,7.6,0,0,0-210.3,71.2Z"/></clipPath><clipPath id="clip-path-20"><path class="cls-1" d="M-169.6,82.2a4.1,4.1,0,0,1-3.1-1.3,7.8,7.8,0,0,0-5.1-1.9,7.5,7.5,0,0,0-5,1.9,4.1,4.1,0,0,1-3.1,1.3,4.1,4.1,0,0,1-3.1-1.3,7.7,7.7,0,0,0-5-1.9,7.8,7.8,0,0,0-5.1,1.9,4.1,4.1,0,0,1-3.1,1.3,4.1,4.1,0,0,1-3.1-1.3,7.5,7.5,0,0,0-5-1.9,7.3,7.3,0,0,0-5,1.9,4.4,4.4,0,0,1-3.2,1.3,4.4,4.4,0,0,1-3.1-1.3,7.5,7.5,0,0,0-5-1.9,7.5,7.5,0,0,0-5,1.9,4.2,4.2,0,0,1-3.1,1.3,4.1,4.1,0,0,1-3.1-1.3,7.7,7.7,0,0,0-5-1.9,7.8,7.8,0,0,0-5.1,1.9,4.1,4.1,0,0,1-3.1,1.3,4.2,4.2,0,0,1-3.1-1.3,7.5,7.5,0,0,0-5-1.9v3.2a4.4,4.4,0,0,1,3.1,1.2,7.2,7.2,0,0,0,5,1.9,7.3,7.3,0,0,0,5.1-1.9,4.4,4.4,0,0,1,3.1-1.2,4.8,4.8,0,0,1,3.1,1.2,6.9,6.9,0,0,0,5,1.9,7,7,0,0,0,5-1.9,4.4,4.4,0,0,1,3.1-1.2,4.4,4.4,0,0,1,3.1,1.2,7.2,7.2,0,0,0,5,1.9,7.3,7.3,0,0,0,5.1-1.9,4.4,4.4,0,0,1,3.1-1.2,4.6,4.6,0,0,1,3.1,1.2,7,7,0,0,0,5,1.9,7.3,7.3,0,0,0,5.1-1.9,4.4,4.4,0,0,1,3.1-1.2,4.8,4.8,0,0,1,3.1,1.2,7,7,0,0,0,5,1.9,7,7,0,0,0,5-1.9,4.4,4.4,0,0,1,3.1-1.2,4.4,4.4,0,0,1,3.1,1.2,7.3,7.3,0,0,0,5.1,1.9,7.2,7.2,0,0,0,5-1.9,4.4,4.4,0,0,1,3.1-1.2V79a7.5,7.5,0,0,0-5,1.9,4.2,4.2,0,0,1-3.1,1.3"/></clipPath><clipPath id="clip-path-21"><path class="cls-1" d="M-200.8,63.3a4.7,4.7,0,0,0,4.7,4.7,4.7,4.7,0,0,0,4.7-4.7V60.1h-3.2v3.2a1.6,1.6,0,0,1-1.5,1.6,1.6,1.6,0,0,1-1.6-1.6V41.2h-3.1Z"/></clipPath><clipPath id="clip-path-22"><path class="cls-1" d="M-178.8,52.3V44.4H-182v7.9a1.5,1.5,0,0,1-1.5,1.5,1.6,1.6,0,0,1-1.6-1.5V39.7a4.8,4.8,0,0,0-4.7-4.8,4.9,4.9,0,0,0-4.8,4.8v4.7h3.2V39.7a1.6,1.6,0,0,1,1.6-1.6,1.6,1.6,0,0,1,1.5,1.6V52.3a4.8,4.8,0,0,0,4.8,4.7,4.7,4.7,0,0,0,4.7-4.7"/></clipPath><clipPath id="clip-path-23"><path class="cls-1" d="M-222.9,63.3a1.6,1.6,0,0,1-1.6,1.6,1.6,1.6,0,0,1-1.5-1.6V60.1h-3.2v3.2a4.7,4.7,0,0,0,4.7,4.7,4.8,4.8,0,0,0,4.8-4.7V41.2h-3.2Z"/></clipPath><clipPath id="clip-path-24"><path class="cls-1" d="M-241.8,52.3a4.7,4.7,0,0,0,4.7,4.7,4.8,4.8,0,0,0,4.8-4.7V39.7a1.6,1.6,0,0,1,1.5-1.6,1.6,1.6,0,0,1,1.6,1.6v4.7h3.2V39.7a4.9,4.9,0,0,0-4.8-4.8,4.8,4.8,0,0,0-4.7,4.8V52.3a1.6,1.6,0,0,1-1.6,1.5,1.5,1.5,0,0,1-1.5-1.5V44.4h-3.2Z"/></clipPath><clipPath id="clip-path-25"><path class="cls-1" d="M-251.2,63.3a17.7,17.7,0,0,1,5.6.9l5,1.6-2.7-6.6a8.4,8.4,0,0,0-7.9-5.4,4.9,4.9,0,0,0-4.8,4.8,4.8,4.8,0,0,0,4.8,4.7m0-6.3a5.3,5.3,0,0,1,5,3.4v.4a17.5,17.5,0,0,0-5.1-.7,1.6,1.6,0,0,1-1.6-1.5,1.6,1.6,0,0,1,1.6-1.6"/></clipPath><clipPath id="clip-path-26"><path class="cls-1" d="M-177.3,59.2l-2.7,6.6,5-1.6a17.7,17.7,0,0,1,5.6-.9,4.8,4.8,0,0,0,4.8-4.7,4.9,4.9,0,0,0-4.8-4.8A8.4,8.4,0,0,0-177.3,59.2Zm2.9,1.2a5.3,5.3,0,0,1,5-3.4,1.6,1.6,0,0,1,1.6,1.6,1.6,1.6,0,0,1-1.6,1.5,17.9,17.9,0,0,0-5.1.7Z"/></clipPath></defs><path class="cls-3" d="M-91.4,81.9h15.9V72H-91.4Zm17.9,4H-93.4a2,2,0,0,1-2-2V70a2,2,0,0,1,2-2h19.9a2,2,0,0,1,2,2V83.9A2,2,0,0,1-73.5,85.9Z"/><g class="cls-4"><rect class="cls-2" x="-1359.9" y="-3710.7" width="5804" height="4970.61"/></g><path class="cls-3" d="M-101.4,81.9h35.8V-5.6h-35.8Zm37.8,4h-39.7a2,2,0,0,1-2-2V-7.6a2,2,0,0,1,2-2h39.7a2,2,0,0,1,2,2V83.9A2,2,0,0,1-63.6,85.9Z"/><g class="cls-5"><rect class="cls-2" x="-1359.9" y="-3710.7" width="5804" height="4964.66"/></g><path class="cls-3" d="M-117.3,81.9h12V2.3h-12Zm14,4h-16a1.9,1.9,0,0,1-1.9-2V.4a1.9,1.9,0,0,1,1.9-2h16a1.9,1.9,0,0,1,1.9,2V83.9A1.9,1.9,0,0,1-103.3,85.9Z"/><g class="cls-6"><rect class="cls-2" x="-1359.9" y="-3710.7" width="5804" height="4964.66"/></g><path class="cls-3" d="M-61.6,81.9h12V2.3h-12Zm14,4h-16a2,2,0,0,1-2-2V.4a2,2,0,0,1,2-2h16a1.9,1.9,0,0,1,1.9,2V83.9A1.9,1.9,0,0,1-47.6,85.9Z"/><g class="cls-7"><rect class="cls-2" x="-1359.9" y="-3710.7" width="5804" height="4964.66"/></g><rect class="cls-2" x="-47.6" y="81.9" width="23.9" height="3.97"/><g class="cls-8"><rect class="cls-2" x="-77.4" y="52.1" width="83.4" height="63.5"/></g><rect class="cls-2" x="-135.2" y="42.1" width="4" height="19.89" transform="translate(-94.9 -85.7) rotate(-53.1)"/><g class="cls-9"><rect class="cls-2" x="-1359.9" y="-3710.7" width="5804" height="4964.66"/></g><rect class="cls-2" x="-143.1" y="50.1" width="19.9" height="3.98" transform="translate(-57.9 -69.5) rotate(-36.9)"/><g class="cls-10"><rect class="cls-2" x="-1359.9" y="-3710.7" width="5804" height="4964.66"/></g><rect class="cls-2" x="-35.7" y="42.1" width="4" height="19.89" transform="translate(-55.1 -6.2) rotate(-53.1)"/><g class="cls-11"><rect class="cls-2" x="-1359.9" y="-3710.7" width="5804" height="4964.66"/><g class="cls-12"><rect class="cls-2" x="-72.6" y="14.8" width="77.8" height="74.64"/></g></g><rect class="cls-2" x="-43.7" y="50.1" width="19.9" height="3.97" transform="translate(-38 -9.8) rotate(-36.8)"/><g class="cls-13"><rect class="cls-2" x="-1359.9" y="-3710.7" width="5804" height="4964.66"/><g class="cls-12"><rect class="cls-2" x="-72.6" y="14.8" width="77.8" height="74.64"/></g></g><path class="cls-3" d="M-275.5,32.4a9.5,9.5,0,0,0-6.7-9,38.4,38.4,0,0,0-4.6-11.3A9.6,9.6,0,0,0-288.5,1a9.4,9.4,0,0,0-6.7-2.7,8.2,8.2,0,0,0-4.4,1.1,36.6,36.6,0,0,0-11.2-4.7,9.5,9.5,0,0,0-9.1-6.7,9.5,9.5,0,0,0-9,6.7A35.6,35.6,0,0,0-340.1-.6a9.1,9.1,0,0,0-7.2-.7,1.4,1.4,0,0,0,.8,2.7A6.6,6.6,0,0,1-339.8,3a6.8,6.8,0,0,1,0,9.4,6.6,6.6,0,0,1-9.4,0,6.6,6.6,0,0,1-1.5-7.2c.7-1.6-1.9-2.8-2.6-1.1a9.3,9.3,0,0,0,.4,8,41.6,41.6,0,0,0-4.7,11.3,9.5,9.5,0,0,0-6.6,9,9.5,9.5,0,0,0,6.6,9.1,40.9,40.9,0,0,0,4.7,11.2,9.4,9.4,0,0,0,1.7,11.1,9.6,9.6,0,0,0,11.1,1.7,35.5,35.5,0,0,0,4.3,2.3l-4.3,11.6a3.3,3.3,0,0,0,3.1,4.4h34.3a3.4,3.4,0,0,0,3.1-4.4l-4.3-11.6a35.5,35.5,0,0,0,4.3-2.3,9.9,9.9,0,0,0,4.4,1.1,9.7,9.7,0,0,0,2.9-.4,1.4,1.4,0,0,0-.9-2.7,6.7,6.7,0,0,1-6.7-1.6,6.8,6.8,0,0,1,0-9.5,6.8,6.8,0,0,1,9.4,0,6.6,6.6,0,0,1,1.5,7.2,1.4,1.4,0,0,0,2.6,1.1,10.1,10.1,0,0,0-.4-8,37.8,37.8,0,0,0,4.6-11.2A9.5,9.5,0,0,0-275.5,32.4Zm-2.8,0a6.7,6.7,0,0,1-6.7,6.7,6.7,6.7,0,0,1-6.6-6.7,6.7,6.7,0,0,1,6.6-6.6A6.7,6.7,0,0,1-278.3,32.4Zm-16-1.4h-11.9a13.2,13.2,0,0,0-3-7.3l8.4-8.4a9.5,9.5,0,0,0,7.5,1.7,33.7,33.7,0,0,1,3.1,7.6A9.1,9.1,0,0,0-294.3,31Zm-11.8,34.7-4.3,1.5a10.1,10.1,0,0,0-.4-2.5,33,33,0,0,0,7.3-3,9.5,9.5,0,0,0,1.5,2A22.2,22.2,0,0,1-306.1,65.7Zm-31.6-2a9.5,9.5,0,0,0,1.5-2,31.2,31.2,0,0,0,7.3,3,6.9,6.9,0,0,0-.4,2.5A34.7,34.7,0,0,1-337.7,63.7Zm-13.4-13.4a36.4,36.4,0,0,1-3.5-8.4,10.1,10.1,0,0,0,2.5-.4,31.2,31.2,0,0,0,3,7.3A9.5,9.5,0,0,0-351.1,50.3Zm4.7-2.4a29.6,29.6,0,0,1-3.1-7.6,9.6,9.6,0,0,0,4.1-6.5h11.8a14.1,14.1,0,0,0,3,7.3l-8.4,8.4A9.7,9.7,0,0,0-346.4,47.9ZM-321.3,58a9.4,9.4,0,0,0-6.4,4.1,29.6,29.6,0,0,1-7.6-3.1,9.2,9.2,0,0,0-1.7-7.5l8.4-8.4a13.2,13.2,0,0,0,7.3,3Zm1.4,2.7a6.7,6.7,0,0,1,6.7,6.7,6.6,6.6,0,0,1-6.7,6.6,6.6,6.6,0,0,1-6.6-6.6A6.7,6.7,0,0,1-319.9,60.7Zm15.5-1.7a31.2,31.2,0,0,1-7.6,3.1,9.9,9.9,0,0,0-6.5-4.1V46.1a12.6,12.6,0,0,0,7.3-3l8.4,8.4A9.2,9.2,0,0,0-304.4,59Zm-15.5-15.6a10.9,10.9,0,0,1-10.9-11,10.9,10.9,0,0,1,10.9-10.9,10.9,10.9,0,0,1,11,10.9A11,11,0,0,1-319.9,43.4Zm-9-43.3a36.4,36.4,0,0,0-7.3,3.1,9.5,9.5,0,0,0-1.5-2,36.4,36.4,0,0,1,8.4-3.5A6.4,6.4,0,0,0-328.9.1Zm-6.4,5.8a29.9,29.9,0,0,1,7.6-3.2,9.1,9.1,0,0,0,6.4,4.1V18.7a14.1,14.1,0,0,0-7.3,3.1l-8.4-8.4A9.3,9.3,0,0,0-335.3,5.9Zm31.8-2.7A39,39,0,0,0-310.8.1a9.3,9.3,0,0,0,.4-2.4A38.3,38.3,0,0,1-302,1.2,9.5,9.5,0,0,0-303.5,3.2Zm-8.5-.5a31.5,31.5,0,0,1,7.6,3.2,9.3,9.3,0,0,0,1.6,7.4l-8.4,8.4a14.1,14.1,0,0,0-7.3-3V6.8A9.5,9.5,0,0,0-312,2.7Zm23.3,11.9a31.1,31.1,0,0,1,3.5,8.4,6.7,6.7,0,0,0-2.4.4,34.1,34.1,0,0,0-3.1-7.4A10.1,10.1,0,0,0-288.7,14.6ZM-290.5,3a6.6,6.6,0,0,1,0,9.4,6.6,6.6,0,0,1-9.4,0,6.8,6.8,0,0,1,0-9.4A6.8,6.8,0,0,1-290.5,3ZM-319.9-9.2a6.7,6.7,0,0,1,6.7,6.7,6.6,6.6,0,0,1-6.7,6.6,6.6,6.6,0,0,1-6.6-6.6,4.9,4.9,0,0,1,.1-1.2c0-.1.1-.2.1-.3A6.6,6.6,0,0,1-319.9-9.2Zm-19,24.5,8.4,8.4a14.1,14.1,0,0,0-3.1,7.3h-11.8a9.4,9.4,0,0,0-4.1-6.4,29.6,29.6,0,0,1,3.1-7.6A9.6,9.6,0,0,0-338.9,15.3Zm-10.2.7a33.8,33.8,0,0,0-3,7.4,6.9,6.9,0,0,0-2.5-.4,34.7,34.7,0,0,1,3.5-8.4Zm-12.3,16.4a6.7,6.7,0,0,1,6.6-6.6,6.7,6.7,0,0,1,6.7,6.6,6.7,6.7,0,0,1-6.7,6.7A6.7,6.7,0,0,1-361.4,32.4Zm16.9,31.4a6.7,6.7,0,0,1-4.7-1.9,6.8,6.8,0,0,1,0-9.5,6.8,6.8,0,0,1,9.4,0,7,7,0,0,1,0,9.5A7,7,0,0,1-344.5,63.8Zm42.2,16.6c.1.3,0,.5-.4.6H-337c-.4-.1-.5-.3-.5-.6l4.3-11.5,4.3,1.3a9.6,9.6,0,0,0,9,6.7,9.6,9.6,0,0,0,9.1-6.7l4.3-1.3Zm1.5-30.9-8.4-8.4a12.6,12.6,0,0,0,3-7.3h11.9a9.3,9.3,0,0,0,4.1,6.5,29.9,29.9,0,0,1-3.2,7.6l-1.8-.2A9.4,9.4,0,0,0-300.8,49.5Zm10.1-.7a31.4,31.4,0,0,0,3.1-7.3,10,10,0,0,0,2.4.4,32.5,32.5,0,0,1-3.5,8.4A7.5,7.5,0,0,0-290.7,48.8Z"/><g class="cls-14"><rect class="cls-2" x="-4884.2" y="-2227.3" width="5391.4" height="4611.73"/></g><path class="cls-2" d="M-596.4,86.4H-671a2.6,2.6,0,0,1-2.5-2.6V78.3a2.6,2.6,0,0,1,2.5-2.6h28.6a6.5,6.5,0,0,1-.7-2.1,6.7,6.7,0,0,1,1.4-5.3l1-1.1a7.3,7.3,0,0,0,1.4-5.6l-.4-2.4h-11.2a6,6,0,0,1-5.9-6.1c0-.4-.1-.7-.4-.8l-2.4-1.7a2.7,2.7,0,0,1-1-2.9,2.8,2.8,0,0,1,2.5-1.9h19.3V42.9h-6.5a5.9,5.9,0,0,1-5.8-6.1.9.9,0,0,0-.4-.8l-2.4-1.7a2.7,2.7,0,0,1-1-2.9,2.5,2.5,0,0,1,2.4-1.8h13.7V28.1a10.2,10.2,0,0,0-5.7-9.3l-.7-.3V16h23v2.5l-.7.3a10.3,10.3,0,0,0-5.7,9.3v1.5h13.7a2.5,2.5,0,0,1,2.4,1.8,2.7,2.7,0,0,1-1,2.9l-2.3,1.7c-.3.1-.4.4-.4.8a6,6,0,0,1-5.9,6.1h-6.5v2.9h19.3a2.6,2.6,0,0,1,2.5,1.9,2.7,2.7,0,0,1-1,2.9l-2.4,1.7a.9.9,0,0,0-.4.8,6,6,0,0,1-5.9,6.1h-11.2l-.4,2.4a7,7,0,0,0,1.5,5.6l.9,1.1a6.7,6.7,0,0,1,1.4,5.3,4.8,4.8,0,0,1-.7,2.1h28.6a2.6,2.6,0,0,1,2.5,2.6v5.5A2.6,2.6,0,0,1-596.4,86.4ZM-671,78.2h0v5.5h74.6V78.3h-35.1l3.1-2.2a3.8,3.8,0,0,0,1.6-2.7,4.1,4.1,0,0,0-.9-3.4l-.9-1.1a9.6,9.6,0,0,1-2-7.5l.8-4.6h13.3a3.5,3.5,0,0,0,3.4-3.6,3.6,3.6,0,0,1,1.5-2.9l2.3-1.6c.1-.1.1-.1.1-.2h-21.9V40.4h9a3.5,3.5,0,0,0,3.4-3.6,3.6,3.6,0,0,1,1.4-2.9l2.4-1.6v-.2h-16.2v-4a12.8,12.8,0,0,1,4.2-9.6h-13.6a12.8,12.8,0,0,1,4.2,9.6v4h-16.2v.2l2.4,1.6a3.6,3.6,0,0,1,1.5,2.9,3.5,3.5,0,0,0,3.3,3.6h9v7.9h-21.8c-.1.2,0,.2,0,.3l2.4,1.6a3.6,3.6,0,0,1,1.4,2.9,3.5,3.5,0,0,0,3.4,3.6h13.4l.7,4.6a9.6,9.6,0,0,1-2,7.5l-.9,1.1a4.1,4.1,0,0,0-.9,3.4A4.2,4.2,0,0,0-639,76l3.1,2.2Z"/><g class="cls-15"><path class="cls-2" d="M1789.2,1870.2H-3088.1V-2536H1789.2Zm-4874.3-3H1786.2V-2533H-3085.1Z"/></g><path class="cls-3" d="M-666.1,45.1a2.9,2.9,0,0,1,2.8-2.8,5.7,5.7,0,0,0,5.7-5.6v-7a2.8,2.8,0,0,1,2.8-2.9h8.4V24h-8.4a5.6,5.6,0,0,0-5.6,5.7v7a2.9,2.9,0,0,1-2.9,2.8,5.6,5.6,0,0,0-5.6,5.6V64.9h2.8Z"/><g class="cls-16"><rect class="cls-2" x="-3319.9" y="-2631.9" width="5338" height="4566.05"/></g><path class="cls-2" d="M-633.7,13.5a1.9,1.9,0,0,1-1.8-1l-3.2-5.3a2.1,2.1,0,0,1,.3-2.7l3.2-3.2a2.2,2.2,0,0,1,3,0l3.2,3.2a2.3,2.3,0,0,1,.4,2.7l-3.2,5.3A2.3,2.3,0,0,1-633.7,13.5Zm0-2.1Zm0-8.5-3.2,3.2,3.2,5.2,3.2-5.3Z"/><g class="cls-17"><path class="cls-2" d="M1373.4,1466H-2666.9V-1990.4H1373.4Zm-4038.1-2.2H1371.2v-3452H-2664.7Z"/></g><path class="cls-3" d="M-621,24v2.8h8.4a2.8,2.8,0,0,1,2.8,2.9v7a5.7,5.7,0,0,0,5.7,5.6,2.9,2.9,0,0,1,2.8,2.8V64.9h2.8V45.1a5.6,5.6,0,0,0-5.6-5.6,2.8,2.8,0,0,1-2.8-2.8v-7a5.7,5.7,0,0,0-5.7-5.7Z"/><g class="cls-18"><rect class="cls-2" x="-3319.9" y="-2631.9" width="5338" height="4566.05"/></g><path class="cls-3" d="M-615.4,14.2h2.8A8.5,8.5,0,0,0-621,5.7h-2.8V8.5h2.8a5.7,5.7,0,0,1,5.6,5.7"/><g class="cls-19"><rect class="cls-2" x="-3319.9" y="-2631.9" width="5338" height="4566.05"/></g><path class="cls-3" d="M-646.4,8.5h2.9V5.7h-2.9a8.5,8.5,0,0,0-8.4,8.5h2.8a5.7,5.7,0,0,1,5.6-5.7"/><g class="cls-20"><rect class="cls-2" x="-3319.9" y="-2631.9" width="5338" height="4566.05"/></g><path class="cls-3" d="M-166.5,73.1a4.6,4.6,0,0,1-3.1,1.2,4.4,4.4,0,0,1-3.1-1.2,7.3,7.3,0,0,0-5.1-1.9,7,7,0,0,0-5,1.9,4.4,4.4,0,0,1-3.1,1.2,4.4,4.4,0,0,1-3.1-1.2,7.2,7.2,0,0,0-5-1.9,7.3,7.3,0,0,0-5.1,1.9,4.4,4.4,0,0,1-3.1,1.2,3.2,3.2,0,0,1-1.8-.4V31.8h22v3.1h3.2V31.8h1.6a3.1,3.1,0,0,0,3.1-3.2V25.5a3.2,3.2,0,0,0-3.1-3.2h-.1A29.9,29.9,0,0,0-205.6-5.9V-7.6a4.7,4.7,0,0,0-4.7-4.7A4.7,4.7,0,0,0-215-7.6v1.7a29.9,29.9,0,0,0-28.3,28.2h-.1a3.2,3.2,0,0,0-3.1,3.2v3.1a3.1,3.1,0,0,0,3.1,3.2h1.6v3.1h3.2V31.8h22V73.9a4.5,4.5,0,0,1-1.9.4,4.6,4.6,0,0,1-3.1-1.2,7,7,0,0,0-5-1.9,7,7,0,0,0-5,1.9,4.6,4.6,0,0,1-3.1,1.2,4.4,4.4,0,0,1-3.1-1.2,7.2,7.2,0,0,0-5-1.9,7.3,7.3,0,0,0-5.1,1.9,4.4,4.4,0,0,1-3.1,1.2,4.6,4.6,0,0,1-3.1-1.2,7,7,0,0,0-5-1.9v3.1a4.4,4.4,0,0,1,3.1,1.2,7.2,7.2,0,0,0,5,1.9,6.9,6.9,0,0,0,5-1.9,4.8,4.8,0,0,1,3.2-1.2,4.8,4.8,0,0,1,3.1,1.2,6.9,6.9,0,0,0,5,1.9,7,7,0,0,0,5-1.9,4.4,4.4,0,0,1,3.1-1.2,4.4,4.4,0,0,1,3.1,1.2,7.2,7.2,0,0,0,5,1.9,7.3,7.3,0,0,0,5.1-1.9,4.4,4.4,0,0,1,3.1-1.2,4.4,4.4,0,0,1,3.1,1.2,7,7,0,0,0,5,1.9,6.9,6.9,0,0,0,5-1.9,4.8,4.8,0,0,1,3.2-1.2,4.8,4.8,0,0,1,3.1,1.2,7,7,0,0,0,5,1.9,7,7,0,0,0,5-1.9,4.6,4.6,0,0,1,3.1-1.2,4.4,4.4,0,0,1,3.1,1.2,7.3,7.3,0,0,0,5.1,1.9,7.2,7.2,0,0,0,5-1.9,4.4,4.4,0,0,1,3.1-1.2V71.2A7,7,0,0,0-166.5,73.1ZM-210.3-9.1a1.6,1.6,0,0,1,1.6,1.5V-6h-3.2V-7.6A1.6,1.6,0,0,1-210.3-9.1Zm-4.3,6.3a36.5,36.5,0,0,0-8.3,11.9l2.8,1.3a34.3,34.3,0,0,1,9.8-12.8,33.7,33.7,0,0,1,12.6,24.7h-25.1a30.3,30.3,0,0,1,1.6-8.9l-3-1a37.5,37.5,0,0,0-1.8,9.9h-14.1A26.7,26.7,0,0,1-214.6-2.8Zm-28.8,28.3h53.6V22.3h-4.8A36.3,36.3,0,0,0-206-2.8a26.7,26.7,0,0,1,25.5,25.1h-6.2v3.2h9.5v3.1h-66.2Zm33.1,45.7a6.8,6.8,0,0,0-3.1.6v-40h6.3v40A7.6,7.6,0,0,0-210.3,71.2Z"/><g class="cls-21"><rect class="cls-2" x="-3007.1" y="-2414.3" width="5224.4" height="4468.85"/></g><path class="cls-3" d="M-169.6,82.2a4.1,4.1,0,0,1-3.1-1.3,7.8,7.8,0,0,0-5.1-1.9,7.5,7.5,0,0,0-5,1.9,4.1,4.1,0,0,1-3.1,1.3,4.1,4.1,0,0,1-3.1-1.3,7.7,7.7,0,0,0-5-1.9,7.8,7.8,0,0,0-5.1,1.9,4.1,4.1,0,0,1-3.1,1.3,4.1,4.1,0,0,1-3.1-1.3,7.5,7.5,0,0,0-5-1.9,7.3,7.3,0,0,0-5,1.9,4.4,4.4,0,0,1-3.2,1.3,4.4,4.4,0,0,1-3.1-1.3,7.5,7.5,0,0,0-5-1.9,7.5,7.5,0,0,0-5,1.9,4.2,4.2,0,0,1-3.1,1.3,4.1,4.1,0,0,1-3.1-1.3,7.7,7.7,0,0,0-5-1.9,7.8,7.8,0,0,0-5.1,1.9,4.1,4.1,0,0,1-3.1,1.3,4.2,4.2,0,0,1-3.1-1.3,7.5,7.5,0,0,0-5-1.9v3.2a4.4,4.4,0,0,1,3.1,1.2,7.2,7.2,0,0,0,5,1.9,7.3,7.3,0,0,0,5.1-1.9,4.4,4.4,0,0,1,3.1-1.2,4.8,4.8,0,0,1,3.1,1.2,6.9,6.9,0,0,0,5,1.9,7,7,0,0,0,5-1.9,4.4,4.4,0,0,1,3.1-1.2,4.4,4.4,0,0,1,3.1,1.2,7.2,7.2,0,0,0,5,1.9,7.3,7.3,0,0,0,5.1-1.9,4.4,4.4,0,0,1,3.1-1.2,4.6,4.6,0,0,1,3.1,1.2,7,7,0,0,0,5,1.9,7.3,7.3,0,0,0,5.1-1.9,4.4,4.4,0,0,1,3.1-1.2,4.8,4.8,0,0,1,3.1,1.2,7,7,0,0,0,5,1.9,7,7,0,0,0,5-1.9,4.4,4.4,0,0,1,3.1-1.2,4.4,4.4,0,0,1,3.1,1.2,7.3,7.3,0,0,0,5.1,1.9,7.2,7.2,0,0,0,5-1.9,4.4,4.4,0,0,1,3.1-1.2V79a7.5,7.5,0,0,0-5,1.9,4.2,4.2,0,0,1-3.1,1.3"/><g class="cls-22"><rect class="cls-2" x="-3007.1" y="-2414.3" width="5224.4" height="4468.85"/></g><path class="cls-3" d="M-200.8,63.3a4.7,4.7,0,0,0,4.7,4.7,4.7,4.7,0,0,0,4.7-4.7V60.1h-3.2v3.2a1.6,1.6,0,0,1-1.5,1.6,1.6,1.6,0,0,1-1.6-1.6V41.2h-3.1Z"/><g class="cls-23"><rect class="cls-2" x="-3007.1" y="-2414.3" width="5224.4" height="4468.85"/></g><path class="cls-3" d="M-178.8,52.3V44.4H-182v7.9a1.5,1.5,0,0,1-1.5,1.5,1.6,1.6,0,0,1-1.6-1.5V39.7a4.8,4.8,0,0,0-4.7-4.8,4.9,4.9,0,0,0-4.8,4.8v4.7h3.2V39.7a1.6,1.6,0,0,1,1.6-1.6,1.6,1.6,0,0,1,1.5,1.6V52.3a4.8,4.8,0,0,0,4.8,4.7,4.7,4.7,0,0,0,4.7-4.7"/><g class="cls-24"><rect class="cls-2" x="-3007.1" y="-2414.3" width="5224.4" height="4468.85"/></g><path class="cls-3" d="M-222.9,63.3a1.6,1.6,0,0,1-1.6,1.6,1.6,1.6,0,0,1-1.5-1.6V60.1h-3.2v3.2a4.7,4.7,0,0,0,4.7,4.7,4.8,4.8,0,0,0,4.8-4.7V41.2h-3.2Z"/><g class="cls-25"><rect class="cls-2" x="-3007.1" y="-2414.3" width="5224.4" height="4468.85"/></g><path class="cls-3" d="M-241.8,52.3a4.7,4.7,0,0,0,4.7,4.7,4.8,4.8,0,0,0,4.8-4.7V39.7a1.6,1.6,0,0,1,1.5-1.6,1.6,1.6,0,0,1,1.6,1.6v4.7h3.2V39.7a4.9,4.9,0,0,0-4.8-4.8,4.8,4.8,0,0,0-4.7,4.8V52.3a1.6,1.6,0,0,1-1.6,1.5,1.5,1.5,0,0,1-1.5-1.5V44.4h-3.2Z"/><g class="cls-26"><rect class="cls-2" x="-3007.1" y="-2414.3" width="5224.4" height="4468.85"/></g><path class="cls-3" d="M-251.2,63.3a17.7,17.7,0,0,1,5.6.9l5,1.6-2.7-6.6a8.4,8.4,0,0,0-7.9-5.4,4.9,4.9,0,0,0-4.8,4.8,4.8,4.8,0,0,0,4.8,4.7m0-6.3a5.3,5.3,0,0,1,5,3.4v.4a17.5,17.5,0,0,0-5.1-.7,1.6,1.6,0,0,1-1.6-1.5,1.6,1.6,0,0,1,1.6-1.6"/><g class="cls-27"><rect class="cls-2" x="-3007.1" y="-2414.3" width="5224.4" height="4468.85"/></g><path class="cls-3" d="M-177.3,59.2l-2.7,6.6,5-1.6a17.7,17.7,0,0,1,5.6-.9,4.8,4.8,0,0,0,4.8-4.7,4.9,4.9,0,0,0-4.8-4.8A8.4,8.4,0,0,0-177.3,59.2Zm2.9,1.2a5.3,5.3,0,0,1,5-3.4,1.6,1.6,0,0,1,1.6,1.6,1.6,1.6,0,0,1-1.6,1.5,17.9,17.9,0,0,0-5.1.7Z"/><g class="cls-28"><rect class="cls-2" x="-3007.1" y="-2414.3" width="5224.4" height="4468.85"/></g><path class="cls-2" d="M100.5,15.3H82.8v-5a3.7,3.7,0,0,0-3.7-3.7H76.3V3a2.9,2.9,0,0,0-3-3H39.7a3,3,0,0,0-3,3V6.6H33.9a3.6,3.6,0,0,0-3.6,3.7V18L12.9,26h-.1L4,30H3.9C2.3,30.8,0,31.8,0,34.5v51A2.5,2.5,0,0,0,2.5,88h98a2.7,2.7,0,0,0,2.7-2.7V17.9A2.7,2.7,0,0,0,100.5,15.3ZM30.3,76.7H14.1V72.1H30.3Zm0-16.5H14.1V55.6H30.3Zm0-16.5H14.1V39H30.3Zm0-7.7H13.6a2.5,2.5,0,0,0-2.5,2.5v5.7a2.5,2.5,0,0,0,2.5,2.5H30.3v5.8H13.6A2.5,2.5,0,0,0,11.1,55v5.7a2.5,2.5,0,0,0,2.5,2.5H30.3v5.9H13.6a2.5,2.5,0,0,0-2.5,2.5v5.7a2.5,2.5,0,0,0,2.5,2.5H30.3v5.1H3V34.5c0-.6.6-1,2.2-1.7l7-3.2h.1l18-8.2ZM55,84.9H48.3V69.8H55Zm9.8,0H58.1V69.8h6.7Zm15,0h-12V69.8h3.3a1.6,1.6,0,0,0,1.5-1.6,1.5,1.5,0,0,0-1.5-1.5H42a1.5,1.5,0,0,0-1.5,1.5A1.6,1.6,0,0,0,42,69.8h3.2V84.9H33.3V10.3a.7.7,0,0,1,.6-.7H53.3a1.5,1.5,0,0,0,0-3H39.8V3H73.3V6.6H60.4a1.6,1.6,0,0,0-1.6,1.5,1.5,1.5,0,0,0,1.6,1.5H79.1a.7.7,0,0,1,.7.7Zm3-56.4h8.3v4.6H82.8Zm0,16.5h8.3v4.6H82.8Zm0,16.5h8.3v4.7H82.8Zm17.3,23.4H82.8V69.2h8.9a2.5,2.5,0,0,0,2.5-2.5V61a2.5,2.5,0,0,0-2.5-2.5H82.8V52.7h8.9a2.6,2.6,0,0,0,2.5-2.5V44.5a2.6,2.6,0,0,0-2.5-2.6H82.8V36.1h8.9a2.5,2.5,0,0,0,2.5-2.5V27.9a2.5,2.5,0,0,0-2.5-2.5H82.8V18.3h17.3ZM12.3,29.6Z"/><path class="cls-2" d="M51.3,15.3H42.2a2.1,2.1,0,0,0-2.1,2.1v6.9a2.1,2.1,0,0,0,2.1,2.1h9.1a2.1,2.1,0,0,0,2.1-2.1V17.4A2.1,2.1,0,0,0,51.3,15.3Zm-1,8.1H43.1V18.3h7.2Z"/><path class="cls-2" d="M70.9,15.3H61.8a2.1,2.1,0,0,0-2.1,2.1v6.9a2.1,2.1,0,0,0,2.1,2.1h9.1A2.1,2.1,0,0,0,73,24.3V17.4A2.1,2.1,0,0,0,70.9,15.3ZM70,23.4H62.8V18.3H70Z"/><path class="cls-2" d="M51.3,31.2H42.2a2.1,2.1,0,0,0-2.1,2.2v6.9a2.1,2.1,0,0,0,2.1,2.1h9.1a2.2,2.2,0,0,0,2.1-2.1V33.4A2.2,2.2,0,0,0,51.3,31.2Zm-1,8.2H43.1V34.3h7.2Z"/><path class="cls-2" d="M70.9,31.2H61.8a2.1,2.1,0,0,0-2.1,2.2v6.9a2.1,2.1,0,0,0,2.1,2.1h9.1A2.1,2.1,0,0,0,73,40.3V33.4A2.1,2.1,0,0,0,70.9,31.2ZM70,39.4H62.8V34.3H70Z"/><path class="cls-2" d="M51.3,47.2H42.2a2.1,2.1,0,0,0-2.1,2.1v6.9a2.1,2.1,0,0,0,2.1,2.2h9.1a2.2,2.2,0,0,0,2.1-2.2V49.3A2.2,2.2,0,0,0,51.3,47.2Zm-1,8.1H43.1v-5h7.2Z"/><path class="cls-2" d="M70.9,47.2H61.8a2.1,2.1,0,0,0-2.1,2.1v6.9a2.1,2.1,0,0,0,2.1,2.2h9.1A2.1,2.1,0,0,0,73,56.2V49.3A2.1,2.1,0,0,0,70.9,47.2ZM70,55.3H62.8v-5H70Z"/></svg>