<svg id="Layer_1" data-name="Layer 1" xmlns="http://www.w3.org/2000/svg" xmlns:xlink="http://www.w3.org/1999/xlink" viewBox="0 0 95.9 92.5"><defs><style>.cls-1,.cls-2,.cls-3{fill:#221c45;}.cls-1{clip-rule:evenodd;}.cls-3{fill-rule:evenodd;}.cls-4{clip-path:url(#clip-path);}.cls-5{clip-path:url(#clip-path-2);}.cls-6{clip-path:url(#clip-path-3);}.cls-7{clip-path:url(#clip-path-4);}.cls-8{clip-path:url(#clip-path-5);}.cls-9{clip-path:url(#clip-path-6);}.cls-10{clip-path:url(#clip-path-7);}.cls-11{clip-path:url(#clip-path-8);}.cls-12{clip-path:url(#clip-path-9);}.cls-13{clip-path:url(#clip-path-10);}.cls-14{clip-path:url(#clip-path-11);}.cls-15{clip-path:url(#clip-path-12);}.cls-16{clip-path:url(#clip-path-13);}.cls-17{clip-path:url(#clip-path-14);}.cls-18{clip-path:url(#clip-path-15);}.cls-19{clip-path:url(#clip-path-16);}.cls-20{clip-path:url(#clip-path-17);}.cls-21{clip-path:url(#clip-path-18);}.cls-22{clip-path:url(#clip-path-19);}.cls-23{clip-path:url(#clip-path-20);}.cls-24{clip-path:url(#clip-path-21);}.cls-25{clip-path:url(#clip-path-22);}.cls-26{clip-path:url(#clip-path-23);}.cls-27{clip-path:url(#clip-path-24);}.cls-28{clip-path:url(#clip-path-25);}.cls-29{clip-path:url(#clip-path-26);}</style><clipPath id="clip-path"><path class="cls-1" d="M483.3,88.3h15.9V78.4H483.3Zm17.9,4H481.3a2,2,0,0,1-2-2V76.4a2,2,0,0,1,2-2h19.9a2,2,0,0,1,2,2V90.3A2,2,0,0,1,501.2,92.3Z"/></clipPath><clipPath id="clip-path-2"><path class="cls-1" d="M473.3,88.3h35.8V.8H473.3Zm37.8,4H471.3a2,2,0,0,1-2-2V-1.2a2,2,0,0,1,2-2h39.8a2,2,0,0,1,2,2V90.3A2,2,0,0,1,511.1,92.3Z"/></clipPath><clipPath id="clip-path-3"><path class="cls-1" d="M457.4,88.3h11.9V8.8H457.4Zm13.9,4H455.4a2,2,0,0,1-2-2V6.8a2,2,0,0,1,2-2h15.9a2,2,0,0,1,2,2V90.3A2,2,0,0,1,471.3,92.3Z"/></clipPath><clipPath id="clip-path-4"><path class="cls-1" d="M513.1,88.3H525V8.8H513.1Zm13.9,4H511.1a2,2,0,0,1-2-2V6.8a2,2,0,0,1,2-2H527a2,2,0,0,1,2,2V90.3A2,2,0,0,1,527,92.3Z"/></clipPath><clipPath id="clip-path-5"><rect class="cls-2" x="439.5" y="48.6" width="4" height="19.89" transform="translate(129.7 376.5) rotate(-53.1)"/></clipPath><clipPath id="clip-path-6"><rect class="cls-2" x="431.5" y="56.5" width="19.9" height="3.98" transform="translate(53.2 276.6) rotate(-36.9)"/></clipPath><clipPath id="clip-path-7"><rect class="cls-2" x="539" y="48.6" width="4" height="19.89" transform="translate(169.5 456.1) rotate(-53.1)"/></clipPath><clipPath id="clip-path-8"><rect class="cls-2" x="531" y="56.5" width="19.9" height="3.97" transform="translate(73 336.1) rotate(-36.8)"/></clipPath><clipPath id="clip-path-9"><path class="cls-1" d="M299.2,38.9a9.6,9.6,0,0,0-6.7-9.1,36.6,36.6,0,0,0-4.7-11.2,9.4,9.4,0,0,0-8.3-13.9,9.3,9.3,0,0,0-4.4,1.1,38.6,38.6,0,0,0-11.3-4.7,9.4,9.4,0,0,0-18,0,38.6,38.6,0,0,0-11.3,4.7,9.2,9.2,0,0,0-7.1-.7,1.4,1.4,0,0,0,.8,2.7,6.5,6.5,0,0,1,6.6,1.7,6.6,6.6,0,0,1,0,9.4,6.8,6.8,0,0,1-9.4,0,6.8,6.8,0,0,1-1.4-7.3,1.4,1.4,0,0,0-2.6-1,9.4,9.4,0,0,0,.4,8,39.2,39.2,0,0,0-4.7,11.2,9.5,9.5,0,0,0,0,18.1,38.6,38.6,0,0,0,4.7,11.3,9.4,9.4,0,0,0,12.7,12.7,26.4,26.4,0,0,0,4.4,2.3l-4.3,11.7a3.2,3.2,0,0,0,3,4.3H272a3.2,3.2,0,0,0,3-4.3l-4.2-11.7a30,30,0,0,0,4.3-2.3,8.2,8.2,0,0,0,4.4,1.1,10.1,10.1,0,0,0,2.9-.4,1.4,1.4,0,0,0-.9-2.7,6.4,6.4,0,0,1-6.7-1.6,6.6,6.6,0,1,1,10.8-2.2,1.4,1.4,0,0,0,2.7,1,9.5,9.5,0,0,0-.5-7.9,38.6,38.6,0,0,0,4.7-11.3A9.6,9.6,0,0,0,299.2,38.9Zm-2.9,0a6.6,6.6,0,1,1-6.6-6.7A6.6,6.6,0,0,1,296.3,38.9Zm-15.9-1.4H268.5a14.1,14.1,0,0,0-3-7.3l8.4-8.4a9.7,9.7,0,0,0,7.4,1.6,31.5,31.5,0,0,1,3.2,7.6A9.5,9.5,0,0,0,280.4,37.5ZM268.5,72.2l-4.3,1.4a9.3,9.3,0,0,0-.3-2.4,39,39,0,0,0,7.3-3.1,9.5,9.5,0,0,0,1.5,2A32.9,32.9,0,0,1,268.5,72.2ZM237,70.1a14.3,14.3,0,0,0,1.4-2,39,39,0,0,0,7.3,3.1,9.3,9.3,0,0,0-.3,2.4A34.7,34.7,0,0,1,237,70.1ZM223.6,56.7a34.7,34.7,0,0,1-3.5-8.4,6.9,6.9,0,0,0,2.5-.4,31.9,31.9,0,0,0,3,7.4Zm4.7-2.4a29.9,29.9,0,0,1-3.2-7.6,9.1,9.1,0,0,0,4.1-6.4h11.9a14.1,14.1,0,0,0,3,7.2L235.7,56A9.3,9.3,0,0,0,228.3,54.3Zm25.1,10.2a9.5,9.5,0,0,0-6.5,4.1,30.8,30.8,0,0,1-7.5-3.2,9.7,9.7,0,0,0-1.7-7.5l8.4-8.4a13.4,13.4,0,0,0,7.3,3.1Zm1.4,2.7a6.7,6.7,0,1,1-6.6,6.6A6.6,6.6,0,0,1,254.8,67.2Zm15.4-1.8a30.8,30.8,0,0,1-7.5,3.2,9.5,9.5,0,0,0-6.5-4.1V52.6a14.1,14.1,0,0,0,7.3-3l8.4,8.4A9.4,9.4,0,0,0,270.2,65.4ZM254.8,49.8a11,11,0,1,1,11-10.9A11,11,0,0,1,254.8,49.8ZM245.7,6.6a33,33,0,0,0-7.3,3,14.3,14.3,0,0,0-1.4-2,34.7,34.7,0,0,1,8.4-3.5A10.1,10.1,0,0,0,245.7,6.6Zm-6.3,5.7a30.5,30.5,0,0,1,7.5-3.1,9.9,9.9,0,0,0,6.5,4.1V25.2a12.9,12.9,0,0,0-7.3,3l-8.4-8.4A9.6,9.6,0,0,0,239.4,12.3Zm31.8-2.7a33,33,0,0,0-7.3-3,10.1,10.1,0,0,0,.3-2.5,37.1,37.1,0,0,1,8.5,3.5A9.5,9.5,0,0,0,271.2,9.6Zm-8.5-.4a30.5,30.5,0,0,1,7.5,3.1,9.6,9.6,0,0,0,1.7,7.5l-8.4,8.4a12.6,12.6,0,0,0-7.3-3V13.3A9.9,9.9,0,0,0,262.7,9.2ZM286,21a36.4,36.4,0,0,1,3.5,8.4,10.1,10.1,0,0,0-2.5.4,31.2,31.2,0,0,0-3-7.3A9.5,9.5,0,0,0,286,21ZM284.2,9.5a6.6,6.6,0,0,1,0,9.4,6.8,6.8,0,0,1-9.4,0,6.6,6.6,0,0,1,9.4-9.4ZM254.8-2.7a6.6,6.6,0,0,1,6.6,6.6,6.6,6.6,0,1,1-13.2,0,4.9,4.9,0,0,1,.1-1.2V2.4A6.8,6.8,0,0,1,254.8-2.7ZM235.7,21.8l8.4,8.4a14.1,14.1,0,0,0-3,7.3H229.2a9.5,9.5,0,0,0-4.1-6.5,31.5,31.5,0,0,1,3.2-7.6A9.7,9.7,0,0,0,235.7,21.8Zm-10.1.7a31.2,31.2,0,0,0-3,7.3,10.1,10.1,0,0,0-2.5-.4,36.4,36.4,0,0,1,3.5-8.4A9.5,9.5,0,0,0,225.6,22.5ZM213.3,38.9a6.7,6.7,0,0,1,6.6-6.7,6.7,6.7,0,1,1-6.6,6.7Zm16.8,31.3a7,7,0,0,1-4.7-1.9,6.8,6.8,0,1,1,4.7,1.9Zm42.3,16.6c.1.4-.1.6-.4.6H237.6c-.3,0-.5-.2-.4-.6l4.3-11.5a30.6,30.6,0,0,0,4.3,1.3,9.4,9.4,0,0,0,18,0,36.6,36.6,0,0,0,4.4-1.3ZM273.9,56l-8.4-8.4a14.8,14.8,0,0,0,3-7.3h11.9a9.1,9.1,0,0,0,4.1,6.4,29.9,29.9,0,0,1-3.2,7.6l-1.8-.2A9.2,9.2,0,0,0,273.9,56Zm10.1-.7a31.9,31.9,0,0,0,3-7.4,6.9,6.9,0,0,0,2.5.4,34.7,34.7,0,0,1-3.5,8.4Z"/></clipPath><clipPath id="clip-path-10"><path class="cls-2" d="M-21.7,92.8H-96.3a2.6,2.6,0,0,1-2.5-2.6V84.8a2.5,2.5,0,0,1,2.5-2.6h28.6a5.8,5.8,0,0,1-.7-2.1A6.6,6.6,0,0,1-67,74.8l.9-1.2a6.8,6.8,0,0,0,1.5-5.5l-.4-2.5H-76.2a6,6,0,0,1-5.9-6.1,1.2,1.2,0,0,0-.4-.8L-84.9,57a2.7,2.7,0,0,1-1-2.9,2.5,2.5,0,0,1,2.5-1.8h19.3V49.4h-6.5a6.1,6.1,0,0,1-5.9-6.2.9.9,0,0,0-.4-.8l-2.3-1.7a2.6,2.6,0,0,1-1-2.8A2.6,2.6,0,0,1-77.8,36h13.7V34.5a10.3,10.3,0,0,0-5.7-9.3l-.8-.3V22.4h23.1v2.5l-.7.3a10.2,10.2,0,0,0-5.7,9.3V36h13.7a2.6,2.6,0,0,1,2.4,1.9,2.6,2.6,0,0,1-1,2.8l-2.4,1.7a1.2,1.2,0,0,0-.4.8,6,6,0,0,1-5.9,6.2h-6.4v2.9h19.3a2.6,2.6,0,0,1,2.4,1.9,2.3,2.3,0,0,1-1,2.8l-2.3,1.7a.9.9,0,0,0-.4.8,6,6,0,0,1-5.9,6.1H-53l-.4,2.5A7.1,7.1,0,0,0-52,73.6l1,1.2a7,7,0,0,1,1.4,5.3,8.6,8.6,0,0,1-.7,2.1h28.6a2.5,2.5,0,0,1,2.5,2.6v5.4A2.6,2.6,0,0,1-21.7,92.8Zm-74.6-8.1h0v5.4h74.6V84.8H-56.8l3.1-2.3a4.4,4.4,0,0,0,1.6-2.7,4.2,4.2,0,0,0-.9-3.4l-.9-1.1a9.6,9.6,0,0,1-2-7.5l.7-4.6h13.4a3.5,3.5,0,0,0,3.4-3.6A3.4,3.4,0,0,1-37,56.7l2.4-1.7a.1.1,0,0,0,0-.2H-56.4V46.9h8.9a3.6,3.6,0,0,0,3.4-3.7,3.5,3.5,0,0,1,1.5-2.8l2.3-1.7c.1,0,.1-.1.1-.2H-56.4v-4a13.2,13.2,0,0,1,4.2-9.6H-65.8a13.2,13.2,0,0,1,4.2,9.6v4H-77.8a.1.1,0,0,0,0,.2l2.4,1.7A3.4,3.4,0,0,1-74,43.2a3.6,3.6,0,0,0,3.4,3.7h9v7.9H-83.4c-.1.1-.1.2,0,.2l2.3,1.7a3.5,3.5,0,0,1,1.5,2.8,3.5,3.5,0,0,0,3.4,3.6h13.3l.8,4.6a9.6,9.6,0,0,1-2,7.5l-1,1.1a4.6,4.6,0,0,0-.8,3.4,3.7,3.7,0,0,0,1.6,2.7l3,2.3Z"/></clipPath><clipPath id="clip-path-11"><path class="cls-2" d="M2363.9,1876.7H-2513.4V-2529.6H2363.9Zm-4874.3-3H2360.9V-2526.6H-2510.4Z"/></clipPath><clipPath id="clip-path-12"><path class="cls-1" d="M-91.4,51.6a2.8,2.8,0,0,1,2.8-2.8A5.7,5.7,0,0,0-83,43.1v-7a2.8,2.8,0,0,1,2.9-2.8h8.4V30.5h-8.4a5.7,5.7,0,0,0-5.7,5.6v7a2.7,2.7,0,0,1-2.8,2.8,5.7,5.7,0,0,0-5.6,5.7V71.3h2.8Z"/></clipPath><clipPath id="clip-path-13"><path class="cls-2" d="M-59,20a2.1,2.1,0,0,1-1.9-1.1l-3.2-5.3a2,2,0,0,1,.4-2.6l3.1-3.2a2.1,2.1,0,0,1,3.1,0l3.2,3.2a2.1,2.1,0,0,1,.3,2.6l-3.2,5.3A2.1,2.1,0,0,1-59,20Zm0-2.2Zm0-8.5-3.2,3.2,3.2,5.3,3.1-5.3Z"/></clipPath><clipPath id="clip-path-14"><path class="cls-1" d="M-46.4,30.5v2.8h8.5a2.7,2.7,0,0,1,2.8,2.8v7a5.7,5.7,0,0,0,5.6,5.7,2.8,2.8,0,0,1,2.9,2.8V71.3h2.8V51.6a5.7,5.7,0,0,0-5.7-5.7,2.8,2.8,0,0,1-2.8-2.8v-7a5.6,5.6,0,0,0-5.6-5.6Z"/></clipPath><clipPath id="clip-path-15"><rect class="cls-2" x="-2745.3" y="-2625.5" width="5338" height="4566.05"/></clipPath><clipPath id="clip-path-16"><rect class="cls-2" x="-26.6" y="74.1" width="2.8" height="4.22"/></clipPath><clipPath id="clip-path-17"><path class="cls-1" d="M-40.7,20.6h2.8a8.4,8.4,0,0,0-8.4-8.4h-2.9V15h2.9a5.6,5.6,0,0,1,5.6,5.6"/></clipPath><clipPath id="clip-path-18"><path class="cls-1" d="M-71.7,15h2.8V12.1h-2.8a8.4,8.4,0,0,0-8.4,8.5h2.8A5.6,5.6,0,0,1-71.7,15"/></clipPath><clipPath id="clip-path-19"><path class="cls-1" d="M408.1,79.5a4.4,4.4,0,0,1-3.1,1.2,4.6,4.6,0,0,1-3.1-1.2,7.5,7.5,0,0,0-10,0,4.6,4.6,0,0,1-3.1,1.2,4.4,4.4,0,0,1-3.1-1.2,7.3,7.3,0,0,0-5.1-1.9,7,7,0,0,0-5,1.9,4.4,4.4,0,0,1-3.1,1.2,4.5,4.5,0,0,1-1.8-.3V38.2h22v3.2h3.2V38.2h1.5a3.1,3.1,0,0,0,3.2-3.1V31.9a3.1,3.1,0,0,0-3.2-3.1h0A30,30,0,0,0,369.1.5V-1.1a4.8,4.8,0,0,0-4.7-4.8,4.8,4.8,0,0,0-4.7,4.8V.5a29.9,29.9,0,0,0-28.3,28.3h-.1a3.1,3.1,0,0,0-3.1,3.1v3.2a3.1,3.1,0,0,0,3.1,3.1h1.6v3.2H336V38.2h22.1V80.3a3.6,3.6,0,0,1-1.9.4,4.4,4.4,0,0,1-3.1-1.2,7,7,0,0,0-5-1.9,7.3,7.3,0,0,0-5.1,1.9,4.4,4.4,0,0,1-3.1,1.2,4.3,4.3,0,0,1-3-1.2,7.3,7.3,0,0,0-5.1-1.9,7,7,0,0,0-5,1.9,4.6,4.6,0,0,1-6.2,0,7.2,7.2,0,0,0-5-1.9v3.1a4.6,4.6,0,0,1,3.1,1.3,7.5,7.5,0,0,0,10,0,4.6,4.6,0,0,1,3.1-1.3,4.4,4.4,0,0,1,3.1,1.3A7.7,7.7,0,0,0,345,82a4.4,4.4,0,0,1,3.1-1.3,4.6,4.6,0,0,1,3.1,1.3,7.5,7.5,0,0,0,10,0,4.5,4.5,0,0,1,6.3,0,7.5,7.5,0,0,0,10,0,4.6,4.6,0,0,1,3.1-1.3,4.4,4.4,0,0,1,3.1,1.3,7.7,7.7,0,0,0,10.1,0,4.3,4.3,0,0,1,6.2,0,7.7,7.7,0,0,0,10.1,0,4.4,4.4,0,0,1,3.1-1.3V77.6A7.3,7.3,0,0,0,408.1,79.5ZM364.4-2.7a1.6,1.6,0,0,1,1.5,1.6V.4h-3.1V-1.1A1.6,1.6,0,0,1,364.4-2.7Zm-4.3,6.3a37.2,37.2,0,0,0-8.4,12l2.9,1.2A34.3,34.3,0,0,1,364.4,4a33.6,33.6,0,0,1,12.5,24.8H351.8a34.1,34.1,0,0,1,1.7-9l-3-1a34.5,34.5,0,0,0-1.8,10H334.5A26.8,26.8,0,0,1,360.1,3.6ZM331.3,31.9h53.5V28.8h-4.7A37,37,0,0,0,368.7,3.6a26.8,26.8,0,0,1,25.5,25.2H388v3.1h9.4v3.2H331.3Zm33,45.7a8.5,8.5,0,0,0-3.1.6v-40h6.3V78.3A6.9,6.9,0,0,0,364.3,77.6Z"/></clipPath><clipPath id="clip-path-20"><path class="cls-1" d="M405,88.6a4.6,4.6,0,0,1-3.1-1.2,7.5,7.5,0,0,0-10,0,4.6,4.6,0,0,1-3.1,1.2,4.8,4.8,0,0,1-3.2-1.2,6.9,6.9,0,0,0-5-1.9,7.2,7.2,0,0,0-5,1.9,4.6,4.6,0,0,1-6.2,0,7.3,7.3,0,0,0-5.1-1.9,7.2,7.2,0,0,0-5,1.9,4.6,4.6,0,0,1-6.2,0,7,7,0,0,0-5-1.9,7.3,7.3,0,0,0-5.1,1.9,4.4,4.4,0,0,1-3.1,1.2,4.3,4.3,0,0,1-3-1.2,7.3,7.3,0,0,0-5.1-1.9,7,7,0,0,0-5,1.9,4.6,4.6,0,0,1-6.2,0,7.2,7.2,0,0,0-5-1.9v3.1a4.2,4.2,0,0,1,3.1,1.3,7.5,7.5,0,0,0,10,0,4.2,4.2,0,0,1,3.1-1.3,4.1,4.1,0,0,1,3.1,1.3,7.7,7.7,0,0,0,10.1,0,4.1,4.1,0,0,1,3.1-1.3,4.2,4.2,0,0,1,3.1,1.3,7.5,7.5,0,0,0,5,1.9,7.3,7.3,0,0,0,5-1.9,4.4,4.4,0,0,1,3.1-1.3,4.4,4.4,0,0,1,3.2,1.3,7.3,7.3,0,0,0,5,1.9,7.5,7.5,0,0,0,5-1.9,4.2,4.2,0,0,1,3.1-1.3,4.1,4.1,0,0,1,3.1,1.3,7.7,7.7,0,0,0,10.1,0,4.3,4.3,0,0,1,6.2,0,7.7,7.7,0,0,0,10.1,0,4.1,4.1,0,0,1,3.1-1.3V85.5a7.3,7.3,0,0,0-5.1,1.9,4.4,4.4,0,0,1-3.1,1.2"/></clipPath><clipPath id="clip-path-21"><path class="cls-1" d="M373.8,69.7a4.7,4.7,0,0,0,4.7,4.7,4.8,4.8,0,0,0,4.8-4.7V66.6h-3.2v3.1a1.6,1.6,0,0,1-1.6,1.6,1.6,1.6,0,0,1-1.5-1.6v-22h-3.2Z"/></clipPath><clipPath id="clip-path-22"><path class="cls-1" d="M395.9,58.7V50.8h-3.2v7.9a1.6,1.6,0,0,1-1.6,1.6,1.6,1.6,0,0,1-1.5-1.6V46.1a4.8,4.8,0,0,0-9.5,0v4.7h3.2V46.1a1.6,1.6,0,0,1,1.5-1.6,1.6,1.6,0,0,1,1.6,1.6V58.7a4.7,4.7,0,0,0,4.7,4.7,4.8,4.8,0,0,0,4.8-4.7"/></clipPath><clipPath id="clip-path-23"><path class="cls-1" d="M351.8,69.7a1.6,1.6,0,0,1-3.2,0V66.6h-3.1v3.1a4.7,4.7,0,1,0,9.4,0v-22h-3.1Z"/></clipPath><clipPath id="clip-path-24"><path class="cls-1" d="M332.9,58.7a4.7,4.7,0,1,0,9.4,0V46.1a1.6,1.6,0,0,1,3.2,0v4.7h3.1V46.1a4.7,4.7,0,0,0-9.4,0V58.7a1.6,1.6,0,1,1-3.2,0V50.8h-3.1Z"/></clipPath><clipPath id="clip-path-25"><path class="cls-1" d="M323.4,69.7a17.9,17.9,0,0,1,5.7.9l4.9,1.7-2.6-6.7a8.5,8.5,0,0,0-8-5.3,4.7,4.7,0,1,0,0,9.4m0-6.3a5.6,5.6,0,0,1,5.1,3.4v.4a22.4,22.4,0,0,0-5.2-.6,1.6,1.6,0,0,1,0-3.2"/></clipPath><clipPath id="clip-path-26"><path class="cls-1" d="M397.4,65.6l-2.7,6.7,5-1.7a17.7,17.7,0,0,1,5.6-.9,4.7,4.7,0,0,0,0-9.4A8.5,8.5,0,0,0,397.4,65.6Zm2.9,1.2a5.3,5.3,0,0,1,5-3.4,1.6,1.6,0,0,1,0,3.2,23.1,23.1,0,0,0-5.2.6Z"/></clipPath></defs><path class="cls-3" d="M483.3,88.3h15.9V78.4H483.3Zm17.9,4H481.3a2,2,0,0,1-2-2V76.4a2,2,0,0,1,2-2h19.9a2,2,0,0,1,2,2V90.3A2,2,0,0,1,501.2,92.3Z"/><g class="cls-4"><rect class="cls-2" x="-785.3" y="-3704.3" width="5804" height="4970.61"/></g><path class="cls-3" d="M473.3,88.3h35.8V.8H473.3Zm37.8,4H471.3a2,2,0,0,1-2-2V-1.2a2,2,0,0,1,2-2h39.8a2,2,0,0,1,2,2V90.3A2,2,0,0,1,511.1,92.3Z"/><g class="cls-5"><rect class="cls-2" x="-785.3" y="-3704.3" width="5804" height="4964.66"/></g><path class="cls-3" d="M457.4,88.3h11.9V8.8H457.4Zm13.9,4H455.4a2,2,0,0,1-2-2V6.8a2,2,0,0,1,2-2h15.9a2,2,0,0,1,2,2V90.3A2,2,0,0,1,471.3,92.3Z"/><g class="cls-6"><rect class="cls-2" x="-785.3" y="-3704.3" width="5804" height="4964.66"/></g><path class="cls-3" d="M513.1,88.3H525V8.8H513.1Zm13.9,4H511.1a2,2,0,0,1-2-2V6.8a2,2,0,0,1,2-2H527a2,2,0,0,1,2,2V90.3A2,2,0,0,1,527,92.3Z"/><g class="cls-7"><rect class="cls-2" x="-785.3" y="-3704.3" width="5804" height="4964.66"/></g><rect class="cls-2" x="439.5" y="48.6" width="4" height="19.89" transform="translate(129.7 376.5) rotate(-53.1)"/><g class="cls-8"><rect class="cls-2" x="-785.3" y="-3704.3" width="5804" height="4964.66"/></g><rect class="cls-2" x="431.5" y="56.5" width="19.9" height="3.98" transform="translate(53.2 276.6) rotate(-36.9)"/><g class="cls-9"><rect class="cls-2" x="-785.3" y="-3704.3" width="5804" height="4964.66"/></g><rect class="cls-2" x="539" y="48.6" width="4" height="19.89" transform="translate(169.5 456.1) rotate(-53.1)"/><g class="cls-10"><rect class="cls-2" x="-785.3" y="-3704.3" width="5804" height="4964.66"/></g><rect class="cls-2" x="531" y="56.5" width="19.9" height="3.97" transform="translate(73 336.1) rotate(-36.8)"/><g class="cls-11"><rect class="cls-2" x="-785.3" y="-3704.3" width="5804" height="4964.66"/></g><path class="cls-3" d="M299.2,38.9a9.6,9.6,0,0,0-6.7-9.1,36.6,36.6,0,0,0-4.7-11.2,9.4,9.4,0,0,0-8.3-13.9,9.3,9.3,0,0,0-4.4,1.1,38.6,38.6,0,0,0-11.3-4.7,9.4,9.4,0,0,0-18,0,38.6,38.6,0,0,0-11.3,4.7,9.2,9.2,0,0,0-7.1-.7,1.4,1.4,0,0,0,.8,2.7,6.5,6.5,0,0,1,6.6,1.7,6.6,6.6,0,0,1,0,9.4,6.8,6.8,0,0,1-9.4,0,6.8,6.8,0,0,1-1.4-7.3,1.4,1.4,0,0,0-2.6-1,9.4,9.4,0,0,0,.4,8,39.2,39.2,0,0,0-4.7,11.2,9.5,9.5,0,0,0,0,18.1,38.6,38.6,0,0,0,4.7,11.3,9.4,9.4,0,0,0,12.7,12.7,26.4,26.4,0,0,0,4.4,2.3l-4.3,11.7a3.2,3.2,0,0,0,3,4.3H272a3.2,3.2,0,0,0,3-4.3l-4.2-11.7a30,30,0,0,0,4.3-2.3,8.2,8.2,0,0,0,4.4,1.1,10.1,10.1,0,0,0,2.9-.4,1.4,1.4,0,0,0-.9-2.7,6.4,6.4,0,0,1-6.7-1.6,6.6,6.6,0,1,1,10.8-2.2,1.4,1.4,0,0,0,2.7,1,9.5,9.5,0,0,0-.5-7.9,38.6,38.6,0,0,0,4.7-11.3A9.6,9.6,0,0,0,299.2,38.9Zm-2.9,0a6.6,6.6,0,1,1-6.6-6.7A6.6,6.6,0,0,1,296.3,38.9Zm-15.9-1.4H268.5a14.1,14.1,0,0,0-3-7.3l8.4-8.4a9.7,9.7,0,0,0,7.4,1.6,31.5,31.5,0,0,1,3.2,7.6A9.5,9.5,0,0,0,280.4,37.5ZM268.5,72.2l-4.3,1.4a9.3,9.3,0,0,0-.3-2.4,39,39,0,0,0,7.3-3.1,9.5,9.5,0,0,0,1.5,2A32.9,32.9,0,0,1,268.5,72.2ZM237,70.1a14.3,14.3,0,0,0,1.4-2,39,39,0,0,0,7.3,3.1,9.3,9.3,0,0,0-.3,2.4A34.7,34.7,0,0,1,237,70.1ZM223.6,56.7a34.7,34.7,0,0,1-3.5-8.4,6.9,6.9,0,0,0,2.5-.4,31.9,31.9,0,0,0,3,7.4Zm4.7-2.4a29.9,29.9,0,0,1-3.2-7.6,9.1,9.1,0,0,0,4.1-6.4h11.9a14.1,14.1,0,0,0,3,7.2L235.7,56A9.3,9.3,0,0,0,228.3,54.3Zm25.1,10.2a9.5,9.5,0,0,0-6.5,4.1,30.8,30.8,0,0,1-7.5-3.2,9.7,9.7,0,0,0-1.7-7.5l8.4-8.4a13.4,13.4,0,0,0,7.3,3.1Zm1.4,2.7a6.7,6.7,0,1,1-6.6,6.6A6.6,6.6,0,0,1,254.8,67.2Zm15.4-1.8a30.8,30.8,0,0,1-7.5,3.2,9.5,9.5,0,0,0-6.5-4.1V52.6a14.1,14.1,0,0,0,7.3-3l8.4,8.4A9.4,9.4,0,0,0,270.2,65.4ZM254.8,49.8a11,11,0,1,1,11-10.9A11,11,0,0,1,254.8,49.8ZM245.7,6.6a33,33,0,0,0-7.3,3,14.3,14.3,0,0,0-1.4-2,34.7,34.7,0,0,1,8.4-3.5A10.1,10.1,0,0,0,245.7,6.6Zm-6.3,5.7a30.5,30.5,0,0,1,7.5-3.1,9.9,9.9,0,0,0,6.5,4.1V25.2a12.9,12.9,0,0,0-7.3,3l-8.4-8.4A9.6,9.6,0,0,0,239.4,12.3Zm31.8-2.7a33,33,0,0,0-7.3-3,10.1,10.1,0,0,0,.3-2.5,37.1,37.1,0,0,1,8.5,3.5A9.5,9.5,0,0,0,271.2,9.6Zm-8.5-.4a30.5,30.5,0,0,1,7.5,3.1,9.6,9.6,0,0,0,1.7,7.5l-8.4,8.4a12.6,12.6,0,0,0-7.3-3V13.3A9.9,9.9,0,0,0,262.7,9.2ZM286,21a36.4,36.4,0,0,1,3.5,8.4,10.1,10.1,0,0,0-2.5.4,31.2,31.2,0,0,0-3-7.3A9.5,9.5,0,0,0,286,21ZM284.2,9.5a6.6,6.6,0,0,1,0,9.4,6.8,6.8,0,0,1-9.4,0,6.6,6.6,0,0,1,9.4-9.4ZM254.8-2.7a6.6,6.6,0,0,1,6.6,6.6,6.6,6.6,0,1,1-13.2,0,4.9,4.9,0,0,1,.1-1.2V2.4A6.8,6.8,0,0,1,254.8-2.7ZM235.7,21.8l8.4,8.4a14.1,14.1,0,0,0-3,7.3H229.2a9.5,9.5,0,0,0-4.1-6.5,31.5,31.5,0,0,1,3.2-7.6A9.7,9.7,0,0,0,235.7,21.8Zm-10.1.7a31.2,31.2,0,0,0-3,7.3,10.1,10.1,0,0,0-2.5-.4,36.4,36.4,0,0,1,3.5-8.4A9.5,9.5,0,0,0,225.6,22.5ZM213.3,38.9a6.7,6.7,0,0,1,6.6-6.7,6.7,6.7,0,1,1-6.6,6.7Zm16.8,31.3a7,7,0,0,1-4.7-1.9,6.8,6.8,0,1,1,4.7,1.9Zm42.3,16.6c.1.4-.1.6-.4.6H237.6c-.3,0-.5-.2-.4-.6l4.3-11.5a30.6,30.6,0,0,0,4.3,1.3,9.4,9.4,0,0,0,18,0,36.6,36.6,0,0,0,4.4-1.3ZM273.9,56l-8.4-8.4a14.8,14.8,0,0,0,3-7.3h11.9a9.1,9.1,0,0,0,4.1,6.4,29.9,29.9,0,0,1-3.2,7.6l-1.8-.2A9.2,9.2,0,0,0,273.9,56Zm10.1-.7a31.9,31.9,0,0,0,3-7.4,6.9,6.9,0,0,0,2.5.4,34.7,34.7,0,0,1-3.5,8.4Z"/><g class="cls-12"><rect class="cls-2" x="-4309.5" y="-2220.9" width="5391.4" height="4611.73"/></g><path class="cls-2" d="M-21.7,92.8H-96.3a2.6,2.6,0,0,1-2.5-2.6V84.8a2.5,2.5,0,0,1,2.5-2.6h28.6a5.8,5.8,0,0,1-.7-2.1A6.6,6.6,0,0,1-67,74.8l.9-1.2a6.8,6.8,0,0,0,1.5-5.5l-.4-2.5H-76.2a6,6,0,0,1-5.9-6.1,1.2,1.2,0,0,0-.4-.8L-84.9,57a2.7,2.7,0,0,1-1-2.9,2.5,2.5,0,0,1,2.5-1.8h19.3V49.4h-6.5a6.1,6.1,0,0,1-5.9-6.2.9.9,0,0,0-.4-.8l-2.3-1.7a2.6,2.6,0,0,1-1-2.8A2.6,2.6,0,0,1-77.8,36h13.7V34.5a10.3,10.3,0,0,0-5.7-9.3l-.8-.3V22.4h23.1v2.5l-.7.3a10.2,10.2,0,0,0-5.7,9.3V36h13.7a2.6,2.6,0,0,1,2.4,1.9,2.6,2.6,0,0,1-1,2.8l-2.4,1.7a1.2,1.2,0,0,0-.4.8,6,6,0,0,1-5.9,6.2h-6.4v2.9h19.3a2.6,2.6,0,0,1,2.4,1.9,2.3,2.3,0,0,1-1,2.8l-2.3,1.7a.9.9,0,0,0-.4.8,6,6,0,0,1-5.9,6.1H-53l-.4,2.5A7.1,7.1,0,0,0-52,73.6l1,1.2a7,7,0,0,1,1.4,5.3,8.6,8.6,0,0,1-.7,2.1h28.6a2.5,2.5,0,0,1,2.5,2.6v5.4A2.6,2.6,0,0,1-21.7,92.8Zm-74.6-8.1h0v5.4h74.6V84.8H-56.8l3.1-2.3a4.4,4.4,0,0,0,1.6-2.7,4.2,4.2,0,0,0-.9-3.4l-.9-1.1a9.6,9.6,0,0,1-2-7.5l.7-4.6h13.4a3.5,3.5,0,0,0,3.4-3.6A3.4,3.4,0,0,1-37,56.7l2.4-1.7a.1.1,0,0,0,0-.2H-56.4V46.9h8.9a3.6,3.6,0,0,0,3.4-3.7,3.5,3.5,0,0,1,1.5-2.8l2.3-1.7c.1,0,.1-.1.1-.2H-56.4v-4a13.2,13.2,0,0,1,4.2-9.6H-65.8a13.2,13.2,0,0,1,4.2,9.6v4H-77.8a.1.1,0,0,0,0,.2l2.4,1.7A3.4,3.4,0,0,1-74,43.2a3.6,3.6,0,0,0,3.4,3.7h9v7.9H-83.4c-.1.1-.1.2,0,.2l2.3,1.7a3.5,3.5,0,0,1,1.5,2.8,3.5,3.5,0,0,0,3.4,3.6h13.3l.8,4.6a9.6,9.6,0,0,1-2,7.5l-1,1.1a4.6,4.6,0,0,0-.8,3.4,3.7,3.7,0,0,0,1.6,2.7l3,2.3Z"/><g class="cls-13"><path class="cls-2" d="M2363.9,1876.7H-2513.4V-2529.6H2363.9Zm-4874.3-3H2360.9V-2526.6H-2510.4Z"/><g class="cls-14"><path class="cls-2" d="M6,119.4H-124.1V-4.2H6Zm-127.1-3H3V-1.2H-121.1Z"/></g></g><path class="cls-3" d="M-91.4,51.6a2.8,2.8,0,0,1,2.8-2.8A5.7,5.7,0,0,0-83,43.1v-7a2.8,2.8,0,0,1,2.9-2.8h8.4V30.5h-8.4a5.7,5.7,0,0,0-5.7,5.6v7a2.7,2.7,0,0,1-2.8,2.8,5.7,5.7,0,0,0-5.6,5.7V71.3h2.8Z"/><g class="cls-15"><rect class="cls-2" x="-2745.3" y="-2625.5" width="5338" height="4566.05"/></g><path class="cls-2" d="M-59,20a2.1,2.1,0,0,1-1.9-1.1l-3.2-5.3a2,2,0,0,1,.4-2.6l3.1-3.2a2.1,2.1,0,0,1,3.1,0l3.2,3.2a2.1,2.1,0,0,1,.3,2.6l-3.2,5.3A2.1,2.1,0,0,1-59,20Zm0-2.2Zm0-8.5-3.2,3.2,3.2,5.3,3.1-5.3Z"/><g class="cls-16"><path class="cls-2" d="M1948.1,1472.4H-2092.2V-1983.9H1948.1Zm-4038.1-2.2H1945.9V-1981.7H-2090Z"/></g><path class="cls-3" d="M-46.4,30.5v2.8h8.5a2.7,2.7,0,0,1,2.8,2.8v7a5.7,5.7,0,0,0,5.6,5.7,2.8,2.8,0,0,1,2.9,2.8V71.3h2.8V51.6a5.7,5.7,0,0,0-5.7-5.7,2.8,2.8,0,0,1-2.8-2.8v-7a5.6,5.6,0,0,0-5.6-5.6Z"/><g class="cls-17"><rect class="cls-2" x="-2745.3" y="-2625.5" width="5338" height="4566.05"/><g class="cls-18"><rect class="cls-2" x="-73.7" y="3.1" width="77.3" height="95.58"/></g></g><rect class="cls-2" x="-26.6" y="74.1" width="2.8" height="4.22"/><g class="cls-19"><rect class="cls-2" x="-54" y="46.7" width="57.6" height="58.97"/></g><path class="cls-3" d="M-40.7,20.6h2.8a8.4,8.4,0,0,0-8.4-8.4h-2.9V15h2.9a5.6,5.6,0,0,1,5.6,5.6"/><g class="cls-20"><rect class="cls-2" x="-2745.3" y="-2625.5" width="5338" height="4566.05"/></g><path class="cls-3" d="M-71.7,15h2.8V12.1h-2.8a8.4,8.4,0,0,0-8.4,8.5h2.8A5.6,5.6,0,0,1-71.7,15"/><g class="cls-21"><rect class="cls-2" x="-2745.3" y="-2625.5" width="5338" height="4566.05"/></g><path class="cls-3" d="M408.1,79.5a4.4,4.4,0,0,1-3.1,1.2,4.6,4.6,0,0,1-3.1-1.2,7.5,7.5,0,0,0-10,0,4.6,4.6,0,0,1-3.1,1.2,4.4,4.4,0,0,1-3.1-1.2,7.3,7.3,0,0,0-5.1-1.9,7,7,0,0,0-5,1.9,4.4,4.4,0,0,1-3.1,1.2,4.5,4.5,0,0,1-1.8-.3V38.2h22v3.2h3.2V38.2h1.5a3.1,3.1,0,0,0,3.2-3.1V31.9a3.1,3.1,0,0,0-3.2-3.1h0A30,30,0,0,0,369.1.5V-1.1a4.8,4.8,0,0,0-4.7-4.8,4.8,4.8,0,0,0-4.7,4.8V.5a29.9,29.9,0,0,0-28.3,28.3h-.1a3.1,3.1,0,0,0-3.1,3.1v3.2a3.1,3.1,0,0,0,3.1,3.1h1.6v3.2H336V38.2h22.1V80.3a3.6,3.6,0,0,1-1.9.4,4.4,4.4,0,0,1-3.1-1.2,7,7,0,0,0-5-1.9,7.3,7.3,0,0,0-5.1,1.9,4.4,4.4,0,0,1-3.1,1.2,4.3,4.3,0,0,1-3-1.2,7.3,7.3,0,0,0-5.1-1.9,7,7,0,0,0-5,1.9,4.6,4.6,0,0,1-6.2,0,7.2,7.2,0,0,0-5-1.9v3.1a4.6,4.6,0,0,1,3.1,1.3,7.5,7.5,0,0,0,10,0,4.6,4.6,0,0,1,3.1-1.3,4.4,4.4,0,0,1,3.1,1.3A7.7,7.7,0,0,0,345,82a4.4,4.4,0,0,1,3.1-1.3,4.6,4.6,0,0,1,3.1,1.3,7.5,7.5,0,0,0,10,0,4.5,4.5,0,0,1,6.3,0,7.5,7.5,0,0,0,10,0,4.6,4.6,0,0,1,3.1-1.3,4.4,4.4,0,0,1,3.1,1.3,7.7,7.7,0,0,0,10.1,0,4.3,4.3,0,0,1,6.2,0,7.7,7.7,0,0,0,10.1,0,4.4,4.4,0,0,1,3.1-1.3V77.6A7.3,7.3,0,0,0,408.1,79.5ZM364.4-2.7a1.6,1.6,0,0,1,1.5,1.6V.4h-3.1V-1.1A1.6,1.6,0,0,1,364.4-2.7Zm-4.3,6.3a37.2,37.2,0,0,0-8.4,12l2.9,1.2A34.3,34.3,0,0,1,364.4,4a33.6,33.6,0,0,1,12.5,24.8H351.8a34.1,34.1,0,0,1,1.7-9l-3-1a34.5,34.5,0,0,0-1.8,10H334.5A26.8,26.8,0,0,1,360.1,3.6ZM331.3,31.9h53.5V28.8h-4.7A37,37,0,0,0,368.7,3.6a26.8,26.8,0,0,1,25.5,25.2H388v3.1h9.4v3.2H331.3Zm33,45.7a8.5,8.5,0,0,0-3.1.6v-40h6.3V78.3A6.9,6.9,0,0,0,364.3,77.6Z"/><g class="cls-22"><rect class="cls-2" x="-2432.5" y="-2407.8" width="5224.4" height="4468.85"/></g><path class="cls-3" d="M405,88.6a4.6,4.6,0,0,1-3.1-1.2,7.5,7.5,0,0,0-10,0,4.6,4.6,0,0,1-3.1,1.2,4.8,4.8,0,0,1-3.2-1.2,6.9,6.9,0,0,0-5-1.9,7.2,7.2,0,0,0-5,1.9,4.6,4.6,0,0,1-6.2,0,7.3,7.3,0,0,0-5.1-1.9,7.2,7.2,0,0,0-5,1.9,4.6,4.6,0,0,1-6.2,0,7,7,0,0,0-5-1.9,7.3,7.3,0,0,0-5.1,1.9,4.4,4.4,0,0,1-3.1,1.2,4.3,4.3,0,0,1-3-1.2,7.3,7.3,0,0,0-5.1-1.9,7,7,0,0,0-5,1.9,4.6,4.6,0,0,1-6.2,0,7.2,7.2,0,0,0-5-1.9v3.1a4.2,4.2,0,0,1,3.1,1.3,7.5,7.5,0,0,0,10,0,4.2,4.2,0,0,1,3.1-1.3,4.1,4.1,0,0,1,3.1,1.3,7.7,7.7,0,0,0,10.1,0,4.1,4.1,0,0,1,3.1-1.3,4.2,4.2,0,0,1,3.1,1.3,7.5,7.5,0,0,0,5,1.9,7.3,7.3,0,0,0,5-1.9,4.4,4.4,0,0,1,3.1-1.3,4.4,4.4,0,0,1,3.2,1.3,7.3,7.3,0,0,0,5,1.9,7.5,7.5,0,0,0,5-1.9,4.2,4.2,0,0,1,3.1-1.3,4.1,4.1,0,0,1,3.1,1.3,7.7,7.7,0,0,0,10.1,0,4.3,4.3,0,0,1,6.2,0,7.7,7.7,0,0,0,10.1,0,4.1,4.1,0,0,1,3.1-1.3V85.5a7.3,7.3,0,0,0-5.1,1.9,4.4,4.4,0,0,1-3.1,1.2"/><g class="cls-23"><rect class="cls-2" x="-2432.5" y="-2407.8" width="5224.4" height="4468.85"/></g><path class="cls-3" d="M373.8,69.7a4.7,4.7,0,0,0,4.7,4.7,4.8,4.8,0,0,0,4.8-4.7V66.6h-3.2v3.1a1.6,1.6,0,0,1-1.6,1.6,1.6,1.6,0,0,1-1.5-1.6v-22h-3.2Z"/><g class="cls-24"><rect class="cls-2" x="-2432.5" y="-2407.8" width="5224.4" height="4468.85"/></g><path class="cls-3" d="M395.9,58.7V50.8h-3.2v7.9a1.6,1.6,0,0,1-1.6,1.6,1.6,1.6,0,0,1-1.5-1.6V46.1a4.8,4.8,0,0,0-9.5,0v4.7h3.2V46.1a1.6,1.6,0,0,1,1.5-1.6,1.6,1.6,0,0,1,1.6,1.6V58.7a4.7,4.7,0,0,0,4.7,4.7,4.8,4.8,0,0,0,4.8-4.7"/><g class="cls-25"><rect class="cls-2" x="-2432.5" y="-2407.8" width="5224.4" height="4468.85"/></g><path class="cls-3" d="M351.8,69.7a1.6,1.6,0,0,1-3.2,0V66.6h-3.1v3.1a4.7,4.7,0,1,0,9.4,0v-22h-3.1Z"/><g class="cls-26"><rect class="cls-2" x="-2432.5" y="-2407.8" width="5224.4" height="4468.85"/></g><path class="cls-3" d="M332.9,58.7a4.7,4.7,0,1,0,9.4,0V46.1a1.6,1.6,0,0,1,3.2,0v4.7h3.1V46.1a4.7,4.7,0,0,0-9.4,0V58.7a1.6,1.6,0,1,1-3.2,0V50.8h-3.1Z"/><g class="cls-27"><rect class="cls-2" x="-2432.5" y="-2407.8" width="5224.4" height="4468.85"/></g><path class="cls-3" d="M323.4,69.7a17.9,17.9,0,0,1,5.7.9l4.9,1.7-2.6-6.7a8.5,8.5,0,0,0-8-5.3,4.7,4.7,0,1,0,0,9.4m0-6.3a5.6,5.6,0,0,1,5.1,3.4v.4a22.4,22.4,0,0,0-5.2-.6,1.6,1.6,0,0,1,0-3.2"/><g class="cls-28"><rect class="cls-2" x="-2432.5" y="-2407.8" width="5224.4" height="4468.85"/></g><path class="cls-3" d="M397.4,65.6l-2.7,6.7,5-1.7a17.7,17.7,0,0,1,5.6-.9,4.7,4.7,0,0,0,0-9.4A8.5,8.5,0,0,0,397.4,65.6Zm2.9,1.2a5.3,5.3,0,0,1,5-3.4,1.6,1.6,0,0,1,0,3.2,23.1,23.1,0,0,0-5.2.6Z"/><g class="cls-29"><rect class="cls-2" x="-2432.5" y="-2407.8" width="5224.4" height="4468.85"/></g><path class="cls-2" d="M51.1,44.8H49.3V41a1.4,1.4,0,0,0-1.4-1.4A1.4,1.4,0,0,0,46.5,41v5.2a1.4,1.4,0,0,0,1.4,1.4h3.2a1.4,1.4,0,0,0,0-2.8Zm0,0"/><path class="cls-2" d="M47.9,33A11.8,11.8,0,1,0,59.7,44.8,11.8,11.8,0,0,0,47.9,33Zm0,20.8a9,9,0,1,1,9-9,8.9,8.9,0,0,1-9,9Zm0,0"/><path class="cls-2" d="M10.9,59.4h13A2.1,2.1,0,0,0,26,57.3V50.9a2.1,2.1,0,0,0-2.1-2.1h-13a2.1,2.1,0,0,0-2.1,2.1v6.4a2.1,2.1,0,0,0,2.1,2.1Zm7.9-7.8h4.3v5H18.8Zm-7.2,0H16v5H11.6Zm0,0"/><path class="cls-2" d="M8.8,71.4a2.1,2.1,0,0,0,2.1,2h13a2.1,2.1,0,0,0,2.1-2V64.9a2.2,2.2,0,0,0-2.1-2.1h-13a2.2,2.2,0,0,0-2.1,2.1Zm10-5.8h4.3v5H18.8Zm-7.2,0H16v5H11.6Zm0,0"/><path class="cls-2" d="M72,59.4H85a2,2,0,0,0,2-2.1V50.9a2,2,0,0,0-2-2.1H72a2.1,2.1,0,0,0-2.1,2.1v6.4A2.1,2.1,0,0,0,72,59.4Zm7.9-7.8h4.3v5H79.9Zm-7.2,0h4.4v5H72.7Zm0,0"/><path class="cls-2" d="M72,73.4H85a2,2,0,0,0,2-2V64.9a2.1,2.1,0,0,0-2-2.1H72a2.1,2.1,0,0,0-2.1,2.1v6.5a2,2,0,0,0,2.1,2Zm7.9-7.8h4.3v5H79.9Zm-7.2,0h4.4v5H72.7Zm0,0"/><path class="cls-2" d="M94,33.7H66.9V29.5h1.7a2.1,2.1,0,0,0,2.1-2.1V21.6a2.2,2.2,0,0,0-2.1-2.1H49.3V15.4H60.5A2.5,2.5,0,0,0,63,12.9V4.8a2.6,2.6,0,0,0-2.5-2.6H49.3V1.4A1.4,1.4,0,0,0,47.9,0a1.4,1.4,0,0,0-1.4,1.4V19.5H27.2a2.1,2.1,0,0,0-2,2.1v5.8a2,2,0,0,0,2,2.1H29v4.2H1.9A1.8,1.8,0,0,0,0,35.6v4.9a1.8,1.8,0,0,0,1.9,1.9h.9V65c0,.8.6-2.5,1.4-2.5a1.4,1.4,0,0,0,1.4-1.4V42.4H29V89.7H5.6V57.1a1.4,1.4,0,0,0-1.4-1.4c-.8,0-1.4,4.5-1.4,5.3V90.2A2.2,2.2,0,0,0,5,92.5H90.8a2.3,2.3,0,0,0,2.3-2.3V42.4H94a1.9,1.9,0,0,0,1.9-1.9V35.6A1.9,1.9,0,0,0,94,33.7ZM49.3,5.1H60.2v7.5H49.3ZM29,39.6H2.8V36.5H29Zm64-3.1v3.1H66.9V36.5ZM57.6,89.7H38.2V86.3H57.6ZM40.9,83.5V67.1h5.6V83.5Zm8.4,0V67.1H55V83.5Zm8.5,0V66.7a2.4,2.4,0,0,0-2.4-2.4H40.5a2.4,2.4,0,0,0-2.4,2.4V83.5a2.7,2.7,0,0,0-2.7,2.6v3.6H31.8V29.5H44.5a1.4,1.4,0,0,0,0-2.8H28V22.4H67.9v4.3H50.8a1.4,1.4,0,0,0,0,2.8H64.1V89.7H60.4V86.1a2.6,2.6,0,0,0-2.6-2.6Zm32.5,6.2H66.9V42.4H90.3Zm0,0"/></svg>