<svg id="Layer_1" data-name="Layer 1" xmlns="http://www.w3.org/2000/svg" xmlns:xlink="http://www.w3.org/1999/xlink" viewBox="0 0 141 89.4"><defs><style>.cls-1,.cls-2,.cls-3{fill:#221c45;}.cls-1{clip-rule:evenodd;}.cls-3{fill-rule:evenodd;}.cls-4{clip-path:url(#clip-path);}.cls-5{clip-path:url(#clip-path-2);}.cls-6{clip-path:url(#clip-path-3);}.cls-7{clip-path:url(#clip-path-4);}.cls-8{clip-path:url(#clip-path-5);}.cls-9{clip-path:url(#clip-path-6);}.cls-10{clip-path:url(#clip-path-7);}.cls-11{clip-path:url(#clip-path-8);}.cls-12{clip-path:url(#clip-path-9);}.cls-13{clip-path:url(#clip-path-10);}.cls-14{clip-path:url(#clip-path-11);}.cls-15{clip-path:url(#clip-path-12);}.cls-16{clip-path:url(#clip-path-13);}.cls-17{clip-path:url(#clip-path-14);}.cls-18{clip-path:url(#clip-path-15);}.cls-19{clip-path:url(#clip-path-16);}.cls-20{clip-path:url(#clip-path-17);}.cls-21{clip-path:url(#clip-path-18);}.cls-22{clip-path:url(#clip-path-19);}.cls-23{clip-path:url(#clip-path-20);}.cls-24{clip-path:url(#clip-path-21);}.cls-25{clip-path:url(#clip-path-22);}.cls-26{clip-path:url(#clip-path-23);}</style><clipPath id="clip-path"><path class="cls-1" d="M-295.1-45.3h16v-10h-16Zm17.9,3.9h-19.9a2,2,0,0,1-1.9-2V-57.3a2,2,0,0,1,1.9-2h19.9a2,2,0,0,1,2,2v13.9A2,2,0,0,1-277.2-41.4Z"/></clipPath><clipPath id="clip-path-2"><path class="cls-1" d="M-305-45.3h35.8v-87.6H-305Zm37.8,3.9H-307a2,2,0,0,1-2-2v-91.5a1.9,1.9,0,0,1,2-1.9h39.8a1.9,1.9,0,0,1,2,1.9v91.5A2,2,0,0,1-267.2-41.4Z"/></clipPath><clipPath id="clip-path-3"><path class="cls-1" d="M-320.9-45.3H-309v-79.6h-11.9Zm13.9,3.9h-15.9a2,2,0,0,1-2-2v-83.5a2,2,0,0,1,2-2H-307a2,2,0,0,1,2,2v83.5A2,2,0,0,1-307-41.4Z"/></clipPath><clipPath id="clip-path-4"><path class="cls-1" d="M-265.2-45.3h11.9v-79.6h-11.9Zm13.9,3.9h-15.9a2,2,0,0,1-2-2v-83.5a2,2,0,0,1,2-2h15.9a2,2,0,0,1,2,2v83.5A2,2,0,0,1-251.3-41.4Z"/></clipPath><clipPath id="clip-path-5"><rect class="cls-2" x="-338.8" y="-85.1" width="4" height="19.89" transform="translate(-74.5 -299.4) rotate(-53.1)"/></clipPath><clipPath id="clip-path-6"><rect class="cls-2" x="-346.8" y="-77.2" width="19.9" height="3.98" transform="translate(-22.3 -217.2) rotate(-36.9)"/></clipPath><clipPath id="clip-path-7"><rect class="cls-2" x="-239.4" y="-85.1" width="4" height="19.89" transform="translate(-34.8 -219.9) rotate(-53.1)"/></clipPath><clipPath id="clip-path-8"><rect class="cls-2" x="-247.3" y="-77.2" width="19.9" height="3.97" transform="translate(-2.3 -157.4) rotate(-36.8)"/></clipPath><clipPath id="clip-path-9"><path class="cls-1" d="M-479.2-94.8a9.3,9.3,0,0,0-6.6-9,38.6,38.6,0,0,0-4.7-11.3,9.4,9.4,0,0,0-1.7-11.1,9.1,9.1,0,0,0-6.6-2.8,10,10,0,0,0-4.5,1.1,40.9,40.9,0,0,0-11.2-4.7,9.5,9.5,0,0,0-9-6.6,9.4,9.4,0,0,0-9,6.6,41.6,41.6,0,0,0-11.3,4.7,9.9,9.9,0,0,0-7.2-.7,1.4,1.4,0,0,0,.9,2.7,6.5,6.5,0,0,1,6.6,1.7,6.6,6.6,0,0,1,0,9.4,6.8,6.8,0,0,1-9.4,0,6.6,6.6,0,0,1-1.4-7.3,1.4,1.4,0,0,0-2.6-1,9.7,9.7,0,0,0,.3,8,38.4,38.4,0,0,0-4.6,11.3,9.3,9.3,0,0,0-6.7,9,9.5,9.5,0,0,0,6.7,9,36.1,36.1,0,0,0,4.7,11.3,9.4,9.4,0,0,0,1.6,11.1,9.6,9.6,0,0,0,11.1,1.7c1.4.8,2.8,1.6,4.3,2.3l-4.3,11.6a3.4,3.4,0,0,0,3.1,4.4h34.4a3.3,3.3,0,0,0,3-4.4l-4.3-11.6c1.5-.7,2.9-1.5,4.3-2.3a9.9,9.9,0,0,0,4.4,1.1,10.5,10.5,0,0,0,3-.5c1.6-.5.8-3.2-.9-2.7a6.4,6.4,0,0,1-6.7-1.6,6.6,6.6,0,0,1,0-9.4,6.6,6.6,0,0,1,9.4,0,6.8,6.8,0,0,1,1.4,7.2c-.6,1.6,2,2.7,2.6,1a9.1,9.1,0,0,0-.4-7.9,38.6,38.6,0,0,0,4.7-11.3A9.5,9.5,0,0,0-479.2-94.8Zm-2.8,0a6.6,6.6,0,0,1-6.6,6.6,6.6,6.6,0,0,1-6.7-6.6,6.7,6.7,0,0,1,6.7-6.7A6.7,6.7,0,0,1-482-94.8Zm-16-1.4h-11.8a13.4,13.4,0,0,0-3.1-7.3l8.4-8.4a9.6,9.6,0,0,0,7.5,1.7,29,29,0,0,1,3.1,7.5A9.9,9.9,0,0,0-498-96.2Zm-11.8,34.7-4.3,1.4a6.7,6.7,0,0,0-.4-2.4,34.1,34.1,0,0,0,7.4-3.1,9,9,0,0,0,1.4,2A31.7,31.7,0,0,1-509.8-61.5Zm-31.6-2.1a9.5,9.5,0,0,0,1.5-2,33.4,33.4,0,0,0,7.3,3.1,20,20,0,0,0-.4,2.4A34,34,0,0,1-541.4-63.6Zm-13.3-13.3a37.1,37.1,0,0,1-3.5-8.5,9.3,9.3,0,0,0,2.4-.3,39,39,0,0,0,3.1,7.3A9.5,9.5,0,0,0-554.7-76.9Zm4.7-2.5a30.8,30.8,0,0,1-3.2-7.5,9.5,9.5,0,0,0,4.1-6.5h11.9a13.9,13.9,0,0,0,3,7.3l-8.4,8.4A9.4,9.4,0,0,0-550-79.4Zm25.1,10.2a9.5,9.5,0,0,0-6.5,4.1,29.2,29.2,0,0,1-7.5-3.2,9.4,9.4,0,0,0-1.7-7.4l8.4-8.4a14.1,14.1,0,0,0,7.3,3Zm1.4,2.7a6.7,6.7,0,0,1,6.6,6.6,6.7,6.7,0,0,1-6.6,6.7,6.7,6.7,0,0,1-6.7-6.7A6.7,6.7,0,0,1-523.5-66.5Zm15.4-1.8a29.9,29.9,0,0,1-7.6,3.2,9.1,9.1,0,0,0-6.4-4.1V-81.1a14.8,14.8,0,0,0,7.3-3l8.4,8.4A9.5,9.5,0,0,0-508.1-68.3Zm-15.4-15.5a11,11,0,0,1-11-11,11,11,0,0,1,11-11,10.9,10.9,0,0,1,10.9,11A11,11,0,0,1-523.5-83.8Zm-9.1-43.3a33,33,0,0,0-7.3,3,13,13,0,0,0-1.5-2,38.3,38.3,0,0,1,8.4-3.5A18.7,18.7,0,0,0-532.6-127.1Zm-6.3,5.7a29,29,0,0,1,7.5-3.1,9.5,9.5,0,0,0,6.5,4.1v11.9a13.3,13.3,0,0,0-7.3,3l-8.4-8.4A9.6,9.6,0,0,0-538.9-121.4Zm31.8-2.6a29.8,29.8,0,0,0-7.4-3.1,6.9,6.9,0,0,0,.4-2.5,34.7,34.7,0,0,1,8.4,3.5A9.6,9.6,0,0,0-507.1-124Zm-8.6-.5a29.6,29.6,0,0,1,7.6,3.1,9.2,9.2,0,0,0,1.7,7.5l-8.4,8.4a13.9,13.9,0,0,0-7.3-3v-11.9A9.1,9.1,0,0,0-515.7-124.5Zm23.4,11.8a38.3,38.3,0,0,1,3.5,8.4l-2.5.4a33,33,0,0,0-3-7.3A9.5,9.5,0,0,0-492.3-112.7Zm-1.8-11.5a6.8,6.8,0,0,1,0,9.4,6.8,6.8,0,0,1-9.4,0,6.6,6.6,0,0,1,0-9.4A6.6,6.6,0,0,1-494.1-124.2Zm-29.4-12.2a6.7,6.7,0,0,1,6.6,6.6,6.7,6.7,0,0,1-6.6,6.7,6.7,6.7,0,0,1-6.7-6.7c0-.4.1-.8.1-1.2a.4.4,0,0,0,.1-.3A6.7,6.7,0,0,1-523.5-136.4Zm-19.1,24.5,8.4,8.4a13.3,13.3,0,0,0-3,7.3h-11.9a9.5,9.5,0,0,0-4.1-6.5,29.2,29.2,0,0,1,3.2-7.5A9.4,9.4,0,0,0-542.6-111.9Zm-10.1.7a39,39,0,0,0-3.1,7.3l-2.4-.4a38.3,38.3,0,0,1,3.5-8.4A9.5,9.5,0,0,0-552.7-111.2Zm-12.4,16.4a6.8,6.8,0,0,1,6.7-6.7,6.7,6.7,0,0,1,6.6,6.7,6.6,6.6,0,0,1-6.6,6.6A6.6,6.6,0,0,1-565.1-94.8Zm16.9,31.4a6.5,6.5,0,0,1-4.7-2,6.6,6.6,0,0,1,0-9.4,6.6,6.6,0,0,1,9.4,0,6.6,6.6,0,0,1,0,9.4A6.9,6.9,0,0,1-548.2-63.4Zm42.3,16.5a.5.5,0,0,1-.4.7h-34.4c-.4-.1-.5-.3-.4-.7l4.2-11.5a22.3,22.3,0,0,0,4.4,1.3,9.4,9.4,0,0,0,9,6.7,9.5,9.5,0,0,0,9-6.7,21.3,21.3,0,0,0,4.3-1.3Zm1.5-30.8-8.4-8.4a14.8,14.8,0,0,0,3-7.3H-498a9.9,9.9,0,0,0,4.1,6.5,30.5,30.5,0,0,1-3.1,7.5l-1.8-.2A9.2,9.2,0,0,0-504.4-77.7Zm10.1-.7a33,33,0,0,0,3-7.3,10.1,10.1,0,0,0,2.5.3,37.1,37.1,0,0,1-3.5,8.5A9.5,9.5,0,0,0-494.3-78.4Z"/></clipPath><clipPath id="clip-path-10"><path class="cls-2" d="M-800.1-40.9h-74.5a2.6,2.6,0,0,1-2.6-2.6v-5.4a2.6,2.6,0,0,1,2.6-2.6h28.5a8.3,8.3,0,0,1-.6-2.1,6.7,6.7,0,0,1,1.4-5.3l.9-1.1a7.5,7.5,0,0,0,1.5-5.6l-.4-2.4h-11.3a6.1,6.1,0,0,1-5.9-6.2,1.1,1.1,0,0,0-.3-.8l-2.4-1.6a2.8,2.8,0,0,1-1-2.9,2.4,2.4,0,0,1,2.4-1.9h19.3v-2.9h-6.4a6,6,0,0,1-5.9-6.2.9.9,0,0,0-.4-.8l-2.4-1.6a2.7,2.7,0,0,1-1-2.9,2.8,2.8,0,0,1,2.5-1.9h13.6v-1.5a10.3,10.3,0,0,0-5.7-9.3l-.7-.3v-2.5h23.1v2.5l-.7.3a10.3,10.3,0,0,0-5.7,9.3v1.5h13.6a2.6,2.6,0,0,1,2.5,1.9,2.7,2.7,0,0,1-1,2.9l-2.4,1.6a1.2,1.2,0,0,0-.4.8,6,6,0,0,1-5.9,6.2h-6.4v2.9h19.3a2.6,2.6,0,0,1,2.4,1.9,2.7,2.7,0,0,1-1,2.9l-2.3,1.6a.9.9,0,0,0-.4.8,6.1,6.1,0,0,1-5.9,6.2h-11.3l-.3,2.4a7,7,0,0,0,1.4,5.6l.9,1.1a6.7,6.7,0,0,1,1.4,5.3,8.3,8.3,0,0,1-.6,2.1h28.5a2.6,2.6,0,0,1,2.6,2.6v5.4A2.6,2.6,0,0,1-800.1-40.9ZM-874.6-49a.1.1,0,0,0-.1.1v5.4a.1.1,0,0,0,.1.1h74.5a.1.1,0,0,0,.1-.1v-5.4a.1.1,0,0,0-.1-.1h-35l3.1-2.3a4.4,4.4,0,0,0,1.6-2.7,4.3,4.3,0,0,0-.9-3.3l-.9-1.2a9.5,9.5,0,0,1-2-7.5l.7-4.5h13.4a3.6,3.6,0,0,0,3.4-3.7,3.4,3.4,0,0,1,1.4-2.8l2.4-1.7h-21.8v-7.9h8.9a3.6,3.6,0,0,0,3.4-3.7,3.5,3.5,0,0,1,1.5-2.8l2.3-1.7h-16.1v-4a13.2,13.2,0,0,1,4.2-9.6h-13.7a12.8,12.8,0,0,1,4.2,9.6v4h-16.1a.1.1,0,0,0,0,.2l2.3,1.7a3.2,3.2,0,0,1,1.5,2.8,3.6,3.6,0,0,0,3.4,3.7h8.9v7.9h-21.8v.2l2.4,1.7a3.4,3.4,0,0,1,1.4,2.8,3.6,3.6,0,0,0,3.4,3.7h13.4l.7,4.5a9.1,9.1,0,0,1-2,7.5l-.9,1.2a4.7,4.7,0,0,0-.9,3.3,4.4,4.4,0,0,0,1.6,2.7l3.1,2.3Z"/></clipPath><clipPath id="clip-path-11"><path class="cls-1" d="M-869.7-82.1a2.7,2.7,0,0,1,2.8-2.8,5.6,5.6,0,0,0,5.6-5.7v-7a2.9,2.9,0,0,1,2.8-2.8h8.5v-2.8h-8.5a5.6,5.6,0,0,0-5.6,5.6v7a2.9,2.9,0,0,1-2.8,2.9,5.6,5.6,0,0,0-5.6,5.6v19.7h2.8Z"/></clipPath><clipPath id="clip-path-12"><path class="cls-2" d="M-837.3-113.7a2.3,2.3,0,0,1-1.9-1l-3.2-5.4a2.1,2.1,0,0,1,.3-2.6l3.2-3.2a2.3,2.3,0,0,1,3.1,0l3.2,3.2a2.1,2.1,0,0,1,.3,2.6l-3.2,5.3A2.1,2.1,0,0,1-837.3-113.7Zm0-2.2Zm-.1-8.5-3.1,3.2,3.2,5.3,3.1-5.3Z"/></clipPath><clipPath id="clip-path-13"><path class="cls-1" d="M-824.7-103.2v2.8h8.5a2.9,2.9,0,0,1,2.8,2.8v7a5.7,5.7,0,0,0,5.6,5.7,2.7,2.7,0,0,1,2.8,2.8v19.7h2.9V-82.1a5.7,5.7,0,0,0-5.7-5.6,2.9,2.9,0,0,1-2.8-2.9v-7a5.6,5.6,0,0,0-5.6-5.6Z"/></clipPath><clipPath id="clip-path-14"><path class="cls-1" d="M-819-113.1h2.8a8.5,8.5,0,0,0-8.5-8.4h-2.8v2.8h2.8a5.7,5.7,0,0,1,5.7,5.6"/></clipPath><clipPath id="clip-path-15"><path class="cls-1" d="M-850-118.7h2.8v-2.8H-850a8.5,8.5,0,0,0-8.5,8.4h2.9a5.6,5.6,0,0,1,5.6-5.6"/></clipPath><clipPath id="clip-path-16"><path class="cls-1" d="M-370.2-54.2a4.4,4.4,0,0,1-3.1,1.3,4.4,4.4,0,0,1-3.1-1.3,7.7,7.7,0,0,0-5-1.9,7.8,7.8,0,0,0-5.1,1.9,4.4,4.4,0,0,1-3.1,1.3,4.6,4.6,0,0,1-3.1-1.3,7.5,7.5,0,0,0-5-1.9,7.5,7.5,0,0,0-5,1.9,4.6,4.6,0,0,1-3.1,1.3,4,4,0,0,1-1.8-.4V-95.5h22v3.2h3.1v-3.2h1.6a3.1,3.1,0,0,0,3.2-3.1v-3.2a3.1,3.1,0,0,0-3.2-3.1h-.1a29.9,29.9,0,0,0-28.2-28.3v-1.6a4.7,4.7,0,0,0-4.7-4.7,4.7,4.7,0,0,0-4.8,4.7v1.6a29.9,29.9,0,0,0-28.2,28.3h-.1a3.2,3.2,0,0,0-3.2,3.1v3.2a3.2,3.2,0,0,0,3.2,3.1h1.6v3.2h3.1v-3.2h22.1v42.1a3.6,3.6,0,0,1-1.9.5,4.4,4.4,0,0,1-3.1-1.3,7.7,7.7,0,0,0-5-1.9,7.8,7.8,0,0,0-5.1,1.9,4.4,4.4,0,0,1-3.1,1.3,4.6,4.6,0,0,1-3.1-1.3,7.5,7.5,0,0,0-5-1.9,7.5,7.5,0,0,0-5,1.9,4.6,4.6,0,0,1-3.1,1.3,4.4,4.4,0,0,1-3.1-1.3,7.8,7.8,0,0,0-5.1-1.9v3.2a4.4,4.4,0,0,1,3.1,1.2,7.8,7.8,0,0,0,5.1,1.9,7.7,7.7,0,0,0,5-1.9,4.4,4.4,0,0,1,3.1-1.2,4.4,4.4,0,0,1,3.1,1.2,7.7,7.7,0,0,0,5,1.9,7.8,7.8,0,0,0,5.1-1.9,4.4,4.4,0,0,1,3.1-1.2,4.6,4.6,0,0,1,3.1,1.2,7.5,7.5,0,0,0,5,1.9,7.5,7.5,0,0,0,5-1.9,4.6,4.6,0,0,1,3.1-1.2,4.4,4.4,0,0,1,3.1,1.2,7.8,7.8,0,0,0,5.1,1.9,7.7,7.7,0,0,0,5-1.9,4.4,4.4,0,0,1,3.1-1.2,4.4,4.4,0,0,1,3.1,1.2,7.7,7.7,0,0,0,5,1.9,7.8,7.8,0,0,0,5.1-1.9,4.4,4.4,0,0,1,3.1-1.2,4.6,4.6,0,0,1,3.1,1.2,7.5,7.5,0,0,0,5,1.9,7.8,7.8,0,0,0,5.1-1.9,4.4,4.4,0,0,1,3.1-1.2v-3.2A7.8,7.8,0,0,0-370.2-54.2Zm-43.7-82.2a1.6,1.6,0,0,1,1.5,1.6v1.6h-3.1v-1.6A1.6,1.6,0,0,1-413.9-136.4Zm-4.4,6.4a37,37,0,0,0-8.3,11.9l2.9,1.2a34.9,34.9,0,0,1,9.8-12.8,33.6,33.6,0,0,1,12.5,24.8h-25.1a38.6,38.6,0,0,1,1.6-9l-3-.9a36.7,36.7,0,0,0-1.7,9.9h-14.2A26.7,26.7,0,0,1-418.3-130ZM-447-101.8h53.5v-3.1h-4.7A36.7,36.7,0,0,0-409.6-130a26.7,26.7,0,0,1,25.5,25.1h-6.2v3.1h9.4v3.2H-447Zm33,45.7a6.8,6.8,0,0,0-3.1.7V-95.5h6.3v40.1A6.9,6.9,0,0,0-414-56.1Z"/></clipPath><clipPath id="clip-path-17"><path class="cls-1" d="M-373.3-45.1a4.4,4.4,0,0,1-3.1-1.2,7.2,7.2,0,0,0-5-1.9,7.3,7.3,0,0,0-5.1,1.9,4.4,4.4,0,0,1-3.1,1.2,4.6,4.6,0,0,1-3.1-1.2,7,7,0,0,0-5-1.9,7,7,0,0,0-5,1.9,4.6,4.6,0,0,1-3.1,1.2,4.4,4.4,0,0,1-3.1-1.2,7.3,7.3,0,0,0-5.1-1.9,7.2,7.2,0,0,0-5,1.9,4.4,4.4,0,0,1-3.1,1.2,4.4,4.4,0,0,1-3.1-1.2,7.2,7.2,0,0,0-5-1.9,7.3,7.3,0,0,0-5.1,1.9,4.4,4.4,0,0,1-3.1,1.2,4.6,4.6,0,0,1-3.1-1.2,7,7,0,0,0-5-1.9,7,7,0,0,0-5,1.9,4.6,4.6,0,0,1-3.1,1.2,4.4,4.4,0,0,1-3.1-1.2,7.3,7.3,0,0,0-5.1-1.9v3.1a4.1,4.1,0,0,1,3.1,1.3,7.8,7.8,0,0,0,5.1,1.9,7.7,7.7,0,0,0,5-1.9,4.1,4.1,0,0,1,3.1-1.3,4.1,4.1,0,0,1,3.1,1.3,7.7,7.7,0,0,0,5,1.9,7.8,7.8,0,0,0,5.1-1.9,4.1,4.1,0,0,1,3.1-1.3,4.2,4.2,0,0,1,3.1,1.3,7.5,7.5,0,0,0,5,1.9,7.5,7.5,0,0,0,5-1.9,4.2,4.2,0,0,1,3.1-1.3,4.1,4.1,0,0,1,3.1,1.3,7.8,7.8,0,0,0,5.1,1.9,7.7,7.7,0,0,0,5-1.9,4.1,4.1,0,0,1,3.1-1.3,4.1,4.1,0,0,1,3.1,1.3,7.7,7.7,0,0,0,5,1.9,7.8,7.8,0,0,0,5.1-1.9,4.1,4.1,0,0,1,3.1-1.3,4.2,4.2,0,0,1,3.1,1.3,7.5,7.5,0,0,0,5,1.9,7.3,7.3,0,0,0,5-1.9,4.4,4.4,0,0,1,3.2-1.3v-3.1a7.3,7.3,0,0,0-5.1,1.9,4.4,4.4,0,0,1-3.1,1.2"/></clipPath><clipPath id="clip-path-18"><path class="cls-1" d="M-404.5-64a4.8,4.8,0,0,0,4.7,4.8,4.8,4.8,0,0,0,4.7-4.8v-3.1h-3.1V-64a1.6,1.6,0,0,1-1.6,1.6,1.6,1.6,0,0,1-1.6-1.6V-86h-3.1Z"/></clipPath><clipPath id="clip-path-19"><path class="cls-1" d="M-382.5-75v-7.9h-3.1V-75a1.6,1.6,0,0,1-1.6,1.6,1.6,1.6,0,0,1-1.6-1.6V-87.6a4.7,4.7,0,0,0-4.7-4.7,4.7,4.7,0,0,0-4.7,4.7v4.7h3.1v-4.7a1.6,1.6,0,0,1,1.6-1.6,1.6,1.6,0,0,1,1.6,1.6V-75a4.7,4.7,0,0,0,4.7,4.7,4.7,4.7,0,0,0,4.7-4.7"/></clipPath><clipPath id="clip-path-20"><path class="cls-1" d="M-426.5-64a1.6,1.6,0,0,1-1.6,1.6,1.6,1.6,0,0,1-1.6-1.6v-3.1h-3.1V-64a4.8,4.8,0,0,0,4.7,4.8,4.8,4.8,0,0,0,4.7-4.8V-86h-3.1Z"/></clipPath><clipPath id="clip-path-21"><path class="cls-1" d="M-445.4-75a4.7,4.7,0,0,0,4.7,4.7A4.7,4.7,0,0,0-436-75V-87.6a1.6,1.6,0,0,1,1.6-1.6,1.6,1.6,0,0,1,1.6,1.6v4.7h3.1v-4.7a4.7,4.7,0,0,0-4.7-4.7,4.7,4.7,0,0,0-4.7,4.7V-75a1.6,1.6,0,0,1-1.6,1.6,1.6,1.6,0,0,1-1.6-1.6v-7.9h-3.1Z"/></clipPath><clipPath id="clip-path-22"><path class="cls-1" d="M-454.9-64a18.8,18.8,0,0,1,5.7.9l4.9,1.7-2.6-6.6a8.7,8.7,0,0,0-8-5.4,4.7,4.7,0,0,0-4.7,4.7,4.7,4.7,0,0,0,4.7,4.7m0-6.3a5.4,5.4,0,0,1,5,3.4l.2.4a22.4,22.4,0,0,0-5.2-.6,1.6,1.6,0,0,1-1.6-1.6,1.6,1.6,0,0,1,1.6-1.6"/></clipPath><clipPath id="clip-path-23"><path class="cls-1" d="M-381-68l-2.6,6.6,4.9-1.7A18.8,18.8,0,0,1-373-64a4.7,4.7,0,0,0,4.7-4.7,4.7,4.7,0,0,0-4.7-4.7A8.7,8.7,0,0,0-381-68Zm3,1.1a5.4,5.4,0,0,1,5-3.4,1.6,1.6,0,0,1,1.6,1.6,1.6,1.6,0,0,1-1.6,1.6,22.4,22.4,0,0,0-5.2.6Z"/></clipPath></defs><path class="cls-3" d="M-295.1-45.3h16v-10h-16Zm17.9,3.9h-19.9a2,2,0,0,1-1.9-2V-57.3a2,2,0,0,1,1.9-2h19.9a2,2,0,0,1,2,2v13.9A2,2,0,0,1-277.2-41.4Z"/><g class="cls-4"><rect class="cls-2" x="-1563.6" y="-3838" width="5804" height="4970.61"/></g><path class="cls-3" d="M-305-45.3h35.8v-87.6H-305Zm37.8,3.9H-307a2,2,0,0,1-2-2v-91.5a1.9,1.9,0,0,1,2-1.9h39.8a1.9,1.9,0,0,1,2,1.9v91.5A2,2,0,0,1-267.2-41.4Z"/><g class="cls-5"><rect class="cls-2" x="-1563.6" y="-3838" width="5804" height="4964.66"/></g><path class="cls-3" d="M-320.9-45.3H-309v-79.6h-11.9Zm13.9,3.9h-15.9a2,2,0,0,1-2-2v-83.5a2,2,0,0,1,2-2H-307a2,2,0,0,1,2,2v83.5A2,2,0,0,1-307-41.4Z"/><g class="cls-6"><rect class="cls-2" x="-1563.6" y="-3838" width="5804" height="4964.66"/></g><path class="cls-3" d="M-265.2-45.3h11.9v-79.6h-11.9Zm13.9,3.9h-15.9a2,2,0,0,1-2-2v-83.5a2,2,0,0,1,2-2h15.9a2,2,0,0,1,2,2v83.5A2,2,0,0,1-251.3-41.4Z"/><g class="cls-7"><rect class="cls-2" x="-1563.6" y="-3838" width="5804" height="4964.66"/></g><rect class="cls-2" x="-338.8" y="-85.1" width="4" height="19.89" transform="translate(-74.5 -299.4) rotate(-53.1)"/><g class="cls-8"><rect class="cls-2" x="-1563.6" y="-3838" width="5804" height="4964.66"/></g><rect class="cls-2" x="-346.8" y="-77.2" width="19.9" height="3.98" transform="translate(-22.3 -217.2) rotate(-36.9)"/><g class="cls-9"><rect class="cls-2" x="-1563.6" y="-3838" width="5804" height="4964.66"/></g><rect class="cls-2" x="-239.4" y="-85.1" width="4" height="19.89" transform="translate(-34.8 -219.9) rotate(-53.1)"/><g class="cls-10"><rect class="cls-2" x="-1563.6" y="-3838" width="5804" height="4964.66"/></g><rect class="cls-2" x="-247.3" y="-77.2" width="19.9" height="3.97" transform="translate(-2.3 -157.4) rotate(-36.8)"/><g class="cls-11"><rect class="cls-2" x="-1563.6" y="-3838" width="5804" height="4964.66"/></g><path class="cls-3" d="M-479.2-94.8a9.3,9.3,0,0,0-6.6-9,38.6,38.6,0,0,0-4.7-11.3,9.4,9.4,0,0,0-1.7-11.1,9.1,9.1,0,0,0-6.6-2.8,10,10,0,0,0-4.5,1.1,40.9,40.9,0,0,0-11.2-4.7,9.5,9.5,0,0,0-9-6.6,9.4,9.4,0,0,0-9,6.6,41.6,41.6,0,0,0-11.3,4.7,9.9,9.9,0,0,0-7.2-.7,1.4,1.4,0,0,0,.9,2.7,6.5,6.5,0,0,1,6.6,1.7,6.6,6.6,0,0,1,0,9.4,6.8,6.8,0,0,1-9.4,0,6.6,6.6,0,0,1-1.4-7.3,1.4,1.4,0,0,0-2.6-1,9.7,9.7,0,0,0,.3,8,38.4,38.4,0,0,0-4.6,11.3,9.3,9.3,0,0,0-6.7,9,9.5,9.5,0,0,0,6.7,9,36.1,36.1,0,0,0,4.7,11.3,9.4,9.4,0,0,0,1.6,11.1,9.6,9.6,0,0,0,11.1,1.7c1.4.8,2.8,1.6,4.3,2.3l-4.3,11.6a3.4,3.4,0,0,0,3.1,4.4h34.4a3.3,3.3,0,0,0,3-4.4l-4.3-11.6c1.5-.7,2.9-1.5,4.3-2.3a9.9,9.9,0,0,0,4.4,1.1,10.5,10.5,0,0,0,3-.5c1.6-.5.8-3.2-.9-2.7a6.4,6.4,0,0,1-6.7-1.6,6.6,6.6,0,0,1,0-9.4,6.6,6.6,0,0,1,9.4,0,6.8,6.8,0,0,1,1.4,7.2c-.6,1.6,2,2.7,2.6,1a9.1,9.1,0,0,0-.4-7.9,38.6,38.6,0,0,0,4.7-11.3A9.5,9.5,0,0,0-479.2-94.8Zm-2.8,0a6.6,6.6,0,0,1-6.6,6.6,6.6,6.6,0,0,1-6.7-6.6,6.7,6.7,0,0,1,6.7-6.7A6.7,6.7,0,0,1-482-94.8Zm-16-1.4h-11.8a13.4,13.4,0,0,0-3.1-7.3l8.4-8.4a9.6,9.6,0,0,0,7.5,1.7,29,29,0,0,1,3.1,7.5A9.9,9.9,0,0,0-498-96.2Zm-11.8,34.7-4.3,1.4a6.7,6.7,0,0,0-.4-2.4,34.1,34.1,0,0,0,7.4-3.1,9,9,0,0,0,1.4,2A31.7,31.7,0,0,1-509.8-61.5Zm-31.6-2.1a9.5,9.5,0,0,0,1.5-2,33.4,33.4,0,0,0,7.3,3.1,20,20,0,0,0-.4,2.4A34,34,0,0,1-541.4-63.6Zm-13.3-13.3a37.1,37.1,0,0,1-3.5-8.5,9.3,9.3,0,0,0,2.4-.3,39,39,0,0,0,3.1,7.3A9.5,9.5,0,0,0-554.7-76.9Zm4.7-2.5a30.8,30.8,0,0,1-3.2-7.5,9.5,9.5,0,0,0,4.1-6.5h11.9a13.9,13.9,0,0,0,3,7.3l-8.4,8.4A9.4,9.4,0,0,0-550-79.4Zm25.1,10.2a9.5,9.5,0,0,0-6.5,4.1,29.2,29.2,0,0,1-7.5-3.2,9.4,9.4,0,0,0-1.7-7.4l8.4-8.4a14.1,14.1,0,0,0,7.3,3Zm1.4,2.7a6.7,6.7,0,0,1,6.6,6.6,6.7,6.7,0,0,1-6.6,6.7,6.7,6.7,0,0,1-6.7-6.7A6.7,6.7,0,0,1-523.5-66.5Zm15.4-1.8a29.9,29.9,0,0,1-7.6,3.2,9.1,9.1,0,0,0-6.4-4.1V-81.1a14.8,14.8,0,0,0,7.3-3l8.4,8.4A9.5,9.5,0,0,0-508.1-68.3Zm-15.4-15.5a11,11,0,0,1-11-11,11,11,0,0,1,11-11,10.9,10.9,0,0,1,10.9,11A11,11,0,0,1-523.5-83.8Zm-9.1-43.3a33,33,0,0,0-7.3,3,13,13,0,0,0-1.5-2,38.3,38.3,0,0,1,8.4-3.5A18.7,18.7,0,0,0-532.6-127.1Zm-6.3,5.7a29,29,0,0,1,7.5-3.1,9.5,9.5,0,0,0,6.5,4.1v11.9a13.3,13.3,0,0,0-7.3,3l-8.4-8.4A9.6,9.6,0,0,0-538.9-121.4Zm31.8-2.6a29.8,29.8,0,0,0-7.4-3.1,6.9,6.9,0,0,0,.4-2.5,34.7,34.7,0,0,1,8.4,3.5A9.6,9.6,0,0,0-507.1-124Zm-8.6-.5a29.6,29.6,0,0,1,7.6,3.1,9.2,9.2,0,0,0,1.7,7.5l-8.4,8.4a13.9,13.9,0,0,0-7.3-3v-11.9A9.1,9.1,0,0,0-515.7-124.5Zm23.4,11.8a38.3,38.3,0,0,1,3.5,8.4l-2.5.4a33,33,0,0,0-3-7.3A9.5,9.5,0,0,0-492.3-112.7Zm-1.8-11.5a6.8,6.8,0,0,1,0,9.4,6.8,6.8,0,0,1-9.4,0,6.6,6.6,0,0,1,0-9.4A6.6,6.6,0,0,1-494.1-124.2Zm-29.4-12.2a6.7,6.7,0,0,1,6.6,6.6,6.7,6.7,0,0,1-6.6,6.7,6.7,6.7,0,0,1-6.7-6.7c0-.4.1-.8.1-1.2a.4.4,0,0,0,.1-.3A6.7,6.7,0,0,1-523.5-136.4Zm-19.1,24.5,8.4,8.4a13.3,13.3,0,0,0-3,7.3h-11.9a9.5,9.5,0,0,0-4.1-6.5,29.2,29.2,0,0,1,3.2-7.5A9.4,9.4,0,0,0-542.6-111.9Zm-10.1.7a39,39,0,0,0-3.1,7.3l-2.4-.4a38.3,38.3,0,0,1,3.5-8.4A9.5,9.5,0,0,0-552.7-111.2Zm-12.4,16.4a6.8,6.8,0,0,1,6.7-6.7,6.7,6.7,0,0,1,6.6,6.7,6.6,6.6,0,0,1-6.6,6.6A6.6,6.6,0,0,1-565.1-94.8Zm16.9,31.4a6.5,6.5,0,0,1-4.7-2,6.6,6.6,0,0,1,0-9.4,6.6,6.6,0,0,1,9.4,0,6.6,6.6,0,0,1,0,9.4A6.9,6.9,0,0,1-548.2-63.4Zm42.3,16.5a.5.5,0,0,1-.4.7h-34.4c-.4-.1-.5-.3-.4-.7l4.2-11.5a22.3,22.3,0,0,0,4.4,1.3,9.4,9.4,0,0,0,9,6.7,9.5,9.5,0,0,0,9-6.7,21.3,21.3,0,0,0,4.3-1.3Zm1.5-30.8-8.4-8.4a14.8,14.8,0,0,0,3-7.3H-498a9.9,9.9,0,0,0,4.1,6.5,30.5,30.5,0,0,1-3.1,7.5l-1.8-.2A9.2,9.2,0,0,0-504.4-77.7Zm10.1-.7a33,33,0,0,0,3-7.3,10.1,10.1,0,0,0,2.5.3,37.1,37.1,0,0,1-3.5,8.5A9.5,9.5,0,0,0-494.3-78.4Z"/><g class="cls-12"><rect class="cls-2" x="-5087.8" y="-2354.6" width="5391.4" height="4611.73"/></g><path class="cls-2" d="M-800.1-40.9h-74.5a2.6,2.6,0,0,1-2.6-2.6v-5.4a2.6,2.6,0,0,1,2.6-2.6h28.5a8.3,8.3,0,0,1-.6-2.1,6.7,6.7,0,0,1,1.4-5.3l.9-1.1a7.5,7.5,0,0,0,1.5-5.6l-.4-2.4h-11.3a6.1,6.1,0,0,1-5.9-6.2,1.1,1.1,0,0,0-.3-.8l-2.4-1.6a2.8,2.8,0,0,1-1-2.9,2.4,2.4,0,0,1,2.4-1.9h19.3v-2.9h-6.4a6,6,0,0,1-5.9-6.2.9.9,0,0,0-.4-.8l-2.4-1.6a2.7,2.7,0,0,1-1-2.9,2.8,2.8,0,0,1,2.5-1.9h13.6v-1.5a10.3,10.3,0,0,0-5.7-9.3l-.7-.3v-2.5h23.1v2.5l-.7.3a10.3,10.3,0,0,0-5.7,9.3v1.5h13.6a2.6,2.6,0,0,1,2.5,1.9,2.7,2.7,0,0,1-1,2.9l-2.4,1.6a1.2,1.2,0,0,0-.4.8,6,6,0,0,1-5.9,6.2h-6.4v2.9h19.3a2.6,2.6,0,0,1,2.4,1.9,2.7,2.7,0,0,1-1,2.9l-2.3,1.6a.9.9,0,0,0-.4.8,6.1,6.1,0,0,1-5.9,6.2h-11.3l-.3,2.4a7,7,0,0,0,1.4,5.6l.9,1.1a6.7,6.7,0,0,1,1.4,5.3,8.3,8.3,0,0,1-.6,2.1h28.5a2.6,2.6,0,0,1,2.6,2.6v5.4A2.6,2.6,0,0,1-800.1-40.9ZM-874.6-49a.1.1,0,0,0-.1.1v5.4a.1.1,0,0,0,.1.1h74.5a.1.1,0,0,0,.1-.1v-5.4a.1.1,0,0,0-.1-.1h-35l3.1-2.3a4.4,4.4,0,0,0,1.6-2.7,4.3,4.3,0,0,0-.9-3.3l-.9-1.2a9.5,9.5,0,0,1-2-7.5l.7-4.5h13.4a3.6,3.6,0,0,0,3.4-3.7,3.4,3.4,0,0,1,1.4-2.8l2.4-1.7h-21.8v-7.9h8.9a3.6,3.6,0,0,0,3.4-3.7,3.5,3.5,0,0,1,1.5-2.8l2.3-1.7h-16.1v-4a13.2,13.2,0,0,1,4.2-9.6h-13.7a12.8,12.8,0,0,1,4.2,9.6v4h-16.1a.1.1,0,0,0,0,.2l2.3,1.7a3.2,3.2,0,0,1,1.5,2.8,3.6,3.6,0,0,0,3.4,3.7h8.9v7.9h-21.8v.2l2.4,1.7a3.4,3.4,0,0,1,1.4,2.8,3.6,3.6,0,0,0,3.4,3.7h13.4l.7,4.5a9.1,9.1,0,0,1-2,7.5l-.9,1.2a4.7,4.7,0,0,0-.9,3.3,4.4,4.4,0,0,0,1.6,2.7l3.1,2.3Z"/><g class="cls-13"><path class="cls-2" d="M1585.6,1743H-3291.8V-2663.3H1585.6Zm-4874.4-3H1582.6V-2660.3H-3288.8Z"/></g><path class="cls-3" d="M-869.7-82.1a2.7,2.7,0,0,1,2.8-2.8,5.6,5.6,0,0,0,5.6-5.7v-7a2.9,2.9,0,0,1,2.8-2.8h8.5v-2.8h-8.5a5.6,5.6,0,0,0-5.6,5.6v7a2.9,2.9,0,0,1-2.8,2.9,5.6,5.6,0,0,0-5.6,5.6v19.7h2.8Z"/><g class="cls-14"><rect class="cls-2" x="-3523.6" y="-2759.2" width="5338" height="4566.05"/></g><path class="cls-2" d="M-837.3-113.7a2.3,2.3,0,0,1-1.9-1l-3.2-5.4a2.1,2.1,0,0,1,.3-2.6l3.2-3.2a2.3,2.3,0,0,1,3.1,0l3.2,3.2a2.1,2.1,0,0,1,.3,2.6l-3.2,5.3A2.1,2.1,0,0,1-837.3-113.7Zm0-2.2Zm-.1-8.5-3.1,3.2,3.2,5.3,3.1-5.3Z"/><g class="cls-15"><path class="cls-2" d="M1169.8,1338.7H-2870.5V-2117.6H1169.8Zm-4038.1-2.2H1167.6V-2115.4H-2868.3Z"/></g><path class="cls-3" d="M-824.7-103.2v2.8h8.5a2.9,2.9,0,0,1,2.8,2.8v7a5.7,5.7,0,0,0,5.6,5.7,2.7,2.7,0,0,1,2.8,2.8v19.7h2.9V-82.1a5.7,5.7,0,0,0-5.7-5.6,2.9,2.9,0,0,1-2.8-2.9v-7a5.6,5.6,0,0,0-5.6-5.6Z"/><g class="cls-16"><rect class="cls-2" x="-3523.6" y="-2759.2" width="5338" height="4566.05"/></g><path class="cls-3" d="M-819-113.1h2.8a8.5,8.5,0,0,0-8.5-8.4h-2.8v2.8h2.8a5.7,5.7,0,0,1,5.7,5.6"/><g class="cls-17"><rect class="cls-2" x="-3523.6" y="-2759.2" width="5338" height="4566.05"/></g><path class="cls-3" d="M-850-118.7h2.8v-2.8H-850a8.5,8.5,0,0,0-8.5,8.4h2.9a5.6,5.6,0,0,1,5.6-5.6"/><g class="cls-18"><rect class="cls-2" x="-3523.6" y="-2759.2" width="5338" height="4566.05"/></g><path class="cls-3" d="M-370.2-54.2a4.4,4.4,0,0,1-3.1,1.3,4.4,4.4,0,0,1-3.1-1.3,7.7,7.7,0,0,0-5-1.9,7.8,7.8,0,0,0-5.1,1.9,4.4,4.4,0,0,1-3.1,1.3,4.6,4.6,0,0,1-3.1-1.3,7.5,7.5,0,0,0-5-1.9,7.5,7.5,0,0,0-5,1.9,4.6,4.6,0,0,1-3.1,1.3,4,4,0,0,1-1.8-.4V-95.5h22v3.2h3.1v-3.2h1.6a3.1,3.1,0,0,0,3.2-3.1v-3.2a3.1,3.1,0,0,0-3.2-3.1h-.1a29.9,29.9,0,0,0-28.2-28.3v-1.6a4.7,4.7,0,0,0-4.7-4.7,4.7,4.7,0,0,0-4.8,4.7v1.6a29.9,29.9,0,0,0-28.2,28.3h-.1a3.2,3.2,0,0,0-3.2,3.1v3.2a3.2,3.2,0,0,0,3.2,3.1h1.6v3.2h3.1v-3.2h22.1v42.1a3.6,3.6,0,0,1-1.9.5,4.4,4.4,0,0,1-3.1-1.3,7.7,7.7,0,0,0-5-1.9,7.8,7.8,0,0,0-5.1,1.9,4.4,4.4,0,0,1-3.1,1.3,4.6,4.6,0,0,1-3.1-1.3,7.5,7.5,0,0,0-5-1.9,7.5,7.5,0,0,0-5,1.9,4.6,4.6,0,0,1-3.1,1.3,4.4,4.4,0,0,1-3.1-1.3,7.8,7.8,0,0,0-5.1-1.9v3.2a4.4,4.4,0,0,1,3.1,1.2,7.8,7.8,0,0,0,5.1,1.9,7.7,7.7,0,0,0,5-1.9,4.4,4.4,0,0,1,3.1-1.2,4.4,4.4,0,0,1,3.1,1.2,7.7,7.7,0,0,0,5,1.9,7.8,7.8,0,0,0,5.1-1.9,4.4,4.4,0,0,1,3.1-1.2,4.6,4.6,0,0,1,3.1,1.2,7.5,7.5,0,0,0,5,1.9,7.5,7.5,0,0,0,5-1.9,4.6,4.6,0,0,1,3.1-1.2,4.4,4.4,0,0,1,3.1,1.2,7.8,7.8,0,0,0,5.1,1.9,7.7,7.7,0,0,0,5-1.9,4.4,4.4,0,0,1,3.1-1.2,4.4,4.4,0,0,1,3.1,1.2,7.7,7.7,0,0,0,5,1.9,7.8,7.8,0,0,0,5.1-1.9,4.4,4.4,0,0,1,3.1-1.2,4.6,4.6,0,0,1,3.1,1.2,7.5,7.5,0,0,0,5,1.9,7.8,7.8,0,0,0,5.1-1.9,4.4,4.4,0,0,1,3.1-1.2v-3.2A7.8,7.8,0,0,0-370.2-54.2Zm-43.7-82.2a1.6,1.6,0,0,1,1.5,1.6v1.6h-3.1v-1.6A1.6,1.6,0,0,1-413.9-136.4Zm-4.4,6.4a37,37,0,0,0-8.3,11.9l2.9,1.2a34.9,34.9,0,0,1,9.8-12.8,33.6,33.6,0,0,1,12.5,24.8h-25.1a38.6,38.6,0,0,1,1.6-9l-3-.9a36.7,36.7,0,0,0-1.7,9.9h-14.2A26.7,26.7,0,0,1-418.3-130ZM-447-101.8h53.5v-3.1h-4.7A36.7,36.7,0,0,0-409.6-130a26.7,26.7,0,0,1,25.5,25.1h-6.2v3.1h9.4v3.2H-447Zm33,45.7a6.8,6.8,0,0,0-3.1.7V-95.5h6.3v40.1A6.9,6.9,0,0,0-414-56.1Z"/><g class="cls-19"><rect class="cls-2" x="-3210.8" y="-2541.5" width="5224.4" height="4468.85"/></g><path class="cls-3" d="M-373.3-45.1a4.4,4.4,0,0,1-3.1-1.2,7.2,7.2,0,0,0-5-1.9,7.3,7.3,0,0,0-5.1,1.9,4.4,4.4,0,0,1-3.1,1.2,4.6,4.6,0,0,1-3.1-1.2,7,7,0,0,0-5-1.9,7,7,0,0,0-5,1.9,4.6,4.6,0,0,1-3.1,1.2,4.4,4.4,0,0,1-3.1-1.2,7.3,7.3,0,0,0-5.1-1.9,7.2,7.2,0,0,0-5,1.9,4.4,4.4,0,0,1-3.1,1.2,4.4,4.4,0,0,1-3.1-1.2,7.2,7.2,0,0,0-5-1.9,7.3,7.3,0,0,0-5.1,1.9,4.4,4.4,0,0,1-3.1,1.2,4.6,4.6,0,0,1-3.1-1.2,7,7,0,0,0-5-1.9,7,7,0,0,0-5,1.9,4.6,4.6,0,0,1-3.1,1.2,4.4,4.4,0,0,1-3.1-1.2,7.3,7.3,0,0,0-5.1-1.9v3.1a4.1,4.1,0,0,1,3.1,1.3,7.8,7.8,0,0,0,5.1,1.9,7.7,7.7,0,0,0,5-1.9,4.1,4.1,0,0,1,3.1-1.3,4.1,4.1,0,0,1,3.1,1.3,7.7,7.7,0,0,0,5,1.9,7.8,7.8,0,0,0,5.1-1.9,4.1,4.1,0,0,1,3.1-1.3,4.2,4.2,0,0,1,3.1,1.3,7.5,7.5,0,0,0,5,1.9,7.5,7.5,0,0,0,5-1.9,4.2,4.2,0,0,1,3.1-1.3,4.1,4.1,0,0,1,3.1,1.3,7.8,7.8,0,0,0,5.1,1.9,7.7,7.7,0,0,0,5-1.9,4.1,4.1,0,0,1,3.1-1.3,4.1,4.1,0,0,1,3.1,1.3,7.7,7.7,0,0,0,5,1.9,7.8,7.8,0,0,0,5.1-1.9,4.1,4.1,0,0,1,3.1-1.3,4.2,4.2,0,0,1,3.1,1.3,7.5,7.5,0,0,0,5,1.9,7.3,7.3,0,0,0,5-1.9,4.4,4.4,0,0,1,3.2-1.3v-3.1a7.3,7.3,0,0,0-5.1,1.9,4.4,4.4,0,0,1-3.1,1.2"/><g class="cls-20"><rect class="cls-2" x="-3210.8" y="-2541.5" width="5224.4" height="4468.85"/></g><path class="cls-3" d="M-404.5-64a4.8,4.8,0,0,0,4.7,4.8,4.8,4.8,0,0,0,4.7-4.8v-3.1h-3.1V-64a1.6,1.6,0,0,1-1.6,1.6,1.6,1.6,0,0,1-1.6-1.6V-86h-3.1Z"/><g class="cls-21"><rect class="cls-2" x="-3210.8" y="-2541.5" width="5224.4" height="4468.85"/></g><path class="cls-3" d="M-382.5-75v-7.9h-3.1V-75a1.6,1.6,0,0,1-1.6,1.6,1.6,1.6,0,0,1-1.6-1.6V-87.6a4.7,4.7,0,0,0-4.7-4.7,4.7,4.7,0,0,0-4.7,4.7v4.7h3.1v-4.7a1.6,1.6,0,0,1,1.6-1.6,1.6,1.6,0,0,1,1.6,1.6V-75a4.7,4.7,0,0,0,4.7,4.7,4.7,4.7,0,0,0,4.7-4.7"/><g class="cls-22"><rect class="cls-2" x="-3210.8" y="-2541.5" width="5224.4" height="4468.85"/></g><path class="cls-3" d="M-426.5-64a1.6,1.6,0,0,1-1.6,1.6,1.6,1.6,0,0,1-1.6-1.6v-3.1h-3.1V-64a4.8,4.8,0,0,0,4.7,4.8,4.8,4.8,0,0,0,4.7-4.8V-86h-3.1Z"/><g class="cls-23"><rect class="cls-2" x="-3210.8" y="-2541.5" width="5224.4" height="4468.85"/></g><path class="cls-3" d="M-445.4-75a4.7,4.7,0,0,0,4.7,4.7A4.7,4.7,0,0,0-436-75V-87.6a1.6,1.6,0,0,1,1.6-1.6,1.6,1.6,0,0,1,1.6,1.6v4.7h3.1v-4.7a4.7,4.7,0,0,0-4.7-4.7,4.7,4.7,0,0,0-4.7,4.7V-75a1.6,1.6,0,0,1-1.6,1.6,1.6,1.6,0,0,1-1.6-1.6v-7.9h-3.1Z"/><g class="cls-24"><rect class="cls-2" x="-3210.8" y="-2541.5" width="5224.4" height="4468.85"/></g><path class="cls-3" d="M-454.9-64a18.8,18.8,0,0,1,5.7.9l4.9,1.7-2.6-6.6a8.7,8.7,0,0,0-8-5.4,4.7,4.7,0,0,0-4.7,4.7,4.7,4.7,0,0,0,4.7,4.7m0-6.3a5.4,5.4,0,0,1,5,3.4l.2.4a22.4,22.4,0,0,0-5.2-.6,1.6,1.6,0,0,1-1.6-1.6,1.6,1.6,0,0,1,1.6-1.6"/><g class="cls-25"><rect class="cls-2" x="-3210.8" y="-2541.5" width="5224.4" height="4468.85"/></g><path class="cls-3" d="M-381-68l-2.6,6.6,4.9-1.7A18.8,18.8,0,0,1-373-64a4.7,4.7,0,0,0,4.7-4.7,4.7,4.7,0,0,0-4.7-4.7A8.7,8.7,0,0,0-381-68Zm3,1.1a5.4,5.4,0,0,1,5-3.4,1.6,1.6,0,0,1,1.6,1.6,1.6,1.6,0,0,1-1.6,1.6,22.4,22.4,0,0,0-5.2.6Z"/><g class="cls-26"><rect class="cls-2" x="-3210.8" y="-2541.5" width="5224.4" height="4468.85"/></g><path class="cls-2" d="M141,82.6a6.8,6.8,0,0,0-7.7-6.3c-1.6-3,5.4,10.8-23.2-46.2h0l-9.8-19.6a5.2,5.2,0,0,0-9.4,0c-.9,1.7-6.6,13.2-7.8,15.6L71.4,2.6h0a4.8,4.8,0,0,0-8.5,0L53.3,21.8a1.1,1.1,0,0,1-2,0,4.8,4.8,0,0,0-8.6,0L27.2,52.9l-.4-.8a3.5,3.5,0,0,0-6.3,0h0L3.9,85.3H2.1a2,2,0,0,0-2.1,2,2.1,2.1,0,0,0,2.1,2.1h104a2,2,0,0,0,2-2.1,2,2,0,0,0-2-2H83.2a1.8,1.8,0,0,1-1.7-1.7A1.7,1.7,0,0,1,83.4,82a3.1,3.1,0,0,0,3.3-2.4,3.9,3.9,0,0,1,7.2-1.2,3.2,3.2,0,0,0,3.4,1.5,2.7,2.7,0,0,1,1.9-.1c2.4.8,2.9-1.4,5.2-.9a2.9,2.9,0,0,0,3.4-2.4,6.4,6.4,0,0,1,12-2.3A3.4,3.4,0,0,0,123,76l.9-.2a4.9,4.9,0,0,1,5.9,2.8,3.4,3.4,0,0,0,3.9,1.9,2.4,2.4,0,1,1,.7,4.8H115.7a2.1,2.1,0,1,0,0,4.1h18.7A6.6,6.6,0,0,0,141,82.6ZM94.6,12.3a1.1,1.1,0,0,1,2,0l9.2,18.3L98.5,38a.6.6,0,0,1-.7.1l-4.4-3.8a4.6,4.6,0,0,0-6.6.5l-2.3,3a.5.5,0,0,1-.7,0l-1.3-1.2C90.7,20.2,90.5,20.7,94.6,12.3ZM23.6,55l5.7,11.3-3,3L23,66.5a3.9,3.9,0,0,0-5-.2ZM8.5,85.3l6-12.1c3,.8,4.3-1.6,5.9-3.5l3.3,2.8a4,4,0,0,0,5.5-.2l2-2.1,7.6,15.1Zm45,0H43.4L29.5,57.5,46.4,23.7a.7.7,0,0,1,1.2,0,5.3,5.3,0,0,0,9.4,0L66.6,4.5a.6.6,0,0,1,1.1,0h0L80.8,30.7C79.7,33,55.8,80.8,53.5,85.3Zm71.6-13.8a6.3,6.3,0,0,0-1.9.3,10.8,10.8,0,0,0-9-5A10.5,10.5,0,0,0,104,74.7a7.1,7.1,0,0,0-4,1.1,5.7,5.7,0,0,0-2.9-.1,8.1,8.1,0,0,0-14.3,2.2,5.7,5.7,0,0,0-5.4,5.6h0a11,11,0,0,0,.2,1.8H58.1L80.6,40.5l.4.3h0a4.6,4.6,0,0,0,6.7-.4l2.4-3c.1-.2.4-.2.6,0l4.4,3.8a4.6,4.6,0,0,0,6.3-.3l6.3-6.4,18.5,37Z"/></svg>