<svg id="Layer_1" data-name="Layer 1" xmlns="http://www.w3.org/2000/svg" xmlns:xlink="http://www.w3.org/1999/xlink" viewBox="0 0 99.2 89.4"><defs><style>.cls-1,.cls-2,.cls-3{fill:#221c45;}.cls-1{clip-rule:evenodd;}.cls-3{fill-rule:evenodd;}.cls-4{clip-path:url(#clip-path);}.cls-5{clip-path:url(#clip-path-2);}.cls-6{clip-path:url(#clip-path-3);}.cls-7{clip-path:url(#clip-path-4);}.cls-8{clip-path:url(#clip-path-5);}.cls-9{clip-path:url(#clip-path-6);}.cls-10{clip-path:url(#clip-path-7);}.cls-11{clip-path:url(#clip-path-8);}.cls-12{clip-path:url(#clip-path-9);}.cls-13{clip-path:url(#clip-path-10);}.cls-14{clip-path:url(#clip-path-11);}.cls-15{clip-path:url(#clip-path-12);}.cls-16{clip-path:url(#clip-path-13);}.cls-17{clip-path:url(#clip-path-14);}.cls-18{clip-path:url(#clip-path-15);}.cls-19{clip-path:url(#clip-path-16);}.cls-20{clip-path:url(#clip-path-17);}.cls-21{clip-path:url(#clip-path-18);}.cls-22{clip-path:url(#clip-path-19);}.cls-23{clip-path:url(#clip-path-20);}.cls-24{clip-path:url(#clip-path-21);}.cls-25{clip-path:url(#clip-path-22);}.cls-26{clip-path:url(#clip-path-23);}</style><clipPath id="clip-path"><path class="cls-1" d="M-39.7-43.8h15.9v-10H-39.7Zm17.9,3.9H-41.7a2,2,0,0,1-2-2V-55.8a2,2,0,0,1,2-2h19.9a2,2,0,0,1,2,2v13.9A2,2,0,0,1-21.8-39.9Z"/></clipPath><clipPath id="clip-path-2"><path class="cls-1" d="M-49.6-43.8h35.8v-87.6H-49.6Zm37.8,3.9H-51.6a2,2,0,0,1-2-2v-91.5a1.9,1.9,0,0,1,2-1.9h39.8a1.9,1.9,0,0,1,2,1.9v91.5A2,2,0,0,1-11.8-39.9Z"/></clipPath><clipPath id="clip-path-3"><path class="cls-1" d="M-65.5-43.8h11.9v-79.6H-65.5Zm13.9,3.9H-67.5a2,2,0,0,1-2-2v-83.5a2,2,0,0,1,2-2h15.9a2,2,0,0,1,2,2v83.5A2,2,0,0,1-51.6-39.9Z"/></clipPath><clipPath id="clip-path-4"><path class="cls-1" d="M-9.8-43.8H2.1v-79.6H-9.8ZM4.1-39.9H-11.8a2,2,0,0,1-2-2v-83.5a2,2,0,0,1,2-2H4.1a2,2,0,0,1,2,2v83.5A2,2,0,0,1,4.1-39.9Z"/></clipPath><clipPath id="clip-path-5"><rect class="cls-2" x="-83.4" y="-83.6" width="4" height="19.89" transform="translate(26.4 -94.6) rotate(-53.1)"/></clipPath><clipPath id="clip-path-6"><rect class="cls-2" x="-91.4" y="-75.7" width="19.9" height="3.98" transform="translate(27.9 -63.6) rotate(-36.9)"/></clipPath><clipPath id="clip-path-7"><rect class="cls-2" x="16" y="-83.6" width="4" height="19.89" transform="translate(66.1 -15.1) rotate(-53.1)"/></clipPath><clipPath id="clip-path-8"><rect class="cls-2" x="8.1" y="-75.7" width="19.9" height="3.97" transform="translate(47.8 -3.9) rotate(-36.8)"/></clipPath><clipPath id="clip-path-9"><path class="cls-1" d="M-223.8-93.3a9.3,9.3,0,0,0-6.6-9,41.6,41.6,0,0,0-4.7-11.3,9.4,9.4,0,0,0-1.7-11.1,9.3,9.3,0,0,0-6.7-2.8,9.9,9.9,0,0,0-4.4,1.1,38.1,38.1,0,0,0-11.2-4.7,9.5,9.5,0,0,0-9-6.6,9.5,9.5,0,0,0-9.1,6.6,39.2,39.2,0,0,0-11.2,4.7,9.9,9.9,0,0,0-7.2-.7,1.4,1.4,0,0,0,.9,2.7,6.6,6.6,0,0,1,6.6,1.7,6.6,6.6,0,0,1,0,9.4,6.8,6.8,0,0,1-9.4,0,6.8,6.8,0,0,1-1.5-7.3c.7-1.6-1.9-2.7-2.6-1a10.1,10.1,0,0,0,.4,8,38.4,38.4,0,0,0-4.6,11.3,9.3,9.3,0,0,0-6.7,9,9.5,9.5,0,0,0,6.7,9A38.4,38.4,0,0,0-301.2-73a9.6,9.6,0,0,0,1.7,11.1,9.6,9.6,0,0,0,11.1,1.7c1.4.8,2.8,1.6,4.3,2.3l-4.3,11.6a3.4,3.4,0,0,0,3.1,4.4h34.4a3.3,3.3,0,0,0,3-4.4l-4.3-11.6c1.5-.7,2.9-1.5,4.3-2.3a9.9,9.9,0,0,0,4.4,1.1,9.3,9.3,0,0,0,2.9-.5,1.4,1.4,0,0,0-.8-2.7,6.4,6.4,0,0,1-6.7-1.6,6.6,6.6,0,0,1,0-9.4,6.5,6.5,0,0,1,9.3,0,6.6,6.6,0,0,1,1.5,7.2,1.4,1.4,0,0,0,2.6,1,9.1,9.1,0,0,0-.4-7.9,41.6,41.6,0,0,0,4.7-11.3A9.5,9.5,0,0,0-223.8-93.3Zm-2.8,0a6.6,6.6,0,0,1-6.6,6.6,6.6,6.6,0,0,1-6.7-6.6,6.7,6.7,0,0,1,6.7-6.7A6.7,6.7,0,0,1-226.6-93.3Zm-16-1.4h-11.8a13.4,13.4,0,0,0-3.1-7.3l8.4-8.4a9.5,9.5,0,0,0,7.5,1.6,31.2,31.2,0,0,1,3.1,7.6A9.9,9.9,0,0,0-242.6-94.7ZM-254.4-60l-4.3,1.4a6.7,6.7,0,0,0-.4-2.4,34.1,34.1,0,0,0,7.4-3.1,6.6,6.6,0,0,0,1.4,2A31.7,31.7,0,0,1-254.4-60ZM-286-62.1a9.5,9.5,0,0,0,1.5-2,33.4,33.4,0,0,0,7.3,3.1,10,10,0,0,0-.4,2.4A34,34,0,0,1-286-62.1Zm-13.3-13.3a33.1,33.1,0,0,1-3.5-8.5,9.9,9.9,0,0,0,2.4-.3,33.4,33.4,0,0,0,3.1,7.3A7.5,7.5,0,0,0-299.3-75.4Zm4.6-2.5a33.7,33.7,0,0,1-3.1-7.6,9.1,9.1,0,0,0,4.1-6.4h11.9a13.2,13.2,0,0,0,3,7.3l-8.4,8.4A9.5,9.5,0,0,0-294.7-77.9Zm25.2,10.2a9.5,9.5,0,0,0-6.5,4.1,29.2,29.2,0,0,1-7.5-3.2,9.7,9.7,0,0,0-1.7-7.5l8.4-8.3a14.1,14.1,0,0,0,7.3,3Zm1.4,2.7a6.7,6.7,0,0,1,6.6,6.6,6.7,6.7,0,0,1-6.6,6.7,6.7,6.7,0,0,1-6.7-6.7A6.7,6.7,0,0,1-268.1-65Zm15.4-1.8a29.9,29.9,0,0,1-7.6,3.2,9.1,9.1,0,0,0-6.4-4.1V-79.6a14.8,14.8,0,0,0,7.3-3l8.4,8.4A9,9,0,0,0-252.7-66.8Zm-15.4-15.5a11,11,0,0,1-11-11,11,11,0,0,1,11-11,10.9,10.9,0,0,1,10.9,11A11,11,0,0,1-268.1-82.3Zm-9.1-43.3a33,33,0,0,0-7.3,3,9.5,9.5,0,0,0-1.5-2,38.3,38.3,0,0,1,8.4-3.5A10.1,10.1,0,0,0-277.2-125.6Zm-6.3,5.7A29,29,0,0,1-276-123a9.9,9.9,0,0,0,6.5,4.1V-107a13.3,13.3,0,0,0-7.3,3l-8.4-8.4A9.6,9.6,0,0,0-283.5-119.9Zm31.8-2.7a33.8,33.8,0,0,0-7.4-3,6.9,6.9,0,0,0,.4-2.5,36.4,36.4,0,0,1,8.4,3.5A8.1,8.1,0,0,0-251.7-122.6Zm-8.6-.4a29.6,29.6,0,0,1,7.6,3.1,9.6,9.6,0,0,0,1.6,7.5l-8.4,8.4a13.3,13.3,0,0,0-7.2-3v-11.9A9.4,9.4,0,0,0-260.3-123Zm23.4,11.8a38.3,38.3,0,0,1,3.5,8.4,10.1,10.1,0,0,0-2.5.4,33,33,0,0,0-3-7.3A9.5,9.5,0,0,0-236.9-111.2Zm-1.9-11.5a6.6,6.6,0,0,1,0,9.4,6.7,6.7,0,0,1-9.3,0,6.6,6.6,0,0,1,0-9.4A6.5,6.5,0,0,1-238.8-122.7Zm-29.3-12.2a6.7,6.7,0,0,1,6.6,6.6,6.7,6.7,0,0,1-6.6,6.7,6.7,6.7,0,0,1-6.7-6.7c0-.4.1-.8.1-1.2a.4.4,0,0,0,.1-.3A6.7,6.7,0,0,1-268.1-134.9Zm-19.1,24.5,8.4,8.4a12.6,12.6,0,0,0-3,7.3h-11.9a9.5,9.5,0,0,0-4.1-6.5,35.7,35.7,0,0,1,3.1-7.6A9.5,9.5,0,0,0-287.2-110.4Zm-10.1.7a33.4,33.4,0,0,0-3.1,7.3,10,10,0,0,0-2.4-.4,34,34,0,0,1,3.5-8.4A7.5,7.5,0,0,0-297.3-109.7Zm-12.4,16.4A6.8,6.8,0,0,1-303-100a6.7,6.7,0,0,1,6.6,6.7,6.6,6.6,0,0,1-6.6,6.6A6.6,6.6,0,0,1-309.7-93.3Zm16.9,31.4a6.3,6.3,0,0,1-4.7-2,6.6,6.6,0,0,1,0-9.4,6.6,6.6,0,0,1,9.4,0,6.6,6.6,0,0,1,0,9.4A6.9,6.9,0,0,1-292.8-61.9Zm42.3,16.5c0,.4-.1.6-.4.6h-34.4c-.4,0-.5-.2-.4-.6l4.2-11.5a23.5,23.5,0,0,0,4.3,1.3,9.5,9.5,0,0,0,9.1,6.7,9.5,9.5,0,0,0,9-6.7,21.3,21.3,0,0,0,4.3-1.3Zm1.4-30.8-8.4-8.4a14.1,14.1,0,0,0,3.1-7.3h11.8a9.4,9.4,0,0,0,4.1,6.4,29.6,29.6,0,0,1-3.1,7.6l-1.9-.2A9.7,9.7,0,0,0-249.1-76.2Zm10.2-.7a33,33,0,0,0,3-7.3,10.1,10.1,0,0,0,2.5.3,37.1,37.1,0,0,1-3.5,8.5A9.5,9.5,0,0,0-238.9-76.9Z"/></clipPath><clipPath id="clip-path-10"><path class="cls-2" d="M-544.7-39.4h-74.5a2.6,2.6,0,0,1-2.6-2.6v-5.4a2.6,2.6,0,0,1,2.6-2.6h28.5a8.3,8.3,0,0,1-.6-2.1,6.7,6.7,0,0,1,1.4-5.3l.9-1.1a7,7,0,0,0,1.4-5.6l-.3-2.4h-11.3a6.1,6.1,0,0,1-5.9-6.2,1.1,1.1,0,0,0-.3-.8l-2.4-1.6a2.8,2.8,0,0,1-1-2.9,2.4,2.4,0,0,1,2.4-1.9h19.3v-2.9h-6.4a6,6,0,0,1-5.9-6.2,1.2,1.2,0,0,0-.4-.8l-2.4-1.6a2.8,2.8,0,0,1-1-2.9,2.6,2.6,0,0,1,2.5-1.9h13.6v-1.5a10.3,10.3,0,0,0-5.7-9.3l-.7-.3v-2.5h23.1v2.5l-.7.3a10.3,10.3,0,0,0-5.7,9.3v1.5h13.6a2.8,2.8,0,0,1,2.5,1.9,2.7,2.7,0,0,1-1,2.9l-2.4,1.6a.9.9,0,0,0-.4.8,6,6,0,0,1-5.9,6.2h-6.4v2.9h19.3a2.6,2.6,0,0,1,2.4,1.9,2.8,2.8,0,0,1-1,2.9l-2.4,1.6a1.1,1.1,0,0,0-.3.8,6.1,6.1,0,0,1-5.9,6.2H-576l-.4,2.4a7.5,7.5,0,0,0,1.5,5.6l.9,1.1a6.7,6.7,0,0,1,1.4,5.3,8.3,8.3,0,0,1-.6,2.1h28.5a2.6,2.6,0,0,1,2.6,2.6V-42A2.6,2.6,0,0,1-544.7-39.4Zm-74.5-8.1a.1.1,0,0,0-.1.1V-42a.1.1,0,0,0,.1.1h74.5a.1.1,0,0,0,.1-.1v-5.4a.1.1,0,0,0-.1-.1h-35l3.1-2.3a4.4,4.4,0,0,0,1.6-2.7,4.7,4.7,0,0,0-.9-3.3l-.9-1.2a9.1,9.1,0,0,1-2-7.5l.7-4.5h13.4a3.6,3.6,0,0,0,3.4-3.7,3.4,3.4,0,0,1,1.4-2.8l2.4-1.7h-21.8v-7.9h8.9A3.6,3.6,0,0,0-567-89a3.2,3.2,0,0,1,1.5-2.8l2.3-1.7h-16.1v-4a12.8,12.8,0,0,1,4.2-9.6h-13.7a12.8,12.8,0,0,1,4.2,9.6v4h-16.1c-.1.1-.1.2,0,.2l2.3,1.7a3.5,3.5,0,0,1,1.5,2.8,3.6,3.6,0,0,0,3.4,3.7h8.9v7.9h-21.8v.2l2.4,1.7a3.4,3.4,0,0,1,1.4,2.8,3.6,3.6,0,0,0,3.4,3.7h13.4l.7,4.5a9.6,9.6,0,0,1-2,7.5l-.9,1.2a4.3,4.3,0,0,0-.9,3.3,4.4,4.4,0,0,0,1.6,2.7l3.1,2.3Z"/></clipPath><clipPath id="clip-path-11"><path class="cls-1" d="M-614.3-80.6a2.7,2.7,0,0,1,2.8-2.8,5.7,5.7,0,0,0,5.6-5.7v-7a2.8,2.8,0,0,1,2.8-2.8h8.5v-2.8h-8.5a5.6,5.6,0,0,0-5.6,5.6v7a2.9,2.9,0,0,1-2.8,2.9,5.7,5.7,0,0,0-5.7,5.6v19.7h2.9Z"/></clipPath><clipPath id="clip-path-12"><path class="cls-2" d="M-582-112.2a2.1,2.1,0,0,1-1.8-1.1l-3.2-5.3a2.1,2.1,0,0,1,.3-2.6l3.2-3.2a2.3,2.3,0,0,1,3.1,0l3.2,3.2a2.1,2.1,0,0,1,.3,2.6l-3.2,5.3A2.1,2.1,0,0,1-582-112.2Zm.1-2.2Zm-.1-8.5-3.1,3.2,3.1,5.3,3.2-5.3Z"/></clipPath><clipPath id="clip-path-13"><path class="cls-1" d="M-569.3-101.7v2.8h8.5a2.8,2.8,0,0,1,2.8,2.8v7a5.7,5.7,0,0,0,5.6,5.7,2.7,2.7,0,0,1,2.8,2.8v19.7h2.8V-80.6a5.6,5.6,0,0,0-5.6-5.6,2.9,2.9,0,0,1-2.8-2.9v-7a5.6,5.6,0,0,0-5.6-5.6Z"/></clipPath><clipPath id="clip-path-14"><path class="cls-1" d="M-563.6-111.6h2.8a8.5,8.5,0,0,0-8.5-8.4h-2.8v2.8h2.8a5.7,5.7,0,0,1,5.7,5.6"/></clipPath><clipPath id="clip-path-15"><path class="cls-1" d="M-594.6-117.2h2.8V-120h-2.8a8.5,8.5,0,0,0-8.5,8.4h2.8a5.7,5.7,0,0,1,5.7-5.6"/></clipPath><clipPath id="clip-path-16"><path class="cls-1" d="M-114.8-52.7a4.4,4.4,0,0,1-3.1,1.3,4.4,4.4,0,0,1-3.1-1.3,7.7,7.7,0,0,0-5-1.9,7.8,7.8,0,0,0-5.1,1.9,4.4,4.4,0,0,1-3.1,1.3,4.6,4.6,0,0,1-3.1-1.3,7.5,7.5,0,0,0-5-1.9,7.5,7.5,0,0,0-5,1.9,4.9,4.9,0,0,1-3.2,1.3,4.8,4.8,0,0,1-1.8-.4V-94h22.1v3.2h3.1V-94h1.6a3.2,3.2,0,0,0,3.2-3.1v-3.2a3.2,3.2,0,0,0-3.2-3.1h-.1a29.9,29.9,0,0,0-28.2-28.3v-1.6a4.9,4.9,0,0,0-4.8-4.8,4.8,4.8,0,0,0-4.7,4.8v1.6a29.9,29.9,0,0,0-28.2,28.3h-.1a3.1,3.1,0,0,0-3.2,3.1v3.2a3.1,3.1,0,0,0,3.2,3.1h1.5v3.2h3.2V-94h22v42.1a3.2,3.2,0,0,1-1.8.5,4.4,4.4,0,0,1-3.1-1.3,7.8,7.8,0,0,0-5.1-1.9,7.7,7.7,0,0,0-5,1.9,4.4,4.4,0,0,1-3.1,1.3,4.4,4.4,0,0,1-3.1-1.3,7.5,7.5,0,0,0-5-1.9,7.5,7.5,0,0,0-5,1.9,4.9,4.9,0,0,1-3.1,1.3,4.4,4.4,0,0,1-3.1-1.3,7.8,7.8,0,0,0-5.1-1.9v3.2a4.4,4.4,0,0,1,3.1,1.2,7.8,7.8,0,0,0,5.1,1.9,7.7,7.7,0,0,0,5-1.9,4.4,4.4,0,0,1,3.1-1.2,4.4,4.4,0,0,1,3.1,1.2,7.5,7.5,0,0,0,5,1.9,7.5,7.5,0,0,0,5-1.9,4.8,4.8,0,0,1,3.1-1.2,4.4,4.4,0,0,1,3.1,1.2,7.8,7.8,0,0,0,5.1,1.9,7.5,7.5,0,0,0,5-1.9,4.4,4.4,0,0,1,3.1-1.2,4.4,4.4,0,0,1,3.1,1.2,7.7,7.7,0,0,0,5,1.9,7.8,7.8,0,0,0,5.1-1.9,4.4,4.4,0,0,1,3.1-1.2,4.4,4.4,0,0,1,3.1,1.2,7.5,7.5,0,0,0,5,1.9,7.8,7.8,0,0,0,5.1-1.9,4.4,4.4,0,0,1,3.1-1.2,4.6,4.6,0,0,1,3.1,1.2,7.5,7.5,0,0,0,5,1.9,7.5,7.5,0,0,0,5-1.9,4.8,4.8,0,0,1,3.2-1.2v-3.2A7.8,7.8,0,0,0-114.8-52.7Zm-43.8-82.2a1.6,1.6,0,0,1,1.6,1.6v1.5h-3.1v-1.5A1.6,1.6,0,0,1-158.6-134.9Zm-4.3,6.4a35.5,35.5,0,0,0-8.3,11.9l2.9,1.2a33.8,33.8,0,0,1,9.7-12.8A33.7,33.7,0,0,1-146-103.4h-25.1a34,34,0,0,1,1.6-9l-3-.9a36.7,36.7,0,0,0-1.7,9.9h-14.2A26.7,26.7,0,0,1-162.9-128.5Zm-28.7,28.2h53.5v-3.1h-4.8a36.6,36.6,0,0,0-11.3-25.1,26.7,26.7,0,0,1,25.5,25.1h-6.2v3.1h9.4v3.2h-66.1Zm33,45.7a6.8,6.8,0,0,0-3.1.7V-94h6.3v40.1A6.9,6.9,0,0,0-158.6-54.6Z"/></clipPath><clipPath id="clip-path-17"><path class="cls-1" d="M-117.9-43.6a4.4,4.4,0,0,1-3.1-1.2,7.2,7.2,0,0,0-5-1.9,7.3,7.3,0,0,0-5.1,1.9,4.4,4.4,0,0,1-3.1,1.2,4.6,4.6,0,0,1-3.1-1.2,7,7,0,0,0-5-1.9,6.9,6.9,0,0,0-5,1.9,4.8,4.8,0,0,1-3.2,1.2,4.8,4.8,0,0,1-3.1-1.2,6.9,6.9,0,0,0-5-1.9,7,7,0,0,0-5,1.9,4.4,4.4,0,0,1-3.1,1.2,4.4,4.4,0,0,1-3.1-1.2,7.3,7.3,0,0,0-5.1-1.9,7.2,7.2,0,0,0-5,1.9,4.4,4.4,0,0,1-3.1,1.2,4.6,4.6,0,0,1-3.1-1.2,7,7,0,0,0-5-1.9,7,7,0,0,0-5,1.9,4.6,4.6,0,0,1-3.1,1.2,4.4,4.4,0,0,1-3.1-1.2,7.3,7.3,0,0,0-5.1-1.9v3.1a4.1,4.1,0,0,1,3.1,1.3,7.8,7.8,0,0,0,5.1,1.9,7.7,7.7,0,0,0,5-1.9,4.1,4.1,0,0,1,3.1-1.3,4.1,4.1,0,0,1,3.1,1.3,7.5,7.5,0,0,0,5,1.9,7.5,7.5,0,0,0,5-1.9,4.4,4.4,0,0,1,3.1-1.3,4.1,4.1,0,0,1,3.1,1.3,7.8,7.8,0,0,0,5.1,1.9,7.5,7.5,0,0,0,5-1.9,4.1,4.1,0,0,1,3.1-1.3,4.1,4.1,0,0,1,3.1,1.3,7.7,7.7,0,0,0,5,1.9,7.8,7.8,0,0,0,5.1-1.9,4.1,4.1,0,0,1,3.1-1.3,4.1,4.1,0,0,1,3.1,1.3,7.5,7.5,0,0,0,5,1.9,7.8,7.8,0,0,0,5.1-1.9,4.1,4.1,0,0,1,3.1-1.3,4.2,4.2,0,0,1,3.1,1.3,7.5,7.5,0,0,0,5,1.9,7.5,7.5,0,0,0,5-1.9,4.3,4.3,0,0,1,3.2-1.3v-3.1a7.3,7.3,0,0,0-5.1,1.9,4.4,4.4,0,0,1-3.1,1.2"/></clipPath><clipPath id="clip-path-18"><path class="cls-1" d="M-149.1-62.5a4.8,4.8,0,0,0,4.7,4.8,4.8,4.8,0,0,0,4.7-4.8v-3.1h-3.1v3.1a1.6,1.6,0,0,1-1.6,1.6,1.6,1.6,0,0,1-1.6-1.6v-22h-3.1Z"/></clipPath><clipPath id="clip-path-19"><path class="cls-1" d="M-127.1-73.5v-7.9h-3.1v7.9a1.6,1.6,0,0,1-1.6,1.6,1.6,1.6,0,0,1-1.6-1.6V-86.1a4.7,4.7,0,0,0-4.7-4.7,4.7,4.7,0,0,0-4.7,4.7v4.7h3.1v-4.7a1.6,1.6,0,0,1,1.6-1.6,1.6,1.6,0,0,1,1.6,1.6v12.6a4.7,4.7,0,0,0,4.7,4.7,4.7,4.7,0,0,0,4.7-4.7"/></clipPath><clipPath id="clip-path-20"><path class="cls-1" d="M-171.2-62.5a1.6,1.6,0,0,1-1.5,1.6,1.6,1.6,0,0,1-1.6-1.6v-3.1h-3.2v3.1a4.9,4.9,0,0,0,4.8,4.8,4.8,4.8,0,0,0,4.7-4.8v-22h-3.2Z"/></clipPath><clipPath id="clip-path-21"><path class="cls-1" d="M-190-73.5a4.7,4.7,0,0,0,4.7,4.7,4.7,4.7,0,0,0,4.7-4.7V-86.1a1.6,1.6,0,0,1,1.6-1.6,1.6,1.6,0,0,1,1.5,1.6v4.7h3.2v-4.7a4.7,4.7,0,0,0-4.7-4.7,4.8,4.8,0,0,0-4.8,4.7v12.6a1.6,1.6,0,0,1-1.5,1.6,1.6,1.6,0,0,1-1.6-1.6v-7.9H-190Z"/></clipPath><clipPath id="clip-path-22"><path class="cls-1" d="M-199.5-62.5a17.7,17.7,0,0,1,5.6.9l5,1.7-2.7-6.6a8.4,8.4,0,0,0-7.9-5.4,4.7,4.7,0,0,0-4.7,4.7,4.7,4.7,0,0,0,4.7,4.7m0-6.3a5.4,5.4,0,0,1,5,3.4l.2.4a22.4,22.4,0,0,0-5.2-.6,1.6,1.6,0,0,1-1.6-1.6,1.6,1.6,0,0,1,1.6-1.6"/></clipPath><clipPath id="clip-path-23"><path class="cls-1" d="M-125.6-66.5l-2.6,6.6,4.9-1.7a18.8,18.8,0,0,1,5.7-.9,4.7,4.7,0,0,0,4.7-4.7,4.7,4.7,0,0,0-4.7-4.7A8.6,8.6,0,0,0-125.6-66.5Zm3,1.1a5.4,5.4,0,0,1,5-3.4,1.6,1.6,0,0,1,1.6,1.6,1.6,1.6,0,0,1-1.6,1.6,22.4,22.4,0,0,0-5.2.6Z"/></clipPath></defs><path class="cls-3" d="M-39.7-43.8h15.9v-10H-39.7Zm17.9,3.9H-41.7a2,2,0,0,1-2-2V-55.8a2,2,0,0,1,2-2h19.9a2,2,0,0,1,2,2v13.9A2,2,0,0,1-21.8-39.9Z"/><g class="cls-4"><rect class="cls-2" x="-1308.2" y="-3836.5" width="5804" height="4970.61"/></g><path class="cls-3" d="M-49.6-43.8h35.8v-87.6H-49.6Zm37.8,3.9H-51.6a2,2,0,0,1-2-2v-91.5a1.9,1.9,0,0,1,2-1.9h39.8a1.9,1.9,0,0,1,2,1.9v91.5A2,2,0,0,1-11.8-39.9Z"/><g class="cls-5"><rect class="cls-2" x="-1308.2" y="-3836.5" width="5804" height="4964.66"/></g><path class="cls-3" d="M-65.5-43.8h11.9v-79.6H-65.5Zm13.9,3.9H-67.5a2,2,0,0,1-2-2v-83.5a2,2,0,0,1,2-2h15.9a2,2,0,0,1,2,2v83.5A2,2,0,0,1-51.6-39.9Z"/><g class="cls-6"><rect class="cls-2" x="-1308.2" y="-3836.5" width="5804" height="4964.66"/></g><path class="cls-3" d="M-9.8-43.8H2.1v-79.6H-9.8ZM4.1-39.9H-11.8a2,2,0,0,1-2-2v-83.5a2,2,0,0,1,2-2H4.1a2,2,0,0,1,2,2v83.5A2,2,0,0,1,4.1-39.9Z"/><g class="cls-7"><rect class="cls-2" x="-1308.2" y="-3836.5" width="5804" height="4964.66"/></g><rect class="cls-2" x="-83.4" y="-83.6" width="4" height="19.89" transform="translate(26.4 -94.6) rotate(-53.1)"/><g class="cls-8"><rect class="cls-2" x="-1308.2" y="-3836.5" width="5804" height="4964.66"/></g><rect class="cls-2" x="-91.4" y="-75.7" width="19.9" height="3.98" transform="translate(27.9 -63.6) rotate(-36.9)"/><g class="cls-9"><rect class="cls-2" x="-1308.2" y="-3836.5" width="5804" height="4964.66"/></g><rect class="cls-2" x="16" y="-83.6" width="4" height="19.89" transform="translate(66.1 -15.1) rotate(-53.1)"/><g class="cls-10"><rect class="cls-2" x="-1308.2" y="-3836.5" width="5804" height="4964.66"/></g><rect class="cls-2" x="8.1" y="-75.7" width="19.9" height="3.97" transform="translate(47.8 -3.9) rotate(-36.8)"/><g class="cls-11"><rect class="cls-2" x="-1308.2" y="-3836.5" width="5804" height="4964.66"/></g><path class="cls-3" d="M-223.8-93.3a9.3,9.3,0,0,0-6.6-9,41.6,41.6,0,0,0-4.7-11.3,9.4,9.4,0,0,0-1.7-11.1,9.3,9.3,0,0,0-6.7-2.8,9.9,9.9,0,0,0-4.4,1.1,38.1,38.1,0,0,0-11.2-4.7,9.5,9.5,0,0,0-9-6.6,9.5,9.5,0,0,0-9.1,6.6,39.2,39.2,0,0,0-11.2,4.7,9.9,9.9,0,0,0-7.2-.7,1.4,1.4,0,0,0,.9,2.7,6.6,6.6,0,0,1,6.6,1.7,6.6,6.6,0,0,1,0,9.4,6.8,6.8,0,0,1-9.4,0,6.8,6.8,0,0,1-1.5-7.3c.7-1.6-1.9-2.7-2.6-1a10.1,10.1,0,0,0,.4,8,38.4,38.4,0,0,0-4.6,11.3,9.3,9.3,0,0,0-6.7,9,9.5,9.5,0,0,0,6.7,9A38.4,38.4,0,0,0-301.2-73a9.6,9.6,0,0,0,1.7,11.1,9.6,9.6,0,0,0,11.1,1.7c1.4.8,2.8,1.6,4.3,2.3l-4.3,11.6a3.4,3.4,0,0,0,3.1,4.4h34.4a3.3,3.3,0,0,0,3-4.4l-4.3-11.6c1.5-.7,2.9-1.5,4.3-2.3a9.9,9.9,0,0,0,4.4,1.1,9.3,9.3,0,0,0,2.9-.5,1.4,1.4,0,0,0-.8-2.7,6.4,6.4,0,0,1-6.7-1.6,6.6,6.6,0,0,1,0-9.4,6.5,6.5,0,0,1,9.3,0,6.6,6.6,0,0,1,1.5,7.2,1.4,1.4,0,0,0,2.6,1,9.1,9.1,0,0,0-.4-7.9,41.6,41.6,0,0,0,4.7-11.3A9.5,9.5,0,0,0-223.8-93.3Zm-2.8,0a6.6,6.6,0,0,1-6.6,6.6,6.6,6.6,0,0,1-6.7-6.6,6.7,6.7,0,0,1,6.7-6.7A6.7,6.7,0,0,1-226.6-93.3Zm-16-1.4h-11.8a13.4,13.4,0,0,0-3.1-7.3l8.4-8.4a9.5,9.5,0,0,0,7.5,1.6,31.2,31.2,0,0,1,3.1,7.6A9.9,9.9,0,0,0-242.6-94.7ZM-254.4-60l-4.3,1.4a6.7,6.7,0,0,0-.4-2.4,34.1,34.1,0,0,0,7.4-3.1,6.6,6.6,0,0,0,1.4,2A31.7,31.7,0,0,1-254.4-60ZM-286-62.1a9.5,9.5,0,0,0,1.5-2,33.4,33.4,0,0,0,7.3,3.1,10,10,0,0,0-.4,2.4A34,34,0,0,1-286-62.1Zm-13.3-13.3a33.1,33.1,0,0,1-3.5-8.5,9.9,9.9,0,0,0,2.4-.3,33.4,33.4,0,0,0,3.1,7.3A7.5,7.5,0,0,0-299.3-75.4Zm4.6-2.5a33.7,33.7,0,0,1-3.1-7.6,9.1,9.1,0,0,0,4.1-6.4h11.9a13.2,13.2,0,0,0,3,7.3l-8.4,8.4A9.5,9.5,0,0,0-294.7-77.9Zm25.2,10.2a9.5,9.5,0,0,0-6.5,4.1,29.2,29.2,0,0,1-7.5-3.2,9.7,9.7,0,0,0-1.7-7.5l8.4-8.3a14.1,14.1,0,0,0,7.3,3Zm1.4,2.7a6.7,6.7,0,0,1,6.6,6.6,6.7,6.7,0,0,1-6.6,6.7,6.7,6.7,0,0,1-6.7-6.7A6.7,6.7,0,0,1-268.1-65Zm15.4-1.8a29.9,29.9,0,0,1-7.6,3.2,9.1,9.1,0,0,0-6.4-4.1V-79.6a14.8,14.8,0,0,0,7.3-3l8.4,8.4A9,9,0,0,0-252.7-66.8Zm-15.4-15.5a11,11,0,0,1-11-11,11,11,0,0,1,11-11,10.9,10.9,0,0,1,10.9,11A11,11,0,0,1-268.1-82.3Zm-9.1-43.3a33,33,0,0,0-7.3,3,9.5,9.5,0,0,0-1.5-2,38.3,38.3,0,0,1,8.4-3.5A10.1,10.1,0,0,0-277.2-125.6Zm-6.3,5.7A29,29,0,0,1-276-123a9.9,9.9,0,0,0,6.5,4.1V-107a13.3,13.3,0,0,0-7.3,3l-8.4-8.4A9.6,9.6,0,0,0-283.5-119.9Zm31.8-2.7a33.8,33.8,0,0,0-7.4-3,6.9,6.9,0,0,0,.4-2.5,36.4,36.4,0,0,1,8.4,3.5A8.1,8.1,0,0,0-251.7-122.6Zm-8.6-.4a29.6,29.6,0,0,1,7.6,3.1,9.6,9.6,0,0,0,1.6,7.5l-8.4,8.4a13.3,13.3,0,0,0-7.2-3v-11.9A9.4,9.4,0,0,0-260.3-123Zm23.4,11.8a38.3,38.3,0,0,1,3.5,8.4,10.1,10.1,0,0,0-2.5.4,33,33,0,0,0-3-7.3A9.5,9.5,0,0,0-236.9-111.2Zm-1.9-11.5a6.6,6.6,0,0,1,0,9.4,6.7,6.7,0,0,1-9.3,0,6.6,6.6,0,0,1,0-9.4A6.5,6.5,0,0,1-238.8-122.7Zm-29.3-12.2a6.7,6.7,0,0,1,6.6,6.6,6.7,6.7,0,0,1-6.6,6.7,6.7,6.7,0,0,1-6.7-6.7c0-.4.1-.8.1-1.2a.4.4,0,0,0,.1-.3A6.7,6.7,0,0,1-268.1-134.9Zm-19.1,24.5,8.4,8.4a12.6,12.6,0,0,0-3,7.3h-11.9a9.5,9.5,0,0,0-4.1-6.5,35.7,35.7,0,0,1,3.1-7.6A9.5,9.5,0,0,0-287.2-110.4Zm-10.1.7a33.4,33.4,0,0,0-3.1,7.3,10,10,0,0,0-2.4-.4,34,34,0,0,1,3.5-8.4A7.5,7.5,0,0,0-297.3-109.7Zm-12.4,16.4A6.8,6.8,0,0,1-303-100a6.7,6.7,0,0,1,6.6,6.7,6.6,6.6,0,0,1-6.6,6.6A6.6,6.6,0,0,1-309.7-93.3Zm16.9,31.4a6.3,6.3,0,0,1-4.7-2,6.6,6.6,0,0,1,0-9.4,6.6,6.6,0,0,1,9.4,0,6.6,6.6,0,0,1,0,9.4A6.9,6.9,0,0,1-292.8-61.9Zm42.3,16.5c0,.4-.1.6-.4.6h-34.4c-.4,0-.5-.2-.4-.6l4.2-11.5a23.5,23.5,0,0,0,4.3,1.3,9.5,9.5,0,0,0,9.1,6.7,9.5,9.5,0,0,0,9-6.7,21.3,21.3,0,0,0,4.3-1.3Zm1.4-30.8-8.4-8.4a14.1,14.1,0,0,0,3.1-7.3h11.8a9.4,9.4,0,0,0,4.1,6.4,29.6,29.6,0,0,1-3.1,7.6l-1.9-.2A9.7,9.7,0,0,0-249.1-76.2Zm10.2-.7a33,33,0,0,0,3-7.3,10.1,10.1,0,0,0,2.5.3,37.1,37.1,0,0,1-3.5,8.5A9.5,9.5,0,0,0-238.9-76.9Z"/><g class="cls-12"><rect class="cls-2" x="-4832.5" y="-2353.1" width="5391.4" height="4611.73"/></g><path class="cls-2" d="M-544.7-39.4h-74.5a2.6,2.6,0,0,1-2.6-2.6v-5.4a2.6,2.6,0,0,1,2.6-2.6h28.5a8.3,8.3,0,0,1-.6-2.1,6.7,6.7,0,0,1,1.4-5.3l.9-1.1a7,7,0,0,0,1.4-5.6l-.3-2.4h-11.3a6.1,6.1,0,0,1-5.9-6.2,1.1,1.1,0,0,0-.3-.8l-2.4-1.6a2.8,2.8,0,0,1-1-2.9,2.4,2.4,0,0,1,2.4-1.9h19.3v-2.9h-6.4a6,6,0,0,1-5.9-6.2,1.2,1.2,0,0,0-.4-.8l-2.4-1.6a2.8,2.8,0,0,1-1-2.9,2.6,2.6,0,0,1,2.5-1.9h13.6v-1.5a10.3,10.3,0,0,0-5.7-9.3l-.7-.3v-2.5h23.1v2.5l-.7.3a10.3,10.3,0,0,0-5.7,9.3v1.5h13.6a2.8,2.8,0,0,1,2.5,1.9,2.7,2.7,0,0,1-1,2.9l-2.4,1.6a.9.9,0,0,0-.4.8,6,6,0,0,1-5.9,6.2h-6.4v2.9h19.3a2.6,2.6,0,0,1,2.4,1.9,2.8,2.8,0,0,1-1,2.9l-2.4,1.6a1.1,1.1,0,0,0-.3.8,6.1,6.1,0,0,1-5.9,6.2H-576l-.4,2.4a7.5,7.5,0,0,0,1.5,5.6l.9,1.1a6.7,6.7,0,0,1,1.4,5.3,8.3,8.3,0,0,1-.6,2.1h28.5a2.6,2.6,0,0,1,2.6,2.6V-42A2.6,2.6,0,0,1-544.7-39.4Zm-74.5-8.1a.1.1,0,0,0-.1.1V-42a.1.1,0,0,0,.1.1h74.5a.1.1,0,0,0,.1-.1v-5.4a.1.1,0,0,0-.1-.1h-35l3.1-2.3a4.4,4.4,0,0,0,1.6-2.7,4.7,4.7,0,0,0-.9-3.3l-.9-1.2a9.1,9.1,0,0,1-2-7.5l.7-4.5h13.4a3.6,3.6,0,0,0,3.4-3.7,3.4,3.4,0,0,1,1.4-2.8l2.4-1.7h-21.8v-7.9h8.9A3.6,3.6,0,0,0-567-89a3.2,3.2,0,0,1,1.5-2.8l2.3-1.7h-16.1v-4a12.8,12.8,0,0,1,4.2-9.6h-13.7a12.8,12.8,0,0,1,4.2,9.6v4h-16.1c-.1.1-.1.2,0,.2l2.3,1.7a3.5,3.5,0,0,1,1.5,2.8,3.6,3.6,0,0,0,3.4,3.7h8.9v7.9h-21.8v.2l2.4,1.7a3.4,3.4,0,0,1,1.4,2.8,3.6,3.6,0,0,0,3.4,3.7h13.4l.7,4.5a9.6,9.6,0,0,1-2,7.5l-.9,1.2a4.3,4.3,0,0,0-.9,3.3,4.4,4.4,0,0,0,1.6,2.7l3.1,2.3Z"/><g class="cls-13"><path class="cls-2" d="M1841,1744.5H-3036.4V-2661.8H1841Zm-4874.4-3H1838V-2658.8H-3033.4Z"/></g><path class="cls-3" d="M-614.3-80.6a2.7,2.7,0,0,1,2.8-2.8,5.7,5.7,0,0,0,5.6-5.7v-7a2.8,2.8,0,0,1,2.8-2.8h8.5v-2.8h-8.5a5.6,5.6,0,0,0-5.6,5.6v7a2.9,2.9,0,0,1-2.8,2.9,5.7,5.7,0,0,0-5.7,5.6v19.7h2.9Z"/><g class="cls-14"><rect class="cls-2" x="-3268.2" y="-2757.7" width="5338" height="4566.05"/></g><path class="cls-2" d="M-582-112.2a2.1,2.1,0,0,1-1.8-1.1l-3.2-5.3a2.1,2.1,0,0,1,.3-2.6l3.2-3.2a2.3,2.3,0,0,1,3.1,0l3.2,3.2a2.1,2.1,0,0,1,.3,2.6l-3.2,5.3A2.1,2.1,0,0,1-582-112.2Zm.1-2.2Zm-.1-8.5-3.1,3.2,3.1,5.3,3.2-5.3Z"/><g class="cls-15"><path class="cls-2" d="M1425.2,1340.2H-2615.2V-2116.1H1425.2ZM-2613,1338H1423V-2113.9H-2613Z"/></g><path class="cls-3" d="M-569.3-101.7v2.8h8.5a2.8,2.8,0,0,1,2.8,2.8v7a5.7,5.7,0,0,0,5.6,5.7,2.7,2.7,0,0,1,2.8,2.8v19.7h2.8V-80.6a5.6,5.6,0,0,0-5.6-5.6,2.9,2.9,0,0,1-2.8-2.9v-7a5.6,5.6,0,0,0-5.6-5.6Z"/><g class="cls-16"><rect class="cls-2" x="-3268.2" y="-2757.7" width="5338" height="4566.05"/></g><path class="cls-3" d="M-563.6-111.6h2.8a8.5,8.5,0,0,0-8.5-8.4h-2.8v2.8h2.8a5.7,5.7,0,0,1,5.7,5.6"/><g class="cls-17"><rect class="cls-2" x="-3268.2" y="-2757.7" width="5338" height="4566.05"/></g><path class="cls-3" d="M-594.6-117.2h2.8V-120h-2.8a8.5,8.5,0,0,0-8.5,8.4h2.8a5.7,5.7,0,0,1,5.7-5.6"/><g class="cls-18"><rect class="cls-2" x="-3268.2" y="-2757.7" width="5338" height="4566.05"/></g><path class="cls-3" d="M-114.8-52.7a4.4,4.4,0,0,1-3.1,1.3,4.4,4.4,0,0,1-3.1-1.3,7.7,7.7,0,0,0-5-1.9,7.8,7.8,0,0,0-5.1,1.9,4.4,4.4,0,0,1-3.1,1.3,4.6,4.6,0,0,1-3.1-1.3,7.5,7.5,0,0,0-5-1.9,7.5,7.5,0,0,0-5,1.9,4.9,4.9,0,0,1-3.2,1.3,4.8,4.8,0,0,1-1.8-.4V-94h22.1v3.2h3.1V-94h1.6a3.2,3.2,0,0,0,3.2-3.1v-3.2a3.2,3.2,0,0,0-3.2-3.1h-.1a29.9,29.9,0,0,0-28.2-28.3v-1.6a4.9,4.9,0,0,0-4.8-4.8,4.8,4.8,0,0,0-4.7,4.8v1.6a29.9,29.9,0,0,0-28.2,28.3h-.1a3.1,3.1,0,0,0-3.2,3.1v3.2a3.1,3.1,0,0,0,3.2,3.1h1.5v3.2h3.2V-94h22v42.1a3.2,3.2,0,0,1-1.8.5,4.4,4.4,0,0,1-3.1-1.3,7.8,7.8,0,0,0-5.1-1.9,7.7,7.7,0,0,0-5,1.9,4.4,4.4,0,0,1-3.1,1.3,4.4,4.4,0,0,1-3.1-1.3,7.5,7.5,0,0,0-5-1.9,7.5,7.5,0,0,0-5,1.9,4.9,4.9,0,0,1-3.1,1.3,4.4,4.4,0,0,1-3.1-1.3,7.8,7.8,0,0,0-5.1-1.9v3.2a4.4,4.4,0,0,1,3.1,1.2,7.8,7.8,0,0,0,5.1,1.9,7.7,7.7,0,0,0,5-1.9,4.4,4.4,0,0,1,3.1-1.2,4.4,4.4,0,0,1,3.1,1.2,7.5,7.5,0,0,0,5,1.9,7.5,7.5,0,0,0,5-1.9,4.8,4.8,0,0,1,3.1-1.2,4.4,4.4,0,0,1,3.1,1.2,7.8,7.8,0,0,0,5.1,1.9,7.5,7.5,0,0,0,5-1.9,4.4,4.4,0,0,1,3.1-1.2,4.4,4.4,0,0,1,3.1,1.2,7.7,7.7,0,0,0,5,1.9,7.8,7.8,0,0,0,5.1-1.9,4.4,4.4,0,0,1,3.1-1.2,4.4,4.4,0,0,1,3.1,1.2,7.5,7.5,0,0,0,5,1.9,7.8,7.8,0,0,0,5.1-1.9,4.4,4.4,0,0,1,3.1-1.2,4.6,4.6,0,0,1,3.1,1.2,7.5,7.5,0,0,0,5,1.9,7.5,7.5,0,0,0,5-1.9,4.8,4.8,0,0,1,3.2-1.2v-3.2A7.8,7.8,0,0,0-114.8-52.7Zm-43.8-82.2a1.6,1.6,0,0,1,1.6,1.6v1.5h-3.1v-1.5A1.6,1.6,0,0,1-158.6-134.9Zm-4.3,6.4a35.5,35.5,0,0,0-8.3,11.9l2.9,1.2a33.8,33.8,0,0,1,9.7-12.8A33.7,33.7,0,0,1-146-103.4h-25.1a34,34,0,0,1,1.6-9l-3-.9a36.7,36.7,0,0,0-1.7,9.9h-14.2A26.7,26.7,0,0,1-162.9-128.5Zm-28.7,28.2h53.5v-3.1h-4.8a36.6,36.6,0,0,0-11.3-25.1,26.7,26.7,0,0,1,25.5,25.1h-6.2v3.1h9.4v3.2h-66.1Zm33,45.7a6.8,6.8,0,0,0-3.1.7V-94h6.3v40.1A6.9,6.9,0,0,0-158.6-54.6Z"/><g class="cls-19"><rect class="cls-2" x="-2955.4" y="-2540" width="5224.4" height="4468.85"/></g><path class="cls-3" d="M-117.9-43.6a4.4,4.4,0,0,1-3.1-1.2,7.2,7.2,0,0,0-5-1.9,7.3,7.3,0,0,0-5.1,1.9,4.4,4.4,0,0,1-3.1,1.2,4.6,4.6,0,0,1-3.1-1.2,7,7,0,0,0-5-1.9,6.9,6.9,0,0,0-5,1.9,4.8,4.8,0,0,1-3.2,1.2,4.8,4.8,0,0,1-3.1-1.2,6.9,6.9,0,0,0-5-1.9,7,7,0,0,0-5,1.9,4.4,4.4,0,0,1-3.1,1.2,4.4,4.4,0,0,1-3.1-1.2,7.3,7.3,0,0,0-5.1-1.9,7.2,7.2,0,0,0-5,1.9,4.4,4.4,0,0,1-3.1,1.2,4.6,4.6,0,0,1-3.1-1.2,7,7,0,0,0-5-1.9,7,7,0,0,0-5,1.9,4.6,4.6,0,0,1-3.1,1.2,4.4,4.4,0,0,1-3.1-1.2,7.3,7.3,0,0,0-5.1-1.9v3.1a4.1,4.1,0,0,1,3.1,1.3,7.8,7.8,0,0,0,5.1,1.9,7.7,7.7,0,0,0,5-1.9,4.1,4.1,0,0,1,3.1-1.3,4.1,4.1,0,0,1,3.1,1.3,7.5,7.5,0,0,0,5,1.9,7.5,7.5,0,0,0,5-1.9,4.4,4.4,0,0,1,3.1-1.3,4.1,4.1,0,0,1,3.1,1.3,7.8,7.8,0,0,0,5.1,1.9,7.5,7.5,0,0,0,5-1.9,4.1,4.1,0,0,1,3.1-1.3,4.1,4.1,0,0,1,3.1,1.3,7.7,7.7,0,0,0,5,1.9,7.8,7.8,0,0,0,5.1-1.9,4.1,4.1,0,0,1,3.1-1.3,4.1,4.1,0,0,1,3.1,1.3,7.5,7.5,0,0,0,5,1.9,7.8,7.8,0,0,0,5.1-1.9,4.1,4.1,0,0,1,3.1-1.3,4.2,4.2,0,0,1,3.1,1.3,7.5,7.5,0,0,0,5,1.9,7.5,7.5,0,0,0,5-1.9,4.3,4.3,0,0,1,3.2-1.3v-3.1a7.3,7.3,0,0,0-5.1,1.9,4.4,4.4,0,0,1-3.1,1.2"/><g class="cls-20"><rect class="cls-2" x="-2955.4" y="-2540" width="5224.4" height="4468.85"/></g><path class="cls-3" d="M-149.1-62.5a4.8,4.8,0,0,0,4.7,4.8,4.8,4.8,0,0,0,4.7-4.8v-3.1h-3.1v3.1a1.6,1.6,0,0,1-1.6,1.6,1.6,1.6,0,0,1-1.6-1.6v-22h-3.1Z"/><g class="cls-21"><rect class="cls-2" x="-2955.4" y="-2540" width="5224.4" height="4468.85"/></g><path class="cls-3" d="M-127.1-73.5v-7.9h-3.1v7.9a1.6,1.6,0,0,1-1.6,1.6,1.6,1.6,0,0,1-1.6-1.6V-86.1a4.7,4.7,0,0,0-4.7-4.7,4.7,4.7,0,0,0-4.7,4.7v4.7h3.1v-4.7a1.6,1.6,0,0,1,1.6-1.6,1.6,1.6,0,0,1,1.6,1.6v12.6a4.7,4.7,0,0,0,4.7,4.7,4.7,4.7,0,0,0,4.7-4.7"/><g class="cls-22"><rect class="cls-2" x="-2955.4" y="-2540" width="5224.4" height="4468.85"/></g><path class="cls-3" d="M-171.2-62.5a1.6,1.6,0,0,1-1.5,1.6,1.6,1.6,0,0,1-1.6-1.6v-3.1h-3.2v3.1a4.9,4.9,0,0,0,4.8,4.8,4.8,4.8,0,0,0,4.7-4.8v-22h-3.2Z"/><g class="cls-23"><rect class="cls-2" x="-2955.4" y="-2540" width="5224.4" height="4468.85"/></g><path class="cls-3" d="M-190-73.5a4.7,4.7,0,0,0,4.7,4.7,4.7,4.7,0,0,0,4.7-4.7V-86.1a1.6,1.6,0,0,1,1.6-1.6,1.6,1.6,0,0,1,1.5,1.6v4.7h3.2v-4.7a4.7,4.7,0,0,0-4.7-4.7,4.8,4.8,0,0,0-4.8,4.7v12.6a1.6,1.6,0,0,1-1.5,1.6,1.6,1.6,0,0,1-1.6-1.6v-7.9H-190Z"/><g class="cls-24"><rect class="cls-2" x="-2955.4" y="-2540" width="5224.4" height="4468.85"/></g><path class="cls-3" d="M-199.5-62.5a17.7,17.7,0,0,1,5.6.9l5,1.7-2.7-6.6a8.4,8.4,0,0,0-7.9-5.4,4.7,4.7,0,0,0-4.7,4.7,4.7,4.7,0,0,0,4.7,4.7m0-6.3a5.4,5.4,0,0,1,5,3.4l.2.4a22.4,22.4,0,0,0-5.2-.6,1.6,1.6,0,0,1-1.6-1.6,1.6,1.6,0,0,1,1.6-1.6"/><g class="cls-25"><rect class="cls-2" x="-2955.4" y="-2540" width="5224.4" height="4468.85"/></g><path class="cls-3" d="M-125.6-66.5l-2.6,6.6,4.9-1.7a18.8,18.8,0,0,1,5.7-.9,4.7,4.7,0,0,0,4.7-4.7,4.7,4.7,0,0,0-4.7-4.7A8.6,8.6,0,0,0-125.6-66.5Zm3,1.1a5.4,5.4,0,0,1,5-3.4,1.6,1.6,0,0,1,1.6,1.6,1.6,1.6,0,0,1-1.6,1.6,22.4,22.4,0,0,0-5.2.6Z"/><g class="cls-26"><rect class="cls-2" x="-2955.4" y="-2540" width="5224.4" height="4468.85"/></g><path class="cls-2" d="M99.1,82a1.3,1.3,0,0,0-1.8-.9l-8.5,2.5V69.1a4,4,0,0,0,2.7-3.8V61.6h4.3a3.3,3.3,0,0,0,3.3-3.3V22a1.3,1.3,0,0,0-.8-1.3,34.7,34.7,0,0,1-9.6-7.9v-3a5.1,5.1,0,0,0-5-5.1h-.2V1.5A1.5,1.5,0,0,0,82.2,0a1.5,1.5,0,0,0-1.5,1.5V4.7h-.1a5.1,5.1,0,0,0-5.1,5.1v3.1C69,22.8,59.6,28.4,49.6,28.4h0c-10,0-19.4-5.6-25.9-15.5V9.8a5.1,5.1,0,0,0-5.1-5.1h-.1V1.5A1.5,1.5,0,0,0,17,0a1.5,1.5,0,0,0-1.4,1.5V4.7h-.2a5.1,5.1,0,0,0-5,5.1v3A36.2,36.2,0,0,1,.8,20.7,1.3,1.3,0,0,0,0,22V58.3a3.3,3.3,0,0,0,3.3,3.3H9.5v3.7a4.1,4.1,0,0,0,2.7,3.8V80.8A53,53,0,0,0,.8,85.5a1.5,1.5,0,0,0-.6,2,1.4,1.4,0,0,0,2,.5,49,49,0,0,1,11.6-4.6,36,36,0,0,1,17.9-.6l23.8,5a82.6,82.6,0,0,0,14.6,1.6c6.9,0,15.4-1.3,28.1-5.6a1.3,1.3,0,0,0,.9-1.8ZM88.7,65.3a1.2,1.2,0,0,1-1.2,1.2H69.1a1.2,1.2,0,0,1-1.2-1.2V61.6H88.7Zm.1-48.2a41.2,41.2,0,0,0,7.5,5.7V53H88.8ZM78.4,9.8a2.2,2.2,0,0,1,2.2-2.2h3.2a2.2,2.2,0,0,1,2.1,2.2v2.1H78.4Zm0,5h7.5V53H78.4ZM64.8,27.2a37.6,37.6,0,0,0,10.7-9.3V53H64.8ZM51,31.3a31.1,31.1,0,0,0,10.9-2.6V53H51ZM37.3,28.7a31.1,31.1,0,0,0,10.8,2.6V53H37.3ZM23.7,17.9a38.6,38.6,0,0,0,10.6,9.3V53H23.7ZM13.3,9.8a2.2,2.2,0,0,1,2.1-2.2h3.2a2.2,2.2,0,0,1,2.2,2.2v2.1H13.3Zm0,5h7.5V53H13.3Zm-10.4,8a41.2,41.2,0,0,0,7.5-5.7V53H2.9ZM33.2,65.3A1.2,1.2,0,0,1,32,66.5H13.7a1.2,1.2,0,0,1-1.3-1.2V61.6H33.2ZM15.1,80.1V69.4H30.6V79.7a50.7,50.7,0,0,0-15.5.4Zm18.4.1V69.1a4.1,4.1,0,0,0,2.6-3.8V61.6H46.8a1.5,1.5,0,0,0,1.5-1.4,1.5,1.5,0,0,0-1.5-1.5H3.3a.4.4,0,0,1-.4-.4V55.9H96.3v2.4a.4.4,0,0,1-.4.4H53.5a1.5,1.5,0,0,0-1.4,1.5,1.4,1.4,0,0,0,1.4,1.4H65v3.7a4.1,4.1,0,0,0,2.7,3.8v5.2a1.5,1.5,0,0,0,1.4,1.5,1.5,1.5,0,0,0,1.5-1.5V69.4H86v15a69.9,69.9,0,0,1-15.3,2.1V81a1.5,1.5,0,0,0-1.5-1.4A1.4,1.4,0,0,0,67.7,81v5.4A84.9,84.9,0,0,1,56,84.9s-18.9-4.1-22.5-4.7Zm0,0"/></svg>