<svg id="Layer_1" data-name="Layer 1" xmlns="http://www.w3.org/2000/svg" xmlns:xlink="http://www.w3.org/1999/xlink" viewBox="0 0 87.1 87.1"><defs><style>.cls-1,.cls-2,.cls-4{fill:#221c45;}.cls-1{clip-rule:evenodd;}.cls-3{fill:none;}.cls-4{fill-rule:evenodd;}.cls-5{clip-path:url(#clip-path);}.cls-6{clip-path:url(#clip-path-2);}.cls-7{clip-path:url(#clip-path-3);}.cls-8{clip-path:url(#clip-path-4);}.cls-9{clip-path:url(#clip-path-5);}.cls-10{clip-path:url(#clip-path-6);}.cls-11{clip-path:url(#clip-path-7);}.cls-12{clip-path:url(#clip-path-8);}.cls-13{clip-path:url(#clip-path-9);}.cls-14{clip-path:url(#clip-path-10);}.cls-15{clip-path:url(#clip-path-11);}.cls-16{clip-path:url(#clip-path-12);}.cls-17{clip-path:url(#clip-path-13);}.cls-18{clip-path:url(#clip-path-14);}.cls-19{clip-path:url(#clip-path-15);}.cls-20{clip-path:url(#clip-path-16);}.cls-21{clip-path:url(#clip-path-17);}.cls-22{clip-path:url(#clip-path-18);}.cls-23{clip-path:url(#clip-path-19);}.cls-24{clip-path:url(#clip-path-20);}.cls-25{clip-path:url(#clip-path-21);}.cls-26{clip-path:url(#clip-path-22);}.cls-27{clip-path:url(#clip-path-23);}.cls-28{clip-path:url(#clip-path-24);}</style><clipPath id="clip-path"><path class="cls-1" d="M83.5-44.2H99.4v-10H83.5Zm17.9,3.9H81.5a2,2,0,0,1-2-2V-56.2a2,2,0,0,1,2-2h19.9a2,2,0,0,1,2,2v13.9A2,2,0,0,1,101.4-40.3Z"/></clipPath><clipPath id="clip-path-2"><path class="cls-1" d="M73.5-44.2h35.8v-87.6H73.5Zm37.8,3.9H71.5a1.9,1.9,0,0,1-1.9-2v-91.5a1.9,1.9,0,0,1,1.9-1.9h39.8a2,2,0,0,1,2,1.9v91.5A2,2,0,0,1,111.3-40.3Z"/></clipPath><clipPath id="clip-path-3"><path class="cls-1" d="M57.6-44.2H69.5v-79.6H57.6Zm13.9,3.9H55.6a2,2,0,0,1-2-2v-83.5a2,2,0,0,1,2-2H71.5a2,2,0,0,1,2,2v83.5A2,2,0,0,1,71.5-40.3Z"/></clipPath><clipPath id="clip-path-4"><path class="cls-1" d="M113.3-44.2h11.9v-79.6H113.3Zm13.9,3.9H111.3a2,2,0,0,1-2-2v-83.5a2,2,0,0,1,2-2h15.9a2,2,0,0,1,2,2v83.5A2,2,0,0,1,127.2-40.3Z"/></clipPath><clipPath id="clip-path-5"><rect class="cls-2" x="39.7" y="-84" width="4" height="19.89" transform="translate(75.9 3.7) rotate(-53.1)"/></clipPath><clipPath id="clip-path-6"><rect class="cls-2" x="31.8" y="-76.1" width="19.9" height="3.98" transform="translate(52.8 10.2) rotate(-36.9)"/></clipPath><clipPath id="clip-path-7"><rect class="cls-2" x="139.2" y="-84" width="4" height="19.89" transform="translate(115.7 83.3) rotate(-53.1)"/></clipPath><clipPath id="clip-path-8"><rect class="cls-2" x="131.2" y="-76.1" width="19.9" height="3.97" transform="translate(72.6 69.9) rotate(-36.8)"/></clipPath><clipPath id="clip-path-9"><path class="cls-1" d="M-100.6-93.7a9.4,9.4,0,0,0-6.7-9A36.1,36.1,0,0,0-112-114a9.4,9.4,0,0,0-1.6-11.1,9.5,9.5,0,0,0-6.7-2.8,9.3,9.3,0,0,0-4.4,1.1,41.6,41.6,0,0,0-11.3-4.7,9.3,9.3,0,0,0-9-6.6,9.5,9.5,0,0,0-9,6.6,40.9,40.9,0,0,0-11.2,4.7,10,10,0,0,0-7.2-.7,1.4,1.4,0,0,0,.8,2.7,6.5,6.5,0,0,1,6.6,1.7,6.6,6.6,0,0,1,0,9.4,6.7,6.7,0,0,1-9.3,0,6.8,6.8,0,0,1-1.5-7.3c.7-1.6-1.9-2.7-2.6-1a9.3,9.3,0,0,0,.4,8,38.6,38.6,0,0,0-4.7,11.3,9.4,9.4,0,0,0-6.6,9,9.5,9.5,0,0,0,6.6,9A38.6,38.6,0,0,0-178-73.4a9.4,9.4,0,0,0,1.7,11.1,9.6,9.6,0,0,0,11.1,1.7c1.4.8,2.8,1.6,4.3,2.3l-4.3,11.6a3.3,3.3,0,0,0,3,4.4h34.4a3.4,3.4,0,0,0,3.1-4.4L-129-58.3c1.5-.7,2.9-1.5,4.3-2.3a9.6,9.6,0,0,0,4.4,1.1,9.8,9.8,0,0,0,2.9-.5c1.7-.5.9-3.2-.9-2.7a6.5,6.5,0,0,1-6.7-1.6,6.6,6.6,0,0,1,0-9.4,6.6,6.6,0,0,1,9.4,0,6.6,6.6,0,0,1,1.5,7.2c-.7,1.6,1.9,2.7,2.6,1a9.5,9.5,0,0,0-.5-7.9,36.1,36.1,0,0,0,4.7-11.3A9.5,9.5,0,0,0-100.6-93.7Zm-2.8,0a6.6,6.6,0,0,1-6.7,6.6,6.6,6.6,0,0,1-6.6-6.6,6.7,6.7,0,0,1,6.6-6.7A6.7,6.7,0,0,1-103.4-93.7Zm-16-1.4h-11.9a13.3,13.3,0,0,0-3-7.3l8.4-8.4a9.4,9.4,0,0,0,7.4,1.7,29.2,29.2,0,0,1,3.2,7.5A9.5,9.5,0,0,0-119.4-95.1Zm-11.8,34.7-4.3,1.4a20,20,0,0,0-.4-2.4,33.4,33.4,0,0,0,7.3-3.1,9.5,9.5,0,0,0,1.5,2A39.8,39.8,0,0,1-131.2-60.4Zm-31.6-2.1a6.6,6.6,0,0,0,1.4-2,34.1,34.1,0,0,0,7.4,3.1,6.7,6.7,0,0,0-.4,2.4A31.1,31.1,0,0,1-162.8-62.5Zm-13.4-13.3a37.1,37.1,0,0,1-3.5-8.5,10.1,10.1,0,0,0,2.5-.3,33,33,0,0,0,3,7.3A9.5,9.5,0,0,0-176.2-75.8Zm4.7-2.5a30.5,30.5,0,0,1-3.1-7.5,9.9,9.9,0,0,0,4.1-6.5h11.8a14.8,14.8,0,0,0,3,7.3l-8.4,8.4A9.3,9.3,0,0,0-171.5-78.3Zm25.1,10.2a9.1,9.1,0,0,0-6.4,4.1,29.9,29.9,0,0,1-7.6-3.2,9,9,0,0,0-1.7-7.4l8.4-8.4a14.8,14.8,0,0,0,7.3,3Zm1.4,2.7a6.7,6.7,0,0,1,6.7,6.6,6.7,6.7,0,0,1-6.7,6.7,6.7,6.7,0,0,1-6.6-6.7A6.7,6.7,0,0,1-145-65.4Zm15.4-1.8a29.2,29.2,0,0,1-7.5,3.2,9.5,9.5,0,0,0-6.5-4.1V-80a14.1,14.1,0,0,0,7.3-3l8.4,8.4A9.5,9.5,0,0,0-129.6-67.2ZM-145-82.7a11,11,0,0,1-10.9-11,10.9,10.9,0,0,1,10.9-11,11,11,0,0,1,11,11A11,11,0,0,1-145-82.7Zm-9-43.3a33.8,33.8,0,0,0-7.4,3,8.1,8.1,0,0,0-1.4-2,34.7,34.7,0,0,1,8.4-3.5A6.9,6.9,0,0,0-154-126Zm-6.4,5.7a29.6,29.6,0,0,1,7.6-3.1,9.1,9.1,0,0,0,6.4,4.1v11.9a13.9,13.9,0,0,0-7.3,3l-8.4-8.4A9.2,9.2,0,0,0-160.4-120.3Zm31.8-2.6a29.2,29.2,0,0,0-7.3-3.1,18.7,18.7,0,0,0,.4-2.5,38.3,38.3,0,0,1,8.4,3.5A10.1,10.1,0,0,0-128.6-122.9Zm-8.5-.5a29,29,0,0,1,7.5,3.1,9.6,9.6,0,0,0,1.7,7.5l-8.4,8.4a13.3,13.3,0,0,0-7.3-3v-11.9A9.5,9.5,0,0,0-137.1-123.4Zm23.3,11.8a38.3,38.3,0,0,1,3.5,8.4l-2.4.4a39,39,0,0,0-3.1-7.3A9.5,9.5,0,0,0-113.8-111.6Zm-1.8-11.5a6.6,6.6,0,0,1,0,9.4,6.8,6.8,0,0,1-9.4,0,6.8,6.8,0,0,1,0-9.4A6.6,6.6,0,0,1-115.6-123.1ZM-145-135.3a6.7,6.7,0,0,1,6.7,6.6A6.7,6.7,0,0,1-145-122a6.7,6.7,0,0,1-6.6-6.7,4.9,4.9,0,0,1,.1-1.2.4.4,0,0,1,.1-.3A6.6,6.6,0,0,1-145-135.3Zm-19.1,24.5,8.4,8.4a14.1,14.1,0,0,0-3,7.3h-11.8a9.9,9.9,0,0,0-4.1-6.5,29,29,0,0,1,3.1-7.5A9.3,9.3,0,0,0-164.1-110.8Zm-10.1.7a33,33,0,0,0-3,7.3l-2.5-.4a38.3,38.3,0,0,1,3.5-8.4A9.5,9.5,0,0,0-174.2-110.1Zm-12.3,16.4a6.7,6.7,0,0,1,6.6-6.7,6.7,6.7,0,0,1,6.7,6.7,6.6,6.6,0,0,1-6.7,6.6A6.6,6.6,0,0,1-186.5-93.7Zm16.8,31.4a6.3,6.3,0,0,1-4.6-2,6.6,6.6,0,0,1,0-9.4,6.5,6.5,0,0,1,9.3,0,6.6,6.6,0,0,1,0,9.4A6.7,6.7,0,0,1-169.7-62.3Zm42.3,16.6c.1.3,0,.5-.4.6h-34.4c-.3-.1-.5-.3-.4-.6l4.3-11.6A21.3,21.3,0,0,0-154-56a9.5,9.5,0,0,0,9,6.7,9.3,9.3,0,0,0,9-6.7,22.3,22.3,0,0,0,4.4-1.3Zm1.5-30.9-8.4-8.4a13.6,13.6,0,0,0,3-7.3h11.9a9.5,9.5,0,0,0,4.1,6.5,30.8,30.8,0,0,1-3.2,7.5l-1.8-.2A9.5,9.5,0,0,0-125.9-76.6Zm10.1-.7a39,39,0,0,0,3.1-7.3,9.3,9.3,0,0,0,2.4.3,37.1,37.1,0,0,1-3.5,8.5A9.5,9.5,0,0,0-115.8-77.3Z"/></clipPath><clipPath id="clip-path-10"><path class="cls-2" d="M-421.5-39.8h-74.6a2.6,2.6,0,0,1-2.5-2.6v-5.4a2.5,2.5,0,0,1,2.5-2.6h28.6a8.6,8.6,0,0,1-.7-2.1,6.7,6.7,0,0,1,1.4-5.3l.9-1.1a7.1,7.1,0,0,0,1.5-5.6l-.4-2.4H-476a6,6,0,0,1-5.9-6.2,1.2,1.2,0,0,0-.4-.8l-2.4-1.6a2.8,2.8,0,0,1-1-2.9,2.6,2.6,0,0,1,2.5-1.9h19.3v-2.9h-6.5a6.1,6.1,0,0,1-5.9-6.2,1.1,1.1,0,0,0-.3-.8l-2.4-1.6a2.7,2.7,0,0,1-1-2.9,2.6,2.6,0,0,1,2.4-1.9h13.7v-1.5a10,10,0,0,0-5.7-9.2l-.7-.4v-2.5h23v2.5l-.7.4a10,10,0,0,0-5.7,9.2v1.5H-440a2.6,2.6,0,0,1,2.4,1.9,2.7,2.7,0,0,1-1,2.9l-2.4,1.6a1.1,1.1,0,0,0-.3.8,6.1,6.1,0,0,1-5.9,6.2h-6.5v2.9h19.3a2.8,2.8,0,0,1,2.5,1.9,2.7,2.7,0,0,1-1,2.9l-2.4,1.6a.9.9,0,0,0-.4.8,6,6,0,0,1-5.9,6.2h-11.2l-.4,2.4a7.1,7.1,0,0,0,1.5,5.6l.9,1.1a6.7,6.7,0,0,1,1.4,5.3,8.6,8.6,0,0,1-.7,2.1h28.6a2.5,2.5,0,0,1,2.5,2.6v5.4A2.6,2.6,0,0,1-421.5-39.8Zm-74.6-8.1h0v5.4h74.6v-5.4h-35.1l3.1-2.3a4,4,0,0,0,1.6-2.7,3.9,3.9,0,0,0-.9-3.3l-.9-1.2a9.5,9.5,0,0,1-2-7.5l.7-4.5h13.4a3.6,3.6,0,0,0,3.4-3.7,3.2,3.2,0,0,1,1.5-2.8l2.3-1.7h-21.8v-7.9h9a3.6,3.6,0,0,0,3.4-3.7,3.4,3.4,0,0,1,1.4-2.8l2.4-1.7h-16.2v-4a13.2,13.2,0,0,1,4.2-9.6h-13.6a13.2,13.2,0,0,1,4.2,9.6v4h-16.2v.2l2.4,1.7a3.4,3.4,0,0,1,1.4,2.8,3.6,3.6,0,0,0,3.4,3.7h9v7.9h-21.8a.1.1,0,0,0,0,.2l2.3,1.7a3.5,3.5,0,0,1,1.5,2.8,3.6,3.6,0,0,0,3.4,3.7h13.4l.7,4.5a9.5,9.5,0,0,1-2,7.5l-.9,1.2a3.9,3.9,0,0,0-.9,3.3,4,4,0,0,0,1.6,2.7l3,2.3Z"/></clipPath><clipPath id="clip-path-11"><path class="cls-1" d="M-491.2-81a2.8,2.8,0,0,1,2.8-2.8,5.7,5.7,0,0,0,5.7-5.7v-7a2.8,2.8,0,0,1,2.8-2.8h8.4v-2.8h-8.4a5.7,5.7,0,0,0-5.7,5.6v7a2.8,2.8,0,0,1-2.8,2.9A5.6,5.6,0,0,0-494-81v19.7h2.8Z"/></clipPath><clipPath id="clip-path-12"><path class="cls-2" d="M-458.8-112.6a2.3,2.3,0,0,1-1.9-1l-3.2-5.4a2.1,2.1,0,0,1,.4-2.6l3.2-3.2a2.2,2.2,0,0,1,3,0l3.2,3.2a2,2,0,0,1,.3,2.6l-3.1,5.3A2.1,2.1,0,0,1-458.8-112.6Zm0-2.2Zm0-8.5-3.2,3.2,3.2,5.3,3.2-5.3Z"/></clipPath><clipPath id="clip-path-13"><path class="cls-1" d="M-446.1-102.1v2.8h8.4a2.8,2.8,0,0,1,2.8,2.8v7a5.7,5.7,0,0,0,5.7,5.7,2.8,2.8,0,0,1,2.8,2.8v19.7h2.8V-81a5.6,5.6,0,0,0-5.6-5.6,2.8,2.8,0,0,1-2.8-2.9v-7a5.7,5.7,0,0,0-5.7-5.6Z"/></clipPath><clipPath id="clip-path-14"><path class="cls-1" d="M-440.5-112h2.8a8.5,8.5,0,0,0-8.4-8.4h-2.8v2.8h2.8a5.6,5.6,0,0,1,5.6,5.6"/></clipPath><clipPath id="clip-path-15"><path class="cls-1" d="M-471.5-117.6h2.8v-2.8h-2.8a8.5,8.5,0,0,0-8.4,8.4h2.8a5.6,5.6,0,0,1,5.6-5.6"/></clipPath><clipPath id="clip-path-16"><path class="cls-1" d="M8.4-53.1a4.6,4.6,0,0,1-3.1,1.3,4.4,4.4,0,0,1-3.1-1.3A7.8,7.8,0,0,0-2.9-55a7.5,7.5,0,0,0-5,1.9A4.6,4.6,0,0,1-11-51.8a4.4,4.4,0,0,1-3.1-1.3A7.8,7.8,0,0,0-19.2-55a7.7,7.7,0,0,0-5,1.9,4.4,4.4,0,0,1-3.1,1.3,4.4,4.4,0,0,1-1.8-.4V-94.4h22v3.2h3.2v-3.2h1.6A3.1,3.1,0,0,0,.8-97.5v-3.2a3.1,3.1,0,0,0-3.1-3.1h-.1a30,30,0,0,0-28.3-28.3v-1.6a4.7,4.7,0,0,0-4.7-4.7,4.7,4.7,0,0,0-4.7,4.7v1.6a30,30,0,0,0-28.3,28.3h-.1a3.1,3.1,0,0,0-3.1,3.1v3.2a3.1,3.1,0,0,0,3.1,3.1h1.6v3.2h3.2v-3.2h22v42.1a3.6,3.6,0,0,1-1.9.5,4.6,4.6,0,0,1-3.1-1.3,7.5,7.5,0,0,0-5-1.9,7.5,7.5,0,0,0-5,1.9,4.6,4.6,0,0,1-3.1,1.3,4.4,4.4,0,0,1-3.1-1.3A7.8,7.8,0,0,0-68-55a7.7,7.7,0,0,0-5,1.9,4.4,4.4,0,0,1-3.1,1.3,4.4,4.4,0,0,1-3.1-1.3,7.5,7.5,0,0,0-5-1.9v3.2a4.4,4.4,0,0,1,3.1,1.2,7.5,7.5,0,0,0,5,1.9,7.5,7.5,0,0,0,5-1.9A4.8,4.8,0,0,1-68-51.8a4.4,4.4,0,0,1,3.1,1.2,7.8,7.8,0,0,0,5.1,1.9,7.7,7.7,0,0,0,5-1.9,4.4,4.4,0,0,1,3.1-1.2,4.4,4.4,0,0,1,3.1,1.2,7.7,7.7,0,0,0,5,1.9,7.8,7.8,0,0,0,5.1-1.9,4.4,4.4,0,0,1,3.1-1.2,4.6,4.6,0,0,1,3.1,1.2,7.5,7.5,0,0,0,5,1.9,7.5,7.5,0,0,0,5-1.9,4.6,4.6,0,0,1,3.1-1.2,4.4,4.4,0,0,1,3.1,1.2A7.8,7.8,0,0,0-11-48.7a7.7,7.7,0,0,0,5-1.9,4.4,4.4,0,0,1,3.1-1.2A4.4,4.4,0,0,1,.2-50.6a7.8,7.8,0,0,0,5.1,1.9,7.7,7.7,0,0,0,5-1.9,4.4,4.4,0,0,1,3.1-1.2V-55A7.5,7.5,0,0,0,8.4-53.1Zm-43.8-82.2a1.6,1.6,0,0,1,1.6,1.6v1.6H-37v-1.6A1.6,1.6,0,0,1-35.4-135.3Zm-4.3,6.4A37.2,37.2,0,0,0-48.1-117l2.9,1.2a34.8,34.8,0,0,1,9.8-12.7,33.2,33.2,0,0,1,12.5,24.7h-25a30.4,30.4,0,0,1,1.6-9l-3-.9a36.8,36.8,0,0,0-1.8,9.9H-65.2A26.7,26.7,0,0,1-39.7-128.9Zm-28.8,28.2h53.6v-3.1h-4.8a36.7,36.7,0,0,0-11.4-25.1A26.7,26.7,0,0,1-5.6-103.8h-6.2v3.1h9.5v3.2H-68.5ZM-35.4-55a7.2,7.2,0,0,0-3.2.7V-94.4h6.3v40.1A6.8,6.8,0,0,0-35.4-55Z"/></clipPath><clipPath id="clip-path-17"><path class="cls-1" d="M5.3-44a4.8,4.8,0,0,1-3.2-1.2,7,7,0,0,0-5-1.9,7,7,0,0,0-5,1.9A4.6,4.6,0,0,1-11-44a4.4,4.4,0,0,1-3.1-1.2,7.3,7.3,0,0,0-5.1-1.9,7.2,7.2,0,0,0-5,1.9A4.4,4.4,0,0,1-27.3-44a4.4,4.4,0,0,1-3.1-1.2,7.2,7.2,0,0,0-5-1.9,7.3,7.3,0,0,0-5.1,1.9A4.4,4.4,0,0,1-43.6-44a4.6,4.6,0,0,1-3.1-1.2,7,7,0,0,0-5-1.9,7,7,0,0,0-5,1.9A4.6,4.6,0,0,1-59.8-44a4.4,4.4,0,0,1-3.1-1.2A7.3,7.3,0,0,0-68-47.1a7.2,7.2,0,0,0-5,1.9A4.4,4.4,0,0,1-76.1-44a4.4,4.4,0,0,1-3.1-1.2,7,7,0,0,0-5-1.9V-44a4.1,4.1,0,0,1,3.1,1.3,7.5,7.5,0,0,0,5,1.9,7.5,7.5,0,0,0,5-1.9A4.2,4.2,0,0,1-68-44a4.1,4.1,0,0,1,3.1,1.3,7.8,7.8,0,0,0,5.1,1.9,7.7,7.7,0,0,0,5-1.9A4.1,4.1,0,0,1-51.7-44a4.1,4.1,0,0,1,3.1,1.3,7.7,7.7,0,0,0,5,1.9,7.8,7.8,0,0,0,5.1-1.9A4.1,4.1,0,0,1-35.4-44a4.2,4.2,0,0,1,3.1,1.3,7.5,7.5,0,0,0,5,1.9,7.5,7.5,0,0,0,5-1.9A4.2,4.2,0,0,1-19.2-44a4.1,4.1,0,0,1,3.1,1.3A7.8,7.8,0,0,0-11-40.8a7.7,7.7,0,0,0,5-1.9A4.1,4.1,0,0,1-2.9-44,4.1,4.1,0,0,1,.2-42.7a7.8,7.8,0,0,0,5.1,1.9,7.7,7.7,0,0,0,5-1.9A4.1,4.1,0,0,1,13.4-44v-3.1a7,7,0,0,0-5,1.9A4.6,4.6,0,0,1,5.3-44"/></clipPath><clipPath id="clip-path-18"><path class="cls-1" d="M-26-62.9a4.9,4.9,0,0,0,4.8,4.8,4.8,4.8,0,0,0,4.7-4.8V-66h-3.2v3.1a1.6,1.6,0,0,1-1.5,1.6,1.6,1.6,0,0,1-1.6-1.6v-22H-26Z"/></clipPath><clipPath id="clip-path-19"><path class="cls-1" d="M-3.9-73.9v-7.9H-7.1v7.9a1.6,1.6,0,0,1-1.5,1.6,1.6,1.6,0,0,1-1.6-1.6V-86.5a4.7,4.7,0,0,0-4.7-4.7,4.8,4.8,0,0,0-4.8,4.7v4.7h3.2v-4.7a1.6,1.6,0,0,1,1.6-1.6,1.6,1.6,0,0,1,1.5,1.6v12.6a4.8,4.8,0,0,0,4.8,4.7,4.7,4.7,0,0,0,4.7-4.7"/></clipPath><clipPath id="clip-path-20"><path class="cls-1" d="M-48-62.9a1.6,1.6,0,0,1-1.6,1.6,1.6,1.6,0,0,1-1.6-1.6V-66h-3.1v3.1a4.8,4.8,0,0,0,4.7,4.8,4.8,4.8,0,0,0,4.7-4.8v-22H-48Z"/></clipPath><clipPath id="clip-path-21"><path class="cls-1" d="M-66.9-73.9a4.7,4.7,0,0,0,4.7,4.7,4.8,4.8,0,0,0,4.8-4.7V-86.5a1.6,1.6,0,0,1,1.5-1.6,1.6,1.6,0,0,1,1.6,1.6v4.7h3.1v-4.7a4.7,4.7,0,0,0-4.7-4.7,4.7,4.7,0,0,0-4.7,4.7v12.6a1.6,1.6,0,0,1-1.6,1.6,1.6,1.6,0,0,1-1.5-1.6v-7.9h-3.2Z"/></clipPath><clipPath id="clip-path-22"><path class="cls-1" d="M-76.3-62.9a17.7,17.7,0,0,1,5.6.9l4.9,1.7-2.6-6.6a8.4,8.4,0,0,0-7.9-5.4,4.8,4.8,0,0,0-4.8,4.7,4.8,4.8,0,0,0,4.8,4.7m0-6.3a5.4,5.4,0,0,1,5,3.4v.4a22.2,22.2,0,0,0-5.1-.6,1.6,1.6,0,0,1-1.6-1.6,1.6,1.6,0,0,1,1.6-1.6"/></clipPath><clipPath id="clip-path-23"><path class="cls-1" d="M-2.4-66.9l-2.7,6.6,5-1.7a17.7,17.7,0,0,1,5.6-.9,4.8,4.8,0,0,0,4.8-4.7,4.8,4.8,0,0,0-4.8-4.7A8.4,8.4,0,0,0-2.4-66.9ZM.5-65.8a5.4,5.4,0,0,1,5-3.4,1.6,1.6,0,0,1,1.6,1.6A1.6,1.6,0,0,1,5.5-66a21.6,21.6,0,0,0-5.1.6Z"/></clipPath><clipPath id="clip-path-24"><rect class="cls-3" width="87.1" height="87.11"/></clipPath></defs><path class="cls-4" d="M83.5-44.2H99.4v-10H83.5Zm17.9,3.9H81.5a2,2,0,0,1-2-2V-56.2a2,2,0,0,1,2-2h19.9a2,2,0,0,1,2,2v13.9A2,2,0,0,1,101.4-40.3Z"/><g class="cls-5"><rect class="cls-2" x="-1185.1" y="-3836.9" width="5804" height="4970.61"/></g><path class="cls-4" d="M73.5-44.2h35.8v-87.6H73.5Zm37.8,3.9H71.5a1.9,1.9,0,0,1-1.9-2v-91.5a1.9,1.9,0,0,1,1.9-1.9h39.8a2,2,0,0,1,2,1.9v91.5A2,2,0,0,1,111.3-40.3Z"/><g class="cls-6"><rect class="cls-2" x="-1185.1" y="-3836.9" width="5804" height="4964.66"/></g><path class="cls-4" d="M57.6-44.2H69.5v-79.6H57.6Zm13.9,3.9H55.6a2,2,0,0,1-2-2v-83.5a2,2,0,0,1,2-2H71.5a2,2,0,0,1,2,2v83.5A2,2,0,0,1,71.5-40.3Z"/><g class="cls-7"><rect class="cls-2" x="-1185.1" y="-3836.9" width="5804" height="4964.66"/></g><path class="cls-4" d="M113.3-44.2h11.9v-79.6H113.3Zm13.9,3.9H111.3a2,2,0,0,1-2-2v-83.5a2,2,0,0,1,2-2h15.9a2,2,0,0,1,2,2v83.5A2,2,0,0,1,127.2-40.3Z"/><g class="cls-8"><rect class="cls-2" x="-1185.1" y="-3836.9" width="5804" height="4964.66"/></g><rect class="cls-2" x="39.7" y="-84" width="4" height="19.89" transform="translate(75.9 3.7) rotate(-53.1)"/><g class="cls-9"><rect class="cls-2" x="-1185.1" y="-3836.9" width="5804" height="4964.66"/></g><rect class="cls-2" x="31.8" y="-76.1" width="19.9" height="3.98" transform="translate(52.8 10.2) rotate(-36.9)"/><g class="cls-10"><rect class="cls-2" x="-1185.1" y="-3836.9" width="5804" height="4964.66"/></g><rect class="cls-2" x="139.2" y="-84" width="4" height="19.89" transform="translate(115.7 83.3) rotate(-53.1)"/><g class="cls-11"><rect class="cls-2" x="-1185.1" y="-3836.9" width="5804" height="4964.66"/></g><rect class="cls-2" x="131.2" y="-76.1" width="19.9" height="3.97" transform="translate(72.6 69.9) rotate(-36.8)"/><g class="cls-12"><rect class="cls-2" x="-1185.1" y="-3836.9" width="5804" height="4964.66"/></g><path class="cls-4" d="M-100.6-93.7a9.4,9.4,0,0,0-6.7-9A36.1,36.1,0,0,0-112-114a9.4,9.4,0,0,0-1.6-11.1,9.5,9.5,0,0,0-6.7-2.8,9.3,9.3,0,0,0-4.4,1.1,41.6,41.6,0,0,0-11.3-4.7,9.3,9.3,0,0,0-9-6.6,9.5,9.5,0,0,0-9,6.6,40.9,40.9,0,0,0-11.2,4.7,10,10,0,0,0-7.2-.7,1.4,1.4,0,0,0,.8,2.7,6.5,6.5,0,0,1,6.6,1.7,6.6,6.6,0,0,1,0,9.4,6.7,6.7,0,0,1-9.3,0,6.8,6.8,0,0,1-1.5-7.3c.7-1.6-1.9-2.7-2.6-1a9.3,9.3,0,0,0,.4,8,38.6,38.6,0,0,0-4.7,11.3,9.4,9.4,0,0,0-6.6,9,9.5,9.5,0,0,0,6.6,9A38.6,38.6,0,0,0-178-73.4a9.4,9.4,0,0,0,1.7,11.1,9.6,9.6,0,0,0,11.1,1.7c1.4.8,2.8,1.6,4.3,2.3l-4.3,11.6a3.3,3.3,0,0,0,3,4.4h34.4a3.4,3.4,0,0,0,3.1-4.4L-129-58.3c1.5-.7,2.9-1.5,4.3-2.3a9.6,9.6,0,0,0,4.4,1.1,9.8,9.8,0,0,0,2.9-.5c1.7-.5.9-3.2-.9-2.7a6.5,6.5,0,0,1-6.7-1.6,6.6,6.6,0,0,1,0-9.4,6.6,6.6,0,0,1,9.4,0,6.6,6.6,0,0,1,1.5,7.2c-.7,1.6,1.9,2.7,2.6,1a9.5,9.5,0,0,0-.5-7.9,36.1,36.1,0,0,0,4.7-11.3A9.5,9.5,0,0,0-100.6-93.7Zm-2.8,0a6.6,6.6,0,0,1-6.7,6.6,6.6,6.6,0,0,1-6.6-6.6,6.7,6.7,0,0,1,6.6-6.7A6.7,6.7,0,0,1-103.4-93.7Zm-16-1.4h-11.9a13.3,13.3,0,0,0-3-7.3l8.4-8.4a9.4,9.4,0,0,0,7.4,1.7,29.2,29.2,0,0,1,3.2,7.5A9.5,9.5,0,0,0-119.4-95.1Zm-11.8,34.7-4.3,1.4a20,20,0,0,0-.4-2.4,33.4,33.4,0,0,0,7.3-3.1,9.5,9.5,0,0,0,1.5,2A39.8,39.8,0,0,1-131.2-60.4Zm-31.6-2.1a6.6,6.6,0,0,0,1.4-2,34.1,34.1,0,0,0,7.4,3.1,6.7,6.7,0,0,0-.4,2.4A31.1,31.1,0,0,1-162.8-62.5Zm-13.4-13.3a37.1,37.1,0,0,1-3.5-8.5,10.1,10.1,0,0,0,2.5-.3,33,33,0,0,0,3,7.3A9.5,9.5,0,0,0-176.2-75.8Zm4.7-2.5a30.5,30.5,0,0,1-3.1-7.5,9.9,9.9,0,0,0,4.1-6.5h11.8a14.8,14.8,0,0,0,3,7.3l-8.4,8.4A9.3,9.3,0,0,0-171.5-78.3Zm25.1,10.2a9.1,9.1,0,0,0-6.4,4.1,29.9,29.9,0,0,1-7.6-3.2,9,9,0,0,0-1.7-7.4l8.4-8.4a14.8,14.8,0,0,0,7.3,3Zm1.4,2.7a6.7,6.7,0,0,1,6.7,6.6,6.7,6.7,0,0,1-6.7,6.7,6.7,6.7,0,0,1-6.6-6.7A6.7,6.7,0,0,1-145-65.4Zm15.4-1.8a29.2,29.2,0,0,1-7.5,3.2,9.5,9.5,0,0,0-6.5-4.1V-80a14.1,14.1,0,0,0,7.3-3l8.4,8.4A9.5,9.5,0,0,0-129.6-67.2ZM-145-82.7a11,11,0,0,1-10.9-11,10.9,10.9,0,0,1,10.9-11,11,11,0,0,1,11,11A11,11,0,0,1-145-82.7Zm-9-43.3a33.8,33.8,0,0,0-7.4,3,8.1,8.1,0,0,0-1.4-2,34.7,34.7,0,0,1,8.4-3.5A6.9,6.9,0,0,0-154-126Zm-6.4,5.7a29.6,29.6,0,0,1,7.6-3.1,9.1,9.1,0,0,0,6.4,4.1v11.9a13.9,13.9,0,0,0-7.3,3l-8.4-8.4A9.2,9.2,0,0,0-160.4-120.3Zm31.8-2.6a29.2,29.2,0,0,0-7.3-3.1,18.7,18.7,0,0,0,.4-2.5,38.3,38.3,0,0,1,8.4,3.5A10.1,10.1,0,0,0-128.6-122.9Zm-8.5-.5a29,29,0,0,1,7.5,3.1,9.6,9.6,0,0,0,1.7,7.5l-8.4,8.4a13.3,13.3,0,0,0-7.3-3v-11.9A9.5,9.5,0,0,0-137.1-123.4Zm23.3,11.8a38.3,38.3,0,0,1,3.5,8.4l-2.4.4a39,39,0,0,0-3.1-7.3A9.5,9.5,0,0,0-113.8-111.6Zm-1.8-11.5a6.6,6.6,0,0,1,0,9.4,6.8,6.8,0,0,1-9.4,0,6.8,6.8,0,0,1,0-9.4A6.6,6.6,0,0,1-115.6-123.1ZM-145-135.3a6.7,6.7,0,0,1,6.7,6.6A6.7,6.7,0,0,1-145-122a6.7,6.7,0,0,1-6.6-6.7,4.9,4.9,0,0,1,.1-1.2.4.4,0,0,1,.1-.3A6.6,6.6,0,0,1-145-135.3Zm-19.1,24.5,8.4,8.4a14.1,14.1,0,0,0-3,7.3h-11.8a9.9,9.9,0,0,0-4.1-6.5,29,29,0,0,1,3.1-7.5A9.3,9.3,0,0,0-164.1-110.8Zm-10.1.7a33,33,0,0,0-3,7.3l-2.5-.4a38.3,38.3,0,0,1,3.5-8.4A9.5,9.5,0,0,0-174.2-110.1Zm-12.3,16.4a6.7,6.7,0,0,1,6.6-6.7,6.7,6.7,0,0,1,6.7,6.7,6.6,6.6,0,0,1-6.7,6.6A6.6,6.6,0,0,1-186.5-93.7Zm16.8,31.4a6.3,6.3,0,0,1-4.6-2,6.6,6.6,0,0,1,0-9.4,6.5,6.5,0,0,1,9.3,0,6.6,6.6,0,0,1,0,9.4A6.7,6.7,0,0,1-169.7-62.3Zm42.3,16.6c.1.3,0,.5-.4.6h-34.4c-.3-.1-.5-.3-.4-.6l4.3-11.6A21.3,21.3,0,0,0-154-56a9.5,9.5,0,0,0,9,6.7,9.3,9.3,0,0,0,9-6.7,22.3,22.3,0,0,0,4.4-1.3Zm1.5-30.9-8.4-8.4a13.6,13.6,0,0,0,3-7.3h11.9a9.5,9.5,0,0,0,4.1,6.5,30.8,30.8,0,0,1-3.2,7.5l-1.8-.2A9.5,9.5,0,0,0-125.9-76.6Zm10.1-.7a39,39,0,0,0,3.1-7.3,9.3,9.3,0,0,0,2.4.3,37.1,37.1,0,0,1-3.5,8.5A9.5,9.5,0,0,0-115.8-77.3Z"/><g class="cls-13"><rect class="cls-2" x="-4709.3" y="-2353.5" width="5391.4" height="4611.73"/></g><path class="cls-2" d="M-421.5-39.8h-74.6a2.6,2.6,0,0,1-2.5-2.6v-5.4a2.5,2.5,0,0,1,2.5-2.6h28.6a8.6,8.6,0,0,1-.7-2.1,6.7,6.7,0,0,1,1.4-5.3l.9-1.1a7.1,7.1,0,0,0,1.5-5.6l-.4-2.4H-476a6,6,0,0,1-5.9-6.2,1.2,1.2,0,0,0-.4-.8l-2.4-1.6a2.8,2.8,0,0,1-1-2.9,2.6,2.6,0,0,1,2.5-1.9h19.3v-2.9h-6.5a6.1,6.1,0,0,1-5.9-6.2,1.1,1.1,0,0,0-.3-.8l-2.4-1.6a2.7,2.7,0,0,1-1-2.9,2.6,2.6,0,0,1,2.4-1.9h13.7v-1.5a10,10,0,0,0-5.7-9.2l-.7-.4v-2.5h23v2.5l-.7.4a10,10,0,0,0-5.7,9.2v1.5H-440a2.6,2.6,0,0,1,2.4,1.9,2.7,2.7,0,0,1-1,2.9l-2.4,1.6a1.1,1.1,0,0,0-.3.8,6.1,6.1,0,0,1-5.9,6.2h-6.5v2.9h19.3a2.8,2.8,0,0,1,2.5,1.9,2.7,2.7,0,0,1-1,2.9l-2.4,1.6a.9.9,0,0,0-.4.8,6,6,0,0,1-5.9,6.2h-11.2l-.4,2.4a7.1,7.1,0,0,0,1.5,5.6l.9,1.1a6.7,6.7,0,0,1,1.4,5.3,8.6,8.6,0,0,1-.7,2.1h28.6a2.5,2.5,0,0,1,2.5,2.6v5.4A2.6,2.6,0,0,1-421.5-39.8Zm-74.6-8.1h0v5.4h74.6v-5.4h-35.1l3.1-2.3a4,4,0,0,0,1.6-2.7,3.9,3.9,0,0,0-.9-3.3l-.9-1.2a9.5,9.5,0,0,1-2-7.5l.7-4.5h13.4a3.6,3.6,0,0,0,3.4-3.7,3.2,3.2,0,0,1,1.5-2.8l2.3-1.7h-21.8v-7.9h9a3.6,3.6,0,0,0,3.4-3.7,3.4,3.4,0,0,1,1.4-2.8l2.4-1.7h-16.2v-4a13.2,13.2,0,0,1,4.2-9.6h-13.6a13.2,13.2,0,0,1,4.2,9.6v4h-16.2v.2l2.4,1.7a3.4,3.4,0,0,1,1.4,2.8,3.6,3.6,0,0,0,3.4,3.7h9v7.9h-21.8a.1.1,0,0,0,0,.2l2.3,1.7a3.5,3.5,0,0,1,1.5,2.8,3.6,3.6,0,0,0,3.4,3.7h13.4l.7,4.5a9.5,9.5,0,0,1-2,7.5l-.9,1.2a3.9,3.9,0,0,0-.9,3.3,4,4,0,0,0,1.6,2.7l3,2.3Z"/><g class="cls-14"><path class="cls-2" d="M1964.1,1744.1H-2913.2V-2662.2H1964.1Zm-4874.3-3H1961.1V-2659.2H-2910.2Z"/></g><path class="cls-4" d="M-491.2-81a2.8,2.8,0,0,1,2.8-2.8,5.7,5.7,0,0,0,5.7-5.7v-7a2.8,2.8,0,0,1,2.8-2.8h8.4v-2.8h-8.4a5.7,5.7,0,0,0-5.7,5.6v7a2.8,2.8,0,0,1-2.8,2.9A5.6,5.6,0,0,0-494-81v19.7h2.8Z"/><g class="cls-15"><rect class="cls-2" x="-3145" y="-2758.1" width="5338" height="4566.05"/></g><path class="cls-2" d="M-458.8-112.6a2.3,2.3,0,0,1-1.9-1l-3.2-5.4a2.1,2.1,0,0,1,.4-2.6l3.2-3.2a2.2,2.2,0,0,1,3,0l3.2,3.2a2,2,0,0,1,.3,2.6l-3.1,5.3A2.1,2.1,0,0,1-458.8-112.6Zm0-2.2Zm0-8.5-3.2,3.2,3.2,5.3,3.2-5.3Z"/><g class="cls-16"><path class="cls-2" d="M1548.3,1339.8H-2492V-2116.5H1548.3Zm-4038.1-2.2H1546.1V-2114.3H-2489.8Z"/></g><path class="cls-4" d="M-446.1-102.1v2.8h8.4a2.8,2.8,0,0,1,2.8,2.8v7a5.7,5.7,0,0,0,5.7,5.7,2.8,2.8,0,0,1,2.8,2.8v19.7h2.8V-81a5.6,5.6,0,0,0-5.6-5.6,2.8,2.8,0,0,1-2.8-2.9v-7a5.7,5.7,0,0,0-5.7-5.6Z"/><g class="cls-17"><rect class="cls-2" x="-3145" y="-2758.1" width="5338" height="4566.05"/></g><path class="cls-4" d="M-440.5-112h2.8a8.5,8.5,0,0,0-8.4-8.4h-2.8v2.8h2.8a5.6,5.6,0,0,1,5.6,5.6"/><g class="cls-18"><rect class="cls-2" x="-3145" y="-2758.1" width="5338" height="4566.05"/></g><path class="cls-4" d="M-471.5-117.6h2.8v-2.8h-2.8a8.5,8.5,0,0,0-8.4,8.4h2.8a5.6,5.6,0,0,1,5.6-5.6"/><g class="cls-19"><rect class="cls-2" x="-3145" y="-2758.1" width="5338" height="4566.05"/></g><path class="cls-4" d="M8.4-53.1a4.6,4.6,0,0,1-3.1,1.3,4.4,4.4,0,0,1-3.1-1.3A7.8,7.8,0,0,0-2.9-55a7.5,7.5,0,0,0-5,1.9A4.6,4.6,0,0,1-11-51.8a4.4,4.4,0,0,1-3.1-1.3A7.8,7.8,0,0,0-19.2-55a7.7,7.7,0,0,0-5,1.9,4.4,4.4,0,0,1-3.1,1.3,4.4,4.4,0,0,1-1.8-.4V-94.4h22v3.2h3.2v-3.2h1.6A3.1,3.1,0,0,0,.8-97.5v-3.2a3.1,3.1,0,0,0-3.1-3.1h-.1a30,30,0,0,0-28.3-28.3v-1.6a4.7,4.7,0,0,0-4.7-4.7,4.7,4.7,0,0,0-4.7,4.7v1.6a30,30,0,0,0-28.3,28.3h-.1a3.1,3.1,0,0,0-3.1,3.1v3.2a3.1,3.1,0,0,0,3.1,3.1h1.6v3.2h3.2v-3.2h22v42.1a3.6,3.6,0,0,1-1.9.5,4.6,4.6,0,0,1-3.1-1.3,7.5,7.5,0,0,0-5-1.9,7.5,7.5,0,0,0-5,1.9,4.6,4.6,0,0,1-3.1,1.3,4.4,4.4,0,0,1-3.1-1.3A7.8,7.8,0,0,0-68-55a7.7,7.7,0,0,0-5,1.9,4.4,4.4,0,0,1-3.1,1.3,4.4,4.4,0,0,1-3.1-1.3,7.5,7.5,0,0,0-5-1.9v3.2a4.4,4.4,0,0,1,3.1,1.2,7.5,7.5,0,0,0,5,1.9,7.5,7.5,0,0,0,5-1.9A4.8,4.8,0,0,1-68-51.8a4.4,4.4,0,0,1,3.1,1.2,7.8,7.8,0,0,0,5.1,1.9,7.7,7.7,0,0,0,5-1.9,4.4,4.4,0,0,1,3.1-1.2,4.4,4.4,0,0,1,3.1,1.2,7.7,7.7,0,0,0,5,1.9,7.8,7.8,0,0,0,5.1-1.9,4.4,4.4,0,0,1,3.1-1.2,4.6,4.6,0,0,1,3.1,1.2,7.5,7.5,0,0,0,5,1.9,7.5,7.5,0,0,0,5-1.9,4.6,4.6,0,0,1,3.1-1.2,4.4,4.4,0,0,1,3.1,1.2A7.8,7.8,0,0,0-11-48.7a7.7,7.7,0,0,0,5-1.9,4.4,4.4,0,0,1,3.1-1.2A4.4,4.4,0,0,1,.2-50.6a7.8,7.8,0,0,0,5.1,1.9,7.7,7.7,0,0,0,5-1.9,4.4,4.4,0,0,1,3.1-1.2V-55A7.5,7.5,0,0,0,8.4-53.1Zm-43.8-82.2a1.6,1.6,0,0,1,1.6,1.6v1.6H-37v-1.6A1.6,1.6,0,0,1-35.4-135.3Zm-4.3,6.4A37.2,37.2,0,0,0-48.1-117l2.9,1.2a34.8,34.8,0,0,1,9.8-12.7,33.2,33.2,0,0,1,12.5,24.7h-25a30.4,30.4,0,0,1,1.6-9l-3-.9a36.8,36.8,0,0,0-1.8,9.9H-65.2A26.7,26.7,0,0,1-39.7-128.9Zm-28.8,28.2h53.6v-3.1h-4.8a36.7,36.7,0,0,0-11.4-25.1A26.7,26.7,0,0,1-5.6-103.8h-6.2v3.1h9.5v3.2H-68.5ZM-35.4-55a7.2,7.2,0,0,0-3.2.7V-94.4h6.3v40.1A6.8,6.8,0,0,0-35.4-55Z"/><g class="cls-20"><rect class="cls-2" x="-2832.2" y="-2540.4" width="5224.4" height="4468.85"/></g><path class="cls-4" d="M5.3-44a4.8,4.8,0,0,1-3.2-1.2,7,7,0,0,0-5-1.9,7,7,0,0,0-5,1.9A4.6,4.6,0,0,1-11-44a4.4,4.4,0,0,1-3.1-1.2,7.3,7.3,0,0,0-5.1-1.9,7.2,7.2,0,0,0-5,1.9A4.4,4.4,0,0,1-27.3-44a4.4,4.4,0,0,1-3.1-1.2,7.2,7.2,0,0,0-5-1.9,7.3,7.3,0,0,0-5.1,1.9A4.4,4.4,0,0,1-43.6-44a4.6,4.6,0,0,1-3.1-1.2,7,7,0,0,0-5-1.9,7,7,0,0,0-5,1.9A4.6,4.6,0,0,1-59.8-44a4.4,4.4,0,0,1-3.1-1.2A7.3,7.3,0,0,0-68-47.1a7.2,7.2,0,0,0-5,1.9A4.4,4.4,0,0,1-76.1-44a4.4,4.4,0,0,1-3.1-1.2,7,7,0,0,0-5-1.9V-44a4.1,4.1,0,0,1,3.1,1.3,7.5,7.5,0,0,0,5,1.9,7.5,7.5,0,0,0,5-1.9A4.2,4.2,0,0,1-68-44a4.1,4.1,0,0,1,3.1,1.3,7.8,7.8,0,0,0,5.1,1.9,7.7,7.7,0,0,0,5-1.9A4.1,4.1,0,0,1-51.7-44a4.1,4.1,0,0,1,3.1,1.3,7.7,7.7,0,0,0,5,1.9,7.8,7.8,0,0,0,5.1-1.9A4.1,4.1,0,0,1-35.4-44a4.2,4.2,0,0,1,3.1,1.3,7.5,7.5,0,0,0,5,1.9,7.5,7.5,0,0,0,5-1.9A4.2,4.2,0,0,1-19.2-44a4.1,4.1,0,0,1,3.1,1.3A7.8,7.8,0,0,0-11-40.8a7.7,7.7,0,0,0,5-1.9A4.1,4.1,0,0,1-2.9-44,4.1,4.1,0,0,1,.2-42.7a7.8,7.8,0,0,0,5.1,1.9,7.7,7.7,0,0,0,5-1.9A4.1,4.1,0,0,1,13.4-44v-3.1a7,7,0,0,0-5,1.9A4.6,4.6,0,0,1,5.3-44"/><g class="cls-21"><rect class="cls-2" x="-2832.2" y="-2540.4" width="5224.4" height="4468.85"/></g><path class="cls-4" d="M-26-62.9a4.9,4.9,0,0,0,4.8,4.8,4.8,4.8,0,0,0,4.7-4.8V-66h-3.2v3.1a1.6,1.6,0,0,1-1.5,1.6,1.6,1.6,0,0,1-1.6-1.6v-22H-26Z"/><g class="cls-22"><rect class="cls-2" x="-2832.2" y="-2540.4" width="5224.4" height="4468.85"/></g><path class="cls-4" d="M-3.9-73.9v-7.9H-7.1v7.9a1.6,1.6,0,0,1-1.5,1.6,1.6,1.6,0,0,1-1.6-1.6V-86.5a4.7,4.7,0,0,0-4.7-4.7,4.8,4.8,0,0,0-4.8,4.7v4.7h3.2v-4.7a1.6,1.6,0,0,1,1.6-1.6,1.6,1.6,0,0,1,1.5,1.6v12.6a4.8,4.8,0,0,0,4.8,4.7,4.7,4.7,0,0,0,4.7-4.7"/><g class="cls-23"><rect class="cls-2" x="-2832.2" y="-2540.4" width="5224.4" height="4468.85"/></g><path class="cls-4" d="M-48-62.9a1.6,1.6,0,0,1-1.6,1.6,1.6,1.6,0,0,1-1.6-1.6V-66h-3.1v3.1a4.8,4.8,0,0,0,4.7,4.8,4.8,4.8,0,0,0,4.7-4.8v-22H-48Z"/><g class="cls-24"><rect class="cls-2" x="-2832.2" y="-2540.4" width="5224.4" height="4468.85"/></g><path class="cls-4" d="M-66.9-73.9a4.7,4.7,0,0,0,4.7,4.7,4.8,4.8,0,0,0,4.8-4.7V-86.5a1.6,1.6,0,0,1,1.5-1.6,1.6,1.6,0,0,1,1.6,1.6v4.7h3.1v-4.7a4.7,4.7,0,0,0-4.7-4.7,4.7,4.7,0,0,0-4.7,4.7v12.6a1.6,1.6,0,0,1-1.6,1.6,1.6,1.6,0,0,1-1.5-1.6v-7.9h-3.2Z"/><g class="cls-25"><rect class="cls-2" x="-2832.2" y="-2540.4" width="5224.4" height="4468.85"/></g><path class="cls-4" d="M-76.3-62.9a17.7,17.7,0,0,1,5.6.9l4.9,1.7-2.6-6.6a8.4,8.4,0,0,0-7.9-5.4,4.8,4.8,0,0,0-4.8,4.7,4.8,4.8,0,0,0,4.8,4.7m0-6.3a5.4,5.4,0,0,1,5,3.4v.4a22.2,22.2,0,0,0-5.1-.6,1.6,1.6,0,0,1-1.6-1.6,1.6,1.6,0,0,1,1.6-1.6"/><g class="cls-26"><rect class="cls-2" x="-2832.2" y="-2540.4" width="5224.4" height="4468.85"/></g><path class="cls-4" d="M-2.4-66.9l-2.7,6.6,5-1.7a17.7,17.7,0,0,1,5.6-.9,4.8,4.8,0,0,0,4.8-4.7,4.8,4.8,0,0,0-4.8-4.7A8.4,8.4,0,0,0-2.4-66.9ZM.5-65.8a5.4,5.4,0,0,1,5-3.4,1.6,1.6,0,0,1,1.6,1.6A1.6,1.6,0,0,1,5.5-66a21.6,21.6,0,0,0-5.1.6Z"/><g class="cls-27"><rect class="cls-2" x="-2832.2" y="-2540.4" width="5224.4" height="4468.85"/></g><g class="cls-28"><path class="cls-2" d="M80.3,60.1a2,2,0,0,0,2.1-2V54.5H85a2,2,0,0,0,2.1-2V47.8A2.1,2.1,0,0,0,85,45.7H81.4v-14l1.1.2,1.2-.2a4.4,4.4,0,0,0,2.8-2.2,4.3,4.3,0,0,0,.4-3.5,4.3,4.3,0,0,0-2.1-2.8L46,.9A4,4,0,0,0,43.6.2a4.9,4.9,0,0,0-2.5.6L2.3,23.2A4.6,4.6,0,0,0,.6,29.5a4.4,4.4,0,0,0,2.8,2.2,4.5,4.5,0,0,0,2.3,0v14H2.1A2.1,2.1,0,0,0,0,47.8v4.7a2,2,0,0,0,2.1,2H4.7v3.6a2,2,0,0,0,2.1,2H8.3V72.5H6.8a2.1,2.1,0,0,0-2.1,2.1v3.5H2.1A2.1,2.1,0,0,0,0,80.2v4.6a2.1,2.1,0,0,0,2.1,2.1H40.9a1.3,1.3,0,1,0,0-2.6H2.6V80.7h82v3.6H46.8a1.3,1.3,0,1,0,0,2.6H85a2.1,2.1,0,0,0,2.1-2.1V80.2A2.1,2.1,0,0,0,85,78.1H82.4V74.6a2.1,2.1,0,0,0-2.1-2.1H78.8V60.1ZM5.7,29a1.8,1.8,0,0,1-1.6.2,2.4,2.4,0,0,1-1.3-.9h0a2.2,2.2,0,0,1,.8-2.9L42.4,3.1a2.1,2.1,0,0,1,1.2-.3,2.7,2.7,0,0,1,1.2.3L83.5,25.4a2.6,2.6,0,0,1,1,1.3,2.3,2.3,0,0,1-.2,1.6,2.1,2.1,0,0,1-1.3.9,1.6,1.6,0,0,1-1.5-.2L44.2,7.5l-.6-.2-.7.2ZM2.6,48.3H40.9a1.3,1.3,0,1,0,0-2.6H8.3V30.5L43.6,10.1,78.8,30.5V45.7H46.6a1.3,1.3,0,0,0,0,2.6h38V52H2.6Zm33,9.2v-3H51.5v3Zm12.3,2.6V72.5H39.2V60.1ZM7.3,57.5v-3H23.1v3Zm12.2,2.6V72.5H10.9V60.1Zm3.6,18H7.3v-3H23.1Zm10-3.5v3.5H25.7V74.6a2.2,2.2,0,0,0-2.1-2.1H22.1V60.1h1.5a2.1,2.1,0,0,0,2.1-2V54.5h7.4v3.6a2,2,0,0,0,2,2h1.6V72.5H35.1a2.1,2.1,0,0,0-2,2.1Zm18.4,3.5H35.6v-3H51.5Zm10-3.5v3.5H54V74.6a2.1,2.1,0,0,0-2-2.1H50.4V60.1H52a2,2,0,0,0,2-2V54.5h7.5v3.6a2,2,0,0,0,2,2H65V72.5H63.5a2.1,2.1,0,0,0-2,2.1Zm18.3.5v3H64v-3ZM67.6,72.5V60.1h8.7V72.5ZM64,57.5v-3H79.8v3Zm0,0"/></g><path class="cls-2" d="M43.5,22.4a7,7,0,1,0,6.9,7A7,7,0,0,0,43.5,22.4Zm0,10.8a3.8,3.8,0,1,1,0-7.6,3.8,3.8,0,0,1,0,7.6Z"/></svg>