<svg id="Layer_1" data-name="Layer 1" xmlns="http://www.w3.org/2000/svg" xmlns:xlink="http://www.w3.org/1999/xlink" viewBox="0 0 81.1 84.1"><defs><style>.cls-1,.cls-2,.cls-3{fill:#221c45;}.cls-1{clip-rule:evenodd;}.cls-3{fill-rule:evenodd;}.cls-4{clip-path:url(#clip-path);}.cls-5{clip-path:url(#clip-path-2);}.cls-6{clip-path:url(#clip-path-3);}.cls-7{clip-path:url(#clip-path-4);}.cls-8{clip-path:url(#clip-path-5);}.cls-9{clip-path:url(#clip-path-6);}.cls-10{clip-path:url(#clip-path-7);}.cls-11{clip-path:url(#clip-path-8);}.cls-12{clip-path:url(#clip-path-9);}.cls-13{clip-path:url(#clip-path-10);}.cls-14{clip-path:url(#clip-path-11);}.cls-15{clip-path:url(#clip-path-12);}.cls-16{clip-path:url(#clip-path-13);}.cls-17{clip-path:url(#clip-path-14);}.cls-18{clip-path:url(#clip-path-15);}.cls-19{clip-path:url(#clip-path-16);}.cls-20{clip-path:url(#clip-path-17);}.cls-21{clip-path:url(#clip-path-18);}.cls-22{clip-path:url(#clip-path-19);}.cls-23{clip-path:url(#clip-path-20);}.cls-24{clip-path:url(#clip-path-21);}.cls-25{clip-path:url(#clip-path-22);}.cls-26{clip-path:url(#clip-path-23);}</style><clipPath id="clip-path"><path class="cls-1" d="M273.6-47.7h15.9v-9.9H273.6Zm17.9,4H271.6a2,2,0,0,1-2-2V-59.6a2,2,0,0,1,2-2h19.9a2,2,0,0,1,2,2v13.9A2,2,0,0,1,291.5-43.7Z"/></clipPath><clipPath id="clip-path-2"><path class="cls-1" d="M263.7-47.7h35.8v-87.5H263.7Zm37.7,4H261.7a2,2,0,0,1-2-2v-91.5a2,2,0,0,1,2-2h39.7a2,2,0,0,1,2,2v91.5A2,2,0,0,1,301.4-43.7Z"/></clipPath><clipPath id="clip-path-3"><path class="cls-1" d="M247.7-47.7h12v-79.6h-12Zm14,4h-16a2,2,0,0,1-1.9-2v-83.6a2,2,0,0,1,1.9-1.9h16a2,2,0,0,1,2,1.9v83.6A2,2,0,0,1,261.7-43.7Z"/></clipPath><clipPath id="clip-path-4"><path class="cls-1" d="M303.4-47.7h12v-79.6h-12Zm14,4h-16a1.9,1.9,0,0,1-1.9-2v-83.6a1.9,1.9,0,0,1,1.9-1.9h16a1.9,1.9,0,0,1,1.9,1.9v83.6A1.9,1.9,0,0,1,317.4-43.7Z"/></clipPath><clipPath id="clip-path-5"><rect class="cls-2" x="229.8" y="-87.5" width="4" height="19.89" transform="translate(154.7 154.4) rotate(-53.1)"/></clipPath><clipPath id="clip-path-6"><rect class="cls-2" x="221.9" y="-79.5" width="19.9" height="3.98" transform="translate(92.9 123.6) rotate(-36.9)"/></clipPath><clipPath id="clip-path-7"><rect class="cls-2" x="329.3" y="-87.5" width="4" height="19.89" transform="translate(194.5 234) rotate(-53.1)"/></clipPath><clipPath id="clip-path-8"><rect class="cls-2" x="321.3" y="-79.5" width="19.9" height="3.97" transform="translate(112.7 183.2) rotate(-36.8)"/></clipPath><clipPath id="clip-path-9"><path class="cls-1" d="M89.5-97.2a9.5,9.5,0,0,0-6.7-9,38.4,38.4,0,0,0-4.6-11.3,9.6,9.6,0,0,0-1.7-11.1,9.4,9.4,0,0,0-6.7-2.7,8.5,8.5,0,0,0-4.4,1.1,36.6,36.6,0,0,0-11.2-4.7,9.5,9.5,0,0,0-9.1-6.7,9.5,9.5,0,0,0-9,6.7,35.6,35.6,0,0,0-11.2,4.7,9.1,9.1,0,0,0-7.2-.7,1.4,1.4,0,0,0,.8,2.7,6.6,6.6,0,0,1,6.7,1.6,6.8,6.8,0,0,1,0,9.4,6.6,6.6,0,0,1-9.4,0,6.6,6.6,0,0,1-1.5-7.2c.7-1.6-1.9-2.8-2.6-1.1a9.3,9.3,0,0,0,.4,8,41.6,41.6,0,0,0-4.7,11.3,9.5,9.5,0,0,0-6.6,9,9.5,9.5,0,0,0,6.6,9.1,42.3,42.3,0,0,0,4.7,11.2,9.4,9.4,0,0,0,1.7,11.1,9.6,9.6,0,0,0,11.1,1.7,35.5,35.5,0,0,0,4.3,2.3L24.9-50.2A3.3,3.3,0,0,0,28-45.8H62.3a3.4,3.4,0,0,0,3.1-4.4L61.1-61.8a35.5,35.5,0,0,0,4.3-2.3A9.9,9.9,0,0,0,69.8-63a7.1,7.1,0,0,0,2.9-.5c1.7-.5.9-3.2-.8-2.6a7,7,0,0,1-6.8-1.6,6.8,6.8,0,0,1,0-9.5,6.8,6.8,0,0,1,9.4,0A6.6,6.6,0,0,1,76-70c-.7,1.6,1.9,2.8,2.6,1.1a10.1,10.1,0,0,0-.4-8,39,39,0,0,0,4.6-11.2A9.5,9.5,0,0,0,89.5-97.2Zm-2.8,0A6.7,6.7,0,0,1,80-90.5a6.7,6.7,0,0,1-6.6-6.7,6.7,6.7,0,0,1,6.6-6.6A6.7,6.7,0,0,1,86.7-97.2Zm-16-1.4H58.8a13.2,13.2,0,0,0-3-7.3l8.4-8.4a9.5,9.5,0,0,0,7.5,1.7,33.7,33.7,0,0,1,3.1,7.6A9.1,9.1,0,0,0,70.7-98.6ZM58.9-63.9c-1.4.5-2.8,1.1-4.3,1.5a10.1,10.1,0,0,0-.4-2.5,31.2,31.2,0,0,0,7.3-3,9.5,9.5,0,0,0,1.5,2A31.1,31.1,0,0,1,58.9-63.9Zm-31.6-2a9.5,9.5,0,0,0,1.5-2,31.2,31.2,0,0,0,7.3,3,6.9,6.9,0,0,0-.4,2.5A36.4,36.4,0,0,1,27.3-65.9ZM13.9-79.3a36.4,36.4,0,0,1-3.5-8.4,10.1,10.1,0,0,0,2.5-.4,31.2,31.2,0,0,0,3,7.3A9.5,9.5,0,0,0,13.9-79.3Zm4.7-2.4a31.2,31.2,0,0,1-3.1-7.6,9.9,9.9,0,0,0,4.1-6.5H31.4a13.4,13.4,0,0,0,3.1,7.3L26-80.1A9.7,9.7,0,0,0,18.6-81.7ZM43.7-71.6a9.7,9.7,0,0,0-6.4,4.1,29.6,29.6,0,0,1-7.6-3.1A9.2,9.2,0,0,0,28-78.1l8.4-8.4a13.2,13.2,0,0,0,7.3,3Zm1.4,2.7a6.7,6.7,0,0,1,6.7,6.7,6.6,6.6,0,0,1-6.7,6.6,6.6,6.6,0,0,1-6.6-6.6A6.7,6.7,0,0,1,45.1-68.9Zm15.5-1.7A31.2,31.2,0,0,1,53-67.5a9.9,9.9,0,0,0-6.5-4.1V-83.5a12.6,12.6,0,0,0,7.3-3l8.4,8.4A9.6,9.6,0,0,0,60.6-70.6ZM45.1-86.2a10.9,10.9,0,0,1-10.9-11,10.9,10.9,0,0,1,10.9-10.9,10.9,10.9,0,0,1,11,10.9A11,11,0,0,1,45.1-86.2Zm-9-43.3a36.4,36.4,0,0,0-7.3,3.1,9.5,9.5,0,0,0-1.5-2,36.4,36.4,0,0,1,8.4-3.5A9.3,9.3,0,0,0,36.1-129.5Zm-6.4,5.8a29.9,29.9,0,0,1,7.6-3.2,9.3,9.3,0,0,0,6.4,4.1v11.9a14.8,14.8,0,0,0-7.3,3l-8.3-8.3A9.7,9.7,0,0,0,29.7-123.7Zm31.8-2.7a36.4,36.4,0,0,0-7.3-3.1,9.3,9.3,0,0,0,.4-2.4,38.3,38.3,0,0,1,8.4,3.5A9.5,9.5,0,0,0,61.5-126.4Zm-8.5-.5a31.5,31.5,0,0,1,7.6,3.2,9.3,9.3,0,0,0,1.6,7.4l-8.4,8.4a14.1,14.1,0,0,0-7.3-3v-11.9A9.5,9.5,0,0,0,53-126.9ZM76.3-115a31.1,31.1,0,0,1,3.5,8.4,6.7,6.7,0,0,0-2.4.4,32.2,32.2,0,0,0-3.1-7.4A10.1,10.1,0,0,0,76.3-115Zm-1.8-11.6a6.6,6.6,0,0,1,0,9.4,6.6,6.6,0,0,1-9.4,0,6.8,6.8,0,0,1,0-9.4A6.8,6.8,0,0,1,74.5-126.6ZM45.1-138.8a6.7,6.7,0,0,1,6.7,6.7,6.7,6.7,0,0,1-6.7,6.6,6.7,6.7,0,0,1-6.6-6.6,4.9,4.9,0,0,1,.1-1.2v-.3A6.6,6.6,0,0,1,45.1-138.8Zm-19,24.5,8.4,8.4a14.1,14.1,0,0,0-3.1,7.3H19.6a9.4,9.4,0,0,0-4.1-6.4,29.6,29.6,0,0,1,3.1-7.6A9.5,9.5,0,0,0,26.1-114.3Zm-10.2.7a31.9,31.9,0,0,0-3,7.4,6.9,6.9,0,0,0-2.5-.4,34.7,34.7,0,0,1,3.5-8.4ZM3.6-97.2a6.7,6.7,0,0,1,6.6-6.6,6.7,6.7,0,0,1,6.7,6.6,6.7,6.7,0,0,1-6.7,6.7A6.7,6.7,0,0,1,3.6-97.2ZM20.5-65.8a6.7,6.7,0,0,1-4.7-1.9,6.8,6.8,0,0,1,0-9.5,6.8,6.8,0,0,1,9.4,0,7,7,0,0,1,0,9.5A7,7,0,0,1,20.5-65.8ZM62.7-49.2c.1.3,0,.5-.4.6H28c-.4-.1-.5-.3-.5-.6l4.3-11.5,4.3,1.3a9.5,9.5,0,0,0,9,6.6,9.5,9.5,0,0,0,9.1-6.6l4.3-1.3Zm1.5-30.9-8.4-8.4a12.6,12.6,0,0,0,3-7.3H70.7a9.5,9.5,0,0,0,4.1,6.5,35.7,35.7,0,0,1-3.1,7.6,6.2,6.2,0,0,0-1.9-.2A9.4,9.4,0,0,0,64.2-80.1Zm10.1-.7a31.4,31.4,0,0,0,3.1-7.3,10,10,0,0,0,2.4.4,32.5,32.5,0,0,1-3.5,8.4A7.5,7.5,0,0,0,74.3-80.8Z"/></clipPath><clipPath id="clip-path-10"><path class="cls-2" d="M-231.4-43.2H-306a2.6,2.6,0,0,1-2.5-2.6v-5.5a2.6,2.6,0,0,1,2.5-2.6h28.6a6.5,6.5,0,0,1-.7-2.1,6.7,6.7,0,0,1,1.4-5.3l1-1.1a7.3,7.3,0,0,0,1.4-5.6l-.4-2.4h-11.2a6,6,0,0,1-5.9-6.1c0-.4-.1-.7-.4-.8l-2.3-1.7a2.4,2.4,0,0,1-1-2.9,2.6,2.6,0,0,1,2.4-1.9h19.3v-2.9h-6.5a5.9,5.9,0,0,1-5.8-6.1.9.9,0,0,0-.4-.8l-2.4-1.7a2.7,2.7,0,0,1-1-2.9,2.6,2.6,0,0,1,2.4-1.9h13.7v-1.4a10,10,0,0,0-5.7-9.3l-.7-.3v-2.5h23.1v2.5l-.8.3a10.2,10.2,0,0,0-5.7,9.3v1.4h13.7a2.6,2.6,0,0,1,2.4,1.9,2.7,2.7,0,0,1-1,2.9l-2.3,1.7c-.3.1-.4.4-.4.8a6,6,0,0,1-5.9,6.1h-6.5v2.9h19.3a2.6,2.6,0,0,1,2.5,1.9,2.7,2.7,0,0,1-1,2.9l-2.4,1.7a.9.9,0,0,0-.4.8,6,6,0,0,1-5.9,6.1h-11.2l-.4,2.4a7,7,0,0,0,1.5,5.6l.9,1.1a6.7,6.7,0,0,1,1.4,5.3,4.8,4.8,0,0,1-.7,2.1h28.6a2.6,2.6,0,0,1,2.5,2.6v5.5A2.6,2.6,0,0,1-231.4-43.2ZM-306-51.4h0v5.5h74.6v-5.5h-35.1l3.1-2.2a4.1,4.1,0,0,0,1.6-2.7,4.1,4.1,0,0,0-.9-3.4l-.9-1.1a9.7,9.7,0,0,1-2-7.6l.8-4.5h13.3a3.5,3.5,0,0,0,3.4-3.6,3.6,3.6,0,0,1,1.5-2.9l2.3-1.6c.1-.1.1-.1.1-.2h-21.9v-7.9h9a3.5,3.5,0,0,0,3.4-3.6,3.6,3.6,0,0,1,1.4-2.9l2.4-1.6v-.2h-16.2v-3.9a12.8,12.8,0,0,1,4.2-9.6h-13.6a12.8,12.8,0,0,1,4.2,9.6v3.9h-16.2v.3l2.4,1.6a3.6,3.6,0,0,1,1.5,2.9,3.5,3.5,0,0,0,3.3,3.6h9v7.9h-21.8c-.1.2,0,.2,0,.3l2.4,1.6a3.6,3.6,0,0,1,1.4,2.9,3.5,3.5,0,0,0,3.4,3.6h13.4l.7,4.5a9.8,9.8,0,0,1-2,7.6l-.9,1.1a4.1,4.1,0,0,0-.9,3.4,4.2,4.2,0,0,0,1.6,2.7l3.1,2.2Z"/></clipPath><clipPath id="clip-path-11"><path class="cls-1" d="M-301.1-84.5a2.9,2.9,0,0,1,2.8-2.8,5.6,5.6,0,0,0,5.7-5.6V-100a2.8,2.8,0,0,1,2.8-2.8h8.4v-2.8h-8.4a5.6,5.6,0,0,0-5.6,5.6v7.1a2.9,2.9,0,0,1-2.9,2.8,5.6,5.6,0,0,0-5.6,5.6v19.7h2.8Z"/></clipPath><clipPath id="clip-path-12"><path class="cls-2" d="M-268.7-116.1a2.1,2.1,0,0,1-1.8-1l-3.2-5.3a2.1,2.1,0,0,1,.3-2.7l3.2-3.2a2.2,2.2,0,0,1,3,0l3.2,3.2a2.3,2.3,0,0,1,.4,2.7l-3.2,5.3A2.3,2.3,0,0,1-268.7-116.1Zm0-2.1Zm0-8.5-3.2,3.2,3.2,5.2,3.2-5.3Z"/></clipPath><clipPath id="clip-path-13"><path class="cls-1" d="M-256-105.6v2.8h8.4a2.9,2.9,0,0,1,2.9,2.8v7.1a5.6,5.6,0,0,0,5.6,5.6,2.9,2.9,0,0,1,2.8,2.8v19.8h2.8V-84.5a5.6,5.6,0,0,0-5.6-5.6,2.8,2.8,0,0,1-2.8-2.8V-100a5.7,5.7,0,0,0-5.7-5.6Z"/></clipPath><clipPath id="clip-path-14"><path class="cls-1" d="M-250.4-115.4h2.8a8.5,8.5,0,0,0-8.4-8.5h-2.8v2.8h2.8a5.7,5.7,0,0,1,5.6,5.7"/></clipPath><clipPath id="clip-path-15"><path class="cls-1" d="M-281.4-121.1h2.9v-2.8h-2.9a8.5,8.5,0,0,0-8.4,8.5h2.8a5.6,5.6,0,0,1,5.6-5.7"/></clipPath><clipPath id="clip-path-16"><path class="cls-1" d="M198.5-56.6a4.2,4.2,0,0,1-3.1,1.3,4.1,4.1,0,0,1-3.1-1.3,7.8,7.8,0,0,0-5.1-1.9,7.7,7.7,0,0,0-5,1.9,4.1,4.1,0,0,1-3.1,1.3,4.1,4.1,0,0,1-3.1-1.3,7.7,7.7,0,0,0-5-1.9,7.8,7.8,0,0,0-5.1,1.9,4.1,4.1,0,0,1-3.1,1.3,3.2,3.2,0,0,1-1.8-.4V-97.8h22.1v3.1h3.1v-3.1h1.6a3.1,3.1,0,0,0,3.1-3.2v-3.1a3.2,3.2,0,0,0-3.1-3.2h-.1a29.9,29.9,0,0,0-28.3-28.2v-1.7a4.7,4.7,0,0,0-4.7-4.7,4.7,4.7,0,0,0-4.7,4.7v1.7a29.9,29.9,0,0,0-28.3,28.2h-.1a3.2,3.2,0,0,0-3.1,3.2v3.1a3.1,3.1,0,0,0,3.1,3.2h1.6v3.1h3.2v-3.1h22v42.1a4.4,4.4,0,0,1-1.8.4,4.4,4.4,0,0,1-3.2-1.3,7.3,7.3,0,0,0-5-1.9,7.5,7.5,0,0,0-5,1.9,4.2,4.2,0,0,1-3.1,1.3,4.4,4.4,0,0,1-3.1-1.2,7.3,7.3,0,0,0-5-2,7.8,7.8,0,0,0-5.1,1.9,4.1,4.1,0,0,1-3.1,1.3,4.2,4.2,0,0,1-3.1-1.3,7.5,7.5,0,0,0-5-1.9v3.2a4.4,4.4,0,0,1,3.1,1.2,7.2,7.2,0,0,0,5,1.9,7.3,7.3,0,0,0,5.1-1.9,4.4,4.4,0,0,1,3.1-1.2,4.6,4.6,0,0,1,3.1,1.2,7,7,0,0,0,5,1.9,7,7,0,0,0,5-1.9,4.4,4.4,0,0,1,3.1-1.2,4.4,4.4,0,0,1,3.1,1.2,7.3,7.3,0,0,0,5.1,1.9,7.2,7.2,0,0,0,5-1.9,4.4,4.4,0,0,1,3.1-1.2,4.4,4.4,0,0,1,3.1,1.2,7,7,0,0,0,5,1.9,7.3,7.3,0,0,0,5.1-1.9,4.4,4.4,0,0,1,3.1-1.2,4.6,4.6,0,0,1,3.1,1.2,7,7,0,0,0,5,1.9,7,7,0,0,0,5-1.9,4.6,4.6,0,0,1,3.1-1.2,4.4,4.4,0,0,1,3.1,1.2,7.3,7.3,0,0,0,5.1,1.9,7,7,0,0,0,5-1.9,4.4,4.4,0,0,1,3.1-1.2v-3.2A7.5,7.5,0,0,0,198.5-56.6Zm-43.8-82.2a1.6,1.6,0,0,1,1.6,1.6v1.6h-3.2v-1.6A1.6,1.6,0,0,1,154.7-138.8Zm-4.3,6.4a36.5,36.5,0,0,0-8.3,11.9l2.8,1.3a34.3,34.3,0,0,1,9.8-12.8,33.7,33.7,0,0,1,12.6,24.7H142.2a30.3,30.3,0,0,1,1.6-8.9l-3-1a42.1,42.1,0,0,0-1.8,9.9H124.9A26.7,26.7,0,0,1,150.4-132.4Zm-28.8,28.3h53.6v-3.2h-4.8a36.6,36.6,0,0,0-11.3-25.1,26.9,26.9,0,0,1,25.5,25.1h-6.3v3.2h9.5v3.1H121.6Zm33.1,45.6a6.8,6.8,0,0,0-3.1.7v-40h6.3v40A7.6,7.6,0,0,0,154.7-58.5Z"/></clipPath><clipPath id="clip-path-17"><path class="cls-1" d="M195.4-47.4a4.4,4.4,0,0,1-3.1-1.3,7.8,7.8,0,0,0-5.1-1.9,7.7,7.7,0,0,0-5,1.9,4.4,4.4,0,0,1-3.1,1.3,4.4,4.4,0,0,1-3.1-1.3,7.7,7.7,0,0,0-5-1.9,7.8,7.8,0,0,0-5.1,1.9,4.4,4.4,0,0,1-3.1,1.3,4.4,4.4,0,0,1-3.1-1.3,7.5,7.5,0,0,0-5-1.9,7.3,7.3,0,0,0-5,1.9,4.9,4.9,0,0,1-3.1,1.3,4.9,4.9,0,0,1-3.2-1.3,7.3,7.3,0,0,0-5-1.9,7.5,7.5,0,0,0-5,1.9,4.4,4.4,0,0,1-3.1,1.3,4.4,4.4,0,0,1-3.1-1.3,7.7,7.7,0,0,0-5-1.9,7.8,7.8,0,0,0-5.1,1.9,4.4,4.4,0,0,1-3.1,1.3,4.6,4.6,0,0,1-3.1-1.3,7.5,7.5,0,0,0-5-1.9v3.2a4.4,4.4,0,0,1,3.1,1.2,7.2,7.2,0,0,0,5,1.9,7.3,7.3,0,0,0,5.1-1.9,4.4,4.4,0,0,1,3.1-1.2,4.6,4.6,0,0,1,3.1,1.2,6.9,6.9,0,0,0,5,1.9,7,7,0,0,0,5-1.9,4.6,4.6,0,0,1,3.1-1.2,4.4,4.4,0,0,1,3.1,1.2,7.3,7.3,0,0,0,5.1,1.9,7.2,7.2,0,0,0,5-1.9,4.4,4.4,0,0,1,3.1-1.2,4.4,4.4,0,0,1,3.1,1.2,7,7,0,0,0,5,1.9,7.3,7.3,0,0,0,5.1-1.9,4.4,4.4,0,0,1,3.1-1.2,4.6,4.6,0,0,1,3.1,1.2,7,7,0,0,0,5,1.9,7,7,0,0,0,5-1.9,4.6,4.6,0,0,1,3.1-1.2,4.4,4.4,0,0,1,3.1,1.2,7.3,7.3,0,0,0,5.1,1.9,7,7,0,0,0,5-1.9,4.4,4.4,0,0,1,3.1-1.2v-3.2a7.5,7.5,0,0,0-5,1.9,4.4,4.4,0,0,1-3.1,1.3"/></clipPath><clipPath id="clip-path-18"><path class="cls-1" d="M164.2-66.3a4.7,4.7,0,0,0,4.7,4.7,4.7,4.7,0,0,0,4.7-4.7v-3.2h-3.1v3.2a1.6,1.6,0,0,1-1.6,1.5,1.6,1.6,0,0,1-1.6-1.5V-88.4h-3.1Z"/></clipPath><clipPath id="clip-path-19"><path class="cls-1" d="M186.2-77.3v-7.9H183v7.9a1.5,1.5,0,0,1-1.5,1.5,1.6,1.6,0,0,1-1.6-1.5V-89.9a4.8,4.8,0,0,0-4.7-4.8,4.8,4.8,0,0,0-4.7,4.8v4.7h3.1v-4.7a1.6,1.6,0,0,1,1.6-1.6,1.6,1.6,0,0,1,1.6,1.6v12.6a4.7,4.7,0,0,0,4.7,4.7,4.7,4.7,0,0,0,4.7-4.7"/></clipPath><clipPath id="clip-path-20"><path class="cls-1" d="M142.1-66.3a1.6,1.6,0,0,1-1.6,1.5,1.5,1.5,0,0,1-1.5-1.5v-3.2h-3.2v3.2a4.7,4.7,0,0,0,4.7,4.7,4.8,4.8,0,0,0,4.8-4.7V-88.4h-3.2Z"/></clipPath><clipPath id="clip-path-21"><path class="cls-1" d="M123.2-77.3a4.7,4.7,0,0,0,4.7,4.7,4.7,4.7,0,0,0,4.8-4.7V-89.9a1.6,1.6,0,0,1,1.5-1.6,1.6,1.6,0,0,1,1.6,1.6v4.7H139v-4.7a4.9,4.9,0,0,0-4.8-4.8,4.8,4.8,0,0,0-4.7,4.8v12.6a1.6,1.6,0,0,1-1.6,1.5,1.5,1.5,0,0,1-1.5-1.5v-7.9h-3.2Z"/></clipPath><clipPath id="clip-path-22"><path class="cls-1" d="M113.8-66.3a17.7,17.7,0,0,1,5.6.9l5,1.6-2.7-6.6a8.4,8.4,0,0,0-7.9-5.4,4.7,4.7,0,0,0-4.7,4.7,4.7,4.7,0,0,0,4.7,4.8m0-6.3a5.3,5.3,0,0,1,5,3.4l.2.4a18.6,18.6,0,0,0-5.2-.7,1.6,1.6,0,0,1-1.6-1.6,1.6,1.6,0,0,1,1.6-1.5"/></clipPath><clipPath id="clip-path-23"><path class="cls-1" d="M187.7-70.4l-2.6,6.6,4.9-1.6a17.7,17.7,0,0,1,5.6-.9,4.7,4.7,0,0,0,4.8-4.8,4.8,4.8,0,0,0-4.8-4.7A8.4,8.4,0,0,0,187.7-70.4Zm2.9,1.2a5.4,5.4,0,0,1,5-3.4,1.6,1.6,0,0,1,1.6,1.5,1.6,1.6,0,0,1-1.6,1.6,17.9,17.9,0,0,0-5.1.7Z"/></clipPath></defs><path class="cls-3" d="M273.6-47.7h15.9v-9.9H273.6Zm17.9,4H271.6a2,2,0,0,1-2-2V-59.6a2,2,0,0,1,2-2h19.9a2,2,0,0,1,2,2v13.9A2,2,0,0,1,291.5-43.7Z"/><g class="cls-4"><rect class="cls-2" x="-994.9" y="-3840.3" width="5804" height="4970.61"/></g><path class="cls-3" d="M263.7-47.7h35.8v-87.5H263.7Zm37.7,4H261.7a2,2,0,0,1-2-2v-91.5a2,2,0,0,1,2-2h39.7a2,2,0,0,1,2,2v91.5A2,2,0,0,1,301.4-43.7Z"/><g class="cls-5"><rect class="cls-2" x="-994.9" y="-3840.3" width="5804" height="4964.66"/></g><path class="cls-3" d="M247.7-47.7h12v-79.6h-12Zm14,4h-16a2,2,0,0,1-1.9-2v-83.6a2,2,0,0,1,1.9-1.9h16a2,2,0,0,1,2,1.9v83.6A2,2,0,0,1,261.7-43.7Z"/><g class="cls-6"><rect class="cls-2" x="-994.9" y="-3840.3" width="5804" height="4964.66"/></g><path class="cls-3" d="M303.4-47.7h12v-79.6h-12Zm14,4h-16a1.9,1.9,0,0,1-1.9-2v-83.6a1.9,1.9,0,0,1,1.9-1.9h16a1.9,1.9,0,0,1,1.9,1.9v83.6A1.9,1.9,0,0,1,317.4-43.7Z"/><g class="cls-7"><rect class="cls-2" x="-994.9" y="-3840.3" width="5804" height="4964.66"/></g><rect class="cls-2" x="229.8" y="-87.5" width="4" height="19.89" transform="translate(154.7 154.4) rotate(-53.1)"/><g class="cls-8"><rect class="cls-2" x="-994.9" y="-3840.3" width="5804" height="4964.66"/></g><rect class="cls-2" x="221.9" y="-79.5" width="19.9" height="3.98" transform="translate(92.9 123.6) rotate(-36.9)"/><g class="cls-9"><rect class="cls-2" x="-994.9" y="-3840.3" width="5804" height="4964.66"/></g><rect class="cls-2" x="329.3" y="-87.5" width="4" height="19.89" transform="translate(194.5 234) rotate(-53.1)"/><g class="cls-10"><rect class="cls-2" x="-994.9" y="-3840.3" width="5804" height="4964.66"/></g><rect class="cls-2" x="321.3" y="-79.5" width="19.9" height="3.97" transform="translate(112.7 183.2) rotate(-36.8)"/><g class="cls-11"><rect class="cls-2" x="-994.9" y="-3840.3" width="5804" height="4964.66"/></g><path class="cls-3" d="M89.5-97.2a9.5,9.5,0,0,0-6.7-9,38.4,38.4,0,0,0-4.6-11.3,9.6,9.6,0,0,0-1.7-11.1,9.4,9.4,0,0,0-6.7-2.7,8.5,8.5,0,0,0-4.4,1.1,36.6,36.6,0,0,0-11.2-4.7,9.5,9.5,0,0,0-9.1-6.7,9.5,9.5,0,0,0-9,6.7,35.6,35.6,0,0,0-11.2,4.7,9.1,9.1,0,0,0-7.2-.7,1.4,1.4,0,0,0,.8,2.7,6.6,6.6,0,0,1,6.7,1.6,6.8,6.8,0,0,1,0,9.4,6.6,6.6,0,0,1-9.4,0,6.6,6.6,0,0,1-1.5-7.2c.7-1.6-1.9-2.8-2.6-1.1a9.3,9.3,0,0,0,.4,8,41.6,41.6,0,0,0-4.7,11.3,9.5,9.5,0,0,0-6.6,9,9.5,9.5,0,0,0,6.6,9.1,42.3,42.3,0,0,0,4.7,11.2,9.4,9.4,0,0,0,1.7,11.1,9.6,9.6,0,0,0,11.1,1.7,35.5,35.5,0,0,0,4.3,2.3L24.9-50.2A3.3,3.3,0,0,0,28-45.8H62.3a3.4,3.4,0,0,0,3.1-4.4L61.1-61.8a35.5,35.5,0,0,0,4.3-2.3A9.9,9.9,0,0,0,69.8-63a7.1,7.1,0,0,0,2.9-.5c1.7-.5.9-3.2-.8-2.6a7,7,0,0,1-6.8-1.6,6.8,6.8,0,0,1,0-9.5,6.8,6.8,0,0,1,9.4,0A6.6,6.6,0,0,1,76-70c-.7,1.6,1.9,2.8,2.6,1.1a10.1,10.1,0,0,0-.4-8,39,39,0,0,0,4.6-11.2A9.5,9.5,0,0,0,89.5-97.2Zm-2.8,0A6.7,6.7,0,0,1,80-90.5a6.7,6.7,0,0,1-6.6-6.7,6.7,6.7,0,0,1,6.6-6.6A6.7,6.7,0,0,1,86.7-97.2Zm-16-1.4H58.8a13.2,13.2,0,0,0-3-7.3l8.4-8.4a9.5,9.5,0,0,0,7.5,1.7,33.7,33.7,0,0,1,3.1,7.6A9.1,9.1,0,0,0,70.7-98.6ZM58.9-63.9c-1.4.5-2.8,1.1-4.3,1.5a10.1,10.1,0,0,0-.4-2.5,31.2,31.2,0,0,0,7.3-3,9.5,9.5,0,0,0,1.5,2A31.1,31.1,0,0,1,58.9-63.9Zm-31.6-2a9.5,9.5,0,0,0,1.5-2,31.2,31.2,0,0,0,7.3,3,6.9,6.9,0,0,0-.4,2.5A36.4,36.4,0,0,1,27.3-65.9ZM13.9-79.3a36.4,36.4,0,0,1-3.5-8.4,10.1,10.1,0,0,0,2.5-.4,31.2,31.2,0,0,0,3,7.3A9.5,9.5,0,0,0,13.9-79.3Zm4.7-2.4a31.2,31.2,0,0,1-3.1-7.6,9.9,9.9,0,0,0,4.1-6.5H31.4a13.4,13.4,0,0,0,3.1,7.3L26-80.1A9.7,9.7,0,0,0,18.6-81.7ZM43.7-71.6a9.7,9.7,0,0,0-6.4,4.1,29.6,29.6,0,0,1-7.6-3.1A9.2,9.2,0,0,0,28-78.1l8.4-8.4a13.2,13.2,0,0,0,7.3,3Zm1.4,2.7a6.7,6.7,0,0,1,6.7,6.7,6.6,6.6,0,0,1-6.7,6.6,6.6,6.6,0,0,1-6.6-6.6A6.7,6.7,0,0,1,45.1-68.9Zm15.5-1.7A31.2,31.2,0,0,1,53-67.5a9.9,9.9,0,0,0-6.5-4.1V-83.5a12.6,12.6,0,0,0,7.3-3l8.4,8.4A9.6,9.6,0,0,0,60.6-70.6ZM45.1-86.2a10.9,10.9,0,0,1-10.9-11,10.9,10.9,0,0,1,10.9-10.9,10.9,10.9,0,0,1,11,10.9A11,11,0,0,1,45.1-86.2Zm-9-43.3a36.4,36.4,0,0,0-7.3,3.1,9.5,9.5,0,0,0-1.5-2,36.4,36.4,0,0,1,8.4-3.5A9.3,9.3,0,0,0,36.1-129.5Zm-6.4,5.8a29.9,29.9,0,0,1,7.6-3.2,9.3,9.3,0,0,0,6.4,4.1v11.9a14.8,14.8,0,0,0-7.3,3l-8.3-8.3A9.7,9.7,0,0,0,29.7-123.7Zm31.8-2.7a36.4,36.4,0,0,0-7.3-3.1,9.3,9.3,0,0,0,.4-2.4,38.3,38.3,0,0,1,8.4,3.5A9.5,9.5,0,0,0,61.5-126.4Zm-8.5-.5a31.5,31.5,0,0,1,7.6,3.2,9.3,9.3,0,0,0,1.6,7.4l-8.4,8.4a14.1,14.1,0,0,0-7.3-3v-11.9A9.5,9.5,0,0,0,53-126.9ZM76.3-115a31.1,31.1,0,0,1,3.5,8.4,6.7,6.7,0,0,0-2.4.4,32.2,32.2,0,0,0-3.1-7.4A10.1,10.1,0,0,0,76.3-115Zm-1.8-11.6a6.6,6.6,0,0,1,0,9.4,6.6,6.6,0,0,1-9.4,0,6.8,6.8,0,0,1,0-9.4A6.8,6.8,0,0,1,74.5-126.6ZM45.1-138.8a6.7,6.7,0,0,1,6.7,6.7,6.7,6.7,0,0,1-6.7,6.6,6.7,6.7,0,0,1-6.6-6.6,4.9,4.9,0,0,1,.1-1.2v-.3A6.6,6.6,0,0,1,45.1-138.8Zm-19,24.5,8.4,8.4a14.1,14.1,0,0,0-3.1,7.3H19.6a9.4,9.4,0,0,0-4.1-6.4,29.6,29.6,0,0,1,3.1-7.6A9.5,9.5,0,0,0,26.1-114.3Zm-10.2.7a31.9,31.9,0,0,0-3,7.4,6.9,6.9,0,0,0-2.5-.4,34.7,34.7,0,0,1,3.5-8.4ZM3.6-97.2a6.7,6.7,0,0,1,6.6-6.6,6.7,6.7,0,0,1,6.7,6.6,6.7,6.7,0,0,1-6.7,6.7A6.7,6.7,0,0,1,3.6-97.2ZM20.5-65.8a6.7,6.7,0,0,1-4.7-1.9,6.8,6.8,0,0,1,0-9.5,6.8,6.8,0,0,1,9.4,0,7,7,0,0,1,0,9.5A7,7,0,0,1,20.5-65.8ZM62.7-49.2c.1.3,0,.5-.4.6H28c-.4-.1-.5-.3-.5-.6l4.3-11.5,4.3,1.3a9.5,9.5,0,0,0,9,6.6,9.5,9.5,0,0,0,9.1-6.6l4.3-1.3Zm1.5-30.9-8.4-8.4a12.6,12.6,0,0,0,3-7.3H70.7a9.5,9.5,0,0,0,4.1,6.5,35.7,35.7,0,0,1-3.1,7.6,6.2,6.2,0,0,0-1.9-.2A9.4,9.4,0,0,0,64.2-80.1Zm10.1-.7a31.4,31.4,0,0,0,3.1-7.3,10,10,0,0,0,2.4.4,32.5,32.5,0,0,1-3.5,8.4A7.5,7.5,0,0,0,74.3-80.8Z"/><g class="cls-12"><rect class="cls-2" x="-4519.2" y="-2356.9" width="5391.4" height="4611.73"/></g><path class="cls-2" d="M-231.4-43.2H-306a2.6,2.6,0,0,1-2.5-2.6v-5.5a2.6,2.6,0,0,1,2.5-2.6h28.6a6.5,6.5,0,0,1-.7-2.1,6.7,6.7,0,0,1,1.4-5.3l1-1.1a7.3,7.3,0,0,0,1.4-5.6l-.4-2.4h-11.2a6,6,0,0,1-5.9-6.1c0-.4-.1-.7-.4-.8l-2.3-1.7a2.4,2.4,0,0,1-1-2.9,2.6,2.6,0,0,1,2.4-1.9h19.3v-2.9h-6.5a5.9,5.9,0,0,1-5.8-6.1.9.9,0,0,0-.4-.8l-2.4-1.7a2.7,2.7,0,0,1-1-2.9,2.6,2.6,0,0,1,2.4-1.9h13.7v-1.4a10,10,0,0,0-5.7-9.3l-.7-.3v-2.5h23.1v2.5l-.8.3a10.2,10.2,0,0,0-5.7,9.3v1.4h13.7a2.6,2.6,0,0,1,2.4,1.9,2.7,2.7,0,0,1-1,2.9l-2.3,1.7c-.3.1-.4.4-.4.8a6,6,0,0,1-5.9,6.1h-6.5v2.9h19.3a2.6,2.6,0,0,1,2.5,1.9,2.7,2.7,0,0,1-1,2.9l-2.4,1.7a.9.9,0,0,0-.4.8,6,6,0,0,1-5.9,6.1h-11.2l-.4,2.4a7,7,0,0,0,1.5,5.6l.9,1.1a6.7,6.7,0,0,1,1.4,5.3,4.8,4.8,0,0,1-.7,2.1h28.6a2.6,2.6,0,0,1,2.5,2.6v5.5A2.6,2.6,0,0,1-231.4-43.2ZM-306-51.4h0v5.5h74.6v-5.5h-35.1l3.1-2.2a4.1,4.1,0,0,0,1.6-2.7,4.1,4.1,0,0,0-.9-3.4l-.9-1.1a9.7,9.7,0,0,1-2-7.6l.8-4.5h13.3a3.5,3.5,0,0,0,3.4-3.6,3.6,3.6,0,0,1,1.5-2.9l2.3-1.6c.1-.1.1-.1.1-.2h-21.9v-7.9h9a3.5,3.5,0,0,0,3.4-3.6,3.6,3.6,0,0,1,1.4-2.9l2.4-1.6v-.2h-16.2v-3.9a12.8,12.8,0,0,1,4.2-9.6h-13.6a12.8,12.8,0,0,1,4.2,9.6v3.9h-16.2v.3l2.4,1.6a3.6,3.6,0,0,1,1.5,2.9,3.5,3.5,0,0,0,3.3,3.6h9v7.9h-21.8c-.1.2,0,.2,0,.3l2.4,1.6a3.6,3.6,0,0,1,1.4,2.9,3.5,3.5,0,0,0,3.4,3.6h13.4l.7,4.5a9.8,9.8,0,0,1-2,7.6l-.9,1.1a4.1,4.1,0,0,0-.9,3.4,4.2,4.2,0,0,0,1.6,2.7l3.1,2.2Z"/><g class="cls-13"><path class="cls-2" d="M2154.2,1740.6H-2723.1V-2665.6H2154.2Zm-4874.3-3H2151.2V-2662.6H-2720.1Z"/></g><path class="cls-3" d="M-301.1-84.5a2.9,2.9,0,0,1,2.8-2.8,5.6,5.6,0,0,0,5.7-5.6V-100a2.8,2.8,0,0,1,2.8-2.8h8.4v-2.8h-8.4a5.6,5.6,0,0,0-5.6,5.6v7.1a2.9,2.9,0,0,1-2.9,2.8,5.6,5.6,0,0,0-5.6,5.6v19.7h2.8Z"/><g class="cls-14"><rect class="cls-2" x="-2954.9" y="-2761.5" width="5338" height="4566.05"/></g><path class="cls-2" d="M-268.7-116.1a2.1,2.1,0,0,1-1.8-1l-3.2-5.3a2.1,2.1,0,0,1,.3-2.7l3.2-3.2a2.2,2.2,0,0,1,3,0l3.2,3.2a2.3,2.3,0,0,1,.4,2.7l-3.2,5.3A2.3,2.3,0,0,1-268.7-116.1Zm0-2.1Zm0-8.5-3.2,3.2,3.2,5.2,3.2-5.3Z"/><g class="cls-15"><path class="cls-2" d="M1738.4,1336.4H-2301.9V-2120H1738.4Zm-4038.1-2.2H1736.2v-3452H-2299.7Z"/></g><path class="cls-3" d="M-256-105.6v2.8h8.4a2.9,2.9,0,0,1,2.9,2.8v7.1a5.6,5.6,0,0,0,5.6,5.6,2.9,2.9,0,0,1,2.8,2.8v19.8h2.8V-84.5a5.6,5.6,0,0,0-5.6-5.6,2.8,2.8,0,0,1-2.8-2.8V-100a5.7,5.7,0,0,0-5.7-5.6Z"/><g class="cls-16"><rect class="cls-2" x="-2954.9" y="-2761.5" width="5338" height="4566.05"/></g><path class="cls-3" d="M-250.4-115.4h2.8a8.5,8.5,0,0,0-8.4-8.5h-2.8v2.8h2.8a5.7,5.7,0,0,1,5.6,5.7"/><g class="cls-17"><rect class="cls-2" x="-2954.9" y="-2761.5" width="5338" height="4566.05"/></g><path class="cls-3" d="M-281.4-121.1h2.9v-2.8h-2.9a8.5,8.5,0,0,0-8.4,8.5h2.8a5.6,5.6,0,0,1,5.6-5.7"/><g class="cls-18"><rect class="cls-2" x="-2954.9" y="-2761.5" width="5338" height="4566.05"/></g><path class="cls-3" d="M198.5-56.6a4.2,4.2,0,0,1-3.1,1.3,4.1,4.1,0,0,1-3.1-1.3,7.8,7.8,0,0,0-5.1-1.9,7.7,7.7,0,0,0-5,1.9,4.1,4.1,0,0,1-3.1,1.3,4.1,4.1,0,0,1-3.1-1.3,7.7,7.7,0,0,0-5-1.9,7.8,7.8,0,0,0-5.1,1.9,4.1,4.1,0,0,1-3.1,1.3,3.2,3.2,0,0,1-1.8-.4V-97.8h22.1v3.1h3.1v-3.1h1.6a3.1,3.1,0,0,0,3.1-3.2v-3.1a3.2,3.2,0,0,0-3.1-3.2h-.1a29.9,29.9,0,0,0-28.3-28.2v-1.7a4.7,4.7,0,0,0-4.7-4.7,4.7,4.7,0,0,0-4.7,4.7v1.7a29.9,29.9,0,0,0-28.3,28.2h-.1a3.2,3.2,0,0,0-3.1,3.2v3.1a3.1,3.1,0,0,0,3.1,3.2h1.6v3.1h3.2v-3.1h22v42.1a4.4,4.4,0,0,1-1.8.4,4.4,4.4,0,0,1-3.2-1.3,7.3,7.3,0,0,0-5-1.9,7.5,7.5,0,0,0-5,1.9,4.2,4.2,0,0,1-3.1,1.3,4.4,4.4,0,0,1-3.1-1.2,7.3,7.3,0,0,0-5-2,7.8,7.8,0,0,0-5.1,1.9,4.1,4.1,0,0,1-3.1,1.3,4.2,4.2,0,0,1-3.1-1.3,7.5,7.5,0,0,0-5-1.9v3.2a4.4,4.4,0,0,1,3.1,1.2,7.2,7.2,0,0,0,5,1.9,7.3,7.3,0,0,0,5.1-1.9,4.4,4.4,0,0,1,3.1-1.2,4.6,4.6,0,0,1,3.1,1.2,7,7,0,0,0,5,1.9,7,7,0,0,0,5-1.9,4.4,4.4,0,0,1,3.1-1.2,4.4,4.4,0,0,1,3.1,1.2,7.3,7.3,0,0,0,5.1,1.9,7.2,7.2,0,0,0,5-1.9,4.4,4.4,0,0,1,3.1-1.2,4.4,4.4,0,0,1,3.1,1.2,7,7,0,0,0,5,1.9,7.3,7.3,0,0,0,5.1-1.9,4.4,4.4,0,0,1,3.1-1.2,4.6,4.6,0,0,1,3.1,1.2,7,7,0,0,0,5,1.9,7,7,0,0,0,5-1.9,4.6,4.6,0,0,1,3.1-1.2,4.4,4.4,0,0,1,3.1,1.2,7.3,7.3,0,0,0,5.1,1.9,7,7,0,0,0,5-1.9,4.4,4.4,0,0,1,3.1-1.2v-3.2A7.5,7.5,0,0,0,198.5-56.6Zm-43.8-82.2a1.6,1.6,0,0,1,1.6,1.6v1.6h-3.2v-1.6A1.6,1.6,0,0,1,154.7-138.8Zm-4.3,6.4a36.5,36.5,0,0,0-8.3,11.9l2.8,1.3a34.3,34.3,0,0,1,9.8-12.8,33.7,33.7,0,0,1,12.6,24.7H142.2a30.3,30.3,0,0,1,1.6-8.9l-3-1a42.1,42.1,0,0,0-1.8,9.9H124.9A26.7,26.7,0,0,1,150.4-132.4Zm-28.8,28.3h53.6v-3.2h-4.8a36.6,36.6,0,0,0-11.3-25.1,26.9,26.9,0,0,1,25.5,25.1h-6.3v3.2h9.5v3.1H121.6Zm33.1,45.6a6.8,6.8,0,0,0-3.1.7v-40h6.3v40A7.6,7.6,0,0,0,154.7-58.5Z"/><g class="cls-19"><rect class="cls-2" x="-2642.1" y="-2543.9" width="5224.4" height="4468.85"/></g><path class="cls-3" d="M195.4-47.4a4.4,4.4,0,0,1-3.1-1.3,7.8,7.8,0,0,0-5.1-1.9,7.7,7.7,0,0,0-5,1.9,4.4,4.4,0,0,1-3.1,1.3,4.4,4.4,0,0,1-3.1-1.3,7.7,7.7,0,0,0-5-1.9,7.8,7.8,0,0,0-5.1,1.9,4.4,4.4,0,0,1-3.1,1.3,4.4,4.4,0,0,1-3.1-1.3,7.5,7.5,0,0,0-5-1.9,7.3,7.3,0,0,0-5,1.9,4.9,4.9,0,0,1-3.1,1.3,4.9,4.9,0,0,1-3.2-1.3,7.3,7.3,0,0,0-5-1.9,7.5,7.5,0,0,0-5,1.9,4.4,4.4,0,0,1-3.1,1.3,4.4,4.4,0,0,1-3.1-1.3,7.7,7.7,0,0,0-5-1.9,7.8,7.8,0,0,0-5.1,1.9,4.4,4.4,0,0,1-3.1,1.3,4.6,4.6,0,0,1-3.1-1.3,7.5,7.5,0,0,0-5-1.9v3.2a4.4,4.4,0,0,1,3.1,1.2,7.2,7.2,0,0,0,5,1.9,7.3,7.3,0,0,0,5.1-1.9,4.4,4.4,0,0,1,3.1-1.2,4.6,4.6,0,0,1,3.1,1.2,6.9,6.9,0,0,0,5,1.9,7,7,0,0,0,5-1.9,4.6,4.6,0,0,1,3.1-1.2,4.4,4.4,0,0,1,3.1,1.2,7.3,7.3,0,0,0,5.1,1.9,7.2,7.2,0,0,0,5-1.9,4.4,4.4,0,0,1,3.1-1.2,4.4,4.4,0,0,1,3.1,1.2,7,7,0,0,0,5,1.9,7.3,7.3,0,0,0,5.1-1.9,4.4,4.4,0,0,1,3.1-1.2,4.6,4.6,0,0,1,3.1,1.2,7,7,0,0,0,5,1.9,7,7,0,0,0,5-1.9,4.6,4.6,0,0,1,3.1-1.2,4.4,4.4,0,0,1,3.1,1.2,7.3,7.3,0,0,0,5.1,1.9,7,7,0,0,0,5-1.9,4.4,4.4,0,0,1,3.1-1.2v-3.2a7.5,7.5,0,0,0-5,1.9,4.4,4.4,0,0,1-3.1,1.3"/><g class="cls-20"><rect class="cls-2" x="-2642.1" y="-2543.9" width="5224.4" height="4468.85"/></g><path class="cls-3" d="M164.2-66.3a4.7,4.7,0,0,0,4.7,4.7,4.7,4.7,0,0,0,4.7-4.7v-3.2h-3.1v3.2a1.6,1.6,0,0,1-1.6,1.5,1.6,1.6,0,0,1-1.6-1.5V-88.4h-3.1Z"/><g class="cls-21"><rect class="cls-2" x="-2642.1" y="-2543.9" width="5224.4" height="4468.85"/></g><path class="cls-3" d="M186.2-77.3v-7.9H183v7.9a1.5,1.5,0,0,1-1.5,1.5,1.6,1.6,0,0,1-1.6-1.5V-89.9a4.8,4.8,0,0,0-4.7-4.8,4.8,4.8,0,0,0-4.7,4.8v4.7h3.1v-4.7a1.6,1.6,0,0,1,1.6-1.6,1.6,1.6,0,0,1,1.6,1.6v12.6a4.7,4.7,0,0,0,4.7,4.7,4.7,4.7,0,0,0,4.7-4.7"/><g class="cls-22"><rect class="cls-2" x="-2642.1" y="-2543.9" width="5224.4" height="4468.85"/></g><path class="cls-3" d="M142.1-66.3a1.6,1.6,0,0,1-1.6,1.5,1.5,1.5,0,0,1-1.5-1.5v-3.2h-3.2v3.2a4.7,4.7,0,0,0,4.7,4.7,4.8,4.8,0,0,0,4.8-4.7V-88.4h-3.2Z"/><g class="cls-23"><rect class="cls-2" x="-2642.1" y="-2543.9" width="5224.4" height="4468.85"/></g><path class="cls-3" d="M123.2-77.3a4.7,4.7,0,0,0,4.7,4.7,4.7,4.7,0,0,0,4.8-4.7V-89.9a1.6,1.6,0,0,1,1.5-1.6,1.6,1.6,0,0,1,1.6,1.6v4.7H139v-4.7a4.9,4.9,0,0,0-4.8-4.8,4.8,4.8,0,0,0-4.7,4.8v12.6a1.6,1.6,0,0,1-1.6,1.5,1.5,1.5,0,0,1-1.5-1.5v-7.9h-3.2Z"/><g class="cls-24"><rect class="cls-2" x="-2642.1" y="-2543.9" width="5224.4" height="4468.85"/></g><path class="cls-3" d="M113.8-66.3a17.7,17.7,0,0,1,5.6.9l5,1.6-2.7-6.6a8.4,8.4,0,0,0-7.9-5.4,4.7,4.7,0,0,0-4.7,4.7,4.7,4.7,0,0,0,4.7,4.8m0-6.3a5.3,5.3,0,0,1,5,3.4l.2.4a18.6,18.6,0,0,0-5.2-.7,1.6,1.6,0,0,1-1.6-1.6,1.6,1.6,0,0,1,1.6-1.5"/><g class="cls-25"><rect class="cls-2" x="-2642.1" y="-2543.9" width="5224.4" height="4468.85"/></g><path class="cls-3" d="M187.7-70.4l-2.6,6.6,4.9-1.6a17.7,17.7,0,0,1,5.6-.9,4.7,4.7,0,0,0,4.8-4.8,4.8,4.8,0,0,0-4.8-4.7A8.4,8.4,0,0,0,187.7-70.4Zm2.9,1.2a5.4,5.4,0,0,1,5-3.4,1.6,1.6,0,0,1,1.6,1.5,1.6,1.6,0,0,1-1.6,1.6,17.9,17.9,0,0,0-5.1.7Z"/><g class="cls-26"><rect class="cls-2" x="-2642.1" y="-2543.9" width="5224.4" height="4468.85"/></g><g id="Page-1"><g id="_038---Market-Stall" data-name="038---Market-Stall"><g id="Shape"><path class="cls-2" d="M79.1,23.2a7,7,0,0,0,2-5,6.3,6.3,0,0,0-.9-3.3l-6.8-11A8,8,0,0,0,66.6,0H14.5A8,8,0,0,0,7.7,3.9L.9,14.9A6.3,6.3,0,0,0,0,18.2a7,7,0,0,0,2,5,6,6,0,0,0,2.1,1.4V53.3a4.1,4.1,0,0,0-4,3.5,4,4,0,0,0,2.6,4.6V76A4.1,4.1,0,0,0,.1,80.7a4,4,0,0,0,4,3.4H77a4,4,0,0,0,4-3.4A4.1,4.1,0,0,0,78.4,76V61.4A4,4,0,0,0,81,56.8a4.1,4.1,0,0,0-4-3.5V24.6a6,6,0,0,0,2.1-1.4Zm-1.9-2a3.8,3.8,0,0,1-2.9,1.2h-4a4.1,4.1,0,0,1-4.1-4.2H78.4A4.2,4.2,0,0,1,77.2,21.2ZM63.7,53.3l1.2-9.7a1.5,1.5,0,0,0-.4-1.1,1.2,1.2,0,0,0-1-.4H55.4a1.3,1.3,0,0,0-1,.4,1.1,1.1,0,0,0-.3,1.1l1.1,9.7H44.6V47.7a2.7,2.7,0,0,0-2.7-2.8H27V39.3h1.4a2.8,2.8,0,0,0,2.7-2.8V33.7a2.7,2.7,0,0,0-2.7-2.8H17.6a2.7,2.7,0,0,0-2.7,2.8v2.8a2.8,2.8,0,0,0,2.7,2.8h1.3v5.6H17.6a2.7,2.7,0,0,0-2.7,2.8v5.6H12.2V25.1a6.9,6.9,0,0,0,4-2.7,6.6,6.6,0,0,0,5.4,2.8H27a6.4,6.4,0,0,0,5.4-2.8,6.6,6.6,0,0,0,5.4,2.8h5.5a6.6,6.6,0,0,0,5.4-2.8,6.4,6.4,0,0,0,5.4,2.8h5.4a6.6,6.6,0,0,0,5.4-2.8,6.9,6.9,0,0,0,4,2.7V53.3Zm-6.8-8.4H62l-1,8.4H58ZM25.7,36.5H17.6V33.7H28.4v2.8Zm-4.1,2.8h2.7v5.6H21.6Zm-1.3,8.4H41.9v5.6H17.6V47.7ZM63.5,18.2a4.1,4.1,0,0,1-4,4.2H54.1A4.1,4.1,0,0,1,50,18.2Zm-16.2,0a4.1,4.1,0,0,1-4,4.2H37.8a4.1,4.1,0,0,1-4-4.2Zm-29.7,0H31.1A4.1,4.1,0,0,1,27,22.4H21.6A4.1,4.1,0,0,1,17.6,18.2ZM10,5.4a5.4,5.4,0,0,1,4.5-2.6H66.6a5.4,5.4,0,0,1,4.5,2.6l6.2,10H65.8L63.4,9.3a1.3,1.3,0,0,0-1.7-.8,1.4,1.4,0,0,0-.8,1.8l2,5.1H50V12.6a1.3,1.3,0,0,0-1.3-1.4,1.4,1.4,0,0,0-1.4,1.4v2.8H33.8V12.6a1.4,1.4,0,0,0-1.4-1.4,1.3,1.3,0,0,0-1.3,1.4v2.8H18.2l2-5.1A1.4,1.4,0,0,0,20,8.9a1.9,1.9,0,0,0-1.3-.5,1.3,1.3,0,0,0-1,.9l-2.4,6.1H3.8ZM2.7,18.2H14.9a4.1,4.1,0,0,1-4.1,4.2h-4a3.8,3.8,0,0,1-2.9-1.2A4.2,4.2,0,0,1,2.7,18.2Zm4.1,7H9.5V53.3H6.8ZM75.7,75.7H5.4v-14H75.7ZM77,81.3H4.1a1.4,1.4,0,0,1-1.4-1.4,1.4,1.4,0,0,1,1.4-1.4H77a1.4,1.4,0,0,1,1.4,1.4A1.4,1.4,0,0,1,77,81.3Zm1.4-23.8A1.4,1.4,0,0,1,77,58.9H4.1a1.4,1.4,0,0,1,0-2.8H77A1.4,1.4,0,0,1,78.4,57.5Zm-4.1-4.2H71.6V25.2h2.7Z"/></g></g></g></svg>