<svg id="Layer_1" data-name="Layer 1" xmlns="http://www.w3.org/2000/svg" xmlns:xlink="http://www.w3.org/1999/xlink" viewBox="0 0 86.1 86.1"><defs><style>.cls-1,.cls-2,.cls-3{fill:#221c45;}.cls-1{clip-rule:evenodd;}.cls-3{fill-rule:evenodd;}.cls-4{clip-path:url(#clip-path);}.cls-5{clip-path:url(#clip-path-2);}.cls-6{clip-path:url(#clip-path-3);}.cls-7{clip-path:url(#clip-path-4);}.cls-8{clip-path:url(#clip-path-5);}.cls-9{clip-path:url(#clip-path-6);}.cls-10{clip-path:url(#clip-path-7);}.cls-11{clip-path:url(#clip-path-8);}.cls-12{clip-path:url(#clip-path-9);}.cls-13{clip-path:url(#clip-path-10);}.cls-14{clip-path:url(#clip-path-11);}.cls-15{clip-path:url(#clip-path-12);}.cls-16{clip-path:url(#clip-path-13);}.cls-17{clip-path:url(#clip-path-14);}.cls-18{clip-path:url(#clip-path-15);}.cls-19{clip-path:url(#clip-path-16);}.cls-20{clip-path:url(#clip-path-17);}.cls-21{clip-path:url(#clip-path-18);}.cls-22{clip-path:url(#clip-path-19);}.cls-23{clip-path:url(#clip-path-20);}.cls-24{clip-path:url(#clip-path-21);}.cls-25{clip-path:url(#clip-path-22);}.cls-26{clip-path:url(#clip-path-23);}</style><clipPath id="clip-path"><path class="cls-1" d="M387.9-46.4h16v-9.9h-16Zm17.9,4H386a2,2,0,0,1-2-2V-58.3a2,2,0,0,1,2-2h19.8a2,2,0,0,1,2,2v13.9A2,2,0,0,1,405.8-42.4Z"/></clipPath><clipPath id="clip-path-2"><path class="cls-1" d="M378-46.4h35.8v-87.5H378Zm37.8,4H376a2,2,0,0,1-2-2v-91.5a2,2,0,0,1,2-2h39.8a2,2,0,0,1,2,2v91.5A2,2,0,0,1,415.8-42.4Z"/></clipPath><clipPath id="clip-path-3"><path class="cls-1" d="M362.1-46.4H374v-79.5H362.1Zm13.9,4H360.1a2,2,0,0,1-2-2v-83.5a2,2,0,0,1,2-2H376a2,2,0,0,1,2,2v83.5A2,2,0,0,1,376-42.4Z"/></clipPath><clipPath id="clip-path-4"><path class="cls-1" d="M417.8-46.4h11.9v-79.5H417.8Zm13.9,4H415.8a2,2,0,0,1-2-2v-83.5a2,2,0,0,1,2-2h15.9a2,2,0,0,1,2,2v83.5A2,2,0,0,1,431.7-42.4Z"/></clipPath><clipPath id="clip-path-5"><rect class="cls-2" x="344.2" y="-86.1" width="4" height="19.89" transform="translate(199.3 246.4) rotate(-53.1)"/></clipPath><clipPath id="clip-path-6"><rect class="cls-2" x="336.2" y="-78.2" width="19.9" height="3.98" transform="translate(115 192.5) rotate(-36.9)"/></clipPath><clipPath id="clip-path-7"><rect class="cls-2" x="443.6" y="-86.1" width="4" height="19.89" transform="translate(239.1 326) rotate(-53.1)"/></clipPath><clipPath id="clip-path-8"><rect class="cls-2" x="435.7" y="-78.2" width="19.9" height="3.97" transform="translate(134.7 252) rotate(-36.8)"/></clipPath><clipPath id="clip-path-9"><path class="cls-1" d="M203.8-95.8a9.5,9.5,0,0,0-6.6-9.1,39.2,39.2,0,0,0-4.7-11.2,9.4,9.4,0,0,0-1.7-11.1,9.1,9.1,0,0,0-6.6-2.8,10,10,0,0,0-4.5,1.1,37,37,0,0,0-11.2-4.7,9.5,9.5,0,0,0-9-6.6,9.5,9.5,0,0,0-9,6.6,38.6,38.6,0,0,0-11.3,4.7,9.4,9.4,0,0,0-7.2-.7,1.4,1.4,0,0,0,.9,2.7,6.5,6.5,0,0,1,6.6,1.7,6.6,6.6,0,0,1,0,9.4,6.8,6.8,0,0,1-9.4,0,6.6,6.6,0,0,1-1.4-7.3,1.4,1.4,0,0,0-2.6-1,9.4,9.4,0,0,0,.4,8,36.6,36.6,0,0,0-4.7,11.2,9.5,9.5,0,0,0-6.7,9.1,9.5,9.5,0,0,0,6.7,9,36.1,36.1,0,0,0,4.7,11.3,9.4,9.4,0,0,0,1.6,11.1,9.6,9.6,0,0,0,11.1,1.7,43.7,43.7,0,0,0,4.3,2.2l-4.3,11.7a3.3,3.3,0,0,0,3.1,4.3h34.4a3.2,3.2,0,0,0,3-4.3l-4.3-11.7a28.9,28.9,0,0,0,4.3-2.2,9.9,9.9,0,0,0,4.4,1.1,10.5,10.5,0,0,0,3-.5c1.6-.5.8-3.2-.9-2.7a6.4,6.4,0,0,1-6.7-1.6,6.6,6.6,0,0,1,0-9.4,6.6,6.6,0,0,1,9.4,0,6.8,6.8,0,0,1,1.4,7.2c-.6,1.6,2,2.7,2.6,1a9.1,9.1,0,0,0-.4-7.9,38.6,38.6,0,0,0,4.7-11.3A9.5,9.5,0,0,0,203.8-95.8Zm-2.8,0a6.7,6.7,0,0,1-6.6,6.6,6.7,6.7,0,0,1-6.7-6.6,6.7,6.7,0,0,1,6.7-6.7A6.7,6.7,0,0,1,201-95.8Zm-16-1.4H173.2a14.1,14.1,0,0,0-3-7.3l8.3-8.4a10,10,0,0,0,7.5,1.6,31.2,31.2,0,0,1,3.1,7.6A9.9,9.9,0,0,0,185-97.2ZM173.2-62.5l-4.3,1.4a6.4,6.4,0,0,0-.4-2.4,37.3,37.3,0,0,0,7.4-3.1,9,9,0,0,0,1.4,2A26.3,26.3,0,0,1,173.2-62.5Zm-31.6-2.1a9.5,9.5,0,0,0,1.5-2,39,39,0,0,0,7.3,3.1,17.2,17.2,0,0,0-.4,2.4A38.3,38.3,0,0,1,141.6-64.6ZM128.3-78a34.7,34.7,0,0,1-3.5-8.4,6.4,6.4,0,0,0,2.4-.4,37.3,37.3,0,0,0,3.1,7.4Zm4.7-2.4a29.9,29.9,0,0,1-3.2-7.6,9.1,9.1,0,0,0,4.1-6.4h11.9a13.9,13.9,0,0,0,3,7.3l-8.4,8.4A9.4,9.4,0,0,0,133-80.4Zm25.1,10.2a9.5,9.5,0,0,0-6.5,4.1,29.2,29.2,0,0,1-7.5-3.2,9.7,9.7,0,0,0-1.7-7.5l8.4-8.4a13.4,13.4,0,0,0,7.3,3.1Zm1.4,2.7a6.7,6.7,0,0,1,6.6,6.6,6.7,6.7,0,0,1-6.6,6.7,6.7,6.7,0,0,1-6.7-6.7A6.7,6.7,0,0,1,159.5-67.5Zm15.4-1.8a29.9,29.9,0,0,1-7.6,3.2,9.1,9.1,0,0,0-6.4-4.1V-82.1a14.8,14.8,0,0,0,7.3-3l8.4,8.4A9.4,9.4,0,0,0,174.9-69.3ZM159.5-84.9a10.9,10.9,0,0,1-11-10.9,11,11,0,0,1,11-11,11,11,0,0,1,11,11A11,11,0,0,1,159.5-84.9Zm-9.1-43.2a33,33,0,0,0-7.3,3,9.5,9.5,0,0,0-1.5-2,38.3,38.3,0,0,1,8.4-3.5A18.7,18.7,0,0,0,150.4-128.1Zm-6.3,5.7a29,29,0,0,1,7.5-3.1,9.9,9.9,0,0,0,6.5,4.1v11.9a12.6,12.6,0,0,0-7.3,3l-8.4-8.4A9.6,9.6,0,0,0,144.1-122.4Zm31.8-2.7a31.9,31.9,0,0,0-7.4-3,6.9,6.9,0,0,0,.4-2.5,34.7,34.7,0,0,1,8.4,3.5A9,9,0,0,0,175.9-125.1Zm-8.6-.4a29.6,29.6,0,0,1,7.6,3.1,9.6,9.6,0,0,0,1.7,7.5l-8.4,8.4a13.2,13.2,0,0,0-7.3-3v-11.9A9.4,9.4,0,0,0,167.3-125.5Zm23.4,11.8a38.3,38.3,0,0,1,3.5,8.4,10.1,10.1,0,0,0-2.5.4,31.2,31.2,0,0,0-3-7.3A9.5,9.5,0,0,0,190.7-113.7Zm-1.8-11.5a6.8,6.8,0,0,1,0,9.4,6.8,6.8,0,0,1-9.4,0,6.6,6.6,0,0,1,0-9.4A6.6,6.6,0,0,1,188.9-125.2Zm-29.4-12.2a6.7,6.7,0,0,1,6.6,6.6,6.7,6.7,0,0,1-6.6,6.7,6.7,6.7,0,0,1-6.7-6.7,5,5,0,0,1,.2-1.2v-.3A6.7,6.7,0,0,1,159.5-137.4Zm-19.1,24.5,8.4,8.4a14.1,14.1,0,0,0-3,7.3H133.9a9.5,9.5,0,0,0-4.1-6.5,31.5,31.5,0,0,1,3.2-7.6A9.8,9.8,0,0,0,140.4-112.9Zm-10.1.7a36.4,36.4,0,0,0-3.1,7.3,9.3,9.3,0,0,0-2.4-.4,38.3,38.3,0,0,1,3.5-8.4A9.5,9.5,0,0,0,130.3-112.2ZM117.9-95.8a6.8,6.8,0,0,1,6.7-6.7,6.6,6.6,0,0,1,6.6,6.7,6.6,6.6,0,0,1-6.6,6.6A6.7,6.7,0,0,1,117.9-95.8Zm16.9,31.3a6.8,6.8,0,0,1-4.7-1.9,6.6,6.6,0,0,1,0-9.4,6.6,6.6,0,0,1,9.4,0,6.6,6.6,0,0,1,0,9.4A6.8,6.8,0,0,1,134.8-64.5Zm42.3,16.6c.1.4-.1.6-.4.6H142.3c-.4,0-.5-.2-.4-.6l4.2-11.5a31.9,31.9,0,0,0,4.4,1.3,9.5,9.5,0,0,0,9,6.7,9.5,9.5,0,0,0,9-6.7,30.6,30.6,0,0,0,4.3-1.3Zm1.5-30.8-8.4-8.4a14.8,14.8,0,0,0,3-7.3H185a9.4,9.4,0,0,0,4.1,6.4,29.6,29.6,0,0,1-3.1,7.6l-1.8-.2A9.2,9.2,0,0,0,178.6-78.7Zm10.1-.7a31.9,31.9,0,0,0,3-7.4,6.9,6.9,0,0,0,2.5.4,34.7,34.7,0,0,1-3.5,8.4Z"/></clipPath><clipPath id="clip-path-10"><path class="cls-2" d="M-117.1-41.9h-74.5a2.6,2.6,0,0,1-2.6-2.6v-5.4a2.6,2.6,0,0,1,2.6-2.6h28.5a8.3,8.3,0,0,1-.6-2.1,6.6,6.6,0,0,1,1.4-5.3l.9-1.2a7.2,7.2,0,0,0,1.5-5.5l-.4-2.5h-11.3a6,6,0,0,1-5.9-6.1,1.1,1.1,0,0,0-.3-.8l-2.4-1.7a2.7,2.7,0,0,1-1-2.9,2.5,2.5,0,0,1,2.4-1.8h19.4v-2.9h-6.5a6,6,0,0,1-5.9-6.2.9.9,0,0,0-.4-.8l-2.4-1.7a2.4,2.4,0,0,1-.9-2.8,2.6,2.6,0,0,1,2.4-1.9h13.7v-1.5a10.2,10.2,0,0,0-5.8-9.3l-.7-.3v-2.5h23.1v2.5l-.7.3a10.2,10.2,0,0,0-5.7,9.3v1.5h13.6a2.6,2.6,0,0,1,2.5,1.9,2.6,2.6,0,0,1-1,2.8l-2.4,1.7a1.2,1.2,0,0,0-.4.8,6,6,0,0,1-5.9,6.2h-6.4v2.9h19.3a2.6,2.6,0,0,1,2.4,1.9,2.6,2.6,0,0,1-1,2.8l-2.3,1.7a.9.9,0,0,0-.4.8,6,6,0,0,1-5.9,6.1h-11.3l-.3,2.5a6.7,6.7,0,0,0,1.4,5.5l.9,1.2a6.6,6.6,0,0,1,1.4,5.3,8.3,8.3,0,0,1-.6,2.1h28.5a2.6,2.6,0,0,1,2.6,2.6v5.4A2.6,2.6,0,0,1-117.1-41.9ZM-191.6-50a.1.1,0,0,0-.1.1v5.4a.1.1,0,0,0,.1.1h74.5a.1.1,0,0,0,.1-.1v-5.4c0-.1,0-.1-.1-.1h-35l3.1-2.3a4.4,4.4,0,0,0,1.6-2.7,4.6,4.6,0,0,0-.9-3.4l-.9-1.1a9.6,9.6,0,0,1-2-7.5l.7-4.6h13.4a3.5,3.5,0,0,0,3.4-3.6,3.4,3.4,0,0,1,1.4-2.8l2.4-1.7v-.2h-21.8v-7.9h8.9a3.6,3.6,0,0,0,3.4-3.7,3.5,3.5,0,0,1,1.5-2.8l2.3-1.7h-16.1v-4a13.2,13.2,0,0,1,4.2-9.6h-13.7a12.9,12.9,0,0,1,4.3,9.6v4h-16.2a.1.1,0,0,0,0,.2l2.4,1.7a3.4,3.4,0,0,1,1.4,2.8,3.6,3.6,0,0,0,3.4,3.7h9v7.9h-21.9v.2l2.4,1.7a3.4,3.4,0,0,1,1.4,2.8,3.5,3.5,0,0,0,3.4,3.6h13.4l.7,4.6a9.2,9.2,0,0,1-2,7.5l-.9,1.2a4.7,4.7,0,0,0-.9,3.3,4.4,4.4,0,0,0,1.6,2.7l3.1,2.3Z"/></clipPath><clipPath id="clip-path-11"><path class="cls-1" d="M-186.7-83.1a2.7,2.7,0,0,1,2.8-2.8,5.7,5.7,0,0,0,5.6-5.7v-7a2.8,2.8,0,0,1,2.8-2.8h8.5v-2.8h-8.5a5.6,5.6,0,0,0-5.6,5.6v7a2.8,2.8,0,0,1-2.8,2.8,5.7,5.7,0,0,0-5.6,5.7v19.7h2.8Z"/></clipPath><clipPath id="clip-path-12"><path class="cls-2" d="M-154.3-114.7a2.1,2.1,0,0,1-1.9-1.1l-3.2-5.3a2.1,2.1,0,0,1,.3-2.6l3.2-3.2a2.1,2.1,0,0,1,3.1,0l3.2,3.2a2.1,2.1,0,0,1,.3,2.6l-3.2,5.3A2.1,2.1,0,0,1-154.3-114.7Zm0-2.2Zm-.1-8.5-3.1,3.2,3.2,5.3,3.1-5.3Z"/></clipPath><clipPath id="clip-path-13"><path class="cls-1" d="M-141.7-104.2v2.8h8.5a2.8,2.8,0,0,1,2.8,2.8v7a5.7,5.7,0,0,0,5.6,5.7,2.7,2.7,0,0,1,2.8,2.8v19.7h2.9V-83.1a5.8,5.8,0,0,0-5.7-5.7,2.8,2.8,0,0,1-2.8-2.8v-7a5.6,5.6,0,0,0-5.6-5.6Z"/></clipPath><clipPath id="clip-path-14"><path class="cls-1" d="M-136-114.1h2.8a8.4,8.4,0,0,0-8.5-8.4h-2.8v2.8h2.8a5.7,5.7,0,0,1,5.7,5.6"/></clipPath><clipPath id="clip-path-15"><path class="cls-1" d="M-167-119.7h2.8v-2.8H-167a8.4,8.4,0,0,0-8.5,8.4h2.9a5.6,5.6,0,0,1,5.6-5.6"/></clipPath><clipPath id="clip-path-16"><path class="cls-1" d="M312.8-55.2a4.4,4.4,0,0,1-3.1,1.2,4.4,4.4,0,0,1-3.1-1.2,7.2,7.2,0,0,0-5-1.9,7.3,7.3,0,0,0-5.1,1.9,4.4,4.4,0,0,1-3.1,1.2,4.6,4.6,0,0,1-3.1-1.2,7,7,0,0,0-5-1.9,7,7,0,0,0-5,1.9,4.6,4.6,0,0,1-3.1,1.2,4.2,4.2,0,0,1-1.8-.3V-96.5h22v3.2h3.1v-3.2h1.6a3.1,3.1,0,0,0,3.2-3.1v-3.2a3.1,3.1,0,0,0-3.2-3.1H302a29.9,29.9,0,0,0-28.2-28.3v-1.6a4.8,4.8,0,0,0-4.7-4.8,4.9,4.9,0,0,0-4.8,4.8v1.6a29.9,29.9,0,0,0-28.2,28.3H236a3.2,3.2,0,0,0-3.2,3.1v3.2a3.2,3.2,0,0,0,3.2,3.1h1.6v3.2h3.1v-3.2h22.1v42.1a3.6,3.6,0,0,1-1.9.4,4.4,4.4,0,0,1-3.1-1.2,7.2,7.2,0,0,0-5-1.9,7.3,7.3,0,0,0-5.1,1.9,4.4,4.4,0,0,1-3.1,1.2,4.6,4.6,0,0,1-3.1-1.2,7,7,0,0,0-5-1.9,7,7,0,0,0-5,1.9,4.6,4.6,0,0,1-3.1,1.2,4.4,4.4,0,0,1-3.1-1.2,7.3,7.3,0,0,0-5.1-1.9V-54a4.4,4.4,0,0,1,3.1,1.3,7.8,7.8,0,0,0,5.1,1.9,7.7,7.7,0,0,0,5-1.9,4.4,4.4,0,0,1,3.1-1.3,4.4,4.4,0,0,1,3.1,1.3,7.7,7.7,0,0,0,5,1.9,7.8,7.8,0,0,0,5.1-1.9,4.4,4.4,0,0,1,3.1-1.3,4.6,4.6,0,0,1,3.1,1.3,7.5,7.5,0,0,0,5,1.9,7.5,7.5,0,0,0,5-1.9A4.6,4.6,0,0,1,269-54a4.4,4.4,0,0,1,3.1,1.3,7.8,7.8,0,0,0,5.1,1.9,7.7,7.7,0,0,0,5-1.9,4.4,4.4,0,0,1,3.1-1.3,4.4,4.4,0,0,1,3.1,1.3,7.7,7.7,0,0,0,5,1.9,7.8,7.8,0,0,0,5.1-1.9,4.4,4.4,0,0,1,3.1-1.3,4.4,4.4,0,0,1,3.1,1.3,7.5,7.5,0,0,0,5,1.9,7.8,7.8,0,0,0,5.1-1.9,4.4,4.4,0,0,1,3.1-1.3v-3.1A7.3,7.3,0,0,0,312.8-55.2Zm-43.7-82.2a1.6,1.6,0,0,1,1.5,1.6v1.5h-3.1v-1.5A1.6,1.6,0,0,1,269.1-137.4Zm-4.4,6.3a38.5,38.5,0,0,0-8.3,12l2.9,1.2a33.3,33.3,0,0,1,9.8-12.8,33.6,33.6,0,0,1,12.5,24.8H256.5a38.6,38.6,0,0,1,1.6-9l-3-1a38.1,38.1,0,0,0-1.7,10H239.2A26.8,26.8,0,0,1,264.7-131.1ZM236-102.8h53.5v-3.1h-4.7a37,37,0,0,0-11.4-25.2,26.9,26.9,0,0,1,25.5,25.2h-6.2v3.1h9.4v3.2H236Zm33,45.7a6.8,6.8,0,0,0-3.1.7V-96.5h6.3v40.1A6.9,6.9,0,0,0,269-57.1Z"/></clipPath><clipPath id="clip-path-17"><path class="cls-1" d="M309.7-46.1a4.4,4.4,0,0,1-3.1-1.2,7,7,0,0,0-5-1.9,7.3,7.3,0,0,0-5.1,1.9,4.4,4.4,0,0,1-3.1,1.2,4.6,4.6,0,0,1-3.1-1.2,7,7,0,0,0-5-1.9,7,7,0,0,0-5,1.9,4.6,4.6,0,0,1-3.1,1.2,4.4,4.4,0,0,1-3.1-1.2,7.3,7.3,0,0,0-5.1-1.9,7.2,7.2,0,0,0-5,1.9,4.4,4.4,0,0,1-3.1,1.2,4.4,4.4,0,0,1-3.1-1.2,7.2,7.2,0,0,0-5-1.9,7.3,7.3,0,0,0-5.1,1.9,4.4,4.4,0,0,1-3.1,1.2,4.6,4.6,0,0,1-3.1-1.2,7,7,0,0,0-5-1.9,7,7,0,0,0-5,1.9,4.6,4.6,0,0,1-3.1,1.2,4.4,4.4,0,0,1-3.1-1.2,7.3,7.3,0,0,0-5.1-1.9v3.1a4.1,4.1,0,0,1,3.1,1.3,7.8,7.8,0,0,0,5.1,1.9,7.7,7.7,0,0,0,5-1.9,4.1,4.1,0,0,1,3.1-1.3,4.1,4.1,0,0,1,3.1,1.3,7.7,7.7,0,0,0,5,1.9,7.8,7.8,0,0,0,5.1-1.9,4.1,4.1,0,0,1,3.1-1.3,4.2,4.2,0,0,1,3.1,1.3,7.5,7.5,0,0,0,5,1.9,7.5,7.5,0,0,0,5-1.9,4.2,4.2,0,0,1,3.1-1.3,4.1,4.1,0,0,1,3.1,1.3,7.8,7.8,0,0,0,5.1,1.9,7.7,7.7,0,0,0,5-1.9,4.1,4.1,0,0,1,3.1-1.3,4.1,4.1,0,0,1,3.1,1.3,7.7,7.7,0,0,0,5,1.9,7.8,7.8,0,0,0,5.1-1.9,4.1,4.1,0,0,1,3.1-1.3,4.2,4.2,0,0,1,3.1,1.3,7.5,7.5,0,0,0,5,1.9,7.8,7.8,0,0,0,5.1-1.9,4.1,4.1,0,0,1,3.1-1.3v-3.1a7.3,7.3,0,0,0-5.1,1.9,4.4,4.4,0,0,1-3.1,1.2"/></clipPath><clipPath id="clip-path-18"><path class="cls-1" d="M278.5-65a4.7,4.7,0,0,0,4.7,4.7A4.8,4.8,0,0,0,288-65v-3.1h-3.2V-65a1.6,1.6,0,0,1-1.6,1.6,1.6,1.6,0,0,1-1.5-1.6V-87h-3.2Z"/></clipPath><clipPath id="clip-path-19"><path class="cls-1" d="M300.5-76v-7.9h-3.1V-76a1.6,1.6,0,0,1-1.6,1.6,1.6,1.6,0,0,1-1.6-1.6V-88.6a4.7,4.7,0,0,0-4.7-4.7,4.7,4.7,0,0,0-4.7,4.7v4.7H288v-4.7a1.6,1.6,0,0,1,1.5-1.6,1.6,1.6,0,0,1,1.6,1.6V-76a4.7,4.7,0,0,0,4.7,4.7,4.7,4.7,0,0,0,4.7-4.7"/></clipPath><clipPath id="clip-path-20"><path class="cls-1" d="M256.5-65a1.6,1.6,0,0,1-1.6,1.6,1.6,1.6,0,0,1-1.6-1.6v-3.1h-3.1V-65a4.7,4.7,0,0,0,4.7,4.7,4.7,4.7,0,0,0,4.7-4.7V-87h-3.1Z"/></clipPath><clipPath id="clip-path-21"><path class="cls-1" d="M237.6-76a4.7,4.7,0,0,0,4.7,4.7A4.7,4.7,0,0,0,247-76V-88.6a1.6,1.6,0,0,1,1.6-1.6,1.6,1.6,0,0,1,1.6,1.6v4.7h3.1v-4.7a4.7,4.7,0,0,0-4.7-4.7,4.7,4.7,0,0,0-4.7,4.7V-76a1.6,1.6,0,0,1-1.6,1.6,1.6,1.6,0,0,1-1.6-1.6v-7.9h-3.1Z"/></clipPath><clipPath id="clip-path-22"><path class="cls-1" d="M228.1-65a18.8,18.8,0,0,1,5.7.9l4.9,1.7-2.6-6.7a8.6,8.6,0,0,0-8-5.3,4.7,4.7,0,0,0-4.7,4.7,4.7,4.7,0,0,0,4.7,4.7m0-6.3a5.4,5.4,0,0,1,5,3.4l.2.4a22.4,22.4,0,0,0-5.2-.6,1.6,1.6,0,0,1-1.6-1.6,1.6,1.6,0,0,1,1.6-1.6"/></clipPath><clipPath id="clip-path-23"><path class="cls-1" d="M302.1-69.1l-2.7,6.7,5-1.7A17.7,17.7,0,0,1,310-65a4.7,4.7,0,0,0,4.7-4.7,4.7,4.7,0,0,0-4.7-4.7A8.5,8.5,0,0,0,302.1-69.1Zm2.9,1.2a5.3,5.3,0,0,1,5-3.4,1.6,1.6,0,0,1,1.6,1.6,1.6,1.6,0,0,1-1.6,1.6,22.4,22.4,0,0,0-5.2.6Z"/></clipPath></defs><path class="cls-3" d="M387.9-46.4h16v-9.9h-16Zm17.9,4H386a2,2,0,0,1-2-2V-58.3a2,2,0,0,1,2-2h19.8a2,2,0,0,1,2,2v13.9A2,2,0,0,1,405.8-42.4Z"/><g class="cls-4"><rect class="cls-2" x="-880.6" y="-3839" width="5804" height="4970.61"/></g><path class="cls-3" d="M378-46.4h35.8v-87.5H378Zm37.8,4H376a2,2,0,0,1-2-2v-91.5a2,2,0,0,1,2-2h39.8a2,2,0,0,1,2,2v91.5A2,2,0,0,1,415.8-42.4Z"/><g class="cls-5"><rect class="cls-2" x="-880.6" y="-3839" width="5804" height="4964.66"/></g><path class="cls-3" d="M362.1-46.4H374v-79.5H362.1Zm13.9,4H360.1a2,2,0,0,1-2-2v-83.5a2,2,0,0,1,2-2H376a2,2,0,0,1,2,2v83.5A2,2,0,0,1,376-42.4Z"/><g class="cls-6"><rect class="cls-2" x="-880.6" y="-3839" width="5804" height="4964.66"/></g><path class="cls-3" d="M417.8-46.4h11.9v-79.5H417.8Zm13.9,4H415.8a2,2,0,0,1-2-2v-83.5a2,2,0,0,1,2-2h15.9a2,2,0,0,1,2,2v83.5A2,2,0,0,1,431.7-42.4Z"/><g class="cls-7"><rect class="cls-2" x="-880.6" y="-3839" width="5804" height="4964.66"/></g><rect class="cls-2" x="344.2" y="-86.1" width="4" height="19.89" transform="translate(199.3 246.4) rotate(-53.1)"/><g class="cls-8"><rect class="cls-2" x="-880.6" y="-3839" width="5804" height="4964.66"/></g><rect class="cls-2" x="336.2" y="-78.2" width="19.9" height="3.98" transform="translate(115 192.5) rotate(-36.9)"/><g class="cls-9"><rect class="cls-2" x="-880.6" y="-3839" width="5804" height="4964.66"/></g><rect class="cls-2" x="443.6" y="-86.1" width="4" height="19.89" transform="translate(239.1 326) rotate(-53.1)"/><g class="cls-10"><rect class="cls-2" x="-880.6" y="-3839" width="5804" height="4964.66"/></g><rect class="cls-2" x="435.7" y="-78.2" width="19.9" height="3.97" transform="translate(134.7 252) rotate(-36.8)"/><g class="cls-11"><rect class="cls-2" x="-880.6" y="-3839" width="5804" height="4964.66"/></g><path class="cls-3" d="M203.8-95.8a9.5,9.5,0,0,0-6.6-9.1,39.2,39.2,0,0,0-4.7-11.2,9.4,9.4,0,0,0-1.7-11.1,9.1,9.1,0,0,0-6.6-2.8,10,10,0,0,0-4.5,1.1,37,37,0,0,0-11.2-4.7,9.5,9.5,0,0,0-9-6.6,9.5,9.5,0,0,0-9,6.6,38.6,38.6,0,0,0-11.3,4.7,9.4,9.4,0,0,0-7.2-.7,1.4,1.4,0,0,0,.9,2.7,6.5,6.5,0,0,1,6.6,1.7,6.6,6.6,0,0,1,0,9.4,6.8,6.8,0,0,1-9.4,0,6.6,6.6,0,0,1-1.4-7.3,1.4,1.4,0,0,0-2.6-1,9.4,9.4,0,0,0,.4,8,36.6,36.6,0,0,0-4.7,11.2,9.5,9.5,0,0,0-6.7,9.1,9.5,9.5,0,0,0,6.7,9,36.1,36.1,0,0,0,4.7,11.3,9.4,9.4,0,0,0,1.6,11.1,9.6,9.6,0,0,0,11.1,1.7,43.7,43.7,0,0,0,4.3,2.2l-4.3,11.7a3.3,3.3,0,0,0,3.1,4.3h34.4a3.2,3.2,0,0,0,3-4.3l-4.3-11.7a28.9,28.9,0,0,0,4.3-2.2,9.9,9.9,0,0,0,4.4,1.1,10.5,10.5,0,0,0,3-.5c1.6-.5.8-3.2-.9-2.7a6.4,6.4,0,0,1-6.7-1.6,6.6,6.6,0,0,1,0-9.4,6.6,6.6,0,0,1,9.4,0,6.8,6.8,0,0,1,1.4,7.2c-.6,1.6,2,2.7,2.6,1a9.1,9.1,0,0,0-.4-7.9,38.6,38.6,0,0,0,4.7-11.3A9.5,9.5,0,0,0,203.8-95.8Zm-2.8,0a6.7,6.7,0,0,1-6.6,6.6,6.7,6.7,0,0,1-6.7-6.6,6.7,6.7,0,0,1,6.7-6.7A6.7,6.7,0,0,1,201-95.8Zm-16-1.4H173.2a14.1,14.1,0,0,0-3-7.3l8.3-8.4a10,10,0,0,0,7.5,1.6,31.2,31.2,0,0,1,3.1,7.6A9.9,9.9,0,0,0,185-97.2ZM173.2-62.5l-4.3,1.4a6.4,6.4,0,0,0-.4-2.4,37.3,37.3,0,0,0,7.4-3.1,9,9,0,0,0,1.4,2A26.3,26.3,0,0,1,173.2-62.5Zm-31.6-2.1a9.5,9.5,0,0,0,1.5-2,39,39,0,0,0,7.3,3.1,17.2,17.2,0,0,0-.4,2.4A38.3,38.3,0,0,1,141.6-64.6ZM128.3-78a34.7,34.7,0,0,1-3.5-8.4,6.4,6.4,0,0,0,2.4-.4,37.3,37.3,0,0,0,3.1,7.4Zm4.7-2.4a29.9,29.9,0,0,1-3.2-7.6,9.1,9.1,0,0,0,4.1-6.4h11.9a13.9,13.9,0,0,0,3,7.3l-8.4,8.4A9.4,9.4,0,0,0,133-80.4Zm25.1,10.2a9.5,9.5,0,0,0-6.5,4.1,29.2,29.2,0,0,1-7.5-3.2,9.7,9.7,0,0,0-1.7-7.5l8.4-8.4a13.4,13.4,0,0,0,7.3,3.1Zm1.4,2.7a6.7,6.7,0,0,1,6.6,6.6,6.7,6.7,0,0,1-6.6,6.7,6.7,6.7,0,0,1-6.7-6.7A6.7,6.7,0,0,1,159.5-67.5Zm15.4-1.8a29.9,29.9,0,0,1-7.6,3.2,9.1,9.1,0,0,0-6.4-4.1V-82.1a14.8,14.8,0,0,0,7.3-3l8.4,8.4A9.4,9.4,0,0,0,174.9-69.3ZM159.5-84.9a10.9,10.9,0,0,1-11-10.9,11,11,0,0,1,11-11,11,11,0,0,1,11,11A11,11,0,0,1,159.5-84.9Zm-9.1-43.2a33,33,0,0,0-7.3,3,9.5,9.5,0,0,0-1.5-2,38.3,38.3,0,0,1,8.4-3.5A18.7,18.7,0,0,0,150.4-128.1Zm-6.3,5.7a29,29,0,0,1,7.5-3.1,9.9,9.9,0,0,0,6.5,4.1v11.9a12.6,12.6,0,0,0-7.3,3l-8.4-8.4A9.6,9.6,0,0,0,144.1-122.4Zm31.8-2.7a31.9,31.9,0,0,0-7.4-3,6.9,6.9,0,0,0,.4-2.5,34.7,34.7,0,0,1,8.4,3.5A9,9,0,0,0,175.9-125.1Zm-8.6-.4a29.6,29.6,0,0,1,7.6,3.1,9.6,9.6,0,0,0,1.7,7.5l-8.4,8.4a13.2,13.2,0,0,0-7.3-3v-11.9A9.4,9.4,0,0,0,167.3-125.5Zm23.4,11.8a38.3,38.3,0,0,1,3.5,8.4,10.1,10.1,0,0,0-2.5.4,31.2,31.2,0,0,0-3-7.3A9.5,9.5,0,0,0,190.7-113.7Zm-1.8-11.5a6.8,6.8,0,0,1,0,9.4,6.8,6.8,0,0,1-9.4,0,6.6,6.6,0,0,1,0-9.4A6.6,6.6,0,0,1,188.9-125.2Zm-29.4-12.2a6.7,6.7,0,0,1,6.6,6.6,6.7,6.7,0,0,1-6.6,6.7,6.7,6.7,0,0,1-6.7-6.7,5,5,0,0,1,.2-1.2v-.3A6.7,6.7,0,0,1,159.5-137.4Zm-19.1,24.5,8.4,8.4a14.1,14.1,0,0,0-3,7.3H133.9a9.5,9.5,0,0,0-4.1-6.5,31.5,31.5,0,0,1,3.2-7.6A9.8,9.8,0,0,0,140.4-112.9Zm-10.1.7a36.4,36.4,0,0,0-3.1,7.3,9.3,9.3,0,0,0-2.4-.4,38.3,38.3,0,0,1,3.5-8.4A9.5,9.5,0,0,0,130.3-112.2ZM117.9-95.8a6.8,6.8,0,0,1,6.7-6.7,6.6,6.6,0,0,1,6.6,6.7,6.6,6.6,0,0,1-6.6,6.6A6.7,6.7,0,0,1,117.9-95.8Zm16.9,31.3a6.8,6.8,0,0,1-4.7-1.9,6.6,6.6,0,0,1,0-9.4,6.6,6.6,0,0,1,9.4,0,6.6,6.6,0,0,1,0,9.4A6.8,6.8,0,0,1,134.8-64.5Zm42.3,16.6c.1.4-.1.6-.4.6H142.3c-.4,0-.5-.2-.4-.6l4.2-11.5a31.9,31.9,0,0,0,4.4,1.3,9.5,9.5,0,0,0,9,6.7,9.5,9.5,0,0,0,9-6.7,30.6,30.6,0,0,0,4.3-1.3Zm1.5-30.8-8.4-8.4a14.8,14.8,0,0,0,3-7.3H185a9.4,9.4,0,0,0,4.1,6.4,29.6,29.6,0,0,1-3.1,7.6l-1.8-.2A9.2,9.2,0,0,0,178.6-78.7Zm10.1-.7a31.9,31.9,0,0,0,3-7.4,6.9,6.9,0,0,0,2.5.4,34.7,34.7,0,0,1-3.5,8.4Z"/><g class="cls-12"><rect class="cls-2" x="-4404.8" y="-2355.6" width="5391.4" height="4611.73"/></g><path class="cls-2" d="M-117.1-41.9h-74.5a2.6,2.6,0,0,1-2.6-2.6v-5.4a2.6,2.6,0,0,1,2.6-2.6h28.5a8.3,8.3,0,0,1-.6-2.1,6.6,6.6,0,0,1,1.4-5.3l.9-1.2a7.2,7.2,0,0,0,1.5-5.5l-.4-2.5h-11.3a6,6,0,0,1-5.9-6.1,1.1,1.1,0,0,0-.3-.8l-2.4-1.7a2.7,2.7,0,0,1-1-2.9,2.5,2.5,0,0,1,2.4-1.8h19.4v-2.9h-6.5a6,6,0,0,1-5.9-6.2.9.9,0,0,0-.4-.8l-2.4-1.7a2.4,2.4,0,0,1-.9-2.8,2.6,2.6,0,0,1,2.4-1.9h13.7v-1.5a10.2,10.2,0,0,0-5.8-9.3l-.7-.3v-2.5h23.1v2.5l-.7.3a10.2,10.2,0,0,0-5.7,9.3v1.5h13.6a2.6,2.6,0,0,1,2.5,1.9,2.6,2.6,0,0,1-1,2.8l-2.4,1.7a1.2,1.2,0,0,0-.4.8,6,6,0,0,1-5.9,6.2h-6.4v2.9h19.3a2.6,2.6,0,0,1,2.4,1.9,2.6,2.6,0,0,1-1,2.8l-2.3,1.7a.9.9,0,0,0-.4.8,6,6,0,0,1-5.9,6.1h-11.3l-.3,2.5a6.7,6.7,0,0,0,1.4,5.5l.9,1.2a6.6,6.6,0,0,1,1.4,5.3,8.3,8.3,0,0,1-.6,2.1h28.5a2.6,2.6,0,0,1,2.6,2.6v5.4A2.6,2.6,0,0,1-117.1-41.9ZM-191.6-50a.1.1,0,0,0-.1.1v5.4a.1.1,0,0,0,.1.1h74.5a.1.1,0,0,0,.1-.1v-5.4c0-.1,0-.1-.1-.1h-35l3.1-2.3a4.4,4.4,0,0,0,1.6-2.7,4.6,4.6,0,0,0-.9-3.4l-.9-1.1a9.6,9.6,0,0,1-2-7.5l.7-4.6h13.4a3.5,3.5,0,0,0,3.4-3.6,3.4,3.4,0,0,1,1.4-2.8l2.4-1.7v-.2h-21.8v-7.9h8.9a3.6,3.6,0,0,0,3.4-3.7,3.5,3.5,0,0,1,1.5-2.8l2.3-1.7h-16.1v-4a13.2,13.2,0,0,1,4.2-9.6h-13.7a12.9,12.9,0,0,1,4.3,9.6v4h-16.2a.1.1,0,0,0,0,.2l2.4,1.7a3.4,3.4,0,0,1,1.4,2.8,3.6,3.6,0,0,0,3.4,3.7h9v7.9h-21.9v.2l2.4,1.7a3.4,3.4,0,0,1,1.4,2.8,3.5,3.5,0,0,0,3.4,3.6h13.4l.7,4.6a9.2,9.2,0,0,1-2,7.5l-.9,1.2a4.7,4.7,0,0,0-.9,3.3,4.4,4.4,0,0,0,1.6,2.7l3.1,2.3Z"/><g class="cls-13"><path class="cls-2" d="M2268.6,1742H-2608.8V-2664.3H2268.6Zm-4874.4-3H2265.6V-2661.3H-2605.8Z"/></g><path class="cls-3" d="M-186.7-83.1a2.7,2.7,0,0,1,2.8-2.8,5.7,5.7,0,0,0,5.6-5.7v-7a2.8,2.8,0,0,1,2.8-2.8h8.5v-2.8h-8.5a5.6,5.6,0,0,0-5.6,5.6v7a2.8,2.8,0,0,1-2.8,2.8,5.7,5.7,0,0,0-5.6,5.7v19.7h2.8Z"/><g class="cls-14"><rect class="cls-2" x="-2840.6" y="-2760.2" width="5338" height="4566.05"/></g><path class="cls-2" d="M-154.3-114.7a2.1,2.1,0,0,1-1.9-1.1l-3.2-5.3a2.1,2.1,0,0,1,.3-2.6l3.2-3.2a2.1,2.1,0,0,1,3.1,0l3.2,3.2a2.1,2.1,0,0,1,.3,2.6l-3.2,5.3A2.1,2.1,0,0,1-154.3-114.7Zm0-2.2Zm-.1-8.5-3.1,3.2,3.2,5.3,3.1-5.3Z"/><g class="cls-15"><path class="cls-2" d="M1852.8,1337.7H-2187.5V-2118.6H1852.8Zm-4038.1-2.2H1850.6V-2116.4H-2185.3Z"/></g><path class="cls-3" d="M-141.7-104.2v2.8h8.5a2.8,2.8,0,0,1,2.8,2.8v7a5.7,5.7,0,0,0,5.6,5.7,2.7,2.7,0,0,1,2.8,2.8v19.7h2.9V-83.1a5.8,5.8,0,0,0-5.7-5.7,2.8,2.8,0,0,1-2.8-2.8v-7a5.6,5.6,0,0,0-5.6-5.6Z"/><g class="cls-16"><rect class="cls-2" x="-2840.6" y="-2760.2" width="5338" height="4566.05"/></g><path class="cls-3" d="M-136-114.1h2.8a8.4,8.4,0,0,0-8.5-8.4h-2.8v2.8h2.8a5.7,5.7,0,0,1,5.7,5.6"/><g class="cls-17"><rect class="cls-2" x="-2840.6" y="-2760.2" width="5338" height="4566.05"/></g><path class="cls-3" d="M-167-119.7h2.8v-2.8H-167a8.4,8.4,0,0,0-8.5,8.4h2.9a5.6,5.6,0,0,1,5.6-5.6"/><g class="cls-18"><rect class="cls-2" x="-2840.6" y="-2760.2" width="5338" height="4566.05"/></g><path class="cls-3" d="M312.8-55.2a4.4,4.4,0,0,1-3.1,1.2,4.4,4.4,0,0,1-3.1-1.2,7.2,7.2,0,0,0-5-1.9,7.3,7.3,0,0,0-5.1,1.9,4.4,4.4,0,0,1-3.1,1.2,4.6,4.6,0,0,1-3.1-1.2,7,7,0,0,0-5-1.9,7,7,0,0,0-5,1.9,4.6,4.6,0,0,1-3.1,1.2,4.2,4.2,0,0,1-1.8-.3V-96.5h22v3.2h3.1v-3.2h1.6a3.1,3.1,0,0,0,3.2-3.1v-3.2a3.1,3.1,0,0,0-3.2-3.1H302a29.9,29.9,0,0,0-28.2-28.3v-1.6a4.8,4.8,0,0,0-4.7-4.8,4.9,4.9,0,0,0-4.8,4.8v1.6a29.9,29.9,0,0,0-28.2,28.3H236a3.2,3.2,0,0,0-3.2,3.1v3.2a3.2,3.2,0,0,0,3.2,3.1h1.6v3.2h3.1v-3.2h22.1v42.1a3.6,3.6,0,0,1-1.9.4,4.4,4.4,0,0,1-3.1-1.2,7.2,7.2,0,0,0-5-1.9,7.3,7.3,0,0,0-5.1,1.9,4.4,4.4,0,0,1-3.1,1.2,4.6,4.6,0,0,1-3.1-1.2,7,7,0,0,0-5-1.9,7,7,0,0,0-5,1.9,4.6,4.6,0,0,1-3.1,1.2,4.4,4.4,0,0,1-3.1-1.2,7.3,7.3,0,0,0-5.1-1.9V-54a4.4,4.4,0,0,1,3.1,1.3,7.8,7.8,0,0,0,5.1,1.9,7.7,7.7,0,0,0,5-1.9,4.4,4.4,0,0,1,3.1-1.3,4.4,4.4,0,0,1,3.1,1.3,7.7,7.7,0,0,0,5,1.9,7.8,7.8,0,0,0,5.1-1.9,4.4,4.4,0,0,1,3.1-1.3,4.6,4.6,0,0,1,3.1,1.3,7.5,7.5,0,0,0,5,1.9,7.5,7.5,0,0,0,5-1.9A4.6,4.6,0,0,1,269-54a4.4,4.4,0,0,1,3.1,1.3,7.8,7.8,0,0,0,5.1,1.9,7.7,7.7,0,0,0,5-1.9,4.4,4.4,0,0,1,3.1-1.3,4.4,4.4,0,0,1,3.1,1.3,7.7,7.7,0,0,0,5,1.9,7.8,7.8,0,0,0,5.1-1.9,4.4,4.4,0,0,1,3.1-1.3,4.4,4.4,0,0,1,3.1,1.3,7.5,7.5,0,0,0,5,1.9,7.8,7.8,0,0,0,5.1-1.9,4.4,4.4,0,0,1,3.1-1.3v-3.1A7.3,7.3,0,0,0,312.8-55.2Zm-43.7-82.2a1.6,1.6,0,0,1,1.5,1.6v1.5h-3.1v-1.5A1.6,1.6,0,0,1,269.1-137.4Zm-4.4,6.3a38.5,38.5,0,0,0-8.3,12l2.9,1.2a33.3,33.3,0,0,1,9.8-12.8,33.6,33.6,0,0,1,12.5,24.8H256.5a38.6,38.6,0,0,1,1.6-9l-3-1a38.1,38.1,0,0,0-1.7,10H239.2A26.8,26.8,0,0,1,264.7-131.1ZM236-102.8h53.5v-3.1h-4.7a37,37,0,0,0-11.4-25.2,26.9,26.9,0,0,1,25.5,25.2h-6.2v3.1h9.4v3.2H236Zm33,45.7a6.8,6.8,0,0,0-3.1.7V-96.5h6.3v40.1A6.9,6.9,0,0,0,269-57.1Z"/><g class="cls-19"><rect class="cls-2" x="-2527.8" y="-2542.5" width="5224.4" height="4468.85"/></g><path class="cls-3" d="M309.7-46.1a4.4,4.4,0,0,1-3.1-1.2,7,7,0,0,0-5-1.9,7.3,7.3,0,0,0-5.1,1.9,4.4,4.4,0,0,1-3.1,1.2,4.6,4.6,0,0,1-3.1-1.2,7,7,0,0,0-5-1.9,7,7,0,0,0-5,1.9,4.6,4.6,0,0,1-3.1,1.2,4.4,4.4,0,0,1-3.1-1.2,7.3,7.3,0,0,0-5.1-1.9,7.2,7.2,0,0,0-5,1.9,4.4,4.4,0,0,1-3.1,1.2,4.4,4.4,0,0,1-3.1-1.2,7.2,7.2,0,0,0-5-1.9,7.3,7.3,0,0,0-5.1,1.9,4.4,4.4,0,0,1-3.1,1.2,4.6,4.6,0,0,1-3.1-1.2,7,7,0,0,0-5-1.9,7,7,0,0,0-5,1.9,4.6,4.6,0,0,1-3.1,1.2,4.4,4.4,0,0,1-3.1-1.2,7.3,7.3,0,0,0-5.1-1.9v3.1a4.1,4.1,0,0,1,3.1,1.3,7.8,7.8,0,0,0,5.1,1.9,7.7,7.7,0,0,0,5-1.9,4.1,4.1,0,0,1,3.1-1.3,4.1,4.1,0,0,1,3.1,1.3,7.7,7.7,0,0,0,5,1.9,7.8,7.8,0,0,0,5.1-1.9,4.1,4.1,0,0,1,3.1-1.3,4.2,4.2,0,0,1,3.1,1.3,7.5,7.5,0,0,0,5,1.9,7.5,7.5,0,0,0,5-1.9,4.2,4.2,0,0,1,3.1-1.3,4.1,4.1,0,0,1,3.1,1.3,7.8,7.8,0,0,0,5.1,1.9,7.7,7.7,0,0,0,5-1.9,4.1,4.1,0,0,1,3.1-1.3,4.1,4.1,0,0,1,3.1,1.3,7.7,7.7,0,0,0,5,1.9,7.8,7.8,0,0,0,5.1-1.9,4.1,4.1,0,0,1,3.1-1.3,4.2,4.2,0,0,1,3.1,1.3,7.5,7.5,0,0,0,5,1.9,7.8,7.8,0,0,0,5.1-1.9,4.1,4.1,0,0,1,3.1-1.3v-3.1a7.3,7.3,0,0,0-5.1,1.9,4.4,4.4,0,0,1-3.1,1.2"/><g class="cls-20"><rect class="cls-2" x="-2527.8" y="-2542.5" width="5224.4" height="4468.85"/></g><path class="cls-3" d="M278.5-65a4.7,4.7,0,0,0,4.7,4.7A4.8,4.8,0,0,0,288-65v-3.1h-3.2V-65a1.6,1.6,0,0,1-1.6,1.6,1.6,1.6,0,0,1-1.5-1.6V-87h-3.2Z"/><g class="cls-21"><rect class="cls-2" x="-2527.8" y="-2542.5" width="5224.4" height="4468.85"/></g><path class="cls-3" d="M300.5-76v-7.9h-3.1V-76a1.6,1.6,0,0,1-1.6,1.6,1.6,1.6,0,0,1-1.6-1.6V-88.6a4.7,4.7,0,0,0-4.7-4.7,4.7,4.7,0,0,0-4.7,4.7v4.7H288v-4.7a1.6,1.6,0,0,1,1.5-1.6,1.6,1.6,0,0,1,1.6,1.6V-76a4.7,4.7,0,0,0,4.7,4.7,4.7,4.7,0,0,0,4.7-4.7"/><g class="cls-22"><rect class="cls-2" x="-2527.8" y="-2542.5" width="5224.4" height="4468.85"/></g><path class="cls-3" d="M256.5-65a1.6,1.6,0,0,1-1.6,1.6,1.6,1.6,0,0,1-1.6-1.6v-3.1h-3.1V-65a4.7,4.7,0,0,0,4.7,4.7,4.7,4.7,0,0,0,4.7-4.7V-87h-3.1Z"/><g class="cls-23"><rect class="cls-2" x="-2527.8" y="-2542.5" width="5224.4" height="4468.85"/></g><path class="cls-3" d="M237.6-76a4.7,4.7,0,0,0,4.7,4.7A4.7,4.7,0,0,0,247-76V-88.6a1.6,1.6,0,0,1,1.6-1.6,1.6,1.6,0,0,1,1.6,1.6v4.7h3.1v-4.7a4.7,4.7,0,0,0-4.7-4.7,4.7,4.7,0,0,0-4.7,4.7V-76a1.6,1.6,0,0,1-1.6,1.6,1.6,1.6,0,0,1-1.6-1.6v-7.9h-3.1Z"/><g class="cls-24"><rect class="cls-2" x="-2527.8" y="-2542.5" width="5224.4" height="4468.85"/></g><path class="cls-3" d="M228.1-65a18.8,18.8,0,0,1,5.7.9l4.9,1.7-2.6-6.7a8.6,8.6,0,0,0-8-5.3,4.7,4.7,0,0,0-4.7,4.7,4.7,4.7,0,0,0,4.7,4.7m0-6.3a5.4,5.4,0,0,1,5,3.4l.2.4a22.4,22.4,0,0,0-5.2-.6,1.6,1.6,0,0,1-1.6-1.6,1.6,1.6,0,0,1,1.6-1.6"/><g class="cls-25"><rect class="cls-2" x="-2527.8" y="-2542.5" width="5224.4" height="4468.85"/></g><path class="cls-3" d="M302.1-69.1l-2.7,6.7,5-1.7A17.7,17.7,0,0,1,310-65a4.7,4.7,0,0,0,4.7-4.7,4.7,4.7,0,0,0-4.7-4.7A8.5,8.5,0,0,0,302.1-69.1Zm2.9,1.2a5.3,5.3,0,0,1,5-3.4,1.6,1.6,0,0,1,1.6,1.6,1.6,1.6,0,0,1-1.6,1.6,22.4,22.4,0,0,0-5.2.6Z"/><g class="cls-26"><rect class="cls-2" x="-2527.8" y="-2542.5" width="5224.4" height="4468.85"/></g><path class="cls-2" d="M79.5,0H33.8a6.8,6.8,0,0,0-6.5,7.2V66h0a.7.7,0,0,0,.1.5h0l3.4,7.8A2.6,2.6,0,0,0,33.2,76h1.2v5.8a3.5,3.5,0,0,0,.3,1.4H17.2V57.4a4.3,4.3,0,0,0-4.3-4.3V28.6a11.5,11.5,0,1,0-2.9,0V53.1a4.3,4.3,0,0,0-4.3,4.3V83.2H1.4A1.4,1.4,0,0,0,0,84.6a1.5,1.5,0,0,0,1.4,1.5H84.6a1.5,1.5,0,0,0,1.5-1.5,1.5,1.5,0,0,0-1.5-1.4h-6a3.5,3.5,0,0,0,.3-1.4V76h1.2a2.7,2.7,0,0,0,2.5-1.6L86,66.6h0a4.3,4.3,0,0,0,.1-.5h0V7.2A7,7,0,0,0,79.5,0ZM2.9,17.2a8.6,8.6,0,1,1,8.6,8.6A8.6,8.6,0,0,1,2.9,17.2Zm11.4,66H8.6V57.4A1.5,1.5,0,0,1,10,55.9h2.9a1.5,1.5,0,0,1,1.4,1.5ZM43,81.8a1.4,1.4,0,0,1-1.4,1.4H38.7a1.4,1.4,0,0,1-1.4-1.4V76H43Zm2.6,1.4a3.5,3.5,0,0,0,.3-1.4V76H67.4v5.8a3.5,3.5,0,0,0,.3,1.4ZM76,81.8a1.4,1.4,0,0,1-1.4,1.4H71.7a1.4,1.4,0,0,1-1.4-1.4V76H76v5.8Zm4-8.6H33.4l-2.5-5.8H82.4ZM50.2,64.6V61.7a1.6,1.6,0,0,1,1.4-1.5H61.7a1.5,1.5,0,0,1,1.4,1.5v2.9Zm33-57.4V64.6H66V61.7a4.3,4.3,0,0,0-4.3-4.3H51.6a4.3,4.3,0,0,0-4.3,4.3v2.9H30.1V7.2a4.1,4.1,0,0,1,3.7-4.3H79.5A4,4,0,0,1,83.2,7.2Z"/><path class="cls-2" d="M76,5.7H37.3A4.3,4.3,0,0,0,33,10v1.5a4.3,4.3,0,0,0,4.3,4.3H76a4.3,4.3,0,0,0,4.3-4.3V10A4.3,4.3,0,0,0,76,5.7Zm1.5,5.8A1.5,1.5,0,0,1,76,12.9H37.3a1.4,1.4,0,0,1-1.4-1.4V10a1.4,1.4,0,0,1,1.4-1.4H76A1.5,1.5,0,0,1,77.5,10Z"/><path class="cls-2" d="M38.7,50.2a5.8,5.8,0,1,0,5.8,5.7A5.8,5.8,0,0,0,38.7,50.2Zm0,8.6a2.9,2.9,0,0,1,0-5.7,2.9,2.9,0,1,1,0,5.7Z"/><path class="cls-2" d="M74.6,50.2a5.8,5.8,0,1,0,5.7,5.7A5.7,5.7,0,0,0,74.6,50.2Zm0,8.6a2.9,2.9,0,1,1,2.9-2.9A2.9,2.9,0,0,1,74.6,58.8Z"/><path class="cls-2" d="M76,18.6H37.3A4.4,4.4,0,0,0,33,23V43a4.3,4.3,0,0,0,4.3,4.3H76A4.3,4.3,0,0,0,80.3,43V23A4.4,4.4,0,0,0,76,18.6ZM77.5,43A1.5,1.5,0,0,1,76,44.5H37.3A1.5,1.5,0,0,1,35.9,43V23a1.5,1.5,0,0,1,1.4-1.5H76A1.5,1.5,0,0,1,77.5,23Z"/></svg>