<svg id="Layer_1" data-name="Layer 1" xmlns="http://www.w3.org/2000/svg" xmlns:xlink="http://www.w3.org/1999/xlink" viewBox="0 0 92.9 92.9"><defs><style>.cls-1,.cls-2,.cls-3{fill:#221c45;}.cls-1{clip-rule:evenodd;}.cls-3{fill-rule:evenodd;}.cls-4{clip-path:url(#clip-path);}.cls-5{clip-path:url(#clip-path-2);}.cls-6{clip-path:url(#clip-path-3);}.cls-7{clip-path:url(#clip-path-4);}.cls-8{clip-path:url(#clip-path-5);}.cls-9{clip-path:url(#clip-path-6);}.cls-10{clip-path:url(#clip-path-7);}.cls-11{clip-path:url(#clip-path-8);}.cls-12{clip-path:url(#clip-path-9);}.cls-13{clip-path:url(#clip-path-10);}.cls-14{clip-path:url(#clip-path-11);}.cls-15{clip-path:url(#clip-path-12);}.cls-16{clip-path:url(#clip-path-13);}.cls-17{clip-path:url(#clip-path-14);}.cls-18{clip-path:url(#clip-path-15);}.cls-19{clip-path:url(#clip-path-16);}.cls-20{clip-path:url(#clip-path-17);}.cls-21{clip-path:url(#clip-path-18);}.cls-22{clip-path:url(#clip-path-19);}.cls-23{clip-path:url(#clip-path-20);}.cls-24{clip-path:url(#clip-path-21);}.cls-25{clip-path:url(#clip-path-22);}.cls-26{clip-path:url(#clip-path-23);}.cls-27{clip-path:url(#clip-path-24);}</style><clipPath id="clip-path"><path class="cls-1" d="M376.3,90.1h15.9V80.2H376.3Zm17.9,4H374.3a2,2,0,0,1-2-2V78.2a2,2,0,0,1,2-2h19.9a2,2,0,0,1,2,2V92.1A2,2,0,0,1,394.2,94.1Z"/></clipPath><clipPath id="clip-path-2"><path class="cls-1" d="M366.3,90.1h35.8V2.6H366.3Zm37.8,4H364.3a2,2,0,0,1-2-2V.6a2,2,0,0,1,2-2h39.8a2,2,0,0,1,2,2V92.1A2,2,0,0,1,404.1,94.1Z"/></clipPath><clipPath id="clip-path-3"><path class="cls-1" d="M350.4,90.1h11.9V10.5H350.4Zm13.9,4H348.4a2,2,0,0,1-2-2V8.6a2,2,0,0,1,2-2h15.9a2,2,0,0,1,2,2V92.1A2,2,0,0,1,364.3,94.1Z"/></clipPath><clipPath id="clip-path-4"><path class="cls-1" d="M406.1,90.1H418V10.5H406.1Zm13.9,4H404.1a2,2,0,0,1-2-2V8.6a2,2,0,0,1,2-2H420a2,2,0,0,1,2,2V92.1A2,2,0,0,1,420,94.1Z"/></clipPath><clipPath id="clip-path-5"><rect class="cls-2" x="332.5" y="50.3" width="4" height="19.89" transform="translate(85.5 291.6) rotate(-53.1)"/></clipPath><clipPath id="clip-path-6"><rect class="cls-2" x="324.6" y="58.3" width="19.9" height="3.98" transform="translate(30.8 212.8) rotate(-36.9)"/></clipPath><clipPath id="clip-path-7"><rect class="cls-2" x="432" y="50.3" width="4" height="19.89" transform="translate(125.3 371.2) rotate(-53.1)"/></clipPath><clipPath id="clip-path-8"><rect class="cls-2" x="424" y="58.3" width="19.9" height="3.97" transform="translate(50.5 272.3) rotate(-36.8)"/></clipPath><clipPath id="clip-path-9"><path class="cls-1" d="M192.2,40.6a9.5,9.5,0,0,0-6.7-9,36.1,36.1,0,0,0-4.7-11.3,9.3,9.3,0,0,0-8.3-13.8,8.2,8.2,0,0,0-4.4,1.1,36.1,36.1,0,0,0-11.3-4.7,9.4,9.4,0,0,0-9-6.7,9.5,9.5,0,0,0-9,6.7,34.6,34.6,0,0,0-11.2,4.7,9.1,9.1,0,0,0-7.2-.7,1.4,1.4,0,0,0,.8,2.7,6.4,6.4,0,0,1,6.6,1.6A6.6,6.6,0,1,1,117,13.4c.7-1.6-1.9-2.8-2.6-1.1a9.3,9.3,0,0,0,.4,8,38.6,38.6,0,0,0-4.7,11.3,9.5,9.5,0,0,0,0,18.1,38.1,38.1,0,0,0,4.7,11.2A9.4,9.4,0,0,0,116.5,72a9.6,9.6,0,0,0,11.1,1.7,29.3,29.3,0,0,0,4.3,2.3l-4.3,11.6a3.3,3.3,0,0,0,3,4.4H165a3.3,3.3,0,0,0,3-4.4L163.8,76a45,45,0,0,0,4.3-2.3,9.3,9.3,0,0,0,4.4,1.1,10.1,10.1,0,0,0,2.9-.4,1.4,1.4,0,0,0-.9-2.7,6.6,6.6,0,1,1,4.2-3.9,1.4,1.4,0,0,0,2.6,1.1,9.7,9.7,0,0,0-.5-8,35.6,35.6,0,0,0,4.7-11.2A9.5,9.5,0,0,0,192.2,40.6Zm-2.8,0a6.7,6.7,0,1,1-6.7-6.6A6.7,6.7,0,0,1,189.4,40.6Zm-16-1.4H161.5a14.8,14.8,0,0,0-3-7.3l8.4-8.4a9.3,9.3,0,0,0,7.4,1.7,29.9,29.9,0,0,1,3.2,7.6A9.1,9.1,0,0,0,173.4,39.2ZM161.6,73.9l-4.3,1.5a18.7,18.7,0,0,0-.4-2.5,33,33,0,0,0,7.3-3,9.5,9.5,0,0,0,1.5,2A25.8,25.8,0,0,1,161.6,73.9Zm-31.6-2a9,9,0,0,0,1.4-2,31.9,31.9,0,0,0,7.4,3,6.9,6.9,0,0,0-.4,2.5A34.7,34.7,0,0,1,130,71.9ZM116.6,58.5a36.4,36.4,0,0,1-3.5-8.4,10.1,10.1,0,0,0,2.5-.4,31.2,31.2,0,0,0,3,7.3A9.5,9.5,0,0,0,116.6,58.5Zm4.7-2.4a29.6,29.6,0,0,1-3.1-7.6,9.6,9.6,0,0,0,4.1-6.5h11.8a14.1,14.1,0,0,0,3,7.3l-8.4,8.4A9.7,9.7,0,0,0,121.3,56.1Zm25.1,10.1a9.4,9.4,0,0,0-6.4,4.1,29.6,29.6,0,0,1-7.6-3.1,9.6,9.6,0,0,0-1.7-7.5l8.4-8.4a12.9,12.9,0,0,0,7.3,3Zm1.4,2.7a6.7,6.7,0,0,1,6.7,6.7,6.7,6.7,0,1,1-6.7-6.7Zm15.4-1.7a29,29,0,0,1-7.5,3.1,9.9,9.9,0,0,0-6.5-4.1V54.3a12.6,12.6,0,0,0,7.3-3l8.4,8.4A9.6,9.6,0,0,0,163.2,67.2ZM147.8,51.6a11,11,0,1,1,11-11A11,11,0,0,1,147.8,51.6Zm-9-43.3a37.3,37.3,0,0,0-7.4,3.1,9,9,0,0,0-1.4-2,34.7,34.7,0,0,1,8.4-3.5A6.4,6.4,0,0,0,138.8,8.3Zm-6.4,5.8a29.9,29.9,0,0,1,7.6-3.2,9.1,9.1,0,0,0,6.4,4.1V26.9a14.1,14.1,0,0,0-7.3,3.1l-8.4-8.4A9.7,9.7,0,0,0,132.4,14.1Zm31.8-2.7a39,39,0,0,0-7.3-3.1,17.2,17.2,0,0,0,.4-2.4,38.3,38.3,0,0,1,8.4,3.5A9.5,9.5,0,0,0,164.2,11.4Zm-8.5-.5a29.2,29.2,0,0,1,7.5,3.2,9.4,9.4,0,0,0,1.7,7.4l-8.4,8.4a14.1,14.1,0,0,0-7.3-3V15A9.5,9.5,0,0,0,155.7,10.9ZM179,22.8a34.7,34.7,0,0,1,3.5,8.4,6.4,6.4,0,0,0-2.4.4,40,40,0,0,0-3.1-7.4Zm-1.8-11.6a6.6,6.6,0,0,1-9.4,9.4,6.7,6.7,0,0,1,0-9.4A6.8,6.8,0,0,1,177.2,11.2ZM147.8-1a6.7,6.7,0,0,1,6.7,6.7,6.7,6.7,0,0,1-13.3,0,4.9,4.9,0,0,1,.1-1.2.4.4,0,0,1,.1-.3A6.5,6.5,0,0,1,147.8-1ZM128.7,23.5l8.4,8.4a14.8,14.8,0,0,0-3,7.3H122.3a9.4,9.4,0,0,0-4.1-6.4,29.6,29.6,0,0,1,3.1-7.6A9.3,9.3,0,0,0,128.7,23.5Zm-10.1.7a33.8,33.8,0,0,0-3,7.4,6.9,6.9,0,0,0-2.5-.4,34.7,34.7,0,0,1,3.5-8.4ZM106.3,40.6a6.7,6.7,0,1,1,6.6,6.7A6.7,6.7,0,0,1,106.3,40.6ZM123.1,72a7,7,0,0,1-4.7-1.9,6.8,6.8,0,0,1,0-9.4A6.6,6.6,0,1,1,123.1,72Zm42.3,16.6c.1.3-.1.5-.4.6H130.6c-.3-.1-.5-.3-.4-.6l4.3-11.5,4.3,1.3a9.6,9.6,0,0,0,9,6.7,9.5,9.5,0,0,0,9-6.7l4.4-1.3Zm1.5-30.9-8.4-8.4a13.3,13.3,0,0,0,3-7.3h11.9a9.3,9.3,0,0,0,4.1,6.5,29.9,29.9,0,0,1-3.2,7.6l-1.8-.2A9.1,9.1,0,0,0,166.9,57.7ZM177,57a36.4,36.4,0,0,0,3.1-7.3,9.3,9.3,0,0,0,2.4.4,36.4,36.4,0,0,1-3.5,8.4A9.5,9.5,0,0,0,177,57Z"/></clipPath><clipPath id="clip-path-10"><rect class="cls-2" x="-4416.5" y="-2219.1" width="5391.4" height="4611.73"/></clipPath><clipPath id="clip-path-11"><path class="cls-2" d="M-128.7,94.6h-74.6a2.6,2.6,0,0,1-2.5-2.6V86.5a2.6,2.6,0,0,1,2.5-2.6h28.6a4.8,4.8,0,0,1-.7-2.1,6.7,6.7,0,0,1,1.4-5.3l.9-1.1a7,7,0,0,0,1.5-5.6l-.4-2.4h-11.2a6,6,0,0,1-5.9-6.1.9.9,0,0,0-.4-.8l-2.4-1.7a2.7,2.7,0,0,1-1-2.9,2.7,2.7,0,0,1,2.5-1.9h19.3V51.1h-6.5a6,6,0,0,1-5.9-6.1c0-.4-.1-.7-.4-.8l-2.3-1.7a2.7,2.7,0,0,1-1-2.9,2.5,2.5,0,0,1,2.4-1.8h13.7V36.3a10.3,10.3,0,0,0-5.7-9.3l-.7-.3V24.2h23v2.5l-.7.3a10.2,10.2,0,0,0-5.7,9.3v1.5h13.7a2.5,2.5,0,0,1,2.4,1.8,2.7,2.7,0,0,1-1,2.9l-2.4,1.7a.9.9,0,0,0-.4.8,5.9,5.9,0,0,1-5.8,6.1h-6.5V54h19.3a2.8,2.8,0,0,1,2.5,1.9,2.7,2.7,0,0,1-1,2.9l-2.4,1.7c-.3.1-.4.4-.4.8a6,6,0,0,1-5.9,6.1H-160l-.4,2.4a7,7,0,0,0,1.5,5.6l.9,1.1a6.7,6.7,0,0,1,1.4,5.3,6.5,6.5,0,0,1-.7,2.1h28.6a2.6,2.6,0,0,1,2.5,2.6V92A2.6,2.6,0,0,1-128.7,94.6Zm-74.6-8.2h0V92h74.6V86.5h-35.1l3.1-2.2a4.2,4.2,0,0,0,1.6-2.7,4.1,4.1,0,0,0-.9-3.4l-.9-1.1a9.6,9.6,0,0,1-2-7.5l.7-4.6h13.4a3.5,3.5,0,0,0,3.4-3.6,3.4,3.4,0,0,1,1.5-2.9l2.3-1.6c0-.1.1-.1,0-.2h-21.8V48.6h9a3.5,3.5,0,0,0,3.3-3.6,3.6,3.6,0,0,1,1.5-2.9l2.4-1.6v-.2h-16.2v-4a12.8,12.8,0,0,1,4.2-9.6h-13.6a12.8,12.8,0,0,1,4.2,9.6v4h-16.2v.2l2.4,1.6A3.6,3.6,0,0,1-181,45a3.5,3.5,0,0,0,3.4,3.6h9v7.9h-21.8c-.1.2-.1.2,0,.3l2.3,1.6a3.6,3.6,0,0,1,1.5,2.9,3.5,3.5,0,0,0,3.4,3.6h13.3l.8,4.6a9.6,9.6,0,0,1-2,7.5l-.9,1.1a4.1,4.1,0,0,0-.9,3.4,3.8,3.8,0,0,0,1.6,2.7l3,2.2Z"/></clipPath><clipPath id="clip-path-12"><path class="cls-1" d="M-198.4,53.3a2.9,2.9,0,0,1,2.8-2.8,5.7,5.7,0,0,0,5.7-5.6v-7a2.8,2.8,0,0,1,2.8-2.9h8.4V32.2h-8.4a5.7,5.7,0,0,0-5.7,5.7v7a2.8,2.8,0,0,1-2.8,2.8,5.6,5.6,0,0,0-5.6,5.6V73.1h2.8Z"/></clipPath><clipPath id="clip-path-13"><path class="cls-2" d="M-166,21.7a2.1,2.1,0,0,1-1.9-1l-3.2-5.3a2.3,2.3,0,0,1,.4-2.7l3.2-3.2a2.2,2.2,0,0,1,3,0l3.2,3.2a2.1,2.1,0,0,1,.3,2.7l-3.2,5.3A2.1,2.1,0,0,1-166,21.7Zm0-2.1Zm0-8.5-3.2,3.2,3.2,5.2,3.2-5.3Z"/></clipPath><clipPath id="clip-path-14"><path class="cls-1" d="M-153.3,32.2V35h8.4a2.8,2.8,0,0,1,2.8,2.9v7a5.7,5.7,0,0,0,5.7,5.6,2.9,2.9,0,0,1,2.8,2.8V73.1h2.8V53.3a5.6,5.6,0,0,0-5.6-5.6,2.9,2.9,0,0,1-2.9-2.8v-7a5.6,5.6,0,0,0-5.6-5.7Z"/></clipPath><clipPath id="clip-path-15"><path class="cls-1" d="M-147.7,22.4h2.8a8.5,8.5,0,0,0-8.4-8.5h-2.9v2.8h2.9a5.7,5.7,0,0,1,5.6,5.7"/></clipPath><clipPath id="clip-path-16"><path class="cls-1" d="M-178.7,16.7h2.8V13.9h-2.8a8.5,8.5,0,0,0-8.4,8.5h2.8a5.7,5.7,0,0,1,5.6-5.7"/></clipPath><clipPath id="clip-path-17"><path class="cls-1" d="M301.2,81.3a4.8,4.8,0,0,1-3.1,1.2,4.8,4.8,0,0,1-3.2-1.2,7.5,7.5,0,0,0-10,0,4.6,4.6,0,0,1-3.1,1.2,4.4,4.4,0,0,1-3.1-1.2,7.3,7.3,0,0,0-5.1-1.9,7.2,7.2,0,0,0-5,1.9,4.4,4.4,0,0,1-3.1,1.2,3.2,3.2,0,0,1-1.8-.4V40h22v3.1h3.2V40h1.6a3.1,3.1,0,0,0,3.1-3.2V33.7a3.2,3.2,0,0,0-3.1-3.2h-.1A29.9,29.9,0,0,0,262.1,2.3V.6a4.7,4.7,0,0,0-9.4,0V2.3a29.9,29.9,0,0,0-28.3,28.2h-.1a3.2,3.2,0,0,0-3.1,3.2v3.1a3.1,3.1,0,0,0,3.1,3.2h1.6v3.1H229V40h22.1V82.1a4.9,4.9,0,0,1-1.9.4,4.6,4.6,0,0,1-3.1-1.2,7.5,7.5,0,0,0-10,0,4.6,4.6,0,0,1-3.1,1.2,4.4,4.4,0,0,1-3.1-1.2,7.3,7.3,0,0,0-5.1-1.9,7.2,7.2,0,0,0-5,1.9,4.6,4.6,0,0,1-6.2,0,7.2,7.2,0,0,0-5-1.9v3.1a4.6,4.6,0,0,1,3.1,1.2,7.5,7.5,0,0,0,10,0,4.6,4.6,0,0,1,3.1-1.2,4.4,4.4,0,0,1,3.1,1.2,7.3,7.3,0,0,0,5.1,1.9,7.2,7.2,0,0,0,5-1.9,4.6,4.6,0,0,1,6.2,0,7.2,7.2,0,0,0,5,1.9,7.3,7.3,0,0,0,5.1-1.9,4.4,4.4,0,0,1,3.1-1.2,4.6,4.6,0,0,1,3.1,1.2,7.5,7.5,0,0,0,10,0,4.6,4.6,0,0,1,3.1-1.2,4.4,4.4,0,0,1,3.1,1.2,7.3,7.3,0,0,0,5.1,1.9,7.2,7.2,0,0,0,5-1.9,4.6,4.6,0,0,1,6.2,0,7.3,7.3,0,0,0,5.1,1.9,7.2,7.2,0,0,0,5-1.9,4.4,4.4,0,0,1,3.1-1.2V79.4A7,7,0,0,0,301.2,81.3ZM257.4-.9A1.6,1.6,0,0,1,259,.6V2.2h-3.2V.6A1.6,1.6,0,0,1,257.4-.9Zm-4.3,6.3a36.8,36.8,0,0,0-8.4,11.9l2.9,1.3a34.3,34.3,0,0,1,9.8-12.8,33.2,33.2,0,0,1,12.5,24.7h-25a30.3,30.3,0,0,1,1.6-8.9l-3-1a33.9,33.9,0,0,0-1.8,9.9H227.5A26.9,26.9,0,0,1,253.1,5.4ZM224.3,33.7h53.6V30.5h-4.8A36.7,36.7,0,0,0,261.7,5.4a26.7,26.7,0,0,1,25.5,25.1H281v3.2h9.5v3.1H224.3Zm33.1,45.7a7,7,0,0,0-3.2.6V40h6.3V80A6.8,6.8,0,0,0,257.4,79.4Z"/></clipPath><clipPath id="clip-path-18"><path class="cls-1" d="M298.1,90.4a4.4,4.4,0,0,1-3.2-1.3,7.5,7.5,0,0,0-10,0,4.2,4.2,0,0,1-3.1,1.3,4.1,4.1,0,0,1-3.1-1.3,7.7,7.7,0,0,0-10.1,0,4.3,4.3,0,0,1-6.2,0,7.7,7.7,0,0,0-10.1,0,4.1,4.1,0,0,1-3.1,1.3,4.2,4.2,0,0,1-3.1-1.3,7.5,7.5,0,0,0-10,0,4.2,4.2,0,0,1-3.1,1.3,4.1,4.1,0,0,1-3.1-1.3,7.7,7.7,0,0,0-10.1,0,4.3,4.3,0,0,1-6.2,0,7.7,7.7,0,0,0-5-1.9v3.2a4.6,4.6,0,0,1,3.1,1.2,7.5,7.5,0,0,0,10,0,4.6,4.6,0,0,1,3.1-1.2,4.4,4.4,0,0,1,3.1,1.2,7.3,7.3,0,0,0,5.1,1.9,7.2,7.2,0,0,0,5-1.9,4.6,4.6,0,0,1,6.2,0,7.2,7.2,0,0,0,5,1.9,7.3,7.3,0,0,0,5.1-1.9,4.4,4.4,0,0,1,3.1-1.2,4.6,4.6,0,0,1,3.1,1.2,7.5,7.5,0,0,0,10,0,4.6,4.6,0,0,1,3.1-1.2,4.4,4.4,0,0,1,3.1,1.2,7.3,7.3,0,0,0,5.1,1.9,7.2,7.2,0,0,0,5-1.9,4.6,4.6,0,0,1,6.2,0,7.3,7.3,0,0,0,5.1,1.9,7.2,7.2,0,0,0,5-1.9,4.4,4.4,0,0,1,3.1-1.2V87.2a7.5,7.5,0,0,0-5,1.9,4.2,4.2,0,0,1-3.1,1.3"/></clipPath><clipPath id="clip-path-19"><path class="cls-1" d="M266.8,71.5a4.8,4.8,0,0,0,4.8,4.7,4.7,4.7,0,0,0,4.7-4.7V68.3h-3.2v3.2a1.6,1.6,0,1,1-3.1,0V49.4h-3.2Z"/></clipPath><clipPath id="clip-path-20"><path class="cls-1" d="M288.9,60.5V52.6h-3.2v7.9a1.5,1.5,0,0,1-1.5,1.5,1.6,1.6,0,0,1-1.6-1.5V47.9a4.8,4.8,0,0,0-4.7-4.8,4.9,4.9,0,0,0-4.8,4.8v4.7h3.2V47.9a1.6,1.6,0,0,1,1.6-1.6,1.6,1.6,0,0,1,1.5,1.6V60.5a4.8,4.8,0,0,0,4.8,4.7,4.7,4.7,0,0,0,4.7-4.7"/></clipPath><clipPath id="clip-path-21"><path class="cls-1" d="M244.8,71.5a1.6,1.6,0,1,1-3.2,0V68.3h-3.1v3.2a4.7,4.7,0,0,0,9.4,0V49.4h-3.1Z"/></clipPath><clipPath id="clip-path-22"><path class="cls-1" d="M225.9,60.5a4.7,4.7,0,0,0,9.4,0V47.9a1.6,1.6,0,1,1,3.2,0v4.7h3.1V47.9a4.7,4.7,0,1,0-9.4,0V60.5a1.6,1.6,0,0,1-1.6,1.5,1.5,1.5,0,0,1-1.5-1.5V52.6h-3.2Z"/></clipPath><clipPath id="clip-path-23"><path class="cls-1" d="M216.5,71.5a17.7,17.7,0,0,1,5.6.9L227,74l-2.6-6.6a8.4,8.4,0,0,0-7.9-5.4,4.8,4.8,0,0,0-4.8,4.8,4.7,4.7,0,0,0,4.8,4.7m0-6.3a5.4,5.4,0,0,1,5,3.4V69a17.9,17.9,0,0,0-5.1-.7,1.6,1.6,0,0,1-1.6-1.5,1.6,1.6,0,0,1,1.6-1.6"/></clipPath><clipPath id="clip-path-24"><path class="cls-1" d="M290.4,67.4,287.7,74l5-1.6a17.7,17.7,0,0,1,5.6-.9,4.7,4.7,0,0,0,4.7-4.7,4.8,4.8,0,0,0-4.7-4.8A8.4,8.4,0,0,0,290.4,67.4Zm2.9,1.2a5.3,5.3,0,0,1,5-3.4,1.6,1.6,0,0,1,1.6,1.6,1.6,1.6,0,0,1-1.6,1.5,18.6,18.6,0,0,0-5.2.7Z"/></clipPath></defs><path class="cls-3" d="M376.3,90.1h15.9V80.2H376.3Zm17.9,4H374.3a2,2,0,0,1-2-2V78.2a2,2,0,0,1,2-2h19.9a2,2,0,0,1,2,2V92.1A2,2,0,0,1,394.2,94.1Z"/><g class="cls-4"><rect class="cls-2" x="-892.3" y="-3702.5" width="5804" height="4970.61"/></g><path class="cls-3" d="M366.3,90.1h35.8V2.6H366.3Zm37.8,4H364.3a2,2,0,0,1-2-2V.6a2,2,0,0,1,2-2h39.8a2,2,0,0,1,2,2V92.1A2,2,0,0,1,404.1,94.1Z"/><g class="cls-5"><rect class="cls-2" x="-892.3" y="-3702.5" width="5804" height="4964.66"/></g><path class="cls-3" d="M350.4,90.1h11.9V10.5H350.4Zm13.9,4H348.4a2,2,0,0,1-2-2V8.6a2,2,0,0,1,2-2h15.9a2,2,0,0,1,2,2V92.1A2,2,0,0,1,364.3,94.1Z"/><g class="cls-6"><rect class="cls-2" x="-892.3" y="-3702.5" width="5804" height="4964.66"/></g><path class="cls-3" d="M406.1,90.1H418V10.5H406.1Zm13.9,4H404.1a2,2,0,0,1-2-2V8.6a2,2,0,0,1,2-2H420a2,2,0,0,1,2,2V92.1A2,2,0,0,1,420,94.1Z"/><g class="cls-7"><rect class="cls-2" x="-892.3" y="-3702.5" width="5804" height="4964.66"/></g><rect class="cls-2" x="332.5" y="50.3" width="4" height="19.89" transform="translate(85.5 291.6) rotate(-53.1)"/><g class="cls-8"><rect class="cls-2" x="-892.3" y="-3702.5" width="5804" height="4964.66"/></g><rect class="cls-2" x="324.6" y="58.3" width="19.9" height="3.98" transform="translate(30.8 212.8) rotate(-36.9)"/><g class="cls-9"><rect class="cls-2" x="-892.3" y="-3702.5" width="5804" height="4964.66"/></g><rect class="cls-2" x="432" y="50.3" width="4" height="19.89" transform="translate(125.3 371.2) rotate(-53.1)"/><g class="cls-10"><rect class="cls-2" x="-892.3" y="-3702.5" width="5804" height="4964.66"/></g><rect class="cls-2" x="424" y="58.3" width="19.9" height="3.97" transform="translate(50.5 272.3) rotate(-36.8)"/><g class="cls-11"><rect class="cls-2" x="-892.3" y="-3702.5" width="5804" height="4964.66"/></g><path class="cls-3" d="M192.2,40.6a9.5,9.5,0,0,0-6.7-9,36.1,36.1,0,0,0-4.7-11.3,9.3,9.3,0,0,0-8.3-13.8,8.2,8.2,0,0,0-4.4,1.1,36.1,36.1,0,0,0-11.3-4.7,9.4,9.4,0,0,0-9-6.7,9.5,9.5,0,0,0-9,6.7,34.6,34.6,0,0,0-11.2,4.7,9.1,9.1,0,0,0-7.2-.7,1.4,1.4,0,0,0,.8,2.7,6.4,6.4,0,0,1,6.6,1.6A6.6,6.6,0,1,1,117,13.4c.7-1.6-1.9-2.8-2.6-1.1a9.3,9.3,0,0,0,.4,8,38.6,38.6,0,0,0-4.7,11.3,9.5,9.5,0,0,0,0,18.1,38.1,38.1,0,0,0,4.7,11.2A9.4,9.4,0,0,0,116.5,72a9.6,9.6,0,0,0,11.1,1.7,29.3,29.3,0,0,0,4.3,2.3l-4.3,11.6a3.3,3.3,0,0,0,3,4.4H165a3.3,3.3,0,0,0,3-4.4L163.8,76a45,45,0,0,0,4.3-2.3,9.3,9.3,0,0,0,4.4,1.1,10.1,10.1,0,0,0,2.9-.4,1.4,1.4,0,0,0-.9-2.7,6.6,6.6,0,1,1,4.2-3.9,1.4,1.4,0,0,0,2.6,1.1,9.7,9.7,0,0,0-.5-8,35.6,35.6,0,0,0,4.7-11.2A9.5,9.5,0,0,0,192.2,40.6Zm-2.8,0a6.7,6.7,0,1,1-6.7-6.6A6.7,6.7,0,0,1,189.4,40.6Zm-16-1.4H161.5a14.8,14.8,0,0,0-3-7.3l8.4-8.4a9.3,9.3,0,0,0,7.4,1.7,29.9,29.9,0,0,1,3.2,7.6A9.1,9.1,0,0,0,173.4,39.2ZM161.6,73.9l-4.3,1.5a18.7,18.7,0,0,0-.4-2.5,33,33,0,0,0,7.3-3,9.5,9.5,0,0,0,1.5,2A25.8,25.8,0,0,1,161.6,73.9Zm-31.6-2a9,9,0,0,0,1.4-2,31.9,31.9,0,0,0,7.4,3,6.9,6.9,0,0,0-.4,2.5A34.7,34.7,0,0,1,130,71.9ZM116.6,58.5a36.4,36.4,0,0,1-3.5-8.4,10.1,10.1,0,0,0,2.5-.4,31.2,31.2,0,0,0,3,7.3A9.5,9.5,0,0,0,116.6,58.5Zm4.7-2.4a29.6,29.6,0,0,1-3.1-7.6,9.6,9.6,0,0,0,4.1-6.5h11.8a14.1,14.1,0,0,0,3,7.3l-8.4,8.4A9.7,9.7,0,0,0,121.3,56.1Zm25.1,10.1a9.4,9.4,0,0,0-6.4,4.1,29.6,29.6,0,0,1-7.6-3.1,9.6,9.6,0,0,0-1.7-7.5l8.4-8.4a12.9,12.9,0,0,0,7.3,3Zm1.4,2.7a6.7,6.7,0,0,1,6.7,6.7,6.7,6.7,0,1,1-6.7-6.7Zm15.4-1.7a29,29,0,0,1-7.5,3.1,9.9,9.9,0,0,0-6.5-4.1V54.3a12.6,12.6,0,0,0,7.3-3l8.4,8.4A9.6,9.6,0,0,0,163.2,67.2ZM147.8,51.6a11,11,0,1,1,11-11A11,11,0,0,1,147.8,51.6Zm-9-43.3a37.3,37.3,0,0,0-7.4,3.1,9,9,0,0,0-1.4-2,34.7,34.7,0,0,1,8.4-3.5A6.4,6.4,0,0,0,138.8,8.3Zm-6.4,5.8a29.9,29.9,0,0,1,7.6-3.2,9.1,9.1,0,0,0,6.4,4.1V26.9a14.1,14.1,0,0,0-7.3,3.1l-8.4-8.4A9.7,9.7,0,0,0,132.4,14.1Zm31.8-2.7a39,39,0,0,0-7.3-3.1,17.2,17.2,0,0,0,.4-2.4,38.3,38.3,0,0,1,8.4,3.5A9.5,9.5,0,0,0,164.2,11.4Zm-8.5-.5a29.2,29.2,0,0,1,7.5,3.2,9.4,9.4,0,0,0,1.7,7.4l-8.4,8.4a14.1,14.1,0,0,0-7.3-3V15A9.5,9.5,0,0,0,155.7,10.9ZM179,22.8a34.7,34.7,0,0,1,3.5,8.4,6.4,6.4,0,0,0-2.4.4,40,40,0,0,0-3.1-7.4Zm-1.8-11.6a6.6,6.6,0,0,1-9.4,9.4,6.7,6.7,0,0,1,0-9.4A6.8,6.8,0,0,1,177.2,11.2ZM147.8-1a6.7,6.7,0,0,1,6.7,6.7,6.7,6.7,0,0,1-13.3,0,4.9,4.9,0,0,1,.1-1.2.4.4,0,0,1,.1-.3A6.5,6.5,0,0,1,147.8-1ZM128.7,23.5l8.4,8.4a14.8,14.8,0,0,0-3,7.3H122.3a9.4,9.4,0,0,0-4.1-6.4,29.6,29.6,0,0,1,3.1-7.6A9.3,9.3,0,0,0,128.7,23.5Zm-10.1.7a33.8,33.8,0,0,0-3,7.4,6.9,6.9,0,0,0-2.5-.4,34.7,34.7,0,0,1,3.5-8.4ZM106.3,40.6a6.7,6.7,0,1,1,6.6,6.7A6.7,6.7,0,0,1,106.3,40.6ZM123.1,72a7,7,0,0,1-4.7-1.9,6.8,6.8,0,0,1,0-9.4A6.6,6.6,0,1,1,123.1,72Zm42.3,16.6c.1.3-.1.5-.4.6H130.6c-.3-.1-.5-.3-.4-.6l4.3-11.5,4.3,1.3a9.6,9.6,0,0,0,9,6.7,9.5,9.5,0,0,0,9-6.7l4.4-1.3Zm1.5-30.9-8.4-8.4a13.3,13.3,0,0,0,3-7.3h11.9a9.3,9.3,0,0,0,4.1,6.5,29.9,29.9,0,0,1-3.2,7.6l-1.8-.2A9.1,9.1,0,0,0,166.9,57.7ZM177,57a36.4,36.4,0,0,0,3.1-7.3,9.3,9.3,0,0,0,2.4.4,36.4,36.4,0,0,1-3.5,8.4A9.5,9.5,0,0,0,177,57Z"/><g class="cls-12"><rect class="cls-2" x="-4416.5" y="-2219.1" width="5391.4" height="4611.73"/><g class="cls-13"><rect class="cls-2" x="75.8" y="-31.4" width="144" height="151.08"/></g></g><path class="cls-2" d="M-128.7,94.6h-74.6a2.6,2.6,0,0,1-2.5-2.6V86.5a2.6,2.6,0,0,1,2.5-2.6h28.6a4.8,4.8,0,0,1-.7-2.1,6.7,6.7,0,0,1,1.4-5.3l.9-1.1a7,7,0,0,0,1.5-5.6l-.4-2.4h-11.2a6,6,0,0,1-5.9-6.1.9.9,0,0,0-.4-.8l-2.4-1.7a2.7,2.7,0,0,1-1-2.9,2.7,2.7,0,0,1,2.5-1.9h19.3V51.1h-6.5a6,6,0,0,1-5.9-6.1c0-.4-.1-.7-.4-.8l-2.3-1.7a2.7,2.7,0,0,1-1-2.9,2.5,2.5,0,0,1,2.4-1.8h13.7V36.3a10.3,10.3,0,0,0-5.7-9.3l-.7-.3V24.2h23v2.5l-.7.3a10.2,10.2,0,0,0-5.7,9.3v1.5h13.7a2.5,2.5,0,0,1,2.4,1.8,2.7,2.7,0,0,1-1,2.9l-2.4,1.7a.9.9,0,0,0-.4.8,5.9,5.9,0,0,1-5.8,6.1h-6.5V54h19.3a2.8,2.8,0,0,1,2.5,1.9,2.7,2.7,0,0,1-1,2.9l-2.4,1.7c-.3.1-.4.4-.4.8a6,6,0,0,1-5.9,6.1H-160l-.4,2.4a7,7,0,0,0,1.5,5.6l.9,1.1a6.7,6.7,0,0,1,1.4,5.3,6.5,6.5,0,0,1-.7,2.1h28.6a2.6,2.6,0,0,1,2.5,2.6V92A2.6,2.6,0,0,1-128.7,94.6Zm-74.6-8.2h0V92h74.6V86.5h-35.1l3.1-2.2a4.2,4.2,0,0,0,1.6-2.7,4.1,4.1,0,0,0-.9-3.4l-.9-1.1a9.6,9.6,0,0,1-2-7.5l.7-4.6h13.4a3.5,3.5,0,0,0,3.4-3.6,3.4,3.4,0,0,1,1.5-2.9l2.3-1.6c0-.1.1-.1,0-.2h-21.8V48.6h9a3.5,3.5,0,0,0,3.3-3.6,3.6,3.6,0,0,1,1.5-2.9l2.4-1.6v-.2h-16.2v-4a12.8,12.8,0,0,1,4.2-9.6h-13.6a12.8,12.8,0,0,1,4.2,9.6v4h-16.2v.2l2.4,1.6A3.6,3.6,0,0,1-181,45a3.5,3.5,0,0,0,3.4,3.6h9v7.9h-21.8c-.1.2-.1.2,0,.3l2.3,1.6a3.6,3.6,0,0,1,1.5,2.9,3.5,3.5,0,0,0,3.4,3.6h13.3l.8,4.6a9.6,9.6,0,0,1-2,7.5l-.9,1.1a4.1,4.1,0,0,0-.9,3.4,3.8,3.8,0,0,0,1.6,2.7l3,2.2Z"/><g class="cls-14"><path class="cls-2" d="M2256.9,1878.4H-2620.4V-2527.8H2256.9Zm-4874.3-3H2253.9V-2524.8H-2617.4Z"/></g><path class="cls-3" d="M-198.4,53.3a2.9,2.9,0,0,1,2.8-2.8,5.7,5.7,0,0,0,5.7-5.6v-7a2.8,2.8,0,0,1,2.8-2.9h8.4V32.2h-8.4a5.7,5.7,0,0,0-5.7,5.7v7a2.8,2.8,0,0,1-2.8,2.8,5.6,5.6,0,0,0-5.6,5.6V73.1h2.8Z"/><g class="cls-15"><rect class="cls-2" x="-2852.3" y="-2623.7" width="5338" height="4566.05"/></g><path class="cls-2" d="M-166,21.7a2.1,2.1,0,0,1-1.9-1l-3.2-5.3a2.3,2.3,0,0,1,.4-2.7l3.2-3.2a2.2,2.2,0,0,1,3,0l3.2,3.2a2.1,2.1,0,0,1,.3,2.7l-3.2,5.3A2.1,2.1,0,0,1-166,21.7Zm0-2.1Zm0-8.5-3.2,3.2,3.2,5.2,3.2-5.3Z"/><g class="cls-16"><path class="cls-2" d="M1841.1,1474.2H-2199.2V-1982.2H1841.1ZM-2197,1472H1838.9V-1980H-2197Z"/></g><path class="cls-3" d="M-153.3,32.2V35h8.4a2.8,2.8,0,0,1,2.8,2.9v7a5.7,5.7,0,0,0,5.7,5.6,2.9,2.9,0,0,1,2.8,2.8V73.1h2.8V53.3a5.6,5.6,0,0,0-5.6-5.6,2.9,2.9,0,0,1-2.9-2.8v-7a5.6,5.6,0,0,0-5.6-5.7Z"/><g class="cls-17"><rect class="cls-2" x="-2852.3" y="-2623.7" width="5338" height="4566.05"/></g><path class="cls-3" d="M-147.7,22.4h2.8a8.5,8.5,0,0,0-8.4-8.5h-2.9v2.8h2.9a5.7,5.7,0,0,1,5.6,5.7"/><g class="cls-18"><rect class="cls-2" x="-2852.3" y="-2623.7" width="5338" height="4566.05"/></g><path class="cls-3" d="M-178.7,16.7h2.8V13.9h-2.8a8.5,8.5,0,0,0-8.4,8.5h2.8a5.7,5.7,0,0,1,5.6-5.7"/><g class="cls-19"><rect class="cls-2" x="-2852.3" y="-2623.7" width="5338" height="4566.05"/></g><path class="cls-3" d="M301.2,81.3a4.8,4.8,0,0,1-3.1,1.2,4.8,4.8,0,0,1-3.2-1.2,7.5,7.5,0,0,0-10,0,4.6,4.6,0,0,1-3.1,1.2,4.4,4.4,0,0,1-3.1-1.2,7.3,7.3,0,0,0-5.1-1.9,7.2,7.2,0,0,0-5,1.9,4.4,4.4,0,0,1-3.1,1.2,3.2,3.2,0,0,1-1.8-.4V40h22v3.1h3.2V40h1.6a3.1,3.1,0,0,0,3.1-3.2V33.7a3.2,3.2,0,0,0-3.1-3.2h-.1A29.9,29.9,0,0,0,262.1,2.3V.6a4.7,4.7,0,0,0-9.4,0V2.3a29.9,29.9,0,0,0-28.3,28.2h-.1a3.2,3.2,0,0,0-3.1,3.2v3.1a3.1,3.1,0,0,0,3.1,3.2h1.6v3.1H229V40h22.1V82.1a4.9,4.9,0,0,1-1.9.4,4.6,4.6,0,0,1-3.1-1.2,7.5,7.5,0,0,0-10,0,4.6,4.6,0,0,1-3.1,1.2,4.4,4.4,0,0,1-3.1-1.2,7.3,7.3,0,0,0-5.1-1.9,7.2,7.2,0,0,0-5,1.9,4.6,4.6,0,0,1-6.2,0,7.2,7.2,0,0,0-5-1.9v3.1a4.6,4.6,0,0,1,3.1,1.2,7.5,7.5,0,0,0,10,0,4.6,4.6,0,0,1,3.1-1.2,4.4,4.4,0,0,1,3.1,1.2,7.3,7.3,0,0,0,5.1,1.9,7.2,7.2,0,0,0,5-1.9,4.6,4.6,0,0,1,6.2,0,7.2,7.2,0,0,0,5,1.9,7.3,7.3,0,0,0,5.1-1.9,4.4,4.4,0,0,1,3.1-1.2,4.6,4.6,0,0,1,3.1,1.2,7.5,7.5,0,0,0,10,0,4.6,4.6,0,0,1,3.1-1.2,4.4,4.4,0,0,1,3.1,1.2,7.3,7.3,0,0,0,5.1,1.9,7.2,7.2,0,0,0,5-1.9,4.6,4.6,0,0,1,6.2,0,7.3,7.3,0,0,0,5.1,1.9,7.2,7.2,0,0,0,5-1.9,4.4,4.4,0,0,1,3.1-1.2V79.4A7,7,0,0,0,301.2,81.3ZM257.4-.9A1.6,1.6,0,0,1,259,.6V2.2h-3.2V.6A1.6,1.6,0,0,1,257.4-.9Zm-4.3,6.3a36.8,36.8,0,0,0-8.4,11.9l2.9,1.3a34.3,34.3,0,0,1,9.8-12.8,33.2,33.2,0,0,1,12.5,24.7h-25a30.3,30.3,0,0,1,1.6-8.9l-3-1a33.9,33.9,0,0,0-1.8,9.9H227.5A26.9,26.9,0,0,1,253.1,5.4ZM224.3,33.7h53.6V30.5h-4.8A36.7,36.7,0,0,0,261.7,5.4a26.7,26.7,0,0,1,25.5,25.1H281v3.2h9.5v3.1H224.3Zm33.1,45.7a7,7,0,0,0-3.2.6V40h6.3V80A6.8,6.8,0,0,0,257.4,79.4Z"/><g class="cls-20"><rect class="cls-2" x="-2539.4" y="-2406.1" width="5224.4" height="4468.85"/></g><path class="cls-3" d="M298.1,90.4a4.4,4.4,0,0,1-3.2-1.3,7.5,7.5,0,0,0-10,0,4.2,4.2,0,0,1-3.1,1.3,4.1,4.1,0,0,1-3.1-1.3,7.7,7.7,0,0,0-10.1,0,4.3,4.3,0,0,1-6.2,0,7.7,7.7,0,0,0-10.1,0,4.1,4.1,0,0,1-3.1,1.3,4.2,4.2,0,0,1-3.1-1.3,7.5,7.5,0,0,0-10,0,4.2,4.2,0,0,1-3.1,1.3,4.1,4.1,0,0,1-3.1-1.3,7.7,7.7,0,0,0-10.1,0,4.3,4.3,0,0,1-6.2,0,7.7,7.7,0,0,0-5-1.9v3.2a4.6,4.6,0,0,1,3.1,1.2,7.5,7.5,0,0,0,10,0,4.6,4.6,0,0,1,3.1-1.2,4.4,4.4,0,0,1,3.1,1.2,7.3,7.3,0,0,0,5.1,1.9,7.2,7.2,0,0,0,5-1.9,4.6,4.6,0,0,1,6.2,0,7.2,7.2,0,0,0,5,1.9,7.3,7.3,0,0,0,5.1-1.9,4.4,4.4,0,0,1,3.1-1.2,4.6,4.6,0,0,1,3.1,1.2,7.5,7.5,0,0,0,10,0,4.6,4.6,0,0,1,3.1-1.2,4.4,4.4,0,0,1,3.1,1.2,7.3,7.3,0,0,0,5.1,1.9,7.2,7.2,0,0,0,5-1.9,4.6,4.6,0,0,1,6.2,0,7.3,7.3,0,0,0,5.1,1.9,7.2,7.2,0,0,0,5-1.9,4.4,4.4,0,0,1,3.1-1.2V87.2a7.5,7.5,0,0,0-5,1.9,4.2,4.2,0,0,1-3.1,1.3"/><g class="cls-21"><rect class="cls-2" x="-2539.4" y="-2406.1" width="5224.4" height="4468.85"/></g><path class="cls-3" d="M266.8,71.5a4.8,4.8,0,0,0,4.8,4.7,4.7,4.7,0,0,0,4.7-4.7V68.3h-3.2v3.2a1.6,1.6,0,1,1-3.1,0V49.4h-3.2Z"/><g class="cls-22"><rect class="cls-2" x="-2539.4" y="-2406.1" width="5224.4" height="4468.85"/></g><path class="cls-3" d="M288.9,60.5V52.6h-3.2v7.9a1.5,1.5,0,0,1-1.5,1.5,1.6,1.6,0,0,1-1.6-1.5V47.9a4.8,4.8,0,0,0-4.7-4.8,4.9,4.9,0,0,0-4.8,4.8v4.7h3.2V47.9a1.6,1.6,0,0,1,1.6-1.6,1.6,1.6,0,0,1,1.5,1.6V60.5a4.8,4.8,0,0,0,4.8,4.7,4.7,4.7,0,0,0,4.7-4.7"/><g class="cls-23"><rect class="cls-2" x="-2539.4" y="-2406.1" width="5224.4" height="4468.85"/></g><path class="cls-3" d="M244.8,71.5a1.6,1.6,0,1,1-3.2,0V68.3h-3.1v3.2a4.7,4.7,0,0,0,9.4,0V49.4h-3.1Z"/><g class="cls-24"><rect class="cls-2" x="-2539.4" y="-2406.1" width="5224.4" height="4468.85"/></g><path class="cls-3" d="M225.9,60.5a4.7,4.7,0,0,0,9.4,0V47.9a1.6,1.6,0,1,1,3.2,0v4.7h3.1V47.9a4.7,4.7,0,1,0-9.4,0V60.5a1.6,1.6,0,0,1-1.6,1.5,1.5,1.5,0,0,1-1.5-1.5V52.6h-3.2Z"/><g class="cls-25"><rect class="cls-2" x="-2539.4" y="-2406.1" width="5224.4" height="4468.85"/></g><path class="cls-3" d="M216.5,71.5a17.7,17.7,0,0,1,5.6.9L227,74l-2.6-6.6a8.4,8.4,0,0,0-7.9-5.4,4.8,4.8,0,0,0-4.8,4.8,4.7,4.7,0,0,0,4.8,4.7m0-6.3a5.4,5.4,0,0,1,5,3.4V69a17.9,17.9,0,0,0-5.1-.7,1.6,1.6,0,0,1-1.6-1.5,1.6,1.6,0,0,1,1.6-1.6"/><g class="cls-26"><rect class="cls-2" x="-2539.4" y="-2406.1" width="5224.4" height="4468.85"/></g><path class="cls-3" d="M290.4,67.4,287.7,74l5-1.6a17.7,17.7,0,0,1,5.6-.9,4.7,4.7,0,0,0,4.7-4.7,4.8,4.8,0,0,0-4.7-4.8A8.4,8.4,0,0,0,290.4,67.4Zm2.9,1.2a5.3,5.3,0,0,1,5-3.4,1.6,1.6,0,0,1,1.6,1.6,1.6,1.6,0,0,1-1.6,1.5,18.6,18.6,0,0,0-5.2.7Z"/><g class="cls-27"><rect class="cls-2" x="-2539.4" y="-2406.1" width="5224.4" height="4468.85"/></g><path class="cls-2" d="M41.6,17.7h3.5v3.5a1.4,1.4,0,0,0,1.4,1.4,1.3,1.3,0,0,0,1.3-1.4V17.7h3.5a1.4,1.4,0,0,0,1.4-1.4A1.3,1.3,0,0,0,51.3,15H47.8V11.5a1.3,1.3,0,0,0-1.3-1.4,1.4,1.4,0,0,0-1.4,1.4V15H41.6a1.3,1.3,0,0,0-1.4,1.3,1.4,1.4,0,0,0,1.4,1.4Zm0,0"/><path class="cls-2" d="M33.9,37H27.3a2.2,2.2,0,0,0-2.1,2.1v6.6a2.1,2.1,0,0,0,2.1,2.1h6.6A2.1,2.1,0,0,0,36,45.7V39.1A2.1,2.1,0,0,0,33.9,37Zm-.6,8.1H27.9V39.8h5.4Zm0,0"/><path class="cls-2" d="M49.7,37H43.2a2.1,2.1,0,0,0-2.1,2.1v6.6a2.1,2.1,0,0,0,2.1,2.1h6.5a2.1,2.1,0,0,0,2.1-2.1V39.1A2.1,2.1,0,0,0,49.7,37Zm-.6,8.1H43.8V39.8h5.3Zm0,0"/><path class="cls-2" d="M65.6,37H59a2.2,2.2,0,0,0-2.1,2.1v6.6A2.1,2.1,0,0,0,59,47.8h6.6a2.1,2.1,0,0,0,2.1-2.1V39.1A2.2,2.2,0,0,0,65.6,37ZM65,45.1H59.6V39.8H65Zm0,0"/><path class="cls-2" d="M33.9,51.5H27.3a2.1,2.1,0,0,0-2.1,2.1v6.5a2.1,2.1,0,0,0,2.1,2.1h6.6A2.1,2.1,0,0,0,36,60.1V53.6a2.1,2.1,0,0,0-2.1-2.1Zm-.6,8H27.9V54.2h5.4Zm0,0"/><path class="cls-2" d="M49.7,51.5H43.2a2.1,2.1,0,0,0-2.1,2.1v6.5a2.1,2.1,0,0,0,2.1,2.1h6.5a2.1,2.1,0,0,0,2.1-2.1V53.6a2.1,2.1,0,0,0-2.1-2.1Zm-.6,8H43.8V54.2h5.3Zm0,0"/><path class="cls-2" d="M65.6,51.5H59a2.1,2.1,0,0,0-2.1,2.1v6.5A2.1,2.1,0,0,0,59,62.2h6.6a2.1,2.1,0,0,0,2.1-2.1V53.6a2.1,2.1,0,0,0-2.1-2.1Zm-.6,8H59.6V54.2H65Zm0,0"/><path class="cls-2" d="M90.8,36.1H77.5V28.4h1.1a2.2,2.2,0,0,0,2.2-2.2V18.8a2.2,2.2,0,0,0-2.2-2.2H62.8v-.3a16.4,16.4,0,0,0-32.7,0v.3H14.3a2.2,2.2,0,0,0-2.2,2.2v7.4a2.2,2.2,0,0,0,2.2,2.2h1.1v7.7H2.1a2,2,0,0,0-2.1,2v5.7a2,2,0,0,0,2.1,2h.4V90.9a2,2,0,0,0,2,2h84a2,2,0,0,0,2-2V45.8h.3a2,2,0,0,0,2.1-2V38.1a2,2,0,0,0-2.1-2ZM15.4,90.2H5.2V83.5H15.4Zm0-9.5H5.2V69.1H15.4Zm0-14.3H5.2V45.8H15.4Zm0-23.3H2.7V38.8H15.4ZM78.1,19.3v6.4H59.8a15.1,15.1,0,0,0,2.7-6.4ZM46.5,2.7A13.7,13.7,0,1,1,32.8,16.3,13.6,13.6,0,0,1,46.5,2.7Zm-31.7,23V19.3H30.4a15.1,15.1,0,0,0,2.7,6.4ZM45.1,90.2H36.4V75.5h8.7Zm11.5,0H47.8V75.5h8.8Zm31.1,0H77.5V83.5H87.7Zm0-9.5H77.5V69.1H87.7Zm0-14.3H77.5V61.2a1.4,1.4,0,0,0-1.4-1.4,1.4,1.4,0,0,0-1.3,1.4v29H59.3V75.5h.3a4.2,4.2,0,0,0,4.3-4.2A4.3,4.3,0,0,0,59.6,67H49.5a1.4,1.4,0,0,0-1.4,1.4,1.4,1.4,0,0,0,1.4,1.4H59.6a1.5,1.5,0,1,1,0,3H33.3a1.5,1.5,0,1,1,0-3h9.9a1.4,1.4,0,0,0,1.4-1.4A1.4,1.4,0,0,0,43.2,67H33.3A4.3,4.3,0,0,0,29,71.3a4.2,4.2,0,0,0,4.3,4.2h.3V90.2H18.2V28.4H35.5a15.9,15.9,0,0,0,11,4.3,16.3,16.3,0,0,0,11-4.3H74.8V60.9c0,.7.6,3.7,1.3,3.7a1.3,1.3,0,0,0,1.4-1.3V45.8H87.7Zm2.5-23.3H77.5V38.8H90.2Zm0,0"/></svg>