<svg id="Layer_1" data-name="Layer 1" xmlns="http://www.w3.org/2000/svg" xmlns:xlink="http://www.w3.org/1999/xlink" viewBox="0 0 97.6 97.6"><defs><style>.cls-1,.cls-2,.cls-3{fill:#221c45;}.cls-1{clip-rule:evenodd;}.cls-3{fill-rule:evenodd;}.cls-4{clip-path:url(#clip-path);}.cls-5{clip-path:url(#clip-path-2);}.cls-6{clip-path:url(#clip-path-3);}.cls-7{clip-path:url(#clip-path-4);}.cls-8{clip-path:url(#clip-path-5);}.cls-9{clip-path:url(#clip-path-6);}.cls-10{clip-path:url(#clip-path-7);}.cls-11{clip-path:url(#clip-path-8);}.cls-12{clip-path:url(#clip-path-9);}.cls-13{clip-path:url(#clip-path-11);}.cls-14{clip-path:url(#clip-path-12);}.cls-15{clip-path:url(#clip-path-13);}.cls-16{clip-path:url(#clip-path-14);}.cls-17{clip-path:url(#clip-path-15);}.cls-18{clip-path:url(#clip-path-16);}.cls-19{clip-path:url(#clip-path-17);}.cls-20{clip-path:url(#clip-path-18);}.cls-21{clip-path:url(#clip-path-19);}.cls-22{clip-path:url(#clip-path-20);}.cls-23{clip-path:url(#clip-path-21);}.cls-24{clip-path:url(#clip-path-22);}.cls-25{clip-path:url(#clip-path-23);}.cls-26{clip-path:url(#clip-path-25);}.cls-27{clip-path:url(#clip-path-26);}.cls-28{clip-path:url(#clip-path-28);}.cls-29{clip-path:url(#clip-path-29);}.cls-30{clip-path:url(#clip-path-30);}.cls-31{clip-path:url(#clip-path-32);}.cls-32{clip-path:url(#clip-path-33);}.cls-33{clip-path:url(#clip-path-34);}.cls-34{clip-path:url(#clip-path-36);}.cls-35{clip-path:url(#clip-path-37);}.cls-36{clip-path:url(#clip-path-38);}.cls-37{clip-path:url(#clip-path-40);}.cls-38{clip-path:url(#clip-path-41);}.cls-39{clip-path:url(#clip-path-43);}.cls-40{clip-path:url(#clip-path-44);}.cls-41{clip-path:url(#clip-path-46);}</style><clipPath id="clip-path"><path class="cls-1" d="M167.7,94.2h15.9V84.3H167.7Zm17.9,4H165.7a2,2,0,0,1-2-2V82.3a2,2,0,0,1,2-2h19.9a2,2,0,0,1,2,2V96.2A2,2,0,0,1,185.6,98.2Z"/></clipPath><clipPath id="clip-path-2"><path class="cls-1" d="M157.8,94.2h35.8V6.7H157.8Zm37.7,4H155.8a2,2,0,0,1-2-2V4.7a2,2,0,0,1,2-2h39.7a2,2,0,0,1,2,2V96.2A2,2,0,0,1,195.5,98.2Z"/></clipPath><clipPath id="clip-path-3"><path class="cls-1" d="M141.8,94.2h12V14.6h-12Zm14,4h-16a2,2,0,0,1-1.9-2V12.7a2,2,0,0,1,1.9-2h16a2,2,0,0,1,2,2V96.2A2,2,0,0,1,155.8,98.2Z"/></clipPath><clipPath id="clip-path-4"><path class="cls-1" d="M197.5,94.2h12V14.6h-12Zm14,4h-16a1.9,1.9,0,0,1-1.9-2V12.7a1.9,1.9,0,0,1,1.9-2h16a1.9,1.9,0,0,1,1.9,2V96.2A1.9,1.9,0,0,1,211.5,98.2Z"/></clipPath><clipPath id="clip-path-5"><rect class="cls-2" x="116" y="94.2" width="23.9" height="3.97"/></clipPath><clipPath id="clip-path-6"><rect class="cls-2" x="123.9" y="54.4" width="4" height="41.77"/></clipPath><clipPath id="clip-path-7"><rect class="cls-2" x="123.9" y="54.4" width="4" height="19.89" transform="translate(-1.1 126.4) rotate(-53.1)"/></clipPath><clipPath id="clip-path-8"><rect class="cls-2" x="-1100.8" y="-3698.4" width="5804" height="4964.66"/></clipPath><clipPath id="clip-path-9"><rect class="cls-2" x="116" y="62.4" width="19.9" height="3.98" transform="translate(-13.4 88.4) rotate(-36.9)"/></clipPath><clipPath id="clip-path-11"><rect class="cls-2" x="223.4" y="54.4" width="4" height="19.89" transform="translate(38.6 206) rotate(-53.1)"/></clipPath><clipPath id="clip-path-12"><rect class="cls-2" x="215.4" y="62.4" width="19.9" height="3.97" transform="translate(6.4 148) rotate(-36.8)"/></clipPath><clipPath id="clip-path-13"><path class="cls-1" d="M-16.4,44.7a9.5,9.5,0,0,0-6.7-9,38.4,38.4,0,0,0-4.6-11.3,9.6,9.6,0,0,0-1.7-11.1,9.4,9.4,0,0,0-6.7-2.7,8.5,8.5,0,0,0-4.4,1.1A36.6,36.6,0,0,0-51.7,7,9.5,9.5,0,0,0-60.8.3a9.5,9.5,0,0,0-9,6.7A35.6,35.6,0,0,0-81,11.7a9.1,9.1,0,0,0-7.2-.7,1.4,1.4,0,0,0,.8,2.7,6.6,6.6,0,0,1,6.7,1.6,6.8,6.8,0,0,1,0,9.4,6.6,6.6,0,0,1-9.4,0,6.6,6.6,0,0,1-1.5-7.2c.7-1.6-1.9-2.8-2.6-1.1a9.3,9.3,0,0,0,.4,8,41.6,41.6,0,0,0-4.7,11.3,9.5,9.5,0,0,0-6.6,9,9.5,9.5,0,0,0,6.6,9.1A42.3,42.3,0,0,0-93.8,65a9.4,9.4,0,0,0,1.7,11.1A9.6,9.6,0,0,0-81,77.8a35.5,35.5,0,0,0,4.3,2.3L-81,91.7a3.3,3.3,0,0,0,3.1,4.4h34.3a3.4,3.4,0,0,0,3.1-4.4l-4.3-11.6a35.5,35.5,0,0,0,4.3-2.3,9.9,9.9,0,0,0,4.4,1.1,9.2,9.2,0,0,0,2.9-.4c1.7-.6.9-3.3-.8-2.7a7,7,0,0,1-6.8-1.6,6.8,6.8,0,0,1,0-9.5,6.8,6.8,0,0,1,9.4,0,6.6,6.6,0,0,1,1.5,7.2c-.7,1.6,1.9,2.8,2.6,1.1a10.1,10.1,0,0,0-.4-8,39,39,0,0,0,4.6-11.2A9.5,9.5,0,0,0-16.4,44.7Zm-2.8,0a6.7,6.7,0,0,1-6.7,6.7,6.7,6.7,0,0,1-6.6-6.7,6.7,6.7,0,0,1,6.6-6.6A6.7,6.7,0,0,1-19.2,44.7Zm-16-1.4H-47.1a13.2,13.2,0,0,0-3-7.3l8.4-8.4a9.5,9.5,0,0,0,7.5,1.7,33.7,33.7,0,0,1,3.1,7.6A9.1,9.1,0,0,0-35.2,43.3ZM-47,78a31.2,31.2,0,0,1-4.3,1.5,10.1,10.1,0,0,0-.4-2.5,31.2,31.2,0,0,0,7.3-3,9.5,9.5,0,0,0,1.5,2A22.2,22.2,0,0,1-47,78Zm-31.6-2a9.5,9.5,0,0,0,1.5-2,31.2,31.2,0,0,0,7.3,3,6.9,6.9,0,0,0-.4,2.5A36.4,36.4,0,0,1-78.6,76ZM-92,62.6a36.4,36.4,0,0,1-3.5-8.4,10.1,10.1,0,0,0,2.5-.4,31.2,31.2,0,0,0,3,7.3A9.5,9.5,0,0,0-92,62.6Zm4.7-2.4a29.6,29.6,0,0,1-3.1-7.6,9.6,9.6,0,0,0,4.1-6.5h11.8a13.4,13.4,0,0,0,3.1,7.3l-8.5,8.4A9.7,9.7,0,0,0-87.3,60.2Zm25.1,10.1a9.7,9.7,0,0,0-6.4,4.1,29.6,29.6,0,0,1-7.6-3.1,9.2,9.2,0,0,0-1.7-7.5l8.4-8.4a13.2,13.2,0,0,0,7.3,3Zm1.4,2.7a6.7,6.7,0,0,1,6.7,6.7,6.6,6.6,0,0,1-6.7,6.6,6.6,6.6,0,0,1-6.6-6.6A6.7,6.7,0,0,1-60.8,73Zm15.5-1.7a31.2,31.2,0,0,1-7.6,3.1,9.9,9.9,0,0,0-6.5-4.1V58.4a12.6,12.6,0,0,0,7.3-3l8.4,8.4A9.6,9.6,0,0,0-45.3,71.3ZM-60.8,55.7a10.9,10.9,0,0,1-10.9-11A10.9,10.9,0,0,1-60.8,33.8a10.9,10.9,0,0,1,11,10.9A11,11,0,0,1-60.8,55.7Zm-9-43.3a36.4,36.4,0,0,0-7.3,3.1,9.5,9.5,0,0,0-1.5-2A36.4,36.4,0,0,1-70.2,10,9.3,9.3,0,0,0-69.8,12.4Zm-6.4,5.8A29.9,29.9,0,0,1-68.6,15a9.3,9.3,0,0,0,6.4,4.1V31a14.1,14.1,0,0,0-7.3,3.1l-8.3-8.4A9.7,9.7,0,0,0-76.2,18.2Zm31.8-2.7a36.4,36.4,0,0,0-7.3-3.1,9.3,9.3,0,0,0,.4-2.4,38.3,38.3,0,0,1,8.4,3.5A9.5,9.5,0,0,0-44.4,15.5Zm-8.5-.5a31.5,31.5,0,0,1,7.6,3.2,9.3,9.3,0,0,0,1.6,7.4L-52.1,34a14.1,14.1,0,0,0-7.3-3V19.1A9.5,9.5,0,0,0-52.9,15Zm23.3,11.9a31.1,31.1,0,0,1,3.5,8.4,6.7,6.7,0,0,0-2.4.4,34.1,34.1,0,0,0-3.1-7.4A10.1,10.1,0,0,0-29.6,26.9Zm-1.8-11.6a6.6,6.6,0,0,1,0,9.4,6.6,6.6,0,0,1-9.4,0,6.8,6.8,0,0,1,0-9.4A6.8,6.8,0,0,1-31.4,15.3ZM-60.8,3.1a6.7,6.7,0,0,1,6.7,6.7,6.7,6.7,0,0,1-6.7,6.6,6.7,6.7,0,0,1-6.6-6.6,4.9,4.9,0,0,1,.1-1.2V8.3A6.6,6.6,0,0,1-60.8,3.1Zm-19,24.5,8.4,8.4a14.1,14.1,0,0,0-3.1,7.3H-86.3a9.4,9.4,0,0,0-4.1-6.4,29.6,29.6,0,0,1,3.1-7.6A9.5,9.5,0,0,0-79.8,27.6Zm-10.2.7a33.8,33.8,0,0,0-3,7.4,6.9,6.9,0,0,0-2.5-.4A34.7,34.7,0,0,1-92,26.9Zm-12.3,16.4a6.7,6.7,0,0,1,6.6-6.6A6.7,6.7,0,0,1-89,44.7a6.7,6.7,0,0,1-6.7,6.7A6.7,6.7,0,0,1-102.3,44.7Zm16.9,31.4a6.7,6.7,0,0,1-4.7-1.9,6.8,6.8,0,0,1,0-9.5,6.8,6.8,0,0,1,9.4,0,7,7,0,0,1,0,9.5A7,7,0,0,1-85.4,76.1Zm42.2,16.6c.1.3,0,.5-.4.6H-77.9c-.4-.1-.5-.3-.5-.6l4.3-11.5,4.3,1.3a9.5,9.5,0,0,0,9,6.6,9.5,9.5,0,0,0,9.1-6.6l4.3-1.3Zm1.5-30.9-8.4-8.4a12.6,12.6,0,0,0,3-7.3h11.9a9.3,9.3,0,0,0,4.1,6.5,33.7,33.7,0,0,1-3.1,7.6l-1.9-.2A9.4,9.4,0,0,0-41.7,61.8Zm10.1-.7a31.4,31.4,0,0,0,3.1-7.3,10,10,0,0,0,2.4.4,32.5,32.5,0,0,1-3.5,8.4A7.5,7.5,0,0,0-31.6,61.1Z"/></clipPath><clipPath id="clip-path-14"><rect class="cls-2" x="-4625.1" y="-2215" width="5391.4" height="4611.73"/></clipPath><clipPath id="clip-path-15"><path class="cls-2" d="M-337.3,98.7h-74.6a2.6,2.6,0,0,1-2.5-2.6V90.6a2.6,2.6,0,0,1,2.5-2.6h28.6a6.5,6.5,0,0,1-.7-2.1,6.7,6.7,0,0,1,1.4-5.3l1-1.1a7.3,7.3,0,0,0,1.4-5.6l-.4-2.4h-11.2a6,6,0,0,1-5.9-6.1c0-.4-.1-.7-.4-.8l-2.3-1.7a2.4,2.4,0,0,1-1-2.9,2.6,2.6,0,0,1,2.4-1.9h19.3V55.2h-6.5a5.9,5.9,0,0,1-5.8-6.1.9.9,0,0,0-.4-.8l-2.4-1.7a2.7,2.7,0,0,1-1-2.9,2.5,2.5,0,0,1,2.4-1.8h13.7V40.4a10.2,10.2,0,0,0-5.7-9.3l-.7-.3V28.3H-363v2.5l-.8.3a10.3,10.3,0,0,0-5.7,9.3v1.5h13.7a2.5,2.5,0,0,1,2.4,1.8,2.7,2.7,0,0,1-1,2.9l-2.3,1.7c-.3.1-.4.4-.4.8a6,6,0,0,1-5.9,6.1h-6.5v2.9h19.3a2.6,2.6,0,0,1,2.5,1.9,2.7,2.7,0,0,1-1,2.9l-2.4,1.7a.9.9,0,0,0-.4.8,6,6,0,0,1-5.9,6.1h-11.2l-.4,2.4a7,7,0,0,0,1.5,5.6l.9,1.1a6.7,6.7,0,0,1,1.4,5.3,4.8,4.8,0,0,1-.7,2.1h28.6a2.6,2.6,0,0,1,2.5,2.6v5.5A2.6,2.6,0,0,1-337.3,98.7Zm-74.6-8.2h0v5.5h74.6V90.6h-35.1l3.1-2.2a3.8,3.8,0,0,0,1.6-2.7,4.1,4.1,0,0,0-.9-3.4l-.9-1.1a9.7,9.7,0,0,1-2-7.6l.8-4.5h13.3a3.5,3.5,0,0,0,3.4-3.6,3.6,3.6,0,0,1,1.5-2.9l2.3-1.6v-.2H-372V52.7h9a3.5,3.5,0,0,0,3.4-3.6,3.6,3.6,0,0,1,1.4-2.9l2.4-1.6v-.2H-372v-4a12.8,12.8,0,0,1,4.2-9.6h-13.6a12.8,12.8,0,0,1,4.2,9.6v4h-16.2v.2l2.4,1.6a3.6,3.6,0,0,1,1.5,2.9,3.5,3.5,0,0,0,3.3,3.6h9v7.9H-399c-.1.2,0,.2,0,.3l2.4,1.6a3.6,3.6,0,0,1,1.4,2.9,3.5,3.5,0,0,0,3.4,3.6h13.4l.7,4.5a9.7,9.7,0,0,1-2,7.6l-.9,1.1a4.1,4.1,0,0,0-.9,3.4,4.2,4.2,0,0,0,1.6,2.7l3.1,2.2Z"/></clipPath><clipPath id="clip-path-16"><path class="cls-1" d="M-407,57.4a2.9,2.9,0,0,1,2.8-2.8,5.6,5.6,0,0,0,5.7-5.6V42a2.8,2.8,0,0,1,2.8-2.9h8.4V36.3h-8.4a5.6,5.6,0,0,0-5.6,5.7v7a2.9,2.9,0,0,1-2.9,2.8,5.6,5.6,0,0,0-5.6,5.6V77.2h2.8Z"/></clipPath><clipPath id="clip-path-17"><path class="cls-2" d="M-374.6,25.8a2,2,0,0,1-1.8-1l-3.2-5.3a2.1,2.1,0,0,1,.3-2.7l3.2-3.2a2.2,2.2,0,0,1,3,0l3.2,3.2a2.3,2.3,0,0,1,.4,2.7l-3.2,5.3A2.3,2.3,0,0,1-374.6,25.8Zm0-2.1Zm0-8.5-3.2,3.2,3.2,5.2,3.2-5.3Z"/></clipPath><clipPath id="clip-path-18"><path class="cls-1" d="M-361.9,36.3v2.8h8.4a2.9,2.9,0,0,1,2.9,2.9v7a5.6,5.6,0,0,0,5.6,5.6,2.9,2.9,0,0,1,2.8,2.8V77.2h2.8V57.4a5.6,5.6,0,0,0-5.6-5.6,2.8,2.8,0,0,1-2.8-2.8V42a5.7,5.7,0,0,0-5.7-5.7Z"/></clipPath><clipPath id="clip-path-19"><path class="cls-1" d="M-356.3,26.5h2.8a8.5,8.5,0,0,0-8.4-8.5h-2.8v2.8h2.8a5.7,5.7,0,0,1,5.6,5.7"/></clipPath><clipPath id="clip-path-20"><path class="cls-1" d="M-387.3,20.8h2.9V18h-2.9a8.5,8.5,0,0,0-8.4,8.5h2.8a5.7,5.7,0,0,1,5.6-5.7"/></clipPath><clipPath id="clip-path-21"><path class="cls-1" d="M92.6,85.4a4.6,4.6,0,0,1-3.1,1.2,4.4,4.4,0,0,1-3.1-1.2,7.3,7.3,0,0,0-5.1-1.9,7.2,7.2,0,0,0-5,1.9,4.6,4.6,0,0,1-6.2,0,7.2,7.2,0,0,0-5-1.9A7.3,7.3,0,0,0,60,85.4a4.4,4.4,0,0,1-3.1,1.2,3.2,3.2,0,0,1-1.8-.4V44.1H77.2v3.1h3.1V44.1h1.6A3.1,3.1,0,0,0,85,40.9V37.8a3.2,3.2,0,0,0-3.1-3.2h-.1A29.9,29.9,0,0,0,53.5,6.4V4.7a4.7,4.7,0,0,0-9.4,0V6.4A29.9,29.9,0,0,0,15.8,34.6h-.1a3.2,3.2,0,0,0-3.1,3.2v3.1a3.1,3.1,0,0,0,3.1,3.2h1.6v3.1h3.2V44.1h22V86.2a4.4,4.4,0,0,1-1.8.4,4.8,4.8,0,0,1-3.2-1.2,6.9,6.9,0,0,0-5-1.9,7,7,0,0,0-5,1.9,4.6,4.6,0,0,1-6.2,0,7.2,7.2,0,0,0-5-1.9,7.3,7.3,0,0,0-5.1,1.9,4.4,4.4,0,0,1-3.1,1.2A4.6,4.6,0,0,1,5,85.4a7,7,0,0,0-5-1.9v3.1a4.4,4.4,0,0,1,3.1,1.2,7.2,7.2,0,0,0,5,1.9,7.3,7.3,0,0,0,5.1-1.9,4.4,4.4,0,0,1,3.1-1.2,4.6,4.6,0,0,1,3.1,1.2,7,7,0,0,0,5,1.9,7,7,0,0,0,5-1.9,4.6,4.6,0,0,1,6.2,0,7.3,7.3,0,0,0,5.1,1.9,7.2,7.2,0,0,0,5-1.9,4.6,4.6,0,0,1,6.2,0,7,7,0,0,0,5,1.9A7.3,7.3,0,0,0,62,87.8a4.4,4.4,0,0,1,3.1-1.2,4.6,4.6,0,0,1,3.1,1.2,7.5,7.5,0,0,0,10,0,4.6,4.6,0,0,1,3.1-1.2,4.4,4.4,0,0,1,3.1,1.2,7.3,7.3,0,0,0,5.1,1.9,7,7,0,0,0,5-1.9,4.4,4.4,0,0,1,3.1-1.2V83.5A7,7,0,0,0,92.6,85.4ZM48.8,3.2a1.6,1.6,0,0,1,1.6,1.5V6.3H47.2V4.7A1.6,1.6,0,0,1,48.8,3.2ZM44.5,9.5a36.5,36.5,0,0,0-8.3,11.9L39,22.7A34.3,34.3,0,0,1,48.8,9.9,33.7,33.7,0,0,1,61.4,34.6H36.3a30.3,30.3,0,0,1,1.6-8.9l-3-1a42.1,42.1,0,0,0-1.8,9.9H19A26.7,26.7,0,0,1,44.5,9.5ZM15.7,37.8H69.3V34.6H64.5A36.6,36.6,0,0,0,53.2,9.5,26.9,26.9,0,0,1,78.7,34.6H72.4v3.2h9.5v3.1H15.7ZM48.8,83.5a6.8,6.8,0,0,0-3.1.6v-40H52v40A7.6,7.6,0,0,0,48.8,83.5Z"/></clipPath><clipPath id="clip-path-22"><rect class="cls-2" x="-2748" y="-2402" width="5224.4" height="4468.85"/></clipPath><clipPath id="clip-path-23"><path class="cls-1" d="M89.5,94.5a4.4,4.4,0,0,1-3.1-1.3,7.7,7.7,0,0,0-10.1,0,4.3,4.3,0,0,1-6.2,0,7.7,7.7,0,0,0-10.1,0,4.3,4.3,0,0,1-6.2,0,7.5,7.5,0,0,0-5-1.9,7.3,7.3,0,0,0-5,1.9,4.5,4.5,0,0,1-6.3,0,7.3,7.3,0,0,0-5-1.9,7.5,7.5,0,0,0-5,1.9,4.3,4.3,0,0,1-6.2,0,7.7,7.7,0,0,0-10.1,0,4.4,4.4,0,0,1-3.1,1.3A4.6,4.6,0,0,1,5,93.2a7.5,7.5,0,0,0-5-1.9v3.2a4.4,4.4,0,0,1,3.1,1.2,7.2,7.2,0,0,0,5,1.9,7.3,7.3,0,0,0,5.1-1.9,4.4,4.4,0,0,1,3.1-1.2,4.6,4.6,0,0,1,3.1,1.2,7,7,0,0,0,5,1.9,7,7,0,0,0,5-1.9,4.6,4.6,0,0,1,3.1-1.2,4.4,4.4,0,0,1,3.1,1.2,7.3,7.3,0,0,0,5.1,1.9,7.2,7.2,0,0,0,5-1.9,4.6,4.6,0,0,1,6.2,0,7.2,7.2,0,0,0,5,1.9A7.3,7.3,0,0,0,62,95.7a4.4,4.4,0,0,1,3.1-1.2,4.6,4.6,0,0,1,3.1,1.2,7.5,7.5,0,0,0,10,0,4.6,4.6,0,0,1,3.1-1.2,4.4,4.4,0,0,1,3.1,1.2,7.3,7.3,0,0,0,5.1,1.9,7,7,0,0,0,5-1.9,4.4,4.4,0,0,1,3.1-1.2V91.3a7.5,7.5,0,0,0-5,1.9,4.4,4.4,0,0,1-3.1,1.3"/></clipPath><clipPath id="clip-path-25"><rect class="cls-2" x="77.2" y="50.4" width="3.2" height="3.15"/></clipPath><clipPath id="clip-path-26"><path class="cls-1" d="M58.3,75.6a4.7,4.7,0,0,0,9.4,0V72.4H64.6v3.2a1.6,1.6,0,0,1-3.2,0V53.5H58.3Z"/></clipPath><clipPath id="clip-path-28"><rect class="cls-2" x="64.6" y="66.1" width="3.2" height="3.15"/></clipPath><clipPath id="clip-path-29"><rect class="cls-2" x="64.6" y="59.8" width="3.2" height="3.15"/></clipPath><clipPath id="clip-path-30"><path class="cls-1" d="M80.3,64.6V56.7H77.1v7.9a1.5,1.5,0,0,1-1.5,1.5A1.6,1.6,0,0,1,74,64.6V52a4.7,4.7,0,1,0-9.4,0v4.7h3.1V52a1.6,1.6,0,0,1,3.2,0V64.6a4.7,4.7,0,0,0,9.4,0"/></clipPath><clipPath id="clip-path-32"><rect class="cls-2" x="58.3" y="47.2" width="3.2" height="3.15"/></clipPath><clipPath id="clip-path-33"><rect class="cls-2" x="17.3" y="50.4" width="3.2" height="3.15"/></clipPath><clipPath id="clip-path-34"><path class="cls-1" d="M36.2,75.6a1.6,1.6,0,1,1-3.1,0V72.4H29.9v3.2a4.7,4.7,0,0,0,4.7,4.7,4.8,4.8,0,0,0,4.8-4.7V53.5H36.2Z"/></clipPath><clipPath id="clip-path-36"><rect class="cls-2" x="29.9" y="66.1" width="3.1" height="3.15"/></clipPath><clipPath id="clip-path-37"><rect class="cls-2" x="29.9" y="59.8" width="3.1" height="3.15"/></clipPath><clipPath id="clip-path-38"><path class="cls-1" d="M17.3,64.6a4.8,4.8,0,0,0,9.5,0V52a1.6,1.6,0,0,1,1.5-1.6A1.6,1.6,0,0,1,29.9,52v4.7h3.2V52a4.9,4.9,0,0,0-4.8-4.8A4.8,4.8,0,0,0,23.6,52V64.6A1.6,1.6,0,0,1,22,66.1a1.5,1.5,0,0,1-1.5-1.5V56.7H17.3Z"/></clipPath><clipPath id="clip-path-40"><rect class="cls-2" x="36.2" y="47.2" width="3.1" height="3.15"/></clipPath><clipPath id="clip-path-41"><path class="cls-1" d="M7.9,75.6a17.7,17.7,0,0,1,5.6.9l5,1.6-2.7-6.6a8.4,8.4,0,0,0-7.9-5.4,4.8,4.8,0,0,0-4.7,4.8,4.7,4.7,0,0,0,4.7,4.7m0-6.3a5.3,5.3,0,0,1,5,3.4l.2.4a18.6,18.6,0,0,0-5.2-.7,1.6,1.6,0,0,1-1.6-1.5,1.6,1.6,0,0,1,1.6-1.6"/></clipPath><clipPath id="clip-path-43"><rect class="cls-2" x="22" y="74" width="3.1" height="3.15"/></clipPath><clipPath id="clip-path-44"><path class="cls-1" d="M81.8,71.5l-2.6,6.6,4.9-1.6a17.7,17.7,0,0,1,5.6-.9,4.7,4.7,0,0,0,4.8-4.7,4.8,4.8,0,0,0-4.8-4.8A8.4,8.4,0,0,0,81.8,71.5Zm2.9,1.2a5.4,5.4,0,0,1,5-3.4,1.6,1.6,0,0,1,1.6,1.6,1.6,1.6,0,0,1-1.6,1.5,17.9,17.9,0,0,0-5.1.7Z"/></clipPath><clipPath id="clip-path-46"><rect class="cls-2" x="72.4" y="74" width="3.1" height="3.15"/></clipPath></defs><path class="cls-3" d="M167.7,94.2h15.9V84.3H167.7Zm17.9,4H165.7a2,2,0,0,1-2-2V82.3a2,2,0,0,1,2-2h19.9a2,2,0,0,1,2,2V96.2A2,2,0,0,1,185.6,98.2Z"/><g class="cls-4"><rect class="cls-2" x="-1100.8" y="-3698.4" width="5804" height="4970.61"/></g><path class="cls-3" d="M157.8,94.2h35.8V6.7H157.8Zm37.7,4H155.8a2,2,0,0,1-2-2V4.7a2,2,0,0,1,2-2h39.7a2,2,0,0,1,2,2V96.2A2,2,0,0,1,195.5,98.2Z"/><g class="cls-5"><rect class="cls-2" x="-1100.8" y="-3698.4" width="5804" height="4964.66"/></g><path class="cls-3" d="M141.8,94.2h12V14.6h-12Zm14,4h-16a2,2,0,0,1-1.9-2V12.7a2,2,0,0,1,1.9-2h16a2,2,0,0,1,2,2V96.2A2,2,0,0,1,155.8,98.2Z"/><g class="cls-6"><rect class="cls-2" x="-1100.8" y="-3698.4" width="5804" height="4964.66"/></g><path class="cls-3" d="M197.5,94.2h12V14.6h-12Zm14,4h-16a1.9,1.9,0,0,1-1.9-2V12.7a1.9,1.9,0,0,1,1.9-2h16a1.9,1.9,0,0,1,1.9,2V96.2A1.9,1.9,0,0,1,211.5,98.2Z"/><g class="cls-7"><rect class="cls-2" x="-1100.8" y="-3698.4" width="5804" height="4964.66"/></g><rect class="cls-2" x="116" y="94.2" width="23.9" height="3.97"/><g class="cls-8"><rect class="cls-2" x="86.2" y="64.4" width="83.4" height="63.5"/></g><rect class="cls-2" x="123.9" y="54.4" width="4" height="41.77"/><g class="cls-9"><rect class="cls-2" x="94.2" y="24.7" width="63.5" height="101.3"/></g><rect class="cls-2" x="123.9" y="54.4" width="4" height="19.89" transform="translate(-1.1 126.4) rotate(-53.1)"/><g class="cls-10"><rect class="cls-2" x="-1100.8" y="-3698.4" width="5804" height="4964.66"/><g class="cls-11"><rect class="cls-2" x="87" y="27.1" width="77.8" height="74.64"/></g></g><rect class="cls-2" x="116" y="62.4" width="19.9" height="3.98" transform="translate(-13.4 88.4) rotate(-36.9)"/><g class="cls-12"><rect class="cls-2" x="-1100.8" y="-3698.4" width="5804" height="4964.66"/><g class="cls-11"><rect class="cls-2" x="87" y="27" width="77.8" height="74.65"/></g></g><rect class="cls-2" x="223.4" y="54.4" width="4" height="19.89" transform="translate(38.6 206) rotate(-53.1)"/><g class="cls-13"><rect class="cls-2" x="-1100.8" y="-3698.4" width="5804" height="4964.66"/></g><rect class="cls-2" x="215.4" y="62.4" width="19.9" height="3.97" transform="translate(6.4 148) rotate(-36.8)"/><g class="cls-14"><rect class="cls-2" x="-1100.8" y="-3698.4" width="5804" height="4964.66"/></g><path class="cls-3" d="M-16.4,44.7a9.5,9.5,0,0,0-6.7-9,38.4,38.4,0,0,0-4.6-11.3,9.6,9.6,0,0,0-1.7-11.1,9.4,9.4,0,0,0-6.7-2.7,8.5,8.5,0,0,0-4.4,1.1A36.6,36.6,0,0,0-51.7,7,9.5,9.5,0,0,0-60.8.3a9.5,9.5,0,0,0-9,6.7A35.6,35.6,0,0,0-81,11.7a9.1,9.1,0,0,0-7.2-.7,1.4,1.4,0,0,0,.8,2.7,6.6,6.6,0,0,1,6.7,1.6,6.8,6.8,0,0,1,0,9.4,6.6,6.6,0,0,1-9.4,0,6.6,6.6,0,0,1-1.5-7.2c.7-1.6-1.9-2.8-2.6-1.1a9.3,9.3,0,0,0,.4,8,41.6,41.6,0,0,0-4.7,11.3,9.5,9.5,0,0,0-6.6,9,9.5,9.5,0,0,0,6.6,9.1A42.3,42.3,0,0,0-93.8,65a9.4,9.4,0,0,0,1.7,11.1A9.6,9.6,0,0,0-81,77.8a35.5,35.5,0,0,0,4.3,2.3L-81,91.7a3.3,3.3,0,0,0,3.1,4.4h34.3a3.4,3.4,0,0,0,3.1-4.4l-4.3-11.6a35.5,35.5,0,0,0,4.3-2.3,9.9,9.9,0,0,0,4.4,1.1,9.2,9.2,0,0,0,2.9-.4c1.7-.6.9-3.3-.8-2.7a7,7,0,0,1-6.8-1.6,6.8,6.8,0,0,1,0-9.5,6.8,6.8,0,0,1,9.4,0,6.6,6.6,0,0,1,1.5,7.2c-.7,1.6,1.9,2.8,2.6,1.1a10.1,10.1,0,0,0-.4-8,39,39,0,0,0,4.6-11.2A9.5,9.5,0,0,0-16.4,44.7Zm-2.8,0a6.7,6.7,0,0,1-6.7,6.7,6.7,6.7,0,0,1-6.6-6.7,6.7,6.7,0,0,1,6.6-6.6A6.7,6.7,0,0,1-19.2,44.7Zm-16-1.4H-47.1a13.2,13.2,0,0,0-3-7.3l8.4-8.4a9.5,9.5,0,0,0,7.5,1.7,33.7,33.7,0,0,1,3.1,7.6A9.1,9.1,0,0,0-35.2,43.3ZM-47,78a31.2,31.2,0,0,1-4.3,1.5,10.1,10.1,0,0,0-.4-2.5,31.2,31.2,0,0,0,7.3-3,9.5,9.5,0,0,0,1.5,2A22.2,22.2,0,0,1-47,78Zm-31.6-2a9.5,9.5,0,0,0,1.5-2,31.2,31.2,0,0,0,7.3,3,6.9,6.9,0,0,0-.4,2.5A36.4,36.4,0,0,1-78.6,76ZM-92,62.6a36.4,36.4,0,0,1-3.5-8.4,10.1,10.1,0,0,0,2.5-.4,31.2,31.2,0,0,0,3,7.3A9.5,9.5,0,0,0-92,62.6Zm4.7-2.4a29.6,29.6,0,0,1-3.1-7.6,9.6,9.6,0,0,0,4.1-6.5h11.8a13.4,13.4,0,0,0,3.1,7.3l-8.5,8.4A9.7,9.7,0,0,0-87.3,60.2Zm25.1,10.1a9.7,9.7,0,0,0-6.4,4.1,29.6,29.6,0,0,1-7.6-3.1,9.2,9.2,0,0,0-1.7-7.5l8.4-8.4a13.2,13.2,0,0,0,7.3,3Zm1.4,2.7a6.7,6.7,0,0,1,6.7,6.7,6.6,6.6,0,0,1-6.7,6.6,6.6,6.6,0,0,1-6.6-6.6A6.7,6.7,0,0,1-60.8,73Zm15.5-1.7a31.2,31.2,0,0,1-7.6,3.1,9.9,9.9,0,0,0-6.5-4.1V58.4a12.6,12.6,0,0,0,7.3-3l8.4,8.4A9.6,9.6,0,0,0-45.3,71.3ZM-60.8,55.7a10.9,10.9,0,0,1-10.9-11A10.9,10.9,0,0,1-60.8,33.8a10.9,10.9,0,0,1,11,10.9A11,11,0,0,1-60.8,55.7Zm-9-43.3a36.4,36.4,0,0,0-7.3,3.1,9.5,9.5,0,0,0-1.5-2A36.4,36.4,0,0,1-70.2,10,9.3,9.3,0,0,0-69.8,12.4Zm-6.4,5.8A29.9,29.9,0,0,1-68.6,15a9.3,9.3,0,0,0,6.4,4.1V31a14.1,14.1,0,0,0-7.3,3.1l-8.3-8.4A9.7,9.7,0,0,0-76.2,18.2Zm31.8-2.7a36.4,36.4,0,0,0-7.3-3.1,9.3,9.3,0,0,0,.4-2.4,38.3,38.3,0,0,1,8.4,3.5A9.5,9.5,0,0,0-44.4,15.5Zm-8.5-.5a31.5,31.5,0,0,1,7.6,3.2,9.3,9.3,0,0,0,1.6,7.4L-52.1,34a14.1,14.1,0,0,0-7.3-3V19.1A9.5,9.5,0,0,0-52.9,15Zm23.3,11.9a31.1,31.1,0,0,1,3.5,8.4,6.7,6.7,0,0,0-2.4.4,34.1,34.1,0,0,0-3.1-7.4A10.1,10.1,0,0,0-29.6,26.9Zm-1.8-11.6a6.6,6.6,0,0,1,0,9.4,6.6,6.6,0,0,1-9.4,0,6.8,6.8,0,0,1,0-9.4A6.8,6.8,0,0,1-31.4,15.3ZM-60.8,3.1a6.7,6.7,0,0,1,6.7,6.7,6.7,6.7,0,0,1-6.7,6.6,6.7,6.7,0,0,1-6.6-6.6,4.9,4.9,0,0,1,.1-1.2V8.3A6.6,6.6,0,0,1-60.8,3.1Zm-19,24.5,8.4,8.4a14.1,14.1,0,0,0-3.1,7.3H-86.3a9.4,9.4,0,0,0-4.1-6.4,29.6,29.6,0,0,1,3.1-7.6A9.5,9.5,0,0,0-79.8,27.6Zm-10.2.7a33.8,33.8,0,0,0-3,7.4,6.9,6.9,0,0,0-2.5-.4A34.7,34.7,0,0,1-92,26.9Zm-12.3,16.4a6.7,6.7,0,0,1,6.6-6.6A6.7,6.7,0,0,1-89,44.7a6.7,6.7,0,0,1-6.7,6.7A6.7,6.7,0,0,1-102.3,44.7Zm16.9,31.4a6.7,6.7,0,0,1-4.7-1.9,6.8,6.8,0,0,1,0-9.5,6.8,6.8,0,0,1,9.4,0,7,7,0,0,1,0,9.5A7,7,0,0,1-85.4,76.1Zm42.2,16.6c.1.3,0,.5-.4.6H-77.9c-.4-.1-.5-.3-.5-.6l4.3-11.5,4.3,1.3a9.5,9.5,0,0,0,9,6.6,9.5,9.5,0,0,0,9.1-6.6l4.3-1.3Zm1.5-30.9-8.4-8.4a12.6,12.6,0,0,0,3-7.3h11.9a9.3,9.3,0,0,0,4.1,6.5,33.7,33.7,0,0,1-3.1,7.6l-1.9-.2A9.4,9.4,0,0,0-41.7,61.8Zm10.1-.7a31.4,31.4,0,0,0,3.1-7.3,10,10,0,0,0,2.4.4,32.5,32.5,0,0,1-3.5,8.4A7.5,7.5,0,0,0-31.6,61.1Z"/><g class="cls-15"><rect class="cls-2" x="-4625.1" y="-2215" width="5391.4" height="4611.73"/><g class="cls-16"><rect class="cls-2" x="-132.8" y="-27.3" width="144" height="151.08"/></g></g><path class="cls-2" d="M-337.3,98.7h-74.6a2.6,2.6,0,0,1-2.5-2.6V90.6a2.6,2.6,0,0,1,2.5-2.6h28.6a6.5,6.5,0,0,1-.7-2.1,6.7,6.7,0,0,1,1.4-5.3l1-1.1a7.3,7.3,0,0,0,1.4-5.6l-.4-2.4h-11.2a6,6,0,0,1-5.9-6.1c0-.4-.1-.7-.4-.8l-2.3-1.7a2.4,2.4,0,0,1-1-2.9,2.6,2.6,0,0,1,2.4-1.9h19.3V55.2h-6.5a5.9,5.9,0,0,1-5.8-6.1.9.9,0,0,0-.4-.8l-2.4-1.7a2.7,2.7,0,0,1-1-2.9,2.5,2.5,0,0,1,2.4-1.8h13.7V40.4a10.2,10.2,0,0,0-5.7-9.3l-.7-.3V28.3H-363v2.5l-.8.3a10.3,10.3,0,0,0-5.7,9.3v1.5h13.7a2.5,2.5,0,0,1,2.4,1.8,2.7,2.7,0,0,1-1,2.9l-2.3,1.7c-.3.1-.4.4-.4.8a6,6,0,0,1-5.9,6.1h-6.5v2.9h19.3a2.6,2.6,0,0,1,2.5,1.9,2.7,2.7,0,0,1-1,2.9l-2.4,1.7a.9.9,0,0,0-.4.8,6,6,0,0,1-5.9,6.1h-11.2l-.4,2.4a7,7,0,0,0,1.5,5.6l.9,1.1a6.7,6.7,0,0,1,1.4,5.3,4.8,4.8,0,0,1-.7,2.1h28.6a2.6,2.6,0,0,1,2.5,2.6v5.5A2.6,2.6,0,0,1-337.3,98.7Zm-74.6-8.2h0v5.5h74.6V90.6h-35.1l3.1-2.2a3.8,3.8,0,0,0,1.6-2.7,4.1,4.1,0,0,0-.9-3.4l-.9-1.1a9.7,9.7,0,0,1-2-7.6l.8-4.5h13.3a3.5,3.5,0,0,0,3.4-3.6,3.6,3.6,0,0,1,1.5-2.9l2.3-1.6v-.2H-372V52.7h9a3.5,3.5,0,0,0,3.4-3.6,3.6,3.6,0,0,1,1.4-2.9l2.4-1.6v-.2H-372v-4a12.8,12.8,0,0,1,4.2-9.6h-13.6a12.8,12.8,0,0,1,4.2,9.6v4h-16.2v.2l2.4,1.6a3.6,3.6,0,0,1,1.5,2.9,3.5,3.5,0,0,0,3.3,3.6h9v7.9H-399c-.1.2,0,.2,0,.3l2.4,1.6a3.6,3.6,0,0,1,1.4,2.9,3.5,3.5,0,0,0,3.4,3.6h13.4l.7,4.5a9.7,9.7,0,0,1-2,7.6l-.9,1.1a4.1,4.1,0,0,0-.9,3.4,4.2,4.2,0,0,0,1.6,2.7l3.1,2.2Z"/><g class="cls-17"><path class="cls-2" d="M2048.3,1882.5H-2829V-2523.7H2048.3Zm-4874.3-3H2045.3V-2520.7H-2826Z"/></g><path class="cls-3" d="M-407,57.4a2.9,2.9,0,0,1,2.8-2.8,5.6,5.6,0,0,0,5.7-5.6V42a2.8,2.8,0,0,1,2.8-2.9h8.4V36.3h-8.4a5.6,5.6,0,0,0-5.6,5.7v7a2.9,2.9,0,0,1-2.9,2.8,5.6,5.6,0,0,0-5.6,5.6V77.2h2.8Z"/><g class="cls-18"><rect class="cls-2" x="-3060.8" y="-2619.6" width="5338" height="4566.05"/></g><path class="cls-2" d="M-374.6,25.8a2,2,0,0,1-1.8-1l-3.2-5.3a2.1,2.1,0,0,1,.3-2.7l3.2-3.2a2.2,2.2,0,0,1,3,0l3.2,3.2a2.3,2.3,0,0,1,.4,2.7l-3.2,5.3A2.3,2.3,0,0,1-374.6,25.8Zm0-2.1Zm0-8.5-3.2,3.2,3.2,5.2,3.2-5.3Z"/><g class="cls-19"><path class="cls-2" d="M1632.5,1478.3H-2407.8V-1978.1H1632.5Zm-4038.1-2.2H1630.3v-3452H-2405.6Z"/></g><path class="cls-3" d="M-361.9,36.3v2.8h8.4a2.9,2.9,0,0,1,2.9,2.9v7a5.6,5.6,0,0,0,5.6,5.6,2.9,2.9,0,0,1,2.8,2.8V77.2h2.8V57.4a5.6,5.6,0,0,0-5.6-5.6,2.8,2.8,0,0,1-2.8-2.8V42a5.7,5.7,0,0,0-5.7-5.7Z"/><g class="cls-20"><rect class="cls-2" x="-3060.8" y="-2619.6" width="5338" height="4566.05"/></g><path class="cls-3" d="M-356.3,26.5h2.8a8.5,8.5,0,0,0-8.4-8.5h-2.8v2.8h2.8a5.7,5.7,0,0,1,5.6,5.7"/><g class="cls-21"><rect class="cls-2" x="-3060.8" y="-2619.6" width="5338" height="4566.05"/></g><path class="cls-3" d="M-387.3,20.8h2.9V18h-2.9a8.5,8.5,0,0,0-8.4,8.5h2.8a5.7,5.7,0,0,1,5.6-5.7"/><g class="cls-22"><rect class="cls-2" x="-3060.8" y="-2619.6" width="5338" height="4566.05"/></g><path class="cls-3" d="M92.6,85.4a4.6,4.6,0,0,1-3.1,1.2,4.4,4.4,0,0,1-3.1-1.2,7.3,7.3,0,0,0-5.1-1.9,7.2,7.2,0,0,0-5,1.9,4.6,4.6,0,0,1-6.2,0,7.2,7.2,0,0,0-5-1.9A7.3,7.3,0,0,0,60,85.4a4.4,4.4,0,0,1-3.1,1.2,3.2,3.2,0,0,1-1.8-.4V44.1H77.2v3.1h3.1V44.1h1.6A3.1,3.1,0,0,0,85,40.9V37.8a3.2,3.2,0,0,0-3.1-3.2h-.1A29.9,29.9,0,0,0,53.5,6.4V4.7a4.7,4.7,0,0,0-9.4,0V6.4A29.9,29.9,0,0,0,15.8,34.6h-.1a3.2,3.2,0,0,0-3.1,3.2v3.1a3.1,3.1,0,0,0,3.1,3.2h1.6v3.1h3.2V44.1h22V86.2a4.4,4.4,0,0,1-1.8.4,4.8,4.8,0,0,1-3.2-1.2,6.9,6.9,0,0,0-5-1.9,7,7,0,0,0-5,1.9,4.6,4.6,0,0,1-6.2,0,7.2,7.2,0,0,0-5-1.9,7.3,7.3,0,0,0-5.1,1.9,4.4,4.4,0,0,1-3.1,1.2A4.6,4.6,0,0,1,5,85.4a7,7,0,0,0-5-1.9v3.1a4.4,4.4,0,0,1,3.1,1.2,7.2,7.2,0,0,0,5,1.9,7.3,7.3,0,0,0,5.1-1.9,4.4,4.4,0,0,1,3.1-1.2,4.6,4.6,0,0,1,3.1,1.2,7,7,0,0,0,5,1.9,7,7,0,0,0,5-1.9,4.6,4.6,0,0,1,6.2,0,7.3,7.3,0,0,0,5.1,1.9,7.2,7.2,0,0,0,5-1.9,4.6,4.6,0,0,1,6.2,0,7,7,0,0,0,5,1.9A7.3,7.3,0,0,0,62,87.8a4.4,4.4,0,0,1,3.1-1.2,4.6,4.6,0,0,1,3.1,1.2,7.5,7.5,0,0,0,10,0,4.6,4.6,0,0,1,3.1-1.2,4.4,4.4,0,0,1,3.1,1.2,7.3,7.3,0,0,0,5.1,1.9,7,7,0,0,0,5-1.9,4.4,4.4,0,0,1,3.1-1.2V83.5A7,7,0,0,0,92.6,85.4ZM48.8,3.2a1.6,1.6,0,0,1,1.6,1.5V6.3H47.2V4.7A1.6,1.6,0,0,1,48.8,3.2ZM44.5,9.5a36.5,36.5,0,0,0-8.3,11.9L39,22.7A34.3,34.3,0,0,1,48.8,9.9,33.7,33.7,0,0,1,61.4,34.6H36.3a30.3,30.3,0,0,1,1.6-8.9l-3-1a42.1,42.1,0,0,0-1.8,9.9H19A26.7,26.7,0,0,1,44.5,9.5ZM15.7,37.8H69.3V34.6H64.5A36.6,36.6,0,0,0,53.2,9.5,26.9,26.9,0,0,1,78.7,34.6H72.4v3.2h9.5v3.1H15.7ZM48.8,83.5a6.8,6.8,0,0,0-3.1.6v-40H52v40A7.6,7.6,0,0,0,48.8,83.5Z"/><g class="cls-23"><rect class="cls-2" x="-2748" y="-2402" width="5224.4" height="4468.85"/><g class="cls-24"><rect class="cls-2" x="-26.8" y="-26.8" width="151.2" height="143.33"/></g></g><path class="cls-3" d="M89.5,94.5a4.4,4.4,0,0,1-3.1-1.3,7.7,7.7,0,0,0-10.1,0,4.3,4.3,0,0,1-6.2,0,7.7,7.7,0,0,0-10.1,0,4.3,4.3,0,0,1-6.2,0,7.5,7.5,0,0,0-5-1.9,7.3,7.3,0,0,0-5,1.9,4.5,4.5,0,0,1-6.3,0,7.3,7.3,0,0,0-5-1.9,7.5,7.5,0,0,0-5,1.9,4.3,4.3,0,0,1-6.2,0,7.7,7.7,0,0,0-10.1,0,4.4,4.4,0,0,1-3.1,1.3A4.6,4.6,0,0,1,5,93.2a7.5,7.5,0,0,0-5-1.9v3.2a4.4,4.4,0,0,1,3.1,1.2,7.2,7.2,0,0,0,5,1.9,7.3,7.3,0,0,0,5.1-1.9,4.4,4.4,0,0,1,3.1-1.2,4.6,4.6,0,0,1,3.1,1.2,7,7,0,0,0,5,1.9,7,7,0,0,0,5-1.9,4.6,4.6,0,0,1,3.1-1.2,4.4,4.4,0,0,1,3.1,1.2,7.3,7.3,0,0,0,5.1,1.9,7.2,7.2,0,0,0,5-1.9,4.6,4.6,0,0,1,6.2,0,7.2,7.2,0,0,0,5,1.9A7.3,7.3,0,0,0,62,95.7a4.4,4.4,0,0,1,3.1-1.2,4.6,4.6,0,0,1,3.1,1.2,7.5,7.5,0,0,0,10,0,4.6,4.6,0,0,1,3.1-1.2,4.4,4.4,0,0,1,3.1,1.2,7.3,7.3,0,0,0,5.1,1.9,7,7,0,0,0,5-1.9,4.4,4.4,0,0,1,3.1-1.2V91.3a7.5,7.5,0,0,0-5,1.9,4.4,4.4,0,0,1-3.1,1.3"/><g class="cls-25"><rect class="cls-2" x="-2748" y="-2402" width="5224.4" height="4468.85"/><g class="cls-24"><rect class="cls-2" x="-26.8" y="64.5" width="151.2" height="59.89"/></g></g><rect class="cls-2" x="77.2" y="50.4" width="3.2" height="3.15"/><g class="cls-26"><rect class="cls-2" x="50.4" y="23.6" width="56.7" height="56.74"/></g><path class="cls-3" d="M58.3,75.6a4.7,4.7,0,0,0,9.4,0V72.4H64.6v3.2a1.6,1.6,0,0,1-3.2,0V53.5H58.3Z"/><g class="cls-27"><rect class="cls-2" x="-2748" y="-2402" width="5224.4" height="4468.85"/><g class="cls-24"><rect class="cls-2" x="31.5" y="26.7" width="63" height="80.35"/></g></g><rect class="cls-2" x="64.6" y="66.1" width="3.2" height="3.15"/><g class="cls-28"><rect class="cls-2" x="37.8" y="39.3" width="56.7" height="56.73"/></g><rect class="cls-2" x="64.6" y="59.8" width="3.2" height="3.15"/><g class="cls-29"><rect class="cls-2" x="37.8" y="33" width="56.7" height="56.73"/></g><path class="cls-3" d="M80.3,64.6V56.7H77.1v7.9a1.5,1.5,0,0,1-1.5,1.5A1.6,1.6,0,0,1,74,64.6V52a4.7,4.7,0,1,0-9.4,0v4.7h3.1V52a1.6,1.6,0,0,1,3.2,0V64.6a4.7,4.7,0,0,0,9.4,0"/><g class="cls-30"><rect class="cls-2" x="-2748" y="-2402" width="5224.4" height="4468.85"/><g class="cls-24"><rect class="cls-2" x="37.8" y="20.4" width="69.3" height="75.63"/></g></g><rect class="cls-2" x="58.3" y="47.2" width="3.2" height="3.15"/><g class="cls-31"><rect class="cls-2" x="31.5" y="20.4" width="56.7" height="56.73"/></g><rect class="cls-2" x="17.3" y="50.4" width="3.2" height="3.15"/><g class="cls-32"><rect class="cls-2" x="-9.5" y="23.6" width="56.7" height="56.74"/></g><path class="cls-3" d="M36.2,75.6a1.6,1.6,0,1,1-3.1,0V72.4H29.9v3.2a4.7,4.7,0,0,0,4.7,4.7,4.8,4.8,0,0,0,4.8-4.7V53.5H36.2Z"/><g class="cls-33"><rect class="cls-2" x="-2748" y="-2402" width="5224.4" height="4468.85"/><g class="cls-24"><rect class="cls-2" x="3.1" y="26.7" width="63" height="80.35"/></g></g><rect class="cls-2" x="29.9" y="66.1" width="3.1" height="3.15"/><g class="cls-34"><rect class="cls-2" x="3.1" y="39.3" width="56.7" height="56.73"/></g><rect class="cls-2" x="29.9" y="59.8" width="3.1" height="3.15"/><g class="cls-35"><rect class="cls-2" x="3.1" y="33" width="56.7" height="56.73"/></g><path class="cls-3" d="M17.3,64.6a4.8,4.8,0,0,0,9.5,0V52a1.6,1.6,0,0,1,1.5-1.6A1.6,1.6,0,0,1,29.9,52v4.7h3.2V52a4.9,4.9,0,0,0-4.8-4.8A4.8,4.8,0,0,0,23.6,52V64.6A1.6,1.6,0,0,1,22,66.1a1.5,1.5,0,0,1-1.5-1.5V56.7H17.3Z"/><g class="cls-36"><rect class="cls-2" x="-2748" y="-2402" width="5224.4" height="4468.85"/><g class="cls-24"><rect class="cls-2" x="-9.5" y="20.4" width="69.3" height="75.63"/></g></g><rect class="cls-2" x="36.2" y="47.2" width="3.1" height="3.15"/><g class="cls-37"><rect class="cls-2" x="9.4" y="20.4" width="56.7" height="56.73"/></g><path class="cls-3" d="M7.9,75.6a17.7,17.7,0,0,1,5.6.9l5,1.6-2.7-6.6a8.4,8.4,0,0,0-7.9-5.4,4.8,4.8,0,0,0-4.7,4.8,4.7,4.7,0,0,0,4.7,4.7m0-6.3a5.3,5.3,0,0,1,5,3.4l.2.4a18.6,18.6,0,0,0-5.2-.7,1.6,1.6,0,0,1-1.6-1.5,1.6,1.6,0,0,1,1.6-1.6"/><g class="cls-38"><rect class="cls-2" x="-2748" y="-2402" width="5224.4" height="4468.85"/><g class="cls-24"><rect class="cls-2" x="-23.6" y="39.3" width="68.9" height="65.6"/></g></g><rect class="cls-2" x="22" y="74" width="3.1" height="3.15"/><g class="cls-39"><rect class="cls-2" x="-4.7" y="47.2" width="56.7" height="56.73"/></g><path class="cls-3" d="M81.8,71.5l-2.6,6.6,4.9-1.6a17.7,17.7,0,0,1,5.6-.9,4.7,4.7,0,0,0,4.8-4.7,4.8,4.8,0,0,0-4.8-4.8A8.4,8.4,0,0,0,81.8,71.5Zm2.9,1.2a5.4,5.4,0,0,1,5-3.4,1.6,1.6,0,0,1,1.6,1.6,1.6,1.6,0,0,1-1.6,1.5,17.9,17.9,0,0,0-5.1.7Z"/><g class="cls-40"><rect class="cls-2" x="-2748" y="-2402" width="5224.4" height="4468.85"/><g class="cls-24"><rect class="cls-2" x="52.4" y="39.3" width="68.9" height="65.6"/></g></g><rect class="cls-2" x="72.4" y="74" width="3.1" height="3.15"/><g class="cls-41"><rect class="cls-2" x="45.6" y="47.2" width="56.7" height="56.73"/></g></svg>