<svg id="Layer_1" data-name="Layer 1" xmlns="http://www.w3.org/2000/svg" xmlns:xlink="http://www.w3.org/1999/xlink" viewBox="0 0 90.1 92"><defs><style>.cls-1,.cls-2,.cls-4{fill:#221c45;}.cls-1,.cls-3{clip-rule:evenodd;}.cls-3{fill:none;}.cls-4{fill-rule:evenodd;}.cls-5{clip-path:url(#clip-path);}.cls-6{clip-path:url(#clip-path-2);}.cls-7{clip-path:url(#clip-path-3);}.cls-8{clip-path:url(#clip-path-4);}.cls-9{clip-path:url(#clip-path-5);}.cls-10{clip-path:url(#clip-path-6);}.cls-11{clip-path:url(#clip-path-7);}.cls-12{clip-path:url(#clip-path-8);}.cls-13{clip-path:url(#clip-path-9);}.cls-14{clip-path:url(#clip-path-10);}.cls-15{clip-path:url(#clip-path-11);}.cls-16{clip-path:url(#clip-path-12);}.cls-17{clip-path:url(#clip-path-13);}.cls-18{clip-path:url(#clip-path-14);}.cls-19{clip-path:url(#clip-path-15);}.cls-20{clip-path:url(#clip-path-16);}.cls-21{clip-path:url(#clip-path-17);}.cls-22{clip-path:url(#clip-path-18);}.cls-23{clip-path:url(#clip-path-19);}.cls-24{clip-path:url(#clip-path-20);}.cls-25{clip-path:url(#clip-path-21);}.cls-26{clip-path:url(#clip-path-22);}.cls-27{clip-path:url(#clip-path-23);}.cls-28{clip-path:url(#clip-path-24);}.cls-29{clip-path:url(#clip-path-25);}.cls-30{clip-path:url(#clip-path-26);}.cls-31{clip-path:url(#clip-path-27);}.cls-32{clip-path:url(#clip-path-28);}.cls-33{clip-path:url(#clip-path-29);}.cls-34{clip-path:url(#clip-path-30);}.cls-35{clip-path:url(#clip-path-31);}.cls-36{clip-path:url(#clip-path-32);}.cls-37{clip-path:url(#clip-path-33);}.cls-38{clip-path:url(#clip-path-34);}.cls-39{clip-path:url(#clip-path-35);}.cls-40{clip-path:url(#clip-path-36);}.cls-41{clip-path:url(#clip-path-37);}.cls-42{clip-path:url(#clip-path-38);}.cls-43{clip-path:url(#clip-path-39);}.cls-44{clip-path:url(#clip-path-40);}.cls-45{clip-path:url(#clip-path-41);}.cls-46{clip-path:url(#clip-path-42);}.cls-47{clip-path:url(#clip-path-43);}</style><clipPath id="clip-path"><path class="cls-1" d="M604.7-41.9h15.9v-9.9H604.7Zm17.9,4H602.7a2,2,0,0,1-2-2V-53.8a2,2,0,0,1,2-2h19.9a2,2,0,0,1,2,2v13.9A2,2,0,0,1,622.6-37.9Z"/></clipPath><clipPath id="clip-path-2"><path class="cls-1" d="M594.7-41.9h35.8v-87.5H594.7Zm37.8,4H592.7a2,2,0,0,1-2-2v-91.5a2,2,0,0,1,2-2h39.8a2,2,0,0,1,2,2v91.5A2,2,0,0,1,632.5-37.9Z"/></clipPath><clipPath id="clip-path-3"><path class="cls-1" d="M578.8-41.9h11.9v-79.6H578.8Zm13.9,4H576.8a2,2,0,0,1-2-2v-83.5a2,2,0,0,1,2-2h15.9a2,2,0,0,1,2,2v83.5A2,2,0,0,1,592.7-37.9Z"/></clipPath><clipPath id="clip-path-4"><path class="cls-1" d="M634.5-41.9h11.9v-79.6H634.5Zm13.9,4H632.5a2,2,0,0,1-2-2v-83.5a2,2,0,0,1,2-2h15.9a2,2,0,0,1,2,2v83.5A2,2,0,0,1,648.4-37.9Z"/></clipPath><clipPath id="clip-path-5"><rect class="cls-2" x="560.9" y="-81.7" width="4" height="19.89" transform="translate(282.4 421.5) rotate(-53.1)"/></clipPath><clipPath id="clip-path-6"><rect class="cls-2" x="553" y="-73.7" width="19.9" height="3.98" transform="translate(155.7 323.5) rotate(-36.9)"/></clipPath><clipPath id="clip-path-7"><rect class="cls-2" x="660.4" y="-81.7" width="4" height="19.89" transform="translate(322.2 501.1) rotate(-53.1)"/></clipPath><clipPath id="clip-path-8"><rect class="cls-2" x="652.4" y="-73.7" width="19.9" height="3.97" transform="translate(175.3 382.9) rotate(-36.8)"/></clipPath><clipPath id="clip-path-9"><path class="cls-3" d="M-404.4-373.7v-.4h.4a.9.9,0,0,0,1-.9,1,1,0,0,0-1-1h-.4v-.4a.9.9,0,0,0-.9-.9.9.9,0,0,0-.9.9v.4h-.4a1,1,0,0,0-.9,1,.9.9,0,0,0,.9.9h.4v.4a.9.9,0,0,0,.9.9.9.9,0,0,0,.9-.9"/></clipPath><clipPath id="clip-path-10"><path class="cls-3" d="M-421.5-354.1a.9.9,0,0,0,.9-.9v-1.3a.9.9,0,0,0-.9-.9.9.9,0,0,0-.9.9v1.3a.9.9,0,0,0,.9.9"/></clipPath><clipPath id="clip-path-11"><path class="cls-3" d="M-417.9-354.1a.9.9,0,0,0,.9-.9v-1.3a.9.9,0,0,0-.9-.9.9.9,0,0,0-.9.9v1.3a.9.9,0,0,0,.9.9"/></clipPath><clipPath id="clip-path-12"><path class="cls-3" d="M-421.5-349.6a.9.9,0,0,0,.9-.9v-1.3a.9.9,0,0,0-.9-.9.9.9,0,0,0-.9.9v1.3a.9.9,0,0,0,.9.9"/></clipPath><clipPath id="clip-path-13"><path class="cls-3" d="M-417.9-349.6a.9.9,0,0,0,.9-.9v-1.3a.9.9,0,0,0-.9-.9.9.9,0,0,0-.9.9v1.3a.9.9,0,0,0,.9.9"/></clipPath><clipPath id="clip-path-14"><path class="cls-3" d="M-421.5-345.2a.9.9,0,0,0,.9-.9v-1.3a.9.9,0,0,0-.9-.9.9.9,0,0,0-.9.9v1.3a.9.9,0,0,0,.9.9"/></clipPath><clipPath id="clip-path-15"><path class="cls-3" d="M-417.9-345.2a.9.9,0,0,0,.9-.9v-1.3a.9.9,0,0,0-.9-.9.9.9,0,0,0-.9.9v1.3a.9.9,0,0,0,.9.9"/></clipPath><clipPath id="clip-path-16"><path class="cls-3" d="M-392.6-354.1a1,1,0,0,0,.9-.9v-1.3a1,1,0,0,0-.9-.9.9.9,0,0,0-1,.9v1.3a.9.9,0,0,0,1,.9"/></clipPath><clipPath id="clip-path-17"><path class="cls-3" d="M-389.1-354.1a1,1,0,0,0,1-.9v-1.3a1,1,0,0,0-1-.9.9.9,0,0,0-.9.9v1.3a.9.9,0,0,0,.9.9"/></clipPath><clipPath id="clip-path-18"><path class="cls-3" d="M-392.6-349.6a1,1,0,0,0,.9-.9v-1.3a1,1,0,0,0-.9-.9.9.9,0,0,0-1,.9v1.3a.9.9,0,0,0,1,.9"/></clipPath><clipPath id="clip-path-19"><path class="cls-3" d="M-389.1-349.6a1,1,0,0,0,1-.9v-1.3a1,1,0,0,0-1-.9.9.9,0,0,0-.9.9v1.3a.9.9,0,0,0,.9.9"/></clipPath><clipPath id="clip-path-20"><path class="cls-3" d="M-392.6-345.2a1,1,0,0,0,.9-.9v-1.3a1,1,0,0,0-.9-.9.9.9,0,0,0-1,.9v1.3a.9.9,0,0,0,1,.9"/></clipPath><clipPath id="clip-path-21"><path class="cls-3" d="M-389.1-345.2a1,1,0,0,0,1-.9v-1.3a1,1,0,0,0-1-.9.9.9,0,0,0-.9.9v1.3a.9.9,0,0,0,.9.9"/></clipPath><clipPath id="clip-path-22"><path class="cls-3" d="M-408-360.8v1.3a.9.9,0,0,0,.9.9.9.9,0,0,0,.9-.9v-1.3a.9.9,0,0,0-.9-.9.9.9,0,0,0-.9.9"/></clipPath><clipPath id="clip-path-23"><path class="cls-3" d="M-404.4-360.8v1.3a.9.9,0,0,0,.9.9.9.9,0,0,0,.9-.9v-1.3a.9.9,0,0,0-.9-.9.9.9,0,0,0-.9.9"/></clipPath><clipPath id="clip-path-24"><path class="cls-3" d="M-407.1-357.2a.9.9,0,0,0-.9.9v1.3a.9.9,0,0,0,.9.9.9.9,0,0,0,.9-.9v-1.3a.9.9,0,0,0-.9-.9"/></clipPath><clipPath id="clip-path-25"><path class="cls-3" d="M-403.5-357.2a.9.9,0,0,0-.9.9v1.3a.9.9,0,0,0,.9.9.9.9,0,0,0,.9-.9v-1.3a.9.9,0,0,0-.9-.9"/></clipPath><clipPath id="clip-path-26"><path class="cls-3" d="M-407.1-352.7a.9.9,0,0,0-.9.9v1.3a.9.9,0,0,0,.9.9.9.9,0,0,0,.9-.9v-1.3a.9.9,0,0,0-.9-.9"/></clipPath><clipPath id="clip-path-27"><path class="cls-3" d="M-403.5-352.7a.9.9,0,0,0-.9.9v1.3a.9.9,0,0,0,.9.9.9.9,0,0,0,.9-.9v-1.3a.9.9,0,0,0-.9-.9"/></clipPath><clipPath id="clip-path-28"><path class="cls-3" d="M-381.7-341.3h-1.9v-19.3a.9.9,0,0,0-.9-.9h-11.8v-6.4a.9.9,0,0,0-.9-1h-7.2v-1.3h3.1a.9.9,0,0,0,.9-.9V-379a.9.9,0,0,0-.9-.9h-7.9a.9.9,0,0,0-.9.9v7.9a.9.9,0,0,0,.9.9h3v1.3h-7.2a.9.9,0,0,0-.9,1v6.4h-11.8a.9.9,0,0,0-.9.9v19.3h-1.9a.9.9,0,0,0-.9.9.9.9,0,0,0,.9.9h47.2a.9.9,0,0,0,.9-.9A.9.9,0,0,0-381.7-341.3ZM-398.1-367v25.7h-1.5v-4a.9.9,0,0,0-.9-.9H-410a1,1,0,0,0-1,.9v4h-1.5V-367Zm-11,25.7h7.7v-3.1h-7.7Zm12.8,0h10.9v-18.4h-10.9Zm-28.9,0h10.9v-18.4h-10.9Zm16.9-30.7h6.1v-6.1h-6.1Z"/></clipPath><clipPath id="clip-path-29"><path class="cls-1" d="M420.6-91.4a9.5,9.5,0,0,0-6.7-9,36.1,36.1,0,0,0-4.7-11.3,9.4,9.4,0,0,0-1.6-11.1,9.4,9.4,0,0,0-6.7-2.7,8.2,8.2,0,0,0-4.4,1.1,36.1,36.1,0,0,0-11.3-4.7,9.4,9.4,0,0,0-9-6.7,9.5,9.5,0,0,0-9,6.7,35.6,35.6,0,0,0-11.2,4.7,9.1,9.1,0,0,0-7.2-.7,1.4,1.4,0,0,0,.8,2.7,6.4,6.4,0,0,1,6.6,1.6,6.6,6.6,0,0,1,0,9.4,6.6,6.6,0,0,1-9.4,0,6.6,6.6,0,0,1-1.4-7.2c.7-1.6-1.9-2.8-2.6-1.1a9.3,9.3,0,0,0,.4,8,38.6,38.6,0,0,0-4.7,11.3,9.5,9.5,0,0,0-6.6,9,9.5,9.5,0,0,0,6.6,9.1,38.1,38.1,0,0,0,4.7,11.2A9.4,9.4,0,0,0,344.9-60,9.6,9.6,0,0,0,356-58.3a29.3,29.3,0,0,0,4.3,2.3L356-44.4a3.3,3.3,0,0,0,3,4.4h34.4a3.4,3.4,0,0,0,3.1-4.4L392.2-56a45,45,0,0,0,4.3-2.3,9.3,9.3,0,0,0,4.4,1.1,9.7,9.7,0,0,0,2.9-.4,1.4,1.4,0,0,0-.9-2.7,6.6,6.6,0,0,1-6.7-1.6,6.6,6.6,0,0,1,0-9.4,6.6,6.6,0,0,1,9.4,0,6.6,6.6,0,0,1,1.5,7.1,1.4,1.4,0,0,0,2.6,1.1,9.7,9.7,0,0,0-.5-8,35.6,35.6,0,0,0,4.7-11.2A9.5,9.5,0,0,0,420.6-91.4Zm-2.8,0a6.7,6.7,0,0,1-6.7,6.7,6.7,6.7,0,0,1-6.6-6.7,6.7,6.7,0,0,1,6.6-6.6A6.7,6.7,0,0,1,417.8-91.4Zm-16-1.4H389.9a14.8,14.8,0,0,0-3-7.3l8.4-8.4a9.3,9.3,0,0,0,7.4,1.7,29.9,29.9,0,0,1,3.2,7.6A9.1,9.1,0,0,0,401.8-92.8ZM390-58.1l-4.3,1.5a18.7,18.7,0,0,0-.4-2.5,33,33,0,0,0,7.3-3,9.5,9.5,0,0,0,1.5,2A25.8,25.8,0,0,1,390-58.1Zm-31.6-2a9,9,0,0,0,1.4-2,33.8,33.8,0,0,0,7.4,3,6.9,6.9,0,0,0-.4,2.5A34.7,34.7,0,0,1,358.4-60.1ZM345-73.5a36.4,36.4,0,0,1-3.5-8.4,10.1,10.1,0,0,0,2.5-.4,31.2,31.2,0,0,0,3,7.3A9.5,9.5,0,0,0,345-73.5Zm4.7-2.4a29.6,29.6,0,0,1-3.1-7.6,9.6,9.6,0,0,0,4.1-6.5h11.8a14.1,14.1,0,0,0,3,7.3l-8.4,8.4A9.7,9.7,0,0,0,349.7-75.9Zm25.1,10.1a9.4,9.4,0,0,0-6.4,4.1,29.6,29.6,0,0,1-7.6-3.1,9.6,9.6,0,0,0-1.7-7.5l8.4-8.4a12.9,12.9,0,0,0,7.3,3Zm1.4,2.7a6.7,6.7,0,0,1,6.7,6.7,6.6,6.6,0,0,1-6.7,6.6,6.6,6.6,0,0,1-6.6-6.6A6.7,6.7,0,0,1,376.2-63.1Zm15.4-1.7a29,29,0,0,1-7.5,3.1,9.9,9.9,0,0,0-6.5-4.1V-77.7a12.6,12.6,0,0,0,7.3-3l8.4,8.4A9.6,9.6,0,0,0,391.6-64.8ZM376.2-80.4a11,11,0,0,1-11-11,11,11,0,0,1,11-10.9,10.9,10.9,0,0,1,11,10.9A11,11,0,0,1,376.2-80.4Zm-9-43.2a33.8,33.8,0,0,0-7.4,3,9,9,0,0,0-1.4-2,34.7,34.7,0,0,1,8.4-3.5A7.3,7.3,0,0,0,367.2-123.6Zm-6.4,5.7a29.9,29.9,0,0,1,7.6-3.2,9.1,9.1,0,0,0,6.4,4.1v11.9a14.1,14.1,0,0,0-7.3,3.1l-8.4-8.4A9.7,9.7,0,0,0,360.8-117.9Zm31.8-2.7a33,33,0,0,0-7.3-3,21.7,21.7,0,0,0,.4-2.5,38.3,38.3,0,0,1,8.4,3.5A9.5,9.5,0,0,0,392.6-120.6Zm-8.5-.5a29.2,29.2,0,0,1,7.5,3.2,9.4,9.4,0,0,0,1.7,7.4l-8.4,8.4a14.1,14.1,0,0,0-7.3-3V-117A9.5,9.5,0,0,0,384.1-121.1Zm23.3,11.9a34.7,34.7,0,0,1,3.5,8.4,6.4,6.4,0,0,0-2.4.4,40,40,0,0,0-3.1-7.4Zm-1.8-11.6a6.6,6.6,0,0,1,0,9.4,6.6,6.6,0,0,1-9.4,0,6.7,6.7,0,0,1,0-9.4A6.8,6.8,0,0,1,405.6-120.8ZM376.2-133a6.7,6.7,0,0,1,6.7,6.7,6.6,6.6,0,0,1-6.7,6.6,6.6,6.6,0,0,1-6.6-6.6,4.9,4.9,0,0,1,.1-1.2.4.4,0,0,1,.1-.3A6.5,6.5,0,0,1,376.2-133Zm-19.1,24.5,8.4,8.4a14.8,14.8,0,0,0-3,7.3H350.7a9.4,9.4,0,0,0-4.1-6.4,29.6,29.6,0,0,1,3.1-7.6A9.3,9.3,0,0,0,357.1-108.5Zm-10.1.7a33.8,33.8,0,0,0-3,7.4,6.9,6.9,0,0,0-2.5-.4,34.7,34.7,0,0,1,3.5-8.4ZM334.7-91.4a6.7,6.7,0,0,1,6.6-6.6,6.7,6.7,0,0,1,6.7,6.6,6.7,6.7,0,0,1-6.7,6.7A6.7,6.7,0,0,1,334.7-91.4ZM351.5-60a7,7,0,0,1-4.7-1.9,6.8,6.8,0,0,1,0-9.4,6.6,6.6,0,0,1,9.4,0,6.6,6.6,0,0,1,0,9.4A6.7,6.7,0,0,1,351.5-60Zm42.3,16.6c.1.3,0,.6-.4.6H359a.4.4,0,0,1-.4-.6l4.3-11.5,4.3,1.3a9.6,9.6,0,0,0,9,6.7,9.5,9.5,0,0,0,9-6.7l4.4-1.3Zm1.5-30.9-8.4-8.4a13.3,13.3,0,0,0,3-7.3h11.9a9.3,9.3,0,0,0,4.1,6.5,29.9,29.9,0,0,1-3.2,7.6l-1.8-.2A9.4,9.4,0,0,0,395.3-74.3Zm10.1-.7a36.4,36.4,0,0,0,3.1-7.3,9.3,9.3,0,0,0,2.4.4,36.4,36.4,0,0,1-3.5,8.4A9.5,9.5,0,0,0,405.4-75Z"/></clipPath><clipPath id="clip-path-30"><path class="cls-2" d="M99.7-37.4H25.1A2.6,2.6,0,0,1,22.6-40v-5.5a2.6,2.6,0,0,1,2.5-2.6H53.7a4.8,4.8,0,0,1-.7-2.1,6.7,6.7,0,0,1,1.4-5.3l.9-1.1a7,7,0,0,0,1.5-5.6l-.4-2.4H45.2a6,6,0,0,1-5.9-6.1.9.9,0,0,0-.4-.8l-2.4-1.7a2.7,2.7,0,0,1-1-2.9A2.7,2.7,0,0,1,38-78H57.3v-2.9H50.8A6,6,0,0,1,44.9-87c0-.4-.1-.7-.4-.8l-2.3-1.7a2.7,2.7,0,0,1-1-2.9,2.5,2.5,0,0,1,2.4-1.8H57.3v-1.5a10.3,10.3,0,0,0-5.7-9.3l-.7-.3v-2.5h23v2.5l-.7.3a10.2,10.2,0,0,0-5.7,9.3v1.5H81.2a2.5,2.5,0,0,1,2.4,1.8,2.7,2.7,0,0,1-1,2.9l-2.4,1.7a.9.9,0,0,0-.4.8A5.9,5.9,0,0,1,74-80.9H67.5V-78H86.8a2.8,2.8,0,0,1,2.5,1.9,2.7,2.7,0,0,1-1,2.9l-2.4,1.7c-.3.1-.4.4-.4.8a6,6,0,0,1-5.9,6.1H68.4L68-62.2a6.9,6.9,0,0,0,1.5,5.6l.9,1.1a6.7,6.7,0,0,1,1.4,5.3,6.5,6.5,0,0,1-.7,2.1H99.7a2.6,2.6,0,0,1,2.5,2.6V-40A2.6,2.6,0,0,1,99.7-37.4ZM25.1-45.6h0V-40H99.7v-5.5H64.6l3.1-2.2a4.2,4.2,0,0,0,1.6-2.7,4.1,4.1,0,0,0-.9-3.4L67.5-55a9.6,9.6,0,0,1-2-7.5l.7-4.6H79.6A3.5,3.5,0,0,0,83-70.7a3.4,3.4,0,0,1,1.5-2.9l2.3-1.6c0-.1.1-.1.1-.2H65v-7.9h9A3.5,3.5,0,0,0,77.3-87a3.6,3.6,0,0,1,1.5-2.9l2.4-1.6v-.2H65v-4a12.8,12.8,0,0,1,4.2-9.6H55.6a12.8,12.8,0,0,1,4.2,9.6v4H43.6v.2L46-89.9A3.6,3.6,0,0,1,47.4-87a3.5,3.5,0,0,0,3.4,3.6h9v7.9H38c-.1.2-.1.2,0,.3l2.3,1.6a3.6,3.6,0,0,1,1.5,2.9,3.5,3.5,0,0,0,3.4,3.6H58.5l.8,4.6a9.6,9.6,0,0,1-2,7.5l-.9,1.1a4.1,4.1,0,0,0-.9,3.4,3.8,3.8,0,0,0,1.6,2.7l3,2.2Z"/></clipPath><clipPath id="clip-path-31"><path class="cls-1" d="M30-78.7a2.9,2.9,0,0,1,2.8-2.8,5.7,5.7,0,0,0,5.7-5.6v-7A2.8,2.8,0,0,1,41.3-97h8.4v-2.8H41.3a5.7,5.7,0,0,0-5.7,5.7v7a2.8,2.8,0,0,1-2.8,2.8,5.6,5.6,0,0,0-5.6,5.6v19.8H30Z"/></clipPath><clipPath id="clip-path-32"><path class="cls-2" d="M62.4-110.3a2.1,2.1,0,0,1-1.9-1l-3.2-5.3a2.3,2.3,0,0,1,.4-2.7l3.2-3.2a2.2,2.2,0,0,1,3,0l3.2,3.2a2.1,2.1,0,0,1,.3,2.7l-3.2,5.3A2,2,0,0,1,62.4-110.3Zm0-2.1Zm0-8.5-3.2,3.2,3.2,5.2,3.2-5.3Z"/></clipPath><clipPath id="clip-path-33"><path class="cls-1" d="M75.1-99.8V-97h8.4a2.8,2.8,0,0,1,2.8,2.9v7A5.7,5.7,0,0,0,92-81.5a2.9,2.9,0,0,1,2.8,2.8v19.8h2.8V-78.7A5.6,5.6,0,0,0,92-84.3a2.9,2.9,0,0,1-2.9-2.8v-7a5.6,5.6,0,0,0-5.6-5.7Z"/></clipPath><clipPath id="clip-path-34"><path class="cls-1" d="M80.7-109.6h2.8a8.5,8.5,0,0,0-8.4-8.5H72.2v2.8h2.9a5.7,5.7,0,0,1,5.6,5.7"/></clipPath><clipPath id="clip-path-35"><path class="cls-1" d="M49.7-115.3h2.8v-2.8H49.7a8.5,8.5,0,0,0-8.4,8.5h2.8a5.7,5.7,0,0,1,5.6-5.7"/></clipPath><clipPath id="clip-path-36"><path class="cls-1" d="M529.6-50.7a4.6,4.6,0,0,1-3.1,1.2,4.8,4.8,0,0,1-3.2-1.2,7,7,0,0,0-5-1.9,7,7,0,0,0-5,1.9,4.6,4.6,0,0,1-3.1,1.2,4.4,4.4,0,0,1-3.1-1.2,7.3,7.3,0,0,0-5.1-1.9,7.2,7.2,0,0,0-5,1.9,4.4,4.4,0,0,1-3.1,1.2,3.2,3.2,0,0,1-1.8-.4V-92h22v3.1h3.2V-92h1.6a3.1,3.1,0,0,0,3.1-3.2v-3.1a3.2,3.2,0,0,0-3.1-3.2h-.1a29.9,29.9,0,0,0-28.3-28.2v-1.7a4.7,4.7,0,0,0-4.7-4.7,4.7,4.7,0,0,0-4.7,4.7v1.7a29.9,29.9,0,0,0-28.3,28.2h-.1a3.2,3.2,0,0,0-3.1,3.2v3.1a3.1,3.1,0,0,0,3.1,3.2h1.6v3.1h3.2V-92h22v42.1a4.9,4.9,0,0,1-1.9.4,4.6,4.6,0,0,1-3.1-1.2,7,7,0,0,0-5-1.9,7,7,0,0,0-5,1.9,4.6,4.6,0,0,1-3.1,1.2,4.4,4.4,0,0,1-3.1-1.2,7.3,7.3,0,0,0-5.1-1.9,7.2,7.2,0,0,0-5,1.9,4.4,4.4,0,0,1-3.1,1.2,4.4,4.4,0,0,1-3.1-1.2,7.2,7.2,0,0,0-5-1.9v3.1a4.6,4.6,0,0,1,3.1,1.2,7.1,7.1,0,0,0,5,2,7.1,7.1,0,0,0,5-2,4.6,4.6,0,0,1,3.1-1.2,4.4,4.4,0,0,1,3.1,1.2,7.3,7.3,0,0,0,5.1,2,7.3,7.3,0,0,0,5-2,4.4,4.4,0,0,1,3.1-1.2,4.4,4.4,0,0,1,3.1,1.2,7.3,7.3,0,0,0,5,2,7.3,7.3,0,0,0,5.1-2,4.4,4.4,0,0,1,3.1-1.2,4.6,4.6,0,0,1,3.1,1.2,7.1,7.1,0,0,0,5,2,7.1,7.1,0,0,0,5-2,4.6,4.6,0,0,1,3.1-1.2,4.4,4.4,0,0,1,3.1,1.2,7.3,7.3,0,0,0,5.1,2,7.3,7.3,0,0,0,5-2,4.4,4.4,0,0,1,3.1-1.2,4.4,4.4,0,0,1,3.1,1.2,7.3,7.3,0,0,0,5.1,2,7.3,7.3,0,0,0,5-2,4.4,4.4,0,0,1,3.1-1.2v-3.1A7,7,0,0,0,529.6-50.7Zm-43.8-82.2a1.6,1.6,0,0,1,1.6,1.5v1.6h-3.2v-1.6A1.6,1.6,0,0,1,485.8-132.9Zm-4.3,6.3a36.8,36.8,0,0,0-8.4,11.9l2.9,1.3a34.3,34.3,0,0,1,9.8-12.8,33.2,33.2,0,0,1,12.5,24.7h-25a30.3,30.3,0,0,1,1.6-8.9l-3-1a33.9,33.9,0,0,0-1.8,9.9H456A26.7,26.7,0,0,1,481.5-126.6ZM452.7-98.3h53.6v-3.2h-4.8a36.7,36.7,0,0,0-11.4-25.1,26.7,26.7,0,0,1,25.5,25.1h-6.2v3.2h9.5v3.1H452.7Zm33.1,45.7a7.3,7.3,0,0,0-3.2.6V-92h6.3v40A6.8,6.8,0,0,0,485.8-52.6Z"/></clipPath><clipPath id="clip-path-37"><path class="cls-1" d="M526.5-41.6a4.4,4.4,0,0,1-3.2-1.3,7.5,7.5,0,0,0-5-1.9,7.5,7.5,0,0,0-5,1.9,4.2,4.2,0,0,1-3.1,1.3,4.1,4.1,0,0,1-3.1-1.3,7.8,7.8,0,0,0-5.1-1.9,7.7,7.7,0,0,0-5,1.9,4.1,4.1,0,0,1-3.1,1.3,4.1,4.1,0,0,1-3.1-1.3,7.7,7.7,0,0,0-5-1.9,7.8,7.8,0,0,0-5.1,1.9,4.1,4.1,0,0,1-3.1,1.3,4.2,4.2,0,0,1-3.1-1.3,7.5,7.5,0,0,0-5-1.9,7.5,7.5,0,0,0-5,1.9,4.2,4.2,0,0,1-3.1,1.3,4.1,4.1,0,0,1-3.1-1.3,7.8,7.8,0,0,0-5.1-1.9,7.7,7.7,0,0,0-5,1.9,4.1,4.1,0,0,1-3.1,1.3,4.1,4.1,0,0,1-3.1-1.3,7.5,7.5,0,0,0-5-1.9v3.2a4.6,4.6,0,0,1,3.1,1.2,7,7,0,0,0,5,1.9,7,7,0,0,0,5-1.9,4.6,4.6,0,0,1,3.1-1.2,4.4,4.4,0,0,1,3.1,1.2,7.3,7.3,0,0,0,5.1,1.9,7.2,7.2,0,0,0,5-1.9,4.4,4.4,0,0,1,3.1-1.2,4.4,4.4,0,0,1,3.1,1.2,7.2,7.2,0,0,0,5,1.9,7.3,7.3,0,0,0,5.1-1.9,4.4,4.4,0,0,1,3.1-1.2,4.6,4.6,0,0,1,3.1,1.2,7,7,0,0,0,5,1.9,7,7,0,0,0,5-1.9,4.6,4.6,0,0,1,3.1-1.2,4.4,4.4,0,0,1,3.1,1.2,7.3,7.3,0,0,0,5.1,1.9,7.2,7.2,0,0,0,5-1.9,4.4,4.4,0,0,1,3.1-1.2,4.4,4.4,0,0,1,3.1,1.2,7.3,7.3,0,0,0,5.1,1.9,7.2,7.2,0,0,0,5-1.9,4.4,4.4,0,0,1,3.1-1.2v-3.2a7.5,7.5,0,0,0-5,1.9,4.2,4.2,0,0,1-3.1,1.3"/></clipPath><clipPath id="clip-path-38"><path class="cls-1" d="M495.2-60.5a4.8,4.8,0,0,0,4.8,4.7,4.7,4.7,0,0,0,4.7-4.7v-3.2h-3.2v3.2a1.6,1.6,0,0,1-1.5,1.6,1.6,1.6,0,0,1-1.6-1.6V-82.6h-3.2Z"/></clipPath><clipPath id="clip-path-39"><path class="cls-1" d="M517.3-71.5v-7.9h-3.2v7.9a1.5,1.5,0,0,1-1.5,1.5,1.6,1.6,0,0,1-1.6-1.5V-84.1a4.8,4.8,0,0,0-4.7-4.8,4.9,4.9,0,0,0-4.8,4.8v4.7h3.2v-4.7a1.6,1.6,0,0,1,1.6-1.6,1.6,1.6,0,0,1,1.5,1.6v12.6a4.8,4.8,0,0,0,4.8,4.7,4.7,4.7,0,0,0,4.7-4.7"/></clipPath><clipPath id="clip-path-40"><path class="cls-1" d="M473.2-60.5a1.6,1.6,0,0,1-1.6,1.6,1.7,1.7,0,0,1-1.6-1.6v-3.2h-3.1v3.2a4.7,4.7,0,0,0,4.7,4.7,4.7,4.7,0,0,0,4.7-4.7V-82.6h-3.1Z"/></clipPath><clipPath id="clip-path-41"><path class="cls-1" d="M454.3-71.5a4.7,4.7,0,0,0,4.7,4.7,4.7,4.7,0,0,0,4.7-4.7V-84.1a1.6,1.6,0,0,1,1.6-1.6,1.6,1.6,0,0,1,1.6,1.6v4.7H470v-4.7a4.8,4.8,0,0,0-4.7-4.8,4.8,4.8,0,0,0-4.7,4.8v12.6A1.6,1.6,0,0,1,459-70a1.5,1.5,0,0,1-1.5-1.5v-7.9h-3.2Z"/></clipPath><clipPath id="clip-path-42"><path class="cls-1" d="M444.9-60.5a17.7,17.7,0,0,1,5.6.9l4.9,1.6-2.6-6.6a8.4,8.4,0,0,0-7.9-5.4,4.8,4.8,0,0,0-4.8,4.8,4.7,4.7,0,0,0,4.8,4.7m0-6.3a5.4,5.4,0,0,1,5,3.4v.4a17.9,17.9,0,0,0-5.1-.7,1.6,1.6,0,0,1-1.6-1.5,1.6,1.6,0,0,1,1.6-1.6"/></clipPath><clipPath id="clip-path-43"><path class="cls-1" d="M518.8-64.6l-2.7,6.7,5-1.7a17.7,17.7,0,0,1,5.6-.9,4.7,4.7,0,0,0,4.7-4.7,4.8,4.8,0,0,0-4.7-4.8A8.4,8.4,0,0,0,518.8-64.6Zm2.9,1.2a5.3,5.3,0,0,1,5-3.4,1.6,1.6,0,0,1,1.6,1.6,1.6,1.6,0,0,1-1.6,1.5,18.6,18.6,0,0,0-5.2.7Z"/></clipPath></defs><path class="cls-4" d="M604.7-41.9h15.9v-9.9H604.7Zm17.9,4H602.7a2,2,0,0,1-2-2V-53.8a2,2,0,0,1,2-2h19.9a2,2,0,0,1,2,2v13.9A2,2,0,0,1,622.6-37.9Z"/><g class="cls-5"><rect class="cls-2" x="-663.9" y="-3834.5" width="5804" height="4970.61"/></g><path class="cls-4" d="M594.7-41.9h35.8v-87.5H594.7Zm37.8,4H592.7a2,2,0,0,1-2-2v-91.5a2,2,0,0,1,2-2h39.8a2,2,0,0,1,2,2v91.5A2,2,0,0,1,632.5-37.9Z"/><g class="cls-6"><rect class="cls-2" x="-663.9" y="-3834.5" width="5804" height="4964.66"/></g><path class="cls-4" d="M578.8-41.9h11.9v-79.6H578.8Zm13.9,4H576.8a2,2,0,0,1-2-2v-83.5a2,2,0,0,1,2-2h15.9a2,2,0,0,1,2,2v83.5A2,2,0,0,1,592.7-37.9Z"/><g class="cls-7"><rect class="cls-2" x="-663.9" y="-3834.5" width="5804" height="4964.66"/></g><path class="cls-4" d="M634.5-41.9h11.9v-79.6H634.5Zm13.9,4H632.5a2,2,0,0,1-2-2v-83.5a2,2,0,0,1,2-2h15.9a2,2,0,0,1,2,2v83.5A2,2,0,0,1,648.4-37.9Z"/><g class="cls-8"><rect class="cls-2" x="-663.9" y="-3834.5" width="5804" height="4964.66"/></g><rect class="cls-2" x="560.9" y="-81.7" width="4" height="19.89" transform="translate(282.4 421.5) rotate(-53.1)"/><g class="cls-9"><rect class="cls-2" x="-663.9" y="-3834.5" width="5804" height="4964.66"/></g><rect class="cls-2" x="553" y="-73.7" width="19.9" height="3.98" transform="translate(155.7 323.5) rotate(-36.9)"/><g class="cls-10"><rect class="cls-2" x="-663.9" y="-3834.5" width="5804" height="4964.66"/></g><rect class="cls-2" x="660.4" y="-81.7" width="4" height="19.89" transform="translate(322.2 501.1) rotate(-53.1)"/><g class="cls-11"><rect class="cls-2" x="-663.9" y="-3834.5" width="5804" height="4964.66"/></g><rect class="cls-2" x="652.4" y="-73.7" width="19.9" height="3.97" transform="translate(175.3 382.9) rotate(-36.8)"/><g class="cls-12"><rect class="cls-2" x="-663.9" y="-3834.5" width="5804" height="4964.66"/></g><path class="cls-4" d="M420.6-91.4a9.5,9.5,0,0,0-6.7-9,36.1,36.1,0,0,0-4.7-11.3,9.4,9.4,0,0,0-1.6-11.1,9.4,9.4,0,0,0-6.7-2.7,8.2,8.2,0,0,0-4.4,1.1,36.1,36.1,0,0,0-11.3-4.7,9.4,9.4,0,0,0-9-6.7,9.5,9.5,0,0,0-9,6.7,35.6,35.6,0,0,0-11.2,4.7,9.1,9.1,0,0,0-7.2-.7,1.4,1.4,0,0,0,.8,2.7,6.4,6.4,0,0,1,6.6,1.6,6.6,6.6,0,0,1,0,9.4,6.6,6.6,0,0,1-9.4,0,6.6,6.6,0,0,1-1.4-7.2c.7-1.6-1.9-2.8-2.6-1.1a9.3,9.3,0,0,0,.4,8,38.6,38.6,0,0,0-4.7,11.3,9.5,9.5,0,0,0-6.6,9,9.5,9.5,0,0,0,6.6,9.1,38.1,38.1,0,0,0,4.7,11.2A9.4,9.4,0,0,0,344.9-60,9.6,9.6,0,0,0,356-58.3a29.3,29.3,0,0,0,4.3,2.3L356-44.4a3.3,3.3,0,0,0,3,4.4h34.4a3.4,3.4,0,0,0,3.1-4.4L392.2-56a45,45,0,0,0,4.3-2.3,9.3,9.3,0,0,0,4.4,1.1,9.7,9.7,0,0,0,2.9-.4,1.4,1.4,0,0,0-.9-2.7,6.6,6.6,0,0,1-6.7-1.6,6.6,6.6,0,0,1,0-9.4,6.6,6.6,0,0,1,9.4,0,6.6,6.6,0,0,1,1.5,7.1,1.4,1.4,0,0,0,2.6,1.1,9.7,9.7,0,0,0-.5-8,35.6,35.6,0,0,0,4.7-11.2A9.5,9.5,0,0,0,420.6-91.4Zm-2.8,0a6.7,6.7,0,0,1-6.7,6.7,6.7,6.7,0,0,1-6.6-6.7,6.7,6.7,0,0,1,6.6-6.6A6.7,6.7,0,0,1,417.8-91.4Zm-16-1.4H389.9a14.8,14.8,0,0,0-3-7.3l8.4-8.4a9.3,9.3,0,0,0,7.4,1.7,29.9,29.9,0,0,1,3.2,7.6A9.1,9.1,0,0,0,401.8-92.8ZM390-58.1l-4.3,1.5a18.7,18.7,0,0,0-.4-2.5,33,33,0,0,0,7.3-3,9.5,9.5,0,0,0,1.5,2A25.8,25.8,0,0,1,390-58.1Zm-31.6-2a9,9,0,0,0,1.4-2,33.8,33.8,0,0,0,7.4,3,6.9,6.9,0,0,0-.4,2.5A34.7,34.7,0,0,1,358.4-60.1ZM345-73.5a36.4,36.4,0,0,1-3.5-8.4,10.1,10.1,0,0,0,2.5-.4,31.2,31.2,0,0,0,3,7.3A9.5,9.5,0,0,0,345-73.5Zm4.7-2.4a29.6,29.6,0,0,1-3.1-7.6,9.6,9.6,0,0,0,4.1-6.5h11.8a14.1,14.1,0,0,0,3,7.3l-8.4,8.4A9.7,9.7,0,0,0,349.7-75.9Zm25.1,10.1a9.4,9.4,0,0,0-6.4,4.1,29.6,29.6,0,0,1-7.6-3.1,9.6,9.6,0,0,0-1.7-7.5l8.4-8.4a12.9,12.9,0,0,0,7.3,3Zm1.4,2.7a6.7,6.7,0,0,1,6.7,6.7,6.6,6.6,0,0,1-6.7,6.6,6.6,6.6,0,0,1-6.6-6.6A6.7,6.7,0,0,1,376.2-63.1Zm15.4-1.7a29,29,0,0,1-7.5,3.1,9.9,9.9,0,0,0-6.5-4.1V-77.7a12.6,12.6,0,0,0,7.3-3l8.4,8.4A9.6,9.6,0,0,0,391.6-64.8ZM376.2-80.4a11,11,0,0,1-11-11,11,11,0,0,1,11-10.9,10.9,10.9,0,0,1,11,10.9A11,11,0,0,1,376.2-80.4Zm-9-43.2a33.8,33.8,0,0,0-7.4,3,9,9,0,0,0-1.4-2,34.7,34.7,0,0,1,8.4-3.5A7.3,7.3,0,0,0,367.2-123.6Zm-6.4,5.7a29.9,29.9,0,0,1,7.6-3.2,9.1,9.1,0,0,0,6.4,4.1v11.9a14.1,14.1,0,0,0-7.3,3.1l-8.4-8.4A9.7,9.7,0,0,0,360.8-117.9Zm31.8-2.7a33,33,0,0,0-7.3-3,21.7,21.7,0,0,0,.4-2.5,38.3,38.3,0,0,1,8.4,3.5A9.5,9.5,0,0,0,392.6-120.6Zm-8.5-.5a29.2,29.2,0,0,1,7.5,3.2,9.4,9.4,0,0,0,1.7,7.4l-8.4,8.4a14.1,14.1,0,0,0-7.3-3V-117A9.5,9.5,0,0,0,384.1-121.1Zm23.3,11.9a34.7,34.7,0,0,1,3.5,8.4,6.4,6.4,0,0,0-2.4.4,40,40,0,0,0-3.1-7.4Zm-1.8-11.6a6.6,6.6,0,0,1,0,9.4,6.6,6.6,0,0,1-9.4,0,6.7,6.7,0,0,1,0-9.4A6.8,6.8,0,0,1,405.6-120.8ZM376.2-133a6.7,6.7,0,0,1,6.7,6.7,6.6,6.6,0,0,1-6.7,6.6,6.6,6.6,0,0,1-6.6-6.6,4.9,4.9,0,0,1,.1-1.2.4.4,0,0,1,.1-.3A6.5,6.5,0,0,1,376.2-133Zm-19.1,24.5,8.4,8.4a14.8,14.8,0,0,0-3,7.3H350.7a9.4,9.4,0,0,0-4.1-6.4,29.6,29.6,0,0,1,3.1-7.6A9.3,9.3,0,0,0,357.1-108.5Zm-10.1.7a33.8,33.8,0,0,0-3,7.4,6.9,6.9,0,0,0-2.5-.4,34.7,34.7,0,0,1,3.5-8.4ZM334.7-91.4a6.7,6.7,0,0,1,6.6-6.6,6.7,6.7,0,0,1,6.7,6.6,6.7,6.7,0,0,1-6.7,6.7A6.7,6.7,0,0,1,334.7-91.4ZM351.5-60a7,7,0,0,1-4.7-1.9,6.8,6.8,0,0,1,0-9.4,6.6,6.6,0,0,1,9.4,0,6.6,6.6,0,0,1,0,9.4A6.7,6.7,0,0,1,351.5-60Zm42.3,16.6c.1.3,0,.6-.4.6H359a.4.4,0,0,1-.4-.6l4.3-11.5,4.3,1.3a9.6,9.6,0,0,0,9,6.7,9.5,9.5,0,0,0,9-6.7l4.4-1.3Zm1.5-30.9-8.4-8.4a13.3,13.3,0,0,0,3-7.3h11.9a9.3,9.3,0,0,0,4.1,6.5,29.9,29.9,0,0,1-3.2,7.6l-1.8-.2A9.4,9.4,0,0,0,395.3-74.3Zm10.1-.7a36.4,36.4,0,0,0,3.1-7.3,9.3,9.3,0,0,0,2.4.4,36.4,36.4,0,0,1-3.5,8.4A9.5,9.5,0,0,0,405.4-75Z"/><g class="cls-33"><rect class="cls-2" x="-4188.1" y="-2351.1" width="5391.4" height="4611.73"/></g><path class="cls-2" d="M99.7-37.4H25.1A2.6,2.6,0,0,1,22.6-40v-5.5a2.6,2.6,0,0,1,2.5-2.6H53.7a4.8,4.8,0,0,1-.7-2.1,6.7,6.7,0,0,1,1.4-5.3l.9-1.1a7,7,0,0,0,1.5-5.6l-.4-2.4H45.2a6,6,0,0,1-5.9-6.1.9.9,0,0,0-.4-.8l-2.4-1.7a2.7,2.7,0,0,1-1-2.9A2.7,2.7,0,0,1,38-78H57.3v-2.9H50.8A6,6,0,0,1,44.9-87c0-.4-.1-.7-.4-.8l-2.3-1.7a2.7,2.7,0,0,1-1-2.9,2.5,2.5,0,0,1,2.4-1.8H57.3v-1.5a10.3,10.3,0,0,0-5.7-9.3l-.7-.3v-2.5h23v2.5l-.7.3a10.2,10.2,0,0,0-5.7,9.3v1.5H81.2a2.5,2.5,0,0,1,2.4,1.8,2.7,2.7,0,0,1-1,2.9l-2.4,1.7a.9.9,0,0,0-.4.8A5.9,5.9,0,0,1,74-80.9H67.5V-78H86.8a2.8,2.8,0,0,1,2.5,1.9,2.7,2.7,0,0,1-1,2.9l-2.4,1.7c-.3.1-.4.4-.4.8a6,6,0,0,1-5.9,6.1H68.4L68-62.2a6.9,6.9,0,0,0,1.5,5.6l.9,1.1a6.7,6.7,0,0,1,1.4,5.3,6.5,6.5,0,0,1-.7,2.1H99.7a2.6,2.6,0,0,1,2.5,2.6V-40A2.6,2.6,0,0,1,99.7-37.4ZM25.1-45.6h0V-40H99.7v-5.5H64.6l3.1-2.2a4.2,4.2,0,0,0,1.6-2.7,4.1,4.1,0,0,0-.9-3.4L67.5-55a9.6,9.6,0,0,1-2-7.5l.7-4.6H79.6A3.5,3.5,0,0,0,83-70.7a3.4,3.4,0,0,1,1.5-2.9l2.3-1.6c0-.1.1-.1.1-.2H65v-7.9h9A3.5,3.5,0,0,0,77.3-87a3.6,3.6,0,0,1,1.5-2.9l2.4-1.6v-.2H65v-4a12.8,12.8,0,0,1,4.2-9.6H55.6a12.8,12.8,0,0,1,4.2,9.6v4H43.6v.2L46-89.9A3.6,3.6,0,0,1,47.4-87a3.5,3.5,0,0,0,3.4,3.6h9v7.9H38c-.1.2-.1.2,0,.3l2.3,1.6a3.6,3.6,0,0,1,1.5,2.9,3.5,3.5,0,0,0,3.4,3.6H58.5l.8,4.6a9.6,9.6,0,0,1-2,7.5l-.9,1.1a4.1,4.1,0,0,0-.9,3.4,3.8,3.8,0,0,0,1.6,2.7l3,2.2Z"/><g class="cls-34"><path class="cls-2" d="M2485.3,1746.4H-2392V-2659.8H2485.3Zm-4874.3-3H2482.3V-2656.8H-2389Z"/></g><path class="cls-4" d="M30-78.7a2.9,2.9,0,0,1,2.8-2.8,5.7,5.7,0,0,0,5.7-5.6v-7A2.8,2.8,0,0,1,41.3-97h8.4v-2.8H41.3a5.7,5.7,0,0,0-5.7,5.7v7a2.8,2.8,0,0,1-2.8,2.8,5.6,5.6,0,0,0-5.6,5.6v19.8H30Z"/><g class="cls-35"><rect class="cls-2" x="-2623.9" y="-2755.7" width="5338" height="4566.05"/></g><path class="cls-2" d="M62.4-110.3a2.1,2.1,0,0,1-1.9-1l-3.2-5.3a2.3,2.3,0,0,1,.4-2.7l3.2-3.2a2.2,2.2,0,0,1,3,0l3.2,3.2a2.1,2.1,0,0,1,.3,2.7l-3.2,5.3A2,2,0,0,1,62.4-110.3Zm0-2.1Zm0-8.5-3.2,3.2,3.2,5.2,3.2-5.3Z"/><g class="cls-36"><path class="cls-2" d="M2069.5,1342.2H-1970.8V-2114.2H2069.5Zm-4038.1-2.2H2067.3V-2112H-1968.6Z"/></g><path class="cls-4" d="M75.1-99.8V-97h8.4a2.8,2.8,0,0,1,2.8,2.9v7A5.7,5.7,0,0,0,92-81.5a2.9,2.9,0,0,1,2.8,2.8v19.8h2.8V-78.7A5.6,5.6,0,0,0,92-84.3a2.9,2.9,0,0,1-2.9-2.8v-7a5.6,5.6,0,0,0-5.6-5.7Z"/><g class="cls-37"><rect class="cls-2" x="-2623.9" y="-2755.7" width="5338" height="4566.05"/></g><path class="cls-4" d="M80.7-109.6h2.8a8.5,8.5,0,0,0-8.4-8.5H72.2v2.8h2.9a5.7,5.7,0,0,1,5.6,5.7"/><g class="cls-38"><rect class="cls-2" x="-2623.9" y="-2755.7" width="5338" height="4566.05"/></g><path class="cls-4" d="M49.7-115.3h2.8v-2.8H49.7a8.5,8.5,0,0,0-8.4,8.5h2.8a5.7,5.7,0,0,1,5.6-5.7"/><g class="cls-39"><rect class="cls-2" x="-2623.9" y="-2755.7" width="5338" height="4566.05"/></g><path class="cls-4" d="M529.6-50.7a4.6,4.6,0,0,1-3.1,1.2,4.8,4.8,0,0,1-3.2-1.2,7,7,0,0,0-5-1.9,7,7,0,0,0-5,1.9,4.6,4.6,0,0,1-3.1,1.2,4.4,4.4,0,0,1-3.1-1.2,7.3,7.3,0,0,0-5.1-1.9,7.2,7.2,0,0,0-5,1.9,4.4,4.4,0,0,1-3.1,1.2,3.2,3.2,0,0,1-1.8-.4V-92h22v3.1h3.2V-92h1.6a3.1,3.1,0,0,0,3.1-3.2v-3.1a3.2,3.2,0,0,0-3.1-3.2h-.1a29.9,29.9,0,0,0-28.3-28.2v-1.7a4.7,4.7,0,0,0-4.7-4.7,4.7,4.7,0,0,0-4.7,4.7v1.7a29.9,29.9,0,0,0-28.3,28.2h-.1a3.2,3.2,0,0,0-3.1,3.2v3.1a3.1,3.1,0,0,0,3.1,3.2h1.6v3.1h3.2V-92h22v42.1a4.9,4.9,0,0,1-1.9.4,4.6,4.6,0,0,1-3.1-1.2,7,7,0,0,0-5-1.9,7,7,0,0,0-5,1.9,4.6,4.6,0,0,1-3.1,1.2,4.4,4.4,0,0,1-3.1-1.2,7.3,7.3,0,0,0-5.1-1.9,7.2,7.2,0,0,0-5,1.9,4.4,4.4,0,0,1-3.1,1.2,4.4,4.4,0,0,1-3.1-1.2,7.2,7.2,0,0,0-5-1.9v3.1a4.6,4.6,0,0,1,3.1,1.2,7.1,7.1,0,0,0,5,2,7.1,7.1,0,0,0,5-2,4.6,4.6,0,0,1,3.1-1.2,4.4,4.4,0,0,1,3.1,1.2,7.3,7.3,0,0,0,5.1,2,7.3,7.3,0,0,0,5-2,4.4,4.4,0,0,1,3.1-1.2,4.4,4.4,0,0,1,3.1,1.2,7.3,7.3,0,0,0,5,2,7.3,7.3,0,0,0,5.1-2,4.4,4.4,0,0,1,3.1-1.2,4.6,4.6,0,0,1,3.1,1.2,7.1,7.1,0,0,0,5,2,7.1,7.1,0,0,0,5-2,4.6,4.6,0,0,1,3.1-1.2,4.4,4.4,0,0,1,3.1,1.2,7.3,7.3,0,0,0,5.1,2,7.3,7.3,0,0,0,5-2,4.4,4.4,0,0,1,3.1-1.2,4.4,4.4,0,0,1,3.1,1.2,7.3,7.3,0,0,0,5.1,2,7.3,7.3,0,0,0,5-2,4.4,4.4,0,0,1,3.1-1.2v-3.1A7,7,0,0,0,529.6-50.7Zm-43.8-82.2a1.6,1.6,0,0,1,1.6,1.5v1.6h-3.2v-1.6A1.6,1.6,0,0,1,485.8-132.9Zm-4.3,6.3a36.8,36.8,0,0,0-8.4,11.9l2.9,1.3a34.3,34.3,0,0,1,9.8-12.8,33.2,33.2,0,0,1,12.5,24.7h-25a30.3,30.3,0,0,1,1.6-8.9l-3-1a33.9,33.9,0,0,0-1.8,9.9H456A26.7,26.7,0,0,1,481.5-126.6ZM452.7-98.3h53.6v-3.2h-4.8a36.7,36.7,0,0,0-11.4-25.1,26.7,26.7,0,0,1,25.5,25.1h-6.2v3.2h9.5v3.1H452.7Zm33.1,45.7a7.3,7.3,0,0,0-3.2.6V-92h6.3v40A6.8,6.8,0,0,0,485.8-52.6Z"/><g class="cls-40"><rect class="cls-2" x="-2311" y="-2538.1" width="5224.4" height="4468.85"/></g><path class="cls-4" d="M526.5-41.6a4.4,4.4,0,0,1-3.2-1.3,7.5,7.5,0,0,0-5-1.9,7.5,7.5,0,0,0-5,1.9,4.2,4.2,0,0,1-3.1,1.3,4.1,4.1,0,0,1-3.1-1.3,7.8,7.8,0,0,0-5.1-1.9,7.7,7.7,0,0,0-5,1.9,4.1,4.1,0,0,1-3.1,1.3,4.1,4.1,0,0,1-3.1-1.3,7.7,7.7,0,0,0-5-1.9,7.8,7.8,0,0,0-5.1,1.9,4.1,4.1,0,0,1-3.1,1.3,4.2,4.2,0,0,1-3.1-1.3,7.5,7.5,0,0,0-5-1.9,7.5,7.5,0,0,0-5,1.9,4.2,4.2,0,0,1-3.1,1.3,4.1,4.1,0,0,1-3.1-1.3,7.8,7.8,0,0,0-5.1-1.9,7.7,7.7,0,0,0-5,1.9,4.1,4.1,0,0,1-3.1,1.3,4.1,4.1,0,0,1-3.1-1.3,7.5,7.5,0,0,0-5-1.9v3.2a4.6,4.6,0,0,1,3.1,1.2,7,7,0,0,0,5,1.9,7,7,0,0,0,5-1.9,4.6,4.6,0,0,1,3.1-1.2,4.4,4.4,0,0,1,3.1,1.2,7.3,7.3,0,0,0,5.1,1.9,7.2,7.2,0,0,0,5-1.9,4.4,4.4,0,0,1,3.1-1.2,4.4,4.4,0,0,1,3.1,1.2,7.2,7.2,0,0,0,5,1.9,7.3,7.3,0,0,0,5.1-1.9,4.4,4.4,0,0,1,3.1-1.2,4.6,4.6,0,0,1,3.1,1.2,7,7,0,0,0,5,1.9,7,7,0,0,0,5-1.9,4.6,4.6,0,0,1,3.1-1.2,4.4,4.4,0,0,1,3.1,1.2,7.3,7.3,0,0,0,5.1,1.9,7.2,7.2,0,0,0,5-1.9,4.4,4.4,0,0,1,3.1-1.2,4.4,4.4,0,0,1,3.1,1.2,7.3,7.3,0,0,0,5.1,1.9,7.2,7.2,0,0,0,5-1.9,4.4,4.4,0,0,1,3.1-1.2v-3.2a7.5,7.5,0,0,0-5,1.9,4.2,4.2,0,0,1-3.1,1.3"/><g class="cls-41"><rect class="cls-2" x="-2311" y="-2538.1" width="5224.4" height="4468.85"/></g><path class="cls-4" d="M495.2-60.5a4.8,4.8,0,0,0,4.8,4.7,4.7,4.7,0,0,0,4.7-4.7v-3.2h-3.2v3.2a1.6,1.6,0,0,1-1.5,1.6,1.6,1.6,0,0,1-1.6-1.6V-82.6h-3.2Z"/><g class="cls-42"><rect class="cls-2" x="-2311" y="-2538.1" width="5224.4" height="4468.85"/></g><path class="cls-4" d="M517.3-71.5v-7.9h-3.2v7.9a1.5,1.5,0,0,1-1.5,1.5,1.6,1.6,0,0,1-1.6-1.5V-84.1a4.8,4.8,0,0,0-4.7-4.8,4.9,4.9,0,0,0-4.8,4.8v4.7h3.2v-4.7a1.6,1.6,0,0,1,1.6-1.6,1.6,1.6,0,0,1,1.5,1.6v12.6a4.8,4.8,0,0,0,4.8,4.7,4.7,4.7,0,0,0,4.7-4.7"/><g class="cls-43"><rect class="cls-2" x="-2311" y="-2538.1" width="5224.4" height="4468.85"/></g><path class="cls-4" d="M473.2-60.5a1.6,1.6,0,0,1-1.6,1.6,1.7,1.7,0,0,1-1.6-1.6v-3.2h-3.1v3.2a4.7,4.7,0,0,0,4.7,4.7,4.7,4.7,0,0,0,4.7-4.7V-82.6h-3.1Z"/><g class="cls-44"><rect class="cls-2" x="-2311" y="-2538.1" width="5224.4" height="4468.85"/></g><path class="cls-4" d="M454.3-71.5a4.7,4.7,0,0,0,4.7,4.7,4.7,4.7,0,0,0,4.7-4.7V-84.1a1.6,1.6,0,0,1,1.6-1.6,1.6,1.6,0,0,1,1.6,1.6v4.7H470v-4.7a4.8,4.8,0,0,0-4.7-4.8,4.8,4.8,0,0,0-4.7,4.8v12.6A1.6,1.6,0,0,1,459-70a1.5,1.5,0,0,1-1.5-1.5v-7.9h-3.2Z"/><g class="cls-45"><rect class="cls-2" x="-2311" y="-2538.1" width="5224.4" height="4468.85"/></g><path class="cls-4" d="M444.9-60.5a17.7,17.7,0,0,1,5.6.9l4.9,1.6-2.6-6.6a8.4,8.4,0,0,0-7.9-5.4,4.8,4.8,0,0,0-4.8,4.8,4.7,4.7,0,0,0,4.8,4.7m0-6.3a5.4,5.4,0,0,1,5,3.4v.4a17.9,17.9,0,0,0-5.1-.7,1.6,1.6,0,0,1-1.6-1.5,1.6,1.6,0,0,1,1.6-1.6"/><g class="cls-46"><rect class="cls-2" x="-2311" y="-2538.1" width="5224.4" height="4468.85"/></g><path class="cls-4" d="M518.8-64.6l-2.7,6.7,5-1.7a17.7,17.7,0,0,1,5.6-.9,4.7,4.7,0,0,0,4.7-4.7,4.8,4.8,0,0,0-4.7-4.8A8.4,8.4,0,0,0,518.8-64.6Zm2.9,1.2a5.3,5.3,0,0,1,5-3.4,1.6,1.6,0,0,1,1.6,1.6,1.6,1.6,0,0,1-1.6,1.5,18.6,18.6,0,0,0-5.2.7Z"/><g class="cls-47"><rect class="cls-2" x="-2311" y="-2538.1" width="5224.4" height="4468.85"/></g><g id="Layer_69" data-name="Layer 69"><g id="surface1"><path class="cls-2" d="M1.7,25.3v4.5a4,4,0,0,0,2.5,3.6v5.5a3.4,3.4,0,0,0,3.3,3.5V74.5A3.4,3.4,0,0,0,4.2,78v5.5A3.9,3.9,0,0,0,1.7,87v3.7A1.3,1.3,0,0,0,3,92H87.1a1.3,1.3,0,0,0,1.3-1.3V87a3.8,3.8,0,0,0-2.5-3.5V77.9a3.4,3.4,0,0,0-3.3-3.4V42.4a3.5,3.5,0,0,0,3.3-3.5V33.4a4,4,0,0,0,2.5-3.6V25.6a1.4,1.4,0,0,0,1.6-.7h0a1.2,1.2,0,0,0-.6-1.6h0L45.5.1H44.4L.7,23.2a1.1,1.1,0,0,0-.5,1.7h0A1.2,1.2,0,0,0,1.7,25.3Zm5,10.1V33.6H21v1.8Zm31.9,7V74.5A3.5,3.5,0,0,0,35.3,78v5.3H23.5V78a3.5,3.5,0,0,0-3.4-3.5V42.4a3.5,3.5,0,0,0,3.4-3.5v-5H35.2v5a3.5,3.5,0,0,0,3.3,3.5Zm-.8-7V33.6H52.2v1.8Zm32,7V74.5A3.5,3.5,0,0,0,66.5,78v5.3H54.7V78a3.6,3.6,0,0,0-3.4-3.5V42.4a3.5,3.5,0,0,0,3.4-3.5v-5H66.5v5a3.5,3.5,0,0,0,3.3,3.5Zm-.8-7V33.6H83.4v1.8ZM83.4,81.3v1.9H69V81.3Zm-31.2,0v1.9H37.8V81.3ZM39.9,39.9H38.8a1,1,0,0,1-1-1V38H52.2v.9a1,1,0,0,1-1,1Zm9,2.5V74.5H41.1V42.4ZM39.9,77H51.2a1,1,0,0,1,1,1v.9H37.8V78a.9.9,0,0,1,1-1Zm-19,4.4v1.9H6.5V81.4ZM6.5,38.9V38H20.9v.9a1,1,0,0,1-.8,1H7.5a1.1,1.1,0,0,1-1-1Zm11.1,3.5V74.5H10.1V42.4ZM6.5,78a1.1,1.1,0,0,1,1.1-1H20.1a1,1,0,0,1,1,1v.9H6.5Zm79.3,9.1v2.5H4.1V87.1a1.2,1.2,0,0,1,1.1-1.4H84.5a1.2,1.2,0,0,1,1.3,1.2ZM83.4,78v.9H69V78a1.1,1.1,0,0,1,.9-1H82.4a1,1,0,0,1,1,1Zm-11-3.5V42.4h7.7V74.5Zm11-35.6a.9.9,0,0,1-1,1H70a1,1,0,0,1-1-1V38H83.4ZM45,2.8,82.2,22.3H7.8ZM4.1,26.1a1.2,1.2,0,0,1,1.3-1.2H84.6a1.2,1.2,0,0,1,1.2,1.2v3.8a1.2,1.2,0,0,1-1.2,1.2H5.4a1.2,1.2,0,0,1-1.3-1.2Z"/></g></g></svg>