<svg id="Layer_1" data-name="Layer 1" xmlns="http://www.w3.org/2000/svg" xmlns:xlink="http://www.w3.org/1999/xlink" viewBox="0 0 140.96 89.41"><defs><style>.cls-1,.cls-2,.cls-3{fill:#fff;}.cls-1{clip-rule:evenodd;}.cls-3{fill-rule:evenodd;}.cls-4{clip-path:url(#clip-path);}.cls-5{clip-path:url(#clip-path-2);}.cls-6{clip-path:url(#clip-path-3);}.cls-7{clip-path:url(#clip-path-4);}.cls-8{clip-path:url(#clip-path-5);}.cls-9{clip-path:url(#clip-path-6);}.cls-10{clip-path:url(#clip-path-7);}.cls-11{clip-path:url(#clip-path-8);}.cls-12{clip-path:url(#clip-path-9);}.cls-13{clip-path:url(#clip-path-10);}.cls-14{clip-path:url(#clip-path-11);}.cls-15{clip-path:url(#clip-path-12);}.cls-16{clip-path:url(#clip-path-13);}.cls-17{clip-path:url(#clip-path-14);}.cls-18{clip-path:url(#clip-path-15);}.cls-19{clip-path:url(#clip-path-16);}.cls-20{clip-path:url(#clip-path-17);}.cls-21{clip-path:url(#clip-path-18);}.cls-22{clip-path:url(#clip-path-19);}.cls-23{clip-path:url(#clip-path-20);}.cls-24{clip-path:url(#clip-path-21);}.cls-25{clip-path:url(#clip-path-22);}.cls-26{clip-path:url(#clip-path-23);}</style><clipPath id="clip-path"><path class="cls-1" d="M-295.06-45.34h15.91v-9.95h-15.91Zm17.9,4H-297a2,2,0,0,1-2-2V-57.28a2,2,0,0,1,2-2h19.89a2,2,0,0,1,2,2v13.93A2,2,0,0,1-277.16-41.36Z"/></clipPath><clipPath id="clip-path-2"><path class="cls-1" d="M-305-45.34h35.8v-87.52H-305Zm37.8,4H-307a2,2,0,0,1-2-2v-91.5a2,2,0,0,1,2-2h39.79a2,2,0,0,1,2,2v91.5A2,2,0,0,1-267.21-41.36Z"/></clipPath><clipPath id="clip-path-3"><path class="cls-1" d="M-320.92-45.34H-309V-124.9h-11.93Zm13.92,4h-15.91a2,2,0,0,1-2-2v-83.54a2,2,0,0,1,2-2H-307a2,2,0,0,1,2,2v83.54A2,2,0,0,1-307-41.36Z"/></clipPath><clipPath id="clip-path-4"><path class="cls-1" d="M-265.23-45.34h11.93V-124.9h-11.93Zm13.93,4h-15.92a2,2,0,0,1-2-2v-83.54a2,2,0,0,1,2-2h15.92a2,2,0,0,1,2,2v83.54A2,2,0,0,1-251.3-41.36Z"/></clipPath><clipPath id="clip-path-5"><rect class="cls-2" x="-338.82" y="-85.12" width="3.98" height="19.89" transform="translate(-74.52 -299.45) rotate(-53.11)"/></clipPath><clipPath id="clip-path-6"><rect class="cls-2" x="-346.78" y="-77.17" width="19.89" height="3.98" transform="translate(-22.28 -217.18) rotate(-36.88)"/></clipPath><clipPath id="clip-path-7"><rect class="cls-2" x="-239.37" y="-85.12" width="3.97" height="19.89" transform="translate(-34.78 -219.93) rotate(-53.12)"/></clipPath><clipPath id="clip-path-8"><rect class="cls-2" x="-247.33" y="-77.16" width="19.89" height="3.97" transform="translate(-2.34 -157.37) rotate(-36.85)"/></clipPath><clipPath id="clip-path-9"><path class="cls-1" d="M-479.17-94.82a9.46,9.46,0,0,0-6.65-9,38.52,38.52,0,0,0-4.67-11.27,9.51,9.51,0,0,0-1.67-11.11,9.39,9.39,0,0,0-6.68-2.76,9.33,9.33,0,0,0-4.42,1.09,38.48,38.48,0,0,0-11.24-4.68,9.45,9.45,0,0,0-9-6.65,9.46,9.46,0,0,0-9,6.65,38.48,38.48,0,0,0-11.24,4.68,9.45,9.45,0,0,0-7.18-.69,1.41,1.41,0,0,0,.83,2.69,6.62,6.62,0,0,1,6.63,1.66,6.67,6.67,0,0,1,0,9.41,6.71,6.71,0,0,1-9.39,0,6.65,6.65,0,0,1-1.45-7.23,1.4,1.4,0,0,0-2.6-1.06,9.44,9.44,0,0,0,.39,8,38.52,38.52,0,0,0-4.67,11.27,9.45,9.45,0,0,0-6.64,9,9.48,9.48,0,0,0,6.64,9,38.57,38.57,0,0,0,4.67,11.26,9.5,9.5,0,0,0,1.67,11.11,9.53,9.53,0,0,0,11.1,1.68,37.85,37.85,0,0,0,4.31,2.29l-4.29,11.62a3.3,3.3,0,0,0,3.06,4.38h34.36a3.29,3.29,0,0,0,3-4.38l-4.28-11.62a37.85,37.85,0,0,0,4.31-2.29,9.4,9.4,0,0,0,4.4,1.09,9.46,9.46,0,0,0,2.91-.46,1.4,1.4,0,0,0-.86-2.67,6.6,6.6,0,0,1-6.73-1.62,6.67,6.67,0,0,1,0-9.41,6.7,6.7,0,0,1,9.39,0,6.66,6.66,0,0,1,1.48,7.17,1.4,1.4,0,0,0,2.6,1,9.43,9.43,0,0,0-.42-7.93,38.46,38.46,0,0,0,4.67-11.26A9.47,9.47,0,0,0-479.17-94.82Zm-2.81,0a6.66,6.66,0,0,1-6.64,6.66,6.66,6.66,0,0,1-6.64-6.66,6.66,6.66,0,0,1,6.64-6.65A6.66,6.66,0,0,1-482-94.82Zm-16-1.39h-11.86a13.64,13.64,0,0,0-3-7.31l8.39-8.4a9.54,9.54,0,0,0,7.46,1.67,31.13,31.13,0,0,1,3.14,7.57A9.44,9.44,0,0,0-498-96.21Zm-11.82,34.68c-1.43.53-2.82,1.07-4.3,1.47a9.58,9.58,0,0,0-.38-2.47,33.48,33.48,0,0,0,7.32-3,9.67,9.67,0,0,0,1.47,2A29,29,0,0,1-509.78-61.53Zm-31.59-2a9.67,9.67,0,0,0,1.47-2,33.48,33.48,0,0,0,7.32,3,9.58,9.58,0,0,0-.38,2.47A35.61,35.61,0,0,1-541.37-63.56Zm-13.35-13.38a36.1,36.1,0,0,1-3.5-8.42,9.44,9.44,0,0,0,2.46-.38,33.56,33.56,0,0,0,3,7.33A9.81,9.81,0,0,0-554.72-76.94Zm4.68-2.44a30.42,30.42,0,0,1-3.14-7.57,9.44,9.44,0,0,0,4.1-6.46h11.86a13.68,13.68,0,0,0,3,7.27l-8.4,8.41A9.58,9.58,0,0,0-550-79.38Zm25.12,10.17a9.38,9.38,0,0,0-6.45,4.11,31.19,31.19,0,0,1-7.57-3.16,9.46,9.46,0,0,0-1.68-7.49l8.4-8.39a13.61,13.61,0,0,0,7.3,3Zm1.4,2.7a6.65,6.65,0,0,1,6.64,6.65,6.65,6.65,0,0,1-6.64,6.65,6.65,6.65,0,0,1-6.64-6.65A6.65,6.65,0,0,1-523.52-66.51Zm15.42-1.75a30.86,30.86,0,0,1-7.56,3.15,9.44,9.44,0,0,0-6.46-4.1v-11.9a13.6,13.6,0,0,0,7.29-3l8.4,8.4A9.44,9.44,0,0,0-508.1-68.26Zm-15.42-15.58a11,11,0,0,1-11-11,11,11,0,0,1,11-11,11,11,0,0,1,11,11A11,11,0,0,1-523.52-83.84Zm-9.06-43.26a33,33,0,0,0-7.32,3,9.17,9.17,0,0,0-1.47-2,35.36,35.36,0,0,1,8.41-3.5A9.5,9.5,0,0,0-532.58-127.1Zm-6.36,5.73a30.39,30.39,0,0,1,7.57-3.15,9.41,9.41,0,0,0,6.45,4.11v11.89a13.75,13.75,0,0,0-7.29,3l-8.4-8.39A9.47,9.47,0,0,0-538.94-121.37Zm31.8-2.68a33,33,0,0,0-7.32-3,9.5,9.5,0,0,0,.38-2.46,35.36,35.36,0,0,1,8.41,3.5A9.42,9.42,0,0,0-507.14-124Zm-8.52-.47a30.48,30.48,0,0,1,7.56,3.15,9.49,9.49,0,0,0,1.66,7.46l-8.4,8.41a13.64,13.64,0,0,0-7.28-3v-11.89A9.46,9.46,0,0,0-515.66-124.52Zm23.34,11.83a35.07,35.07,0,0,1,3.49,8.43,8.65,8.65,0,0,0-2.45.38,33.64,33.64,0,0,0-3-7.34A9.45,9.45,0,0,0-492.32-112.69Zm-1.83-11.54a6.67,6.67,0,0,1,0,9.41,6.71,6.71,0,0,1-9.39,0,6.75,6.75,0,0,1,0-9.41A6.7,6.7,0,0,1-494.15-124.23Zm-29.37-12.19a6.66,6.66,0,0,1,6.64,6.66,6.66,6.66,0,0,1-6.64,6.65,6.66,6.66,0,0,1-6.64-6.65,6.58,6.58,0,0,1,.11-1.19,1.3,1.3,0,0,0,.07-.33A6.65,6.65,0,0,1-523.52-136.42Zm-19.08,24.51,8.41,8.4a13.69,13.69,0,0,0-3,7.3h-11.86a9.44,9.44,0,0,0-4.1-6.47,30.74,30.74,0,0,1,3.14-7.57A9.52,9.52,0,0,0-542.6-111.91Zm-10.12.69a33.64,33.64,0,0,0-3,7.34,8.65,8.65,0,0,0-2.45-.38,35.9,35.9,0,0,1,3.49-8.43A9.81,9.81,0,0,0-552.72-111.22Zm-12.34,16.4a6.74,6.74,0,0,1,6.64-6.65,6.65,6.65,0,0,1,6.64,6.65,6.65,6.65,0,0,1-6.64,6.66A6.66,6.66,0,0,1-565.06-94.82Zm16.86,31.38a6.61,6.61,0,0,1-4.69-2,6.67,6.67,0,0,1,0-9.41,6.7,6.7,0,0,1,9.39,0,6.67,6.67,0,0,1,0,9.41A6.76,6.76,0,0,1-548.2-63.44Zm42.28,16.59a.44.44,0,0,1-.42.6H-540.7a.45.45,0,0,1-.43-.6l4.26-11.52a37.31,37.31,0,0,0,4.33,1.31,9.47,9.47,0,0,0,9,6.66,9.46,9.46,0,0,0,9-6.66,38.69,38.69,0,0,0,4.34-1.31Zm1.48-30.87-8.4-8.4a13.6,13.6,0,0,0,3-7.29H-498a9.44,9.44,0,0,0,4.1,6.46A30.45,30.45,0,0,1-497-79.38a9.23,9.23,0,0,0-1.83-.18A9.37,9.37,0,0,0-504.44-77.72Zm10.12-.69a33.56,33.56,0,0,0,3-7.33,9.43,9.43,0,0,0,2.45.38,34.83,34.83,0,0,1-3.49,8.42A9.81,9.81,0,0,0-494.32-78.41Z"/></clipPath><clipPath id="clip-path-10"><path class="cls-2" d="M-800.06-40.89h-74.57a2.57,2.57,0,0,1-2.53-2.6v-5.44a2.57,2.57,0,0,1,2.53-2.6h28.57a6.67,6.67,0,0,1-.67-2.08,6.76,6.76,0,0,1,1.41-5.3l.92-1.13a7.13,7.13,0,0,0,1.46-5.57l-.39-2.43h-11.24a6,6,0,0,1-5.89-6.15.94.94,0,0,0-.38-.78l-2.37-1.67a2.64,2.64,0,0,1-1-2.9,2.53,2.53,0,0,1,2.43-1.86h19.32v-2.93h-6.47a6,6,0,0,1-5.88-6.15,1,1,0,0,0-.39-.79l-2.37-1.67a2.63,2.63,0,0,1-1-2.89,2.53,2.53,0,0,1,2.43-1.87h13.67v-1.47a10.17,10.17,0,0,0-5.71-9.28l-.72-.34v-2.49h23.07v2.49l-.72.34a10.16,10.16,0,0,0-5.7,9.28v1.47h13.67a2.55,2.55,0,0,1,2.43,1.88,2.63,2.63,0,0,1-1,2.88l-2.37,1.67a1,1,0,0,0-.39.79,6,6,0,0,1-5.88,6.15h-6.46v2.93h19.31a2.57,2.57,0,0,1,2.44,1.87,2.65,2.65,0,0,1-1,2.89L-813.85-75a1,1,0,0,0-.39.79A6,6,0,0,1-820.12-68h-11.25l-.38,2.43A7.05,7.05,0,0,0-830.28-60l.91,1.13a6.8,6.8,0,0,1,1.41,5.3,6.52,6.52,0,0,1-.68,2.08h28.58a2.57,2.57,0,0,1,2.53,2.6v5.44A2.57,2.57,0,0,1-800.06-40.89ZM-874.63-49a.14.14,0,0,0,0,.1v5.44c0,.07,0,.1,0,.1h74.56a.14.14,0,0,0,0-.1v-5.44a.14.14,0,0,0,0-.1h-35.07l3.1-2.26a4.11,4.11,0,0,0,1.6-2.7,4.25,4.25,0,0,0-.88-3.35l-.91-1.12a9.55,9.55,0,0,1-2-7.54l.72-4.54h13.38a3.53,3.53,0,0,0,3.38-3.65A3.44,3.44,0,0,1-815.28-77l2.36-1.67a.16.16,0,0,0,0-.15l-21.84-.06v-7.93h9a3.53,3.53,0,0,0,3.38-3.65,3.44,3.44,0,0,1,1.46-2.84l2.36-1.66a.17.17,0,0,0,0-.15l-16.19-.07v-4a12.92,12.92,0,0,1,4.21-9.61h-13.65a12.93,12.93,0,0,1,4.22,9.61v4h-16.17c0,.13,0,.2,0,.22l2.36,1.66a3.49,3.49,0,0,1,1.45,2.84,3.53,3.53,0,0,0,3.38,3.65h9v7.93h-21.82c-.05.13,0,.19,0,.22L-859.4-77A3.45,3.45,0,0,1-858-74.19a3.54,3.54,0,0,0,3.39,3.65h13.38l.72,4.54a9.64,9.64,0,0,1-2,7.54l-.92,1.13a4.22,4.22,0,0,0-.88,3.34,4.07,4.07,0,0,0,1.6,2.7l3.07,2.26Z"/></clipPath><clipPath id="clip-path-11"><path class="cls-1" d="M-869.73-82.11a2.82,2.82,0,0,1,2.82-2.82,5.64,5.64,0,0,0,5.63-5.63v-7a2.81,2.81,0,0,1,2.81-2.81H-850v-2.81h-8.45a5.63,5.63,0,0,0-5.63,5.62v7a2.82,2.82,0,0,1-2.81,2.82,5.64,5.64,0,0,0-5.64,5.63V-62.4h2.82Z"/></clipPath><clipPath id="clip-path-12"><path class="cls-2" d="M-837.34-113.7a2.15,2.15,0,0,1-1.86-1l-3.2-5.33a2.15,2.15,0,0,1,.33-2.64l3.2-3.2a2.2,2.2,0,0,1,3,0l3.2,3.2a2.15,2.15,0,0,1,.33,2.64l-3.2,5.33A2.17,2.17,0,0,1-837.34-113.7Zm0-2.19h0Zm0-8.47-3.15,3.2,3.17,5.23,3.17-5.28Z"/></clipPath><clipPath id="clip-path-13"><path class="cls-1" d="M-824.67-103.23v2.82h8.44a2.81,2.81,0,0,1,2.82,2.81v7a5.64,5.64,0,0,0,5.63,5.64A2.81,2.81,0,0,1-805-82.11v19.72h2.82V-82.11a5.64,5.64,0,0,0-5.64-5.63,2.81,2.81,0,0,1-2.81-2.82v-7a5.64,5.64,0,0,0-5.64-5.63Z"/></clipPath><clipPath id="clip-path-14"><path class="cls-1" d="M-819-113.09h2.82a8.46,8.46,0,0,0-8.45-8.44h-2.82v2.82h2.82a5.63,5.63,0,0,1,5.63,5.62"/></clipPath><clipPath id="clip-path-15"><path class="cls-1" d="M-850-118.72h2.82v-2.82H-850a8.46,8.46,0,0,0-8.44,8.45h2.81a5.64,5.64,0,0,1,5.63-5.63"/></clipPath><clipPath id="clip-path-16"><path class="cls-1" d="M-370.18-54.2a4.36,4.36,0,0,1-3.1,1.26,4.37,4.37,0,0,1-3.11-1.26,7.5,7.5,0,0,0-5-1.9,7.43,7.43,0,0,0-5,1.9,4.39,4.39,0,0,1-3.11,1.26,4.36,4.36,0,0,1-3.1-1.26,7.47,7.47,0,0,0-5-1.9,7.45,7.45,0,0,0-5,1.9,4.39,4.39,0,0,1-3.11,1.26,3.89,3.89,0,0,1-1.81-.39V-95.46h22v3.15h3.15v-3.15h1.58a3.15,3.15,0,0,0,3.15-3.14v-3.16a3.16,3.16,0,0,0-3.15-3.15H-381a29.92,29.92,0,0,0-28.26-28.26v-1.65a4.73,4.73,0,0,0-4.73-4.73,4.73,4.73,0,0,0-4.72,4.73v1.65a29.91,29.91,0,0,0-28.26,28.26H-447a3.16,3.16,0,0,0-3.15,3.15v3.16A3.15,3.15,0,0,0-447-95.46h1.57v3.15h3.15v-3.15h22.05v42.1a4,4,0,0,1-1.87.42,4.34,4.34,0,0,1-3.1-1.26,7.47,7.47,0,0,0-5-1.9,7.43,7.43,0,0,0-5,1.9,4.39,4.39,0,0,1-3.11,1.26,4.37,4.37,0,0,1-3.09-1.25,7.42,7.42,0,0,0-5-1.91,7.45,7.45,0,0,0-5,1.9,4.36,4.36,0,0,1-3.1,1.26,4.34,4.34,0,0,1-3.1-1.26,7.45,7.45,0,0,0-5-1.9v3.16a4.39,4.39,0,0,1,3.1,1.24,7.47,7.47,0,0,0,5,1.9,7.37,7.37,0,0,0,5-1.9,4.43,4.43,0,0,1,3.11-1.24,4.41,4.41,0,0,1,3.1,1.24,7.37,7.37,0,0,0,5,1.9,7.38,7.38,0,0,0,5-1.9,4.42,4.42,0,0,1,3.11-1.24,4.41,4.41,0,0,1,3.1,1.24,7.42,7.42,0,0,0,5,1.9,7.38,7.38,0,0,0,5-1.9A4.42,4.42,0,0,1-414-52.94a4.39,4.39,0,0,1,3.1,1.24,7.42,7.42,0,0,0,5,1.9,7.4,7.4,0,0,0,5-1.9,4.42,4.42,0,0,1,3.11-1.24,4.39,4.39,0,0,1,3.1,1.24,7.42,7.42,0,0,0,5,1.9,7.43,7.43,0,0,0,5-1.9,4.37,4.37,0,0,1,3.1-1.24,4.4,4.4,0,0,1,3.11,1.24,7.43,7.43,0,0,0,5,1.9,7.4,7.4,0,0,0,5-1.9,4.42,4.42,0,0,1,3.11-1.24V-56.1A7.5,7.5,0,0,0-370.18-54.2Zm-43.77-82.2a1.58,1.58,0,0,1,1.58,1.58v1.57h-3.15v-1.57A1.58,1.58,0,0,1-413.95-136.4Zm-4.32,6.36a37.09,37.09,0,0,0-8.33,11.91l2.88,1.26a33.91,33.91,0,0,1,9.77-12.78,33.55,33.55,0,0,1,12.55,24.74h-25.08a34,34,0,0,1,1.61-9l-3-1a36.5,36.5,0,0,0-1.78,9.93h-14.16A26.77,26.77,0,0,1-418.27-130ZM-447-101.76h53.53v-3.15h-4.77A36.63,36.63,0,0,0-409.61-130a26.77,26.77,0,0,1,25.5,25.13h-6.22v3.15h9.45v3.16H-447Zm33,45.66a7.17,7.17,0,0,0-3.13.66v-40h6.3v40.05A7,7,0,0,0-414-56.1Z"/></clipPath><clipPath id="clip-path-17"><path class="cls-1" d="M-373.28-45.07a4.4,4.4,0,0,1-3.11-1.25,7.43,7.43,0,0,0-5-1.91,7.38,7.38,0,0,0-5,1.91,4.42,4.42,0,0,1-3.11,1.25,4.4,4.4,0,0,1-3.1-1.25,7.42,7.42,0,0,0-5-1.91,7.45,7.45,0,0,0-5,1.91,4.38,4.38,0,0,1-3.1,1.25,4.4,4.4,0,0,1-3.1-1.25,7.43,7.43,0,0,0-5-1.91,7.39,7.39,0,0,0-5,1.91,4.44,4.44,0,0,1-3.11,1.25,4.4,4.4,0,0,1-3.1-1.25,7.42,7.42,0,0,0-5-1.91,7.43,7.43,0,0,0-5,1.91,4.37,4.37,0,0,1-3.09,1.25,4.38,4.38,0,0,1-3.1-1.25,7.42,7.42,0,0,0-5-1.91,7.38,7.38,0,0,0-5,1.91,4.4,4.4,0,0,1-3.1,1.25,4.38,4.38,0,0,1-3.1-1.25,7.42,7.42,0,0,0-5-1.91v3.16a4.37,4.37,0,0,1,3.1,1.24,7.42,7.42,0,0,0,5,1.9,7.42,7.42,0,0,0,5-1.9,4.39,4.39,0,0,1,3.1-1.24,4.39,4.39,0,0,1,3.1,1.24,7.38,7.38,0,0,0,5,1.9,7.42,7.42,0,0,0,5-1.9,4.39,4.39,0,0,1,3.1-1.24,4.39,4.39,0,0,1,3.1,1.24,7.4,7.4,0,0,0,5,1.9,7.4,7.4,0,0,0,5-1.9,4.39,4.39,0,0,1,3.1-1.24,4.42,4.42,0,0,1,3.11,1.24,7.42,7.42,0,0,0,5,1.9,7.45,7.45,0,0,0,5-1.9,4.37,4.37,0,0,1,3.1-1.24,4.39,4.39,0,0,1,3.1,1.24,7.42,7.42,0,0,0,5,1.9,7.42,7.42,0,0,0,5-1.9,4.42,4.42,0,0,1,3.11-1.24,4.42,4.42,0,0,1,3.11,1.24,7.43,7.43,0,0,0,5,1.9,7.42,7.42,0,0,0,5-1.9,4.42,4.42,0,0,1,3.11-1.24v-3.16a7.4,7.4,0,0,0-5,1.91,4.44,4.44,0,0,1-3.11,1.25"/></clipPath><clipPath id="clip-path-18"><path class="cls-1" d="M-404.5-64a4.73,4.73,0,0,0,4.72,4.73A4.73,4.73,0,0,0-395-64v-3.15h-3.16V-64a1.57,1.57,0,0,1-1.57,1.57A1.57,1.57,0,0,1-401.35-64V-86h-3.15Z"/></clipPath><clipPath id="clip-path-19"><path class="cls-1" d="M-382.46-75v-7.87h-3.15V-75a1.57,1.57,0,0,1-1.57,1.57A1.58,1.58,0,0,1-388.76-75v-12.6a4.72,4.72,0,0,0-4.72-4.72,4.74,4.74,0,0,0-4.73,4.72v4.73H-395v-4.73a1.57,1.57,0,0,1,1.57-1.57,1.57,1.57,0,0,1,1.57,1.57V-75a4.73,4.73,0,0,0,4.73,4.72A4.72,4.72,0,0,0-382.46-75"/></clipPath><clipPath id="clip-path-20"><path class="cls-1" d="M-426.54-64a1.57,1.57,0,0,1-1.58,1.57A1.57,1.57,0,0,1-429.7-64v-3.15h-3.14V-64a4.73,4.73,0,0,0,4.72,4.73A4.74,4.74,0,0,0-423.39-64V-86h-3.15Z"/></clipPath><clipPath id="clip-path-21"><path class="cls-1" d="M-445.44-75a4.72,4.72,0,0,0,4.73,4.72A4.72,4.72,0,0,0-436-75v-12.6a1.57,1.57,0,0,1,1.58-1.57,1.58,1.58,0,0,1,1.57,1.57v4.73h3.15v-4.73a4.73,4.73,0,0,0-4.72-4.72,4.73,4.73,0,0,0-4.73,4.72V-75a1.58,1.58,0,0,1-1.57,1.57A1.57,1.57,0,0,1-442.28-75v-7.87h-3.16Z"/></clipPath><clipPath id="clip-path-22"><path class="cls-1" d="M-454.88-64a18,18,0,0,1,5.64.91l4.95,1.66L-446.94-68a8.52,8.52,0,0,0-7.94-5.38,4.74,4.74,0,0,0-4.73,4.73A4.73,4.73,0,0,0-454.88-64m0-6.3a5.37,5.37,0,0,1,5,3.4l.16.4a20.92,20.92,0,0,0-5.17-.64,1.59,1.59,0,0,1-1.58-1.58,1.58,1.58,0,0,1,1.58-1.58"/></clipPath><clipPath id="clip-path-23"><path class="cls-1" d="M-380.95-68l-2.66,6.64,5-1.66A18,18,0,0,1-373-64a4.73,4.73,0,0,0,4.72-4.72A4.74,4.74,0,0,0-373-73.42,8.51,8.51,0,0,0-380.95-68Zm2.92,1.17a5.37,5.37,0,0,1,5-3.4,1.57,1.57,0,0,1,1.57,1.58A1.57,1.57,0,0,1-373-67.12a21,21,0,0,0-5.18.65Z"/></clipPath></defs><path class="cls-3" d="M-295.06-45.34h15.91v-9.95h-15.91Zm17.9,4H-297a2,2,0,0,1-2-2V-57.28a2,2,0,0,1,2-2h19.89a2,2,0,0,1,2,2v13.93A2,2,0,0,1-277.16-41.36Z"/><g class="cls-4"><rect class="cls-2" x="-1563.6" y="-3837.99" width="5804.01" height="4970.61"/></g><path class="cls-3" d="M-305-45.34h35.8v-87.52H-305Zm37.8,4H-307a2,2,0,0,1-2-2v-91.5a2,2,0,0,1,2-2h39.79a2,2,0,0,1,2,2v91.5A2,2,0,0,1-267.21-41.36Z"/><g class="cls-5"><rect class="cls-2" x="-1563.6" y="-3837.99" width="5804.01" height="4964.66"/></g><path class="cls-3" d="M-320.92-45.34H-309V-124.9h-11.93Zm13.92,4h-15.91a2,2,0,0,1-2-2v-83.54a2,2,0,0,1,2-2H-307a2,2,0,0,1,2,2v83.54A2,2,0,0,1-307-41.36Z"/><g class="cls-6"><rect class="cls-2" x="-1563.6" y="-3837.99" width="5804.01" height="4964.66"/></g><path class="cls-3" d="M-265.23-45.34h11.93V-124.9h-11.93Zm13.93,4h-15.92a2,2,0,0,1-2-2v-83.54a2,2,0,0,1,2-2h15.92a2,2,0,0,1,2,2v83.54A2,2,0,0,1-251.3-41.36Z"/><g class="cls-7"><rect class="cls-2" x="-1563.6" y="-3837.99" width="5804.01" height="4964.66"/></g><rect class="cls-2" x="-338.82" y="-85.12" width="3.98" height="19.89" transform="translate(-74.52 -299.45) rotate(-53.11)"/><g class="cls-8"><rect class="cls-2" x="-1563.6" y="-3837.99" width="5804.01" height="4964.66"/></g><rect class="cls-2" x="-346.78" y="-77.17" width="19.89" height="3.98" transform="translate(-22.28 -217.18) rotate(-36.88)"/><g class="cls-9"><rect class="cls-2" x="-1563.6" y="-3837.99" width="5804.01" height="4964.66"/></g><rect class="cls-2" x="-239.37" y="-85.12" width="3.97" height="19.89" transform="translate(-34.78 -219.93) rotate(-53.12)"/><g class="cls-10"><rect class="cls-2" x="-1563.6" y="-3837.99" width="5804.01" height="4964.66"/></g><rect class="cls-2" x="-247.33" y="-77.16" width="19.89" height="3.97" transform="translate(-2.34 -157.37) rotate(-36.85)"/><g class="cls-11"><rect class="cls-2" x="-1563.6" y="-3837.99" width="5804.01" height="4964.66"/></g><path class="cls-3" d="M-479.17-94.82a9.46,9.46,0,0,0-6.65-9,38.52,38.52,0,0,0-4.67-11.27,9.51,9.51,0,0,0-1.67-11.11,9.39,9.39,0,0,0-6.68-2.76,9.33,9.33,0,0,0-4.42,1.09,38.48,38.48,0,0,0-11.24-4.68,9.45,9.45,0,0,0-9-6.65,9.46,9.46,0,0,0-9,6.65,38.48,38.48,0,0,0-11.24,4.68,9.45,9.45,0,0,0-7.18-.69,1.41,1.41,0,0,0,.83,2.69,6.62,6.62,0,0,1,6.63,1.66,6.67,6.67,0,0,1,0,9.41,6.71,6.71,0,0,1-9.39,0,6.65,6.65,0,0,1-1.45-7.23,1.4,1.4,0,0,0-2.6-1.06,9.44,9.44,0,0,0,.39,8,38.52,38.52,0,0,0-4.67,11.27,9.45,9.45,0,0,0-6.64,9,9.48,9.48,0,0,0,6.64,9,38.57,38.57,0,0,0,4.67,11.26,9.5,9.5,0,0,0,1.67,11.11,9.53,9.53,0,0,0,11.1,1.68,37.85,37.85,0,0,0,4.31,2.29l-4.29,11.62a3.3,3.3,0,0,0,3.06,4.38h34.36a3.29,3.29,0,0,0,3-4.38l-4.28-11.62a37.85,37.85,0,0,0,4.31-2.29,9.4,9.4,0,0,0,4.4,1.09,9.46,9.46,0,0,0,2.91-.46,1.4,1.4,0,0,0-.86-2.67,6.6,6.6,0,0,1-6.73-1.62,6.67,6.67,0,0,1,0-9.41,6.7,6.7,0,0,1,9.39,0,6.66,6.66,0,0,1,1.48,7.17,1.4,1.4,0,0,0,2.6,1,9.43,9.43,0,0,0-.42-7.93,38.46,38.46,0,0,0,4.67-11.26A9.47,9.47,0,0,0-479.17-94.82Zm-2.81,0a6.66,6.66,0,0,1-6.64,6.66,6.66,6.66,0,0,1-6.64-6.66,6.66,6.66,0,0,1,6.64-6.65A6.66,6.66,0,0,1-482-94.82Zm-16-1.39h-11.86a13.64,13.64,0,0,0-3-7.31l8.39-8.4a9.54,9.54,0,0,0,7.46,1.67,31.13,31.13,0,0,1,3.14,7.57A9.44,9.44,0,0,0-498-96.21Zm-11.82,34.68c-1.43.53-2.82,1.07-4.3,1.47a9.58,9.58,0,0,0-.38-2.47,33.48,33.48,0,0,0,7.32-3,9.67,9.67,0,0,0,1.47,2A29,29,0,0,1-509.78-61.53Zm-31.59-2a9.67,9.67,0,0,0,1.47-2,33.48,33.48,0,0,0,7.32,3,9.58,9.58,0,0,0-.38,2.47A35.61,35.61,0,0,1-541.37-63.56Zm-13.35-13.38a36.1,36.1,0,0,1-3.5-8.42,9.44,9.44,0,0,0,2.46-.38,33.56,33.56,0,0,0,3,7.33A9.81,9.81,0,0,0-554.72-76.94Zm4.68-2.44a30.42,30.42,0,0,1-3.14-7.57,9.44,9.44,0,0,0,4.1-6.46h11.86a13.68,13.68,0,0,0,3,7.27l-8.4,8.41A9.58,9.58,0,0,0-550-79.38Zm25.12,10.17a9.38,9.38,0,0,0-6.45,4.11,31.19,31.19,0,0,1-7.57-3.16,9.46,9.46,0,0,0-1.68-7.49l8.4-8.39a13.61,13.61,0,0,0,7.3,3Zm1.4,2.7a6.65,6.65,0,0,1,6.64,6.65,6.65,6.65,0,0,1-6.64,6.65,6.65,6.65,0,0,1-6.64-6.65A6.65,6.65,0,0,1-523.52-66.51Zm15.42-1.75a30.86,30.86,0,0,1-7.56,3.15,9.44,9.44,0,0,0-6.46-4.1v-11.9a13.6,13.6,0,0,0,7.29-3l8.4,8.4A9.44,9.44,0,0,0-508.1-68.26Zm-15.42-15.58a11,11,0,0,1-11-11,11,11,0,0,1,11-11,11,11,0,0,1,11,11A11,11,0,0,1-523.52-83.84Zm-9.06-43.26a33,33,0,0,0-7.32,3,9.17,9.17,0,0,0-1.47-2,35.36,35.36,0,0,1,8.41-3.5A9.5,9.5,0,0,0-532.58-127.1Zm-6.36,5.73a30.39,30.39,0,0,1,7.57-3.15,9.41,9.41,0,0,0,6.45,4.11v11.89a13.75,13.75,0,0,0-7.29,3l-8.4-8.39A9.47,9.47,0,0,0-538.94-121.37Zm31.8-2.68a33,33,0,0,0-7.32-3,9.5,9.5,0,0,0,.38-2.46,35.36,35.36,0,0,1,8.41,3.5A9.42,9.42,0,0,0-507.14-124Zm-8.52-.47a30.48,30.48,0,0,1,7.56,3.15,9.49,9.49,0,0,0,1.66,7.46l-8.4,8.41a13.64,13.64,0,0,0-7.28-3v-11.89A9.46,9.46,0,0,0-515.66-124.52Zm23.34,11.83a35.07,35.07,0,0,1,3.49,8.43,8.65,8.65,0,0,0-2.45.38,33.64,33.64,0,0,0-3-7.34A9.45,9.45,0,0,0-492.32-112.69Zm-1.83-11.54a6.67,6.67,0,0,1,0,9.41,6.71,6.71,0,0,1-9.39,0,6.75,6.75,0,0,1,0-9.41A6.7,6.7,0,0,1-494.15-124.23Zm-29.37-12.19a6.66,6.66,0,0,1,6.64,6.66,6.66,6.66,0,0,1-6.64,6.65,6.66,6.66,0,0,1-6.64-6.65,6.58,6.58,0,0,1,.11-1.19,1.3,1.3,0,0,0,.07-.33A6.65,6.65,0,0,1-523.52-136.42Zm-19.08,24.51,8.41,8.4a13.69,13.69,0,0,0-3,7.3h-11.86a9.44,9.44,0,0,0-4.1-6.47,30.74,30.74,0,0,1,3.14-7.57A9.52,9.52,0,0,0-542.6-111.91Zm-10.12.69a33.64,33.64,0,0,0-3,7.34,8.65,8.65,0,0,0-2.45-.38,35.9,35.9,0,0,1,3.49-8.43A9.81,9.81,0,0,0-552.72-111.22Zm-12.34,16.4a6.74,6.74,0,0,1,6.64-6.65,6.65,6.65,0,0,1,6.64,6.65,6.65,6.65,0,0,1-6.64,6.66A6.66,6.66,0,0,1-565.06-94.82Zm16.86,31.38a6.61,6.61,0,0,1-4.69-2,6.67,6.67,0,0,1,0-9.41,6.7,6.7,0,0,1,9.39,0,6.67,6.67,0,0,1,0,9.41A6.76,6.76,0,0,1-548.2-63.44Zm42.28,16.59a.44.44,0,0,1-.42.6H-540.7a.45.45,0,0,1-.43-.6l4.26-11.52a37.31,37.31,0,0,0,4.33,1.31,9.47,9.47,0,0,0,9,6.66,9.46,9.46,0,0,0,9-6.66,38.69,38.69,0,0,0,4.34-1.31Zm1.48-30.87-8.4-8.4a13.6,13.6,0,0,0,3-7.29H-498a9.44,9.44,0,0,0,4.1,6.46A30.45,30.45,0,0,1-497-79.38a9.23,9.23,0,0,0-1.83-.18A9.37,9.37,0,0,0-504.44-77.72Zm10.12-.69a33.56,33.56,0,0,0,3-7.33,9.43,9.43,0,0,0,2.45.38,34.83,34.83,0,0,1-3.49,8.42A9.81,9.81,0,0,0-494.32-78.41Z"/><g class="cls-12"><rect class="cls-2" x="-5087.84" y="-2354.59" width="5391.41" height="4611.73"/></g><path class="cls-2" d="M-800.06-40.89h-74.57a2.57,2.57,0,0,1-2.53-2.6v-5.44a2.57,2.57,0,0,1,2.53-2.6h28.57a6.67,6.67,0,0,1-.67-2.08,6.76,6.76,0,0,1,1.41-5.3l.92-1.13a7.13,7.13,0,0,0,1.46-5.57l-.39-2.43h-11.24a6,6,0,0,1-5.89-6.15.94.94,0,0,0-.38-.78l-2.37-1.67a2.64,2.64,0,0,1-1-2.9,2.53,2.53,0,0,1,2.43-1.86h19.32v-2.93h-6.47a6,6,0,0,1-5.88-6.15,1,1,0,0,0-.39-.79l-2.37-1.67a2.63,2.63,0,0,1-1-2.89,2.53,2.53,0,0,1,2.43-1.87h13.67v-1.47a10.17,10.17,0,0,0-5.71-9.28l-.72-.34v-2.49h23.07v2.49l-.72.34a10.16,10.16,0,0,0-5.7,9.28v1.47h13.67a2.55,2.55,0,0,1,2.43,1.88,2.63,2.63,0,0,1-1,2.88l-2.37,1.67a1,1,0,0,0-.39.79,6,6,0,0,1-5.88,6.15h-6.46v2.93h19.31a2.57,2.57,0,0,1,2.44,1.87,2.65,2.65,0,0,1-1,2.89L-813.85-75a1,1,0,0,0-.39.79A6,6,0,0,1-820.12-68h-11.25l-.38,2.43A7.05,7.05,0,0,0-830.28-60l.91,1.13a6.8,6.8,0,0,1,1.41,5.3,6.52,6.52,0,0,1-.68,2.08h28.58a2.57,2.57,0,0,1,2.53,2.6v5.44A2.57,2.57,0,0,1-800.06-40.89ZM-874.63-49a.14.14,0,0,0,0,.1v5.44c0,.07,0,.1,0,.1h74.56a.14.14,0,0,0,0-.1v-5.44a.14.14,0,0,0,0-.1h-35.07l3.1-2.26a4.11,4.11,0,0,0,1.6-2.7,4.25,4.25,0,0,0-.88-3.35l-.91-1.12a9.55,9.55,0,0,1-2-7.54l.72-4.54h13.38a3.53,3.53,0,0,0,3.38-3.65A3.44,3.44,0,0,1-815.28-77l2.36-1.67a.16.16,0,0,0,0-.15l-21.84-.06v-7.93h9a3.53,3.53,0,0,0,3.38-3.65,3.44,3.44,0,0,1,1.46-2.84l2.36-1.66a.17.17,0,0,0,0-.15l-16.19-.07v-4a12.92,12.92,0,0,1,4.21-9.61h-13.65a12.93,12.93,0,0,1,4.22,9.61v4h-16.17c0,.13,0,.2,0,.22l2.36,1.66a3.49,3.49,0,0,1,1.45,2.84,3.53,3.53,0,0,0,3.38,3.65h9v7.93h-21.82c-.05.13,0,.19,0,.22L-859.4-77A3.45,3.45,0,0,1-858-74.19a3.54,3.54,0,0,0,3.39,3.65h13.38l.72,4.54a9.64,9.64,0,0,1-2,7.54l-.92,1.13a4.22,4.22,0,0,0-.88,3.34,4.07,4.07,0,0,0,1.6,2.7l3.07,2.26Z"/><g class="cls-13"><path class="cls-2" d="M1585.59,1743H-3291.76V-2663.26H1585.59Zm-4874.35-3H1582.59V-2660.26H-3288.76Z"/></g><path class="cls-3" d="M-869.73-82.11a2.82,2.82,0,0,1,2.82-2.82,5.64,5.64,0,0,0,5.63-5.63v-7a2.81,2.81,0,0,1,2.81-2.81H-850v-2.81h-8.45a5.63,5.63,0,0,0-5.63,5.62v7a2.82,2.82,0,0,1-2.81,2.82,5.64,5.64,0,0,0-5.64,5.63V-62.4h2.82Z"/><g class="cls-14"><rect class="cls-2" x="-3523.59" y="-2759.16" width="5338.01" height="4566.05"/></g><path class="cls-2" d="M-837.34-113.7a2.15,2.15,0,0,1-1.86-1l-3.2-5.33a2.15,2.15,0,0,1,.33-2.64l3.2-3.2a2.2,2.2,0,0,1,3,0l3.2,3.2a2.15,2.15,0,0,1,.33,2.64l-3.2,5.33A2.17,2.17,0,0,1-837.34-113.7Zm0-2.19h0Zm0-8.47-3.15,3.2,3.17,5.23,3.17-5.28Z"/><g class="cls-15"><path class="cls-2" d="M1169.77,1338.73H-2870.55V-2117.61H1169.77Zm-4038.12-2.2H1167.57V-2115.41H-2868.35Z"/></g><path class="cls-3" d="M-824.67-103.23v2.82h8.44a2.81,2.81,0,0,1,2.82,2.81v7a5.64,5.64,0,0,0,5.63,5.64A2.81,2.81,0,0,1-805-82.11v19.72h2.82V-82.11a5.64,5.64,0,0,0-5.64-5.63,2.81,2.81,0,0,1-2.81-2.82v-7a5.64,5.64,0,0,0-5.64-5.63Z"/><g class="cls-16"><rect class="cls-2" x="-3523.59" y="-2759.16" width="5338.01" height="4566.05"/></g><path class="cls-3" d="M-819-113.09h2.82a8.46,8.46,0,0,0-8.45-8.44h-2.82v2.82h2.82a5.63,5.63,0,0,1,5.63,5.62"/><g class="cls-17"><rect class="cls-2" x="-3523.59" y="-2759.16" width="5338.01" height="4566.05"/></g><path class="cls-3" d="M-850-118.72h2.82v-2.82H-850a8.46,8.46,0,0,0-8.44,8.45h2.81a5.64,5.64,0,0,1,5.63-5.63"/><g class="cls-18"><rect class="cls-2" x="-3523.59" y="-2759.16" width="5338.01" height="4566.05"/></g><path class="cls-3" d="M-370.18-54.2a4.36,4.36,0,0,1-3.1,1.26,4.37,4.37,0,0,1-3.11-1.26,7.5,7.5,0,0,0-5-1.9,7.43,7.43,0,0,0-5,1.9,4.39,4.39,0,0,1-3.11,1.26,4.36,4.36,0,0,1-3.1-1.26,7.47,7.47,0,0,0-5-1.9,7.45,7.45,0,0,0-5,1.9,4.39,4.39,0,0,1-3.11,1.26,3.89,3.89,0,0,1-1.81-.39V-95.46h22v3.15h3.15v-3.15h1.58a3.15,3.15,0,0,0,3.15-3.14v-3.16a3.16,3.16,0,0,0-3.15-3.15H-381a29.92,29.92,0,0,0-28.26-28.26v-1.65a4.73,4.73,0,0,0-4.73-4.73,4.73,4.73,0,0,0-4.72,4.73v1.65a29.91,29.91,0,0,0-28.26,28.26H-447a3.16,3.16,0,0,0-3.15,3.15v3.16A3.15,3.15,0,0,0-447-95.46h1.57v3.15h3.15v-3.15h22.05v42.1a4,4,0,0,1-1.87.42,4.34,4.34,0,0,1-3.1-1.26,7.47,7.47,0,0,0-5-1.9,7.43,7.43,0,0,0-5,1.9,4.39,4.39,0,0,1-3.11,1.26,4.37,4.37,0,0,1-3.09-1.25,7.42,7.42,0,0,0-5-1.91,7.45,7.45,0,0,0-5,1.9,4.36,4.36,0,0,1-3.1,1.26,4.34,4.34,0,0,1-3.1-1.26,7.45,7.45,0,0,0-5-1.9v3.16a4.39,4.39,0,0,1,3.1,1.24,7.47,7.47,0,0,0,5,1.9,7.37,7.37,0,0,0,5-1.9,4.43,4.43,0,0,1,3.11-1.24,4.41,4.41,0,0,1,3.1,1.24,7.37,7.37,0,0,0,5,1.9,7.38,7.38,0,0,0,5-1.9,4.42,4.42,0,0,1,3.11-1.24,4.41,4.41,0,0,1,3.1,1.24,7.42,7.42,0,0,0,5,1.9,7.38,7.38,0,0,0,5-1.9A4.42,4.42,0,0,1-414-52.94a4.39,4.39,0,0,1,3.1,1.24,7.42,7.42,0,0,0,5,1.9,7.4,7.4,0,0,0,5-1.9,4.42,4.42,0,0,1,3.11-1.24,4.39,4.39,0,0,1,3.1,1.24,7.42,7.42,0,0,0,5,1.9,7.43,7.43,0,0,0,5-1.9,4.37,4.37,0,0,1,3.1-1.24,4.4,4.4,0,0,1,3.11,1.24,7.43,7.43,0,0,0,5,1.9,7.4,7.4,0,0,0,5-1.9,4.42,4.42,0,0,1,3.11-1.24V-56.1A7.5,7.5,0,0,0-370.18-54.2Zm-43.77-82.2a1.58,1.58,0,0,1,1.58,1.58v1.57h-3.15v-1.57A1.58,1.58,0,0,1-413.95-136.4Zm-4.32,6.36a37.09,37.09,0,0,0-8.33,11.91l2.88,1.26a33.91,33.91,0,0,1,9.77-12.78,33.55,33.55,0,0,1,12.55,24.74h-25.08a34,34,0,0,1,1.61-9l-3-1a36.5,36.5,0,0,0-1.78,9.93h-14.16A26.77,26.77,0,0,1-418.27-130ZM-447-101.76h53.53v-3.15h-4.77A36.63,36.63,0,0,0-409.61-130a26.77,26.77,0,0,1,25.5,25.13h-6.22v3.15h9.45v3.16H-447Zm33,45.66a7.17,7.17,0,0,0-3.13.66v-40h6.3v40.05A7,7,0,0,0-414-56.1Z"/><g class="cls-19"><rect class="cls-2" x="-3210.78" y="-2541.53" width="5224.37" height="4468.85"/></g><path class="cls-3" d="M-373.28-45.07a4.4,4.4,0,0,1-3.11-1.25,7.43,7.43,0,0,0-5-1.91,7.38,7.38,0,0,0-5,1.91,4.42,4.42,0,0,1-3.11,1.25,4.4,4.4,0,0,1-3.1-1.25,7.42,7.42,0,0,0-5-1.91,7.45,7.45,0,0,0-5,1.91,4.38,4.38,0,0,1-3.1,1.25,4.4,4.4,0,0,1-3.1-1.25,7.43,7.43,0,0,0-5-1.91,7.39,7.39,0,0,0-5,1.91,4.44,4.44,0,0,1-3.11,1.25,4.4,4.4,0,0,1-3.1-1.25,7.42,7.42,0,0,0-5-1.91,7.43,7.43,0,0,0-5,1.91,4.37,4.37,0,0,1-3.09,1.25,4.38,4.38,0,0,1-3.1-1.25,7.42,7.42,0,0,0-5-1.91,7.38,7.38,0,0,0-5,1.91,4.4,4.4,0,0,1-3.1,1.25,4.38,4.38,0,0,1-3.1-1.25,7.42,7.42,0,0,0-5-1.91v3.16a4.37,4.37,0,0,1,3.1,1.24,7.42,7.42,0,0,0,5,1.9,7.42,7.42,0,0,0,5-1.9,4.39,4.39,0,0,1,3.1-1.24,4.39,4.39,0,0,1,3.1,1.24,7.38,7.38,0,0,0,5,1.9,7.42,7.42,0,0,0,5-1.9,4.39,4.39,0,0,1,3.1-1.24,4.39,4.39,0,0,1,3.1,1.24,7.4,7.4,0,0,0,5,1.9,7.4,7.4,0,0,0,5-1.9,4.39,4.39,0,0,1,3.1-1.24,4.42,4.42,0,0,1,3.11,1.24,7.42,7.42,0,0,0,5,1.9,7.45,7.45,0,0,0,5-1.9,4.37,4.37,0,0,1,3.1-1.24,4.39,4.39,0,0,1,3.1,1.24,7.42,7.42,0,0,0,5,1.9,7.42,7.42,0,0,0,5-1.9,4.42,4.42,0,0,1,3.11-1.24,4.42,4.42,0,0,1,3.11,1.24,7.43,7.43,0,0,0,5,1.9,7.42,7.42,0,0,0,5-1.9,4.42,4.42,0,0,1,3.11-1.24v-3.16a7.4,7.4,0,0,0-5,1.91,4.44,4.44,0,0,1-3.11,1.25"/><g class="cls-20"><rect class="cls-2" x="-3210.78" y="-2541.53" width="5224.37" height="4468.85"/></g><path class="cls-3" d="M-404.5-64a4.73,4.73,0,0,0,4.72,4.73A4.73,4.73,0,0,0-395-64v-3.15h-3.16V-64a1.57,1.57,0,0,1-1.57,1.57A1.57,1.57,0,0,1-401.35-64V-86h-3.15Z"/><g class="cls-21"><rect class="cls-2" x="-3210.78" y="-2541.53" width="5224.37" height="4468.85"/></g><path class="cls-3" d="M-382.46-75v-7.87h-3.15V-75a1.57,1.57,0,0,1-1.57,1.57A1.58,1.58,0,0,1-388.76-75v-12.6a4.72,4.72,0,0,0-4.72-4.72,4.74,4.74,0,0,0-4.73,4.72v4.73H-395v-4.73a1.57,1.57,0,0,1,1.57-1.57,1.57,1.57,0,0,1,1.57,1.57V-75a4.73,4.73,0,0,0,4.73,4.72A4.72,4.72,0,0,0-382.46-75"/><g class="cls-22"><rect class="cls-2" x="-3210.78" y="-2541.53" width="5224.37" height="4468.85"/></g><path class="cls-3" d="M-426.54-64a1.57,1.57,0,0,1-1.58,1.57A1.57,1.57,0,0,1-429.7-64v-3.15h-3.14V-64a4.73,4.73,0,0,0,4.72,4.73A4.74,4.74,0,0,0-423.39-64V-86h-3.15Z"/><g class="cls-23"><rect class="cls-2" x="-3210.78" y="-2541.53" width="5224.37" height="4468.85"/></g><path class="cls-3" d="M-445.44-75a4.72,4.72,0,0,0,4.73,4.72A4.72,4.72,0,0,0-436-75v-12.6a1.57,1.57,0,0,1,1.58-1.57,1.58,1.58,0,0,1,1.57,1.57v4.73h3.15v-4.73a4.73,4.73,0,0,0-4.72-4.72,4.73,4.73,0,0,0-4.73,4.72V-75a1.58,1.58,0,0,1-1.57,1.57A1.57,1.57,0,0,1-442.28-75v-7.87h-3.16Z"/><g class="cls-24"><rect class="cls-2" x="-3210.78" y="-2541.53" width="5224.37" height="4468.85"/></g><path class="cls-3" d="M-454.88-64a18,18,0,0,1,5.64.91l4.95,1.66L-446.94-68a8.52,8.52,0,0,0-7.94-5.38,4.74,4.74,0,0,0-4.73,4.73A4.73,4.73,0,0,0-454.88-64m0-6.3a5.37,5.37,0,0,1,5,3.4l.16.4a20.92,20.92,0,0,0-5.17-.64,1.59,1.59,0,0,1-1.58-1.58,1.58,1.58,0,0,1,1.58-1.58"/><g class="cls-25"><rect class="cls-2" x="-3210.78" y="-2541.53" width="5224.37" height="4468.85"/></g><path class="cls-3" d="M-380.95-68l-2.66,6.64,5-1.66A18,18,0,0,1-373-64a4.73,4.73,0,0,0,4.72-4.72A4.74,4.74,0,0,0-373-73.42,8.51,8.51,0,0,0-380.95-68Zm2.92,1.17a5.37,5.37,0,0,1,5-3.4,1.57,1.57,0,0,1,1.57,1.58A1.57,1.57,0,0,1-373-67.12a21,21,0,0,0-5.18.65Z"/><g class="cls-26"><rect class="cls-2" x="-3210.78" y="-2541.53" width="5224.37" height="4468.85"/></g><path class="cls-2" d="M141,82.55a6.65,6.65,0,0,0-7.65-6.23c-1.59-3,5.36,10.83-23.19-46.26h0l-9.78-19.57a5.27,5.27,0,0,0-9.42,0L83.14,26.06,71.43,2.64h0a4.79,4.79,0,0,0-8.56,0l-9.6,19.2a1.11,1.11,0,0,1-2,0,4.79,4.79,0,0,0-8.56,0L27.2,52.89l-.42-.84a3.51,3.51,0,0,0-6.28,0h0L3.88,85.28H2.06a2.07,2.07,0,0,0,0,4.13h104a2.07,2.07,0,1,0,0-4.13H83.19a1.65,1.65,0,0,1-1.65-1.68A1.69,1.69,0,0,1,83.37,82a3,3,0,0,0,3.28-2.4,3.92,3.92,0,0,1,7.25-1.2,3.14,3.14,0,0,0,3.37,1.52,3.08,3.08,0,0,1,1.94-.07c2.42.78,2.88-1.39,5.21-.92a2.86,2.86,0,0,0,3.4-2.41,6.43,6.43,0,0,1,12-2.29A3.54,3.54,0,0,0,123,76a3.87,3.87,0,0,0,.89-.16,4.83,4.83,0,0,1,5.93,2.78,3.19,3.19,0,0,0,3.86,1.83,2.48,2.48,0,0,1,3.14,2.26,2.45,2.45,0,0,1-2.45,2.56H115.7a2.07,2.07,0,1,0,0,4.13h18.68A6.59,6.59,0,0,0,141,82.55ZM94.62,12.34a1.13,1.13,0,0,1,2,0l9.12,18.25L98.49,38a.47.47,0,0,1-.65,0l-4.41-3.79a4.61,4.61,0,0,0-6.59.59l-2.36,2.91a.48.48,0,0,1-.7.05l-1.3-1.2C90.67,20.24,90.45,20.66,94.62,12.34ZM23.64,55l5.64,11.27-3,3.07L23,66.49a4,4,0,0,0-5-.21ZM8.5,85.28l6-12.07c3,.74,4.29-1.6,5.84-3.51l3.3,2.84a4,4,0,0,0,5.49-.24l2.07-2.12,7.55,15.1Zm45,0H43.39L29.51,57.51,46.42,23.69a.66.66,0,0,1,1.18,0,5.23,5.23,0,0,0,9.36,0l9.6-19.2a.66.66,0,0,1,1.17,0h0l13.1,26.19Zm71.61-13.79a8.84,8.84,0,0,0-2,.28,10.56,10.56,0,0,0-19.19,3,7.27,7.27,0,0,0-3.94,1,7.11,7.11,0,0,0-2.94-.08,8,8,0,0,0-14.24,2.16,5.8,5.8,0,0,0-5.43,5.69h0a6.3,6.3,0,0,0,.23,1.74H58.15L80.56,40.45l.42.4h0a4.62,4.62,0,0,0,6.71-.48l2.36-2.92a.48.48,0,0,1,.69-.06l4.41,3.79a4.62,4.62,0,0,0,6.3-.27l6.28-6.41,18.51,37A10,10,0,0,0,125.14,71.49Z"/></svg>